G04 Layer: Inner2*
G04 EasyEDA v6.4.19.5, 2021-05-22T15:42:10+02:00*
G04 f6fe8073f4d6445e90d350db08ac70cc,b771c775d4444e86a06a5321f8c966cb,10*
G04 Gerber Generator version 0.2*
G04 Scale: 100 percent, Rotated: No, Reflected: No *
G04 Dimensions in inches *
G04 leading zeros omitted , absolute positions ,3 integer and 6 decimal *
%FSLAX36Y36*%
%MOIN*%

%ADD16C,0.1200*%
%ADD17C,0.0240*%
%ADD18C,0.0480*%
%ADD19C,0.0360*%
%ADD41C,0.0630*%
%ADD42C,0.0630*%
%ADD43C,0.0532*%
%ADD44C,0.0591*%
%ADD45C,0.0472*%

%LPD*%
G36*
X281180Y-2115900D02*
G01*
X266720Y-2115520D01*
X252580Y-2114400D01*
X238520Y-2112540D01*
X224579Y-2109940D01*
X210780Y-2106640D01*
X197180Y-2102600D01*
X183820Y-2097860D01*
X170720Y-2092420D01*
X157920Y-2086320D01*
X145460Y-2079540D01*
X133360Y-2072120D01*
X121679Y-2064100D01*
X110440Y-2055460D01*
X99660Y-2046240D01*
X89380Y-2036480D01*
X79620Y-2026180D01*
X70400Y-2015400D01*
X61780Y-2004139D01*
X53740Y-1992440D01*
X46340Y-1980360D01*
X39580Y-1967880D01*
X33480Y-1955080D01*
X28060Y-1941980D01*
X23320Y-1928600D01*
X19300Y-1915000D01*
X16000Y-1901220D01*
X13420Y-1887260D01*
X11580Y-1873200D01*
X10460Y-1859060D01*
X10100Y-1844820D01*
X10100Y-1642660D01*
X10440Y-1639700D01*
X11080Y-1637880D01*
X12060Y-1636220D01*
X13340Y-1634780D01*
X14860Y-1633620D01*
X16600Y-1632780D01*
X18460Y-1632300D01*
X20660Y-1632100D01*
X38900Y-1632100D01*
X43740Y-1631680D01*
X45960Y-1631220D01*
X49440Y-1630180D01*
X51540Y-1629300D01*
X54740Y-1627600D01*
X56620Y-1626339D01*
X59420Y-1624040D01*
X61040Y-1622420D01*
X63339Y-1619620D01*
X64600Y-1617740D01*
X66300Y-1614540D01*
X67180Y-1612440D01*
X68240Y-1608959D01*
X68680Y-1606720D01*
X69100Y-1601900D01*
X69100Y-1169100D01*
X68680Y-1164260D01*
X68240Y-1162020D01*
X67180Y-1158560D01*
X66300Y-1156460D01*
X64600Y-1153260D01*
X63339Y-1151360D01*
X61040Y-1148560D01*
X59420Y-1146960D01*
X56620Y-1144660D01*
X54740Y-1143380D01*
X51540Y-1141680D01*
X49440Y-1140820D01*
X45960Y-1139760D01*
X43740Y-1139320D01*
X40039Y-1138940D01*
X20240Y-1138900D01*
X17900Y-1139180D01*
X16460Y-1139080D01*
X15140Y-1138480D01*
X13580Y-1137400D01*
X12060Y-1135780D01*
X11080Y-1134120D01*
X10440Y-1132300D01*
X10100Y-1129320D01*
X10100Y-757840D01*
X10400Y-756300D01*
X11259Y-755000D01*
X12560Y-754140D01*
X14100Y-753840D01*
X15620Y-754140D01*
X16920Y-755000D01*
X18660Y-756760D01*
X22559Y-759680D01*
X26840Y-762000D01*
X31380Y-763700D01*
X36140Y-764740D01*
X41000Y-765080D01*
X45839Y-764740D01*
X50599Y-763700D01*
X55160Y-762000D01*
X59420Y-759680D01*
X63320Y-756760D01*
X66760Y-753319D01*
X69680Y-749419D01*
X72000Y-745160D01*
X73700Y-740600D01*
X74740Y-735840D01*
X75080Y-731000D01*
X74740Y-726140D01*
X73700Y-721380D01*
X72000Y-716840D01*
X69680Y-712560D01*
X66760Y-708660D01*
X63320Y-705220D01*
X59420Y-702320D01*
X55160Y-699980D01*
X50599Y-698280D01*
X45839Y-697240D01*
X41000Y-696900D01*
X36140Y-697240D01*
X31380Y-698280D01*
X26840Y-699980D01*
X22559Y-702320D01*
X18660Y-705220D01*
X16920Y-706979D01*
X15620Y-707840D01*
X14100Y-708139D01*
X12560Y-707840D01*
X11259Y-706979D01*
X10400Y-705680D01*
X10100Y-704140D01*
X10100Y-281180D01*
X10480Y-266720D01*
X11600Y-252580D01*
X13460Y-238520D01*
X16040Y-224560D01*
X19360Y-210780D01*
X23400Y-197180D01*
X28140Y-183820D01*
X33560Y-170720D01*
X39680Y-157920D01*
X44960Y-148180D01*
X45860Y-147080D01*
X47080Y-146340D01*
X48480Y-146100D01*
X290940Y-146100D01*
X293400Y-145820D01*
X295540Y-145060D01*
X296040Y-144760D01*
X297680Y-144180D01*
X299400Y-144340D01*
X302720Y-145420D01*
X306260Y-145900D01*
X309840Y-145740D01*
X313320Y-144940D01*
X316600Y-143540D01*
X319800Y-141440D01*
X321340Y-140820D01*
X323000Y-140900D01*
X324480Y-141640D01*
X325720Y-142620D01*
X328860Y-144320D01*
X332260Y-145420D01*
X335800Y-145900D01*
X339360Y-145740D01*
X342840Y-144940D01*
X346140Y-143540D01*
X349320Y-141440D01*
X350860Y-140820D01*
X352540Y-140900D01*
X354020Y-141640D01*
X355240Y-142620D01*
X358380Y-144320D01*
X361780Y-145420D01*
X365319Y-145900D01*
X368900Y-145740D01*
X372380Y-144940D01*
X375660Y-143540D01*
X378860Y-141440D01*
X380400Y-140820D01*
X382060Y-140900D01*
X383540Y-141640D01*
X384780Y-142620D01*
X387920Y-144320D01*
X391320Y-145420D01*
X394860Y-145900D01*
X398420Y-145740D01*
X401900Y-144940D01*
X405200Y-143540D01*
X408380Y-141440D01*
X409920Y-140820D01*
X411580Y-140900D01*
X413080Y-141640D01*
X414300Y-142620D01*
X417440Y-144320D01*
X420840Y-145420D01*
X424380Y-145900D01*
X427939Y-145740D01*
X431420Y-144940D01*
X434720Y-143540D01*
X437900Y-141440D01*
X439440Y-140820D01*
X441120Y-140900D01*
X442600Y-141640D01*
X443820Y-142620D01*
X446960Y-144320D01*
X450360Y-145420D01*
X453900Y-145900D01*
X457480Y-145740D01*
X460959Y-144940D01*
X464240Y-143540D01*
X467440Y-141440D01*
X468980Y-140820D01*
X470640Y-140900D01*
X472120Y-141640D01*
X473360Y-142620D01*
X476500Y-144320D01*
X479900Y-145420D01*
X483440Y-145900D01*
X487000Y-145740D01*
X490480Y-144940D01*
X492200Y-144220D01*
X493440Y-143900D01*
X494720Y-144000D01*
X495900Y-144500D01*
X496800Y-145060D01*
X498920Y-145820D01*
X501380Y-146100D01*
X1620940Y-146100D01*
X1623400Y-145820D01*
X1625680Y-145020D01*
X1626699Y-144480D01*
X1628240Y-144020D01*
X1629820Y-144200D01*
X1633560Y-145420D01*
X1637100Y-145900D01*
X1640660Y-145740D01*
X1644139Y-144940D01*
X1647440Y-143540D01*
X1650620Y-141440D01*
X1652160Y-140820D01*
X1653839Y-140900D01*
X1655320Y-141640D01*
X1656540Y-142620D01*
X1659680Y-144320D01*
X1663080Y-145420D01*
X1666620Y-145900D01*
X1670200Y-145740D01*
X1673680Y-144940D01*
X1676960Y-143540D01*
X1680160Y-141440D01*
X1681699Y-140820D01*
X1683360Y-140900D01*
X1684840Y-141640D01*
X1686080Y-142620D01*
X1689220Y-144320D01*
X1692620Y-145420D01*
X1696160Y-145900D01*
X1699720Y-145740D01*
X1703200Y-144940D01*
X1706500Y-143540D01*
X1709680Y-141440D01*
X1711220Y-140820D01*
X1712900Y-140900D01*
X1714379Y-141640D01*
X1715600Y-142620D01*
X1718740Y-144320D01*
X1722140Y-145420D01*
X1725680Y-145900D01*
X1729259Y-145740D01*
X1732740Y-144940D01*
X1736020Y-143540D01*
X1739199Y-141440D01*
X1740760Y-140820D01*
X1742420Y-140900D01*
X1743899Y-141640D01*
X1745120Y-142620D01*
X1748260Y-144320D01*
X1751660Y-145420D01*
X1755200Y-145900D01*
X1758779Y-145740D01*
X1762260Y-144940D01*
X1765540Y-143540D01*
X1768740Y-141440D01*
X1770280Y-140820D01*
X1771940Y-140900D01*
X1773420Y-141640D01*
X1774660Y-142620D01*
X1777800Y-144320D01*
X1781200Y-145420D01*
X1784740Y-145900D01*
X1788300Y-145740D01*
X1791780Y-144940D01*
X1795080Y-143540D01*
X1798260Y-141440D01*
X1799800Y-140820D01*
X1801480Y-140900D01*
X1802960Y-141640D01*
X1804180Y-142620D01*
X1807320Y-144320D01*
X1810720Y-145420D01*
X1814259Y-145900D01*
X1817840Y-145740D01*
X1821320Y-144940D01*
X1822520Y-144420D01*
X1823779Y-144120D01*
X1825040Y-144220D01*
X1826800Y-145060D01*
X1828920Y-145820D01*
X1831380Y-146100D01*
X2077520Y-146100D01*
X2078920Y-146340D01*
X2080140Y-147080D01*
X2081040Y-148180D01*
X2086420Y-158100D01*
X2092520Y-170900D01*
X2097940Y-184020D01*
X2102660Y-197380D01*
X2106680Y-210980D01*
X2110000Y-224780D01*
X2112580Y-238720D01*
X2114420Y-252780D01*
X2115520Y-266920D01*
X2115900Y-281180D01*
X2115900Y-1129320D01*
X2115540Y-1132300D01*
X2114920Y-1134120D01*
X2113940Y-1135780D01*
X2112660Y-1137220D01*
X2111120Y-1138380D01*
X2109380Y-1139220D01*
X2107520Y-1139700D01*
X2105460Y-1139860D01*
X2087640Y-1138920D01*
X2085900Y-1138960D01*
X2082260Y-1139320D01*
X2080020Y-1139760D01*
X2076560Y-1140820D01*
X2074460Y-1141680D01*
X2071260Y-1143380D01*
X2069360Y-1144660D01*
X2066560Y-1146960D01*
X2064960Y-1148560D01*
X2062660Y-1151360D01*
X2061399Y-1153260D01*
X2059680Y-1156460D01*
X2058820Y-1158560D01*
X2057760Y-1162020D01*
X2057320Y-1164240D01*
X2056900Y-1169100D01*
X2056900Y-1601900D01*
X2057320Y-1606740D01*
X2057760Y-1608959D01*
X2058820Y-1612440D01*
X2059680Y-1614540D01*
X2061399Y-1617740D01*
X2062660Y-1619620D01*
X2064960Y-1622420D01*
X2066560Y-1624040D01*
X2069360Y-1626339D01*
X2071260Y-1627600D01*
X2074460Y-1629300D01*
X2076560Y-1630180D01*
X2080020Y-1631220D01*
X2082260Y-1631680D01*
X2087100Y-1632100D01*
X2105320Y-1632100D01*
X2108300Y-1632440D01*
X2110120Y-1633080D01*
X2111780Y-1634060D01*
X2113220Y-1635340D01*
X2114380Y-1636860D01*
X2115220Y-1638600D01*
X2115700Y-1640460D01*
X2115900Y-1642660D01*
X2115900Y-1844820D01*
X2115520Y-1859280D01*
X2114400Y-1873420D01*
X2112540Y-1887480D01*
X2109940Y-1901420D01*
X2106640Y-1915200D01*
X2102600Y-1928800D01*
X2097860Y-1942180D01*
X2092420Y-1955280D01*
X2086320Y-1968080D01*
X2079540Y-1980540D01*
X2072120Y-1992620D01*
X2064100Y-2004300D01*
X2055460Y-2015560D01*
X2046240Y-2026339D01*
X2036480Y-2036620D01*
X2026180Y-2046380D01*
X2015400Y-2055580D01*
X2004139Y-2064220D01*
X1992440Y-2072240D01*
X1980360Y-2079640D01*
X1967880Y-2086399D01*
X1955080Y-2092520D01*
X1941980Y-2097940D01*
X1928600Y-2102660D01*
X1915000Y-2106680D01*
X1901220Y-2110000D01*
X1887260Y-2112560D01*
X1873200Y-2114420D01*
X1859060Y-2115520D01*
X1844820Y-2115900D01*
G37*

%LPC*%
G36*
X902580Y-2098680D02*
G01*
X906420Y-2098340D01*
X910140Y-2097340D01*
X913620Y-2095720D01*
X916780Y-2093500D01*
X919500Y-2090780D01*
X921700Y-2087640D01*
X923340Y-2084139D01*
X924320Y-2080420D01*
X924659Y-2076600D01*
X924320Y-2072760D01*
X923340Y-2069040D01*
X921700Y-2065540D01*
X919500Y-2062400D01*
X916780Y-2059680D01*
X913620Y-2057460D01*
X910140Y-2055840D01*
X906420Y-2054840D01*
X902580Y-2054500D01*
X898740Y-2054840D01*
X895020Y-2055840D01*
X891540Y-2057460D01*
X888379Y-2059680D01*
X885660Y-2062400D01*
X883460Y-2065540D01*
X881820Y-2069040D01*
X880840Y-2072760D01*
X880500Y-2076600D01*
X880840Y-2080420D01*
X881820Y-2084139D01*
X883460Y-2087640D01*
X885660Y-2090780D01*
X888379Y-2093500D01*
X891540Y-2095720D01*
X895020Y-2097340D01*
X898740Y-2098340D01*
G37*
G36*
X1452780Y-2072980D02*
G01*
X1457580Y-2072640D01*
X1462280Y-2071620D01*
X1466800Y-2069940D01*
X1471020Y-2067640D01*
X1474860Y-2064760D01*
X1478260Y-2061360D01*
X1481140Y-2057500D01*
X1483460Y-2053280D01*
X1485140Y-2048779D01*
X1486160Y-2044079D01*
X1486500Y-2039139D01*
X1486500Y-2011860D01*
X1486160Y-2006920D01*
X1485140Y-2002220D01*
X1483460Y-1997720D01*
X1481140Y-1993500D01*
X1478260Y-1989640D01*
X1474860Y-1986240D01*
X1471020Y-1983360D01*
X1466800Y-1981060D01*
X1462280Y-1979379D01*
X1457580Y-1978340D01*
X1452780Y-1978000D01*
X1448000Y-1978340D01*
X1443300Y-1979379D01*
X1438779Y-1981060D01*
X1434560Y-1983360D01*
X1430720Y-1986240D01*
X1427320Y-1989640D01*
X1424420Y-1993500D01*
X1422120Y-1997720D01*
X1420440Y-2002220D01*
X1419420Y-2006920D01*
X1419060Y-2011860D01*
X1419060Y-2039139D01*
X1419420Y-2044079D01*
X1420440Y-2048779D01*
X1422120Y-2053280D01*
X1424420Y-2057500D01*
X1427320Y-2061360D01*
X1430720Y-2064760D01*
X1434560Y-2067640D01*
X1438779Y-2069940D01*
X1443300Y-2071620D01*
X1448000Y-2072640D01*
G37*
G36*
X1177200Y-2072980D02*
G01*
X1182000Y-2072640D01*
X1186700Y-2071620D01*
X1191200Y-2069940D01*
X1195420Y-2067640D01*
X1199280Y-2064740D01*
X1202680Y-2061339D01*
X1205560Y-2057500D01*
X1207860Y-2053280D01*
X1209540Y-2048779D01*
X1210560Y-2044079D01*
X1210920Y-2039139D01*
X1210920Y-2011860D01*
X1210560Y-2006920D01*
X1209540Y-2002220D01*
X1207860Y-1997700D01*
X1205560Y-1993480D01*
X1202680Y-1989640D01*
X1199280Y-1986240D01*
X1195420Y-1983360D01*
X1191200Y-1981040D01*
X1186700Y-1979360D01*
X1182000Y-1978340D01*
X1177200Y-1978000D01*
X1172400Y-1978340D01*
X1167700Y-1979360D01*
X1163200Y-1981040D01*
X1158980Y-1983360D01*
X1155120Y-1986240D01*
X1151720Y-1989640D01*
X1148840Y-1993480D01*
X1146540Y-1997700D01*
X1144860Y-2002220D01*
X1143840Y-2006920D01*
X1143480Y-2011860D01*
X1143480Y-2039139D01*
X1143840Y-2044079D01*
X1144860Y-2048779D01*
X1146540Y-2053280D01*
X1148840Y-2057500D01*
X1151720Y-2061339D01*
X1155120Y-2064740D01*
X1158980Y-2067640D01*
X1163200Y-2069940D01*
X1167700Y-2071620D01*
X1172400Y-2072640D01*
G37*
G36*
X1870000Y-1991579D02*
G01*
X1875420Y-1991220D01*
X1880760Y-1990160D01*
X1885900Y-1988420D01*
X1890780Y-1986020D01*
X1895320Y-1982980D01*
X1899400Y-1979400D01*
X1902980Y-1975320D01*
X1906020Y-1970780D01*
X1908420Y-1965900D01*
X1910160Y-1960760D01*
X1911220Y-1955420D01*
X1911579Y-1950000D01*
X1911220Y-1944560D01*
X1910160Y-1939220D01*
X1908420Y-1934079D01*
X1906020Y-1929199D01*
X1902980Y-1924680D01*
X1899400Y-1920580D01*
X1895320Y-1917000D01*
X1890780Y-1913980D01*
X1885900Y-1911560D01*
X1880760Y-1909820D01*
X1875420Y-1908760D01*
X1870000Y-1908400D01*
X1864560Y-1908760D01*
X1859220Y-1909820D01*
X1854079Y-1911560D01*
X1849199Y-1913980D01*
X1844680Y-1917000D01*
X1840580Y-1920580D01*
X1837000Y-1924680D01*
X1833980Y-1929199D01*
X1831560Y-1934079D01*
X1829820Y-1939220D01*
X1828760Y-1944560D01*
X1828400Y-1950000D01*
X1828760Y-1955420D01*
X1829820Y-1960760D01*
X1831560Y-1965900D01*
X1833980Y-1970780D01*
X1837000Y-1975320D01*
X1840580Y-1979400D01*
X1844680Y-1982980D01*
X1849199Y-1986020D01*
X1854079Y-1988420D01*
X1859220Y-1990160D01*
X1864560Y-1991220D01*
G37*
G36*
X1788240Y-1987260D02*
G01*
X1790780Y-1986020D01*
X1795320Y-1982980D01*
X1799400Y-1979400D01*
X1802980Y-1975320D01*
X1806020Y-1970780D01*
X1807260Y-1968240D01*
X1788240Y-1968240D01*
G37*
G36*
X1751740Y-1987260D02*
G01*
X1751740Y-1968240D01*
X1732720Y-1968240D01*
X1733980Y-1970780D01*
X1737000Y-1975320D01*
X1740580Y-1979400D01*
X1744680Y-1982980D01*
X1749199Y-1986020D01*
G37*
G36*
X150000Y-1972080D02*
G01*
X153820Y-1971740D01*
X157540Y-1970740D01*
X161040Y-1969120D01*
X164180Y-1966900D01*
X166900Y-1964180D01*
X169120Y-1961040D01*
X170740Y-1957540D01*
X171740Y-1953820D01*
X172079Y-1950000D01*
X171740Y-1946160D01*
X170740Y-1942440D01*
X169120Y-1938940D01*
X166900Y-1935800D01*
X164180Y-1933080D01*
X161040Y-1930860D01*
X157540Y-1929240D01*
X153820Y-1928240D01*
X150000Y-1927900D01*
X146160Y-1928240D01*
X142440Y-1929240D01*
X138940Y-1930860D01*
X135800Y-1933080D01*
X133080Y-1935800D01*
X130860Y-1938940D01*
X129240Y-1942440D01*
X128240Y-1946160D01*
X127899Y-1950000D01*
X128240Y-1953820D01*
X129240Y-1957540D01*
X130860Y-1961040D01*
X133080Y-1964180D01*
X135800Y-1966900D01*
X138940Y-1969120D01*
X142440Y-1970740D01*
X146160Y-1971740D01*
G37*
G36*
X1414680Y-1956639D02*
G01*
X1419760Y-1956100D01*
X1424720Y-1954860D01*
X1429460Y-1952940D01*
X1433899Y-1950380D01*
X1437920Y-1947240D01*
X1441480Y-1943560D01*
X1444480Y-1939420D01*
X1446879Y-1934900D01*
X1448640Y-1930100D01*
X1449700Y-1925100D01*
X1450060Y-1920000D01*
X1449700Y-1914880D01*
X1448640Y-1909880D01*
X1446879Y-1905080D01*
X1444480Y-1900560D01*
X1441480Y-1896420D01*
X1437920Y-1892740D01*
X1433899Y-1889600D01*
X1429460Y-1887040D01*
X1424720Y-1885120D01*
X1419760Y-1883880D01*
X1414680Y-1883340D01*
X1409560Y-1883520D01*
X1404520Y-1884420D01*
X1399660Y-1886000D01*
X1395060Y-1888240D01*
X1390820Y-1891100D01*
X1387020Y-1894520D01*
X1383740Y-1898440D01*
X1381020Y-1902780D01*
X1378940Y-1907460D01*
X1377520Y-1912360D01*
X1376819Y-1917440D01*
X1376819Y-1922540D01*
X1377520Y-1927620D01*
X1378940Y-1932540D01*
X1381020Y-1937200D01*
X1383740Y-1941540D01*
X1387020Y-1945460D01*
X1390820Y-1948880D01*
X1395060Y-1951740D01*
X1399660Y-1953980D01*
X1404520Y-1955560D01*
X1409560Y-1956459D01*
G37*
G36*
X1217880Y-1956639D02*
G01*
X1222960Y-1956100D01*
X1227920Y-1954860D01*
X1232660Y-1952940D01*
X1237100Y-1950380D01*
X1241120Y-1947240D01*
X1244680Y-1943560D01*
X1247680Y-1939420D01*
X1250080Y-1934900D01*
X1251840Y-1930100D01*
X1252900Y-1925100D01*
X1253260Y-1920000D01*
X1252900Y-1914880D01*
X1251840Y-1909880D01*
X1250080Y-1905080D01*
X1247680Y-1900560D01*
X1244680Y-1896420D01*
X1241120Y-1892740D01*
X1237100Y-1889600D01*
X1232660Y-1887040D01*
X1227920Y-1885120D01*
X1222960Y-1883880D01*
X1217880Y-1883340D01*
X1212760Y-1883520D01*
X1207720Y-1884420D01*
X1202860Y-1886000D01*
X1198260Y-1888240D01*
X1194020Y-1891100D01*
X1190220Y-1894520D01*
X1186940Y-1898440D01*
X1184220Y-1902780D01*
X1182140Y-1907460D01*
X1180720Y-1912360D01*
X1180020Y-1917440D01*
X1180020Y-1922540D01*
X1180720Y-1927620D01*
X1182140Y-1932540D01*
X1184220Y-1937200D01*
X1186940Y-1941540D01*
X1190220Y-1945460D01*
X1194020Y-1948880D01*
X1198260Y-1951740D01*
X1202860Y-1953980D01*
X1207720Y-1955560D01*
X1212760Y-1956459D01*
G37*
G36*
X1788240Y-1931740D02*
G01*
X1807260Y-1931740D01*
X1806020Y-1929199D01*
X1802980Y-1924680D01*
X1799400Y-1920580D01*
X1795320Y-1917000D01*
X1790780Y-1913980D01*
X1788240Y-1912720D01*
G37*
G36*
X1732720Y-1931740D02*
G01*
X1751740Y-1931740D01*
X1751740Y-1912720D01*
X1749199Y-1913980D01*
X1744680Y-1917000D01*
X1740580Y-1920580D01*
X1737000Y-1924680D01*
X1733980Y-1929199D01*
G37*
G36*
X2000000Y-1922080D02*
G01*
X2003820Y-1921740D01*
X2007540Y-1920740D01*
X2011040Y-1919120D01*
X2014180Y-1916900D01*
X2016900Y-1914180D01*
X2019120Y-1911040D01*
X2020740Y-1907540D01*
X2021740Y-1903820D01*
X2022080Y-1900000D01*
X2021740Y-1896160D01*
X2020740Y-1892440D01*
X2019120Y-1888940D01*
X2016900Y-1885800D01*
X2014180Y-1883080D01*
X2011040Y-1880860D01*
X2007540Y-1879240D01*
X2003820Y-1878240D01*
X2000000Y-1877900D01*
X1996160Y-1878240D01*
X1992440Y-1879240D01*
X1988940Y-1880860D01*
X1985800Y-1883080D01*
X1983080Y-1885800D01*
X1980860Y-1888940D01*
X1979240Y-1892440D01*
X1978240Y-1896160D01*
X1977900Y-1900000D01*
X1978240Y-1903820D01*
X1979240Y-1907540D01*
X1980860Y-1911040D01*
X1983080Y-1914180D01*
X1985800Y-1916900D01*
X1988940Y-1919120D01*
X1992440Y-1920740D01*
X1996160Y-1921740D01*
G37*
G36*
X755000Y-1919840D02*
G01*
X758820Y-1919500D01*
X762540Y-1918500D01*
X766040Y-1916879D01*
X769180Y-1914660D01*
X771900Y-1911940D01*
X774120Y-1908800D01*
X775740Y-1905300D01*
X776740Y-1901579D01*
X777080Y-1897760D01*
X776740Y-1893920D01*
X775740Y-1890200D01*
X774120Y-1886699D01*
X771900Y-1883560D01*
X769180Y-1880840D01*
X766040Y-1878620D01*
X762540Y-1877000D01*
X758820Y-1876000D01*
X755000Y-1875660D01*
X751160Y-1876000D01*
X747440Y-1877000D01*
X743940Y-1878620D01*
X740800Y-1880840D01*
X738080Y-1883560D01*
X735860Y-1886699D01*
X734240Y-1890200D01*
X733240Y-1893920D01*
X732900Y-1897760D01*
X733240Y-1901579D01*
X734240Y-1905300D01*
X735860Y-1908800D01*
X738080Y-1911940D01*
X740800Y-1914660D01*
X743940Y-1916879D01*
X747440Y-1918500D01*
X751160Y-1919500D01*
G37*
G36*
X1870000Y-1891579D02*
G01*
X1875420Y-1891220D01*
X1880760Y-1890160D01*
X1885900Y-1888420D01*
X1890780Y-1886020D01*
X1895320Y-1882980D01*
X1899400Y-1879400D01*
X1902980Y-1875320D01*
X1906020Y-1870780D01*
X1908420Y-1865900D01*
X1910160Y-1860760D01*
X1911220Y-1855420D01*
X1911579Y-1850000D01*
X1911220Y-1844560D01*
X1910160Y-1839220D01*
X1908420Y-1834079D01*
X1906020Y-1829199D01*
X1902980Y-1824680D01*
X1899400Y-1820580D01*
X1895320Y-1817000D01*
X1890780Y-1813980D01*
X1885900Y-1811560D01*
X1880760Y-1809820D01*
X1875420Y-1808760D01*
X1870000Y-1808400D01*
X1864560Y-1808760D01*
X1859220Y-1809820D01*
X1854079Y-1811560D01*
X1849199Y-1813980D01*
X1844680Y-1817000D01*
X1840580Y-1820580D01*
X1837000Y-1824680D01*
X1833980Y-1829199D01*
X1831560Y-1834079D01*
X1829820Y-1839220D01*
X1828760Y-1844560D01*
X1828400Y-1850000D01*
X1828760Y-1855420D01*
X1829820Y-1860760D01*
X1831560Y-1865900D01*
X1833980Y-1870780D01*
X1837000Y-1875320D01*
X1840580Y-1879400D01*
X1844680Y-1882980D01*
X1849199Y-1886020D01*
X1854079Y-1888420D01*
X1859220Y-1890160D01*
X1864560Y-1891220D01*
G37*
G36*
X1788240Y-1887260D02*
G01*
X1790780Y-1886020D01*
X1795320Y-1882980D01*
X1799400Y-1879400D01*
X1802980Y-1875320D01*
X1806020Y-1870780D01*
X1807260Y-1868240D01*
X1788240Y-1868240D01*
G37*
G36*
X1751740Y-1887260D02*
G01*
X1751740Y-1868240D01*
X1732720Y-1868240D01*
X1733980Y-1870780D01*
X1737000Y-1875320D01*
X1740580Y-1879400D01*
X1744680Y-1882980D01*
X1749199Y-1886020D01*
G37*
G36*
X493800Y-1881060D02*
G01*
X501000Y-1880500D01*
X508080Y-1879220D01*
X515020Y-1877200D01*
X521700Y-1874480D01*
X528080Y-1871080D01*
X534060Y-1867060D01*
X539600Y-1862440D01*
X544640Y-1857260D01*
X549120Y-1851600D01*
X553000Y-1845520D01*
X556220Y-1839060D01*
X558760Y-1832300D01*
X560600Y-1825320D01*
X561720Y-1818200D01*
X562080Y-1811000D01*
X561720Y-1803779D01*
X560600Y-1796660D01*
X558760Y-1789680D01*
X556220Y-1782920D01*
X553000Y-1776459D01*
X549120Y-1770380D01*
X544640Y-1764720D01*
X539600Y-1759540D01*
X534060Y-1754920D01*
X528080Y-1750900D01*
X521700Y-1747500D01*
X515020Y-1744780D01*
X508080Y-1742760D01*
X501000Y-1741480D01*
X493800Y-1740920D01*
X486580Y-1741100D01*
X479420Y-1742040D01*
X472400Y-1743680D01*
X465580Y-1746060D01*
X459040Y-1749120D01*
X452860Y-1752840D01*
X447080Y-1757160D01*
X441800Y-1762060D01*
X437020Y-1767480D01*
X432840Y-1773380D01*
X429300Y-1779660D01*
X426400Y-1786260D01*
X424200Y-1793140D01*
X422740Y-1800200D01*
X421980Y-1807380D01*
X421980Y-1814600D01*
X422740Y-1821780D01*
X424200Y-1828839D01*
X426400Y-1835720D01*
X429300Y-1842320D01*
X432840Y-1848600D01*
X437020Y-1854500D01*
X441800Y-1859920D01*
X447080Y-1864820D01*
X452860Y-1869139D01*
X459040Y-1872860D01*
X465580Y-1875920D01*
X472400Y-1878300D01*
X479420Y-1879940D01*
X486580Y-1880880D01*
G37*
G36*
X825000Y-1849840D02*
G01*
X828820Y-1849500D01*
X832540Y-1848500D01*
X836040Y-1846879D01*
X839180Y-1844660D01*
X841900Y-1841940D01*
X844120Y-1838800D01*
X845740Y-1835300D01*
X846740Y-1831579D01*
X847080Y-1827760D01*
X846740Y-1823920D01*
X845740Y-1820200D01*
X844120Y-1816699D01*
X841900Y-1813560D01*
X839180Y-1810840D01*
X836040Y-1808620D01*
X832220Y-1806840D01*
X831260Y-1806220D01*
X830380Y-1805100D01*
X829800Y-1803420D01*
X830000Y-1801660D01*
X830939Y-1800160D01*
X833900Y-1797180D01*
X836120Y-1794040D01*
X837740Y-1790540D01*
X838740Y-1786819D01*
X839080Y-1783000D01*
X838740Y-1779160D01*
X837740Y-1775440D01*
X836120Y-1771940D01*
X833900Y-1768800D01*
X831180Y-1766080D01*
X828040Y-1763860D01*
X824539Y-1762240D01*
X820819Y-1761240D01*
X817000Y-1760900D01*
X816260Y-1760980D01*
X814539Y-1760740D01*
X813080Y-1759820D01*
X812159Y-1758360D01*
X811940Y-1756639D01*
X812080Y-1755000D01*
X811740Y-1751160D01*
X810740Y-1747440D01*
X809120Y-1743940D01*
X806900Y-1740800D01*
X804180Y-1738080D01*
X801040Y-1735860D01*
X797540Y-1734240D01*
X793820Y-1733240D01*
X790000Y-1732900D01*
X786160Y-1733240D01*
X782440Y-1734240D01*
X778940Y-1735860D01*
X775800Y-1738080D01*
X773080Y-1740800D01*
X770860Y-1743940D01*
X769240Y-1747440D01*
X768240Y-1751160D01*
X767900Y-1755000D01*
X768240Y-1758820D01*
X769240Y-1762540D01*
X770860Y-1766040D01*
X771260Y-1766600D01*
X771900Y-1768080D01*
X771900Y-1769700D01*
X771260Y-1771180D01*
X770860Y-1771740D01*
X769240Y-1775240D01*
X768240Y-1778959D01*
X767900Y-1782800D01*
X768240Y-1786620D01*
X769240Y-1790340D01*
X771700Y-1795580D01*
X771700Y-1797200D01*
X769240Y-1802440D01*
X768240Y-1806160D01*
X767900Y-1810000D01*
X768240Y-1813820D01*
X769240Y-1817540D01*
X770860Y-1821040D01*
X773080Y-1824180D01*
X775800Y-1826900D01*
X778940Y-1829120D01*
X782440Y-1830740D01*
X786160Y-1831740D01*
X790000Y-1832080D01*
X793820Y-1831740D01*
X797540Y-1830740D01*
X798080Y-1830500D01*
X799780Y-1830120D01*
X801460Y-1830500D01*
X802840Y-1831540D01*
X803640Y-1833080D01*
X804240Y-1835300D01*
X805860Y-1838800D01*
X808080Y-1841940D01*
X810800Y-1844660D01*
X813940Y-1846879D01*
X817440Y-1848500D01*
X821160Y-1849500D01*
G37*
G36*
X1732720Y-1831740D02*
G01*
X1751740Y-1831740D01*
X1751740Y-1812720D01*
X1749199Y-1813980D01*
X1744680Y-1817000D01*
X1740580Y-1820580D01*
X1737000Y-1824680D01*
X1733980Y-1829199D01*
G37*
G36*
X1788240Y-1831740D02*
G01*
X1807260Y-1831740D01*
X1806020Y-1829199D01*
X1802980Y-1824680D01*
X1799400Y-1820580D01*
X1795320Y-1817000D01*
X1790780Y-1813980D01*
X1788240Y-1812720D01*
G37*
G36*
X1870000Y-1791579D02*
G01*
X1875420Y-1791220D01*
X1880760Y-1790160D01*
X1885900Y-1788420D01*
X1890780Y-1786020D01*
X1895320Y-1782980D01*
X1899400Y-1779400D01*
X1902980Y-1775320D01*
X1906020Y-1770780D01*
X1908420Y-1765900D01*
X1910160Y-1760760D01*
X1911220Y-1755420D01*
X1911579Y-1750000D01*
X1911220Y-1744560D01*
X1910160Y-1739220D01*
X1908420Y-1734079D01*
X1906020Y-1729199D01*
X1902980Y-1724680D01*
X1899400Y-1720580D01*
X1895320Y-1717000D01*
X1890780Y-1713980D01*
X1885900Y-1711560D01*
X1880760Y-1709820D01*
X1875420Y-1708760D01*
X1870000Y-1708400D01*
X1864560Y-1708760D01*
X1859220Y-1709820D01*
X1854079Y-1711560D01*
X1849199Y-1713980D01*
X1844680Y-1717000D01*
X1840580Y-1720580D01*
X1837000Y-1724680D01*
X1833980Y-1729199D01*
X1831560Y-1734079D01*
X1829820Y-1739220D01*
X1828760Y-1744560D01*
X1828400Y-1750000D01*
X1828760Y-1755420D01*
X1829820Y-1760760D01*
X1831560Y-1765900D01*
X1833980Y-1770780D01*
X1837000Y-1775320D01*
X1840580Y-1779400D01*
X1844680Y-1782980D01*
X1849199Y-1786020D01*
X1854079Y-1788420D01*
X1859220Y-1790160D01*
X1864560Y-1791220D01*
G37*
G36*
X1770000Y-1791579D02*
G01*
X1775420Y-1791220D01*
X1780760Y-1790160D01*
X1785900Y-1788420D01*
X1790780Y-1786020D01*
X1795320Y-1782980D01*
X1799400Y-1779400D01*
X1802980Y-1775320D01*
X1806020Y-1770780D01*
X1808420Y-1765900D01*
X1810160Y-1760760D01*
X1811220Y-1755420D01*
X1811579Y-1750000D01*
X1811220Y-1744560D01*
X1810160Y-1739220D01*
X1808420Y-1734079D01*
X1806020Y-1729199D01*
X1802980Y-1724680D01*
X1799400Y-1720580D01*
X1795320Y-1717000D01*
X1790780Y-1713980D01*
X1785900Y-1711560D01*
X1780760Y-1709820D01*
X1775420Y-1708760D01*
X1770000Y-1708400D01*
X1764560Y-1708760D01*
X1759220Y-1709820D01*
X1754079Y-1711560D01*
X1749199Y-1713980D01*
X1744680Y-1717000D01*
X1740580Y-1720580D01*
X1737000Y-1724680D01*
X1733980Y-1729199D01*
X1731560Y-1734079D01*
X1729820Y-1739220D01*
X1728760Y-1744560D01*
X1728400Y-1750000D01*
X1728760Y-1755420D01*
X1729820Y-1760760D01*
X1731560Y-1765900D01*
X1733980Y-1770780D01*
X1737000Y-1775320D01*
X1740580Y-1779400D01*
X1744680Y-1782980D01*
X1749199Y-1786020D01*
X1754079Y-1788420D01*
X1759220Y-1790160D01*
X1764560Y-1791220D01*
G37*
G36*
X1230000Y-1752080D02*
G01*
X1233820Y-1751740D01*
X1237540Y-1750740D01*
X1241040Y-1749120D01*
X1244180Y-1746900D01*
X1246900Y-1744180D01*
X1249120Y-1741040D01*
X1250740Y-1737540D01*
X1251740Y-1733820D01*
X1252080Y-1730000D01*
X1251740Y-1726160D01*
X1250740Y-1722440D01*
X1249120Y-1718940D01*
X1246900Y-1715800D01*
X1244180Y-1713080D01*
X1241040Y-1710860D01*
X1237540Y-1709240D01*
X1233820Y-1708240D01*
X1230000Y-1707900D01*
X1226160Y-1708240D01*
X1222440Y-1709240D01*
X1218940Y-1710860D01*
X1215800Y-1713080D01*
X1213080Y-1715800D01*
X1210860Y-1718940D01*
X1209240Y-1722440D01*
X1208240Y-1726160D01*
X1207900Y-1730000D01*
X1208240Y-1733820D01*
X1209240Y-1737540D01*
X1210860Y-1741040D01*
X1213080Y-1744180D01*
X1215800Y-1746900D01*
X1218940Y-1749120D01*
X1222440Y-1750740D01*
X1226160Y-1751740D01*
G37*
G36*
X960000Y-1742080D02*
G01*
X963820Y-1741740D01*
X967540Y-1740740D01*
X971040Y-1739120D01*
X972700Y-1737960D01*
X974180Y-1737320D01*
X975800Y-1737320D01*
X977280Y-1737960D01*
X978940Y-1739120D01*
X982440Y-1740740D01*
X986160Y-1741740D01*
X990000Y-1742080D01*
X993820Y-1741740D01*
X997540Y-1740740D01*
X1001040Y-1739120D01*
X1004180Y-1736900D01*
X1006900Y-1734180D01*
X1009120Y-1731040D01*
X1010740Y-1727540D01*
X1011740Y-1723820D01*
X1012080Y-1720000D01*
X1011740Y-1716160D01*
X1010740Y-1712440D01*
X1009120Y-1708940D01*
X1007960Y-1707280D01*
X1007320Y-1705800D01*
X1007320Y-1704180D01*
X1007960Y-1702700D01*
X1009120Y-1701040D01*
X1010740Y-1697540D01*
X1011740Y-1693820D01*
X1012080Y-1690000D01*
X1011740Y-1686160D01*
X1010740Y-1682440D01*
X1009120Y-1678940D01*
X1007960Y-1677280D01*
X1007320Y-1675800D01*
X1007320Y-1674180D01*
X1007960Y-1672700D01*
X1009120Y-1671040D01*
X1010740Y-1667540D01*
X1011740Y-1663820D01*
X1012080Y-1660000D01*
X1011740Y-1656160D01*
X1010740Y-1652440D01*
X1009120Y-1648940D01*
X1006900Y-1645800D01*
X1004180Y-1643080D01*
X1001040Y-1640860D01*
X997540Y-1639240D01*
X993820Y-1638240D01*
X990000Y-1637900D01*
X986160Y-1638240D01*
X982440Y-1639240D01*
X978940Y-1640860D01*
X977280Y-1642040D01*
X975800Y-1642680D01*
X974180Y-1642680D01*
X972700Y-1642040D01*
X971040Y-1640860D01*
X967540Y-1639240D01*
X963820Y-1638240D01*
X960000Y-1637900D01*
X956160Y-1638240D01*
X952440Y-1639240D01*
X948940Y-1640860D01*
X945800Y-1643080D01*
X943080Y-1645800D01*
X940860Y-1648940D01*
X939240Y-1652440D01*
X938240Y-1656160D01*
X937900Y-1660000D01*
X938240Y-1663820D01*
X939240Y-1667540D01*
X940860Y-1671040D01*
X942039Y-1672700D01*
X942680Y-1674180D01*
X942680Y-1675800D01*
X942039Y-1677280D01*
X940860Y-1678940D01*
X939240Y-1682440D01*
X938240Y-1686160D01*
X937900Y-1690000D01*
X938240Y-1693820D01*
X939240Y-1697540D01*
X940860Y-1701040D01*
X942039Y-1702700D01*
X942680Y-1704180D01*
X942680Y-1705800D01*
X942039Y-1707280D01*
X940860Y-1708940D01*
X939240Y-1712440D01*
X938240Y-1716160D01*
X937900Y-1720000D01*
X938240Y-1723820D01*
X939240Y-1727540D01*
X940860Y-1731040D01*
X943080Y-1734180D01*
X945800Y-1736900D01*
X948940Y-1739120D01*
X952440Y-1740740D01*
X956160Y-1741740D01*
G37*
G36*
X1500000Y-1722080D02*
G01*
X1503820Y-1721740D01*
X1507540Y-1720740D01*
X1511040Y-1719120D01*
X1514180Y-1716900D01*
X1516900Y-1714180D01*
X1519120Y-1711040D01*
X1520740Y-1707540D01*
X1521740Y-1703820D01*
X1522080Y-1700000D01*
X1521740Y-1696160D01*
X1520740Y-1692440D01*
X1519120Y-1688940D01*
X1516900Y-1685800D01*
X1514180Y-1683080D01*
X1511040Y-1680860D01*
X1507540Y-1679240D01*
X1503820Y-1678240D01*
X1500000Y-1677900D01*
X1496160Y-1678240D01*
X1492440Y-1679240D01*
X1488940Y-1680860D01*
X1485800Y-1683080D01*
X1483080Y-1685800D01*
X1480860Y-1688940D01*
X1479240Y-1692440D01*
X1478240Y-1696160D01*
X1477900Y-1700000D01*
X1478240Y-1703820D01*
X1479240Y-1707540D01*
X1480860Y-1711040D01*
X1483080Y-1714180D01*
X1485800Y-1716900D01*
X1488940Y-1719120D01*
X1492440Y-1720740D01*
X1496160Y-1721740D01*
G37*
G36*
X1680000Y-1717080D02*
G01*
X1683820Y-1716740D01*
X1687540Y-1715740D01*
X1691040Y-1714120D01*
X1694180Y-1711900D01*
X1696900Y-1709180D01*
X1699120Y-1706040D01*
X1700740Y-1702540D01*
X1701740Y-1698820D01*
X1702080Y-1695000D01*
X1701740Y-1691160D01*
X1700740Y-1687440D01*
X1699120Y-1683940D01*
X1696900Y-1680800D01*
X1694180Y-1678080D01*
X1691040Y-1675860D01*
X1687540Y-1674240D01*
X1683820Y-1673240D01*
X1680000Y-1672900D01*
X1676160Y-1673240D01*
X1672440Y-1674240D01*
X1668940Y-1675860D01*
X1665800Y-1678080D01*
X1663080Y-1680800D01*
X1660860Y-1683940D01*
X1659240Y-1687440D01*
X1658240Y-1691160D01*
X1657900Y-1695000D01*
X1658240Y-1698820D01*
X1659240Y-1702540D01*
X1660860Y-1706040D01*
X1663080Y-1709180D01*
X1665800Y-1711900D01*
X1668940Y-1714120D01*
X1672440Y-1715740D01*
X1676160Y-1716740D01*
G37*
G36*
X1770000Y-1691579D02*
G01*
X1775420Y-1691220D01*
X1780760Y-1690160D01*
X1785900Y-1688420D01*
X1790780Y-1686020D01*
X1795320Y-1682980D01*
X1799400Y-1679400D01*
X1802980Y-1675320D01*
X1806020Y-1670780D01*
X1808420Y-1665900D01*
X1810160Y-1660760D01*
X1811220Y-1655420D01*
X1811579Y-1650000D01*
X1811220Y-1644560D01*
X1810160Y-1639220D01*
X1808420Y-1634079D01*
X1806020Y-1629199D01*
X1802980Y-1624680D01*
X1799400Y-1620580D01*
X1795320Y-1617000D01*
X1790780Y-1613980D01*
X1785900Y-1611560D01*
X1780760Y-1609820D01*
X1775420Y-1608760D01*
X1770000Y-1608400D01*
X1764560Y-1608760D01*
X1759220Y-1609820D01*
X1754079Y-1611560D01*
X1749199Y-1613980D01*
X1744680Y-1617000D01*
X1740580Y-1620580D01*
X1737000Y-1624680D01*
X1733980Y-1629199D01*
X1731560Y-1634079D01*
X1729820Y-1639220D01*
X1728760Y-1644560D01*
X1728400Y-1650000D01*
X1728760Y-1655420D01*
X1729820Y-1660760D01*
X1731560Y-1665900D01*
X1733980Y-1670780D01*
X1737000Y-1675320D01*
X1740580Y-1679400D01*
X1744680Y-1682980D01*
X1749199Y-1686020D01*
X1754079Y-1688420D01*
X1759220Y-1690160D01*
X1764560Y-1691220D01*
G37*
G36*
X1870000Y-1691579D02*
G01*
X1875420Y-1691220D01*
X1880760Y-1690160D01*
X1885900Y-1688420D01*
X1890780Y-1686020D01*
X1895320Y-1682980D01*
X1899400Y-1679400D01*
X1902980Y-1675320D01*
X1906020Y-1670780D01*
X1908420Y-1665900D01*
X1910160Y-1660760D01*
X1911220Y-1655420D01*
X1911579Y-1650000D01*
X1911220Y-1644560D01*
X1910160Y-1639220D01*
X1908420Y-1634079D01*
X1906020Y-1629199D01*
X1902980Y-1624680D01*
X1899400Y-1620580D01*
X1895320Y-1617000D01*
X1890780Y-1613980D01*
X1885900Y-1611560D01*
X1880760Y-1609820D01*
X1875420Y-1608760D01*
X1870000Y-1608400D01*
X1864560Y-1608760D01*
X1859220Y-1609820D01*
X1854079Y-1611560D01*
X1849199Y-1613980D01*
X1844680Y-1617000D01*
X1840580Y-1620580D01*
X1837000Y-1624680D01*
X1833980Y-1629199D01*
X1831560Y-1634079D01*
X1829820Y-1639220D01*
X1828760Y-1644560D01*
X1828400Y-1650000D01*
X1828760Y-1655420D01*
X1829820Y-1660760D01*
X1831560Y-1665900D01*
X1833980Y-1670780D01*
X1837000Y-1675320D01*
X1840580Y-1679400D01*
X1844680Y-1682980D01*
X1849199Y-1686020D01*
X1854079Y-1688420D01*
X1859220Y-1690160D01*
X1864560Y-1691220D01*
G37*
G36*
X205000Y-1624940D02*
G01*
X210420Y-1624600D01*
X215760Y-1623540D01*
X220900Y-1621780D01*
X225780Y-1619379D01*
X230300Y-1616360D01*
X234400Y-1612760D01*
X237979Y-1608680D01*
X241000Y-1604160D01*
X243420Y-1599280D01*
X245159Y-1594120D01*
X246220Y-1588800D01*
X246580Y-1583360D01*
X246220Y-1577940D01*
X245159Y-1572600D01*
X243420Y-1567440D01*
X241000Y-1562560D01*
X237979Y-1558040D01*
X234400Y-1553959D01*
X230300Y-1550360D01*
X225740Y-1547320D01*
X224640Y-1546220D01*
X224040Y-1544780D01*
X224040Y-1543220D01*
X224640Y-1541759D01*
X225740Y-1540660D01*
X230300Y-1537620D01*
X234400Y-1534019D01*
X237979Y-1529940D01*
X241000Y-1525420D01*
X243420Y-1520540D01*
X245159Y-1515380D01*
X246220Y-1510060D01*
X246580Y-1504620D01*
X246220Y-1499199D01*
X245159Y-1493860D01*
X243420Y-1488700D01*
X241000Y-1483820D01*
X237979Y-1479300D01*
X234400Y-1475220D01*
X230300Y-1471620D01*
X225780Y-1468600D01*
X220900Y-1466200D01*
X215760Y-1464460D01*
X210420Y-1463400D01*
X205000Y-1463040D01*
X199560Y-1463400D01*
X194220Y-1464460D01*
X189080Y-1466200D01*
X184200Y-1468600D01*
X179680Y-1471620D01*
X175580Y-1475220D01*
X172000Y-1479300D01*
X168980Y-1483820D01*
X166580Y-1488700D01*
X164820Y-1493860D01*
X163760Y-1499199D01*
X163400Y-1504620D01*
X163760Y-1510060D01*
X164820Y-1515380D01*
X166580Y-1520540D01*
X168980Y-1525420D01*
X172000Y-1529940D01*
X175580Y-1534019D01*
X179680Y-1537620D01*
X184240Y-1540660D01*
X185340Y-1541759D01*
X185940Y-1543220D01*
X185940Y-1544780D01*
X185340Y-1546220D01*
X184240Y-1547320D01*
X179680Y-1550360D01*
X175580Y-1553959D01*
X172000Y-1558040D01*
X168980Y-1562560D01*
X166580Y-1567440D01*
X164820Y-1572600D01*
X163760Y-1577940D01*
X163400Y-1583360D01*
X163760Y-1588800D01*
X164820Y-1594120D01*
X166580Y-1599280D01*
X168980Y-1604160D01*
X172000Y-1608680D01*
X175580Y-1612760D01*
X179680Y-1616360D01*
X184200Y-1619379D01*
X189080Y-1621780D01*
X194220Y-1623540D01*
X199560Y-1624600D01*
G37*
G36*
X1680000Y-1617080D02*
G01*
X1683820Y-1616740D01*
X1687540Y-1615740D01*
X1691040Y-1614120D01*
X1694180Y-1611900D01*
X1696900Y-1609180D01*
X1699120Y-1606040D01*
X1700740Y-1602540D01*
X1701740Y-1598820D01*
X1702080Y-1595000D01*
X1701740Y-1591160D01*
X1700740Y-1587440D01*
X1699120Y-1583940D01*
X1696900Y-1580800D01*
X1694180Y-1578080D01*
X1691040Y-1575860D01*
X1687540Y-1574240D01*
X1683820Y-1573240D01*
X1680000Y-1572900D01*
X1676160Y-1573240D01*
X1672440Y-1574240D01*
X1668940Y-1575860D01*
X1665800Y-1578080D01*
X1663080Y-1580800D01*
X1660860Y-1583940D01*
X1659240Y-1587440D01*
X1658240Y-1591160D01*
X1657900Y-1595000D01*
X1658240Y-1598820D01*
X1659240Y-1602540D01*
X1660860Y-1606040D01*
X1663080Y-1609180D01*
X1665800Y-1611900D01*
X1668940Y-1614120D01*
X1672440Y-1615740D01*
X1676160Y-1616740D01*
G37*
G36*
X1870000Y-1591579D02*
G01*
X1875420Y-1591220D01*
X1880760Y-1590160D01*
X1885900Y-1588420D01*
X1890780Y-1586020D01*
X1895320Y-1582980D01*
X1899400Y-1579400D01*
X1902980Y-1575320D01*
X1906020Y-1570780D01*
X1908420Y-1565900D01*
X1910160Y-1560760D01*
X1911220Y-1555420D01*
X1911579Y-1550000D01*
X1911220Y-1544560D01*
X1910160Y-1539220D01*
X1908420Y-1534079D01*
X1906020Y-1529199D01*
X1902980Y-1524680D01*
X1899400Y-1520580D01*
X1895320Y-1517000D01*
X1890780Y-1513980D01*
X1885900Y-1511560D01*
X1880760Y-1509820D01*
X1875420Y-1508760D01*
X1870000Y-1508400D01*
X1864560Y-1508760D01*
X1859220Y-1509820D01*
X1854079Y-1511560D01*
X1849199Y-1513980D01*
X1844680Y-1517000D01*
X1840580Y-1520580D01*
X1837000Y-1524680D01*
X1833980Y-1529199D01*
X1831560Y-1534079D01*
X1829820Y-1539220D01*
X1828760Y-1544560D01*
X1828400Y-1550000D01*
X1828760Y-1555420D01*
X1829820Y-1560760D01*
X1831560Y-1565900D01*
X1833980Y-1570780D01*
X1837000Y-1575320D01*
X1840580Y-1579400D01*
X1844680Y-1582980D01*
X1849199Y-1586020D01*
X1854079Y-1588420D01*
X1859220Y-1590160D01*
X1864560Y-1591220D01*
G37*
G36*
X1770000Y-1591579D02*
G01*
X1775420Y-1591220D01*
X1780760Y-1590160D01*
X1785900Y-1588420D01*
X1790780Y-1586020D01*
X1795320Y-1582980D01*
X1799400Y-1579400D01*
X1802980Y-1575320D01*
X1806020Y-1570780D01*
X1808420Y-1565900D01*
X1810160Y-1560760D01*
X1811220Y-1555420D01*
X1811579Y-1550000D01*
X1811220Y-1544560D01*
X1810160Y-1539220D01*
X1808420Y-1534079D01*
X1806020Y-1529199D01*
X1802980Y-1524680D01*
X1799400Y-1520580D01*
X1795320Y-1517000D01*
X1790780Y-1513980D01*
X1785900Y-1511560D01*
X1780760Y-1509820D01*
X1775420Y-1508760D01*
X1770000Y-1508400D01*
X1764560Y-1508760D01*
X1759220Y-1509820D01*
X1754079Y-1511560D01*
X1749199Y-1513980D01*
X1744680Y-1517000D01*
X1740580Y-1520580D01*
X1737000Y-1524680D01*
X1733980Y-1529199D01*
X1731560Y-1534079D01*
X1729820Y-1539220D01*
X1728760Y-1544560D01*
X1728400Y-1550000D01*
X1728760Y-1555420D01*
X1729820Y-1560760D01*
X1731560Y-1565900D01*
X1733980Y-1570780D01*
X1737000Y-1575320D01*
X1740580Y-1579400D01*
X1744680Y-1582980D01*
X1749199Y-1586020D01*
X1754079Y-1588420D01*
X1759220Y-1590160D01*
X1764560Y-1591220D01*
G37*
G36*
X1350000Y-1525080D02*
G01*
X1353820Y-1524740D01*
X1357540Y-1523740D01*
X1361040Y-1522120D01*
X1364180Y-1519900D01*
X1366900Y-1517180D01*
X1369120Y-1514040D01*
X1370740Y-1510540D01*
X1371740Y-1506819D01*
X1372080Y-1503000D01*
X1371740Y-1499160D01*
X1370740Y-1495440D01*
X1369120Y-1491940D01*
X1366900Y-1488800D01*
X1364180Y-1486080D01*
X1361040Y-1483860D01*
X1357540Y-1482240D01*
X1353820Y-1481240D01*
X1350000Y-1480900D01*
X1346160Y-1481240D01*
X1342440Y-1482240D01*
X1338940Y-1483860D01*
X1335800Y-1486080D01*
X1333080Y-1488800D01*
X1330860Y-1491940D01*
X1329240Y-1495440D01*
X1328240Y-1499160D01*
X1327900Y-1503000D01*
X1328240Y-1506819D01*
X1329240Y-1510540D01*
X1330860Y-1514040D01*
X1333080Y-1517180D01*
X1335800Y-1519900D01*
X1338940Y-1522120D01*
X1342440Y-1523740D01*
X1346160Y-1524740D01*
G37*
G36*
X900000Y-1522080D02*
G01*
X903820Y-1521740D01*
X907540Y-1520740D01*
X911040Y-1519120D01*
X914180Y-1516900D01*
X916900Y-1514180D01*
X919120Y-1511040D01*
X920740Y-1507540D01*
X921740Y-1503820D01*
X922080Y-1500000D01*
X921740Y-1496160D01*
X920740Y-1492440D01*
X919120Y-1488940D01*
X916900Y-1485800D01*
X914180Y-1483080D01*
X911040Y-1480860D01*
X907540Y-1479240D01*
X903820Y-1478240D01*
X900000Y-1477900D01*
X896160Y-1478240D01*
X892440Y-1479240D01*
X888940Y-1480860D01*
X885800Y-1483080D01*
X883080Y-1485800D01*
X880860Y-1488940D01*
X879240Y-1492440D01*
X878240Y-1496160D01*
X877900Y-1500000D01*
X878240Y-1503820D01*
X879240Y-1507540D01*
X880860Y-1511040D01*
X883080Y-1514180D01*
X885800Y-1516900D01*
X888940Y-1519120D01*
X892440Y-1520740D01*
X896160Y-1521740D01*
G37*
G36*
X600000Y-1522080D02*
G01*
X603820Y-1521740D01*
X607540Y-1520740D01*
X611040Y-1519120D01*
X614180Y-1516900D01*
X616900Y-1514180D01*
X619120Y-1511040D01*
X620740Y-1507540D01*
X621740Y-1503820D01*
X622080Y-1500000D01*
X621740Y-1496160D01*
X620740Y-1492440D01*
X619120Y-1488940D01*
X616900Y-1485800D01*
X614180Y-1483080D01*
X611040Y-1480860D01*
X607540Y-1479240D01*
X603820Y-1478240D01*
X600000Y-1477900D01*
X596160Y-1478240D01*
X592440Y-1479240D01*
X588940Y-1480860D01*
X585800Y-1483080D01*
X583080Y-1485800D01*
X580860Y-1488940D01*
X579240Y-1492440D01*
X578240Y-1496160D01*
X577900Y-1500000D01*
X578240Y-1503820D01*
X579240Y-1507540D01*
X580860Y-1511040D01*
X583080Y-1514180D01*
X585800Y-1516900D01*
X588940Y-1519120D01*
X592440Y-1520740D01*
X596160Y-1521740D01*
G37*
G36*
X2000000Y-1522080D02*
G01*
X2003820Y-1521740D01*
X2007540Y-1520740D01*
X2011040Y-1519120D01*
X2014180Y-1516900D01*
X2016900Y-1514180D01*
X2019120Y-1511040D01*
X2020740Y-1507540D01*
X2021740Y-1503820D01*
X2022080Y-1500000D01*
X2021740Y-1496160D01*
X2020740Y-1492440D01*
X2019120Y-1488940D01*
X2016900Y-1485800D01*
X2014180Y-1483080D01*
X2011040Y-1480860D01*
X2007540Y-1479240D01*
X2003820Y-1478240D01*
X2000000Y-1477900D01*
X1996160Y-1478240D01*
X1992440Y-1479240D01*
X1988940Y-1480860D01*
X1985800Y-1483080D01*
X1983080Y-1485800D01*
X1980860Y-1488940D01*
X1979240Y-1492440D01*
X1978240Y-1496160D01*
X1977900Y-1500000D01*
X1978240Y-1503820D01*
X1979240Y-1507540D01*
X1980860Y-1511040D01*
X1983080Y-1514180D01*
X1985800Y-1516900D01*
X1988940Y-1519120D01*
X1992440Y-1520740D01*
X1996160Y-1521740D01*
G37*
G36*
X1680000Y-1517080D02*
G01*
X1683820Y-1516740D01*
X1687540Y-1515740D01*
X1691040Y-1514120D01*
X1694180Y-1511900D01*
X1696900Y-1509180D01*
X1699120Y-1506040D01*
X1700740Y-1502540D01*
X1701740Y-1498820D01*
X1702080Y-1495000D01*
X1701740Y-1491160D01*
X1700740Y-1487440D01*
X1699120Y-1483940D01*
X1696900Y-1480800D01*
X1694180Y-1478080D01*
X1691040Y-1475860D01*
X1687540Y-1474240D01*
X1683820Y-1473240D01*
X1680000Y-1472900D01*
X1676160Y-1473240D01*
X1672440Y-1474240D01*
X1668940Y-1475860D01*
X1665800Y-1478080D01*
X1663080Y-1480800D01*
X1660860Y-1483940D01*
X1659240Y-1487440D01*
X1658240Y-1491160D01*
X1657900Y-1495000D01*
X1658240Y-1498820D01*
X1659240Y-1502540D01*
X1660860Y-1506040D01*
X1663080Y-1509180D01*
X1665800Y-1511900D01*
X1668940Y-1514120D01*
X1672440Y-1515740D01*
X1676160Y-1516740D01*
G37*
G36*
X1770000Y-1491579D02*
G01*
X1775420Y-1491220D01*
X1780760Y-1490160D01*
X1785900Y-1488420D01*
X1790780Y-1486020D01*
X1795320Y-1482980D01*
X1799400Y-1479400D01*
X1802980Y-1475320D01*
X1806020Y-1470780D01*
X1808420Y-1465900D01*
X1810160Y-1460760D01*
X1811220Y-1455420D01*
X1811579Y-1450000D01*
X1811220Y-1444560D01*
X1810160Y-1439220D01*
X1808420Y-1434079D01*
X1806020Y-1429199D01*
X1802980Y-1424680D01*
X1799400Y-1420580D01*
X1795320Y-1417000D01*
X1790780Y-1413980D01*
X1785900Y-1411560D01*
X1780760Y-1409820D01*
X1775420Y-1408760D01*
X1770000Y-1408400D01*
X1764560Y-1408760D01*
X1759220Y-1409820D01*
X1754079Y-1411560D01*
X1749199Y-1413980D01*
X1744680Y-1417000D01*
X1740580Y-1420580D01*
X1737000Y-1424680D01*
X1733980Y-1429199D01*
X1731560Y-1434079D01*
X1729820Y-1439220D01*
X1728760Y-1444560D01*
X1728400Y-1450000D01*
X1728760Y-1455420D01*
X1729820Y-1460760D01*
X1731560Y-1465900D01*
X1733980Y-1470780D01*
X1737000Y-1475320D01*
X1740580Y-1479400D01*
X1744680Y-1482980D01*
X1749199Y-1486020D01*
X1754079Y-1488420D01*
X1759220Y-1490160D01*
X1764560Y-1491220D01*
G37*
G36*
X1870000Y-1491579D02*
G01*
X1875420Y-1491220D01*
X1880760Y-1490160D01*
X1885900Y-1488420D01*
X1890780Y-1486020D01*
X1895320Y-1482980D01*
X1899400Y-1479400D01*
X1902980Y-1475320D01*
X1906020Y-1470780D01*
X1908420Y-1465900D01*
X1910160Y-1460760D01*
X1911220Y-1455420D01*
X1911579Y-1450000D01*
X1911220Y-1444560D01*
X1910160Y-1439220D01*
X1908420Y-1434079D01*
X1906020Y-1429199D01*
X1902980Y-1424680D01*
X1899400Y-1420580D01*
X1895320Y-1417000D01*
X1890780Y-1413980D01*
X1885900Y-1411560D01*
X1880760Y-1409820D01*
X1875420Y-1408760D01*
X1870000Y-1408400D01*
X1864560Y-1408760D01*
X1859220Y-1409820D01*
X1854079Y-1411560D01*
X1849199Y-1413980D01*
X1844680Y-1417000D01*
X1840580Y-1420580D01*
X1837000Y-1424680D01*
X1833980Y-1429199D01*
X1831560Y-1434079D01*
X1829820Y-1439220D01*
X1828760Y-1444560D01*
X1828400Y-1450000D01*
X1828760Y-1455420D01*
X1829820Y-1460760D01*
X1831560Y-1465900D01*
X1833980Y-1470780D01*
X1837000Y-1475320D01*
X1840580Y-1479400D01*
X1844680Y-1482980D01*
X1849199Y-1486020D01*
X1854079Y-1488420D01*
X1859220Y-1490160D01*
X1864560Y-1491220D01*
G37*
G36*
X1680000Y-1417080D02*
G01*
X1683820Y-1416740D01*
X1687540Y-1415740D01*
X1691040Y-1414120D01*
X1694180Y-1411900D01*
X1696900Y-1409180D01*
X1699120Y-1406040D01*
X1700740Y-1402540D01*
X1701740Y-1398820D01*
X1702080Y-1395000D01*
X1701740Y-1391160D01*
X1700740Y-1387440D01*
X1699120Y-1383940D01*
X1696900Y-1380800D01*
X1694180Y-1378080D01*
X1691040Y-1375860D01*
X1687540Y-1374240D01*
X1683820Y-1373240D01*
X1680000Y-1372900D01*
X1676160Y-1373240D01*
X1672440Y-1374240D01*
X1668940Y-1375860D01*
X1665800Y-1378080D01*
X1663080Y-1380800D01*
X1660860Y-1383940D01*
X1659240Y-1387440D01*
X1658240Y-1391160D01*
X1657900Y-1395000D01*
X1658240Y-1398820D01*
X1659240Y-1402540D01*
X1660860Y-1406040D01*
X1663080Y-1409180D01*
X1665800Y-1411900D01*
X1668940Y-1414120D01*
X1672440Y-1415740D01*
X1676160Y-1416740D01*
G37*
G36*
X1770000Y-1391579D02*
G01*
X1775420Y-1391220D01*
X1780760Y-1390160D01*
X1785900Y-1388420D01*
X1790780Y-1386020D01*
X1795320Y-1382980D01*
X1799400Y-1379400D01*
X1802980Y-1375320D01*
X1806020Y-1370780D01*
X1808420Y-1365900D01*
X1810160Y-1360760D01*
X1811220Y-1355420D01*
X1811579Y-1350000D01*
X1811220Y-1344560D01*
X1810160Y-1339220D01*
X1808420Y-1334079D01*
X1806020Y-1329199D01*
X1802980Y-1324680D01*
X1799400Y-1320580D01*
X1795320Y-1317000D01*
X1790780Y-1313980D01*
X1785900Y-1311560D01*
X1780760Y-1309820D01*
X1775420Y-1308760D01*
X1770000Y-1308400D01*
X1764560Y-1308760D01*
X1759220Y-1309820D01*
X1754079Y-1311560D01*
X1749199Y-1313980D01*
X1744680Y-1317000D01*
X1740580Y-1320580D01*
X1737000Y-1324680D01*
X1733980Y-1329199D01*
X1731560Y-1334079D01*
X1729820Y-1339220D01*
X1728760Y-1344560D01*
X1728400Y-1350000D01*
X1728760Y-1355420D01*
X1729820Y-1360760D01*
X1731560Y-1365900D01*
X1733980Y-1370780D01*
X1737000Y-1375320D01*
X1740580Y-1379400D01*
X1744680Y-1382980D01*
X1749199Y-1386020D01*
X1754079Y-1388420D01*
X1759220Y-1390160D01*
X1764560Y-1391220D01*
G37*
G36*
X1870000Y-1391579D02*
G01*
X1875420Y-1391220D01*
X1880760Y-1390160D01*
X1885900Y-1388420D01*
X1890780Y-1386020D01*
X1895320Y-1382980D01*
X1899400Y-1379400D01*
X1902980Y-1375320D01*
X1906020Y-1370780D01*
X1908420Y-1365900D01*
X1910160Y-1360760D01*
X1911220Y-1355420D01*
X1911579Y-1350000D01*
X1911220Y-1344560D01*
X1910160Y-1339220D01*
X1908420Y-1334079D01*
X1906020Y-1329199D01*
X1902980Y-1324680D01*
X1899400Y-1320580D01*
X1895320Y-1317000D01*
X1890780Y-1313980D01*
X1885900Y-1311560D01*
X1880760Y-1309820D01*
X1875420Y-1308760D01*
X1870000Y-1308400D01*
X1864560Y-1308760D01*
X1859220Y-1309820D01*
X1854079Y-1311560D01*
X1849199Y-1313980D01*
X1844680Y-1317000D01*
X1840580Y-1320580D01*
X1837000Y-1324680D01*
X1833980Y-1329199D01*
X1831560Y-1334079D01*
X1829820Y-1339220D01*
X1828760Y-1344560D01*
X1828400Y-1350000D01*
X1828760Y-1355420D01*
X1829820Y-1360760D01*
X1831560Y-1365900D01*
X1833980Y-1370780D01*
X1837000Y-1375320D01*
X1840580Y-1379400D01*
X1844680Y-1382980D01*
X1849199Y-1386020D01*
X1854079Y-1388420D01*
X1859220Y-1390160D01*
X1864560Y-1391220D01*
G37*
G36*
X1350000Y-1387080D02*
G01*
X1353820Y-1386740D01*
X1357540Y-1385740D01*
X1361040Y-1384120D01*
X1364180Y-1381900D01*
X1366900Y-1379180D01*
X1369120Y-1376040D01*
X1370740Y-1372540D01*
X1371740Y-1368820D01*
X1372080Y-1365000D01*
X1371740Y-1361160D01*
X1370740Y-1357440D01*
X1369120Y-1353940D01*
X1366900Y-1350800D01*
X1364180Y-1348080D01*
X1361040Y-1345860D01*
X1357540Y-1344240D01*
X1353820Y-1343240D01*
X1350000Y-1342900D01*
X1346160Y-1343240D01*
X1342440Y-1344240D01*
X1338940Y-1345860D01*
X1335800Y-1348080D01*
X1333080Y-1350800D01*
X1330860Y-1353940D01*
X1329240Y-1357440D01*
X1328240Y-1361160D01*
X1327900Y-1365000D01*
X1328240Y-1368820D01*
X1329240Y-1372540D01*
X1330860Y-1376040D01*
X1333080Y-1379180D01*
X1335800Y-1381900D01*
X1338940Y-1384120D01*
X1342440Y-1385740D01*
X1346160Y-1386740D01*
G37*
G36*
X1680000Y-1317080D02*
G01*
X1683820Y-1316740D01*
X1687540Y-1315740D01*
X1691040Y-1314120D01*
X1694180Y-1311900D01*
X1696900Y-1309180D01*
X1699120Y-1306040D01*
X1700740Y-1302540D01*
X1701740Y-1298820D01*
X1702080Y-1295000D01*
X1701740Y-1291160D01*
X1700740Y-1287440D01*
X1699120Y-1283940D01*
X1696900Y-1280800D01*
X1694180Y-1278080D01*
X1691040Y-1275860D01*
X1687540Y-1274240D01*
X1683820Y-1273240D01*
X1680000Y-1272900D01*
X1676160Y-1273240D01*
X1672440Y-1274240D01*
X1668940Y-1275860D01*
X1665800Y-1278080D01*
X1663080Y-1280800D01*
X1660860Y-1283940D01*
X1659240Y-1287440D01*
X1658240Y-1291160D01*
X1657900Y-1295000D01*
X1658240Y-1298820D01*
X1659240Y-1302540D01*
X1660860Y-1306040D01*
X1663080Y-1309180D01*
X1665800Y-1311900D01*
X1668940Y-1314120D01*
X1672440Y-1315740D01*
X1676160Y-1316740D01*
G37*
G36*
X1770000Y-1291579D02*
G01*
X1775420Y-1291220D01*
X1780760Y-1290160D01*
X1785900Y-1288420D01*
X1790780Y-1286020D01*
X1795320Y-1282980D01*
X1799400Y-1279400D01*
X1802980Y-1275320D01*
X1806020Y-1270780D01*
X1808420Y-1265900D01*
X1810160Y-1260760D01*
X1811220Y-1255420D01*
X1811579Y-1250000D01*
X1811220Y-1244560D01*
X1810160Y-1239220D01*
X1808420Y-1234080D01*
X1806020Y-1229200D01*
X1802980Y-1224680D01*
X1799400Y-1220580D01*
X1795320Y-1217000D01*
X1790780Y-1213980D01*
X1785900Y-1211560D01*
X1780760Y-1209820D01*
X1775420Y-1208760D01*
X1770000Y-1208400D01*
X1764560Y-1208760D01*
X1759220Y-1209820D01*
X1754079Y-1211560D01*
X1749199Y-1213980D01*
X1744680Y-1217000D01*
X1740580Y-1220580D01*
X1737000Y-1224680D01*
X1733980Y-1229200D01*
X1731560Y-1234080D01*
X1729820Y-1239220D01*
X1728760Y-1244560D01*
X1728400Y-1250000D01*
X1728760Y-1255420D01*
X1729820Y-1260760D01*
X1731560Y-1265900D01*
X1733980Y-1270780D01*
X1737000Y-1275320D01*
X1740580Y-1279400D01*
X1744680Y-1282980D01*
X1749199Y-1286020D01*
X1754079Y-1288420D01*
X1759220Y-1290160D01*
X1764560Y-1291220D01*
G37*
G36*
X1870000Y-1291579D02*
G01*
X1875420Y-1291220D01*
X1880760Y-1290160D01*
X1885900Y-1288420D01*
X1890780Y-1286020D01*
X1895320Y-1282980D01*
X1899400Y-1279400D01*
X1902980Y-1275320D01*
X1906020Y-1270780D01*
X1908420Y-1265900D01*
X1910160Y-1260760D01*
X1911220Y-1255420D01*
X1911579Y-1250000D01*
X1911220Y-1244560D01*
X1910160Y-1239220D01*
X1908420Y-1234080D01*
X1906020Y-1229200D01*
X1902980Y-1224680D01*
X1899400Y-1220580D01*
X1895320Y-1217000D01*
X1890780Y-1213980D01*
X1885900Y-1211560D01*
X1880760Y-1209820D01*
X1875420Y-1208760D01*
X1870000Y-1208400D01*
X1864560Y-1208760D01*
X1859220Y-1209820D01*
X1854079Y-1211560D01*
X1849199Y-1213980D01*
X1844680Y-1217000D01*
X1840580Y-1220580D01*
X1837000Y-1224680D01*
X1833980Y-1229200D01*
X1831560Y-1234080D01*
X1829820Y-1239220D01*
X1828760Y-1244560D01*
X1828400Y-1250000D01*
X1828760Y-1255420D01*
X1829820Y-1260760D01*
X1831560Y-1265900D01*
X1833980Y-1270780D01*
X1837000Y-1275320D01*
X1840580Y-1279400D01*
X1844680Y-1282980D01*
X1849199Y-1286020D01*
X1854079Y-1288420D01*
X1859220Y-1290160D01*
X1864560Y-1291220D01*
G37*
G36*
X647340Y-1289520D02*
G01*
X652640Y-1289520D01*
X657880Y-1288820D01*
X662980Y-1287420D01*
X667860Y-1285360D01*
X672420Y-1282660D01*
X676560Y-1279380D01*
X680240Y-1275580D01*
X683379Y-1271320D01*
X685920Y-1266660D01*
X687840Y-1261740D01*
X689060Y-1256580D01*
X689580Y-1251320D01*
X689419Y-1246020D01*
X688540Y-1240800D01*
X686960Y-1235760D01*
X684740Y-1230960D01*
X681880Y-1226500D01*
X678480Y-1222440D01*
X674539Y-1218900D01*
X670180Y-1215900D01*
X665460Y-1213520D01*
X660460Y-1211780D01*
X655280Y-1210720D01*
X650000Y-1210380D01*
X644720Y-1210720D01*
X639520Y-1211780D01*
X634520Y-1213520D01*
X629800Y-1215900D01*
X625440Y-1218900D01*
X621520Y-1222440D01*
X618100Y-1226500D01*
X615240Y-1230960D01*
X613020Y-1235760D01*
X611460Y-1240800D01*
X610580Y-1246020D01*
X610400Y-1251320D01*
X610920Y-1256580D01*
X612160Y-1261740D01*
X614060Y-1266660D01*
X616600Y-1271320D01*
X619740Y-1275580D01*
X623420Y-1279380D01*
X627580Y-1282660D01*
X632120Y-1285360D01*
X637000Y-1287420D01*
X642099Y-1288820D01*
G37*
G36*
X1350000Y-1287080D02*
G01*
X1353820Y-1286740D01*
X1357540Y-1285740D01*
X1361040Y-1284120D01*
X1364180Y-1281900D01*
X1366900Y-1279180D01*
X1369120Y-1276040D01*
X1370740Y-1272540D01*
X1371740Y-1268820D01*
X1372080Y-1265000D01*
X1371740Y-1261160D01*
X1370740Y-1257440D01*
X1369120Y-1253940D01*
X1366900Y-1250800D01*
X1364180Y-1248080D01*
X1361040Y-1245860D01*
X1357540Y-1244240D01*
X1353820Y-1243240D01*
X1350000Y-1242900D01*
X1346160Y-1243240D01*
X1342440Y-1244240D01*
X1338940Y-1245860D01*
X1335800Y-1248080D01*
X1333080Y-1250800D01*
X1330860Y-1253940D01*
X1329240Y-1257440D01*
X1328240Y-1261160D01*
X1327900Y-1265000D01*
X1328240Y-1268820D01*
X1329240Y-1272540D01*
X1330860Y-1276040D01*
X1333080Y-1279180D01*
X1335800Y-1281900D01*
X1338940Y-1284120D01*
X1342440Y-1285740D01*
X1346160Y-1286740D01*
G37*
G36*
X867260Y-1285600D02*
G01*
X867860Y-1285360D01*
X872420Y-1282660D01*
X876560Y-1279380D01*
X880240Y-1275580D01*
X883379Y-1271320D01*
X885600Y-1267260D01*
X867260Y-1267260D01*
G37*
G36*
X832720Y-1285600D02*
G01*
X832720Y-1267260D01*
X814380Y-1267260D01*
X816600Y-1271320D01*
X819740Y-1275580D01*
X823420Y-1279380D01*
X827580Y-1282660D01*
X832120Y-1285360D01*
G37*
G36*
X1425000Y-1262080D02*
G01*
X1428820Y-1261740D01*
X1432540Y-1260740D01*
X1436040Y-1259120D01*
X1439180Y-1256900D01*
X1441900Y-1254180D01*
X1444120Y-1251040D01*
X1445740Y-1247540D01*
X1446740Y-1243820D01*
X1447080Y-1240000D01*
X1446740Y-1236160D01*
X1445740Y-1232440D01*
X1444120Y-1228940D01*
X1441900Y-1225800D01*
X1439180Y-1223080D01*
X1436040Y-1220860D01*
X1432540Y-1219240D01*
X1428820Y-1218240D01*
X1425000Y-1217900D01*
X1421160Y-1218240D01*
X1417440Y-1219240D01*
X1413940Y-1220860D01*
X1410800Y-1223080D01*
X1408080Y-1225800D01*
X1405860Y-1228940D01*
X1404240Y-1232440D01*
X1403240Y-1236160D01*
X1402900Y-1240000D01*
X1403240Y-1243820D01*
X1404240Y-1247540D01*
X1405860Y-1251040D01*
X1408080Y-1254180D01*
X1410800Y-1256900D01*
X1413940Y-1259120D01*
X1417440Y-1260740D01*
X1421160Y-1261740D01*
G37*
G36*
X814419Y-1232720D02*
G01*
X832720Y-1232720D01*
X832720Y-1214420D01*
X829800Y-1215900D01*
X825440Y-1218900D01*
X821520Y-1222440D01*
X818100Y-1226500D01*
X815240Y-1230960D01*
G37*
G36*
X867260Y-1232720D02*
G01*
X885560Y-1232720D01*
X884740Y-1230960D01*
X881880Y-1226500D01*
X878480Y-1222440D01*
X874539Y-1218900D01*
X870180Y-1215900D01*
X867260Y-1214420D01*
G37*
G36*
X945000Y-1224080D02*
G01*
X949840Y-1223740D01*
X954599Y-1222700D01*
X959160Y-1221000D01*
X963420Y-1218660D01*
X967320Y-1215760D01*
X970759Y-1212320D01*
X973660Y-1208420D01*
X976000Y-1204160D01*
X977700Y-1199600D01*
X978740Y-1194840D01*
X979080Y-1190000D01*
X978740Y-1185140D01*
X977700Y-1180380D01*
X976000Y-1175820D01*
X973660Y-1171560D01*
X970759Y-1167660D01*
X967320Y-1164220D01*
X963420Y-1161320D01*
X959160Y-1158980D01*
X954599Y-1157280D01*
X949840Y-1156240D01*
X945000Y-1155900D01*
X940140Y-1156240D01*
X935380Y-1157280D01*
X930819Y-1158980D01*
X926560Y-1161320D01*
X922660Y-1164220D01*
X919220Y-1167660D01*
X916320Y-1171560D01*
X913980Y-1175820D01*
X912280Y-1180380D01*
X911240Y-1185140D01*
X910900Y-1190000D01*
X911240Y-1194840D01*
X912280Y-1199600D01*
X913980Y-1204160D01*
X916320Y-1208420D01*
X919220Y-1212320D01*
X922660Y-1215760D01*
X926560Y-1218660D01*
X930819Y-1221000D01*
X935380Y-1222700D01*
X940140Y-1223740D01*
G37*
G36*
X1685000Y-1222080D02*
G01*
X1688820Y-1221740D01*
X1692540Y-1220740D01*
X1696040Y-1219120D01*
X1699180Y-1216900D01*
X1701900Y-1214180D01*
X1704120Y-1211040D01*
X1705740Y-1207540D01*
X1706740Y-1203820D01*
X1707080Y-1200000D01*
X1706740Y-1196160D01*
X1705740Y-1192440D01*
X1704120Y-1188940D01*
X1701900Y-1185800D01*
X1699180Y-1183080D01*
X1696040Y-1180860D01*
X1692540Y-1179240D01*
X1688820Y-1178240D01*
X1685000Y-1177900D01*
X1681160Y-1178240D01*
X1677440Y-1179240D01*
X1673940Y-1180860D01*
X1670800Y-1183080D01*
X1668080Y-1185800D01*
X1665860Y-1188940D01*
X1664240Y-1192440D01*
X1663240Y-1196160D01*
X1662900Y-1200000D01*
X1663240Y-1203820D01*
X1664240Y-1207540D01*
X1665860Y-1211040D01*
X1668080Y-1214180D01*
X1670800Y-1216900D01*
X1673940Y-1219120D01*
X1677440Y-1220740D01*
X1681160Y-1221740D01*
G37*
G36*
X1870000Y-1191580D02*
G01*
X1875420Y-1191220D01*
X1880760Y-1190160D01*
X1885900Y-1188420D01*
X1890780Y-1186020D01*
X1895320Y-1182980D01*
X1899400Y-1179400D01*
X1902980Y-1175320D01*
X1906020Y-1170780D01*
X1908420Y-1165900D01*
X1910160Y-1160760D01*
X1911220Y-1155420D01*
X1911579Y-1150000D01*
X1911220Y-1144560D01*
X1910160Y-1139220D01*
X1908420Y-1134080D01*
X1906020Y-1129200D01*
X1902980Y-1124680D01*
X1899400Y-1120580D01*
X1895320Y-1117000D01*
X1890780Y-1113980D01*
X1885900Y-1111560D01*
X1880760Y-1109820D01*
X1875420Y-1108760D01*
X1870000Y-1108400D01*
X1864560Y-1108760D01*
X1859220Y-1109820D01*
X1854079Y-1111560D01*
X1849199Y-1113980D01*
X1844680Y-1117000D01*
X1840580Y-1120580D01*
X1837000Y-1124680D01*
X1833980Y-1129200D01*
X1831560Y-1134080D01*
X1829820Y-1139220D01*
X1828760Y-1144560D01*
X1828400Y-1150000D01*
X1828760Y-1155420D01*
X1829820Y-1160760D01*
X1831560Y-1165900D01*
X1833980Y-1170780D01*
X1837000Y-1175320D01*
X1840580Y-1179400D01*
X1844680Y-1182980D01*
X1849199Y-1186020D01*
X1854079Y-1188420D01*
X1859220Y-1190160D01*
X1864560Y-1191220D01*
G37*
G36*
X1770000Y-1191580D02*
G01*
X1775420Y-1191220D01*
X1780760Y-1190160D01*
X1785900Y-1188420D01*
X1790780Y-1186020D01*
X1795320Y-1182980D01*
X1799400Y-1179400D01*
X1802980Y-1175320D01*
X1806020Y-1170780D01*
X1808420Y-1165900D01*
X1810160Y-1160760D01*
X1811220Y-1155420D01*
X1811579Y-1150000D01*
X1811220Y-1144560D01*
X1810160Y-1139220D01*
X1808420Y-1134080D01*
X1806020Y-1129200D01*
X1802980Y-1124680D01*
X1799400Y-1120580D01*
X1795320Y-1117000D01*
X1790780Y-1113980D01*
X1785900Y-1111560D01*
X1780760Y-1109820D01*
X1775420Y-1108760D01*
X1770000Y-1108400D01*
X1764560Y-1108760D01*
X1759220Y-1109820D01*
X1754079Y-1111560D01*
X1749199Y-1113980D01*
X1744680Y-1117000D01*
X1740580Y-1120580D01*
X1737000Y-1124680D01*
X1733980Y-1129200D01*
X1731560Y-1134080D01*
X1729820Y-1139220D01*
X1728760Y-1144560D01*
X1728400Y-1150000D01*
X1728760Y-1155420D01*
X1729820Y-1160760D01*
X1731560Y-1165900D01*
X1733980Y-1170780D01*
X1737000Y-1175320D01*
X1740580Y-1179400D01*
X1744680Y-1182980D01*
X1749199Y-1186020D01*
X1754079Y-1188420D01*
X1759220Y-1190160D01*
X1764560Y-1191220D01*
G37*
G36*
X747340Y-1189520D02*
G01*
X752640Y-1189520D01*
X757880Y-1188820D01*
X762980Y-1187420D01*
X767860Y-1185360D01*
X772420Y-1182660D01*
X776560Y-1179380D01*
X780240Y-1175580D01*
X783379Y-1171320D01*
X785920Y-1166660D01*
X787840Y-1161740D01*
X789060Y-1156580D01*
X789580Y-1151320D01*
X789419Y-1146020D01*
X788540Y-1140800D01*
X786960Y-1135760D01*
X784740Y-1130960D01*
X781880Y-1126500D01*
X778480Y-1122440D01*
X774539Y-1118900D01*
X770180Y-1115900D01*
X765460Y-1113520D01*
X760460Y-1111780D01*
X755280Y-1110720D01*
X750000Y-1110380D01*
X744720Y-1110720D01*
X739520Y-1111780D01*
X734520Y-1113520D01*
X729800Y-1115900D01*
X725440Y-1118900D01*
X721520Y-1122440D01*
X718100Y-1126500D01*
X715240Y-1130960D01*
X713020Y-1135760D01*
X711460Y-1140800D01*
X710580Y-1146020D01*
X710400Y-1151320D01*
X710920Y-1156580D01*
X712159Y-1161740D01*
X714060Y-1166660D01*
X716600Y-1171320D01*
X719740Y-1175580D01*
X723420Y-1179380D01*
X727580Y-1182660D01*
X732120Y-1185360D01*
X737000Y-1187420D01*
X742099Y-1188820D01*
G37*
G36*
X407580Y-1182660D02*
G01*
X411420Y-1182320D01*
X415140Y-1181340D01*
X418620Y-1179700D01*
X421780Y-1177500D01*
X424500Y-1174780D01*
X426700Y-1171620D01*
X428340Y-1168140D01*
X429320Y-1164420D01*
X429660Y-1160580D01*
X429320Y-1156740D01*
X428340Y-1153020D01*
X426700Y-1149540D01*
X424500Y-1146380D01*
X421780Y-1143660D01*
X418620Y-1141460D01*
X415140Y-1139820D01*
X411420Y-1138840D01*
X407580Y-1138500D01*
X403740Y-1138840D01*
X400020Y-1139820D01*
X396540Y-1141460D01*
X393380Y-1143660D01*
X390660Y-1146380D01*
X388459Y-1149540D01*
X386820Y-1153020D01*
X385840Y-1156740D01*
X385500Y-1160580D01*
X385840Y-1164420D01*
X386820Y-1168140D01*
X388459Y-1171620D01*
X390660Y-1174780D01*
X393380Y-1177500D01*
X396540Y-1179700D01*
X400020Y-1181340D01*
X403740Y-1182320D01*
G37*
G36*
X200000Y-1122080D02*
G01*
X203820Y-1121740D01*
X207540Y-1120740D01*
X211040Y-1119120D01*
X214180Y-1116900D01*
X216900Y-1114180D01*
X219120Y-1111040D01*
X220740Y-1107540D01*
X221740Y-1103820D01*
X222079Y-1100000D01*
X221740Y-1096160D01*
X220740Y-1092440D01*
X219120Y-1088940D01*
X216900Y-1085800D01*
X214180Y-1083080D01*
X211040Y-1080860D01*
X207540Y-1079240D01*
X203820Y-1078240D01*
X200000Y-1077900D01*
X196160Y-1078240D01*
X192440Y-1079240D01*
X188939Y-1080860D01*
X185799Y-1083080D01*
X183080Y-1085800D01*
X180859Y-1088940D01*
X179240Y-1092440D01*
X178240Y-1096160D01*
X177900Y-1100000D01*
X178240Y-1103820D01*
X179240Y-1107540D01*
X180859Y-1111040D01*
X183080Y-1114180D01*
X185799Y-1116900D01*
X188939Y-1119120D01*
X192440Y-1120740D01*
X196160Y-1121740D01*
G37*
G36*
X452580Y-1102660D02*
G01*
X456420Y-1102320D01*
X460140Y-1101340D01*
X463620Y-1099700D01*
X466780Y-1097500D01*
X469500Y-1094780D01*
X471700Y-1091620D01*
X473340Y-1088140D01*
X474320Y-1084420D01*
X474660Y-1080580D01*
X474320Y-1076740D01*
X473340Y-1073020D01*
X471700Y-1069540D01*
X469500Y-1066380D01*
X466780Y-1063660D01*
X463620Y-1061460D01*
X460140Y-1059820D01*
X456420Y-1058840D01*
X452580Y-1058500D01*
X448740Y-1058840D01*
X445020Y-1059820D01*
X441540Y-1061460D01*
X438380Y-1063660D01*
X435660Y-1066380D01*
X433459Y-1069540D01*
X431820Y-1073020D01*
X430840Y-1076740D01*
X430500Y-1080580D01*
X430840Y-1084420D01*
X431820Y-1088140D01*
X433459Y-1091620D01*
X435660Y-1094780D01*
X438380Y-1097500D01*
X441540Y-1099700D01*
X445020Y-1101340D01*
X448740Y-1102320D01*
G37*
G36*
X1350000Y-1087080D02*
G01*
X1353820Y-1086740D01*
X1357540Y-1085740D01*
X1361040Y-1084120D01*
X1364180Y-1081900D01*
X1366900Y-1079180D01*
X1369120Y-1076040D01*
X1370740Y-1072540D01*
X1371740Y-1068820D01*
X1372080Y-1065000D01*
X1371740Y-1061160D01*
X1370740Y-1057440D01*
X1369120Y-1053940D01*
X1366900Y-1050800D01*
X1364180Y-1048080D01*
X1361040Y-1045860D01*
X1357540Y-1044240D01*
X1353820Y-1043240D01*
X1350000Y-1042900D01*
X1346160Y-1043240D01*
X1342440Y-1044240D01*
X1338940Y-1045860D01*
X1335800Y-1048080D01*
X1333080Y-1050800D01*
X1330860Y-1053940D01*
X1329240Y-1057440D01*
X1328240Y-1061160D01*
X1327900Y-1065000D01*
X1328240Y-1068820D01*
X1329240Y-1072540D01*
X1330860Y-1076040D01*
X1333080Y-1079180D01*
X1335800Y-1081900D01*
X1338940Y-1084120D01*
X1342440Y-1085740D01*
X1346160Y-1086740D01*
G37*
G36*
X2000000Y-1022080D02*
G01*
X2003820Y-1021740D01*
X2007540Y-1020740D01*
X2011040Y-1019120D01*
X2014180Y-1016900D01*
X2016900Y-1014180D01*
X2019120Y-1011040D01*
X2020740Y-1007540D01*
X2021740Y-1003820D01*
X2022080Y-1000000D01*
X2021740Y-996160D01*
X2020740Y-992440D01*
X2019120Y-988940D01*
X2016900Y-985800D01*
X2014180Y-983080D01*
X2011040Y-980860D01*
X2007540Y-979240D01*
X2003820Y-978240D01*
X2000000Y-977900D01*
X1996160Y-978240D01*
X1992440Y-979240D01*
X1988940Y-980860D01*
X1985800Y-983080D01*
X1983080Y-985800D01*
X1980860Y-988940D01*
X1979240Y-992440D01*
X1978240Y-996160D01*
X1977900Y-1000000D01*
X1978240Y-1003820D01*
X1979240Y-1007540D01*
X1980860Y-1011040D01*
X1983080Y-1014180D01*
X1985800Y-1016900D01*
X1988940Y-1019120D01*
X1992440Y-1020740D01*
X1996160Y-1021740D01*
G37*
G36*
X742000Y-997080D02*
G01*
X745819Y-996740D01*
X749539Y-995740D01*
X753040Y-994120D01*
X756180Y-991900D01*
X758900Y-989180D01*
X761120Y-986040D01*
X762740Y-982540D01*
X763740Y-978820D01*
X764080Y-975000D01*
X763740Y-971160D01*
X762740Y-967440D01*
X761120Y-963940D01*
X758900Y-960800D01*
X756180Y-958080D01*
X753040Y-955860D01*
X749539Y-954240D01*
X745819Y-953240D01*
X742000Y-952900D01*
X738160Y-953240D01*
X734440Y-954240D01*
X730939Y-955860D01*
X727800Y-958080D01*
X725080Y-960800D01*
X722860Y-963940D01*
X721240Y-967440D01*
X720240Y-971160D01*
X719900Y-975000D01*
X720240Y-978820D01*
X721240Y-982540D01*
X722860Y-986040D01*
X725080Y-989180D01*
X727800Y-991900D01*
X730939Y-994120D01*
X734440Y-995740D01*
X738160Y-996740D01*
G37*
G36*
X642000Y-997080D02*
G01*
X645819Y-996740D01*
X649539Y-995740D01*
X653040Y-994120D01*
X656180Y-991900D01*
X658900Y-989180D01*
X661120Y-986040D01*
X662740Y-982540D01*
X663740Y-978820D01*
X664080Y-975000D01*
X663740Y-971160D01*
X662740Y-967440D01*
X661120Y-963940D01*
X658900Y-960800D01*
X656180Y-958080D01*
X653040Y-955860D01*
X649539Y-954240D01*
X645819Y-953240D01*
X642000Y-952900D01*
X638160Y-953240D01*
X634440Y-954240D01*
X630940Y-955860D01*
X627800Y-958080D01*
X625080Y-960800D01*
X622860Y-963940D01*
X621240Y-967440D01*
X620240Y-971160D01*
X619900Y-975000D01*
X620240Y-978820D01*
X621240Y-982540D01*
X622860Y-986040D01*
X625080Y-989180D01*
X627800Y-991900D01*
X630940Y-994120D01*
X634440Y-995740D01*
X638160Y-996740D01*
G37*
G36*
X1350000Y-987080D02*
G01*
X1353820Y-986740D01*
X1357540Y-985740D01*
X1361040Y-984120D01*
X1364180Y-981900D01*
X1366900Y-979180D01*
X1369120Y-976040D01*
X1370740Y-972540D01*
X1371740Y-968820D01*
X1372080Y-965000D01*
X1371740Y-961160D01*
X1370740Y-957440D01*
X1369120Y-953940D01*
X1366900Y-950800D01*
X1364180Y-948080D01*
X1361040Y-945860D01*
X1357540Y-944240D01*
X1353820Y-943240D01*
X1350000Y-942900D01*
X1346160Y-943240D01*
X1342440Y-944240D01*
X1338940Y-945860D01*
X1335800Y-948080D01*
X1333080Y-950800D01*
X1330860Y-953940D01*
X1329240Y-957440D01*
X1328240Y-961160D01*
X1327900Y-965000D01*
X1328240Y-968820D01*
X1329240Y-972540D01*
X1330860Y-976040D01*
X1333080Y-979180D01*
X1335800Y-981900D01*
X1338940Y-984120D01*
X1342440Y-985740D01*
X1346160Y-986740D01*
G37*
G36*
X1554120Y-909980D02*
G01*
X1558959Y-909640D01*
X1563720Y-908600D01*
X1568280Y-906900D01*
X1572540Y-904580D01*
X1576440Y-901660D01*
X1579880Y-898220D01*
X1582780Y-894340D01*
X1585120Y-890060D01*
X1586819Y-885500D01*
X1587860Y-880759D01*
X1588200Y-875900D01*
X1587860Y-871040D01*
X1586819Y-866300D01*
X1585120Y-861740D01*
X1582780Y-857460D01*
X1579880Y-853580D01*
X1576440Y-850140D01*
X1572540Y-847220D01*
X1568280Y-844900D01*
X1563720Y-843199D01*
X1558959Y-842159D01*
X1554120Y-841820D01*
X1549259Y-842159D01*
X1544500Y-843199D01*
X1539940Y-844900D01*
X1535680Y-847220D01*
X1531780Y-850140D01*
X1528340Y-853580D01*
X1525440Y-857460D01*
X1523100Y-861740D01*
X1521399Y-866300D01*
X1520360Y-871040D01*
X1520020Y-875900D01*
X1520360Y-880759D01*
X1521399Y-885500D01*
X1523100Y-890060D01*
X1525440Y-894340D01*
X1528340Y-898220D01*
X1531780Y-901660D01*
X1535680Y-904580D01*
X1539940Y-906900D01*
X1544500Y-908600D01*
X1549259Y-909640D01*
G37*
G36*
X1694120Y-909980D02*
G01*
X1698959Y-909640D01*
X1703720Y-908600D01*
X1708280Y-906900D01*
X1712540Y-904580D01*
X1716440Y-901660D01*
X1719880Y-898220D01*
X1722780Y-894340D01*
X1725120Y-890060D01*
X1726819Y-885500D01*
X1727860Y-880759D01*
X1728200Y-875900D01*
X1727860Y-871040D01*
X1726819Y-866300D01*
X1725120Y-861740D01*
X1722780Y-857460D01*
X1719880Y-853580D01*
X1716440Y-850140D01*
X1712540Y-847220D01*
X1708280Y-844900D01*
X1703720Y-843199D01*
X1698959Y-842159D01*
X1694120Y-841820D01*
X1689259Y-842159D01*
X1684500Y-843199D01*
X1679940Y-844900D01*
X1675680Y-847220D01*
X1671780Y-850140D01*
X1668340Y-853580D01*
X1665440Y-857460D01*
X1663100Y-861740D01*
X1661399Y-866300D01*
X1660360Y-871040D01*
X1660020Y-875900D01*
X1660360Y-880759D01*
X1661399Y-885500D01*
X1663100Y-890060D01*
X1665440Y-894340D01*
X1668340Y-898220D01*
X1671780Y-901660D01*
X1675680Y-904580D01*
X1679940Y-906900D01*
X1684500Y-908600D01*
X1689259Y-909640D01*
G37*
G36*
X1350000Y-887080D02*
G01*
X1353820Y-886740D01*
X1357540Y-885740D01*
X1361040Y-884120D01*
X1364180Y-881900D01*
X1366900Y-879180D01*
X1369120Y-876040D01*
X1370740Y-872540D01*
X1371740Y-868820D01*
X1372080Y-865000D01*
X1371740Y-861160D01*
X1370740Y-857440D01*
X1369120Y-853940D01*
X1366900Y-850800D01*
X1364180Y-848080D01*
X1361040Y-845860D01*
X1357540Y-844240D01*
X1353820Y-843240D01*
X1350000Y-842900D01*
X1346160Y-843240D01*
X1342440Y-844240D01*
X1338940Y-845860D01*
X1335800Y-848080D01*
X1333080Y-850800D01*
X1330860Y-853940D01*
X1329240Y-857440D01*
X1328240Y-861160D01*
X1327900Y-865000D01*
X1328240Y-868820D01*
X1329240Y-872540D01*
X1330860Y-876040D01*
X1333080Y-879180D01*
X1335800Y-881900D01*
X1338940Y-884120D01*
X1342440Y-885740D01*
X1346160Y-886740D01*
G37*
G36*
X2035740Y-869280D02*
G01*
X2039900Y-869100D01*
X2043980Y-868280D01*
X2047860Y-866800D01*
X2051459Y-864720D01*
X2054680Y-862099D01*
X2057440Y-858980D01*
X2059660Y-855460D01*
X2061300Y-851640D01*
X2062300Y-847600D01*
X2062620Y-843460D01*
X2062300Y-839320D01*
X2061300Y-835280D01*
X2059660Y-831460D01*
X2057440Y-827940D01*
X2054680Y-824820D01*
X2051459Y-822200D01*
X2047860Y-820120D01*
X2043980Y-818640D01*
X2039900Y-817820D01*
X2035740Y-817640D01*
X2031620Y-818139D01*
X2027620Y-819300D01*
X2023880Y-821080D01*
X2020460Y-823439D01*
X2017460Y-826320D01*
X2014960Y-829659D01*
X2013020Y-833340D01*
X2011699Y-837280D01*
X2011040Y-841380D01*
X2011040Y-845540D01*
X2011699Y-849640D01*
X2013020Y-853580D01*
X2014960Y-857260D01*
X2017460Y-860600D01*
X2020460Y-863480D01*
X2023880Y-865840D01*
X2027620Y-867620D01*
X2031620Y-868780D01*
G37*
G36*
X1085000Y-822080D02*
G01*
X1088820Y-821740D01*
X1092540Y-820740D01*
X1096040Y-819120D01*
X1099180Y-816900D01*
X1101900Y-814180D01*
X1104120Y-811040D01*
X1105740Y-807540D01*
X1106740Y-803820D01*
X1107080Y-800000D01*
X1106740Y-796160D01*
X1105740Y-792440D01*
X1104120Y-788940D01*
X1101900Y-785800D01*
X1099180Y-783080D01*
X1096040Y-780860D01*
X1092540Y-779240D01*
X1088820Y-778240D01*
X1085000Y-777900D01*
X1081160Y-778240D01*
X1077440Y-779240D01*
X1073940Y-780860D01*
X1070800Y-783080D01*
X1068080Y-785800D01*
X1065860Y-788940D01*
X1064240Y-792440D01*
X1063240Y-796160D01*
X1062900Y-800000D01*
X1063240Y-803820D01*
X1064240Y-807540D01*
X1065860Y-811040D01*
X1068080Y-814180D01*
X1070800Y-816900D01*
X1073940Y-819120D01*
X1077440Y-820740D01*
X1081160Y-821740D01*
G37*
G36*
X2035740Y-802340D02*
G01*
X2039900Y-802180D01*
X2043980Y-801340D01*
X2047860Y-799880D01*
X2051459Y-797800D01*
X2054680Y-795160D01*
X2057440Y-792060D01*
X2059660Y-788540D01*
X2061300Y-784720D01*
X2062300Y-780680D01*
X2062620Y-776540D01*
X2062300Y-772380D01*
X2061300Y-768340D01*
X2059660Y-764520D01*
X2057440Y-761000D01*
X2054680Y-757900D01*
X2051459Y-755260D01*
X2047860Y-753180D01*
X2043980Y-751720D01*
X2039900Y-750879D01*
X2035740Y-750720D01*
X2031620Y-751220D01*
X2027620Y-752380D01*
X2023880Y-754160D01*
X2020460Y-756520D01*
X2017460Y-759400D01*
X2014960Y-762720D01*
X2013020Y-766400D01*
X2011699Y-770340D01*
X2011040Y-774460D01*
X2011040Y-778600D01*
X2011699Y-782720D01*
X2013020Y-786660D01*
X2014960Y-790340D01*
X2017460Y-793660D01*
X2020460Y-796540D01*
X2023880Y-798900D01*
X2027620Y-800680D01*
X2031620Y-801840D01*
G37*
G36*
X1350000Y-777080D02*
G01*
X1353820Y-776740D01*
X1357540Y-775740D01*
X1361040Y-774120D01*
X1364180Y-771900D01*
X1366900Y-769180D01*
X1369120Y-766040D01*
X1370740Y-762540D01*
X1371740Y-758820D01*
X1372080Y-755000D01*
X1371740Y-751160D01*
X1370740Y-747440D01*
X1369120Y-743940D01*
X1366900Y-740800D01*
X1364180Y-738080D01*
X1361040Y-735860D01*
X1357540Y-734240D01*
X1353820Y-733240D01*
X1350000Y-732900D01*
X1346160Y-733240D01*
X1342440Y-734240D01*
X1338940Y-735860D01*
X1335800Y-738080D01*
X1333080Y-740800D01*
X1330860Y-743940D01*
X1329240Y-747440D01*
X1328240Y-751160D01*
X1327900Y-755000D01*
X1328240Y-758820D01*
X1329240Y-762540D01*
X1330860Y-766040D01*
X1333080Y-769180D01*
X1335800Y-771900D01*
X1338940Y-774120D01*
X1342440Y-775740D01*
X1346160Y-776740D01*
G37*
G36*
X1130000Y-767080D02*
G01*
X1133820Y-766740D01*
X1137540Y-765740D01*
X1141040Y-764120D01*
X1144180Y-761900D01*
X1146900Y-759180D01*
X1149120Y-756040D01*
X1150740Y-752540D01*
X1151740Y-748820D01*
X1152080Y-745000D01*
X1151740Y-741160D01*
X1150740Y-737440D01*
X1149120Y-733940D01*
X1146900Y-730800D01*
X1144180Y-728080D01*
X1141040Y-725860D01*
X1137540Y-724240D01*
X1133820Y-723240D01*
X1130000Y-722900D01*
X1126160Y-723240D01*
X1122440Y-724240D01*
X1118940Y-725860D01*
X1115800Y-728080D01*
X1113080Y-730800D01*
X1110860Y-733940D01*
X1109240Y-737440D01*
X1108240Y-741160D01*
X1107900Y-745000D01*
X1108240Y-748820D01*
X1109240Y-752540D01*
X1110860Y-756040D01*
X1113080Y-759180D01*
X1115800Y-761900D01*
X1118940Y-764120D01*
X1122440Y-765740D01*
X1126160Y-766740D01*
G37*
G36*
X250000Y-741580D02*
G01*
X255420Y-741220D01*
X260760Y-740160D01*
X265920Y-738420D01*
X270780Y-736020D01*
X275320Y-733000D01*
X279400Y-729400D01*
X283000Y-725320D01*
X286020Y-720780D01*
X288420Y-715920D01*
X290160Y-710759D01*
X291220Y-705420D01*
X291580Y-700000D01*
X291220Y-694560D01*
X290160Y-689220D01*
X288420Y-684080D01*
X286020Y-679200D01*
X283000Y-674680D01*
X279400Y-670580D01*
X275320Y-667000D01*
X270780Y-663980D01*
X265920Y-661560D01*
X260760Y-659820D01*
X255420Y-658760D01*
X250000Y-658400D01*
X244560Y-658760D01*
X239220Y-659820D01*
X234080Y-661560D01*
X229200Y-663980D01*
X224680Y-667000D01*
X220580Y-670580D01*
X217000Y-674680D01*
X213980Y-679200D01*
X211560Y-684080D01*
X209820Y-689220D01*
X208760Y-694560D01*
X208400Y-700000D01*
X208760Y-705420D01*
X209820Y-710759D01*
X211560Y-715920D01*
X213980Y-720780D01*
X217000Y-725320D01*
X220580Y-729400D01*
X224680Y-733000D01*
X229200Y-736020D01*
X234080Y-738420D01*
X239220Y-740160D01*
X244560Y-741220D01*
G37*
G36*
X168240Y-737260D02*
G01*
X170780Y-736020D01*
X175320Y-733000D01*
X179400Y-729400D01*
X183000Y-725320D01*
X186020Y-720780D01*
X187260Y-718240D01*
X168240Y-718240D01*
G37*
G36*
X131740Y-737260D02*
G01*
X131740Y-718240D01*
X112720Y-718240D01*
X113980Y-720780D01*
X117000Y-725320D01*
X120580Y-729400D01*
X124680Y-733000D01*
X129200Y-736020D01*
G37*
G36*
X1935000Y-737080D02*
G01*
X1938820Y-736740D01*
X1942540Y-735740D01*
X1946040Y-734120D01*
X1949180Y-731900D01*
X1951900Y-729180D01*
X1954120Y-726040D01*
X1955740Y-722540D01*
X1956740Y-718820D01*
X1957080Y-715000D01*
X1956740Y-711160D01*
X1955740Y-707440D01*
X1954120Y-703940D01*
X1951900Y-700800D01*
X1949180Y-698080D01*
X1946040Y-695860D01*
X1942540Y-694240D01*
X1938820Y-693240D01*
X1935000Y-692900D01*
X1931160Y-693240D01*
X1927440Y-694240D01*
X1923940Y-695860D01*
X1920800Y-698080D01*
X1918080Y-700800D01*
X1915860Y-703940D01*
X1914240Y-707440D01*
X1913240Y-711160D01*
X1912900Y-715000D01*
X1913240Y-718820D01*
X1914240Y-722540D01*
X1915860Y-726040D01*
X1918080Y-729180D01*
X1920800Y-731900D01*
X1923940Y-734120D01*
X1927440Y-735740D01*
X1931160Y-736740D01*
G37*
G36*
X1200000Y-737080D02*
G01*
X1203820Y-736740D01*
X1207540Y-735740D01*
X1211040Y-734120D01*
X1214180Y-731900D01*
X1216900Y-729180D01*
X1219120Y-726040D01*
X1220740Y-722540D01*
X1221740Y-718820D01*
X1222080Y-715000D01*
X1221740Y-711160D01*
X1220740Y-707440D01*
X1219120Y-703940D01*
X1216900Y-700800D01*
X1214180Y-698080D01*
X1211040Y-695860D01*
X1207540Y-694240D01*
X1203820Y-693240D01*
X1200000Y-692900D01*
X1196160Y-693240D01*
X1192440Y-694240D01*
X1188940Y-695860D01*
X1185800Y-698080D01*
X1183080Y-700800D01*
X1180860Y-703940D01*
X1179240Y-707440D01*
X1178240Y-711160D01*
X1177900Y-715000D01*
X1178240Y-718820D01*
X1179240Y-722540D01*
X1180860Y-726040D01*
X1183080Y-729180D01*
X1185800Y-731900D01*
X1188940Y-734120D01*
X1192440Y-735740D01*
X1196160Y-736740D01*
G37*
G36*
X500000Y-722080D02*
G01*
X503820Y-721740D01*
X507540Y-720740D01*
X511040Y-719120D01*
X514180Y-716900D01*
X516900Y-714180D01*
X519120Y-711040D01*
X520740Y-707540D01*
X521740Y-703820D01*
X522080Y-700000D01*
X521740Y-696160D01*
X520740Y-692440D01*
X519120Y-688940D01*
X516900Y-685800D01*
X514180Y-683080D01*
X511040Y-680860D01*
X507540Y-679240D01*
X503820Y-678240D01*
X500000Y-677900D01*
X496160Y-678240D01*
X492440Y-679240D01*
X488940Y-680860D01*
X485800Y-683080D01*
X483080Y-685800D01*
X480860Y-688940D01*
X479240Y-692440D01*
X478240Y-696160D01*
X477900Y-700000D01*
X478240Y-703820D01*
X479240Y-707540D01*
X480860Y-711040D01*
X483080Y-714180D01*
X485800Y-716900D01*
X488940Y-719120D01*
X492440Y-720740D01*
X496160Y-721740D01*
G37*
G36*
X917000Y-703080D02*
G01*
X921380Y-702740D01*
X925660Y-701700D01*
X929740Y-700020D01*
X933500Y-697720D01*
X936860Y-694860D01*
X939720Y-691500D01*
X942020Y-687740D01*
X943700Y-683660D01*
X944740Y-679380D01*
X945080Y-675000D01*
X944740Y-670600D01*
X943700Y-666320D01*
X942020Y-662240D01*
X939720Y-658480D01*
X936860Y-655120D01*
X933500Y-652260D01*
X929740Y-649960D01*
X925660Y-648280D01*
X921380Y-647240D01*
X917000Y-646900D01*
X912600Y-647240D01*
X908319Y-648280D01*
X904240Y-649960D01*
X900480Y-652260D01*
X897120Y-655120D01*
X894260Y-658480D01*
X891960Y-662240D01*
X890280Y-666320D01*
X889240Y-670600D01*
X888900Y-675000D01*
X889240Y-679380D01*
X890280Y-683660D01*
X891960Y-687740D01*
X894260Y-691500D01*
X897120Y-694860D01*
X900480Y-697720D01*
X904240Y-700020D01*
X908319Y-701700D01*
X912600Y-702740D01*
G37*
G36*
X767000Y-692080D02*
G01*
X770819Y-691740D01*
X774539Y-690740D01*
X778040Y-689120D01*
X781180Y-686900D01*
X783900Y-684180D01*
X786120Y-681040D01*
X787740Y-677540D01*
X788120Y-676120D01*
X788920Y-674580D01*
X790300Y-673520D01*
X792000Y-673139D01*
X793680Y-673520D01*
X795060Y-674580D01*
X795860Y-676120D01*
X796240Y-677540D01*
X797860Y-681040D01*
X800080Y-684180D01*
X802800Y-686900D01*
X805939Y-689120D01*
X809440Y-690740D01*
X813160Y-691740D01*
X817000Y-692080D01*
X820819Y-691740D01*
X824539Y-690740D01*
X828040Y-689120D01*
X831180Y-686900D01*
X833900Y-684180D01*
X836120Y-681040D01*
X837740Y-677540D01*
X838740Y-673820D01*
X839080Y-670000D01*
X838740Y-666160D01*
X837740Y-662440D01*
X836120Y-658940D01*
X833900Y-655800D01*
X831180Y-653080D01*
X828040Y-650860D01*
X824539Y-649240D01*
X820819Y-648240D01*
X817000Y-647900D01*
X813160Y-648240D01*
X809440Y-649240D01*
X805939Y-650860D01*
X802800Y-653080D01*
X800080Y-655800D01*
X797860Y-658940D01*
X796240Y-662440D01*
X795860Y-663860D01*
X795060Y-665400D01*
X793680Y-666460D01*
X792000Y-666840D01*
X790300Y-666460D01*
X788920Y-665400D01*
X788120Y-663860D01*
X787740Y-662440D01*
X786120Y-658940D01*
X783900Y-655800D01*
X781180Y-653080D01*
X778040Y-650860D01*
X774539Y-649240D01*
X770819Y-648240D01*
X767000Y-647900D01*
X763160Y-648240D01*
X759440Y-649240D01*
X755939Y-650860D01*
X752800Y-653080D01*
X750080Y-655800D01*
X747860Y-658940D01*
X746240Y-662440D01*
X745240Y-666160D01*
X744900Y-670000D01*
X745240Y-673820D01*
X746240Y-677540D01*
X747860Y-681040D01*
X750080Y-684180D01*
X752800Y-686900D01*
X755939Y-689120D01*
X759440Y-690740D01*
X763160Y-691740D01*
G37*
G36*
X112720Y-681740D02*
G01*
X131740Y-681740D01*
X131740Y-662720D01*
X129200Y-663980D01*
X124680Y-667000D01*
X120580Y-670580D01*
X117000Y-674680D01*
X113980Y-679200D01*
G37*
G36*
X168240Y-681740D02*
G01*
X187260Y-681740D01*
X186020Y-679200D01*
X183000Y-674680D01*
X179400Y-670580D01*
X175320Y-667000D01*
X170780Y-663980D01*
X168240Y-662720D01*
G37*
G36*
X1554120Y-664980D02*
G01*
X1558959Y-664640D01*
X1563720Y-663600D01*
X1568280Y-661900D01*
X1572540Y-659580D01*
X1576440Y-656660D01*
X1579880Y-653220D01*
X1582780Y-649340D01*
X1585120Y-645060D01*
X1586819Y-640500D01*
X1587860Y-635760D01*
X1588200Y-630900D01*
X1587860Y-626040D01*
X1586819Y-621300D01*
X1585120Y-616740D01*
X1582780Y-612460D01*
X1579880Y-608580D01*
X1576440Y-605140D01*
X1572540Y-602220D01*
X1568280Y-599900D01*
X1563720Y-598200D01*
X1558959Y-597160D01*
X1554120Y-596820D01*
X1549259Y-597160D01*
X1544500Y-598200D01*
X1539940Y-599900D01*
X1535680Y-602220D01*
X1531780Y-605140D01*
X1528340Y-608580D01*
X1525440Y-612460D01*
X1523100Y-616740D01*
X1521399Y-621300D01*
X1520360Y-626040D01*
X1520020Y-630900D01*
X1520360Y-635760D01*
X1521399Y-640500D01*
X1523100Y-645060D01*
X1525440Y-649340D01*
X1528340Y-653220D01*
X1531780Y-656660D01*
X1535680Y-659580D01*
X1539940Y-661900D01*
X1544500Y-663600D01*
X1549259Y-664640D01*
G37*
G36*
X1694120Y-664980D02*
G01*
X1698959Y-664640D01*
X1703720Y-663600D01*
X1708280Y-661900D01*
X1712540Y-659580D01*
X1716440Y-656660D01*
X1719880Y-653220D01*
X1722780Y-649340D01*
X1725120Y-645060D01*
X1726819Y-640500D01*
X1727860Y-635760D01*
X1728200Y-630900D01*
X1727860Y-626040D01*
X1726819Y-621300D01*
X1725120Y-616740D01*
X1722780Y-612460D01*
X1719880Y-608580D01*
X1716440Y-605140D01*
X1712540Y-602220D01*
X1708280Y-599900D01*
X1703720Y-598200D01*
X1698959Y-597160D01*
X1694120Y-596820D01*
X1689259Y-597160D01*
X1684500Y-598200D01*
X1679940Y-599900D01*
X1675680Y-602220D01*
X1671780Y-605140D01*
X1668340Y-608580D01*
X1665440Y-612460D01*
X1663100Y-616740D01*
X1661399Y-621300D01*
X1660360Y-626040D01*
X1660020Y-630900D01*
X1660360Y-635760D01*
X1661399Y-640500D01*
X1663100Y-645060D01*
X1665440Y-649340D01*
X1668340Y-653220D01*
X1671780Y-656660D01*
X1675680Y-659580D01*
X1679940Y-661900D01*
X1684500Y-663600D01*
X1689259Y-664640D01*
G37*
G36*
X1215000Y-632080D02*
G01*
X1218820Y-631740D01*
X1222540Y-630740D01*
X1226040Y-629120D01*
X1229180Y-626900D01*
X1231900Y-624180D01*
X1234120Y-621040D01*
X1235740Y-617540D01*
X1236740Y-613820D01*
X1237080Y-610000D01*
X1236740Y-606160D01*
X1235740Y-602440D01*
X1234120Y-598940D01*
X1231900Y-595800D01*
X1229180Y-593080D01*
X1226040Y-590860D01*
X1222540Y-589240D01*
X1218820Y-588240D01*
X1215000Y-587900D01*
X1211160Y-588240D01*
X1207440Y-589240D01*
X1203940Y-590860D01*
X1200800Y-593080D01*
X1198080Y-595800D01*
X1195860Y-598940D01*
X1194240Y-602440D01*
X1193240Y-606160D01*
X1192900Y-610000D01*
X1193240Y-613820D01*
X1194240Y-617540D01*
X1195860Y-621040D01*
X1198080Y-624180D01*
X1200800Y-626900D01*
X1203940Y-629120D01*
X1207440Y-630740D01*
X1211160Y-631740D01*
G37*
G36*
X700000Y-601260D02*
G01*
X703820Y-600920D01*
X707540Y-599920D01*
X711040Y-598300D01*
X714180Y-596080D01*
X716900Y-593360D01*
X717720Y-592200D01*
X718820Y-591140D01*
X720240Y-590560D01*
X721760Y-590560D01*
X723180Y-591140D01*
X724280Y-592200D01*
X725100Y-593360D01*
X727820Y-596080D01*
X730960Y-598300D01*
X734460Y-599920D01*
X738180Y-600920D01*
X742020Y-601260D01*
X745840Y-600920D01*
X749560Y-599920D01*
X753060Y-598300D01*
X756200Y-596080D01*
X758920Y-593360D01*
X761140Y-590220D01*
X762760Y-586720D01*
X763139Y-585300D01*
X763940Y-583760D01*
X765320Y-582700D01*
X767020Y-582320D01*
X768700Y-582700D01*
X770080Y-583760D01*
X770879Y-585300D01*
X771260Y-586720D01*
X772880Y-590220D01*
X775100Y-593360D01*
X777820Y-596080D01*
X780960Y-598300D01*
X784460Y-599920D01*
X788180Y-600920D01*
X792020Y-601260D01*
X795840Y-600920D01*
X799560Y-599920D01*
X803060Y-598300D01*
X806200Y-596080D01*
X808920Y-593360D01*
X811140Y-590220D01*
X812760Y-586720D01*
X813760Y-583000D01*
X814100Y-579040D01*
X814620Y-577400D01*
X815800Y-576120D01*
X817400Y-575460D01*
X819120Y-575540D01*
X820660Y-576340D01*
X821720Y-577700D01*
X822880Y-580220D01*
X825100Y-583360D01*
X827820Y-586080D01*
X830960Y-588300D01*
X834460Y-589920D01*
X838180Y-590920D01*
X842020Y-591260D01*
X845840Y-590920D01*
X849560Y-589920D01*
X853060Y-588300D01*
X856200Y-586080D01*
X858920Y-583360D01*
X861140Y-580220D01*
X862760Y-576720D01*
X863139Y-575300D01*
X863940Y-573760D01*
X865320Y-572700D01*
X867020Y-572320D01*
X868700Y-572700D01*
X870080Y-573760D01*
X870879Y-575300D01*
X871260Y-576720D01*
X872880Y-580220D01*
X875100Y-583360D01*
X877820Y-586080D01*
X880960Y-588300D01*
X884460Y-589920D01*
X888180Y-590920D01*
X892020Y-591260D01*
X895840Y-590920D01*
X899560Y-589920D01*
X903060Y-588300D01*
X906200Y-586080D01*
X909200Y-583120D01*
X910500Y-582240D01*
X912020Y-581940D01*
X913540Y-582260D01*
X914840Y-583120D01*
X917820Y-586080D01*
X920960Y-588300D01*
X924460Y-589920D01*
X928180Y-590920D01*
X932020Y-591260D01*
X935840Y-590920D01*
X939560Y-589920D01*
X943060Y-588300D01*
X946200Y-586080D01*
X948920Y-583360D01*
X951140Y-580220D01*
X952760Y-576720D01*
X953760Y-573000D01*
X954100Y-569180D01*
X953760Y-565340D01*
X952760Y-561620D01*
X951420Y-558740D01*
X951040Y-557160D01*
X951320Y-555560D01*
X952220Y-554220D01*
X953560Y-553320D01*
X955160Y-553040D01*
X956740Y-553420D01*
X957440Y-553740D01*
X961160Y-554740D01*
X965000Y-555080D01*
X968820Y-554740D01*
X972540Y-553740D01*
X976040Y-552120D01*
X979180Y-549900D01*
X981900Y-547180D01*
X984120Y-544040D01*
X985740Y-540540D01*
X986740Y-536820D01*
X987080Y-533000D01*
X986740Y-529160D01*
X985740Y-525440D01*
X984120Y-521940D01*
X981900Y-518800D01*
X979180Y-516079D01*
X976040Y-513860D01*
X972540Y-512239D01*
X971120Y-511860D01*
X969580Y-511060D01*
X968520Y-509680D01*
X968139Y-508000D01*
X968520Y-506300D01*
X969580Y-504920D01*
X971120Y-504120D01*
X972540Y-503740D01*
X976040Y-502120D01*
X979180Y-499900D01*
X981900Y-497180D01*
X984120Y-494040D01*
X985740Y-490540D01*
X986740Y-486820D01*
X987080Y-483000D01*
X986740Y-479159D01*
X985740Y-475439D01*
X984120Y-471940D01*
X981900Y-468800D01*
X979180Y-466079D01*
X976040Y-463860D01*
X972480Y-462200D01*
X971260Y-461320D01*
X970440Y-460060D01*
X970160Y-458579D01*
X970440Y-457100D01*
X971260Y-455840D01*
X972480Y-454960D01*
X976040Y-453300D01*
X979180Y-451079D01*
X981900Y-448360D01*
X984120Y-445220D01*
X985740Y-441719D01*
X986740Y-438000D01*
X987080Y-434180D01*
X986740Y-430340D01*
X985740Y-426620D01*
X984120Y-423120D01*
X981900Y-419980D01*
X979180Y-417260D01*
X976040Y-415040D01*
X972540Y-413420D01*
X971120Y-413040D01*
X969580Y-412239D01*
X968520Y-410860D01*
X968139Y-409180D01*
X968520Y-407480D01*
X969580Y-406100D01*
X971120Y-405300D01*
X972540Y-404920D01*
X976040Y-403300D01*
X979180Y-401079D01*
X981900Y-398360D01*
X984120Y-395220D01*
X985740Y-391719D01*
X986740Y-388000D01*
X987080Y-384180D01*
X986740Y-380340D01*
X985740Y-376620D01*
X984120Y-373120D01*
X981900Y-369980D01*
X979180Y-367260D01*
X976040Y-365040D01*
X972540Y-363420D01*
X971120Y-363040D01*
X969580Y-362239D01*
X968520Y-360860D01*
X968139Y-359180D01*
X968520Y-357480D01*
X969580Y-356100D01*
X971120Y-355300D01*
X972540Y-354920D01*
X976040Y-353300D01*
X979180Y-351079D01*
X981900Y-348360D01*
X984120Y-345220D01*
X985740Y-341719D01*
X986740Y-338000D01*
X987080Y-334180D01*
X986740Y-330340D01*
X985740Y-326620D01*
X984120Y-323120D01*
X981900Y-319980D01*
X979180Y-317260D01*
X976040Y-315040D01*
X972540Y-313420D01*
X971120Y-313040D01*
X969580Y-312240D01*
X968520Y-310860D01*
X968139Y-309180D01*
X968520Y-307480D01*
X969580Y-306100D01*
X971120Y-305300D01*
X972540Y-304920D01*
X976040Y-303300D01*
X979180Y-301080D01*
X981900Y-298360D01*
X984120Y-295220D01*
X985740Y-291720D01*
X986740Y-288000D01*
X987080Y-284180D01*
X986740Y-280340D01*
X985740Y-276620D01*
X984120Y-273120D01*
X981900Y-269980D01*
X979180Y-267260D01*
X976040Y-265040D01*
X972540Y-263420D01*
X970440Y-262860D01*
X968900Y-262060D01*
X967860Y-260680D01*
X967480Y-259000D01*
X967860Y-257300D01*
X968900Y-255920D01*
X970440Y-255120D01*
X972540Y-254560D01*
X976040Y-252940D01*
X979180Y-250720D01*
X981900Y-248000D01*
X984120Y-244860D01*
X985740Y-241360D01*
X986740Y-237640D01*
X987080Y-233820D01*
X986740Y-229980D01*
X985740Y-226260D01*
X984120Y-222760D01*
X981900Y-219620D01*
X979180Y-216900D01*
X976040Y-214680D01*
X972540Y-213060D01*
X971780Y-212860D01*
X970240Y-212060D01*
X969200Y-210680D01*
X968820Y-209000D01*
X969200Y-207300D01*
X970240Y-205920D01*
X971780Y-205120D01*
X972540Y-204920D01*
X976040Y-203299D01*
X979180Y-201080D01*
X981900Y-198359D01*
X984120Y-195219D01*
X985740Y-191720D01*
X986740Y-188000D01*
X987080Y-184180D01*
X986740Y-180340D01*
X985740Y-176620D01*
X984120Y-173120D01*
X981900Y-169980D01*
X979180Y-167260D01*
X976040Y-165040D01*
X972540Y-163420D01*
X968820Y-162420D01*
X965000Y-162079D01*
X961160Y-162420D01*
X957440Y-163420D01*
X953940Y-165040D01*
X950800Y-167260D01*
X948080Y-169980D01*
X945860Y-173120D01*
X944240Y-176620D01*
X943240Y-180340D01*
X942900Y-184180D01*
X943240Y-188000D01*
X944240Y-191720D01*
X945860Y-195219D01*
X948080Y-198359D01*
X950800Y-201080D01*
X953940Y-203299D01*
X957440Y-204920D01*
X958199Y-205120D01*
X959740Y-205920D01*
X960780Y-207300D01*
X961160Y-209000D01*
X960780Y-210680D01*
X959740Y-212060D01*
X958199Y-212860D01*
X957440Y-213060D01*
X953940Y-214680D01*
X950800Y-216900D01*
X948080Y-219620D01*
X945860Y-222760D01*
X944240Y-226260D01*
X943240Y-229980D01*
X942900Y-233820D01*
X943240Y-237640D01*
X944240Y-241360D01*
X945860Y-244860D01*
X948080Y-248000D01*
X950800Y-250720D01*
X953940Y-252940D01*
X957440Y-254560D01*
X959539Y-255120D01*
X961080Y-255920D01*
X962120Y-257300D01*
X962500Y-259000D01*
X962120Y-260680D01*
X961080Y-262060D01*
X959539Y-262860D01*
X957440Y-263420D01*
X953940Y-265040D01*
X950800Y-267260D01*
X948080Y-269980D01*
X945860Y-273120D01*
X944240Y-276620D01*
X943240Y-280340D01*
X942900Y-284180D01*
X943240Y-288000D01*
X944240Y-291720D01*
X945860Y-295220D01*
X948080Y-298360D01*
X950800Y-301080D01*
X953940Y-303300D01*
X957440Y-304920D01*
X958860Y-305300D01*
X960400Y-306100D01*
X961460Y-307480D01*
X961840Y-309180D01*
X961460Y-310860D01*
X960400Y-312240D01*
X958860Y-313040D01*
X957440Y-313420D01*
X953940Y-315040D01*
X950800Y-317260D01*
X948080Y-319980D01*
X945860Y-323120D01*
X944240Y-326620D01*
X943240Y-330340D01*
X942900Y-334180D01*
X943240Y-338000D01*
X944240Y-341719D01*
X945860Y-345220D01*
X948080Y-348360D01*
X950800Y-351079D01*
X953940Y-353300D01*
X957440Y-354920D01*
X958860Y-355300D01*
X960400Y-356100D01*
X961460Y-357480D01*
X961840Y-359180D01*
X961460Y-360860D01*
X960400Y-362239D01*
X958860Y-363040D01*
X957440Y-363420D01*
X953940Y-365040D01*
X950800Y-367260D01*
X948080Y-369980D01*
X945860Y-373120D01*
X944240Y-376620D01*
X943240Y-380340D01*
X942900Y-384180D01*
X943240Y-388000D01*
X944240Y-391719D01*
X945860Y-395220D01*
X948080Y-398360D01*
X950800Y-401079D01*
X953940Y-403300D01*
X957440Y-404920D01*
X958860Y-405300D01*
X960400Y-406100D01*
X961460Y-407480D01*
X961840Y-409180D01*
X961460Y-410860D01*
X960400Y-412239D01*
X958860Y-413040D01*
X957440Y-413420D01*
X953940Y-415040D01*
X950800Y-417260D01*
X948080Y-419980D01*
X945860Y-423120D01*
X944240Y-426620D01*
X943240Y-430340D01*
X942900Y-434180D01*
X943240Y-438000D01*
X944240Y-441719D01*
X945860Y-445220D01*
X948080Y-448360D01*
X950800Y-451079D01*
X953940Y-453300D01*
X957500Y-454960D01*
X958720Y-455840D01*
X959539Y-457100D01*
X959820Y-458579D01*
X959539Y-460060D01*
X958720Y-461320D01*
X957500Y-462200D01*
X953940Y-463860D01*
X950800Y-466079D01*
X948080Y-468800D01*
X945860Y-471940D01*
X944240Y-475439D01*
X943240Y-479159D01*
X942900Y-483000D01*
X943240Y-486820D01*
X944240Y-490540D01*
X945860Y-494040D01*
X948080Y-497180D01*
X950800Y-499900D01*
X953940Y-502120D01*
X957440Y-503740D01*
X958860Y-504120D01*
X960400Y-504920D01*
X961460Y-506300D01*
X961840Y-508000D01*
X961460Y-509680D01*
X960400Y-511060D01*
X958860Y-511860D01*
X957440Y-512239D01*
X953940Y-513860D01*
X950800Y-516079D01*
X948080Y-518800D01*
X945860Y-521940D01*
X944240Y-525440D01*
X943240Y-529160D01*
X942900Y-533000D01*
X943240Y-536820D01*
X944240Y-540540D01*
X945580Y-543420D01*
X945960Y-545000D01*
X945680Y-546600D01*
X944780Y-547940D01*
X943439Y-548840D01*
X941840Y-549120D01*
X940260Y-548740D01*
X939560Y-548420D01*
X935840Y-547420D01*
X932020Y-547080D01*
X928180Y-547420D01*
X924460Y-548420D01*
X920960Y-550040D01*
X917820Y-552260D01*
X914820Y-555220D01*
X913520Y-556100D01*
X912000Y-556400D01*
X910480Y-556080D01*
X909180Y-555220D01*
X906200Y-552260D01*
X903060Y-550040D01*
X899560Y-548420D01*
X895840Y-547420D01*
X892020Y-547080D01*
X888180Y-547420D01*
X884460Y-548420D01*
X880960Y-550040D01*
X877820Y-552260D01*
X875100Y-554980D01*
X872880Y-558120D01*
X871260Y-561620D01*
X870879Y-563040D01*
X870080Y-564580D01*
X868700Y-565640D01*
X867020Y-566020D01*
X865320Y-565640D01*
X863940Y-564580D01*
X863139Y-563040D01*
X862760Y-561620D01*
X861140Y-558120D01*
X858920Y-554980D01*
X856200Y-552260D01*
X853060Y-550040D01*
X849560Y-548420D01*
X845840Y-547420D01*
X842020Y-547080D01*
X838180Y-547420D01*
X834460Y-548420D01*
X830960Y-550040D01*
X827820Y-552260D01*
X825100Y-554980D01*
X822880Y-558120D01*
X821260Y-561620D01*
X820260Y-565340D01*
X819920Y-569300D01*
X819400Y-570940D01*
X818220Y-572220D01*
X816620Y-572880D01*
X814900Y-572800D01*
X813360Y-572000D01*
X812300Y-570640D01*
X811140Y-568120D01*
X808920Y-564980D01*
X806200Y-562260D01*
X803060Y-560040D01*
X799560Y-558420D01*
X795840Y-557420D01*
X792020Y-557080D01*
X788180Y-557420D01*
X784460Y-558420D01*
X780960Y-560040D01*
X777820Y-562260D01*
X775100Y-564980D01*
X772880Y-568120D01*
X771260Y-571620D01*
X770879Y-573040D01*
X770080Y-574580D01*
X768700Y-575640D01*
X767020Y-576020D01*
X765320Y-575640D01*
X763940Y-574580D01*
X763139Y-573040D01*
X762760Y-571620D01*
X761140Y-568120D01*
X758920Y-564980D01*
X756200Y-562260D01*
X753060Y-560040D01*
X749560Y-558420D01*
X745840Y-557420D01*
X742020Y-557080D01*
X738180Y-557420D01*
X734460Y-558420D01*
X730960Y-560040D01*
X727820Y-562260D01*
X725100Y-564980D01*
X724280Y-566140D01*
X723180Y-567200D01*
X721760Y-567780D01*
X720240Y-567780D01*
X718820Y-567200D01*
X717720Y-566140D01*
X716900Y-564980D01*
X714180Y-562260D01*
X711040Y-560040D01*
X707540Y-558420D01*
X703820Y-557420D01*
X700000Y-557080D01*
X696160Y-557420D01*
X692440Y-558420D01*
X688940Y-560040D01*
X685800Y-562260D01*
X683080Y-564980D01*
X680860Y-568120D01*
X679240Y-571620D01*
X678240Y-575340D01*
X677900Y-579180D01*
X678240Y-583000D01*
X679240Y-586720D01*
X680860Y-590220D01*
X683080Y-593360D01*
X685800Y-596080D01*
X688940Y-598300D01*
X692440Y-599920D01*
X696160Y-600920D01*
G37*
G36*
X1200000Y-547080D02*
G01*
X1203820Y-546740D01*
X1207540Y-545740D01*
X1211040Y-544120D01*
X1214180Y-541900D01*
X1216900Y-539180D01*
X1219120Y-536040D01*
X1220740Y-532540D01*
X1221740Y-528820D01*
X1222080Y-525000D01*
X1221740Y-521160D01*
X1220740Y-517440D01*
X1219120Y-513940D01*
X1216900Y-510800D01*
X1214180Y-508080D01*
X1211040Y-505860D01*
X1207540Y-504240D01*
X1203820Y-503240D01*
X1200000Y-502900D01*
X1196160Y-503240D01*
X1192440Y-504240D01*
X1188940Y-505860D01*
X1185800Y-508080D01*
X1183080Y-510800D01*
X1180860Y-513940D01*
X1179240Y-517440D01*
X1178240Y-521160D01*
X1177900Y-525000D01*
X1178240Y-528820D01*
X1179240Y-532540D01*
X1180860Y-536040D01*
X1183080Y-539180D01*
X1185800Y-541900D01*
X1188940Y-544120D01*
X1192440Y-545740D01*
X1196160Y-546740D01*
G37*
G36*
X2035740Y-534280D02*
G01*
X2039900Y-534100D01*
X2043980Y-533280D01*
X2047860Y-531800D01*
X2051459Y-529720D01*
X2054680Y-527100D01*
X2057440Y-523980D01*
X2059660Y-520460D01*
X2061300Y-516640D01*
X2062300Y-512600D01*
X2062620Y-508459D01*
X2062300Y-504320D01*
X2061300Y-500280D01*
X2059660Y-496460D01*
X2057440Y-492939D01*
X2054680Y-489820D01*
X2051459Y-487200D01*
X2047860Y-485120D01*
X2043980Y-483640D01*
X2039900Y-482819D01*
X2035740Y-482640D01*
X2031620Y-483140D01*
X2027620Y-484300D01*
X2023880Y-486079D01*
X2020460Y-488440D01*
X2017460Y-491320D01*
X2014960Y-494660D01*
X2013020Y-498340D01*
X2011699Y-502280D01*
X2011040Y-506380D01*
X2011040Y-510540D01*
X2011699Y-514640D01*
X2013020Y-518579D01*
X2014960Y-522260D01*
X2017460Y-525600D01*
X2020460Y-528480D01*
X2023880Y-530840D01*
X2027620Y-532620D01*
X2031620Y-533780D01*
G37*
G36*
X900000Y-522080D02*
G01*
X903820Y-521740D01*
X907540Y-520740D01*
X911040Y-519120D01*
X914180Y-516900D01*
X916900Y-514180D01*
X919120Y-511040D01*
X920740Y-507540D01*
X921740Y-503820D01*
X922080Y-500000D01*
X921740Y-496160D01*
X920740Y-492440D01*
X919120Y-488940D01*
X916900Y-485800D01*
X914180Y-483080D01*
X911040Y-480860D01*
X907540Y-479240D01*
X903820Y-478240D01*
X900000Y-477900D01*
X896160Y-478240D01*
X892440Y-479240D01*
X888940Y-480860D01*
X885800Y-483080D01*
X883080Y-485800D01*
X880860Y-488940D01*
X879240Y-492440D01*
X878240Y-496160D01*
X877900Y-500000D01*
X878240Y-503820D01*
X879240Y-507540D01*
X880860Y-511040D01*
X883080Y-514180D01*
X885800Y-516900D01*
X888940Y-519120D01*
X892440Y-520740D01*
X896160Y-521740D01*
G37*
G36*
X1400000Y-487080D02*
G01*
X1403820Y-486740D01*
X1407540Y-485740D01*
X1411040Y-484120D01*
X1414180Y-481900D01*
X1416900Y-479180D01*
X1419120Y-476040D01*
X1420740Y-472540D01*
X1421740Y-468820D01*
X1422080Y-465000D01*
X1421740Y-461160D01*
X1420740Y-457440D01*
X1419120Y-453940D01*
X1416900Y-450800D01*
X1414180Y-448080D01*
X1411040Y-445860D01*
X1407540Y-444240D01*
X1403820Y-443240D01*
X1400000Y-442900D01*
X1396160Y-443240D01*
X1392440Y-444240D01*
X1388940Y-445860D01*
X1385800Y-448080D01*
X1383080Y-450800D01*
X1380860Y-453940D01*
X1379240Y-457440D01*
X1378240Y-461160D01*
X1377900Y-465000D01*
X1378240Y-468820D01*
X1379240Y-472540D01*
X1380860Y-476040D01*
X1383080Y-479180D01*
X1385800Y-481900D01*
X1388940Y-484120D01*
X1392440Y-485740D01*
X1396160Y-486740D01*
G37*
G36*
X1335000Y-482080D02*
G01*
X1338820Y-481740D01*
X1342540Y-480740D01*
X1346040Y-479120D01*
X1349180Y-476900D01*
X1351900Y-474180D01*
X1354120Y-471040D01*
X1355740Y-467540D01*
X1356740Y-463820D01*
X1357080Y-460000D01*
X1356740Y-456160D01*
X1355740Y-452440D01*
X1354120Y-448940D01*
X1351900Y-445800D01*
X1349180Y-443080D01*
X1346040Y-440860D01*
X1342540Y-439240D01*
X1338820Y-438240D01*
X1335000Y-437900D01*
X1331160Y-438240D01*
X1327440Y-439240D01*
X1323940Y-440860D01*
X1320800Y-443080D01*
X1318080Y-445800D01*
X1315860Y-448940D01*
X1314240Y-452440D01*
X1313240Y-456160D01*
X1312900Y-460000D01*
X1313240Y-463820D01*
X1314240Y-467540D01*
X1315860Y-471040D01*
X1318080Y-474180D01*
X1320800Y-476900D01*
X1323940Y-479120D01*
X1327440Y-480740D01*
X1331160Y-481740D01*
G37*
G36*
X2035740Y-467340D02*
G01*
X2039900Y-467180D01*
X2043980Y-466340D01*
X2047860Y-464880D01*
X2051459Y-462800D01*
X2054680Y-460160D01*
X2057440Y-457060D01*
X2059660Y-453540D01*
X2061300Y-449720D01*
X2062300Y-445680D01*
X2062620Y-441540D01*
X2062300Y-437380D01*
X2061300Y-433340D01*
X2059660Y-429520D01*
X2057440Y-426000D01*
X2054680Y-422900D01*
X2051459Y-420260D01*
X2047860Y-418180D01*
X2043980Y-416719D01*
X2039900Y-415880D01*
X2035740Y-415720D01*
X2031620Y-416220D01*
X2027620Y-417380D01*
X2023880Y-419159D01*
X2020460Y-421520D01*
X2017460Y-424400D01*
X2014960Y-427720D01*
X2013020Y-431400D01*
X2011699Y-435340D01*
X2011040Y-439460D01*
X2011040Y-443600D01*
X2011699Y-447720D01*
X2013020Y-451659D01*
X2014960Y-455340D01*
X2017460Y-458660D01*
X2020460Y-461540D01*
X2023880Y-463900D01*
X2027620Y-465680D01*
X2031620Y-466840D01*
G37*
G36*
X1200000Y-467080D02*
G01*
X1203820Y-466740D01*
X1207540Y-465740D01*
X1211040Y-464120D01*
X1214180Y-461900D01*
X1216900Y-459180D01*
X1219120Y-456040D01*
X1220740Y-452540D01*
X1221740Y-448820D01*
X1222080Y-445000D01*
X1221740Y-441160D01*
X1220740Y-437440D01*
X1219120Y-433940D01*
X1216900Y-430800D01*
X1214180Y-428080D01*
X1211040Y-425860D01*
X1207540Y-424240D01*
X1203820Y-423240D01*
X1200000Y-422900D01*
X1196160Y-423240D01*
X1192440Y-424240D01*
X1188940Y-425860D01*
X1185800Y-428080D01*
X1183080Y-430800D01*
X1180860Y-433940D01*
X1179240Y-437440D01*
X1178240Y-441160D01*
X1177900Y-445000D01*
X1178240Y-448820D01*
X1179240Y-452540D01*
X1180860Y-456040D01*
X1183080Y-459180D01*
X1185800Y-461900D01*
X1188940Y-464120D01*
X1192440Y-465740D01*
X1196160Y-466740D01*
G37*
G36*
X150000Y-461580D02*
G01*
X155420Y-461220D01*
X160760Y-460160D01*
X165900Y-458420D01*
X170780Y-456019D01*
X175320Y-452980D01*
X179400Y-449400D01*
X182979Y-445319D01*
X186020Y-440780D01*
X188420Y-435900D01*
X190159Y-430760D01*
X191220Y-425420D01*
X191580Y-420000D01*
X191220Y-414560D01*
X190159Y-409219D01*
X188420Y-404080D01*
X186020Y-399200D01*
X182979Y-394680D01*
X179400Y-390580D01*
X175320Y-387000D01*
X170780Y-383980D01*
X165900Y-381560D01*
X160760Y-379820D01*
X155420Y-378760D01*
X150000Y-378400D01*
X144560Y-378760D01*
X139220Y-379820D01*
X134080Y-381560D01*
X129200Y-383980D01*
X124680Y-387000D01*
X120580Y-390580D01*
X117000Y-394680D01*
X113980Y-399200D01*
X111560Y-404080D01*
X109820Y-409219D01*
X108760Y-414560D01*
X108400Y-420000D01*
X108760Y-425420D01*
X109820Y-430760D01*
X111560Y-435900D01*
X113980Y-440780D01*
X117000Y-445319D01*
X120580Y-449400D01*
X124680Y-452980D01*
X129200Y-456019D01*
X134080Y-458420D01*
X139220Y-460160D01*
X144560Y-461220D01*
G37*
G36*
X350000Y-461580D02*
G01*
X355420Y-461220D01*
X360760Y-460160D01*
X365900Y-458420D01*
X370780Y-456019D01*
X375319Y-452980D01*
X379400Y-449400D01*
X382980Y-445319D01*
X386019Y-440780D01*
X388420Y-435900D01*
X390160Y-430760D01*
X391220Y-425420D01*
X391580Y-420000D01*
X391220Y-414560D01*
X390160Y-409219D01*
X388420Y-404080D01*
X386019Y-399200D01*
X382980Y-394680D01*
X379400Y-390580D01*
X375319Y-387000D01*
X370780Y-383980D01*
X365900Y-381560D01*
X360760Y-379820D01*
X355420Y-378760D01*
X350000Y-378400D01*
X344560Y-378760D01*
X339219Y-379820D01*
X334080Y-381560D01*
X329200Y-383980D01*
X324680Y-387000D01*
X320580Y-390580D01*
X317000Y-394680D01*
X313980Y-399200D01*
X311560Y-404080D01*
X309820Y-409219D01*
X308760Y-414560D01*
X308400Y-420000D01*
X308760Y-425420D01*
X309820Y-430760D01*
X311560Y-435900D01*
X313980Y-440780D01*
X317000Y-445319D01*
X320580Y-449400D01*
X324680Y-452980D01*
X329200Y-456019D01*
X334080Y-458420D01*
X339219Y-460160D01*
X344560Y-461220D01*
G37*
G36*
X250000Y-461580D02*
G01*
X255420Y-461220D01*
X260760Y-460160D01*
X265900Y-458420D01*
X270780Y-456019D01*
X275320Y-452980D01*
X279400Y-449400D01*
X282980Y-445319D01*
X286020Y-440780D01*
X288420Y-435900D01*
X290160Y-430760D01*
X291220Y-425420D01*
X291580Y-420000D01*
X291220Y-414560D01*
X290160Y-409219D01*
X288420Y-404080D01*
X286020Y-399200D01*
X282980Y-394680D01*
X279400Y-390580D01*
X275320Y-387000D01*
X270780Y-383980D01*
X265900Y-381560D01*
X260760Y-379820D01*
X255420Y-378760D01*
X250000Y-378400D01*
X244560Y-378760D01*
X239220Y-379820D01*
X234080Y-381560D01*
X229200Y-383980D01*
X224680Y-387000D01*
X220580Y-390580D01*
X217000Y-394680D01*
X213980Y-399200D01*
X211560Y-404080D01*
X209820Y-409219D01*
X208760Y-414560D01*
X208400Y-420000D01*
X208760Y-425420D01*
X209820Y-430760D01*
X211560Y-435900D01*
X213980Y-440780D01*
X217000Y-445319D01*
X220580Y-449400D01*
X224680Y-452980D01*
X229200Y-456019D01*
X234080Y-458420D01*
X239220Y-460160D01*
X244560Y-461220D01*
G37*
G36*
X1935000Y-397080D02*
G01*
X1938820Y-396740D01*
X1942540Y-395740D01*
X1946040Y-394120D01*
X1949180Y-391900D01*
X1951900Y-389180D01*
X1954120Y-386040D01*
X1955740Y-382540D01*
X1956740Y-378820D01*
X1957080Y-375000D01*
X1956740Y-371160D01*
X1955740Y-367440D01*
X1954120Y-363940D01*
X1951900Y-360800D01*
X1949180Y-358080D01*
X1946040Y-355860D01*
X1942540Y-354240D01*
X1938820Y-353240D01*
X1935000Y-352900D01*
X1931160Y-353240D01*
X1927440Y-354240D01*
X1923940Y-355860D01*
X1920800Y-358080D01*
X1918080Y-360800D01*
X1915860Y-363940D01*
X1914240Y-367440D01*
X1913240Y-371160D01*
X1912900Y-375000D01*
X1913240Y-378820D01*
X1914240Y-382540D01*
X1915860Y-386040D01*
X1918080Y-389180D01*
X1920800Y-391900D01*
X1923940Y-394120D01*
X1927440Y-395740D01*
X1931160Y-396740D01*
G37*
G36*
X430000Y-392080D02*
G01*
X433820Y-391740D01*
X437540Y-390740D01*
X441040Y-389120D01*
X444180Y-386900D01*
X446900Y-384180D01*
X449120Y-381040D01*
X450740Y-377540D01*
X451740Y-373820D01*
X452080Y-370000D01*
X451740Y-366160D01*
X450740Y-362440D01*
X449120Y-358940D01*
X446900Y-355800D01*
X444180Y-353080D01*
X441040Y-350860D01*
X437540Y-349240D01*
X433820Y-348240D01*
X430000Y-347900D01*
X426160Y-348240D01*
X422440Y-349240D01*
X418940Y-350860D01*
X415800Y-353080D01*
X413080Y-355800D01*
X410860Y-358940D01*
X409240Y-362440D01*
X408240Y-366160D01*
X407900Y-370000D01*
X408240Y-373820D01*
X409240Y-377540D01*
X410860Y-381040D01*
X413080Y-384180D01*
X415800Y-386900D01*
X418940Y-389120D01*
X422440Y-390740D01*
X426160Y-391740D01*
G37*
G36*
X1635800Y-385060D02*
G01*
X1643000Y-384500D01*
X1650080Y-383220D01*
X1657020Y-381200D01*
X1663700Y-378480D01*
X1670080Y-375080D01*
X1676060Y-371060D01*
X1681600Y-366440D01*
X1686639Y-361260D01*
X1691120Y-355600D01*
X1695000Y-349520D01*
X1698220Y-343060D01*
X1700760Y-336300D01*
X1702600Y-329320D01*
X1703720Y-322200D01*
X1704079Y-315000D01*
X1703720Y-307780D01*
X1702600Y-300660D01*
X1700760Y-293680D01*
X1698220Y-286920D01*
X1695000Y-280460D01*
X1691120Y-274380D01*
X1686639Y-268720D01*
X1681600Y-263540D01*
X1676060Y-258920D01*
X1670080Y-254899D01*
X1663700Y-251500D01*
X1657020Y-248780D01*
X1650080Y-246759D01*
X1643000Y-245479D01*
X1635800Y-244920D01*
X1628580Y-245100D01*
X1621420Y-246040D01*
X1614400Y-247680D01*
X1607580Y-250060D01*
X1601040Y-253120D01*
X1594860Y-256840D01*
X1589079Y-261160D01*
X1583800Y-266060D01*
X1579019Y-271480D01*
X1574840Y-277380D01*
X1571300Y-283660D01*
X1568400Y-290260D01*
X1566200Y-297140D01*
X1564740Y-304200D01*
X1563980Y-311380D01*
X1563980Y-318800D01*
X1563880Y-319940D01*
X1563340Y-321520D01*
X1562200Y-322740D01*
X1560640Y-323400D01*
X1558980Y-323360D01*
X1554379Y-322239D01*
X1550000Y-321900D01*
X1545600Y-322239D01*
X1541320Y-323280D01*
X1537240Y-324960D01*
X1533480Y-327260D01*
X1530120Y-330120D01*
X1527260Y-333480D01*
X1524960Y-337239D01*
X1523280Y-341320D01*
X1522240Y-345600D01*
X1521900Y-350000D01*
X1522240Y-354380D01*
X1523280Y-358660D01*
X1524960Y-362740D01*
X1527260Y-366500D01*
X1530120Y-369860D01*
X1533480Y-372720D01*
X1537240Y-375020D01*
X1541320Y-376700D01*
X1545600Y-377740D01*
X1550000Y-378080D01*
X1554379Y-377740D01*
X1558660Y-376700D01*
X1562740Y-375020D01*
X1566500Y-372720D01*
X1569860Y-369860D01*
X1572720Y-366500D01*
X1575040Y-362680D01*
X1575940Y-361360D01*
X1577300Y-360480D01*
X1578880Y-360220D01*
X1580460Y-360600D01*
X1581740Y-361580D01*
X1583800Y-363920D01*
X1589079Y-368820D01*
X1594860Y-373140D01*
X1601040Y-376860D01*
X1607580Y-379920D01*
X1614400Y-382299D01*
X1621420Y-383940D01*
X1628580Y-384880D01*
G37*
G36*
X150000Y-361580D02*
G01*
X155420Y-361220D01*
X160760Y-360160D01*
X165900Y-358420D01*
X170780Y-356019D01*
X175320Y-352980D01*
X179400Y-349400D01*
X182979Y-345319D01*
X186020Y-340780D01*
X188420Y-335900D01*
X190159Y-330760D01*
X191220Y-325420D01*
X191580Y-320000D01*
X191220Y-314560D01*
X190159Y-309220D01*
X188420Y-304080D01*
X186020Y-299200D01*
X182979Y-294680D01*
X179400Y-290580D01*
X175320Y-287000D01*
X170780Y-283980D01*
X165900Y-281560D01*
X160760Y-279820D01*
X155420Y-278760D01*
X150000Y-278400D01*
X144560Y-278760D01*
X139220Y-279820D01*
X134080Y-281560D01*
X129200Y-283980D01*
X124680Y-287000D01*
X120580Y-290580D01*
X117000Y-294680D01*
X113980Y-299200D01*
X111560Y-304080D01*
X109820Y-309220D01*
X108760Y-314560D01*
X108400Y-320000D01*
X108760Y-325420D01*
X109820Y-330760D01*
X111560Y-335900D01*
X113980Y-340780D01*
X117000Y-345319D01*
X120580Y-349400D01*
X124680Y-352980D01*
X129200Y-356019D01*
X134080Y-358420D01*
X139220Y-360160D01*
X144560Y-361220D01*
G37*
G36*
X350000Y-361580D02*
G01*
X355420Y-361220D01*
X360760Y-360160D01*
X365900Y-358420D01*
X370780Y-356019D01*
X375319Y-352980D01*
X379400Y-349400D01*
X382980Y-345319D01*
X386019Y-340780D01*
X388420Y-335900D01*
X390160Y-330760D01*
X391220Y-325420D01*
X391580Y-320000D01*
X391220Y-314560D01*
X390160Y-309220D01*
X388420Y-304080D01*
X386019Y-299200D01*
X382980Y-294680D01*
X379400Y-290580D01*
X376000Y-287600D01*
X374980Y-286240D01*
X374640Y-284560D01*
X375020Y-282900D01*
X376040Y-281560D01*
X377540Y-280740D01*
X381040Y-279120D01*
X384180Y-276900D01*
X386900Y-274180D01*
X389120Y-271040D01*
X390740Y-267540D01*
X391740Y-263820D01*
X392080Y-260000D01*
X391740Y-256160D01*
X390740Y-252440D01*
X389120Y-248939D01*
X386900Y-245799D01*
X384180Y-243080D01*
X381040Y-240859D01*
X377540Y-239240D01*
X373820Y-238240D01*
X370000Y-237900D01*
X366160Y-238240D01*
X362440Y-239240D01*
X358940Y-240859D01*
X355800Y-243080D01*
X353080Y-245799D01*
X350860Y-248939D01*
X349240Y-252440D01*
X348240Y-256160D01*
X347900Y-260000D01*
X348240Y-263820D01*
X349240Y-267540D01*
X350860Y-271040D01*
X351680Y-272200D01*
X352340Y-273740D01*
X352299Y-275420D01*
X351560Y-276940D01*
X350280Y-278020D01*
X348660Y-278480D01*
X344560Y-278760D01*
X339219Y-279820D01*
X334080Y-281560D01*
X329200Y-283980D01*
X324680Y-287000D01*
X320580Y-290580D01*
X317000Y-294680D01*
X313980Y-299200D01*
X311560Y-304080D01*
X309820Y-309220D01*
X308760Y-314560D01*
X308400Y-320000D01*
X308760Y-325420D01*
X309820Y-330760D01*
X311560Y-335900D01*
X313980Y-340780D01*
X317000Y-345319D01*
X320580Y-349400D01*
X324680Y-352980D01*
X329200Y-356019D01*
X334080Y-358420D01*
X339219Y-360160D01*
X344560Y-361220D01*
G37*
G36*
X250000Y-361580D02*
G01*
X255420Y-361220D01*
X260760Y-360160D01*
X265900Y-358420D01*
X270780Y-356019D01*
X275320Y-352980D01*
X279400Y-349400D01*
X282980Y-345319D01*
X286020Y-340780D01*
X288420Y-335900D01*
X290160Y-330760D01*
X291220Y-325420D01*
X291580Y-320000D01*
X291220Y-314560D01*
X290160Y-309220D01*
X288420Y-304080D01*
X286020Y-299200D01*
X282980Y-294680D01*
X279400Y-290580D01*
X275320Y-287000D01*
X270780Y-283980D01*
X265900Y-281560D01*
X262940Y-280560D01*
X261439Y-279640D01*
X260479Y-278180D01*
X260240Y-276460D01*
X260740Y-274780D01*
X261920Y-273500D01*
X264180Y-271900D01*
X266900Y-269180D01*
X269120Y-266040D01*
X270740Y-262540D01*
X271740Y-258820D01*
X272080Y-255000D01*
X271740Y-251160D01*
X270740Y-247440D01*
X269120Y-243939D01*
X266900Y-240799D01*
X264180Y-238080D01*
X261040Y-235859D01*
X257540Y-234240D01*
X253820Y-233240D01*
X250000Y-232900D01*
X246160Y-233240D01*
X242440Y-234240D01*
X238939Y-235859D01*
X235799Y-238080D01*
X233080Y-240799D01*
X230859Y-243939D01*
X229240Y-247440D01*
X228240Y-251160D01*
X227900Y-255000D01*
X228240Y-258820D01*
X229240Y-262540D01*
X230859Y-266040D01*
X233080Y-269180D01*
X235799Y-271900D01*
X238060Y-273500D01*
X239240Y-274780D01*
X239760Y-276460D01*
X239500Y-278180D01*
X238540Y-279640D01*
X237040Y-280560D01*
X234080Y-281560D01*
X229200Y-283980D01*
X224680Y-287000D01*
X220580Y-290580D01*
X217000Y-294680D01*
X213980Y-299200D01*
X211560Y-304080D01*
X209820Y-309220D01*
X208760Y-314560D01*
X208400Y-320000D01*
X208760Y-325420D01*
X209820Y-330760D01*
X211560Y-335900D01*
X213980Y-340780D01*
X217000Y-345319D01*
X220580Y-349400D01*
X224680Y-352980D01*
X229200Y-356019D01*
X234080Y-358420D01*
X239220Y-360160D01*
X244560Y-361220D01*
G37*
G36*
X520000Y-352080D02*
G01*
X523820Y-351740D01*
X527540Y-350740D01*
X531040Y-349120D01*
X534180Y-346900D01*
X536900Y-344180D01*
X539120Y-341040D01*
X540740Y-337540D01*
X541740Y-333820D01*
X542080Y-330000D01*
X541740Y-326160D01*
X540740Y-322440D01*
X539120Y-318940D01*
X536900Y-315800D01*
X534180Y-313080D01*
X531040Y-310860D01*
X527540Y-309240D01*
X523820Y-308240D01*
X520000Y-307900D01*
X516160Y-308240D01*
X512440Y-309240D01*
X508940Y-310860D01*
X505800Y-313080D01*
X503080Y-315800D01*
X500860Y-318940D01*
X499240Y-322440D01*
X498240Y-326160D01*
X497900Y-330000D01*
X498240Y-333820D01*
X499240Y-337540D01*
X500860Y-341040D01*
X503080Y-344180D01*
X505800Y-346900D01*
X508940Y-349120D01*
X512440Y-350740D01*
X516160Y-351740D01*
G37*
G36*
X515000Y-257079D02*
G01*
X518820Y-256740D01*
X522540Y-255740D01*
X526040Y-254120D01*
X529180Y-251900D01*
X531900Y-249180D01*
X534120Y-246040D01*
X535740Y-242540D01*
X536740Y-238820D01*
X537080Y-235000D01*
X536740Y-231160D01*
X535740Y-227440D01*
X534120Y-223939D01*
X531900Y-220799D01*
X529180Y-218080D01*
X526040Y-215859D01*
X522540Y-214240D01*
X521120Y-213860D01*
X519580Y-213060D01*
X518519Y-211680D01*
X518140Y-210000D01*
X518519Y-208299D01*
X519580Y-206920D01*
X521120Y-206119D01*
X522540Y-205740D01*
X526040Y-204120D01*
X529180Y-201900D01*
X531900Y-199180D01*
X534120Y-196040D01*
X535740Y-192540D01*
X536740Y-188820D01*
X537080Y-185000D01*
X536740Y-181160D01*
X535740Y-177440D01*
X534120Y-173939D01*
X531900Y-170799D01*
X529180Y-168080D01*
X526040Y-165859D01*
X522540Y-164240D01*
X518820Y-163240D01*
X515000Y-162900D01*
X511160Y-163240D01*
X507440Y-164240D01*
X503940Y-165859D01*
X500800Y-168080D01*
X498080Y-170799D01*
X495860Y-173939D01*
X494240Y-177440D01*
X493240Y-181160D01*
X492900Y-185000D01*
X493240Y-188820D01*
X494240Y-192540D01*
X495860Y-196040D01*
X498080Y-199180D01*
X500800Y-201900D01*
X503940Y-204120D01*
X507440Y-205740D01*
X508860Y-206119D01*
X510400Y-206920D01*
X511460Y-208299D01*
X511840Y-210000D01*
X511460Y-211680D01*
X510400Y-213060D01*
X508860Y-213860D01*
X507440Y-214240D01*
X503940Y-215859D01*
X500800Y-218080D01*
X498080Y-220799D01*
X495860Y-223939D01*
X494240Y-227440D01*
X493240Y-231160D01*
X492900Y-235000D01*
X493240Y-238820D01*
X494240Y-242540D01*
X495860Y-246040D01*
X498080Y-249180D01*
X500800Y-251900D01*
X503940Y-254120D01*
X507440Y-255740D01*
X511160Y-256740D01*
G37*
G36*
X1230000Y-247079D02*
G01*
X1233820Y-246740D01*
X1237540Y-245740D01*
X1241040Y-244120D01*
X1244180Y-241900D01*
X1246900Y-239180D01*
X1249120Y-236040D01*
X1250740Y-232540D01*
X1251740Y-228820D01*
X1252080Y-225000D01*
X1251740Y-221160D01*
X1250740Y-217440D01*
X1249120Y-213939D01*
X1246900Y-210799D01*
X1244180Y-208080D01*
X1241040Y-205859D01*
X1237540Y-204240D01*
X1233820Y-203240D01*
X1230000Y-202900D01*
X1226160Y-203240D01*
X1222440Y-204240D01*
X1218940Y-205859D01*
X1215800Y-208080D01*
X1213080Y-210799D01*
X1210860Y-213939D01*
X1209240Y-217440D01*
X1208240Y-221160D01*
X1207900Y-225000D01*
X1208240Y-228820D01*
X1209240Y-232540D01*
X1210860Y-236040D01*
X1213080Y-239180D01*
X1215800Y-241900D01*
X1218940Y-244120D01*
X1222440Y-245740D01*
X1226160Y-246740D01*
G37*
G36*
X1165000Y-232079D02*
G01*
X1168820Y-231740D01*
X1172540Y-230740D01*
X1176040Y-229120D01*
X1179180Y-226900D01*
X1181900Y-224180D01*
X1184120Y-221040D01*
X1185740Y-217540D01*
X1186740Y-213820D01*
X1187080Y-210000D01*
X1186740Y-206160D01*
X1185740Y-202440D01*
X1184120Y-198939D01*
X1181900Y-195799D01*
X1179180Y-193080D01*
X1176040Y-190859D01*
X1172540Y-189240D01*
X1168820Y-188240D01*
X1165000Y-187900D01*
X1161160Y-188240D01*
X1157440Y-189240D01*
X1153940Y-190859D01*
X1150800Y-193080D01*
X1148080Y-195799D01*
X1145860Y-198939D01*
X1144240Y-202440D01*
X1143240Y-206160D01*
X1142900Y-210000D01*
X1143240Y-213820D01*
X1144240Y-217540D01*
X1145860Y-221040D01*
X1148080Y-224180D01*
X1150800Y-226900D01*
X1153940Y-229120D01*
X1157440Y-230740D01*
X1161160Y-231740D01*
G37*
G36*
X700000Y-222079D02*
G01*
X703820Y-221740D01*
X707540Y-220740D01*
X711040Y-219120D01*
X714180Y-216900D01*
X716900Y-214180D01*
X719120Y-211040D01*
X720740Y-207540D01*
X721740Y-203820D01*
X722080Y-200000D01*
X721740Y-196160D01*
X720740Y-192440D01*
X719120Y-188939D01*
X716900Y-185799D01*
X714180Y-183080D01*
X711040Y-180859D01*
X707540Y-179240D01*
X703820Y-178240D01*
X700000Y-177900D01*
X696160Y-178240D01*
X692440Y-179240D01*
X688940Y-180859D01*
X685800Y-183080D01*
X683080Y-185799D01*
X680860Y-188939D01*
X679240Y-192440D01*
X678240Y-196160D01*
X677900Y-200000D01*
X678240Y-203820D01*
X679240Y-207540D01*
X680860Y-211040D01*
X683080Y-214180D01*
X685800Y-216900D01*
X688940Y-219120D01*
X692440Y-220740D01*
X696160Y-221740D01*
G37*
G36*
X2000000Y-222079D02*
G01*
X2003820Y-221740D01*
X2007540Y-220740D01*
X2011040Y-219120D01*
X2014180Y-216900D01*
X2016900Y-214180D01*
X2019120Y-211040D01*
X2020740Y-207540D01*
X2021740Y-203820D01*
X2022080Y-200000D01*
X2021740Y-196160D01*
X2020740Y-192440D01*
X2019120Y-188939D01*
X2016900Y-185799D01*
X2014180Y-183080D01*
X2011040Y-180859D01*
X2007540Y-179240D01*
X2003820Y-178240D01*
X2000000Y-177900D01*
X1996160Y-178240D01*
X1992440Y-179240D01*
X1988940Y-180859D01*
X1985800Y-183080D01*
X1983080Y-185799D01*
X1980860Y-188939D01*
X1979240Y-192440D01*
X1978240Y-196160D01*
X1977900Y-200000D01*
X1978240Y-203820D01*
X1979240Y-207540D01*
X1980860Y-211040D01*
X1983080Y-214180D01*
X1985800Y-216900D01*
X1988940Y-219120D01*
X1992440Y-220740D01*
X1996160Y-221740D01*
G37*
G36*
X100000Y-222079D02*
G01*
X103820Y-221740D01*
X107540Y-220740D01*
X111039Y-219120D01*
X114179Y-216900D01*
X116900Y-214180D01*
X119120Y-211040D01*
X120740Y-207540D01*
X121740Y-203820D01*
X122080Y-200000D01*
X121740Y-196160D01*
X120740Y-192440D01*
X119120Y-188939D01*
X116900Y-185799D01*
X114179Y-183080D01*
X111039Y-180859D01*
X107540Y-179240D01*
X103820Y-178240D01*
X100000Y-177900D01*
X96160Y-178240D01*
X92440Y-179240D01*
X88940Y-180859D01*
X85800Y-183080D01*
X83080Y-185799D01*
X80860Y-188939D01*
X79240Y-192440D01*
X78240Y-196160D01*
X77900Y-200000D01*
X78240Y-203820D01*
X79240Y-207540D01*
X80860Y-211040D01*
X83080Y-214180D01*
X85800Y-216900D01*
X88940Y-219120D01*
X92440Y-220740D01*
X96160Y-221740D01*
G37*

%LPD*%
D41*
G01*
X150000Y-700000D03*
G01*
X250000Y-700000D03*
G01*
X149998Y-319998D03*
G01*
X249998Y-319998D03*
G01*
X349998Y-319998D03*
G01*
X349998Y-419998D03*
G01*
X249998Y-419998D03*
G01*
X149998Y-419998D03*
G01*
X1769998Y-1149998D03*
G01*
X1869998Y-1149998D03*
G01*
X1769998Y-1249998D03*
G01*
X1869998Y-1249998D03*
G01*
X1769998Y-1349998D03*
G01*
X1869998Y-1349998D03*
G01*
X1769998Y-1449998D03*
G01*
X1869998Y-1449998D03*
G01*
X1769998Y-1549998D03*
G01*
X1869998Y-1549998D03*
G01*
X1769998Y-1649998D03*
G01*
X1869998Y-1649998D03*
G01*
X1769998Y-1749998D03*
G01*
X1869998Y-1749998D03*
G01*
X1769998Y-1849998D03*
G01*
X1869998Y-1849998D03*
G01*
X1769998Y-1949998D03*
G01*
X1869998Y-1949998D03*
D42*
G01*
X204998Y-1583377D03*
G01*
X204998Y-1504638D03*
D43*
G01*
X1216597Y-1919998D03*
G01*
X1413398Y-1919998D03*
D44*
G01*
X849998Y-1249998D03*
G01*
X749998Y-1149998D03*
G01*
X649998Y-1249998D03*
D16*
G01*
X491997Y-1810997D03*
G01*
X1633997Y-314998D03*
D17*
G01*
X1934998Y-714998D03*
G01*
X1349998Y-1502997D03*
G01*
X1200000Y-525000D03*
G01*
X1934998Y-374998D03*
G01*
X452588Y-1080587D03*
G01*
X407588Y-1160587D03*
G01*
X519998Y-329998D03*
G01*
X816997Y-669998D03*
G01*
X766997Y-669998D03*
G01*
X1399998Y-464998D03*
G01*
X1215000Y-610000D03*
D18*
G01*
X40999Y-730999D03*
D19*
G01*
X1549998Y-349998D03*
G01*
X1549998Y-399998D03*
G01*
X916997Y-789998D03*
G01*
X916997Y-674998D03*
D17*
G01*
X824998Y-1827757D03*
G01*
X754998Y-1897757D03*
G01*
X902588Y-2076597D03*
D18*
G01*
X1554118Y-630907D03*
G01*
X1694118Y-630907D03*
D17*
G01*
X1664118Y-675907D03*
G01*
X1114998Y-1657757D03*
D18*
G01*
X944998Y-1189998D03*
D17*
G01*
X641997Y-974998D03*
G01*
X741997Y-974998D03*
G01*
X1229998Y-1729998D03*
G01*
X1229998Y-224998D03*
G01*
X1200000Y-445000D03*
G01*
X1334998Y-459998D03*
D18*
G01*
X1554118Y-875907D03*
G01*
X1694118Y-875907D03*
D17*
G01*
X1664118Y-920907D03*
G01*
X1164998Y-209998D03*
G01*
X429998Y-369998D03*
G01*
X2000000Y-1900000D03*
G01*
X699998Y-579178D03*
G01*
X742018Y-579178D03*
G01*
X792018Y-579178D03*
G01*
X842018Y-569178D03*
G01*
X892018Y-569178D03*
G01*
X932018Y-569178D03*
G01*
X964998Y-532997D03*
G01*
X964998Y-482997D03*
G01*
X964998Y-434178D03*
G01*
X964998Y-384178D03*
G01*
X964998Y-334178D03*
G01*
X964998Y-284178D03*
G01*
X964998Y-233818D03*
G01*
X964998Y-184178D03*
G01*
X700000Y-200000D03*
G01*
X900000Y-500000D03*
G01*
X150000Y-1950000D03*
G01*
X1500000Y-1700000D03*
G01*
X2000000Y-1500000D03*
G01*
X2000000Y-1000000D03*
G01*
X2000000Y-200000D03*
G01*
X100000Y-200000D03*
G01*
X200000Y-1100000D03*
G01*
X500000Y-700000D03*
G01*
X1680000Y-1695000D03*
G01*
X1680000Y-1595000D03*
G01*
X1680000Y-1495000D03*
G01*
X1680000Y-1395000D03*
G01*
X1680000Y-1295000D03*
G01*
X1685000Y-1200000D03*
G01*
X1350000Y-1365000D03*
G01*
X1350000Y-1265000D03*
G01*
X1425000Y-1240000D03*
G01*
X1350000Y-1065000D03*
G01*
X1350000Y-965000D03*
G01*
X1350000Y-865000D03*
G01*
X1350000Y-755000D03*
G01*
X1200000Y-715000D03*
G01*
X1130000Y-745000D03*
G01*
X1085000Y-800000D03*
G01*
X515000Y-235000D03*
G01*
X515000Y-185000D03*
G01*
X250000Y-255000D03*
G01*
X370000Y-260000D03*
G01*
X900000Y-1500000D03*
G01*
X600000Y-1500000D03*
G01*
X960000Y-1660000D03*
G01*
X990000Y-1660000D03*
G01*
X960000Y-1690000D03*
G01*
X960000Y-1720000D03*
G01*
X990000Y-1690000D03*
G01*
X990000Y-1720000D03*
G01*
X790000Y-1782799D03*
G01*
X790000Y-1755000D03*
G01*
X790000Y-1810000D03*
G01*
X817000Y-1782999D03*
G01*
X1155000Y-1190000D03*
G01*
X1127000Y-1175999D03*
G01*
X1155000Y-1161999D03*
G01*
X1182999Y-1175999D03*
G01*
X1182999Y-1204000D03*
G01*
X1127000Y-1204000D03*
G01*
X1155000Y-1217999D03*
D45*
X1452797Y-2011727D02*
G01*
X1452797Y-2039290D01*
X1177198Y-2011716D02*
G01*
X1177198Y-2039279D01*
M02*
