M48
INCH,LZ
;FILE_FORMAT=2:4
;TYPE=PLATED
;Layer: Drill PTH
;EasyEDA v6.4.19.5, 2021-05-22T15:42:10+02:00
;f6fe8073f4d6445e90d350db08ac70cc,b771c775d4444e86a06a5321f8c966cb,10
;Gerber Generator version 0.2
;Holesize 1 = 0.0120 inch
T01C0.0120
;Holesize 2 = 0.0180 inch
T02C0.0180
;Holesize 3 = 0.0240 inch
T03C0.0240
;Holesize 4 = 0.0260 inch
T04C0.0260
;Holesize 5 = 0.0280 inch
T05C0.0280
;Holesize 6 = 0.0350 inch
T06C0.0350
;Holesize 7 = 0.0390 inch
T07C0.0390
;Holesize 8 = 0.1000 inch
T08C0.1000
%
G05
G90
T01
X019350Y-007150
X013500Y-015030
X012000Y-005250
X019350Y-003750
X004526Y-010806
X004076Y-011606
X005200Y-003300
X008170Y-006700
X007670Y-006700
X014000Y-004650
X012150Y-006100
X008250Y-018278
X007550Y-018978
X009026Y-020766
X016641Y-006759
X011150Y-016578
X006420Y-009750
X007420Y-009750
X012300Y-017300
X012300Y-002250
X012000Y-004450
X013350Y-004600
X016641Y-009209
X011650Y-002100
X004300Y-003700
X020000Y-019000
X007000Y-005792
X007420Y-005792
X007920Y-005792
X008420Y-005692
X008920Y-005692
X009320Y-005692
X009650Y-005330
X009650Y-004830
X009650Y-004342
X009650Y-003842
X009650Y-003342
X009650Y-002842
X009650Y-002338
X009650Y-001842
X007000Y-002000
X009000Y-005000
X001500Y-019500
X015000Y-017000
X020000Y-015000
X020000Y-010000
X020000Y-002000
X001000Y-002000
X002000Y-011000
X005000Y-007000
X016800Y-016950
X016800Y-015950
X016800Y-014950
X016800Y-013950
X016800Y-012950
X016850Y-012000
X013500Y-013650
X013500Y-012650
X014250Y-012400
X013500Y-010650
X013500Y-009650
X013500Y-008650
X013500Y-007550
X012000Y-007150
X011300Y-007450
X010850Y-008000
X005150Y-002350
X005150Y-001850
X002500Y-002550
X003700Y-002600
X009000Y-015000
X006000Y-015000
X009600Y-016600
X009900Y-016600
X009600Y-016900
X009600Y-017200
X009900Y-016900
X009900Y-017200
X007900Y-017828
X007900Y-017550
X007900Y-018100
X008170Y-017830
X011550Y-011900
X011270Y-011760
X011550Y-011620
X011830Y-011760
X011830Y-012040
X011270Y-012040
X011550Y-012180
T02
X015500Y-003500
X015500Y-004000
X009170Y-007900
X009170Y-006750
T03
X000410Y-007310
X015541Y-006309
X016941Y-006309
X009450Y-011900
X015541Y-008759
X016941Y-008759
T04
X008500Y-012500
X007500Y-011500
X006500Y-012500
T05
X014528Y-020393G85X014528Y-020117
X011772Y-020393G85X011772Y-020117
T06
X012166Y-019200
X014134Y-019200
T07
X001500Y-007000
X002500Y-007000
X001500Y-003200
X002500Y-003200
X003500Y-003200
X003500Y-004200
X002500Y-004200
X001500Y-004200
X017700Y-011500
X018700Y-011500
X017700Y-012500
X018700Y-012500
X017700Y-013500
X018700Y-013500
X017700Y-014500
X018700Y-014500
X017700Y-015500
X018700Y-015500
X017700Y-016500
X018700Y-016500
X017700Y-017500
X018700Y-017500
X017700Y-018500
X018700Y-018500
X017700Y-019500
X018700Y-019500
X002050Y-015834
X002050Y-015046
T08
X004920Y-018110
X016340Y-003150
M30
