G04 Layer: TopLayer*
G04 EasyEDA v6.4.19.5, 2021-05-22T15:42:10+02:00*
G04 f6fe8073f4d6445e90d350db08ac70cc,b771c775d4444e86a06a5321f8c966cb,10*
G04 Gerber Generator version 0.2*
G04 Scale: 100 percent, Rotated: No, Reflected: No *
G04 Dimensions in inches *
G04 leading zeros omitted , absolute positions ,3 integer and 6 decimal *
%FSLAX36Y36*%
%MOIN*%

%ADD10C,0.0100*%
%ADD11C,0.0800*%
%ADD12C,0.0250*%
%ADD13C,0.0200*%
%ADD14C,0.0300*%
%ADD15C,0.0500*%
%ADD16C,0.1200*%
%ADD17C,0.0240*%
%ADD18C,0.0480*%
%ADD19C,0.0360*%
%ADD20R,0.0315X0.0354*%
%ADD22R,0.0472X0.0709*%
%ADD23R,0.0236X0.0610*%
%ADD24R,0.0315X0.0197*%
%ADD25R,0.0866X0.0591*%
%ADD26R,0.0787X0.0709*%
%ADD27R,0.0394X0.0709*%
%ADD28R,0.0906X0.0295*%
%ADD31R,0.0315X0.0472*%
%ADD33R,0.0787X0.0315*%
%ADD34R,0.0315X0.0787*%
%ADD35R,0.0394X0.0217*%
%ADD36R,0.0217X0.0394*%
%ADD37R,0.0551X0.0394*%
%ADD38R,0.0315X0.0315*%
%ADD40R,0.0512X0.0472*%
%ADD41C,0.0630*%
%ADD42C,0.0630*%
%ADD43C,0.0532*%
%ADD44C,0.0591*%
%ADD45C,0.0472*%

%LPD*%
G36*
X325800Y-285820D02*
G01*
X324140Y-285740D01*
X322640Y-285000D01*
X321580Y-283720D01*
X321140Y-282100D01*
X321400Y-280440D01*
X322299Y-279040D01*
X376280Y-225080D01*
X377580Y-224200D01*
X379120Y-223900D01*
X528380Y-223900D01*
X530180Y-224320D01*
X535840Y-227160D01*
X536740Y-227760D01*
X537440Y-228600D01*
X539840Y-232280D01*
X540160Y-233820D01*
X539840Y-235340D01*
X538840Y-236780D01*
X537460Y-239000D01*
X536760Y-239820D01*
X535860Y-240440D01*
X530180Y-243280D01*
X528380Y-243700D01*
X411400Y-243700D01*
X408260Y-244000D01*
X405420Y-244860D01*
X402819Y-246260D01*
X400379Y-248260D01*
X373300Y-275340D01*
X372160Y-276140D01*
X370800Y-276500D01*
X347400Y-278460D01*
X344560Y-278760D01*
X339219Y-279820D01*
X334080Y-281560D01*
X329200Y-283980D01*
X327360Y-285200D01*
G37*

%LPD*%
G36*
X281080Y-290580D02*
G01*
X279580Y-290340D01*
X278260Y-289580D01*
X275320Y-287000D01*
X270780Y-283980D01*
X265900Y-281560D01*
X260760Y-279820D01*
X255420Y-278760D01*
X250000Y-278400D01*
X244560Y-278760D01*
X239220Y-279820D01*
X234080Y-281560D01*
X229200Y-283980D01*
X224680Y-287000D01*
X221740Y-289560D01*
X220420Y-290340D01*
X218920Y-290560D01*
X217440Y-290200D01*
X216220Y-289320D01*
X215380Y-288060D01*
X215100Y-286560D01*
X215100Y-257920D01*
X215400Y-256380D01*
X216280Y-255080D01*
X296280Y-175080D01*
X297580Y-174200D01*
X299120Y-173900D01*
X528380Y-173900D01*
X530180Y-174320D01*
X535840Y-177160D01*
X536740Y-177760D01*
X537440Y-178600D01*
X539840Y-182280D01*
X540160Y-183820D01*
X539840Y-185340D01*
X538840Y-186780D01*
X537460Y-189000D01*
X536760Y-189820D01*
X535860Y-190440D01*
X530180Y-193280D01*
X528380Y-193700D01*
X371400Y-193700D01*
X368260Y-194000D01*
X365420Y-194860D01*
X362819Y-196260D01*
X360379Y-198260D01*
X289460Y-269180D01*
X287460Y-271620D01*
X286060Y-274220D01*
X285200Y-277060D01*
X284900Y-280200D01*
X284900Y-286580D01*
X284620Y-288060D01*
X283780Y-289340D01*
X282560Y-290220D01*
G37*

%LPD*%
G36*
X1258520Y-320360D02*
G01*
X1256920Y-320100D01*
X1255560Y-319200D01*
X1184620Y-248260D01*
X1182180Y-246260D01*
X1179580Y-244860D01*
X1176740Y-244000D01*
X1173600Y-243700D01*
X1155620Y-243700D01*
X1153820Y-243280D01*
X1148120Y-240420D01*
X1147220Y-239820D01*
X1146520Y-238980D01*
X1144140Y-235340D01*
X1143840Y-233820D01*
X1144140Y-232280D01*
X1145160Y-230840D01*
X1146360Y-228920D01*
X1147480Y-227760D01*
X1148960Y-227140D01*
X1150560Y-227140D01*
X1152040Y-227780D01*
X1153940Y-229120D01*
X1157440Y-230740D01*
X1161160Y-231740D01*
X1165000Y-232079D01*
X1168820Y-231740D01*
X1172540Y-230740D01*
X1176040Y-229120D01*
X1179180Y-226900D01*
X1181900Y-224180D01*
X1184120Y-221040D01*
X1185740Y-217540D01*
X1186740Y-213820D01*
X1187080Y-210000D01*
X1186740Y-206160D01*
X1185740Y-202440D01*
X1184120Y-198939D01*
X1181900Y-195799D01*
X1179180Y-193080D01*
X1176040Y-190859D01*
X1172540Y-189240D01*
X1168820Y-188240D01*
X1165000Y-187900D01*
X1161160Y-188240D01*
X1157440Y-189240D01*
X1152540Y-191540D01*
X1151120Y-191640D01*
X1149760Y-191240D01*
X1148140Y-190440D01*
X1147240Y-189820D01*
X1146540Y-189000D01*
X1144140Y-185340D01*
X1143840Y-183800D01*
X1144140Y-182280D01*
X1146560Y-178580D01*
X1147260Y-177740D01*
X1148160Y-177140D01*
X1153780Y-174320D01*
X1155580Y-173900D01*
X1260360Y-173900D01*
X1262000Y-174259D01*
X1263360Y-175260D01*
X1264180Y-176740D01*
X1264320Y-178440D01*
X1263740Y-180020D01*
X1263220Y-180859D01*
X1262480Y-182979D01*
X1262200Y-185460D01*
X1262200Y-214540D01*
X1262480Y-217000D01*
X1263220Y-219120D01*
X1264420Y-221040D01*
X1265540Y-222160D01*
X1266420Y-223460D01*
X1266720Y-225000D01*
X1266420Y-226520D01*
X1265540Y-227820D01*
X1264420Y-228939D01*
X1263220Y-230859D01*
X1262480Y-232979D01*
X1262200Y-235460D01*
X1262200Y-264540D01*
X1262480Y-267000D01*
X1263220Y-269120D01*
X1264420Y-271040D01*
X1265540Y-272160D01*
X1266420Y-273460D01*
X1266720Y-275000D01*
X1266420Y-276520D01*
X1265540Y-277820D01*
X1264420Y-278940D01*
X1263220Y-280860D01*
X1262480Y-282980D01*
X1262200Y-285460D01*
X1262200Y-314540D01*
X1262360Y-315920D01*
X1262200Y-317540D01*
X1261420Y-318980D01*
X1260120Y-319980D01*
G37*

%LPD*%
G36*
X1172220Y-460700D02*
G01*
X1170680Y-460400D01*
X1169380Y-459520D01*
X1158120Y-448260D01*
X1155680Y-446260D01*
X1153080Y-444860D01*
X1151080Y-444020D01*
X1148140Y-441820D01*
X1147300Y-440959D01*
X1146740Y-439900D01*
X1146340Y-438680D01*
X1144140Y-435340D01*
X1143840Y-433820D01*
X1144140Y-432280D01*
X1146560Y-428579D01*
X1147260Y-427740D01*
X1148160Y-427140D01*
X1153780Y-424320D01*
X1155580Y-423900D01*
X1195880Y-423900D01*
X1197420Y-424200D01*
X1198720Y-425080D01*
X1227520Y-453880D01*
X1228380Y-455160D01*
X1228680Y-456700D01*
X1228380Y-458240D01*
X1227520Y-459520D01*
X1226220Y-460400D01*
X1224680Y-460700D01*
G37*

%LPD*%
G36*
X1342920Y-489900D02*
G01*
X1341380Y-489600D01*
X1340080Y-488720D01*
X1283040Y-431680D01*
X1282180Y-430379D01*
X1281860Y-428860D01*
X1282180Y-427320D01*
X1283040Y-426019D01*
X1284340Y-425160D01*
X1285860Y-424860D01*
X1362620Y-424860D01*
X1365100Y-424580D01*
X1367220Y-423840D01*
X1369139Y-422640D01*
X1370720Y-421040D01*
X1371920Y-419120D01*
X1372680Y-417000D01*
X1372940Y-414540D01*
X1372940Y-385460D01*
X1372680Y-382980D01*
X1371920Y-380860D01*
X1370720Y-378940D01*
X1369600Y-377819D01*
X1368740Y-376520D01*
X1368420Y-375000D01*
X1368740Y-373459D01*
X1369600Y-372160D01*
X1370720Y-371040D01*
X1371920Y-369120D01*
X1372680Y-367000D01*
X1372940Y-364540D01*
X1372940Y-335460D01*
X1372680Y-332980D01*
X1371920Y-330860D01*
X1370720Y-328940D01*
X1369600Y-327819D01*
X1368740Y-326520D01*
X1368420Y-325000D01*
X1368740Y-323459D01*
X1369600Y-322160D01*
X1370720Y-321040D01*
X1371920Y-319120D01*
X1372680Y-317000D01*
X1372940Y-314540D01*
X1372940Y-285460D01*
X1372680Y-282980D01*
X1371920Y-280860D01*
X1370720Y-278940D01*
X1369600Y-277820D01*
X1368740Y-276520D01*
X1368420Y-275000D01*
X1368740Y-273460D01*
X1369600Y-272160D01*
X1370720Y-271040D01*
X1371920Y-269120D01*
X1372680Y-267000D01*
X1372940Y-264540D01*
X1372940Y-243960D01*
X1373260Y-242420D01*
X1374120Y-241140D01*
X1375420Y-240260D01*
X1376940Y-239960D01*
X1378480Y-240260D01*
X1379780Y-241140D01*
X1383720Y-245080D01*
X1384600Y-246380D01*
X1384900Y-247920D01*
X1384900Y-445439D01*
X1384520Y-447160D01*
X1382320Y-451780D01*
X1380860Y-453940D01*
X1379240Y-457440D01*
X1378240Y-461160D01*
X1377900Y-465000D01*
X1378240Y-468820D01*
X1379240Y-472540D01*
X1380860Y-476040D01*
X1383080Y-479180D01*
X1385800Y-481900D01*
X1386819Y-482620D01*
X1387960Y-483840D01*
X1388500Y-485439D01*
X1388340Y-487100D01*
X1387500Y-488560D01*
X1386160Y-489540D01*
X1384520Y-489900D01*
G37*

%LPD*%
G36*
X669640Y-588920D02*
G01*
X667940Y-588780D01*
X666460Y-587960D01*
X665460Y-586600D01*
X665100Y-584960D01*
X665100Y-540200D01*
X664800Y-537060D01*
X663940Y-534220D01*
X662540Y-531620D01*
X660540Y-529180D01*
X647960Y-516540D01*
X636340Y-500700D01*
X635760Y-499580D01*
X635560Y-498340D01*
X635560Y-493280D01*
X635280Y-490820D01*
X634540Y-488700D01*
X632320Y-485340D01*
X632020Y-483820D01*
X632320Y-482280D01*
X634540Y-478940D01*
X635280Y-476800D01*
X635560Y-474340D01*
X635560Y-443280D01*
X635280Y-440820D01*
X634540Y-438700D01*
X632320Y-435340D01*
X632020Y-433820D01*
X632320Y-432280D01*
X634540Y-428940D01*
X635280Y-426800D01*
X635560Y-424340D01*
X635560Y-393280D01*
X635280Y-390820D01*
X634540Y-388700D01*
X632320Y-385340D01*
X632020Y-383820D01*
X632320Y-382280D01*
X634540Y-378940D01*
X635280Y-376800D01*
X635560Y-374340D01*
X635560Y-369180D01*
X608280Y-369180D01*
X608280Y-378960D01*
X607960Y-380500D01*
X607100Y-381800D01*
X605800Y-382660D01*
X604280Y-382960D01*
X567900Y-382960D01*
X566380Y-382660D01*
X565080Y-381800D01*
X564200Y-380500D01*
X563900Y-378960D01*
X563900Y-369180D01*
X536620Y-369180D01*
X536620Y-374340D01*
X536900Y-376800D01*
X537640Y-378940D01*
X539840Y-382280D01*
X540160Y-383820D01*
X539840Y-385340D01*
X537440Y-389000D01*
X536740Y-389840D01*
X535840Y-390460D01*
X530200Y-393280D01*
X528400Y-393700D01*
X476719Y-393700D01*
X475180Y-393400D01*
X473880Y-392520D01*
X454480Y-373120D01*
X453519Y-371620D01*
X451960Y-367200D01*
X450740Y-362440D01*
X449120Y-358940D01*
X446900Y-355800D01*
X444180Y-353080D01*
X441040Y-350860D01*
X437540Y-349240D01*
X433820Y-348240D01*
X430000Y-347900D01*
X426160Y-348240D01*
X422440Y-349240D01*
X418940Y-350860D01*
X415800Y-353080D01*
X413080Y-355800D01*
X410860Y-358940D01*
X409240Y-362440D01*
X408240Y-366160D01*
X407900Y-370000D01*
X408240Y-373820D01*
X409240Y-377540D01*
X410860Y-381040D01*
X413080Y-384180D01*
X415800Y-386900D01*
X418940Y-389120D01*
X422440Y-390740D01*
X427200Y-391960D01*
X431620Y-393519D01*
X433120Y-394480D01*
X457980Y-419340D01*
X460420Y-421340D01*
X463020Y-422740D01*
X465860Y-423600D01*
X469000Y-423900D01*
X528360Y-423900D01*
X530160Y-424320D01*
X535840Y-427160D01*
X536740Y-427780D01*
X537440Y-428620D01*
X539840Y-432280D01*
X540160Y-433820D01*
X539840Y-435340D01*
X538840Y-436780D01*
X537460Y-439000D01*
X536760Y-439820D01*
X535860Y-440439D01*
X530180Y-443280D01*
X528380Y-443700D01*
X397400Y-443700D01*
X395940Y-443420D01*
X394700Y-442640D01*
X393820Y-441460D01*
X393420Y-440040D01*
X391240Y-414620D01*
X390160Y-409219D01*
X388420Y-404080D01*
X386019Y-399200D01*
X382980Y-394680D01*
X379400Y-390580D01*
X375319Y-387000D01*
X370780Y-383980D01*
X365900Y-381560D01*
X360760Y-379820D01*
X355420Y-378760D01*
X350000Y-378400D01*
X344560Y-378760D01*
X339219Y-379820D01*
X334080Y-381560D01*
X329200Y-383980D01*
X324680Y-387000D01*
X320580Y-390580D01*
X317000Y-394680D01*
X313980Y-399200D01*
X311560Y-404080D01*
X309820Y-409219D01*
X308760Y-414560D01*
X308400Y-420000D01*
X308760Y-425420D01*
X309820Y-430760D01*
X311560Y-435900D01*
X313980Y-440780D01*
X317000Y-445319D01*
X320580Y-449400D01*
X324680Y-452980D01*
X329200Y-456019D01*
X334080Y-458420D01*
X339219Y-460160D01*
X344560Y-461220D01*
X347420Y-461520D01*
X370780Y-463480D01*
X372140Y-463840D01*
X373280Y-464640D01*
X377980Y-469340D01*
X380420Y-471340D01*
X383020Y-472740D01*
X385860Y-473600D01*
X389000Y-473900D01*
X528380Y-473900D01*
X530180Y-474320D01*
X535840Y-477160D01*
X536740Y-477760D01*
X537440Y-478600D01*
X539840Y-482280D01*
X540160Y-483820D01*
X539840Y-485340D01*
X537640Y-488700D01*
X536900Y-490820D01*
X536620Y-493280D01*
X536620Y-524340D01*
X536900Y-526800D01*
X537560Y-528700D01*
X537780Y-530140D01*
X537480Y-531540D01*
X536700Y-532760D01*
X535520Y-533620D01*
X534120Y-534000D01*
X508500Y-536200D01*
X179820Y-536200D01*
X178280Y-535900D01*
X176980Y-535020D01*
X72600Y-430640D01*
X69600Y-428100D01*
X67280Y-426640D01*
X65220Y-425740D01*
X63980Y-424880D01*
X62000Y-422860D01*
X60119Y-421659D01*
X57980Y-420920D01*
X55519Y-420640D01*
X24460Y-420640D01*
X22000Y-420920D01*
X19880Y-421659D01*
X17960Y-422860D01*
X16920Y-423900D01*
X15620Y-424780D01*
X14100Y-425080D01*
X12560Y-424780D01*
X11259Y-423900D01*
X10400Y-422620D01*
X10100Y-421079D01*
X10100Y-281080D01*
X10480Y-266720D01*
X11600Y-252580D01*
X13460Y-238520D01*
X16040Y-224560D01*
X19360Y-210780D01*
X23400Y-197180D01*
X28140Y-183820D01*
X33560Y-170720D01*
X39680Y-157920D01*
X44960Y-148180D01*
X45860Y-147080D01*
X47080Y-146340D01*
X48480Y-146100D01*
X272900Y-146100D01*
X274420Y-146400D01*
X275720Y-147260D01*
X276600Y-148560D01*
X276900Y-150100D01*
X276600Y-151620D01*
X275720Y-152920D01*
X189460Y-239180D01*
X187460Y-241620D01*
X186060Y-244220D01*
X185200Y-247060D01*
X184899Y-250200D01*
X184899Y-286580D01*
X184620Y-288060D01*
X183780Y-289340D01*
X182560Y-290220D01*
X181080Y-290580D01*
X179579Y-290340D01*
X178260Y-289580D01*
X175320Y-287000D01*
X170780Y-283980D01*
X165900Y-281560D01*
X160760Y-279820D01*
X155420Y-278760D01*
X150000Y-278400D01*
X144560Y-278760D01*
X139220Y-279820D01*
X134080Y-281560D01*
X129200Y-283980D01*
X124680Y-287000D01*
X120580Y-290580D01*
X117000Y-294680D01*
X113980Y-299200D01*
X111560Y-304080D01*
X109820Y-309220D01*
X108760Y-314560D01*
X108400Y-320000D01*
X108760Y-325420D01*
X109820Y-330760D01*
X111560Y-335900D01*
X113980Y-340780D01*
X117000Y-345319D01*
X120580Y-349400D01*
X124680Y-352980D01*
X129200Y-356019D01*
X134080Y-358420D01*
X139220Y-360160D01*
X144560Y-361220D01*
X150000Y-361580D01*
X155420Y-361220D01*
X160760Y-360160D01*
X165900Y-358420D01*
X170780Y-356019D01*
X175320Y-352980D01*
X178260Y-350400D01*
X179579Y-349640D01*
X181080Y-349420D01*
X182560Y-349760D01*
X183780Y-350640D01*
X184620Y-351920D01*
X184899Y-353400D01*
X184899Y-362080D01*
X184600Y-363620D01*
X183720Y-364920D01*
X173299Y-375340D01*
X172160Y-376140D01*
X170799Y-376500D01*
X147400Y-378459D01*
X144560Y-378760D01*
X139220Y-379820D01*
X134080Y-381560D01*
X129200Y-383980D01*
X124680Y-387000D01*
X120580Y-390580D01*
X117000Y-394680D01*
X113980Y-399200D01*
X111560Y-404080D01*
X109820Y-409219D01*
X108760Y-414560D01*
X108400Y-420000D01*
X108760Y-425420D01*
X109820Y-430760D01*
X111560Y-435900D01*
X113980Y-440780D01*
X117000Y-445319D01*
X120580Y-449400D01*
X124680Y-452980D01*
X129200Y-456019D01*
X134080Y-458420D01*
X139220Y-460160D01*
X144560Y-461220D01*
X150000Y-461580D01*
X155420Y-461220D01*
X160760Y-460160D01*
X165900Y-458420D01*
X170780Y-456019D01*
X175320Y-452980D01*
X179400Y-449400D01*
X182979Y-445319D01*
X186020Y-440780D01*
X188420Y-435900D01*
X190159Y-430760D01*
X191240Y-425360D01*
X193480Y-399200D01*
X193840Y-397860D01*
X194640Y-396719D01*
X210539Y-380820D01*
X212540Y-378380D01*
X213939Y-375780D01*
X214800Y-372939D01*
X215100Y-369799D01*
X215100Y-353420D01*
X215380Y-351940D01*
X216220Y-350660D01*
X217440Y-349780D01*
X218920Y-349420D01*
X220420Y-349640D01*
X221740Y-350420D01*
X224680Y-352980D01*
X229200Y-356019D01*
X234080Y-358420D01*
X239220Y-360160D01*
X244560Y-361220D01*
X250000Y-361580D01*
X255420Y-361220D01*
X260760Y-360160D01*
X265900Y-358420D01*
X270780Y-356019D01*
X275320Y-352980D01*
X278260Y-350400D01*
X279580Y-349640D01*
X281080Y-349420D01*
X282560Y-349760D01*
X283780Y-350640D01*
X284620Y-351920D01*
X284900Y-353400D01*
X284900Y-362080D01*
X284600Y-363620D01*
X283720Y-364920D01*
X273300Y-375340D01*
X272160Y-376140D01*
X270800Y-376500D01*
X247399Y-378459D01*
X244560Y-378760D01*
X239220Y-379820D01*
X234080Y-381560D01*
X229200Y-383980D01*
X224680Y-387000D01*
X220580Y-390580D01*
X217000Y-394680D01*
X213980Y-399200D01*
X211560Y-404080D01*
X209820Y-409219D01*
X208760Y-414560D01*
X208400Y-420000D01*
X208760Y-425420D01*
X209820Y-430760D01*
X211560Y-435900D01*
X213980Y-440780D01*
X217000Y-445319D01*
X220580Y-449400D01*
X224680Y-452980D01*
X229200Y-456019D01*
X234080Y-458420D01*
X239220Y-460160D01*
X244560Y-461220D01*
X250000Y-461580D01*
X255420Y-461220D01*
X260760Y-460160D01*
X265900Y-458420D01*
X270780Y-456019D01*
X275320Y-452980D01*
X279400Y-449400D01*
X282980Y-445319D01*
X286020Y-440780D01*
X288420Y-435900D01*
X290160Y-430760D01*
X291240Y-425360D01*
X293480Y-399200D01*
X293840Y-397860D01*
X294640Y-396719D01*
X310540Y-380820D01*
X312540Y-378380D01*
X313940Y-375780D01*
X314800Y-372939D01*
X315100Y-369799D01*
X315100Y-353420D01*
X315380Y-351940D01*
X316220Y-350660D01*
X317440Y-349780D01*
X318920Y-349420D01*
X320420Y-349640D01*
X321740Y-350420D01*
X324680Y-352980D01*
X329200Y-356019D01*
X334080Y-358420D01*
X339219Y-360160D01*
X344560Y-361220D01*
X350000Y-361580D01*
X355420Y-361220D01*
X360760Y-360160D01*
X365900Y-358420D01*
X370780Y-356019D01*
X375319Y-352980D01*
X379400Y-349400D01*
X382980Y-345319D01*
X386019Y-340780D01*
X388420Y-335900D01*
X390160Y-330760D01*
X391240Y-325360D01*
X393480Y-299200D01*
X393840Y-297860D01*
X394640Y-296720D01*
X416280Y-275080D01*
X417580Y-274200D01*
X419120Y-273900D01*
X528380Y-273900D01*
X530180Y-274320D01*
X535840Y-277160D01*
X536740Y-277760D01*
X537440Y-278600D01*
X539840Y-282280D01*
X540160Y-283820D01*
X539840Y-285340D01*
X537640Y-288700D01*
X536900Y-290820D01*
X536520Y-292860D01*
X535620Y-294320D01*
X534280Y-295480D01*
X532820Y-296260D01*
X530380Y-298260D01*
X523140Y-305500D01*
X521659Y-306440D01*
X517200Y-308020D01*
X512440Y-309240D01*
X508940Y-310860D01*
X505800Y-313080D01*
X503080Y-315800D01*
X500860Y-318940D01*
X499240Y-322440D01*
X498240Y-326160D01*
X497900Y-330000D01*
X498240Y-333820D01*
X499240Y-337540D01*
X500860Y-341040D01*
X503080Y-344180D01*
X505800Y-346900D01*
X508940Y-349120D01*
X512440Y-350740D01*
X516160Y-351740D01*
X520000Y-352080D01*
X523820Y-351740D01*
X527540Y-350740D01*
X532100Y-348620D01*
X533260Y-348440D01*
X563900Y-348440D01*
X563900Y-338660D01*
X564200Y-337140D01*
X565080Y-335840D01*
X566380Y-334960D01*
X567900Y-334660D01*
X604280Y-334660D01*
X605800Y-334960D01*
X607100Y-335840D01*
X607960Y-337140D01*
X608280Y-338660D01*
X608280Y-348440D01*
X635560Y-348440D01*
X635560Y-343280D01*
X635280Y-340820D01*
X634540Y-338700D01*
X632320Y-335340D01*
X632020Y-333820D01*
X632320Y-332280D01*
X634540Y-328940D01*
X635280Y-326800D01*
X635560Y-324340D01*
X635560Y-293280D01*
X635280Y-290820D01*
X634540Y-288700D01*
X632320Y-285340D01*
X632020Y-283820D01*
X632320Y-282280D01*
X634540Y-278940D01*
X635280Y-276800D01*
X635560Y-274340D01*
X635560Y-243280D01*
X635280Y-240820D01*
X634540Y-238700D01*
X632320Y-235340D01*
X632020Y-233820D01*
X632320Y-232280D01*
X634540Y-228939D01*
X635280Y-226800D01*
X635560Y-224340D01*
X635560Y-193280D01*
X635280Y-190820D01*
X634540Y-188700D01*
X632320Y-185340D01*
X632020Y-183820D01*
X632320Y-182280D01*
X634540Y-178939D01*
X635280Y-176800D01*
X635560Y-174340D01*
X635560Y-150100D01*
X635860Y-148560D01*
X636720Y-147260D01*
X638020Y-146400D01*
X639560Y-146100D01*
X1044419Y-146100D01*
X1045960Y-146400D01*
X1047260Y-147260D01*
X1048120Y-148560D01*
X1048420Y-150100D01*
X1048420Y-164100D01*
X1048120Y-165660D01*
X1047220Y-166980D01*
X1045860Y-167840D01*
X1044300Y-168100D01*
X1042760Y-167740D01*
X1041460Y-166800D01*
X1040660Y-165420D01*
X1040040Y-163680D01*
X1038840Y-161780D01*
X1037240Y-160180D01*
X1035340Y-158980D01*
X1033199Y-158240D01*
X1030740Y-157960D01*
X983960Y-157960D01*
X981480Y-158240D01*
X979360Y-158980D01*
X977440Y-160180D01*
X975540Y-162100D01*
X974419Y-162880D01*
X973100Y-163260D01*
X971720Y-163140D01*
X968860Y-162420D01*
X965000Y-162079D01*
X961160Y-162420D01*
X957440Y-163420D01*
X953940Y-165040D01*
X950800Y-167260D01*
X948080Y-169980D01*
X945860Y-173120D01*
X944240Y-176620D01*
X943240Y-180340D01*
X942900Y-184180D01*
X943240Y-188000D01*
X944240Y-191720D01*
X945860Y-195219D01*
X948080Y-198359D01*
X950800Y-201080D01*
X953940Y-203299D01*
X957440Y-204920D01*
X958199Y-205120D01*
X959740Y-205920D01*
X960780Y-207300D01*
X961160Y-209000D01*
X960780Y-210680D01*
X959740Y-212060D01*
X958199Y-212860D01*
X957440Y-213060D01*
X953940Y-214680D01*
X950800Y-216900D01*
X948080Y-219620D01*
X945860Y-222760D01*
X944240Y-226260D01*
X943240Y-229980D01*
X942900Y-233820D01*
X943240Y-237640D01*
X944240Y-241360D01*
X945860Y-244860D01*
X948080Y-248000D01*
X950800Y-250720D01*
X953940Y-252940D01*
X957440Y-254560D01*
X959539Y-255120D01*
X961080Y-255920D01*
X962120Y-257300D01*
X962500Y-259000D01*
X962120Y-260680D01*
X961080Y-262060D01*
X959539Y-262860D01*
X957440Y-263420D01*
X953940Y-265040D01*
X950800Y-267260D01*
X948080Y-269980D01*
X945860Y-273120D01*
X944240Y-276620D01*
X943240Y-280340D01*
X942900Y-284180D01*
X943240Y-288000D01*
X944240Y-291720D01*
X945860Y-295220D01*
X948080Y-298360D01*
X950800Y-301080D01*
X953940Y-303300D01*
X957440Y-304920D01*
X958860Y-305300D01*
X960400Y-306100D01*
X961460Y-307480D01*
X961840Y-309180D01*
X961460Y-310860D01*
X960400Y-312240D01*
X958860Y-313040D01*
X957440Y-313420D01*
X953940Y-315040D01*
X950800Y-317260D01*
X948080Y-319980D01*
X945860Y-323120D01*
X944240Y-326620D01*
X943240Y-330340D01*
X942900Y-334180D01*
X943240Y-338000D01*
X944240Y-341719D01*
X945860Y-345220D01*
X948080Y-348360D01*
X950800Y-351079D01*
X953940Y-353300D01*
X957440Y-354920D01*
X958860Y-355300D01*
X960400Y-356100D01*
X961460Y-357480D01*
X961840Y-359180D01*
X961460Y-360860D01*
X960400Y-362239D01*
X958860Y-363040D01*
X957440Y-363420D01*
X953940Y-365040D01*
X950800Y-367260D01*
X948080Y-369980D01*
X945860Y-373120D01*
X944240Y-376620D01*
X943240Y-380340D01*
X942900Y-384180D01*
X943240Y-388000D01*
X944240Y-391719D01*
X945860Y-395220D01*
X948080Y-398360D01*
X950800Y-401079D01*
X953940Y-403300D01*
X957440Y-404920D01*
X958860Y-405300D01*
X960400Y-406100D01*
X961460Y-407480D01*
X961840Y-409180D01*
X961460Y-410860D01*
X960400Y-412239D01*
X958860Y-413040D01*
X957440Y-413420D01*
X953940Y-415040D01*
X950800Y-417260D01*
X948080Y-419980D01*
X945860Y-423120D01*
X944240Y-426620D01*
X943240Y-430340D01*
X942900Y-434180D01*
X943240Y-438000D01*
X944240Y-441719D01*
X945860Y-445220D01*
X948080Y-448360D01*
X950800Y-451079D01*
X953940Y-453300D01*
X957500Y-454960D01*
X958720Y-455840D01*
X959539Y-457100D01*
X959820Y-458579D01*
X959539Y-460060D01*
X958720Y-461320D01*
X957500Y-462200D01*
X953940Y-463860D01*
X950800Y-466079D01*
X948080Y-468800D01*
X945860Y-471940D01*
X944240Y-475439D01*
X943240Y-479159D01*
X942900Y-483000D01*
X943240Y-486820D01*
X944240Y-490540D01*
X945860Y-494040D01*
X948080Y-497180D01*
X950800Y-499900D01*
X953940Y-502120D01*
X957440Y-503740D01*
X958860Y-504120D01*
X960400Y-504920D01*
X961460Y-506300D01*
X961840Y-508000D01*
X961460Y-509680D01*
X960400Y-511060D01*
X958860Y-511860D01*
X957440Y-512239D01*
X953940Y-513860D01*
X950800Y-516079D01*
X948080Y-518800D01*
X945860Y-521940D01*
X944240Y-525440D01*
X943240Y-529160D01*
X942900Y-533000D01*
X943240Y-536820D01*
X944240Y-540540D01*
X945580Y-543420D01*
X945960Y-545000D01*
X945680Y-546600D01*
X944780Y-547940D01*
X943439Y-548840D01*
X941840Y-549120D01*
X940260Y-548740D01*
X939560Y-548420D01*
X935840Y-547420D01*
X932020Y-547080D01*
X928180Y-547420D01*
X924460Y-548420D01*
X920960Y-550040D01*
X917820Y-552260D01*
X914820Y-555220D01*
X913520Y-556100D01*
X912000Y-556400D01*
X910480Y-556080D01*
X909180Y-555220D01*
X906200Y-552260D01*
X903060Y-550040D01*
X899560Y-548420D01*
X895840Y-547420D01*
X892020Y-547080D01*
X888180Y-547420D01*
X884460Y-548420D01*
X880960Y-550040D01*
X877820Y-552260D01*
X875100Y-554980D01*
X872880Y-558120D01*
X871260Y-561620D01*
X870879Y-563040D01*
X870080Y-564580D01*
X868700Y-565640D01*
X867020Y-566020D01*
X865320Y-565640D01*
X863940Y-564580D01*
X863139Y-563040D01*
X862760Y-561620D01*
X861140Y-558120D01*
X858920Y-554980D01*
X856200Y-552260D01*
X853060Y-550040D01*
X849560Y-548420D01*
X845840Y-547420D01*
X842020Y-547080D01*
X838180Y-547420D01*
X834460Y-548420D01*
X830960Y-550040D01*
X827820Y-552260D01*
X825100Y-554980D01*
X822880Y-558120D01*
X821260Y-561620D01*
X820260Y-565340D01*
X819920Y-569300D01*
X819400Y-570940D01*
X818220Y-572220D01*
X816620Y-572880D01*
X814900Y-572800D01*
X813360Y-572000D01*
X812300Y-570640D01*
X811140Y-568120D01*
X808920Y-564980D01*
X806200Y-562260D01*
X803060Y-560040D01*
X799560Y-558420D01*
X795840Y-557420D01*
X792020Y-557080D01*
X788180Y-557420D01*
X784460Y-558420D01*
X780960Y-560040D01*
X777820Y-562260D01*
X775100Y-564980D01*
X772880Y-568120D01*
X771260Y-571620D01*
X770879Y-573040D01*
X770080Y-574580D01*
X768700Y-575640D01*
X767020Y-576020D01*
X765320Y-575640D01*
X763940Y-574580D01*
X763139Y-573040D01*
X762760Y-571620D01*
X761140Y-568120D01*
X758920Y-564980D01*
X756200Y-562260D01*
X753060Y-560040D01*
X749560Y-558420D01*
X745840Y-557420D01*
X742020Y-557080D01*
X738180Y-557420D01*
X734460Y-558420D01*
X730960Y-560040D01*
X727820Y-562260D01*
X725100Y-564980D01*
X724280Y-566140D01*
X723180Y-567200D01*
X721760Y-567780D01*
X720240Y-567780D01*
X718820Y-567200D01*
X717720Y-566140D01*
X716900Y-564980D01*
X714180Y-562260D01*
X711040Y-560040D01*
X707540Y-558420D01*
X703820Y-557420D01*
X700000Y-557080D01*
X696160Y-557420D01*
X692440Y-558420D01*
X688940Y-560040D01*
X685800Y-562260D01*
X683080Y-564980D01*
X680860Y-568120D01*
X679240Y-571620D01*
X678240Y-575340D01*
X677900Y-579180D01*
X678020Y-580620D01*
X677880Y-582080D01*
X677220Y-583380D01*
X675100Y-586140D01*
X674240Y-586960D01*
X673180Y-587500D01*
X671860Y-587940D01*
X671220Y-588340D01*
G37*

%LPD*%
G36*
X910120Y-762580D02*
G01*
X908760Y-762140D01*
X907620Y-761260D01*
X906880Y-760020D01*
X906620Y-758600D01*
X906620Y-733360D01*
X896840Y-733360D01*
X895320Y-733060D01*
X894020Y-732180D01*
X893160Y-730879D01*
X892840Y-729360D01*
X892840Y-692980D01*
X893160Y-691460D01*
X894020Y-690160D01*
X895320Y-689300D01*
X896840Y-688980D01*
X906620Y-688980D01*
X906620Y-658020D01*
X906960Y-656400D01*
X907940Y-655060D01*
X909360Y-654220D01*
X912159Y-653300D01*
X915480Y-651120D01*
X917000Y-650800D01*
X918540Y-651120D01*
X921860Y-653300D01*
X924640Y-654220D01*
X926060Y-655060D01*
X927039Y-656400D01*
X927380Y-658020D01*
X927380Y-688980D01*
X937140Y-688980D01*
X938680Y-689300D01*
X939980Y-690160D01*
X940840Y-691460D01*
X941140Y-692980D01*
X941140Y-729360D01*
X940840Y-730879D01*
X939980Y-732180D01*
X938680Y-733060D01*
X937140Y-733360D01*
X927380Y-733360D01*
X927380Y-758620D01*
X927120Y-760020D01*
X926380Y-761260D01*
X925240Y-762140D01*
X923880Y-762580D01*
X922440Y-762500D01*
X921380Y-762240D01*
X917000Y-761900D01*
X912600Y-762240D01*
X911560Y-762500D01*
G37*

%LPD*%
G36*
X14100Y-992080D02*
G01*
X12560Y-991780D01*
X11259Y-990900D01*
X10400Y-989620D01*
X10100Y-988080D01*
X10100Y-971900D01*
X10400Y-970380D01*
X11259Y-969080D01*
X12560Y-968199D01*
X14100Y-967900D01*
X15620Y-968199D01*
X16920Y-969080D01*
X17960Y-970120D01*
X19880Y-971320D01*
X22000Y-972060D01*
X24460Y-972340D01*
X55519Y-972340D01*
X57980Y-972060D01*
X60119Y-971320D01*
X62020Y-970120D01*
X63620Y-968520D01*
X64820Y-966620D01*
X65560Y-964479D01*
X65840Y-962020D01*
X65800Y-929780D01*
X63680Y-905480D01*
X63680Y-904780D01*
X65800Y-880480D01*
X65840Y-860060D01*
X65560Y-857580D01*
X64820Y-855460D01*
X63620Y-853540D01*
X62880Y-852820D01*
X62020Y-851520D01*
X61720Y-849980D01*
X62020Y-848460D01*
X62880Y-847159D01*
X63620Y-846420D01*
X64820Y-844520D01*
X65560Y-842380D01*
X65840Y-839920D01*
X65840Y-837720D01*
X50359Y-837720D01*
X50359Y-843880D01*
X50000Y-845560D01*
X48960Y-846940D01*
X47420Y-847740D01*
X45700Y-847840D01*
X41860Y-847200D01*
X38140Y-847200D01*
X34280Y-847840D01*
X32559Y-847740D01*
X31040Y-846940D01*
X29980Y-845580D01*
X29620Y-843880D01*
X29620Y-837720D01*
X14100Y-837720D01*
X12560Y-837420D01*
X11259Y-836560D01*
X10400Y-835260D01*
X10100Y-833720D01*
X10100Y-826880D01*
X10400Y-825360D01*
X11259Y-824060D01*
X12560Y-823180D01*
X14100Y-822880D01*
X29620Y-822880D01*
X29620Y-810360D01*
X24460Y-810360D01*
X22000Y-810639D01*
X19880Y-811380D01*
X17960Y-812580D01*
X16920Y-813620D01*
X15620Y-814500D01*
X14100Y-814800D01*
X12560Y-814500D01*
X11259Y-813620D01*
X10400Y-812320D01*
X10100Y-810800D01*
X10100Y-649180D01*
X10400Y-647660D01*
X11259Y-646360D01*
X12560Y-645500D01*
X14100Y-645180D01*
X15620Y-645500D01*
X16920Y-646360D01*
X17960Y-647400D01*
X19880Y-648600D01*
X22000Y-649340D01*
X24460Y-649620D01*
X29620Y-649620D01*
X29620Y-637100D01*
X14100Y-637100D01*
X12560Y-636800D01*
X11259Y-635940D01*
X10400Y-634640D01*
X10100Y-633100D01*
X10100Y-626260D01*
X10400Y-624740D01*
X11259Y-623440D01*
X12560Y-622560D01*
X14100Y-622260D01*
X29620Y-622260D01*
X29620Y-616120D01*
X29980Y-614420D01*
X31040Y-613060D01*
X32559Y-612260D01*
X34280Y-612160D01*
X38140Y-612800D01*
X41860Y-612800D01*
X45700Y-612160D01*
X47420Y-612260D01*
X48960Y-613060D01*
X50000Y-614440D01*
X50359Y-616120D01*
X50359Y-622260D01*
X65840Y-622260D01*
X65840Y-620060D01*
X65560Y-617600D01*
X64820Y-615460D01*
X63620Y-613560D01*
X62880Y-612820D01*
X62020Y-611520D01*
X61720Y-610000D01*
X62020Y-608460D01*
X62880Y-607160D01*
X63620Y-606440D01*
X64820Y-604520D01*
X65560Y-602400D01*
X65840Y-599920D01*
X65800Y-579500D01*
X63680Y-555200D01*
X63680Y-554500D01*
X65840Y-529160D01*
X65840Y-497960D01*
X65980Y-496240D01*
X66780Y-494820D01*
X68060Y-493820D01*
X69660Y-493420D01*
X71260Y-493700D01*
X72640Y-494600D01*
X152700Y-574660D01*
X155680Y-577180D01*
X158880Y-579100D01*
X162360Y-580440D01*
X166040Y-581220D01*
X168920Y-581400D01*
X480080Y-581400D01*
X481599Y-581700D01*
X482900Y-582560D01*
X483780Y-583840D01*
X484080Y-585360D01*
X483800Y-586880D01*
X482960Y-588180D01*
X481700Y-589060D01*
X479260Y-590140D01*
X476100Y-592200D01*
X473940Y-594100D01*
X79440Y-988600D01*
X77940Y-989539D01*
X76200Y-989740D01*
X56900Y-987720D01*
X55620Y-987640D01*
X24460Y-987640D01*
X22000Y-987920D01*
X19880Y-988660D01*
X17960Y-989860D01*
X16920Y-990900D01*
X15620Y-991780D01*
G37*

%LPC*%
G36*
X50359Y-822880D02*
G01*
X65840Y-822880D01*
X65840Y-820680D01*
X65560Y-818220D01*
X64820Y-816080D01*
X63620Y-814180D01*
X62020Y-812580D01*
X60119Y-811380D01*
X57980Y-810639D01*
X55519Y-810360D01*
X50359Y-810360D01*
G37*
G36*
X150000Y-741580D02*
G01*
X155420Y-741220D01*
X160760Y-740160D01*
X165920Y-738420D01*
X170780Y-736020D01*
X175320Y-733000D01*
X179400Y-729400D01*
X183000Y-725320D01*
X186020Y-720780D01*
X188420Y-715920D01*
X190159Y-710759D01*
X191220Y-705420D01*
X191580Y-700000D01*
X191220Y-694560D01*
X190159Y-689220D01*
X188420Y-684080D01*
X186020Y-679200D01*
X183000Y-674680D01*
X179400Y-670580D01*
X175320Y-667000D01*
X170780Y-663980D01*
X165920Y-661560D01*
X160760Y-659820D01*
X155420Y-658760D01*
X150000Y-658400D01*
X144560Y-658760D01*
X139220Y-659820D01*
X134080Y-661560D01*
X129200Y-663980D01*
X124680Y-667000D01*
X120580Y-670580D01*
X117000Y-674680D01*
X113980Y-679200D01*
X111560Y-684080D01*
X109820Y-689220D01*
X108760Y-694560D01*
X108400Y-700000D01*
X108760Y-705420D01*
X109820Y-710759D01*
X111560Y-715920D01*
X113980Y-720780D01*
X117000Y-725320D01*
X120580Y-729400D01*
X124680Y-733000D01*
X129200Y-736020D01*
X134080Y-738420D01*
X139220Y-740160D01*
X144560Y-741220D01*
G37*
G36*
X231740Y-737260D02*
G01*
X231740Y-718240D01*
X212719Y-718240D01*
X213980Y-720780D01*
X217000Y-725320D01*
X220580Y-729400D01*
X224680Y-733000D01*
X229200Y-736020D01*
G37*
G36*
X268240Y-737260D02*
G01*
X270780Y-736020D01*
X275320Y-733000D01*
X279400Y-729400D01*
X283000Y-725320D01*
X286020Y-720780D01*
X287260Y-718240D01*
X268240Y-718240D01*
G37*
G36*
X268240Y-681740D02*
G01*
X287260Y-681740D01*
X286020Y-679200D01*
X283000Y-674680D01*
X279400Y-670580D01*
X275320Y-667000D01*
X270780Y-663980D01*
X268240Y-662720D01*
G37*
G36*
X212719Y-681740D02*
G01*
X231740Y-681740D01*
X231740Y-662720D01*
X229200Y-663980D01*
X224680Y-667000D01*
X220580Y-670580D01*
X217000Y-674680D01*
X213980Y-679200D01*
G37*
G36*
X50359Y-649620D02*
G01*
X55519Y-649620D01*
X57980Y-649340D01*
X60119Y-648600D01*
X62020Y-647400D01*
X63620Y-645800D01*
X64820Y-643900D01*
X65560Y-641760D01*
X65840Y-639300D01*
X65840Y-637100D01*
X50359Y-637100D01*
G37*

%LPD*%
G36*
X1245140Y-1776639D02*
G01*
X1243620Y-1776339D01*
X1242320Y-1775480D01*
X1214860Y-1748040D01*
X1212980Y-1746279D01*
X1211040Y-1744700D01*
X1208980Y-1743280D01*
X1207080Y-1742160D01*
X1206020Y-1741279D01*
X1205340Y-1740080D01*
X1205100Y-1738720D01*
X1205100Y-1722920D01*
X1205400Y-1721380D01*
X1206280Y-1720080D01*
X1255540Y-1670820D01*
X1257540Y-1668380D01*
X1258940Y-1665780D01*
X1259800Y-1662940D01*
X1260100Y-1659800D01*
X1260100Y-1592920D01*
X1260400Y-1591380D01*
X1261280Y-1590080D01*
X1330540Y-1520820D01*
X1332540Y-1518380D01*
X1333940Y-1515780D01*
X1334800Y-1512940D01*
X1335100Y-1509800D01*
X1335100Y-669000D01*
X1334800Y-665860D01*
X1333940Y-663020D01*
X1332540Y-660420D01*
X1330540Y-657980D01*
X1220820Y-548260D01*
X1218380Y-546260D01*
X1215780Y-544860D01*
X1212940Y-544000D01*
X1209800Y-543700D01*
X1155620Y-543700D01*
X1153820Y-543280D01*
X1148120Y-540420D01*
X1147220Y-539820D01*
X1146520Y-538980D01*
X1144140Y-535340D01*
X1143840Y-533820D01*
X1144140Y-532280D01*
X1146340Y-528960D01*
X1146760Y-527680D01*
X1147320Y-526620D01*
X1148160Y-525760D01*
X1151040Y-523600D01*
X1153080Y-522740D01*
X1155680Y-521340D01*
X1158120Y-519340D01*
X1169380Y-508080D01*
X1170680Y-507200D01*
X1172220Y-506900D01*
X1210280Y-506900D01*
X1211820Y-507200D01*
X1213120Y-508080D01*
X1360320Y-655280D01*
X1361200Y-656580D01*
X1361500Y-658120D01*
X1361500Y-1532080D01*
X1361200Y-1533620D01*
X1360320Y-1534920D01*
X1283959Y-1611279D01*
X1281960Y-1613720D01*
X1280560Y-1616320D01*
X1279700Y-1619160D01*
X1279400Y-1622300D01*
X1279400Y-1680780D01*
X1279100Y-1682320D01*
X1278220Y-1683620D01*
X1264460Y-1697380D01*
X1262460Y-1699820D01*
X1261060Y-1702420D01*
X1260220Y-1704400D01*
X1258020Y-1707340D01*
X1257160Y-1708200D01*
X1256080Y-1708740D01*
X1254860Y-1709160D01*
X1252960Y-1710340D01*
X1251360Y-1711940D01*
X1250160Y-1713860D01*
X1249420Y-1715980D01*
X1249140Y-1718440D01*
X1249140Y-1737680D01*
X1249420Y-1740160D01*
X1250160Y-1742280D01*
X1251360Y-1744199D01*
X1252100Y-1744920D01*
X1252960Y-1746220D01*
X1253280Y-1747760D01*
X1252960Y-1749280D01*
X1252100Y-1750580D01*
X1251360Y-1751320D01*
X1250160Y-1753220D01*
X1249420Y-1755360D01*
X1249140Y-1757820D01*
X1249140Y-1772640D01*
X1248840Y-1774180D01*
X1247980Y-1775480D01*
X1246680Y-1776339D01*
G37*

%LPD*%
G36*
X281180Y-2115900D02*
G01*
X266720Y-2115520D01*
X252580Y-2114400D01*
X238520Y-2112540D01*
X224579Y-2109940D01*
X210780Y-2106640D01*
X197180Y-2102600D01*
X183820Y-2097860D01*
X170720Y-2092420D01*
X157920Y-2086320D01*
X145460Y-2079540D01*
X133360Y-2072120D01*
X121679Y-2064100D01*
X110440Y-2055460D01*
X99660Y-2046240D01*
X89380Y-2036480D01*
X79620Y-2026180D01*
X70400Y-2015400D01*
X61780Y-2004139D01*
X53740Y-1992440D01*
X46340Y-1980360D01*
X39580Y-1967880D01*
X33480Y-1955080D01*
X28060Y-1941980D01*
X23320Y-1928600D01*
X19300Y-1915000D01*
X16000Y-1901220D01*
X13420Y-1887260D01*
X11580Y-1873200D01*
X10460Y-1859060D01*
X10100Y-1844820D01*
X10100Y-1642660D01*
X10440Y-1639700D01*
X11080Y-1637880D01*
X12060Y-1636220D01*
X13340Y-1634780D01*
X14860Y-1633620D01*
X16600Y-1632780D01*
X18460Y-1632300D01*
X20660Y-1632100D01*
X38900Y-1632100D01*
X43740Y-1631680D01*
X45960Y-1631220D01*
X49440Y-1630180D01*
X51540Y-1629300D01*
X54740Y-1627600D01*
X56620Y-1626339D01*
X59420Y-1624040D01*
X61040Y-1622420D01*
X63339Y-1619620D01*
X64600Y-1617740D01*
X66300Y-1614540D01*
X67180Y-1612440D01*
X68240Y-1608959D01*
X68680Y-1606720D01*
X69100Y-1601900D01*
X69100Y-1169100D01*
X68680Y-1164260D01*
X68240Y-1162020D01*
X67180Y-1158560D01*
X66300Y-1156460D01*
X64600Y-1153260D01*
X63339Y-1151360D01*
X61040Y-1148560D01*
X59420Y-1146960D01*
X56620Y-1144660D01*
X54740Y-1143380D01*
X51540Y-1141680D01*
X49440Y-1140820D01*
X45960Y-1139760D01*
X43740Y-1139320D01*
X40039Y-1138940D01*
X20240Y-1138900D01*
X17900Y-1139180D01*
X16460Y-1139080D01*
X15140Y-1138480D01*
X13580Y-1137400D01*
X12060Y-1135780D01*
X11080Y-1134120D01*
X10440Y-1132300D01*
X10100Y-1129320D01*
X10100Y-1038900D01*
X10400Y-1037380D01*
X11259Y-1036080D01*
X12560Y-1035200D01*
X14100Y-1034900D01*
X15620Y-1035200D01*
X16920Y-1036080D01*
X17960Y-1037120D01*
X19880Y-1038319D01*
X22000Y-1039060D01*
X24460Y-1039340D01*
X55640Y-1039340D01*
X56900Y-1039280D01*
X90200Y-1035780D01*
X93840Y-1034860D01*
X97240Y-1033360D01*
X100399Y-1031300D01*
X102560Y-1029400D01*
X498180Y-633780D01*
X499480Y-632900D01*
X501019Y-632600D01*
X509200Y-632600D01*
X546780Y-634660D01*
X624320Y-634660D01*
X625860Y-634960D01*
X627160Y-635840D01*
X628020Y-637140D01*
X628320Y-638660D01*
X628020Y-640200D01*
X627160Y-641500D01*
X309860Y-958780D01*
X307860Y-961220D01*
X306460Y-963820D01*
X305600Y-966660D01*
X305300Y-969800D01*
X305300Y-1255160D01*
X304880Y-1256940D01*
X302760Y-1261180D01*
X301880Y-1262360D01*
X300620Y-1263120D01*
X299180Y-1263400D01*
X293000Y-1263400D01*
X290540Y-1263660D01*
X288420Y-1264420D01*
X286500Y-1265620D01*
X284900Y-1267220D01*
X283700Y-1269120D01*
X282960Y-1271260D01*
X282740Y-1273180D01*
X282420Y-1274340D01*
X281780Y-1275360D01*
X280860Y-1276140D01*
X277140Y-1278400D01*
X274720Y-1279260D01*
X272120Y-1280660D01*
X269680Y-1282660D01*
X268860Y-1283480D01*
X267560Y-1284340D01*
X252380Y-1290640D01*
X250859Y-1290940D01*
X247280Y-1290940D01*
X244800Y-1291220D01*
X242680Y-1291960D01*
X240760Y-1293160D01*
X239180Y-1294760D01*
X237979Y-1296680D01*
X237220Y-1298800D01*
X236960Y-1301279D01*
X236960Y-1320500D01*
X237220Y-1322980D01*
X237979Y-1325100D01*
X239180Y-1327020D01*
X239899Y-1327740D01*
X240780Y-1329040D01*
X241080Y-1330580D01*
X240780Y-1332100D01*
X239899Y-1333400D01*
X239180Y-1334139D01*
X237979Y-1336040D01*
X237220Y-1338180D01*
X236960Y-1340640D01*
X236960Y-1352400D01*
X236680Y-1353860D01*
X235880Y-1355120D01*
X226640Y-1365100D01*
X194460Y-1397280D01*
X192460Y-1399720D01*
X191060Y-1402320D01*
X190200Y-1405160D01*
X189899Y-1408300D01*
X189899Y-1456579D01*
X189660Y-1457960D01*
X188960Y-1459160D01*
X172040Y-1479240D01*
X168980Y-1483820D01*
X166580Y-1488700D01*
X164820Y-1493860D01*
X163760Y-1499199D01*
X163400Y-1504620D01*
X163760Y-1510060D01*
X164820Y-1515380D01*
X166580Y-1520540D01*
X168980Y-1525420D01*
X172000Y-1529940D01*
X175580Y-1534019D01*
X179680Y-1537620D01*
X184240Y-1540660D01*
X185340Y-1541759D01*
X185940Y-1543220D01*
X185940Y-1544780D01*
X185340Y-1546220D01*
X184240Y-1547320D01*
X179680Y-1550360D01*
X175580Y-1553959D01*
X172000Y-1558040D01*
X168980Y-1562560D01*
X167719Y-1565120D01*
X186740Y-1565120D01*
X186740Y-1547840D01*
X187020Y-1546360D01*
X187840Y-1545080D01*
X189080Y-1544199D01*
X190539Y-1543839D01*
X192040Y-1544040D01*
X194220Y-1544800D01*
X199560Y-1545860D01*
X205000Y-1546200D01*
X210420Y-1545860D01*
X215760Y-1544800D01*
X217960Y-1544040D01*
X219460Y-1543839D01*
X220920Y-1544199D01*
X222140Y-1545080D01*
X222960Y-1546360D01*
X223240Y-1547840D01*
X223240Y-1565120D01*
X242260Y-1565120D01*
X241000Y-1562560D01*
X237979Y-1558040D01*
X234400Y-1553959D01*
X230300Y-1550360D01*
X225740Y-1547320D01*
X224640Y-1546220D01*
X224040Y-1544780D01*
X224040Y-1543220D01*
X224640Y-1541759D01*
X226180Y-1540380D01*
X227240Y-1539880D01*
X228400Y-1539700D01*
X480420Y-1539700D01*
X481940Y-1540000D01*
X483240Y-1540880D01*
X568000Y-1625620D01*
X611380Y-1680080D01*
X612020Y-1681180D01*
X612260Y-1682440D01*
X614700Y-1752880D01*
X614780Y-1757540D01*
X615060Y-1760100D01*
X615500Y-1762500D01*
X616120Y-1765000D01*
X616900Y-1767300D01*
X617880Y-1769680D01*
X618960Y-1771860D01*
X620280Y-1774079D01*
X621660Y-1776080D01*
X623280Y-1778080D01*
X624980Y-1779920D01*
X641140Y-1796140D01*
X642000Y-1797420D01*
X642300Y-1798959D01*
X642300Y-1812720D01*
X642400Y-1815300D01*
X642660Y-1817800D01*
X643100Y-1820260D01*
X643720Y-1822680D01*
X644520Y-1825060D01*
X645480Y-1827380D01*
X646600Y-1829620D01*
X647880Y-1831780D01*
X649300Y-1833839D01*
X650879Y-1835780D01*
X652640Y-1837660D01*
X657680Y-1842720D01*
X660280Y-1844980D01*
X661300Y-1846339D01*
X661660Y-1848000D01*
X661660Y-1881020D01*
X661940Y-1883500D01*
X662700Y-1885620D01*
X663900Y-1887540D01*
X665480Y-1889120D01*
X667400Y-1890320D01*
X669520Y-1891080D01*
X672000Y-1891360D01*
X693199Y-1891360D01*
X695660Y-1891080D01*
X697800Y-1890320D01*
X699160Y-1889460D01*
X700540Y-1888920D01*
X702039Y-1888920D01*
X703420Y-1889460D01*
X704800Y-1890340D01*
X706919Y-1891080D01*
X709400Y-1891360D01*
X712080Y-1891360D01*
X712080Y-1873920D01*
X707520Y-1873920D01*
X706000Y-1873600D01*
X704700Y-1872740D01*
X703820Y-1871440D01*
X703520Y-1869920D01*
X703520Y-1853220D01*
X703820Y-1851699D01*
X704700Y-1850400D01*
X706000Y-1849540D01*
X707520Y-1849220D01*
X712080Y-1849220D01*
X712080Y-1838040D01*
X712240Y-1836920D01*
X712720Y-1835880D01*
X713400Y-1834820D01*
X715480Y-1830260D01*
X716880Y-1825460D01*
X717600Y-1820500D01*
X717660Y-1813440D01*
X718480Y-1811940D01*
X719840Y-1810920D01*
X721500Y-1810560D01*
X722180Y-1810560D01*
X722180Y-1794100D01*
X716500Y-1794100D01*
X714960Y-1793800D01*
X713680Y-1792940D01*
X712800Y-1791639D01*
X712500Y-1790100D01*
X712500Y-1782860D01*
X712420Y-1780360D01*
X712140Y-1777800D01*
X711840Y-1776100D01*
X711900Y-1774360D01*
X712700Y-1772820D01*
X714080Y-1771759D01*
X715780Y-1771380D01*
X722180Y-1771380D01*
X722180Y-1754940D01*
X717020Y-1754940D01*
X714560Y-1755200D01*
X712420Y-1755960D01*
X710520Y-1757160D01*
X708760Y-1758920D01*
X707420Y-1759800D01*
X705860Y-1760100D01*
X704300Y-1759740D01*
X703000Y-1758820D01*
X686500Y-1742200D01*
X685620Y-1740860D01*
X685340Y-1739259D01*
X687400Y-1677800D01*
X687400Y-1638280D01*
X687140Y-1635820D01*
X686380Y-1633700D01*
X685180Y-1631780D01*
X683460Y-1630060D01*
X623240Y-1581540D01*
X521460Y-1479820D01*
X519580Y-1478080D01*
X517620Y-1476500D01*
X515580Y-1475080D01*
X513400Y-1473779D01*
X511180Y-1472680D01*
X508860Y-1471720D01*
X506480Y-1470920D01*
X504040Y-1470300D01*
X501599Y-1469860D01*
X499099Y-1469600D01*
X496520Y-1469500D01*
X231620Y-1469500D01*
X229920Y-1469120D01*
X228560Y-1468080D01*
X221040Y-1459180D01*
X220340Y-1457980D01*
X220100Y-1456600D01*
X220100Y-1416020D01*
X220400Y-1414480D01*
X221280Y-1413180D01*
X252800Y-1381639D01*
X253800Y-1380920D01*
X262640Y-1376320D01*
X264320Y-1375880D01*
X266020Y-1376180D01*
X267520Y-1376819D01*
X268820Y-1377680D01*
X269680Y-1378540D01*
X272120Y-1380540D01*
X274720Y-1381940D01*
X276280Y-1382400D01*
X277200Y-1382820D01*
X280860Y-1385040D01*
X281780Y-1385820D01*
X282440Y-1386840D01*
X282740Y-1388020D01*
X282960Y-1389900D01*
X283700Y-1392040D01*
X284900Y-1393940D01*
X286500Y-1395540D01*
X288420Y-1396740D01*
X290540Y-1397480D01*
X293000Y-1397760D01*
X347680Y-1397760D01*
X350140Y-1397480D01*
X352280Y-1396740D01*
X354180Y-1395540D01*
X355780Y-1393940D01*
X356980Y-1392040D01*
X357720Y-1389900D01*
X358000Y-1387440D01*
X358000Y-1348520D01*
X357720Y-1346060D01*
X356980Y-1343920D01*
X355780Y-1342020D01*
X354180Y-1340420D01*
X352280Y-1339220D01*
X350140Y-1338480D01*
X347680Y-1338200D01*
X293000Y-1338200D01*
X291720Y-1338340D01*
X290240Y-1338220D01*
X288880Y-1337580D01*
X287880Y-1336480D01*
X286420Y-1334120D01*
X285700Y-1333400D01*
X284820Y-1332100D01*
X284520Y-1330580D01*
X284820Y-1329040D01*
X285700Y-1327740D01*
X286420Y-1327020D01*
X287860Y-1324720D01*
X288840Y-1323660D01*
X290120Y-1323020D01*
X291540Y-1322860D01*
X292940Y-1322960D01*
X347680Y-1322960D01*
X350140Y-1322680D01*
X352280Y-1321940D01*
X354180Y-1320740D01*
X355780Y-1319139D01*
X356980Y-1317240D01*
X357720Y-1315100D01*
X358000Y-1312640D01*
X358000Y-1273720D01*
X357720Y-1271260D01*
X356980Y-1269120D01*
X355780Y-1267220D01*
X354180Y-1265620D01*
X352280Y-1264420D01*
X350140Y-1263660D01*
X347680Y-1263400D01*
X341599Y-1263400D01*
X340160Y-1263120D01*
X338920Y-1262360D01*
X338020Y-1261180D01*
X335920Y-1256960D01*
X335500Y-1255180D01*
X335500Y-977520D01*
X335800Y-975980D01*
X336680Y-974680D01*
X634320Y-677039D01*
X635620Y-676160D01*
X637140Y-675860D01*
X638680Y-676160D01*
X639980Y-677039D01*
X640840Y-678340D01*
X641140Y-679860D01*
X641140Y-750320D01*
X641420Y-752780D01*
X642180Y-754920D01*
X643379Y-756820D01*
X644960Y-758420D01*
X647200Y-759820D01*
X648020Y-760520D01*
X648640Y-761420D01*
X649760Y-763680D01*
X650180Y-765240D01*
X649940Y-766840D01*
X649100Y-768199D01*
X647780Y-769140D01*
X646200Y-769460D01*
X623320Y-769460D01*
X620860Y-769740D01*
X618720Y-770480D01*
X616820Y-771680D01*
X615220Y-773280D01*
X614020Y-775180D01*
X613280Y-777320D01*
X613000Y-779780D01*
X613000Y-850200D01*
X613300Y-852820D01*
X618540Y-870320D01*
X618720Y-871300D01*
X618640Y-872280D01*
X616400Y-883240D01*
X616140Y-885660D01*
X616140Y-904920D01*
X616420Y-907400D01*
X617180Y-909520D01*
X618380Y-911440D01*
X619100Y-912159D01*
X619980Y-913460D01*
X620280Y-915000D01*
X619980Y-916520D01*
X619100Y-917820D01*
X618380Y-918560D01*
X617180Y-920460D01*
X616420Y-922600D01*
X616140Y-925060D01*
X616140Y-927260D01*
X631620Y-927260D01*
X631620Y-919260D01*
X631920Y-917720D01*
X632800Y-916420D01*
X634100Y-915560D01*
X635620Y-915260D01*
X640639Y-915280D01*
X641800Y-915380D01*
X643660Y-915260D01*
X648360Y-915260D01*
X649900Y-915560D01*
X651200Y-916420D01*
X652060Y-917720D01*
X652380Y-919260D01*
X652380Y-927260D01*
X667840Y-927260D01*
X667840Y-925060D01*
X667560Y-922600D01*
X666820Y-920460D01*
X665620Y-918560D01*
X664880Y-917820D01*
X664020Y-916520D01*
X663720Y-915000D01*
X664020Y-913460D01*
X664880Y-912159D01*
X665620Y-911440D01*
X666820Y-909520D01*
X667560Y-907400D01*
X667840Y-904920D01*
X667840Y-885639D01*
X667660Y-883520D01*
X665819Y-873259D01*
X665780Y-872240D01*
X665980Y-871260D01*
X671979Y-853820D01*
X672500Y-851480D01*
X672560Y-850320D01*
X672560Y-810879D01*
X672920Y-809220D01*
X675120Y-804400D01*
X675920Y-803220D01*
X677540Y-801620D01*
X679539Y-799180D01*
X680939Y-796580D01*
X681800Y-793740D01*
X682099Y-790600D01*
X682099Y-768860D01*
X682520Y-767080D01*
X685340Y-761420D01*
X685960Y-760520D01*
X686800Y-759820D01*
X690460Y-757420D01*
X692000Y-757099D01*
X693520Y-757420D01*
X694960Y-758420D01*
X697200Y-759820D01*
X698020Y-760520D01*
X698640Y-761420D01*
X701480Y-767099D01*
X701900Y-768880D01*
X701900Y-790600D01*
X702200Y-793740D01*
X703060Y-796580D01*
X704460Y-799180D01*
X706460Y-801620D01*
X710180Y-805320D01*
X710920Y-806360D01*
X711380Y-808040D01*
X711420Y-850320D01*
X711680Y-852680D01*
X712000Y-853820D01*
X718000Y-871260D01*
X718220Y-872240D01*
X718160Y-873259D01*
X716340Y-883520D01*
X716140Y-885639D01*
X716140Y-904920D01*
X716420Y-907400D01*
X717180Y-909520D01*
X718379Y-911440D01*
X719100Y-912159D01*
X719980Y-913460D01*
X720280Y-915000D01*
X719980Y-916520D01*
X719100Y-917820D01*
X718379Y-918560D01*
X717180Y-920460D01*
X716420Y-922600D01*
X716140Y-925060D01*
X716140Y-927260D01*
X731620Y-927260D01*
X731620Y-919260D01*
X731919Y-917720D01*
X732800Y-916420D01*
X734100Y-915560D01*
X735620Y-915260D01*
X740639Y-915260D01*
X742200Y-915380D01*
X743760Y-915260D01*
X748360Y-915260D01*
X749900Y-915560D01*
X751200Y-916420D01*
X752060Y-917720D01*
X752380Y-919260D01*
X752380Y-927260D01*
X767840Y-927260D01*
X767840Y-925060D01*
X767560Y-922600D01*
X766820Y-920460D01*
X765620Y-918560D01*
X764880Y-917820D01*
X764020Y-916520D01*
X763720Y-915000D01*
X764020Y-913460D01*
X764880Y-912159D01*
X765620Y-911440D01*
X766820Y-909520D01*
X767560Y-907400D01*
X767840Y-904920D01*
X767840Y-885660D01*
X767600Y-883240D01*
X765360Y-872280D01*
X765280Y-871300D01*
X765440Y-870320D01*
X770699Y-852820D01*
X771000Y-850200D01*
X771000Y-779780D01*
X770720Y-777320D01*
X769960Y-775180D01*
X768760Y-773280D01*
X767180Y-771680D01*
X765260Y-770480D01*
X763139Y-769740D01*
X760660Y-769460D01*
X737800Y-769460D01*
X736220Y-769140D01*
X734900Y-768199D01*
X734040Y-766840D01*
X733800Y-765240D01*
X734220Y-763680D01*
X735340Y-761420D01*
X735960Y-760520D01*
X736800Y-759820D01*
X740460Y-757420D01*
X742000Y-757099D01*
X743520Y-757420D01*
X746880Y-759620D01*
X749000Y-760360D01*
X751480Y-760639D01*
X782520Y-760639D01*
X784980Y-760360D01*
X787120Y-759620D01*
X790460Y-757420D01*
X792000Y-757099D01*
X793520Y-757420D01*
X796880Y-759620D01*
X799000Y-760360D01*
X801480Y-760639D01*
X832520Y-760639D01*
X834980Y-760360D01*
X836800Y-759740D01*
X838540Y-759520D01*
X840200Y-760100D01*
X841460Y-761320D01*
X842080Y-762960D01*
X842240Y-764060D01*
X842960Y-767240D01*
X844479Y-771100D01*
X844880Y-771880D01*
X846620Y-774659D01*
X849340Y-777840D01*
X879160Y-807660D01*
X882340Y-810380D01*
X885120Y-812120D01*
X885900Y-812520D01*
X889760Y-814040D01*
X893820Y-814900D01*
X897120Y-815100D01*
X903640Y-815100D01*
X905180Y-815400D01*
X908319Y-816700D01*
X912600Y-817740D01*
X917000Y-818080D01*
X921380Y-817740D01*
X925660Y-816700D01*
X928800Y-815400D01*
X930340Y-815100D01*
X936880Y-815100D01*
X940180Y-814900D01*
X944240Y-814040D01*
X948100Y-812520D01*
X948880Y-812120D01*
X951660Y-810380D01*
X954840Y-807660D01*
X984659Y-777840D01*
X987380Y-774659D01*
X989120Y-771880D01*
X989520Y-771100D01*
X991040Y-767240D01*
X991760Y-764060D01*
X991919Y-762960D01*
X992540Y-761320D01*
X993800Y-760100D01*
X995460Y-759539D01*
X997200Y-759740D01*
X999000Y-760360D01*
X1001480Y-760639D01*
X1032520Y-760639D01*
X1034980Y-760360D01*
X1037120Y-759620D01*
X1039020Y-758420D01*
X1040620Y-756820D01*
X1041820Y-754920D01*
X1042580Y-752780D01*
X1042840Y-750320D01*
X1042840Y-672020D01*
X1042580Y-669560D01*
X1041820Y-667440D01*
X1040620Y-665520D01*
X1039020Y-663920D01*
X1037120Y-662720D01*
X1034980Y-661979D01*
X1032520Y-661700D01*
X1011700Y-661700D01*
X1010140Y-661380D01*
X1008840Y-660480D01*
X1007980Y-659140D01*
X1007700Y-657580D01*
X1008080Y-656020D01*
X1009020Y-654740D01*
X1010380Y-653920D01*
X1012120Y-653319D01*
X1014020Y-652120D01*
X1015620Y-650520D01*
X1016820Y-648620D01*
X1017580Y-646480D01*
X1017840Y-644020D01*
X1017840Y-634940D01*
X1002380Y-634940D01*
X1002380Y-658020D01*
X1002020Y-659640D01*
X1001060Y-660980D01*
X999620Y-661820D01*
X996840Y-662740D01*
X993520Y-664940D01*
X992000Y-665240D01*
X990460Y-664940D01*
X987140Y-662740D01*
X984360Y-661820D01*
X982940Y-660980D01*
X981960Y-659640D01*
X981620Y-658020D01*
X981620Y-634940D01*
X971860Y-634940D01*
X970320Y-634620D01*
X969020Y-633760D01*
X968160Y-632460D01*
X967860Y-630940D01*
X967860Y-610320D01*
X968160Y-608780D01*
X969020Y-607480D01*
X970320Y-606620D01*
X971860Y-606320D01*
X981620Y-606320D01*
X981620Y-586900D01*
X976480Y-586900D01*
X974000Y-587180D01*
X971880Y-587920D01*
X968540Y-590120D01*
X967000Y-590440D01*
X965480Y-590120D01*
X961820Y-587720D01*
X960980Y-587020D01*
X960360Y-586120D01*
X957460Y-580300D01*
X957060Y-578920D01*
X956800Y-576260D01*
X955939Y-573420D01*
X955300Y-572260D01*
X954920Y-571220D01*
X953800Y-565920D01*
X953760Y-565340D01*
X952760Y-561620D01*
X951420Y-558740D01*
X951040Y-557160D01*
X951320Y-555560D01*
X952220Y-554220D01*
X953560Y-553320D01*
X955160Y-553040D01*
X956740Y-553420D01*
X957440Y-553740D01*
X961160Y-554740D01*
X965000Y-555080D01*
X968820Y-554740D01*
X971400Y-554060D01*
X973080Y-553960D01*
X974640Y-554580D01*
X977440Y-557440D01*
X979360Y-558640D01*
X981480Y-559380D01*
X983960Y-559660D01*
X1030740Y-559660D01*
X1033199Y-559380D01*
X1035340Y-558640D01*
X1037240Y-557440D01*
X1038840Y-555840D01*
X1040040Y-553940D01*
X1040660Y-552200D01*
X1041460Y-550820D01*
X1042760Y-549880D01*
X1044300Y-549520D01*
X1045860Y-549780D01*
X1047220Y-550640D01*
X1048120Y-551960D01*
X1048420Y-553520D01*
X1048420Y-574340D01*
X1048700Y-576800D01*
X1049460Y-578940D01*
X1051660Y-582280D01*
X1051960Y-583820D01*
X1051660Y-585340D01*
X1049460Y-588700D01*
X1048700Y-590820D01*
X1048420Y-593280D01*
X1048420Y-624340D01*
X1048700Y-626800D01*
X1049460Y-628940D01*
X1050660Y-630840D01*
X1052240Y-632440D01*
X1054160Y-633640D01*
X1056280Y-634380D01*
X1058760Y-634660D01*
X1137040Y-634660D01*
X1139500Y-634380D01*
X1141640Y-633640D01*
X1143540Y-632440D01*
X1145140Y-630840D01*
X1146540Y-628620D01*
X1147240Y-627780D01*
X1148140Y-627160D01*
X1153820Y-624320D01*
X1155620Y-623900D01*
X1194600Y-623900D01*
X1195640Y-624040D01*
X1196600Y-624440D01*
X1200500Y-626700D01*
X1203940Y-629120D01*
X1207440Y-630740D01*
X1211160Y-631740D01*
X1215000Y-632080D01*
X1218820Y-631740D01*
X1222540Y-630740D01*
X1226040Y-629120D01*
X1229180Y-626900D01*
X1231900Y-624180D01*
X1234120Y-621040D01*
X1235740Y-617540D01*
X1236420Y-615060D01*
X1237160Y-613580D01*
X1238460Y-612520D01*
X1240060Y-612100D01*
X1241720Y-612360D01*
X1243100Y-613260D01*
X1303720Y-673880D01*
X1304600Y-675180D01*
X1304900Y-676720D01*
X1304900Y-1502080D01*
X1304600Y-1503620D01*
X1303720Y-1504920D01*
X1234460Y-1574180D01*
X1232460Y-1576620D01*
X1231060Y-1579220D01*
X1230200Y-1582060D01*
X1229900Y-1585200D01*
X1229900Y-1652080D01*
X1229600Y-1653620D01*
X1228720Y-1654920D01*
X1179460Y-1704180D01*
X1177460Y-1706620D01*
X1176060Y-1709220D01*
X1175200Y-1712060D01*
X1174900Y-1715200D01*
X1174900Y-1733700D01*
X1174600Y-1735240D01*
X1173720Y-1736519D01*
X1172440Y-1737400D01*
X1170900Y-1737700D01*
X947540Y-1737700D01*
X945920Y-1737360D01*
X944599Y-1736399D01*
X943760Y-1735000D01*
X928980Y-1691879D01*
X928199Y-1690120D01*
X926860Y-1688260D01*
X925160Y-1686759D01*
X923180Y-1685680D01*
X920960Y-1685040D01*
X919200Y-1684900D01*
X840840Y-1684900D01*
X838379Y-1685160D01*
X836260Y-1685920D01*
X834340Y-1687120D01*
X832740Y-1688700D01*
X831540Y-1690620D01*
X830800Y-1692740D01*
X830520Y-1695220D01*
X830520Y-1709280D01*
X830260Y-1710720D01*
X829479Y-1711980D01*
X828319Y-1712860D01*
X824060Y-1714980D01*
X822280Y-1715400D01*
X787920Y-1715400D01*
X786340Y-1715080D01*
X785020Y-1714139D01*
X782980Y-1711980D01*
X782180Y-1710720D01*
X781900Y-1709240D01*
X781900Y-1675680D01*
X781620Y-1673220D01*
X780879Y-1671100D01*
X779680Y-1669180D01*
X778080Y-1667580D01*
X776160Y-1666380D01*
X774040Y-1665640D01*
X771580Y-1665360D01*
X716900Y-1665360D01*
X714440Y-1665640D01*
X712300Y-1666380D01*
X710400Y-1667580D01*
X708800Y-1669180D01*
X707600Y-1671100D01*
X706860Y-1673220D01*
X706580Y-1675680D01*
X706580Y-1714600D01*
X706860Y-1717080D01*
X707600Y-1719199D01*
X708800Y-1721120D01*
X710400Y-1722720D01*
X712300Y-1723920D01*
X714440Y-1724660D01*
X716900Y-1724940D01*
X746720Y-1724940D01*
X747960Y-1725140D01*
X749080Y-1725700D01*
X765380Y-1737720D01*
X768680Y-1741040D01*
X771120Y-1743040D01*
X773720Y-1744440D01*
X776560Y-1745300D01*
X779700Y-1745600D01*
X822300Y-1745600D01*
X824100Y-1746020D01*
X828319Y-1748120D01*
X829479Y-1749019D01*
X830260Y-1750260D01*
X830520Y-1751699D01*
X830520Y-1765660D01*
X830740Y-1767940D01*
X844240Y-1838360D01*
X844180Y-1840100D01*
X843379Y-1841660D01*
X842000Y-1842740D01*
X840300Y-1843120D01*
X835360Y-1843120D01*
X835360Y-1855640D01*
X840900Y-1855640D01*
X842440Y-1855940D01*
X843720Y-1856800D01*
X844599Y-1858100D01*
X844900Y-1859640D01*
X844900Y-1866480D01*
X844599Y-1868000D01*
X843720Y-1869300D01*
X842440Y-1870180D01*
X840900Y-1870480D01*
X835360Y-1870480D01*
X835360Y-1878480D01*
X835060Y-1880020D01*
X834200Y-1881320D01*
X832900Y-1882180D01*
X831360Y-1882480D01*
X818620Y-1882480D01*
X817080Y-1882180D01*
X815800Y-1881320D01*
X814920Y-1880020D01*
X814620Y-1878480D01*
X814620Y-1870480D01*
X799140Y-1870480D01*
X799140Y-1872680D01*
X799419Y-1875140D01*
X800160Y-1877280D01*
X801360Y-1879180D01*
X802099Y-1879920D01*
X802960Y-1881220D01*
X803280Y-1882740D01*
X802960Y-1884280D01*
X802099Y-1885580D01*
X801360Y-1886300D01*
X800160Y-1888220D01*
X799419Y-1890340D01*
X799140Y-1892800D01*
X799140Y-1904620D01*
X798860Y-1906080D01*
X798080Y-1907340D01*
X788780Y-1917360D01*
X777200Y-1928940D01*
X776520Y-1929480D01*
X770200Y-1933520D01*
X769180Y-1933980D01*
X768060Y-1934139D01*
X746780Y-1934139D01*
X744320Y-1934420D01*
X742180Y-1935180D01*
X740280Y-1936380D01*
X738680Y-1937960D01*
X737480Y-1939880D01*
X736740Y-1942000D01*
X736460Y-1944480D01*
X736460Y-1966459D01*
X736160Y-1968000D01*
X735280Y-1969300D01*
X734000Y-1970160D01*
X732460Y-1970460D01*
X730939Y-1970160D01*
X729640Y-1969300D01*
X707520Y-1947180D01*
X704599Y-1944660D01*
X703680Y-1943500D01*
X702500Y-1939880D01*
X701300Y-1937960D01*
X699700Y-1936360D01*
X697780Y-1935160D01*
X695660Y-1934420D01*
X693199Y-1934139D01*
X671979Y-1934139D01*
X669520Y-1934420D01*
X667380Y-1935160D01*
X665480Y-1936360D01*
X663880Y-1937960D01*
X662680Y-1939880D01*
X661500Y-1943520D01*
X660580Y-1944680D01*
X657780Y-1947080D01*
X654500Y-1950880D01*
X651800Y-1955080D01*
X649720Y-1959640D01*
X648319Y-1964440D01*
X647600Y-1969400D01*
X647600Y-1974400D01*
X648319Y-1979360D01*
X649720Y-1984160D01*
X651800Y-1988720D01*
X654500Y-1992920D01*
X657880Y-1996819D01*
X711240Y-2050160D01*
X713120Y-2051920D01*
X715060Y-2053500D01*
X717120Y-2054920D01*
X719280Y-2056200D01*
X721520Y-2057320D01*
X723840Y-2058280D01*
X726220Y-2059079D01*
X728640Y-2059700D01*
X731100Y-2060140D01*
X733600Y-2060400D01*
X736180Y-2060500D01*
X787320Y-2060500D01*
X789900Y-2060400D01*
X792400Y-2060140D01*
X794860Y-2059700D01*
X797280Y-2059079D01*
X799659Y-2058280D01*
X801979Y-2057320D01*
X804220Y-2056200D01*
X806380Y-2054920D01*
X808439Y-2053500D01*
X810380Y-2051920D01*
X812260Y-2050160D01*
X904760Y-1957660D01*
X906520Y-1955780D01*
X908100Y-1953839D01*
X909520Y-1951780D01*
X910800Y-1949620D01*
X911919Y-1947380D01*
X913280Y-1943899D01*
X913960Y-1942640D01*
X915060Y-1941699D01*
X916420Y-1941220D01*
X917860Y-1941240D01*
X919200Y-1941780D01*
X920460Y-1942580D01*
X922039Y-1943200D01*
X944700Y-1956399D01*
X945500Y-1957040D01*
X989820Y-2001360D01*
X990699Y-2002660D01*
X991000Y-2004180D01*
X991000Y-2029460D01*
X990920Y-2030200D01*
X985460Y-2058740D01*
X985240Y-2061040D01*
X985240Y-2092100D01*
X985520Y-2094580D01*
X986260Y-2096699D01*
X987460Y-2098620D01*
X989060Y-2100200D01*
X990960Y-2101400D01*
X993100Y-2102160D01*
X995560Y-2102440D01*
X1026600Y-2102440D01*
X1029080Y-2102160D01*
X1031200Y-2101400D01*
X1033120Y-2100200D01*
X1034700Y-2098620D01*
X1035900Y-2096699D01*
X1036660Y-2094580D01*
X1036940Y-2092100D01*
X1036940Y-2061020D01*
X1036720Y-2058760D01*
X1031280Y-2030300D01*
X1031200Y-2029540D01*
X1031200Y-1994280D01*
X1031120Y-1992440D01*
X1030900Y-1990720D01*
X1030520Y-1989000D01*
X1029980Y-1987320D01*
X1029320Y-1985700D01*
X1028500Y-1984160D01*
X1027560Y-1982680D01*
X1026500Y-1981279D01*
X1025260Y-1979920D01*
X970400Y-1925060D01*
X969800Y-1924300D01*
X953240Y-1896879D01*
X951800Y-1895020D01*
X950060Y-1893560D01*
X948980Y-1892960D01*
X946760Y-1892180D01*
X944300Y-1891900D01*
X925060Y-1891900D01*
X922580Y-1892180D01*
X920420Y-1892940D01*
X918920Y-1893160D01*
X917440Y-1892800D01*
X916200Y-1891920D01*
X915380Y-1890640D01*
X915100Y-1889160D01*
X915100Y-1842160D01*
X915180Y-1841399D01*
X920960Y-1811140D01*
X921460Y-1809860D01*
X922340Y-1808820D01*
X923540Y-1808140D01*
X924900Y-1807900D01*
X1030220Y-1807900D01*
X1031860Y-1808240D01*
X1033199Y-1809240D01*
X1034040Y-1810680D01*
X1034140Y-1812820D01*
X1034140Y-1815020D01*
X1049620Y-1815020D01*
X1049620Y-1811900D01*
X1049920Y-1810360D01*
X1050800Y-1809079D01*
X1052080Y-1808200D01*
X1053620Y-1807900D01*
X1066360Y-1807900D01*
X1067900Y-1808200D01*
X1069200Y-1809079D01*
X1070060Y-1810360D01*
X1070360Y-1811900D01*
X1070360Y-1815020D01*
X1085840Y-1815020D01*
X1085780Y-1812340D01*
X1085960Y-1810680D01*
X1086780Y-1809240D01*
X1088120Y-1808240D01*
X1089760Y-1807900D01*
X1173800Y-1807900D01*
X1175340Y-1808200D01*
X1176640Y-1809079D01*
X1230080Y-1862520D01*
X1234920Y-1866740D01*
X1235540Y-1867840D01*
X1236840Y-1871399D01*
X1238620Y-1874420D01*
X1241000Y-1877220D01*
X1242620Y-1878820D01*
X1243500Y-1880120D01*
X1243800Y-1881660D01*
X1243800Y-1886639D01*
X1243400Y-1888360D01*
X1242300Y-1889740D01*
X1240720Y-1890520D01*
X1238940Y-1890540D01*
X1237100Y-1889600D01*
X1232380Y-1886920D01*
X1232380Y-1904199D01*
X1239800Y-1904199D01*
X1241340Y-1904500D01*
X1242620Y-1905380D01*
X1243500Y-1906680D01*
X1243800Y-1908200D01*
X1243800Y-1919920D01*
X1244120Y-1923580D01*
X1245020Y-1926960D01*
X1245500Y-1927980D01*
X1245860Y-1929660D01*
X1245860Y-1931780D01*
X1245560Y-1933320D01*
X1244700Y-1934600D01*
X1243400Y-1935480D01*
X1241860Y-1935780D01*
X1232380Y-1935780D01*
X1232380Y-1953060D01*
X1237100Y-1950380D01*
X1240520Y-1947720D01*
X1241860Y-1947040D01*
X1243360Y-1946879D01*
X1244800Y-1947320D01*
X1246000Y-1948240D01*
X1246900Y-1949960D01*
X1248100Y-1951860D01*
X1249680Y-1953460D01*
X1251600Y-1954660D01*
X1253720Y-1955400D01*
X1256200Y-1955680D01*
X1271500Y-1955680D01*
X1273960Y-1955400D01*
X1275300Y-1954940D01*
X1276620Y-1954720D01*
X1277940Y-1954940D01*
X1279280Y-1955400D01*
X1281740Y-1955680D01*
X1297040Y-1955680D01*
X1299500Y-1955400D01*
X1300880Y-1954920D01*
X1302200Y-1954700D01*
X1303520Y-1954920D01*
X1304880Y-1955400D01*
X1307340Y-1955680D01*
X1322640Y-1955680D01*
X1325100Y-1955400D01*
X1326480Y-1954920D01*
X1327800Y-1954700D01*
X1329120Y-1954920D01*
X1330480Y-1955400D01*
X1332940Y-1955680D01*
X1348240Y-1955680D01*
X1350700Y-1955400D01*
X1352080Y-1954920D01*
X1353400Y-1954700D01*
X1354720Y-1954920D01*
X1356080Y-1955400D01*
X1358540Y-1955680D01*
X1359760Y-1955680D01*
X1359760Y-1934139D01*
X1358880Y-1932820D01*
X1358560Y-1931279D01*
X1358560Y-1908700D01*
X1358880Y-1907160D01*
X1359760Y-1905860D01*
X1359760Y-1884300D01*
X1358540Y-1884300D01*
X1356080Y-1884580D01*
X1354720Y-1885060D01*
X1353400Y-1885280D01*
X1352080Y-1885060D01*
X1350700Y-1884580D01*
X1348240Y-1884300D01*
X1332940Y-1884300D01*
X1330040Y-1884620D01*
X1328380Y-1884460D01*
X1326940Y-1883640D01*
X1325940Y-1882280D01*
X1325600Y-1880660D01*
X1325600Y-1814920D01*
X1325900Y-1813380D01*
X1326780Y-1812080D01*
X1340540Y-1798320D01*
X1342540Y-1795880D01*
X1343920Y-1793280D01*
X1344160Y-1792480D01*
X1344780Y-1791240D01*
X1347020Y-1788160D01*
X1347880Y-1787300D01*
X1348959Y-1786740D01*
X1350120Y-1786339D01*
X1352020Y-1785160D01*
X1353620Y-1783560D01*
X1354820Y-1781660D01*
X1355560Y-1779520D01*
X1355840Y-1777060D01*
X1355840Y-1757820D01*
X1355560Y-1755360D01*
X1354820Y-1753220D01*
X1353620Y-1751320D01*
X1352880Y-1750580D01*
X1352020Y-1749280D01*
X1351720Y-1747760D01*
X1352020Y-1746220D01*
X1352880Y-1744920D01*
X1353620Y-1744199D01*
X1354820Y-1742280D01*
X1355560Y-1740160D01*
X1355840Y-1737680D01*
X1355840Y-1718440D01*
X1355560Y-1715980D01*
X1354820Y-1713860D01*
X1353620Y-1711940D01*
X1352020Y-1710340D01*
X1350120Y-1709160D01*
X1348899Y-1708740D01*
X1347820Y-1708180D01*
X1346980Y-1707340D01*
X1344780Y-1704420D01*
X1343940Y-1702420D01*
X1342540Y-1699820D01*
X1340540Y-1697380D01*
X1326780Y-1683620D01*
X1325900Y-1682320D01*
X1325600Y-1680780D01*
X1325600Y-1636620D01*
X1325900Y-1635080D01*
X1326780Y-1633779D01*
X1403140Y-1557420D01*
X1405140Y-1554980D01*
X1406540Y-1552380D01*
X1407400Y-1549540D01*
X1407700Y-1546399D01*
X1407700Y-643800D01*
X1407400Y-640660D01*
X1406540Y-637820D01*
X1405140Y-635220D01*
X1403140Y-632780D01*
X1322280Y-551920D01*
X1321420Y-550640D01*
X1321120Y-549100D01*
X1321420Y-547560D01*
X1322280Y-546280D01*
X1323580Y-545400D01*
X1325120Y-545100D01*
X1507080Y-545100D01*
X1508620Y-545400D01*
X1509920Y-546280D01*
X1582820Y-619180D01*
X1583700Y-620480D01*
X1584000Y-622020D01*
X1584000Y-652980D01*
X1583700Y-654520D01*
X1582820Y-655819D01*
X1573560Y-665080D01*
X1571560Y-667520D01*
X1570160Y-670120D01*
X1569300Y-672960D01*
X1569019Y-675900D01*
X1569300Y-678840D01*
X1569600Y-680400D01*
X1569600Y-687039D01*
X1569240Y-688680D01*
X1566860Y-694000D01*
X1566000Y-695200D01*
X1564780Y-696020D01*
X1563340Y-696340D01*
X1561879Y-696120D01*
X1559420Y-695260D01*
X1556960Y-694980D01*
X1533779Y-694980D01*
X1531320Y-695260D01*
X1529180Y-696020D01*
X1527280Y-697220D01*
X1525680Y-698800D01*
X1524480Y-700720D01*
X1523740Y-702840D01*
X1523460Y-705320D01*
X1523460Y-765879D01*
X1523740Y-768360D01*
X1524480Y-770480D01*
X1525680Y-772400D01*
X1527280Y-773980D01*
X1529180Y-775180D01*
X1531320Y-775939D01*
X1533779Y-776220D01*
X1556960Y-776220D01*
X1559420Y-775939D01*
X1561560Y-775180D01*
X1562920Y-774320D01*
X1564319Y-773780D01*
X1565800Y-773780D01*
X1567280Y-774380D01*
X1568120Y-775080D01*
X1568720Y-775980D01*
X1572080Y-782680D01*
X1572500Y-784460D01*
X1572500Y-826400D01*
X1572800Y-829539D01*
X1573660Y-832380D01*
X1575060Y-834980D01*
X1577060Y-837420D01*
X1581320Y-841680D01*
X1582200Y-842980D01*
X1582500Y-844520D01*
X1582500Y-899479D01*
X1582200Y-901020D01*
X1581320Y-902320D01*
X1573560Y-910080D01*
X1571560Y-912520D01*
X1570160Y-915120D01*
X1569300Y-917960D01*
X1569019Y-920900D01*
X1569300Y-923840D01*
X1569600Y-925400D01*
X1569600Y-932080D01*
X1569240Y-933720D01*
X1566860Y-939000D01*
X1566020Y-940200D01*
X1564780Y-941040D01*
X1563340Y-941360D01*
X1561900Y-941120D01*
X1559420Y-940260D01*
X1556960Y-939980D01*
X1533779Y-939980D01*
X1531320Y-940260D01*
X1529180Y-941020D01*
X1527280Y-942220D01*
X1525680Y-943800D01*
X1524480Y-945720D01*
X1523740Y-947840D01*
X1523460Y-950320D01*
X1523460Y-1010879D01*
X1523740Y-1013360D01*
X1524480Y-1015480D01*
X1525680Y-1017400D01*
X1527280Y-1018980D01*
X1529180Y-1020180D01*
X1531320Y-1020939D01*
X1533779Y-1021220D01*
X1556960Y-1021220D01*
X1559420Y-1020939D01*
X1561560Y-1020180D01*
X1562920Y-1019320D01*
X1564319Y-1018780D01*
X1565800Y-1018780D01*
X1567180Y-1019320D01*
X1568560Y-1020180D01*
X1570680Y-1020939D01*
X1573160Y-1021220D01*
X1596320Y-1021220D01*
X1598800Y-1020939D01*
X1600920Y-1020180D01*
X1602300Y-1019320D01*
X1603680Y-1018780D01*
X1605180Y-1018780D01*
X1606560Y-1019320D01*
X1607920Y-1020180D01*
X1610060Y-1020939D01*
X1612520Y-1021220D01*
X1635700Y-1021220D01*
X1638160Y-1020939D01*
X1640300Y-1020180D01*
X1641660Y-1019320D01*
X1643060Y-1018780D01*
X1644540Y-1018780D01*
X1645920Y-1019320D01*
X1647300Y-1020180D01*
X1649420Y-1020939D01*
X1651900Y-1021220D01*
X1675060Y-1021220D01*
X1677540Y-1020939D01*
X1679660Y-1020180D01*
X1681040Y-1019320D01*
X1682420Y-1018780D01*
X1683920Y-1018780D01*
X1685300Y-1019320D01*
X1686660Y-1020180D01*
X1688800Y-1020939D01*
X1691260Y-1021220D01*
X1694440Y-1021220D01*
X1694440Y-998360D01*
X1689400Y-998360D01*
X1687860Y-998060D01*
X1686560Y-997180D01*
X1685700Y-995879D01*
X1685400Y-994360D01*
X1685400Y-966840D01*
X1685700Y-965320D01*
X1686560Y-964020D01*
X1687860Y-963139D01*
X1689400Y-962840D01*
X1694440Y-962840D01*
X1694440Y-939980D01*
X1691260Y-939980D01*
X1688800Y-940260D01*
X1686320Y-941140D01*
X1684820Y-941360D01*
X1683340Y-940980D01*
X1682100Y-940100D01*
X1681040Y-938180D01*
X1680780Y-936900D01*
X1680920Y-935600D01*
X1681500Y-934440D01*
X1683240Y-931940D01*
X1684860Y-928460D01*
X1685860Y-924740D01*
X1686200Y-920900D01*
X1685860Y-917060D01*
X1684860Y-913340D01*
X1683240Y-909860D01*
X1681020Y-906700D01*
X1678300Y-903980D01*
X1675160Y-901780D01*
X1671660Y-900140D01*
X1667940Y-899160D01*
X1664120Y-898820D01*
X1660280Y-899160D01*
X1656560Y-900140D01*
X1653060Y-901780D01*
X1649920Y-903980D01*
X1647200Y-906700D01*
X1646480Y-907720D01*
X1645260Y-908860D01*
X1643660Y-909400D01*
X1642000Y-909240D01*
X1640540Y-908420D01*
X1639560Y-907060D01*
X1639199Y-905440D01*
X1639199Y-784160D01*
X1639560Y-782500D01*
X1641980Y-777180D01*
X1642820Y-775980D01*
X1644060Y-775160D01*
X1645480Y-774840D01*
X1646940Y-775060D01*
X1649420Y-775939D01*
X1651900Y-776220D01*
X1675060Y-776220D01*
X1677540Y-775939D01*
X1679660Y-775180D01*
X1681040Y-774320D01*
X1682420Y-773780D01*
X1683920Y-773780D01*
X1685300Y-774320D01*
X1686660Y-775180D01*
X1688800Y-775939D01*
X1691260Y-776220D01*
X1694440Y-776220D01*
X1694440Y-753360D01*
X1689400Y-753360D01*
X1687860Y-753060D01*
X1686560Y-752180D01*
X1685700Y-750879D01*
X1685400Y-749360D01*
X1685400Y-721840D01*
X1685700Y-720320D01*
X1686560Y-719020D01*
X1687860Y-718139D01*
X1689400Y-717840D01*
X1694440Y-717840D01*
X1694440Y-694980D01*
X1691260Y-694980D01*
X1688800Y-695260D01*
X1686320Y-696140D01*
X1684840Y-696360D01*
X1683380Y-696020D01*
X1682140Y-695160D01*
X1681060Y-693300D01*
X1680760Y-692000D01*
X1680900Y-690680D01*
X1681480Y-689460D01*
X1683240Y-686940D01*
X1684860Y-683460D01*
X1685860Y-679740D01*
X1686200Y-675900D01*
X1685860Y-672060D01*
X1684860Y-668340D01*
X1683240Y-664860D01*
X1681020Y-661700D01*
X1678300Y-658980D01*
X1675160Y-656780D01*
X1671660Y-655140D01*
X1667940Y-654160D01*
X1664120Y-653820D01*
X1660280Y-654160D01*
X1656560Y-655140D01*
X1653060Y-656780D01*
X1649920Y-658980D01*
X1647200Y-661700D01*
X1646480Y-662720D01*
X1645260Y-663860D01*
X1643660Y-664400D01*
X1642000Y-664240D01*
X1640540Y-663420D01*
X1639560Y-662060D01*
X1639199Y-660440D01*
X1639199Y-604300D01*
X1638899Y-601160D01*
X1638040Y-598320D01*
X1636639Y-595720D01*
X1634640Y-593280D01*
X1535820Y-494460D01*
X1533380Y-492460D01*
X1530780Y-491060D01*
X1527940Y-490200D01*
X1524800Y-489900D01*
X1415700Y-489900D01*
X1414199Y-489600D01*
X1412920Y-488760D01*
X1412040Y-487520D01*
X1411720Y-486019D01*
X1411960Y-484500D01*
X1412760Y-483200D01*
X1413980Y-482280D01*
X1417780Y-480480D01*
X1419500Y-480100D01*
X1722080Y-480100D01*
X1723620Y-480400D01*
X1724900Y-481260D01*
X1861320Y-617680D01*
X1862180Y-618980D01*
X1862500Y-620500D01*
X1862500Y-812400D01*
X1862800Y-815540D01*
X1863660Y-818360D01*
X1865060Y-820980D01*
X1867060Y-823400D01*
X1931180Y-887540D01*
X1933620Y-889539D01*
X1936260Y-890939D01*
X1939100Y-891800D01*
X1942240Y-892099D01*
X1943980Y-892099D01*
X1945640Y-892440D01*
X1957660Y-897860D01*
X1959720Y-898560D01*
X1962220Y-898840D01*
X2009000Y-898840D01*
X2011480Y-898560D01*
X2013600Y-897820D01*
X2015520Y-896600D01*
X2017100Y-895020D01*
X2018300Y-893100D01*
X2019060Y-890980D01*
X2019340Y-888500D01*
X2019340Y-882360D01*
X2019640Y-880819D01*
X2020500Y-879520D01*
X2021800Y-878660D01*
X2023340Y-878360D01*
X2047080Y-878360D01*
X2047080Y-869560D01*
X2047320Y-868199D01*
X2048020Y-867000D01*
X2049079Y-866100D01*
X2051459Y-864720D01*
X2054680Y-862099D01*
X2057440Y-858980D01*
X2059660Y-855460D01*
X2061300Y-851640D01*
X2062300Y-847600D01*
X2062620Y-843460D01*
X2062300Y-839320D01*
X2061300Y-835280D01*
X2059660Y-831460D01*
X2057440Y-827940D01*
X2054680Y-824820D01*
X2051459Y-822200D01*
X2047860Y-820120D01*
X2043980Y-818640D01*
X2039900Y-817820D01*
X2035740Y-817640D01*
X2031620Y-818139D01*
X2027620Y-819300D01*
X2023880Y-821080D01*
X2020460Y-823439D01*
X2017460Y-826320D01*
X2014960Y-829659D01*
X2013020Y-833340D01*
X2011699Y-837280D01*
X2011040Y-841380D01*
X2011040Y-845540D01*
X2011940Y-851240D01*
X2011579Y-852700D01*
X2010700Y-853920D01*
X2009420Y-854720D01*
X2007940Y-855020D01*
X1962220Y-855020D01*
X1959720Y-855300D01*
X1957600Y-856020D01*
X1949680Y-859640D01*
X1948120Y-860000D01*
X1946519Y-859720D01*
X1945180Y-858820D01*
X1893860Y-807500D01*
X1893000Y-806220D01*
X1892700Y-804680D01*
X1892700Y-612780D01*
X1892380Y-609660D01*
X1891519Y-606820D01*
X1890140Y-604220D01*
X1888120Y-601780D01*
X1740800Y-454460D01*
X1738380Y-452460D01*
X1735760Y-451060D01*
X1732940Y-450200D01*
X1729800Y-449900D01*
X1419520Y-449900D01*
X1418000Y-449600D01*
X1416300Y-448340D01*
X1415420Y-447040D01*
X1415100Y-445480D01*
X1415100Y-423920D01*
X1415400Y-422380D01*
X1416279Y-421079D01*
X1417560Y-420220D01*
X1419100Y-419920D01*
X1420640Y-420220D01*
X1421920Y-421079D01*
X1423480Y-422640D01*
X1425380Y-423840D01*
X1427520Y-424580D01*
X1429980Y-424860D01*
X1520080Y-424860D01*
X1522560Y-424580D01*
X1524680Y-423840D01*
X1526600Y-422640D01*
X1528260Y-421320D01*
X1529680Y-420980D01*
X1531120Y-421180D01*
X1532400Y-421860D01*
X1533420Y-422680D01*
X1537240Y-425020D01*
X1541320Y-426700D01*
X1545600Y-427740D01*
X1550000Y-428080D01*
X1554379Y-427740D01*
X1558660Y-426700D01*
X1562740Y-425020D01*
X1566500Y-422720D01*
X1569860Y-419860D01*
X1572720Y-416500D01*
X1575020Y-412740D01*
X1576699Y-408660D01*
X1577740Y-404380D01*
X1578080Y-400000D01*
X1577740Y-395600D01*
X1576699Y-391320D01*
X1575020Y-387239D01*
X1572720Y-383480D01*
X1569860Y-380120D01*
X1566500Y-377260D01*
X1562740Y-374960D01*
X1558660Y-373280D01*
X1554379Y-372239D01*
X1550000Y-371900D01*
X1545600Y-372239D01*
X1541320Y-373280D01*
X1537240Y-374960D01*
X1533420Y-377299D01*
X1532360Y-378140D01*
X1530820Y-378880D01*
X1529100Y-378920D01*
X1527540Y-378220D01*
X1526399Y-376940D01*
X1525900Y-375300D01*
X1526140Y-373600D01*
X1527060Y-372160D01*
X1528180Y-371040D01*
X1529379Y-369120D01*
X1530140Y-367000D01*
X1530400Y-364540D01*
X1530400Y-359880D01*
X1500180Y-359880D01*
X1500180Y-371120D01*
X1499860Y-372660D01*
X1499000Y-373960D01*
X1497700Y-374820D01*
X1496180Y-375120D01*
X1453899Y-375120D01*
X1452360Y-374820D01*
X1451060Y-373960D01*
X1450200Y-372660D01*
X1449900Y-371120D01*
X1449900Y-359880D01*
X1419100Y-359880D01*
X1417560Y-359560D01*
X1416279Y-358700D01*
X1415400Y-357400D01*
X1415100Y-355880D01*
X1415100Y-344120D01*
X1415400Y-342580D01*
X1416279Y-341280D01*
X1417560Y-340420D01*
X1419100Y-340120D01*
X1449900Y-340120D01*
X1449900Y-309880D01*
X1419100Y-309880D01*
X1417560Y-309560D01*
X1416279Y-308700D01*
X1415400Y-307400D01*
X1415100Y-305880D01*
X1415100Y-294120D01*
X1415400Y-292580D01*
X1416279Y-291280D01*
X1417560Y-290420D01*
X1419100Y-290120D01*
X1449900Y-290120D01*
X1449900Y-259880D01*
X1419100Y-259880D01*
X1417560Y-259560D01*
X1416279Y-258700D01*
X1415400Y-257399D01*
X1415100Y-255880D01*
X1415100Y-244120D01*
X1415400Y-242580D01*
X1416279Y-241280D01*
X1417560Y-240420D01*
X1419100Y-240120D01*
X1449900Y-240120D01*
X1449900Y-209880D01*
X1419660Y-209880D01*
X1419660Y-214540D01*
X1419940Y-217000D01*
X1420680Y-219120D01*
X1421879Y-221040D01*
X1423000Y-222160D01*
X1423880Y-223460D01*
X1424180Y-225000D01*
X1423880Y-226520D01*
X1423000Y-227820D01*
X1421879Y-228939D01*
X1420680Y-230859D01*
X1420300Y-231920D01*
X1419540Y-233240D01*
X1418320Y-234180D01*
X1416840Y-234600D01*
X1415320Y-234420D01*
X1413980Y-233680D01*
X1413000Y-232500D01*
X1412540Y-231620D01*
X1410540Y-229180D01*
X1385360Y-203939D01*
X1373720Y-188100D01*
X1373220Y-187160D01*
X1372960Y-186119D01*
X1372660Y-182960D01*
X1371920Y-180859D01*
X1371399Y-180020D01*
X1370820Y-178440D01*
X1370960Y-176740D01*
X1371780Y-175260D01*
X1373140Y-174259D01*
X1374800Y-173900D01*
X1417820Y-173900D01*
X1419460Y-174259D01*
X1420820Y-175260D01*
X1421639Y-176740D01*
X1421780Y-178440D01*
X1421200Y-180020D01*
X1420680Y-180859D01*
X1419940Y-182979D01*
X1419660Y-185460D01*
X1419660Y-190120D01*
X1449900Y-190120D01*
X1449900Y-177900D01*
X1450200Y-176360D01*
X1451060Y-175080D01*
X1452360Y-174200D01*
X1453899Y-173900D01*
X1496180Y-173900D01*
X1497700Y-174200D01*
X1499000Y-175080D01*
X1499860Y-176360D01*
X1500180Y-177900D01*
X1500180Y-190120D01*
X1530400Y-190120D01*
X1530400Y-185460D01*
X1530140Y-182979D01*
X1529379Y-180859D01*
X1528860Y-180020D01*
X1528280Y-178440D01*
X1528420Y-176740D01*
X1529240Y-175260D01*
X1530600Y-174259D01*
X1532260Y-173900D01*
X1635880Y-173900D01*
X1637420Y-174200D01*
X1638720Y-175080D01*
X1753720Y-290080D01*
X1754600Y-291380D01*
X1754900Y-292920D01*
X1754900Y-409799D01*
X1755200Y-412939D01*
X1756060Y-415780D01*
X1757460Y-418380D01*
X1759460Y-420820D01*
X1891080Y-552440D01*
X1893520Y-554440D01*
X1896120Y-555840D01*
X1898959Y-556700D01*
X1902100Y-557000D01*
X1943940Y-557000D01*
X1945600Y-557360D01*
X1957600Y-562840D01*
X1959720Y-563560D01*
X1962220Y-563840D01*
X2009000Y-563840D01*
X2011480Y-563560D01*
X2013600Y-562820D01*
X2015520Y-561600D01*
X2017100Y-560020D01*
X2018300Y-558100D01*
X2019060Y-555980D01*
X2019340Y-553500D01*
X2019340Y-547360D01*
X2019640Y-545820D01*
X2020500Y-544520D01*
X2021800Y-543660D01*
X2023340Y-543360D01*
X2047080Y-543360D01*
X2047080Y-534560D01*
X2047320Y-533200D01*
X2048020Y-532000D01*
X2049079Y-531100D01*
X2051459Y-529720D01*
X2054680Y-527100D01*
X2057440Y-523980D01*
X2059660Y-520460D01*
X2061300Y-516640D01*
X2062300Y-512600D01*
X2062620Y-508459D01*
X2062300Y-504320D01*
X2061300Y-500280D01*
X2059660Y-496460D01*
X2057440Y-492939D01*
X2054680Y-489820D01*
X2051459Y-487200D01*
X2047860Y-485120D01*
X2043980Y-483640D01*
X2039900Y-482819D01*
X2035740Y-482640D01*
X2031620Y-483140D01*
X2027620Y-484300D01*
X2023880Y-486079D01*
X2020460Y-488440D01*
X2017460Y-491320D01*
X2014960Y-494660D01*
X2013020Y-498340D01*
X2011699Y-502280D01*
X2011040Y-506380D01*
X2011040Y-510540D01*
X2011940Y-516240D01*
X2011579Y-517700D01*
X2010700Y-518920D01*
X2009420Y-519720D01*
X2007940Y-520020D01*
X1962220Y-520020D01*
X1959720Y-520300D01*
X1957640Y-520980D01*
X1945580Y-526440D01*
X1943920Y-526800D01*
X1909820Y-526800D01*
X1908280Y-526500D01*
X1906980Y-525620D01*
X1786279Y-404920D01*
X1785400Y-403620D01*
X1785100Y-402080D01*
X1785100Y-285200D01*
X1784800Y-282060D01*
X1783940Y-279220D01*
X1782540Y-276620D01*
X1780540Y-274180D01*
X1658100Y-151760D01*
X1657160Y-150260D01*
X1656960Y-148500D01*
X1657520Y-146840D01*
X1658760Y-145560D01*
X1660420Y-144960D01*
X1662180Y-145120D01*
X1663080Y-145420D01*
X1666620Y-145900D01*
X1670200Y-145740D01*
X1673680Y-144940D01*
X1676960Y-143540D01*
X1680160Y-141440D01*
X1681699Y-140820D01*
X1683360Y-140900D01*
X1684840Y-141640D01*
X1686080Y-142620D01*
X1689220Y-144320D01*
X1692620Y-145420D01*
X1696160Y-145900D01*
X1699720Y-145740D01*
X1703200Y-144940D01*
X1706500Y-143540D01*
X1709680Y-141440D01*
X1711220Y-140820D01*
X1712900Y-140900D01*
X1714379Y-141640D01*
X1715600Y-142620D01*
X1718740Y-144320D01*
X1722140Y-145420D01*
X1725680Y-145900D01*
X1729259Y-145740D01*
X1732740Y-144940D01*
X1736020Y-143540D01*
X1739199Y-141440D01*
X1740760Y-140820D01*
X1742420Y-140900D01*
X1743899Y-141640D01*
X1745120Y-142620D01*
X1748260Y-144320D01*
X1751660Y-145420D01*
X1755200Y-145900D01*
X1758779Y-145740D01*
X1762260Y-144940D01*
X1765540Y-143540D01*
X1768740Y-141440D01*
X1770280Y-140820D01*
X1771940Y-140900D01*
X1773420Y-141640D01*
X1774660Y-142620D01*
X1777800Y-144320D01*
X1781200Y-145420D01*
X1784740Y-145900D01*
X1788300Y-145740D01*
X1791780Y-144940D01*
X1795080Y-143540D01*
X1798260Y-141440D01*
X1799800Y-140820D01*
X1801480Y-140900D01*
X1802960Y-141640D01*
X1804180Y-142620D01*
X1807320Y-144320D01*
X1810720Y-145420D01*
X1814259Y-145900D01*
X1817840Y-145740D01*
X1821320Y-144940D01*
X1822520Y-144420D01*
X1823779Y-144120D01*
X1825040Y-144220D01*
X1826800Y-145060D01*
X1828920Y-145820D01*
X1831380Y-146100D01*
X2077520Y-146100D01*
X2078920Y-146340D01*
X2080140Y-147080D01*
X2081040Y-148180D01*
X2086420Y-158100D01*
X2092520Y-170900D01*
X2097940Y-184020D01*
X2102660Y-197380D01*
X2106680Y-210980D01*
X2110000Y-224780D01*
X2112580Y-238720D01*
X2114420Y-252780D01*
X2115520Y-266920D01*
X2115900Y-281180D01*
X2115900Y-1129320D01*
X2115540Y-1132300D01*
X2114920Y-1134120D01*
X2113940Y-1135780D01*
X2112660Y-1137220D01*
X2111120Y-1138380D01*
X2109380Y-1139220D01*
X2107520Y-1139700D01*
X2105460Y-1139860D01*
X2087640Y-1138920D01*
X2085900Y-1138960D01*
X2082260Y-1139320D01*
X2080020Y-1139760D01*
X2076560Y-1140820D01*
X2074460Y-1141680D01*
X2071260Y-1143380D01*
X2069360Y-1144660D01*
X2066560Y-1146960D01*
X2064960Y-1148560D01*
X2062660Y-1151360D01*
X2061399Y-1153260D01*
X2059680Y-1156460D01*
X2058820Y-1158560D01*
X2057760Y-1162020D01*
X2057320Y-1164240D01*
X2056900Y-1169100D01*
X2056900Y-1601900D01*
X2057320Y-1606740D01*
X2057760Y-1608959D01*
X2058820Y-1612440D01*
X2059680Y-1614540D01*
X2061399Y-1617740D01*
X2062660Y-1619620D01*
X2064960Y-1622420D01*
X2066560Y-1624040D01*
X2069360Y-1626339D01*
X2071260Y-1627600D01*
X2074460Y-1629300D01*
X2076560Y-1630180D01*
X2080020Y-1631220D01*
X2082260Y-1631680D01*
X2087100Y-1632100D01*
X2105320Y-1632100D01*
X2108300Y-1632440D01*
X2110120Y-1633080D01*
X2111780Y-1634060D01*
X2113220Y-1635340D01*
X2114380Y-1636860D01*
X2115220Y-1638600D01*
X2115700Y-1640460D01*
X2115900Y-1642660D01*
X2115900Y-1844820D01*
X2115520Y-1859280D01*
X2114400Y-1873420D01*
X2112540Y-1887480D01*
X2109940Y-1901420D01*
X2106640Y-1915200D01*
X2102600Y-1928800D01*
X2097860Y-1942180D01*
X2092420Y-1955280D01*
X2086320Y-1968080D01*
X2079540Y-1980540D01*
X2072120Y-1992620D01*
X2064100Y-2004300D01*
X2055460Y-2015560D01*
X2046240Y-2026339D01*
X2036480Y-2036620D01*
X2026180Y-2046380D01*
X2015400Y-2055580D01*
X2004139Y-2064220D01*
X1992440Y-2072240D01*
X1980360Y-2079640D01*
X1967880Y-2086399D01*
X1955080Y-2092520D01*
X1941980Y-2097940D01*
X1928600Y-2102660D01*
X1915000Y-2106680D01*
X1901220Y-2110000D01*
X1887260Y-2112560D01*
X1873200Y-2114420D01*
X1859060Y-2115520D01*
X1844820Y-2115900D01*
G37*

%LPC*%
G36*
X928560Y-2102440D02*
G01*
X959599Y-2102440D01*
X962080Y-2102160D01*
X964200Y-2101400D01*
X966120Y-2100200D01*
X967700Y-2098620D01*
X968920Y-2096699D01*
X969659Y-2094580D01*
X969940Y-2092100D01*
X969940Y-2061060D01*
X969659Y-2058600D01*
X968920Y-2056459D01*
X967700Y-2054560D01*
X966120Y-2052960D01*
X964200Y-2051759D01*
X962080Y-2051020D01*
X959599Y-2050740D01*
X928560Y-2050740D01*
X925860Y-2051040D01*
X908480Y-2054920D01*
X907520Y-2055020D01*
X906420Y-2054840D01*
X902580Y-2054500D01*
X898740Y-2054840D01*
X895020Y-2055840D01*
X891540Y-2057460D01*
X888379Y-2059680D01*
X885660Y-2062400D01*
X883460Y-2065540D01*
X881820Y-2069040D01*
X880840Y-2072760D01*
X880500Y-2076600D01*
X880840Y-2080420D01*
X881820Y-2084139D01*
X883460Y-2087640D01*
X885660Y-2090780D01*
X888379Y-2093500D01*
X891540Y-2095720D01*
X895020Y-2097340D01*
X898740Y-2098340D01*
X902580Y-2098680D01*
X907540Y-2098160D01*
X908480Y-2098260D01*
X925920Y-2102140D01*
G37*
G36*
X1246320Y-2070240D02*
G01*
X1258360Y-2070240D01*
X1258360Y-2043940D01*
X1236000Y-2043940D01*
X1236000Y-2059920D01*
X1236280Y-2062380D01*
X1237020Y-2064500D01*
X1238220Y-2066420D01*
X1239820Y-2068020D01*
X1241720Y-2069220D01*
X1243860Y-2069960D01*
G37*
G36*
X1371620Y-2070240D02*
G01*
X1383660Y-2070240D01*
X1386140Y-2069980D01*
X1388260Y-2069220D01*
X1390180Y-2068020D01*
X1391759Y-2066440D01*
X1392960Y-2064520D01*
X1393720Y-2062400D01*
X1394000Y-2059920D01*
X1394000Y-2043940D01*
X1371620Y-2043940D01*
G37*
G36*
X1292880Y-2070240D02*
G01*
X1304920Y-2070240D01*
X1307400Y-2069960D01*
X1309520Y-2069220D01*
X1311440Y-2068020D01*
X1312160Y-2067280D01*
X1313460Y-2066420D01*
X1314980Y-2066120D01*
X1316519Y-2066420D01*
X1317820Y-2067280D01*
X1318560Y-2068020D01*
X1320460Y-2069220D01*
X1322600Y-2069980D01*
X1325060Y-2070240D01*
X1337100Y-2070240D01*
X1337100Y-2043940D01*
X1292880Y-2043940D01*
G37*
G36*
X1438480Y-2069780D02*
G01*
X1438480Y-2046699D01*
X1420000Y-2046699D01*
X1420440Y-2048779D01*
X1422120Y-2053280D01*
X1424420Y-2057500D01*
X1427320Y-2061360D01*
X1430720Y-2064760D01*
X1434560Y-2067640D01*
G37*
G36*
X1467100Y-2069780D02*
G01*
X1471020Y-2067640D01*
X1474860Y-2064760D01*
X1478260Y-2061360D01*
X1481140Y-2057500D01*
X1483460Y-2053280D01*
X1485140Y-2048779D01*
X1485580Y-2046699D01*
X1467100Y-2046699D01*
G37*
G36*
X1162880Y-2069760D02*
G01*
X1162880Y-2046699D01*
X1144400Y-2046699D01*
X1144860Y-2048779D01*
X1146540Y-2053280D01*
X1148840Y-2057500D01*
X1151720Y-2061339D01*
X1155120Y-2064740D01*
X1158980Y-2067640D01*
G37*
G36*
X1191500Y-2069760D02*
G01*
X1195420Y-2067640D01*
X1199280Y-2064740D01*
X1202680Y-2061339D01*
X1205560Y-2057500D01*
X1207860Y-2053280D01*
X1209540Y-2048779D01*
X1210000Y-2046699D01*
X1191500Y-2046699D01*
G37*
G36*
X1467100Y-2004300D02*
G01*
X1485580Y-2004300D01*
X1485140Y-2002220D01*
X1483460Y-1997720D01*
X1481140Y-1993500D01*
X1478260Y-1989640D01*
X1474860Y-1986240D01*
X1471020Y-1983360D01*
X1467100Y-1981220D01*
G37*
G36*
X1191500Y-2004300D02*
G01*
X1210000Y-2004300D01*
X1209540Y-2002220D01*
X1207860Y-1997700D01*
X1205560Y-1993480D01*
X1202680Y-1989640D01*
X1199280Y-1986240D01*
X1195420Y-1983360D01*
X1191500Y-1981220D01*
G37*
G36*
X1420000Y-2004300D02*
G01*
X1438480Y-2004300D01*
X1438480Y-1981220D01*
X1434560Y-1983360D01*
X1430720Y-1986240D01*
X1427320Y-1989640D01*
X1424420Y-1993500D01*
X1422120Y-1997720D01*
X1420440Y-2002220D01*
G37*
G36*
X1144400Y-2004300D02*
G01*
X1162880Y-2004300D01*
X1162880Y-1981220D01*
X1158980Y-1983360D01*
X1155120Y-1986240D01*
X1151720Y-1989640D01*
X1148840Y-1993480D01*
X1146540Y-1997700D01*
X1144860Y-2002220D01*
G37*
G36*
X1371620Y-2001540D02*
G01*
X1394000Y-2001540D01*
X1394000Y-1985580D01*
X1393720Y-1983100D01*
X1392960Y-1980980D01*
X1391759Y-1979060D01*
X1390180Y-1977460D01*
X1388260Y-1976260D01*
X1386140Y-1975520D01*
X1383660Y-1975240D01*
X1371620Y-1975240D01*
G37*
G36*
X1236000Y-2001540D02*
G01*
X1258360Y-2001540D01*
X1258360Y-1975240D01*
X1246320Y-1975240D01*
X1243860Y-1975520D01*
X1241720Y-1976260D01*
X1239820Y-1977460D01*
X1238220Y-1979060D01*
X1237020Y-1980960D01*
X1236280Y-1983100D01*
X1236000Y-1985560D01*
G37*
G36*
X1292880Y-2001540D02*
G01*
X1337100Y-2001540D01*
X1337100Y-1975240D01*
X1325060Y-1975240D01*
X1322600Y-1975520D01*
X1320460Y-1976260D01*
X1318560Y-1977460D01*
X1317820Y-1978200D01*
X1316519Y-1979060D01*
X1315000Y-1979360D01*
X1313460Y-1979060D01*
X1312180Y-1978200D01*
X1311440Y-1977460D01*
X1309520Y-1976260D01*
X1307400Y-1975520D01*
X1304920Y-1975240D01*
X1292880Y-1975240D01*
G37*
G36*
X1770000Y-1991579D02*
G01*
X1775420Y-1991220D01*
X1780760Y-1990160D01*
X1785900Y-1988420D01*
X1790780Y-1986020D01*
X1795320Y-1982980D01*
X1799400Y-1979400D01*
X1802980Y-1975320D01*
X1806020Y-1970780D01*
X1808420Y-1965900D01*
X1810160Y-1960760D01*
X1811220Y-1955420D01*
X1811579Y-1950000D01*
X1811220Y-1944560D01*
X1810160Y-1939220D01*
X1808420Y-1934079D01*
X1806020Y-1929199D01*
X1802980Y-1924680D01*
X1799400Y-1920580D01*
X1795320Y-1917000D01*
X1790780Y-1913980D01*
X1785900Y-1911560D01*
X1780760Y-1909820D01*
X1775420Y-1908760D01*
X1770000Y-1908400D01*
X1764560Y-1908760D01*
X1759220Y-1909820D01*
X1754079Y-1911560D01*
X1749199Y-1913980D01*
X1744680Y-1917000D01*
X1740580Y-1920580D01*
X1737000Y-1924680D01*
X1733980Y-1929199D01*
X1731560Y-1934079D01*
X1729820Y-1939220D01*
X1728760Y-1944560D01*
X1728400Y-1950000D01*
X1728760Y-1955420D01*
X1729820Y-1960760D01*
X1731560Y-1965900D01*
X1733980Y-1970780D01*
X1737000Y-1975320D01*
X1740580Y-1979400D01*
X1744680Y-1982980D01*
X1749199Y-1986020D01*
X1754079Y-1988420D01*
X1759220Y-1990160D01*
X1764560Y-1991220D01*
G37*
G36*
X1851740Y-1987260D02*
G01*
X1851740Y-1968240D01*
X1832720Y-1968240D01*
X1833980Y-1970780D01*
X1837000Y-1975320D01*
X1840580Y-1979400D01*
X1844680Y-1982980D01*
X1849199Y-1986020D01*
G37*
G36*
X1888240Y-1987260D02*
G01*
X1890780Y-1986020D01*
X1895320Y-1982980D01*
X1899400Y-1979400D01*
X1902980Y-1975320D01*
X1906020Y-1970780D01*
X1907260Y-1968240D01*
X1888240Y-1968240D01*
G37*
G36*
X1372640Y-1955680D02*
G01*
X1373839Y-1955680D01*
X1376300Y-1955400D01*
X1378440Y-1954660D01*
X1380340Y-1953460D01*
X1381940Y-1951860D01*
X1383140Y-1949960D01*
X1384079Y-1948220D01*
X1385320Y-1947280D01*
X1386840Y-1946879D01*
X1388400Y-1947100D01*
X1389740Y-1947900D01*
X1390820Y-1948880D01*
X1395060Y-1951740D01*
X1397600Y-1952980D01*
X1397600Y-1935780D01*
X1374560Y-1935780D01*
X1373560Y-1935660D01*
X1372640Y-1935280D01*
G37*
G36*
X1429180Y-1953060D02*
G01*
X1433899Y-1950380D01*
X1437920Y-1947240D01*
X1441480Y-1943560D01*
X1444480Y-1939420D01*
X1446420Y-1935780D01*
X1429180Y-1935780D01*
G37*
G36*
X1200800Y-1952980D02*
G01*
X1200800Y-1935780D01*
X1183580Y-1935780D01*
X1184220Y-1937200D01*
X1186940Y-1941540D01*
X1190220Y-1945460D01*
X1194020Y-1948880D01*
X1198260Y-1951740D01*
G37*
G36*
X1888240Y-1931740D02*
G01*
X1907260Y-1931740D01*
X1906020Y-1929199D01*
X1902980Y-1924680D01*
X1899400Y-1920580D01*
X1895320Y-1917000D01*
X1890780Y-1913980D01*
X1888240Y-1912720D01*
G37*
G36*
X1832720Y-1931740D02*
G01*
X1851740Y-1931740D01*
X1851740Y-1912720D01*
X1849199Y-1913980D01*
X1844680Y-1917000D01*
X1840580Y-1920580D01*
X1837000Y-1924680D01*
X1833980Y-1929199D01*
G37*
G36*
X755000Y-1919840D02*
G01*
X758820Y-1919500D01*
X762540Y-1918500D01*
X766040Y-1916879D01*
X769180Y-1914660D01*
X771900Y-1911940D01*
X774120Y-1908800D01*
X775740Y-1905300D01*
X776740Y-1901579D01*
X776940Y-1899860D01*
X777200Y-1898839D01*
X777420Y-1897120D01*
X778319Y-1881200D01*
X778319Y-1842120D01*
X778040Y-1839640D01*
X777300Y-1837520D01*
X776100Y-1835600D01*
X774500Y-1834000D01*
X772600Y-1832800D01*
X770460Y-1832060D01*
X768000Y-1831780D01*
X746800Y-1831780D01*
X744320Y-1832060D01*
X742200Y-1832800D01*
X740819Y-1833680D01*
X739440Y-1834220D01*
X737960Y-1834220D01*
X736560Y-1833680D01*
X735200Y-1832800D01*
X733060Y-1832060D01*
X730600Y-1831780D01*
X727900Y-1831780D01*
X727900Y-1849220D01*
X732460Y-1849220D01*
X734000Y-1849540D01*
X735300Y-1850400D01*
X736160Y-1851699D01*
X736460Y-1853220D01*
X736460Y-1869920D01*
X736160Y-1871440D01*
X735300Y-1872740D01*
X734000Y-1873600D01*
X732460Y-1873920D01*
X727900Y-1873920D01*
X727900Y-1891360D01*
X729100Y-1891360D01*
X730720Y-1891699D01*
X732039Y-1892660D01*
X732880Y-1894060D01*
X733080Y-1895700D01*
X732900Y-1897760D01*
X733240Y-1901579D01*
X734240Y-1905300D01*
X735860Y-1908800D01*
X738080Y-1911940D01*
X740800Y-1914660D01*
X743940Y-1916879D01*
X747440Y-1918500D01*
X751160Y-1919500D01*
G37*
G36*
X1372540Y-1904840D02*
G01*
X1372900Y-1904560D01*
X1374560Y-1904199D01*
X1397600Y-1904199D01*
X1397600Y-1887000D01*
X1395060Y-1888240D01*
X1390820Y-1891100D01*
X1389740Y-1892080D01*
X1388400Y-1892880D01*
X1386840Y-1893100D01*
X1385320Y-1892720D01*
X1384079Y-1891780D01*
X1383140Y-1890040D01*
X1381940Y-1888120D01*
X1380340Y-1886519D01*
X1378440Y-1885320D01*
X1376300Y-1884580D01*
X1373839Y-1884300D01*
X1372640Y-1884300D01*
X1372640Y-1904700D01*
G37*
G36*
X1183580Y-1904199D02*
G01*
X1200800Y-1904199D01*
X1200800Y-1887000D01*
X1198260Y-1888240D01*
X1194020Y-1891100D01*
X1190220Y-1894520D01*
X1186940Y-1898440D01*
X1184220Y-1902780D01*
G37*
G36*
X1429180Y-1904199D02*
G01*
X1446420Y-1904199D01*
X1444480Y-1900560D01*
X1441480Y-1896420D01*
X1437920Y-1892740D01*
X1433899Y-1889600D01*
X1429180Y-1886920D01*
G37*
G36*
X1770000Y-1891579D02*
G01*
X1775420Y-1891220D01*
X1780760Y-1890160D01*
X1785900Y-1888420D01*
X1790780Y-1886020D01*
X1795320Y-1882980D01*
X1799400Y-1879400D01*
X1802980Y-1875320D01*
X1806020Y-1870780D01*
X1808420Y-1865900D01*
X1810160Y-1860760D01*
X1811220Y-1855420D01*
X1811579Y-1850000D01*
X1811220Y-1844560D01*
X1810160Y-1839220D01*
X1808420Y-1834079D01*
X1806020Y-1829199D01*
X1802980Y-1824680D01*
X1799400Y-1820580D01*
X1795320Y-1817000D01*
X1790780Y-1813980D01*
X1785900Y-1811560D01*
X1780760Y-1809820D01*
X1775420Y-1808760D01*
X1770000Y-1808400D01*
X1764560Y-1808760D01*
X1759220Y-1809820D01*
X1754079Y-1811560D01*
X1749199Y-1813980D01*
X1744680Y-1817000D01*
X1740580Y-1820580D01*
X1737000Y-1824680D01*
X1733980Y-1829199D01*
X1731560Y-1834079D01*
X1729820Y-1839220D01*
X1728760Y-1844560D01*
X1728400Y-1850000D01*
X1728760Y-1855420D01*
X1729820Y-1860760D01*
X1731560Y-1865900D01*
X1733980Y-1870780D01*
X1737000Y-1875320D01*
X1740580Y-1879400D01*
X1744680Y-1882980D01*
X1749199Y-1886020D01*
X1754079Y-1888420D01*
X1759220Y-1890160D01*
X1764560Y-1891220D01*
G37*
G36*
X1870000Y-1891579D02*
G01*
X1875420Y-1891220D01*
X1880760Y-1890160D01*
X1885900Y-1888420D01*
X1890780Y-1886020D01*
X1895320Y-1882980D01*
X1899400Y-1879400D01*
X1902980Y-1875320D01*
X1906020Y-1870780D01*
X1908420Y-1865900D01*
X1910160Y-1860760D01*
X1911220Y-1855420D01*
X1911579Y-1850000D01*
X1911220Y-1844560D01*
X1910160Y-1839220D01*
X1908420Y-1834079D01*
X1906020Y-1829199D01*
X1902980Y-1824680D01*
X1899400Y-1820580D01*
X1895320Y-1817000D01*
X1890780Y-1813980D01*
X1885900Y-1811560D01*
X1880760Y-1809820D01*
X1875420Y-1808760D01*
X1870000Y-1808400D01*
X1864560Y-1808760D01*
X1859220Y-1809820D01*
X1854079Y-1811560D01*
X1849199Y-1813980D01*
X1844680Y-1817000D01*
X1840580Y-1820580D01*
X1837000Y-1824680D01*
X1833980Y-1829199D01*
X1831560Y-1834079D01*
X1829820Y-1839220D01*
X1828760Y-1844560D01*
X1828400Y-1850000D01*
X1828760Y-1855420D01*
X1829820Y-1860760D01*
X1831560Y-1865900D01*
X1833980Y-1870780D01*
X1837000Y-1875320D01*
X1840580Y-1879400D01*
X1844680Y-1882980D01*
X1849199Y-1886020D01*
X1854079Y-1888420D01*
X1859220Y-1890160D01*
X1864560Y-1891220D01*
G37*
G36*
X493800Y-1881060D02*
G01*
X501000Y-1880500D01*
X508080Y-1879220D01*
X515020Y-1877200D01*
X521700Y-1874480D01*
X528080Y-1871080D01*
X534060Y-1867060D01*
X539600Y-1862440D01*
X544640Y-1857260D01*
X549120Y-1851600D01*
X553000Y-1845520D01*
X556220Y-1839060D01*
X558760Y-1832300D01*
X560600Y-1825320D01*
X561720Y-1818200D01*
X562080Y-1811000D01*
X561720Y-1803779D01*
X560600Y-1796660D01*
X558760Y-1789680D01*
X556220Y-1782920D01*
X553000Y-1776459D01*
X549120Y-1770380D01*
X544640Y-1764720D01*
X539600Y-1759540D01*
X534060Y-1754920D01*
X528080Y-1750900D01*
X521700Y-1747500D01*
X515020Y-1744780D01*
X508080Y-1742760D01*
X501000Y-1741480D01*
X493800Y-1740920D01*
X486580Y-1741100D01*
X479420Y-1742040D01*
X472400Y-1743680D01*
X465580Y-1746060D01*
X459040Y-1749120D01*
X452860Y-1752840D01*
X447080Y-1757160D01*
X441800Y-1762060D01*
X437020Y-1767480D01*
X432840Y-1773380D01*
X429300Y-1779660D01*
X426400Y-1786260D01*
X424200Y-1793140D01*
X422740Y-1800200D01*
X421980Y-1807380D01*
X421980Y-1814600D01*
X422740Y-1821780D01*
X424200Y-1828839D01*
X426400Y-1835720D01*
X429300Y-1842320D01*
X432840Y-1848600D01*
X437020Y-1854500D01*
X441800Y-1859920D01*
X447080Y-1864820D01*
X452860Y-1869139D01*
X459040Y-1872860D01*
X465580Y-1875920D01*
X472400Y-1878300D01*
X479420Y-1879940D01*
X486580Y-1880880D01*
G37*
G36*
X799140Y-1855640D02*
G01*
X814620Y-1855640D01*
X814620Y-1843120D01*
X809460Y-1843120D01*
X807000Y-1843400D01*
X804880Y-1844139D01*
X802960Y-1845340D01*
X801360Y-1846940D01*
X800160Y-1848839D01*
X799419Y-1850980D01*
X799140Y-1853440D01*
G37*
G36*
X1070360Y-1842380D02*
G01*
X1075520Y-1842380D01*
X1077980Y-1842100D01*
X1080120Y-1841360D01*
X1082020Y-1840160D01*
X1083620Y-1838560D01*
X1084820Y-1836660D01*
X1085560Y-1834520D01*
X1085840Y-1832060D01*
X1085840Y-1829860D01*
X1070360Y-1829860D01*
G37*
G36*
X1044460Y-1842380D02*
G01*
X1049620Y-1842380D01*
X1049620Y-1829860D01*
X1034140Y-1829860D01*
X1034140Y-1832060D01*
X1034419Y-1834520D01*
X1035160Y-1836660D01*
X1036360Y-1838560D01*
X1037960Y-1840160D01*
X1039880Y-1841360D01*
X1042000Y-1842100D01*
G37*
G36*
X742920Y-1810560D02*
G01*
X748080Y-1810560D01*
X750540Y-1810280D01*
X752660Y-1809540D01*
X754580Y-1808340D01*
X756180Y-1806740D01*
X757380Y-1804840D01*
X758120Y-1802700D01*
X758400Y-1800240D01*
X758400Y-1794100D01*
X742920Y-1794100D01*
G37*
G36*
X1770000Y-1791579D02*
G01*
X1775420Y-1791220D01*
X1780760Y-1790160D01*
X1785900Y-1788420D01*
X1790780Y-1786020D01*
X1795320Y-1782980D01*
X1799400Y-1779400D01*
X1802980Y-1775320D01*
X1806020Y-1770780D01*
X1808420Y-1765900D01*
X1810160Y-1760760D01*
X1811220Y-1755420D01*
X1811579Y-1750000D01*
X1811220Y-1744560D01*
X1810160Y-1739220D01*
X1808420Y-1734079D01*
X1806020Y-1729199D01*
X1802980Y-1724680D01*
X1799400Y-1720580D01*
X1795320Y-1717000D01*
X1790780Y-1713980D01*
X1785900Y-1711560D01*
X1780760Y-1709820D01*
X1775420Y-1708760D01*
X1770000Y-1708400D01*
X1764560Y-1708760D01*
X1759220Y-1709820D01*
X1754079Y-1711560D01*
X1749199Y-1713980D01*
X1744680Y-1717000D01*
X1740580Y-1720580D01*
X1737000Y-1724680D01*
X1733980Y-1729199D01*
X1731560Y-1734079D01*
X1729820Y-1739220D01*
X1728760Y-1744560D01*
X1728400Y-1750000D01*
X1728760Y-1755420D01*
X1729820Y-1760760D01*
X1731560Y-1765900D01*
X1733980Y-1770780D01*
X1737000Y-1775320D01*
X1740580Y-1779400D01*
X1744680Y-1782980D01*
X1749199Y-1786020D01*
X1754079Y-1788420D01*
X1759220Y-1790160D01*
X1764560Y-1791220D01*
G37*
G36*
X1870000Y-1791579D02*
G01*
X1875420Y-1791220D01*
X1880760Y-1790160D01*
X1885900Y-1788420D01*
X1890780Y-1786020D01*
X1895320Y-1782980D01*
X1899400Y-1779400D01*
X1902980Y-1775320D01*
X1906020Y-1770780D01*
X1908420Y-1765900D01*
X1910160Y-1760760D01*
X1911220Y-1755420D01*
X1911579Y-1750000D01*
X1911220Y-1744560D01*
X1910160Y-1739220D01*
X1908420Y-1734079D01*
X1906020Y-1729199D01*
X1902980Y-1724680D01*
X1899400Y-1720580D01*
X1895320Y-1717000D01*
X1890780Y-1713980D01*
X1885900Y-1711560D01*
X1880760Y-1709820D01*
X1875420Y-1708760D01*
X1870000Y-1708400D01*
X1864560Y-1708760D01*
X1859220Y-1709820D01*
X1854079Y-1711560D01*
X1849199Y-1713980D01*
X1844680Y-1717000D01*
X1840580Y-1720580D01*
X1837000Y-1724680D01*
X1833980Y-1729199D01*
X1831560Y-1734079D01*
X1829820Y-1739220D01*
X1828760Y-1744560D01*
X1828400Y-1750000D01*
X1828760Y-1755420D01*
X1829820Y-1760760D01*
X1831560Y-1765900D01*
X1833980Y-1770780D01*
X1837000Y-1775320D01*
X1840580Y-1779400D01*
X1844680Y-1782980D01*
X1849199Y-1786020D01*
X1854079Y-1788420D01*
X1859220Y-1790160D01*
X1864560Y-1791220D01*
G37*
G36*
X742920Y-1771380D02*
G01*
X758400Y-1771380D01*
X758400Y-1765260D01*
X758120Y-1762780D01*
X757380Y-1760660D01*
X756180Y-1758740D01*
X754580Y-1757160D01*
X752660Y-1755960D01*
X750540Y-1755200D01*
X748080Y-1754940D01*
X742920Y-1754940D01*
G37*
G36*
X1870000Y-1691579D02*
G01*
X1875420Y-1691220D01*
X1880760Y-1690160D01*
X1885900Y-1688420D01*
X1890780Y-1686020D01*
X1895320Y-1682980D01*
X1899400Y-1679400D01*
X1902980Y-1675320D01*
X1906020Y-1670780D01*
X1908420Y-1665900D01*
X1910160Y-1660760D01*
X1911220Y-1655420D01*
X1911579Y-1650000D01*
X1911220Y-1644560D01*
X1910160Y-1639220D01*
X1908420Y-1634079D01*
X1906020Y-1629199D01*
X1902980Y-1624680D01*
X1899400Y-1620580D01*
X1895320Y-1617000D01*
X1890780Y-1613980D01*
X1885900Y-1611560D01*
X1880760Y-1609820D01*
X1875420Y-1608760D01*
X1870000Y-1608400D01*
X1864560Y-1608760D01*
X1859220Y-1609820D01*
X1854079Y-1611560D01*
X1849199Y-1613980D01*
X1844680Y-1617000D01*
X1840580Y-1620580D01*
X1837000Y-1624680D01*
X1833980Y-1629199D01*
X1831560Y-1634079D01*
X1829820Y-1639220D01*
X1828760Y-1644560D01*
X1828400Y-1650000D01*
X1828760Y-1655420D01*
X1829820Y-1660760D01*
X1831560Y-1665900D01*
X1833980Y-1670780D01*
X1837000Y-1675320D01*
X1840580Y-1679400D01*
X1844680Y-1682980D01*
X1849199Y-1686020D01*
X1854079Y-1688420D01*
X1859220Y-1690160D01*
X1864560Y-1691220D01*
G37*
G36*
X1770000Y-1691579D02*
G01*
X1775420Y-1691220D01*
X1780760Y-1690160D01*
X1785900Y-1688420D01*
X1790780Y-1686020D01*
X1795320Y-1682980D01*
X1799400Y-1679400D01*
X1802980Y-1675320D01*
X1806020Y-1670780D01*
X1808420Y-1665900D01*
X1810160Y-1660760D01*
X1811220Y-1655420D01*
X1811579Y-1650000D01*
X1811220Y-1644560D01*
X1810160Y-1639220D01*
X1808420Y-1634079D01*
X1806020Y-1629199D01*
X1802980Y-1624680D01*
X1799400Y-1620580D01*
X1795320Y-1617000D01*
X1790780Y-1613980D01*
X1785900Y-1611560D01*
X1780760Y-1609820D01*
X1775420Y-1608760D01*
X1770000Y-1608400D01*
X1764560Y-1608760D01*
X1759220Y-1609820D01*
X1754079Y-1611560D01*
X1749199Y-1613980D01*
X1744680Y-1617000D01*
X1740580Y-1620580D01*
X1737000Y-1624680D01*
X1733980Y-1629199D01*
X1731560Y-1634079D01*
X1729820Y-1639220D01*
X1728760Y-1644560D01*
X1728400Y-1650000D01*
X1728760Y-1655420D01*
X1729820Y-1660760D01*
X1731560Y-1665900D01*
X1733980Y-1670780D01*
X1737000Y-1675320D01*
X1740580Y-1679400D01*
X1744680Y-1682980D01*
X1749199Y-1686020D01*
X1754079Y-1688420D01*
X1759220Y-1690160D01*
X1764560Y-1691220D01*
G37*
G36*
X1024360Y-1681080D02*
G01*
X1063280Y-1681080D01*
X1065740Y-1680800D01*
X1067860Y-1680060D01*
X1069780Y-1678839D01*
X1071460Y-1677160D01*
X1073260Y-1674660D01*
X1074640Y-1673460D01*
X1075980Y-1672740D01*
X1078420Y-1670740D01*
X1087140Y-1662020D01*
X1088540Y-1661100D01*
X1090180Y-1660840D01*
X1091780Y-1661279D01*
X1093080Y-1662320D01*
X1093840Y-1663800D01*
X1094240Y-1665300D01*
X1095860Y-1668800D01*
X1098080Y-1671940D01*
X1100800Y-1674660D01*
X1103940Y-1676879D01*
X1107440Y-1678500D01*
X1111160Y-1679500D01*
X1112480Y-1679660D01*
X1113880Y-1679980D01*
X1125400Y-1681020D01*
X1126720Y-1681080D01*
X1165640Y-1681080D01*
X1168100Y-1680800D01*
X1170240Y-1680060D01*
X1172140Y-1678860D01*
X1173740Y-1677260D01*
X1174940Y-1675360D01*
X1175680Y-1673220D01*
X1175960Y-1670760D01*
X1175960Y-1649540D01*
X1175680Y-1647080D01*
X1174940Y-1644960D01*
X1173740Y-1643040D01*
X1172140Y-1641440D01*
X1170240Y-1640240D01*
X1168100Y-1639500D01*
X1165640Y-1639220D01*
X1128160Y-1639220D01*
X1126440Y-1638839D01*
X1122540Y-1637000D01*
X1118820Y-1636000D01*
X1115000Y-1635660D01*
X1111160Y-1636000D01*
X1107440Y-1637000D01*
X1103940Y-1638620D01*
X1101400Y-1640420D01*
X1099800Y-1641080D01*
X1098060Y-1641000D01*
X1096520Y-1640200D01*
X1095480Y-1638820D01*
X1095100Y-1637140D01*
X1095100Y-1603000D01*
X1094800Y-1599860D01*
X1093940Y-1597020D01*
X1092540Y-1594420D01*
X1090540Y-1591980D01*
X1085960Y-1587360D01*
X1071680Y-1568600D01*
X1069760Y-1566620D01*
X1067880Y-1565440D01*
X1065740Y-1564700D01*
X1063280Y-1564420D01*
X1049940Y-1564420D01*
X1048540Y-1564160D01*
X1047320Y-1563440D01*
X1046440Y-1562340D01*
X1044520Y-1558820D01*
X1041520Y-1554820D01*
X1037980Y-1551279D01*
X1033980Y-1548280D01*
X1029580Y-1545880D01*
X1024880Y-1544139D01*
X1020000Y-1543060D01*
X1014860Y-1542700D01*
X998280Y-1542700D01*
X997060Y-1542500D01*
X995939Y-1541940D01*
X993379Y-1540120D01*
X988940Y-1537800D01*
X984080Y-1536100D01*
X966360Y-1531279D01*
X961280Y-1530280D01*
X958420Y-1530000D01*
X922120Y-1519920D01*
X919100Y-1519540D01*
X840900Y-1519540D01*
X837880Y-1519900D01*
X798379Y-1529960D01*
X794479Y-1530360D01*
X792039Y-1530800D01*
X789620Y-1531420D01*
X787240Y-1532220D01*
X784920Y-1533180D01*
X782680Y-1534300D01*
X780520Y-1535580D01*
X778460Y-1537000D01*
X776520Y-1538580D01*
X770520Y-1544400D01*
X710520Y-1592660D01*
X708800Y-1594379D01*
X707600Y-1596279D01*
X706860Y-1598420D01*
X706580Y-1600880D01*
X706580Y-1639800D01*
X706860Y-1642280D01*
X707600Y-1644400D01*
X708800Y-1646320D01*
X710400Y-1647900D01*
X712300Y-1649100D01*
X714440Y-1649860D01*
X716900Y-1650140D01*
X724539Y-1650140D01*
X725680Y-1650300D01*
X727380Y-1651200D01*
X731940Y-1653280D01*
X736740Y-1654680D01*
X741700Y-1655400D01*
X746700Y-1655400D01*
X751660Y-1654680D01*
X756460Y-1653280D01*
X761020Y-1651200D01*
X762720Y-1650300D01*
X763860Y-1650140D01*
X771560Y-1650140D01*
X774040Y-1649860D01*
X776160Y-1649100D01*
X778080Y-1647900D01*
X779840Y-1646140D01*
X811820Y-1606060D01*
X812980Y-1605060D01*
X814400Y-1604580D01*
X815920Y-1604660D01*
X837900Y-1610240D01*
X840879Y-1610600D01*
X919140Y-1610600D01*
X922080Y-1610220D01*
X945040Y-1603880D01*
X946760Y-1603779D01*
X948360Y-1604440D01*
X949539Y-1605700D01*
X950080Y-1607340D01*
X949880Y-1609060D01*
X949419Y-1610340D01*
X949140Y-1612820D01*
X949140Y-1615020D01*
X964700Y-1615020D01*
X965320Y-1613580D01*
X966460Y-1612480D01*
X967900Y-1611920D01*
X969479Y-1611940D01*
X972200Y-1612540D01*
X977340Y-1612900D01*
X981380Y-1612900D01*
X982780Y-1613160D01*
X984000Y-1613899D01*
X984900Y-1615020D01*
X1001320Y-1615020D01*
X1002200Y-1613899D01*
X1003439Y-1613160D01*
X1004840Y-1612900D01*
X1010040Y-1612900D01*
X1011380Y-1613140D01*
X1012560Y-1613800D01*
X1013460Y-1614840D01*
X1031480Y-1614840D01*
X1031480Y-1611060D01*
X1031700Y-1609740D01*
X1032340Y-1608580D01*
X1033319Y-1607680D01*
X1034539Y-1606900D01*
X1035580Y-1606440D01*
X1036700Y-1606279D01*
X1052160Y-1606279D01*
X1053680Y-1606579D01*
X1054980Y-1607440D01*
X1055860Y-1608740D01*
X1056160Y-1610280D01*
X1056160Y-1614840D01*
X1060900Y-1614840D01*
X1062440Y-1615140D01*
X1063720Y-1616000D01*
X1064600Y-1617300D01*
X1064900Y-1618839D01*
X1064900Y-1626660D01*
X1064600Y-1628200D01*
X1063720Y-1629480D01*
X1062440Y-1630360D01*
X1060900Y-1630660D01*
X1056160Y-1630660D01*
X1056160Y-1635220D01*
X1055860Y-1636740D01*
X1054980Y-1638040D01*
X1053680Y-1638920D01*
X1052160Y-1639220D01*
X1035480Y-1639220D01*
X1033940Y-1638920D01*
X1032640Y-1638040D01*
X1031780Y-1636740D01*
X1031480Y-1635220D01*
X1031480Y-1630660D01*
X1014020Y-1630660D01*
X1014020Y-1633340D01*
X1014300Y-1635820D01*
X1015060Y-1637940D01*
X1015920Y-1639319D01*
X1016460Y-1640700D01*
X1016460Y-1642180D01*
X1015920Y-1643580D01*
X1015060Y-1644940D01*
X1014300Y-1647080D01*
X1014020Y-1649540D01*
X1014020Y-1670740D01*
X1014300Y-1673220D01*
X1015060Y-1675340D01*
X1016260Y-1677260D01*
X1017840Y-1678839D01*
X1019760Y-1680060D01*
X1021880Y-1680800D01*
G37*
G36*
X959479Y-1642380D02*
G01*
X964620Y-1642380D01*
X964620Y-1629860D01*
X949140Y-1629860D01*
X949140Y-1632060D01*
X949419Y-1634520D01*
X950180Y-1636639D01*
X951380Y-1638560D01*
X952960Y-1640160D01*
X954880Y-1641360D01*
X957000Y-1642100D01*
G37*
G36*
X985360Y-1642380D02*
G01*
X990520Y-1642380D01*
X992980Y-1642100D01*
X995120Y-1641360D01*
X997020Y-1640160D01*
X998620Y-1638560D01*
X999820Y-1636639D01*
X1000560Y-1634520D01*
X1000840Y-1632060D01*
X1000840Y-1629860D01*
X985360Y-1629860D01*
G37*
G36*
X223240Y-1620640D02*
G01*
X225780Y-1619379D01*
X230300Y-1616360D01*
X234400Y-1612760D01*
X237979Y-1608680D01*
X241000Y-1604160D01*
X242260Y-1601620D01*
X223240Y-1601620D01*
G37*
G36*
X186740Y-1620640D02*
G01*
X186740Y-1601620D01*
X167719Y-1601620D01*
X168980Y-1604160D01*
X172000Y-1608680D01*
X175580Y-1612760D01*
X179680Y-1616360D01*
X184200Y-1619379D01*
G37*
G36*
X1153800Y-1620480D02*
G01*
X1158800Y-1620180D01*
X1163700Y-1619160D01*
X1168400Y-1617440D01*
X1172820Y-1615080D01*
X1176860Y-1612120D01*
X1180420Y-1608600D01*
X1183460Y-1604620D01*
X1185900Y-1600240D01*
X1187680Y-1595560D01*
X1188780Y-1590680D01*
X1189340Y-1583600D01*
X1208020Y-1510540D01*
X1208400Y-1507540D01*
X1208400Y-1448959D01*
X1208120Y-1446500D01*
X1207380Y-1444360D01*
X1206180Y-1442460D01*
X1204580Y-1440860D01*
X1202680Y-1439660D01*
X1200540Y-1438920D01*
X1198080Y-1438640D01*
X1111920Y-1438640D01*
X1109440Y-1438920D01*
X1107320Y-1439660D01*
X1105400Y-1440860D01*
X1103800Y-1442460D01*
X1102600Y-1444360D01*
X1101860Y-1446500D01*
X1101580Y-1448959D01*
X1101580Y-1507560D01*
X1101900Y-1510300D01*
X1116400Y-1572680D01*
X1116400Y-1595960D01*
X1116680Y-1598420D01*
X1117420Y-1600560D01*
X1118620Y-1602460D01*
X1120220Y-1604060D01*
X1122120Y-1605260D01*
X1125780Y-1606519D01*
X1126980Y-1607600D01*
X1127380Y-1608160D01*
X1130900Y-1611720D01*
X1134880Y-1614760D01*
X1139260Y-1617200D01*
X1143940Y-1618980D01*
X1148820Y-1620080D01*
G37*
G36*
X1870000Y-1591579D02*
G01*
X1875420Y-1591220D01*
X1880760Y-1590160D01*
X1885900Y-1588420D01*
X1890780Y-1586020D01*
X1895320Y-1582980D01*
X1899400Y-1579400D01*
X1902980Y-1575320D01*
X1906020Y-1570780D01*
X1908420Y-1565900D01*
X1910160Y-1560760D01*
X1911220Y-1555420D01*
X1911579Y-1550000D01*
X1911220Y-1544560D01*
X1910160Y-1539220D01*
X1908420Y-1534079D01*
X1906020Y-1529199D01*
X1902980Y-1524680D01*
X1899400Y-1520580D01*
X1895320Y-1517000D01*
X1890780Y-1513980D01*
X1885900Y-1511560D01*
X1880760Y-1509820D01*
X1875420Y-1508760D01*
X1870000Y-1508400D01*
X1864560Y-1508760D01*
X1859220Y-1509820D01*
X1854079Y-1511560D01*
X1849199Y-1513980D01*
X1844680Y-1517000D01*
X1840580Y-1520580D01*
X1837000Y-1524680D01*
X1833980Y-1529199D01*
X1831560Y-1534079D01*
X1829820Y-1539220D01*
X1828760Y-1544560D01*
X1828400Y-1550000D01*
X1828760Y-1555420D01*
X1829820Y-1560760D01*
X1831560Y-1565900D01*
X1833980Y-1570780D01*
X1837000Y-1575320D01*
X1840580Y-1579400D01*
X1844680Y-1582980D01*
X1849199Y-1586020D01*
X1854079Y-1588420D01*
X1859220Y-1590160D01*
X1864560Y-1591220D01*
G37*
G36*
X1770000Y-1591579D02*
G01*
X1775420Y-1591220D01*
X1780760Y-1590160D01*
X1785900Y-1588420D01*
X1790780Y-1586020D01*
X1795320Y-1582980D01*
X1799400Y-1579400D01*
X1802980Y-1575320D01*
X1806020Y-1570780D01*
X1808420Y-1565900D01*
X1810160Y-1560760D01*
X1811220Y-1555420D01*
X1811579Y-1550000D01*
X1811220Y-1544560D01*
X1810160Y-1539220D01*
X1808420Y-1534079D01*
X1806020Y-1529199D01*
X1802980Y-1524680D01*
X1799400Y-1520580D01*
X1795320Y-1517000D01*
X1790780Y-1513980D01*
X1785900Y-1511560D01*
X1780760Y-1509820D01*
X1775420Y-1508760D01*
X1770000Y-1508400D01*
X1764560Y-1508760D01*
X1759220Y-1509820D01*
X1754079Y-1511560D01*
X1749199Y-1513980D01*
X1744680Y-1517000D01*
X1740580Y-1520580D01*
X1737000Y-1524680D01*
X1733980Y-1529199D01*
X1731560Y-1534079D01*
X1729820Y-1539220D01*
X1728760Y-1544560D01*
X1728400Y-1550000D01*
X1728760Y-1555420D01*
X1729820Y-1560760D01*
X1731560Y-1565900D01*
X1733980Y-1570780D01*
X1737000Y-1575320D01*
X1740580Y-1579400D01*
X1744680Y-1582980D01*
X1749199Y-1586020D01*
X1754079Y-1588420D01*
X1759220Y-1590160D01*
X1764560Y-1591220D01*
G37*
G36*
X1870000Y-1491579D02*
G01*
X1875420Y-1491220D01*
X1880760Y-1490160D01*
X1885900Y-1488420D01*
X1890780Y-1486020D01*
X1895320Y-1482980D01*
X1899400Y-1479400D01*
X1902980Y-1475320D01*
X1906020Y-1470780D01*
X1908420Y-1465900D01*
X1910160Y-1460760D01*
X1911220Y-1455420D01*
X1911579Y-1450000D01*
X1911220Y-1444560D01*
X1910160Y-1439220D01*
X1908420Y-1434079D01*
X1906020Y-1429199D01*
X1902980Y-1424680D01*
X1899400Y-1420580D01*
X1895320Y-1417000D01*
X1890780Y-1413980D01*
X1885900Y-1411560D01*
X1880760Y-1409820D01*
X1875420Y-1408760D01*
X1870000Y-1408400D01*
X1864560Y-1408760D01*
X1859220Y-1409820D01*
X1854079Y-1411560D01*
X1849199Y-1413980D01*
X1844680Y-1417000D01*
X1840580Y-1420580D01*
X1837000Y-1424680D01*
X1833980Y-1429199D01*
X1831560Y-1434079D01*
X1829820Y-1439220D01*
X1828760Y-1444560D01*
X1828400Y-1450000D01*
X1828760Y-1455420D01*
X1829820Y-1460760D01*
X1831560Y-1465900D01*
X1833980Y-1470780D01*
X1837000Y-1475320D01*
X1840580Y-1479400D01*
X1844680Y-1482980D01*
X1849199Y-1486020D01*
X1854079Y-1488420D01*
X1859220Y-1490160D01*
X1864560Y-1491220D01*
G37*
G36*
X1770000Y-1491579D02*
G01*
X1775420Y-1491220D01*
X1780760Y-1490160D01*
X1785900Y-1488420D01*
X1790780Y-1486020D01*
X1795320Y-1482980D01*
X1799400Y-1479400D01*
X1802980Y-1475320D01*
X1806020Y-1470780D01*
X1808420Y-1465900D01*
X1810160Y-1460760D01*
X1811220Y-1455420D01*
X1811579Y-1450000D01*
X1811220Y-1444560D01*
X1810160Y-1439220D01*
X1808420Y-1434079D01*
X1806020Y-1429199D01*
X1802980Y-1424680D01*
X1799400Y-1420580D01*
X1795320Y-1417000D01*
X1790780Y-1413980D01*
X1785900Y-1411560D01*
X1780760Y-1409820D01*
X1775420Y-1408760D01*
X1770000Y-1408400D01*
X1764560Y-1408760D01*
X1759220Y-1409820D01*
X1754079Y-1411560D01*
X1749199Y-1413980D01*
X1744680Y-1417000D01*
X1740580Y-1420580D01*
X1737000Y-1424680D01*
X1733980Y-1429199D01*
X1731560Y-1434079D01*
X1729820Y-1439220D01*
X1728760Y-1444560D01*
X1728400Y-1450000D01*
X1728760Y-1455420D01*
X1729820Y-1460760D01*
X1731560Y-1465900D01*
X1733980Y-1470780D01*
X1737000Y-1475320D01*
X1740580Y-1479400D01*
X1744680Y-1482980D01*
X1749199Y-1486020D01*
X1754079Y-1488420D01*
X1759220Y-1490160D01*
X1764560Y-1491220D01*
G37*
G36*
X1870000Y-1391579D02*
G01*
X1875420Y-1391220D01*
X1880760Y-1390160D01*
X1885900Y-1388420D01*
X1890780Y-1386020D01*
X1895320Y-1382980D01*
X1899400Y-1379400D01*
X1902980Y-1375320D01*
X1906020Y-1370780D01*
X1908420Y-1365900D01*
X1910160Y-1360760D01*
X1911220Y-1355420D01*
X1911579Y-1350000D01*
X1911220Y-1344560D01*
X1910160Y-1339220D01*
X1908420Y-1334079D01*
X1906020Y-1329199D01*
X1902980Y-1324680D01*
X1899400Y-1320580D01*
X1895320Y-1317000D01*
X1890780Y-1313980D01*
X1885900Y-1311560D01*
X1880760Y-1309820D01*
X1875420Y-1308760D01*
X1870000Y-1308400D01*
X1864560Y-1308760D01*
X1859220Y-1309820D01*
X1854079Y-1311560D01*
X1849199Y-1313980D01*
X1844680Y-1317000D01*
X1840580Y-1320580D01*
X1837000Y-1324680D01*
X1833980Y-1329199D01*
X1831560Y-1334079D01*
X1829820Y-1339220D01*
X1828760Y-1344560D01*
X1828400Y-1350000D01*
X1828760Y-1355420D01*
X1829820Y-1360760D01*
X1831560Y-1365900D01*
X1833980Y-1370780D01*
X1837000Y-1375320D01*
X1840580Y-1379400D01*
X1844680Y-1382980D01*
X1849199Y-1386020D01*
X1854079Y-1388420D01*
X1859220Y-1390160D01*
X1864560Y-1391220D01*
G37*
G36*
X1770000Y-1391579D02*
G01*
X1775420Y-1391220D01*
X1780760Y-1390160D01*
X1785900Y-1388420D01*
X1790780Y-1386020D01*
X1795320Y-1382980D01*
X1799400Y-1379400D01*
X1802980Y-1375320D01*
X1806020Y-1370780D01*
X1808420Y-1365900D01*
X1810160Y-1360760D01*
X1811220Y-1355420D01*
X1811579Y-1350000D01*
X1811220Y-1344560D01*
X1810160Y-1339220D01*
X1808420Y-1334079D01*
X1806020Y-1329199D01*
X1802980Y-1324680D01*
X1799400Y-1320580D01*
X1795320Y-1317000D01*
X1790780Y-1313980D01*
X1785900Y-1311560D01*
X1780760Y-1309820D01*
X1775420Y-1308760D01*
X1770000Y-1308400D01*
X1764560Y-1308760D01*
X1759220Y-1309820D01*
X1754079Y-1311560D01*
X1749199Y-1313980D01*
X1744680Y-1317000D01*
X1740580Y-1320580D01*
X1737000Y-1324680D01*
X1733980Y-1329199D01*
X1731560Y-1334079D01*
X1729820Y-1339220D01*
X1728760Y-1344560D01*
X1728400Y-1350000D01*
X1728760Y-1355420D01*
X1729820Y-1360760D01*
X1731560Y-1365900D01*
X1733980Y-1370780D01*
X1737000Y-1375320D01*
X1740580Y-1379400D01*
X1744680Y-1382980D01*
X1749199Y-1386020D01*
X1754079Y-1388420D01*
X1759220Y-1390160D01*
X1764560Y-1391220D01*
G37*
G36*
X387500Y-1360360D02*
G01*
X442160Y-1360360D01*
X444620Y-1360080D01*
X446760Y-1359340D01*
X448660Y-1358140D01*
X450260Y-1356540D01*
X451460Y-1354640D01*
X452220Y-1352500D01*
X452480Y-1350040D01*
X452480Y-1316500D01*
X452780Y-1315020D01*
X453579Y-1313760D01*
X463760Y-1302980D01*
X465100Y-1301240D01*
X466540Y-1298580D01*
X467400Y-1295740D01*
X467700Y-1292600D01*
X467700Y-1273440D01*
X468120Y-1271640D01*
X470959Y-1265980D01*
X471560Y-1265080D01*
X472400Y-1264380D01*
X474620Y-1263000D01*
X476200Y-1261400D01*
X477420Y-1259480D01*
X478160Y-1257360D01*
X478440Y-1254900D01*
X478440Y-1235660D01*
X478160Y-1233180D01*
X477420Y-1231060D01*
X476200Y-1229160D01*
X475480Y-1228420D01*
X474600Y-1227120D01*
X474300Y-1225580D01*
X474600Y-1224060D01*
X475480Y-1222760D01*
X476200Y-1222020D01*
X477420Y-1220120D01*
X478160Y-1217980D01*
X478440Y-1215520D01*
X478440Y-1196280D01*
X478160Y-1193820D01*
X477420Y-1191700D01*
X476200Y-1189780D01*
X474620Y-1188180D01*
X472400Y-1186800D01*
X471420Y-1185920D01*
X470760Y-1184760D01*
X470540Y-1182800D01*
X470740Y-1181480D01*
X471400Y-1180280D01*
X472400Y-1179380D01*
X474620Y-1178000D01*
X476200Y-1176400D01*
X477420Y-1174480D01*
X478160Y-1172360D01*
X478440Y-1169900D01*
X478440Y-1150660D01*
X478160Y-1148180D01*
X477420Y-1146060D01*
X476200Y-1144160D01*
X475480Y-1143420D01*
X474600Y-1142120D01*
X474300Y-1140580D01*
X474600Y-1139060D01*
X475480Y-1137760D01*
X476200Y-1137020D01*
X477420Y-1135120D01*
X478160Y-1132980D01*
X478440Y-1130520D01*
X478440Y-1128320D01*
X462960Y-1128320D01*
X462960Y-1136340D01*
X462660Y-1137860D01*
X461780Y-1139160D01*
X460480Y-1140020D01*
X458960Y-1140340D01*
X446220Y-1140340D01*
X444680Y-1140020D01*
X443380Y-1139160D01*
X442520Y-1137860D01*
X442220Y-1136340D01*
X442220Y-1128320D01*
X426740Y-1128320D01*
X426740Y-1130520D01*
X427020Y-1132980D01*
X427760Y-1135120D01*
X429080Y-1137220D01*
X429620Y-1138560D01*
X429640Y-1139980D01*
X429159Y-1141340D01*
X428240Y-1142440D01*
X427000Y-1143140D01*
X425220Y-1143740D01*
X423680Y-1143960D01*
X422180Y-1143580D01*
X420220Y-1142580D01*
X418620Y-1141460D01*
X415140Y-1139820D01*
X411420Y-1138840D01*
X407580Y-1138500D01*
X403740Y-1138840D01*
X400020Y-1139820D01*
X396540Y-1141460D01*
X393380Y-1143660D01*
X390660Y-1146380D01*
X388459Y-1149540D01*
X386820Y-1153020D01*
X385840Y-1156740D01*
X385500Y-1160580D01*
X385840Y-1164420D01*
X386820Y-1168140D01*
X388459Y-1171620D01*
X390660Y-1174780D01*
X393380Y-1177500D01*
X396540Y-1179700D01*
X400020Y-1181340D01*
X403740Y-1182320D01*
X407580Y-1182660D01*
X411420Y-1182320D01*
X415140Y-1181340D01*
X418620Y-1179700D01*
X420780Y-1178260D01*
X422540Y-1177440D01*
X423940Y-1177060D01*
X425400Y-1177220D01*
X431940Y-1179180D01*
X433320Y-1179920D01*
X434320Y-1181140D01*
X434760Y-1182660D01*
X434480Y-1184600D01*
X433820Y-1185840D01*
X432800Y-1186780D01*
X430560Y-1188180D01*
X428960Y-1189780D01*
X427760Y-1191700D01*
X427020Y-1193820D01*
X426740Y-1196280D01*
X426740Y-1215520D01*
X427020Y-1217980D01*
X427760Y-1220120D01*
X428960Y-1222020D01*
X429700Y-1222760D01*
X430560Y-1224060D01*
X430860Y-1225580D01*
X430560Y-1227120D01*
X429700Y-1228420D01*
X428960Y-1229160D01*
X427760Y-1231060D01*
X427020Y-1233180D01*
X426740Y-1235660D01*
X426740Y-1254900D01*
X427020Y-1257360D01*
X427760Y-1259480D01*
X428960Y-1261400D01*
X430560Y-1263000D01*
X432800Y-1264400D01*
X433640Y-1265100D01*
X434240Y-1266000D01*
X437080Y-1271660D01*
X437500Y-1273440D01*
X437500Y-1284880D01*
X437200Y-1286420D01*
X436079Y-1287960D01*
X419739Y-1300020D01*
X418620Y-1300600D01*
X417380Y-1300800D01*
X387500Y-1300800D01*
X385020Y-1301080D01*
X382900Y-1301819D01*
X380980Y-1303020D01*
X379400Y-1304620D01*
X378200Y-1306519D01*
X377440Y-1308660D01*
X377180Y-1311120D01*
X377180Y-1350040D01*
X377440Y-1352500D01*
X378200Y-1354640D01*
X379400Y-1356540D01*
X380980Y-1358140D01*
X382900Y-1359340D01*
X385020Y-1360080D01*
G37*
G36*
X1155000Y-1311800D02*
G01*
X1161040Y-1311420D01*
X1166980Y-1310340D01*
X1172760Y-1308540D01*
X1178280Y-1306060D01*
X1183460Y-1302920D01*
X1184380Y-1302200D01*
X1185540Y-1301579D01*
X1186840Y-1301360D01*
X1198080Y-1301360D01*
X1200540Y-1301080D01*
X1202680Y-1300320D01*
X1204580Y-1299120D01*
X1206180Y-1297540D01*
X1207380Y-1295620D01*
X1208120Y-1293500D01*
X1208400Y-1291020D01*
X1208360Y-1231340D01*
X1205060Y-1189140D01*
X1204720Y-1183960D01*
X1204440Y-1182420D01*
X1204520Y-1180660D01*
X1204740Y-1179820D01*
X1205080Y-1176000D01*
X1204740Y-1172160D01*
X1203740Y-1168440D01*
X1202120Y-1164940D01*
X1199900Y-1161800D01*
X1197180Y-1159080D01*
X1194040Y-1156860D01*
X1191940Y-1155900D01*
X1190800Y-1155100D01*
X1188220Y-1152500D01*
X1183460Y-1148780D01*
X1178280Y-1145640D01*
X1172760Y-1143160D01*
X1166980Y-1141360D01*
X1161040Y-1140280D01*
X1155000Y-1139900D01*
X1148960Y-1140280D01*
X1143020Y-1141360D01*
X1137240Y-1143160D01*
X1131720Y-1145640D01*
X1126540Y-1148780D01*
X1121780Y-1152500D01*
X1120560Y-1153720D01*
X1119260Y-1154600D01*
X1117740Y-1154900D01*
X1062740Y-1154900D01*
X1057600Y-1155260D01*
X1052720Y-1156340D01*
X1048020Y-1158080D01*
X1043620Y-1160480D01*
X1039620Y-1163480D01*
X1036919Y-1166180D01*
X1035620Y-1167060D01*
X1034080Y-1167360D01*
X1032560Y-1167060D01*
X1031260Y-1166180D01*
X1029460Y-1164400D01*
X1027560Y-1163200D01*
X1025420Y-1162460D01*
X1022960Y-1162180D01*
X1017820Y-1162180D01*
X1017820Y-1178640D01*
X1024280Y-1178640D01*
X1026020Y-1179020D01*
X1027400Y-1180120D01*
X1028180Y-1181720D01*
X1028199Y-1183480D01*
X1027860Y-1185000D01*
X1027520Y-1190000D01*
X1027860Y-1195000D01*
X1028199Y-1196500D01*
X1028180Y-1198280D01*
X1027400Y-1199860D01*
X1026020Y-1200960D01*
X1024280Y-1201360D01*
X1017820Y-1201360D01*
X1017820Y-1217800D01*
X1022960Y-1217800D01*
X1025420Y-1217540D01*
X1027560Y-1216780D01*
X1029460Y-1215580D01*
X1031240Y-1213800D01*
X1032540Y-1212940D01*
X1034080Y-1212640D01*
X1035600Y-1212940D01*
X1036900Y-1213800D01*
X1039620Y-1216520D01*
X1043620Y-1219520D01*
X1048020Y-1221920D01*
X1052720Y-1223660D01*
X1057600Y-1224740D01*
X1062740Y-1225100D01*
X1097780Y-1225100D01*
X1099380Y-1225420D01*
X1100700Y-1226360D01*
X1101560Y-1227760D01*
X1101780Y-1229360D01*
X1101580Y-1232320D01*
X1101580Y-1291020D01*
X1101860Y-1293500D01*
X1102600Y-1295620D01*
X1103800Y-1297540D01*
X1105400Y-1299120D01*
X1107320Y-1300320D01*
X1109440Y-1301080D01*
X1111920Y-1301360D01*
X1123160Y-1301360D01*
X1124460Y-1301579D01*
X1125620Y-1302200D01*
X1126540Y-1302920D01*
X1131720Y-1306060D01*
X1137240Y-1308540D01*
X1143020Y-1310340D01*
X1148960Y-1311420D01*
G37*
G36*
X1770000Y-1291579D02*
G01*
X1775420Y-1291220D01*
X1780760Y-1290160D01*
X1785900Y-1288420D01*
X1790780Y-1286020D01*
X1795320Y-1282980D01*
X1799400Y-1279400D01*
X1802980Y-1275320D01*
X1806020Y-1270780D01*
X1808420Y-1265900D01*
X1810160Y-1260760D01*
X1811220Y-1255420D01*
X1811579Y-1250000D01*
X1811220Y-1244560D01*
X1810160Y-1239220D01*
X1808420Y-1234080D01*
X1806020Y-1229200D01*
X1802980Y-1224680D01*
X1799400Y-1220580D01*
X1795320Y-1217000D01*
X1790780Y-1213980D01*
X1785900Y-1211560D01*
X1780760Y-1209820D01*
X1775420Y-1208760D01*
X1770000Y-1208400D01*
X1764560Y-1208760D01*
X1759220Y-1209820D01*
X1754079Y-1211560D01*
X1749199Y-1213980D01*
X1744680Y-1217000D01*
X1740580Y-1220580D01*
X1737000Y-1224680D01*
X1733980Y-1229200D01*
X1731560Y-1234080D01*
X1729820Y-1239220D01*
X1728760Y-1244560D01*
X1728400Y-1250000D01*
X1728760Y-1255420D01*
X1729820Y-1260760D01*
X1731560Y-1265900D01*
X1733980Y-1270780D01*
X1737000Y-1275320D01*
X1740580Y-1279400D01*
X1744680Y-1282980D01*
X1749199Y-1286020D01*
X1754079Y-1288420D01*
X1759220Y-1290160D01*
X1764560Y-1291220D01*
G37*
G36*
X1870000Y-1291579D02*
G01*
X1875420Y-1291220D01*
X1880760Y-1290160D01*
X1885900Y-1288420D01*
X1890780Y-1286020D01*
X1895320Y-1282980D01*
X1899400Y-1279400D01*
X1902980Y-1275320D01*
X1906020Y-1270780D01*
X1908420Y-1265900D01*
X1910160Y-1260760D01*
X1911220Y-1255420D01*
X1911579Y-1250000D01*
X1911220Y-1244560D01*
X1910160Y-1239220D01*
X1908420Y-1234080D01*
X1906020Y-1229200D01*
X1902980Y-1224680D01*
X1899400Y-1220580D01*
X1895320Y-1217000D01*
X1890780Y-1213980D01*
X1885900Y-1211560D01*
X1880760Y-1209820D01*
X1875420Y-1208760D01*
X1870000Y-1208400D01*
X1864560Y-1208760D01*
X1859220Y-1209820D01*
X1854079Y-1211560D01*
X1849199Y-1213980D01*
X1844680Y-1217000D01*
X1840580Y-1220580D01*
X1837000Y-1224680D01*
X1833980Y-1229200D01*
X1831560Y-1234080D01*
X1829820Y-1239220D01*
X1828760Y-1244560D01*
X1828400Y-1250000D01*
X1828760Y-1255420D01*
X1829820Y-1260760D01*
X1831560Y-1265900D01*
X1833980Y-1270780D01*
X1837000Y-1275320D01*
X1840580Y-1279400D01*
X1844680Y-1282980D01*
X1849199Y-1286020D01*
X1854079Y-1288420D01*
X1859220Y-1290160D01*
X1864560Y-1291220D01*
G37*
G36*
X847340Y-1289520D02*
G01*
X852640Y-1289520D01*
X857880Y-1288820D01*
X862980Y-1287420D01*
X867860Y-1285360D01*
X872420Y-1282660D01*
X876560Y-1279380D01*
X880240Y-1275580D01*
X883379Y-1271320D01*
X885920Y-1266660D01*
X887840Y-1261740D01*
X889060Y-1256580D01*
X889580Y-1251320D01*
X889419Y-1246020D01*
X888540Y-1240800D01*
X886960Y-1235760D01*
X884740Y-1230960D01*
X881880Y-1226500D01*
X878480Y-1222440D01*
X874539Y-1218900D01*
X870180Y-1215900D01*
X865460Y-1213520D01*
X860460Y-1211780D01*
X855280Y-1210720D01*
X850000Y-1210380D01*
X844720Y-1210720D01*
X839520Y-1211780D01*
X834520Y-1213520D01*
X829800Y-1215900D01*
X825440Y-1218900D01*
X821520Y-1222440D01*
X818100Y-1226500D01*
X815240Y-1230960D01*
X813020Y-1235760D01*
X811460Y-1240800D01*
X810580Y-1246020D01*
X810400Y-1251320D01*
X810920Y-1256580D01*
X812159Y-1261740D01*
X814060Y-1266660D01*
X816600Y-1271320D01*
X819740Y-1275580D01*
X823420Y-1279380D01*
X827580Y-1282660D01*
X832120Y-1285360D01*
X837000Y-1287420D01*
X842099Y-1288820D01*
G37*
G36*
X667260Y-1285600D02*
G01*
X667860Y-1285360D01*
X672420Y-1282660D01*
X676560Y-1279380D01*
X680240Y-1275580D01*
X683379Y-1271320D01*
X685600Y-1267260D01*
X667260Y-1267260D01*
G37*
G36*
X632720Y-1285600D02*
G01*
X632720Y-1267260D01*
X614380Y-1267260D01*
X616600Y-1271320D01*
X619740Y-1275580D01*
X623420Y-1279380D01*
X627580Y-1282660D01*
X632120Y-1285360D01*
G37*
G36*
X667260Y-1232720D02*
G01*
X685560Y-1232720D01*
X684740Y-1230960D01*
X681880Y-1226500D01*
X678480Y-1222440D01*
X674539Y-1218900D01*
X670180Y-1215900D01*
X667260Y-1214420D01*
G37*
G36*
X614420Y-1232720D02*
G01*
X632720Y-1232720D01*
X632720Y-1214420D01*
X629800Y-1215900D01*
X625440Y-1218900D01*
X621520Y-1222440D01*
X618100Y-1226500D01*
X615240Y-1230960D01*
G37*
G36*
X991919Y-1217800D02*
G01*
X997060Y-1217800D01*
X997060Y-1201360D01*
X981580Y-1201360D01*
X981580Y-1207480D01*
X981860Y-1209960D01*
X982620Y-1212080D01*
X983820Y-1214000D01*
X985400Y-1215580D01*
X987320Y-1216780D01*
X989440Y-1217540D01*
G37*
G36*
X747340Y-1189520D02*
G01*
X752640Y-1189520D01*
X757880Y-1188820D01*
X762980Y-1187420D01*
X767860Y-1185360D01*
X772420Y-1182660D01*
X776560Y-1179380D01*
X780240Y-1175580D01*
X783379Y-1171320D01*
X785920Y-1166660D01*
X787840Y-1161740D01*
X789060Y-1156580D01*
X789580Y-1151320D01*
X789419Y-1146020D01*
X788540Y-1140800D01*
X786960Y-1135760D01*
X784740Y-1130960D01*
X781880Y-1126500D01*
X778480Y-1122440D01*
X774539Y-1118900D01*
X770180Y-1115900D01*
X765460Y-1113520D01*
X760460Y-1111780D01*
X755280Y-1110720D01*
X750000Y-1110380D01*
X744720Y-1110720D01*
X739520Y-1111780D01*
X734520Y-1113520D01*
X729800Y-1115900D01*
X725440Y-1118900D01*
X721520Y-1122440D01*
X718100Y-1126500D01*
X715240Y-1130960D01*
X713020Y-1135760D01*
X711460Y-1140800D01*
X710580Y-1146020D01*
X710400Y-1151320D01*
X710920Y-1156580D01*
X712159Y-1161740D01*
X714060Y-1166660D01*
X716600Y-1171320D01*
X719740Y-1175580D01*
X723420Y-1179380D01*
X727580Y-1182660D01*
X732120Y-1185360D01*
X737000Y-1187420D01*
X742099Y-1188820D01*
G37*
G36*
X1888240Y-1187260D02*
G01*
X1890780Y-1186020D01*
X1895320Y-1182980D01*
X1899400Y-1179400D01*
X1902980Y-1175320D01*
X1906020Y-1170780D01*
X1907260Y-1168240D01*
X1888240Y-1168240D01*
G37*
G36*
X1751740Y-1187260D02*
G01*
X1751740Y-1168240D01*
X1732720Y-1168240D01*
X1733980Y-1170780D01*
X1737000Y-1175320D01*
X1740580Y-1179400D01*
X1744680Y-1182980D01*
X1749199Y-1186020D01*
G37*
G36*
X1851740Y-1187260D02*
G01*
X1851740Y-1168240D01*
X1832720Y-1168240D01*
X1833980Y-1170780D01*
X1837000Y-1175320D01*
X1840580Y-1179400D01*
X1844680Y-1182980D01*
X1849199Y-1186020D01*
G37*
G36*
X1788240Y-1187260D02*
G01*
X1790780Y-1186020D01*
X1795320Y-1182980D01*
X1799400Y-1179400D01*
X1802980Y-1175320D01*
X1806020Y-1170780D01*
X1807260Y-1168240D01*
X1788240Y-1168240D01*
G37*
G36*
X981580Y-1178640D02*
G01*
X997060Y-1178640D01*
X997060Y-1162180D01*
X991919Y-1162180D01*
X989440Y-1162460D01*
X987320Y-1163200D01*
X985400Y-1164400D01*
X983820Y-1166000D01*
X982620Y-1167900D01*
X981860Y-1170040D01*
X981580Y-1172500D01*
G37*
G36*
X1788240Y-1131740D02*
G01*
X1807260Y-1131740D01*
X1806020Y-1129200D01*
X1802980Y-1124680D01*
X1799400Y-1120580D01*
X1795320Y-1117000D01*
X1790780Y-1113980D01*
X1788240Y-1112720D01*
G37*
G36*
X1832720Y-1131740D02*
G01*
X1851740Y-1131740D01*
X1851740Y-1112720D01*
X1849199Y-1113980D01*
X1844680Y-1117000D01*
X1840580Y-1120580D01*
X1837000Y-1124680D01*
X1833980Y-1129200D01*
G37*
G36*
X1732720Y-1131740D02*
G01*
X1751740Y-1131740D01*
X1751740Y-1112720D01*
X1749199Y-1113980D01*
X1744680Y-1117000D01*
X1740580Y-1120580D01*
X1737000Y-1124680D01*
X1733980Y-1129200D01*
G37*
G36*
X1888240Y-1131740D02*
G01*
X1907260Y-1131740D01*
X1906020Y-1129200D01*
X1902980Y-1124680D01*
X1899400Y-1120580D01*
X1895320Y-1117000D01*
X1890780Y-1113980D01*
X1888240Y-1112720D01*
G37*
G36*
X462960Y-1113480D02*
G01*
X478440Y-1113480D01*
X478440Y-1111280D01*
X478160Y-1108820D01*
X477420Y-1106700D01*
X476200Y-1104780D01*
X474620Y-1103180D01*
X472700Y-1101980D01*
X470580Y-1101240D01*
X468100Y-1100960D01*
X462960Y-1100960D01*
G37*
G36*
X426740Y-1113480D02*
G01*
X442220Y-1113480D01*
X442220Y-1100960D01*
X437060Y-1100960D01*
X434600Y-1101240D01*
X432460Y-1101980D01*
X430560Y-1103180D01*
X428960Y-1104780D01*
X427760Y-1106700D01*
X427020Y-1108820D01*
X426740Y-1111280D01*
G37*
G36*
X1711260Y-1021220D02*
G01*
X1714440Y-1021220D01*
X1716900Y-1020939D01*
X1719040Y-1020180D01*
X1720940Y-1018980D01*
X1722540Y-1017400D01*
X1723740Y-1015480D01*
X1724480Y-1013360D01*
X1724760Y-1010879D01*
X1724760Y-998360D01*
X1711260Y-998360D01*
G37*
G36*
X1711260Y-962840D02*
G01*
X1724760Y-962840D01*
X1724760Y-950320D01*
X1724480Y-947840D01*
X1723740Y-945720D01*
X1722540Y-943800D01*
X1720940Y-942220D01*
X1719040Y-941020D01*
X1716900Y-940260D01*
X1714440Y-939980D01*
X1711260Y-939980D01*
G37*
G36*
X752380Y-954620D02*
G01*
X757520Y-954620D01*
X759980Y-954340D01*
X762120Y-953600D01*
X764020Y-952400D01*
X765620Y-950800D01*
X766820Y-948900D01*
X767560Y-946760D01*
X767840Y-944300D01*
X767840Y-942099D01*
X752380Y-942099D01*
G37*
G36*
X652380Y-954620D02*
G01*
X657520Y-954620D01*
X659980Y-954340D01*
X662120Y-953600D01*
X664020Y-952400D01*
X665620Y-950800D01*
X666820Y-948900D01*
X667560Y-946760D01*
X667840Y-944300D01*
X667840Y-942099D01*
X652380Y-942099D01*
G37*
G36*
X626480Y-954620D02*
G01*
X631620Y-954620D01*
X631620Y-942099D01*
X616140Y-942099D01*
X616140Y-944300D01*
X616420Y-946760D01*
X617180Y-948900D01*
X618380Y-950800D01*
X619960Y-952400D01*
X621880Y-953600D01*
X624000Y-954340D01*
G37*
G36*
X726480Y-954620D02*
G01*
X731620Y-954620D01*
X731620Y-942099D01*
X716140Y-942099D01*
X716140Y-944300D01*
X716420Y-946760D01*
X717180Y-948900D01*
X718379Y-950800D01*
X719960Y-952400D01*
X721880Y-953600D01*
X724000Y-954340D01*
G37*
G36*
X1730640Y-926720D02*
G01*
X1739720Y-926720D01*
X1739720Y-901400D01*
X1720320Y-901400D01*
X1720320Y-916400D01*
X1720580Y-918860D01*
X1721339Y-921000D01*
X1722540Y-922900D01*
X1724120Y-924500D01*
X1726040Y-925699D01*
X1728160Y-926440D01*
G37*
G36*
X1768340Y-926720D02*
G01*
X1777420Y-926720D01*
X1779900Y-926440D01*
X1782020Y-925699D01*
X1783940Y-924500D01*
X1785540Y-922900D01*
X1786740Y-921000D01*
X1787480Y-918860D01*
X1787760Y-916400D01*
X1787760Y-901400D01*
X1768340Y-901400D01*
G37*
G36*
X1470800Y-926720D02*
G01*
X1479880Y-926720D01*
X1479880Y-901400D01*
X1460480Y-901400D01*
X1460480Y-916400D01*
X1460740Y-918860D01*
X1461500Y-921000D01*
X1462700Y-922900D01*
X1464280Y-924500D01*
X1466200Y-925699D01*
X1468320Y-926440D01*
G37*
G36*
X1508500Y-926720D02*
G01*
X1517580Y-926720D01*
X1520060Y-926440D01*
X1522180Y-925699D01*
X1524100Y-924500D01*
X1525700Y-922900D01*
X1526900Y-921000D01*
X1527640Y-918860D01*
X1527920Y-916400D01*
X1527920Y-901400D01*
X1508500Y-901400D01*
G37*
G36*
X2037020Y-926400D02*
G01*
X2047080Y-926400D01*
X2047080Y-906979D01*
X2026680Y-906979D01*
X2026680Y-916060D01*
X2026960Y-918540D01*
X2027720Y-920660D01*
X2028920Y-922580D01*
X2030500Y-924160D01*
X2032420Y-925360D01*
X2034540Y-926120D01*
G37*
G36*
X2077680Y-926400D02*
G01*
X2087740Y-926400D01*
X2090220Y-926120D01*
X2092340Y-925360D01*
X2094259Y-924160D01*
X2095840Y-922580D01*
X2097040Y-920660D01*
X2097800Y-918540D01*
X2098060Y-916060D01*
X2098060Y-906979D01*
X2077680Y-906979D01*
G37*
G36*
X2077680Y-878360D02*
G01*
X2098060Y-878360D01*
X2098060Y-869280D01*
X2097800Y-866800D01*
X2097040Y-864680D01*
X2095840Y-862760D01*
X2094259Y-861180D01*
X2092340Y-859980D01*
X2090220Y-859220D01*
X2087740Y-858940D01*
X2077680Y-858940D01*
G37*
G36*
X1768340Y-860980D02*
G01*
X1787760Y-860980D01*
X1787760Y-845980D01*
X1787480Y-843520D01*
X1786740Y-841380D01*
X1785540Y-839479D01*
X1783940Y-837880D01*
X1782020Y-836680D01*
X1779900Y-835939D01*
X1777420Y-835660D01*
X1768340Y-835660D01*
G37*
G36*
X1508500Y-860980D02*
G01*
X1527920Y-860980D01*
X1527920Y-845980D01*
X1527640Y-843520D01*
X1526900Y-841380D01*
X1525700Y-839479D01*
X1524100Y-837880D01*
X1522180Y-836680D01*
X1520060Y-835939D01*
X1517580Y-835660D01*
X1508500Y-835660D01*
G37*
G36*
X1460480Y-860980D02*
G01*
X1479880Y-860980D01*
X1479880Y-835660D01*
X1470800Y-835660D01*
X1468320Y-835939D01*
X1466200Y-836680D01*
X1464280Y-837880D01*
X1462700Y-839479D01*
X1461500Y-841380D01*
X1460740Y-843520D01*
X1460480Y-845980D01*
G37*
G36*
X1720320Y-860980D02*
G01*
X1739720Y-860980D01*
X1739720Y-835660D01*
X1730640Y-835660D01*
X1728160Y-835939D01*
X1726040Y-836680D01*
X1724120Y-837880D01*
X1722540Y-839479D01*
X1721339Y-841380D01*
X1720580Y-843520D01*
X1720320Y-845980D01*
G37*
G36*
X2035740Y-802340D02*
G01*
X2039900Y-802180D01*
X2043980Y-801340D01*
X2047860Y-799880D01*
X2051459Y-797800D01*
X2054680Y-795160D01*
X2057440Y-792060D01*
X2059660Y-788540D01*
X2061300Y-784720D01*
X2062300Y-780680D01*
X2062620Y-776540D01*
X2062300Y-772380D01*
X2061300Y-768340D01*
X2059660Y-764520D01*
X2057440Y-761000D01*
X2054680Y-757900D01*
X2051459Y-755260D01*
X2049079Y-753900D01*
X2048020Y-753000D01*
X2047320Y-751800D01*
X2047080Y-750420D01*
X2047080Y-741620D01*
X2027340Y-741620D01*
X2027340Y-747460D01*
X2027020Y-749000D01*
X2026160Y-750300D01*
X2024860Y-751160D01*
X2023340Y-751460D01*
X1999920Y-751460D01*
X1999920Y-764980D01*
X2007940Y-764980D01*
X2009420Y-765260D01*
X2010700Y-766060D01*
X2011579Y-767280D01*
X2011940Y-768740D01*
X2011040Y-774460D01*
X2011040Y-778600D01*
X2011699Y-782720D01*
X2013020Y-786660D01*
X2014960Y-790340D01*
X2017460Y-793660D01*
X2020460Y-796540D01*
X2023880Y-798900D01*
X2027620Y-800680D01*
X2031620Y-801840D01*
G37*
G36*
X1711260Y-776220D02*
G01*
X1714440Y-776220D01*
X1716900Y-775939D01*
X1719040Y-775180D01*
X1720940Y-773980D01*
X1722540Y-772400D01*
X1723740Y-770480D01*
X1724480Y-768360D01*
X1724760Y-765879D01*
X1724760Y-753360D01*
X1711260Y-753360D01*
G37*
G36*
X1962220Y-764980D02*
G01*
X1971300Y-764980D01*
X1971300Y-751460D01*
X1951879Y-751460D01*
X1951879Y-754640D01*
X1952160Y-757120D01*
X1952900Y-759240D01*
X1954100Y-761160D01*
X1955700Y-762740D01*
X1957620Y-763960D01*
X1959740Y-764700D01*
G37*
G36*
X2077680Y-761040D02*
G01*
X2087740Y-761040D01*
X2090220Y-760759D01*
X2092340Y-760020D01*
X2094259Y-758820D01*
X2095840Y-757220D01*
X2097040Y-755300D01*
X2097800Y-753180D01*
X2098060Y-750720D01*
X2098060Y-741620D01*
X2077680Y-741620D01*
G37*
G36*
X1999920Y-734659D02*
G01*
X2018680Y-734659D01*
X2018680Y-727960D01*
X2018300Y-726880D01*
X2017100Y-724960D01*
X2015520Y-723379D01*
X2013600Y-722180D01*
X2011480Y-721420D01*
X2009000Y-721160D01*
X1999920Y-721160D01*
G37*
G36*
X1951879Y-734659D02*
G01*
X1971300Y-734659D01*
X1971300Y-721160D01*
X1962220Y-721160D01*
X1959740Y-721420D01*
X1957620Y-722180D01*
X1955700Y-723379D01*
X1954100Y-724960D01*
X1952900Y-726880D01*
X1952160Y-729000D01*
X1951879Y-731480D01*
G37*
G36*
X1711260Y-717840D02*
G01*
X1724760Y-717840D01*
X1724760Y-705320D01*
X1724480Y-702840D01*
X1723740Y-700720D01*
X1722540Y-698800D01*
X1720940Y-697220D01*
X1719040Y-696020D01*
X1716900Y-695260D01*
X1714440Y-694980D01*
X1711260Y-694980D01*
G37*
G36*
X2026680Y-713000D02*
G01*
X2047080Y-713000D01*
X2047080Y-693600D01*
X2037020Y-693600D01*
X2034540Y-693880D01*
X2032420Y-694620D01*
X2030500Y-695819D01*
X2028920Y-697420D01*
X2027720Y-699320D01*
X2026960Y-701460D01*
X2026680Y-703920D01*
G37*
G36*
X2077680Y-713000D02*
G01*
X2098060Y-713000D01*
X2098060Y-703920D01*
X2097800Y-701460D01*
X2097040Y-699320D01*
X2095840Y-697420D01*
X2094259Y-695819D01*
X2092340Y-694620D01*
X2090220Y-693880D01*
X2087740Y-693600D01*
X2077680Y-693600D01*
G37*
G36*
X1470800Y-681720D02*
G01*
X1479880Y-681720D01*
X1479880Y-656400D01*
X1460480Y-656400D01*
X1460480Y-671400D01*
X1460740Y-673860D01*
X1461500Y-676000D01*
X1462700Y-677900D01*
X1464280Y-679500D01*
X1466200Y-680699D01*
X1468320Y-681440D01*
G37*
G36*
X1768340Y-681720D02*
G01*
X1777420Y-681720D01*
X1779900Y-681440D01*
X1782020Y-680699D01*
X1783940Y-679500D01*
X1785540Y-677900D01*
X1786740Y-676000D01*
X1787480Y-673860D01*
X1787760Y-671400D01*
X1787760Y-656400D01*
X1768340Y-656400D01*
G37*
G36*
X1730640Y-681720D02*
G01*
X1739720Y-681720D01*
X1739720Y-656400D01*
X1720320Y-656400D01*
X1720320Y-671400D01*
X1720580Y-673860D01*
X1721339Y-676000D01*
X1722540Y-677900D01*
X1724120Y-679500D01*
X1726040Y-680699D01*
X1728160Y-681440D01*
G37*
G36*
X1508500Y-681720D02*
G01*
X1517580Y-681720D01*
X1520060Y-681440D01*
X1522180Y-680699D01*
X1524100Y-679500D01*
X1525700Y-677900D01*
X1526900Y-676000D01*
X1527640Y-673860D01*
X1527920Y-671400D01*
X1527920Y-656400D01*
X1508500Y-656400D01*
G37*
G36*
X1460480Y-615980D02*
G01*
X1479880Y-615980D01*
X1479880Y-590660D01*
X1470800Y-590660D01*
X1468320Y-590940D01*
X1466200Y-591680D01*
X1464280Y-592880D01*
X1462700Y-594480D01*
X1461500Y-596380D01*
X1460740Y-598520D01*
X1460480Y-600980D01*
G37*
G36*
X1720320Y-615980D02*
G01*
X1739720Y-615980D01*
X1739720Y-590660D01*
X1730640Y-590660D01*
X1728160Y-590940D01*
X1726040Y-591680D01*
X1724120Y-592880D01*
X1722540Y-594480D01*
X1721339Y-596380D01*
X1720580Y-598520D01*
X1720320Y-600980D01*
G37*
G36*
X1508500Y-615980D02*
G01*
X1527920Y-615980D01*
X1527920Y-600980D01*
X1527640Y-598520D01*
X1526900Y-596380D01*
X1525700Y-594480D01*
X1524100Y-592880D01*
X1522180Y-591680D01*
X1520060Y-590940D01*
X1517580Y-590660D01*
X1508500Y-590660D01*
G37*
G36*
X1768340Y-615980D02*
G01*
X1787760Y-615980D01*
X1787760Y-600980D01*
X1787480Y-598520D01*
X1786740Y-596380D01*
X1785540Y-594480D01*
X1783940Y-592880D01*
X1782020Y-591680D01*
X1779900Y-590940D01*
X1777420Y-590660D01*
X1768340Y-590660D01*
G37*
G36*
X1002380Y-606320D02*
G01*
X1017840Y-606320D01*
X1017840Y-597220D01*
X1017580Y-594760D01*
X1016820Y-592640D01*
X1015620Y-590720D01*
X1014020Y-589120D01*
X1012120Y-587920D01*
X1009980Y-587180D01*
X1007520Y-586900D01*
X1002380Y-586900D01*
G37*
G36*
X2077680Y-591400D02*
G01*
X2087740Y-591400D01*
X2090220Y-591120D01*
X2092340Y-590360D01*
X2094259Y-589160D01*
X2095840Y-587580D01*
X2097040Y-585660D01*
X2097800Y-583540D01*
X2098060Y-581060D01*
X2098060Y-571980D01*
X2077680Y-571980D01*
G37*
G36*
X2037020Y-591400D02*
G01*
X2047080Y-591400D01*
X2047080Y-571980D01*
X2026680Y-571980D01*
X2026680Y-581060D01*
X2026960Y-583540D01*
X2027720Y-585660D01*
X2028920Y-587580D01*
X2030500Y-589160D01*
X2032420Y-590360D01*
X2034540Y-591120D01*
G37*
G36*
X2077680Y-543360D02*
G01*
X2098060Y-543360D01*
X2098060Y-534280D01*
X2097800Y-531800D01*
X2097040Y-529680D01*
X2095840Y-527760D01*
X2094259Y-526180D01*
X2092340Y-524980D01*
X2090220Y-524219D01*
X2087740Y-523940D01*
X2077680Y-523940D01*
G37*
G36*
X2035740Y-467340D02*
G01*
X2039900Y-467180D01*
X2043980Y-466340D01*
X2047860Y-464880D01*
X2051459Y-462800D01*
X2054680Y-460160D01*
X2057440Y-457060D01*
X2059660Y-453540D01*
X2061300Y-449720D01*
X2062300Y-445680D01*
X2062620Y-441540D01*
X2062300Y-437380D01*
X2061300Y-433340D01*
X2059660Y-429520D01*
X2057440Y-426000D01*
X2054680Y-422900D01*
X2051459Y-420260D01*
X2049079Y-418900D01*
X2048020Y-418000D01*
X2047320Y-416800D01*
X2047080Y-415420D01*
X2047080Y-406620D01*
X2027340Y-406620D01*
X2027340Y-412460D01*
X2027020Y-414000D01*
X2026160Y-415300D01*
X2024860Y-416160D01*
X2023340Y-416460D01*
X1999920Y-416460D01*
X1999920Y-429980D01*
X2007940Y-429980D01*
X2009420Y-430260D01*
X2010700Y-431060D01*
X2011579Y-432280D01*
X2011940Y-433740D01*
X2011040Y-439460D01*
X2011040Y-443600D01*
X2011699Y-447720D01*
X2013020Y-451659D01*
X2014960Y-455340D01*
X2017460Y-458660D01*
X2020460Y-461540D01*
X2023880Y-463900D01*
X2027620Y-465680D01*
X2031620Y-466840D01*
G37*
G36*
X1962220Y-429980D02*
G01*
X1971300Y-429980D01*
X1971300Y-416460D01*
X1951879Y-416460D01*
X1951879Y-419640D01*
X1952160Y-422120D01*
X1952900Y-424240D01*
X1954100Y-426160D01*
X1955700Y-427740D01*
X1957620Y-428960D01*
X1959740Y-429700D01*
G37*
G36*
X2077680Y-426040D02*
G01*
X2087740Y-426040D01*
X2090220Y-425760D01*
X2092340Y-425020D01*
X2094259Y-423820D01*
X2095840Y-422220D01*
X2097040Y-420300D01*
X2097800Y-418180D01*
X2098060Y-415720D01*
X2098060Y-406620D01*
X2077680Y-406620D01*
G37*
G36*
X1999920Y-399660D02*
G01*
X2018680Y-399660D01*
X2018680Y-392960D01*
X2018300Y-391880D01*
X2017100Y-389960D01*
X2015520Y-388380D01*
X2013600Y-387180D01*
X2011480Y-386420D01*
X2009000Y-386160D01*
X1999920Y-386160D01*
G37*
G36*
X1951879Y-399660D02*
G01*
X1971300Y-399660D01*
X1971300Y-386160D01*
X1962220Y-386160D01*
X1959740Y-386420D01*
X1957620Y-387180D01*
X1955700Y-388380D01*
X1954100Y-389960D01*
X1952900Y-391880D01*
X1952160Y-394000D01*
X1951879Y-396480D01*
G37*
G36*
X1635800Y-385060D02*
G01*
X1643000Y-384500D01*
X1650080Y-383220D01*
X1657020Y-381200D01*
X1663700Y-378480D01*
X1670080Y-375080D01*
X1676060Y-371060D01*
X1681600Y-366440D01*
X1686639Y-361260D01*
X1691120Y-355600D01*
X1695000Y-349520D01*
X1698220Y-343060D01*
X1700760Y-336300D01*
X1702600Y-329320D01*
X1703720Y-322200D01*
X1704079Y-315000D01*
X1703720Y-307780D01*
X1702600Y-300660D01*
X1700760Y-293680D01*
X1698220Y-286920D01*
X1695000Y-280460D01*
X1691120Y-274380D01*
X1686639Y-268720D01*
X1681600Y-263540D01*
X1676060Y-258920D01*
X1670080Y-254899D01*
X1663700Y-251500D01*
X1657020Y-248780D01*
X1650080Y-246759D01*
X1643000Y-245479D01*
X1635800Y-244920D01*
X1628580Y-245100D01*
X1621420Y-246040D01*
X1614400Y-247680D01*
X1607580Y-250060D01*
X1601040Y-253120D01*
X1594860Y-256840D01*
X1589079Y-261160D01*
X1583800Y-266060D01*
X1579019Y-271480D01*
X1574840Y-277380D01*
X1571300Y-283660D01*
X1568400Y-290260D01*
X1566200Y-297140D01*
X1564740Y-304200D01*
X1563980Y-311380D01*
X1563980Y-318600D01*
X1564740Y-325780D01*
X1566200Y-332840D01*
X1568400Y-339720D01*
X1571300Y-346320D01*
X1574840Y-352600D01*
X1579019Y-358500D01*
X1583800Y-363920D01*
X1589079Y-368820D01*
X1594860Y-373140D01*
X1601040Y-376860D01*
X1607580Y-379920D01*
X1614400Y-382299D01*
X1621420Y-383940D01*
X1628580Y-384880D01*
G37*
G36*
X2077680Y-378000D02*
G01*
X2098060Y-378000D01*
X2098060Y-368920D01*
X2097800Y-366460D01*
X2097040Y-364320D01*
X2095840Y-362420D01*
X2094259Y-360820D01*
X2092340Y-359620D01*
X2090220Y-358880D01*
X2087740Y-358600D01*
X2077680Y-358600D01*
G37*
G36*
X2026680Y-378000D02*
G01*
X2047080Y-378000D01*
X2047080Y-358600D01*
X2037020Y-358600D01*
X2034540Y-358880D01*
X2032420Y-359620D01*
X2030500Y-360820D01*
X2028920Y-362420D01*
X2027720Y-364320D01*
X2026960Y-366460D01*
X2026680Y-368920D01*
G37*
G36*
X1500180Y-340120D02*
G01*
X1530400Y-340120D01*
X1530400Y-335460D01*
X1530140Y-332980D01*
X1529379Y-330860D01*
X1528180Y-328940D01*
X1527060Y-327819D01*
X1526200Y-326520D01*
X1525880Y-325000D01*
X1526200Y-323459D01*
X1527060Y-322160D01*
X1528180Y-321040D01*
X1529379Y-319120D01*
X1530140Y-317000D01*
X1530400Y-314540D01*
X1530400Y-309880D01*
X1500180Y-309880D01*
G37*
G36*
X1500180Y-290120D02*
G01*
X1530400Y-290120D01*
X1530400Y-285460D01*
X1530140Y-282980D01*
X1529379Y-280860D01*
X1528180Y-278940D01*
X1527060Y-277820D01*
X1526200Y-276520D01*
X1525880Y-275000D01*
X1526200Y-273460D01*
X1527060Y-272160D01*
X1528180Y-271040D01*
X1529379Y-269120D01*
X1530140Y-267000D01*
X1530400Y-264540D01*
X1530400Y-259880D01*
X1500180Y-259880D01*
G37*
G36*
X1500180Y-240120D02*
G01*
X1530400Y-240120D01*
X1530400Y-235460D01*
X1530140Y-232979D01*
X1529379Y-230859D01*
X1528180Y-228939D01*
X1527060Y-227820D01*
X1526200Y-226520D01*
X1525880Y-225000D01*
X1526200Y-223460D01*
X1527060Y-222160D01*
X1528180Y-221040D01*
X1529379Y-219120D01*
X1530140Y-217000D01*
X1530400Y-214540D01*
X1530400Y-209880D01*
X1500180Y-209880D01*
G37*

%LPD*%
G36*
X376800Y-286140D02*
G01*
X348040Y-288560D01*
X381440Y-321980D01*
X383860Y-293220D01*
G37*
G36*
X381440Y-418020D02*
G01*
X348020Y-451440D01*
X376780Y-453860D01*
X383860Y-446780D01*
G37*
G36*
X276800Y-386140D02*
G01*
X248039Y-388560D01*
X281440Y-421980D01*
X283860Y-393220D01*
G37*
G36*
X176800Y-386140D02*
G01*
X148040Y-388560D01*
X181439Y-421980D01*
X183860Y-393220D01*
G37*
G36*
X247860Y-1479600D02*
G01*
X225799Y-1481000D01*
X225840Y-1528240D01*
X247900Y-1529600D01*
G37*
G36*
X200000Y-1461759D02*
G01*
X181380Y-1483800D01*
X228619Y-1483800D01*
X210000Y-1461759D01*
G37*
G36*
X773660Y-1772800D02*
G01*
X773660Y-1792800D01*
X782060Y-1791800D01*
X782060Y-1773800D01*
G37*
G36*
X998020Y-1644920D02*
G01*
X989240Y-1648020D01*
X1001979Y-1660760D01*
X1005080Y-1651980D01*
G37*
G36*
X968020Y-1644920D02*
G01*
X959240Y-1648020D01*
X971979Y-1660760D01*
X975080Y-1651980D01*
G37*
G36*
X461599Y-1088520D02*
G01*
X443600Y-1088540D01*
X447600Y-1096920D01*
X457600Y-1096920D01*
G37*
G36*
X415540Y-1151600D02*
G01*
X415520Y-1169600D01*
X423920Y-1165600D01*
X423920Y-1155600D01*
G37*
G36*
X528020Y-314920D02*
G01*
X519240Y-318020D01*
X531980Y-330760D01*
X535080Y-321980D01*
G37*
G36*
X1395000Y-448660D02*
G01*
X1391000Y-457060D01*
X1409000Y-457060D01*
X1405000Y-448660D01*
G37*
G36*
X1407940Y-456000D02*
G01*
X1407940Y-474000D01*
X1416339Y-470000D01*
X1416339Y-460000D01*
G37*
G36*
X1207740Y-600440D02*
G01*
X1199060Y-603820D01*
X1198340Y-613820D01*
X1206440Y-618400D01*
G37*
G36*
X1538080Y-336500D02*
G01*
X1525480Y-345000D01*
X1525500Y-355000D01*
X1538100Y-363500D01*
G37*
G36*
X1538080Y-386500D02*
G01*
X1525480Y-395000D01*
X1525500Y-405000D01*
X1538100Y-413500D01*
G37*
G36*
X897000Y-775000D02*
G01*
X897000Y-805000D01*
X905100Y-803500D01*
X905100Y-776500D01*
G37*
G36*
X937000Y-775000D02*
G01*
X928900Y-776500D01*
X928900Y-803500D01*
X937000Y-805000D01*
G37*
G36*
X903500Y-686900D02*
G01*
X904500Y-699500D01*
X929500Y-699500D01*
X930500Y-686900D01*
G37*
G36*
X816000Y-1835700D02*
G01*
X820000Y-1844100D01*
X830000Y-1844100D01*
X834000Y-1835700D01*
G37*
G36*
X747400Y-1880100D02*
G01*
X747260Y-1888580D01*
X765060Y-1891240D01*
X767400Y-1883080D01*
G37*
G36*
X918920Y-2066600D02*
G01*
X910520Y-2067600D01*
X910520Y-2085600D01*
X918920Y-2086600D01*
G37*
G36*
X1538240Y-612900D02*
G01*
X1521440Y-620900D01*
X1521440Y-640900D01*
X1538240Y-648900D01*
G37*
G36*
X1712700Y-615720D02*
G01*
X1706860Y-651240D01*
X1724720Y-646200D01*
X1728000Y-626200D01*
G37*
G36*
X1715680Y-641420D02*
G01*
X1680980Y-651000D01*
X1692800Y-665160D01*
X1712800Y-659659D01*
G37*
G36*
X1654820Y-683500D02*
G01*
X1658500Y-692039D01*
X1668500Y-692420D01*
X1672820Y-684180D01*
G37*
G36*
X1124180Y-1650040D02*
G01*
X1121500Y-1667840D01*
X1129640Y-1670200D01*
X1132660Y-1650200D01*
G37*
G36*
X1538260Y-857900D02*
G01*
X1521459Y-865879D01*
X1521440Y-885879D01*
X1538220Y-893900D01*
G37*
G36*
X1712680Y-860699D02*
G01*
X1706879Y-896240D01*
X1724740Y-891180D01*
X1728000Y-871180D01*
G37*
G36*
X1715700Y-886420D02*
G01*
X1681000Y-896000D01*
X1692820Y-910160D01*
X1712820Y-904640D01*
G37*
G36*
X1654840Y-928500D02*
G01*
X1658520Y-937060D01*
X1668520Y-937420D01*
X1672820Y-929180D01*
G37*
G36*
X1157740Y-200440D02*
G01*
X1149060Y-203800D01*
X1148340Y-213800D01*
X1156420Y-218400D01*
G37*
G36*
X441980Y-369240D02*
G01*
X429240Y-381980D01*
X438020Y-385080D01*
X445080Y-378020D01*
G37*
G36*
X688259Y-581700D02*
G01*
X687000Y-590620D01*
X697000Y-596240D01*
X703960Y-590500D01*
G37*
G36*
X733020Y-587120D02*
G01*
X737020Y-595520D01*
X747020Y-595520D01*
X751020Y-587120D01*
G37*
G36*
X783020Y-587120D02*
G01*
X787020Y-595520D01*
X797020Y-595520D01*
X801020Y-587120D01*
G37*
G36*
X833020Y-577120D02*
G01*
X837020Y-585520D01*
X847020Y-585520D01*
X851020Y-577120D01*
G37*
G36*
X883020Y-577120D02*
G01*
X887020Y-585520D01*
X897020Y-585520D01*
X901020Y-577120D01*
G37*
G36*
X944000Y-568420D02*
G01*
X931260Y-581160D01*
X938480Y-582720D01*
X945560Y-575640D01*
G37*
G36*
X973100Y-524159D02*
G01*
X972760Y-542140D01*
X981240Y-538320D01*
X981420Y-528320D01*
G37*
G36*
X973100Y-474159D02*
G01*
X972760Y-492140D01*
X981240Y-488320D01*
X981420Y-478320D01*
G37*
G36*
X972860Y-425120D02*
G01*
X973000Y-443100D01*
X981380Y-439040D01*
X981300Y-429040D01*
G37*
G36*
X972860Y-375120D02*
G01*
X973000Y-393100D01*
X981380Y-389040D01*
X981300Y-379040D01*
G37*
G36*
X972860Y-325120D02*
G01*
X973000Y-343100D01*
X981380Y-339040D01*
X981300Y-329040D01*
G37*
G36*
X972860Y-275120D02*
G01*
X973000Y-293100D01*
X981380Y-289040D01*
X981300Y-279040D01*
G37*
G36*
X972940Y-224820D02*
G01*
X972940Y-242820D01*
X981340Y-238820D01*
X981340Y-228820D01*
G37*
G36*
X972860Y-175120D02*
G01*
X973000Y-193100D01*
X981380Y-189040D01*
X981300Y-179040D01*
G37*
G36*
X748300Y-1765040D02*
G01*
X748300Y-1800480D01*
X778300Y-1792800D01*
X778300Y-1772800D01*
G37*
G36*
X716820Y-1800480D02*
G01*
X722600Y-1805200D01*
X742600Y-1805200D01*
X748300Y-1800480D01*
G37*
G36*
X944520Y-1902000D02*
G01*
X925460Y-1933500D01*
X951380Y-1948620D01*
X962039Y-1931000D01*
G37*
G36*
X1730420Y-611200D02*
G01*
X1700420Y-626200D01*
X1700420Y-646200D01*
X1730420Y-661200D01*
G37*
G36*
X1517820Y-605900D02*
G01*
X1517820Y-655900D01*
X1547820Y-640900D01*
X1547820Y-620900D01*
G37*
G36*
X1579700Y-690100D02*
G01*
X1572940Y-705100D01*
X1596560Y-705100D01*
X1589700Y-690100D01*
G37*
G36*
X1575100Y-766120D02*
G01*
X1582600Y-781120D01*
X1592600Y-781120D01*
X1596560Y-766120D01*
G37*
G36*
X1619100Y-690100D02*
G01*
X1612320Y-705100D01*
X1635940Y-705100D01*
X1629100Y-690100D01*
G37*
G36*
X1612320Y-766120D02*
G01*
X1619100Y-781120D01*
X1629100Y-781120D01*
X1635940Y-766120D01*
G37*
G36*
X1658500Y-690100D02*
G01*
X1651680Y-705100D01*
X1675300Y-705100D01*
X1668500Y-690100D01*
G37*
G36*
X1692800Y-675100D02*
G01*
X1691060Y-705100D01*
X1714660Y-705100D01*
X1712800Y-675100D01*
G37*
G36*
X24260Y-879520D02*
G01*
X27500Y-917020D01*
X52500Y-917020D01*
X55740Y-879520D01*
G37*
G36*
X27500Y-542980D02*
G01*
X24260Y-580480D01*
X55740Y-580480D01*
X52500Y-542980D01*
G37*
G36*
X632400Y-855460D02*
G01*
X626260Y-885460D01*
X657740Y-885460D01*
X652400Y-855460D01*
G37*
G36*
X731600Y-855460D02*
G01*
X726260Y-885460D01*
X757740Y-885460D01*
X751600Y-855460D01*
G37*
G36*
X809260Y-1910160D02*
G01*
X796300Y-1924120D01*
X809340Y-1925220D01*
X834160Y-1912280D01*
G37*
G36*
X820000Y-1838220D02*
G01*
X812500Y-1853220D01*
X837500Y-1853220D01*
X830000Y-1838220D01*
G37*
G36*
X1111700Y-1507800D02*
G01*
X1129120Y-1582800D01*
X1179120Y-1582800D01*
X1198300Y-1507800D01*
G37*
G36*
X1115000Y-1190000D02*
G01*
X1111700Y-1232200D01*
X1198300Y-1232200D01*
X1195000Y-1190000D01*
G37*
G36*
X962500Y-1632280D02*
G01*
X970000Y-1645000D01*
X980000Y-1645000D01*
X987500Y-1632280D01*
G37*
G36*
X990759Y-1573220D02*
G01*
X990759Y-1592920D01*
X1005759Y-1588100D01*
X1005759Y-1578100D01*
G37*
G36*
X840639Y-1718000D02*
G01*
X825639Y-1725500D01*
X825639Y-1735500D01*
X840639Y-1743000D01*
G37*
G36*
X840639Y-1765860D02*
G01*
X855000Y-1840860D01*
X905000Y-1840860D01*
X919380Y-1765860D01*
G37*
G36*
X919380Y-1695000D02*
G01*
X840639Y-1765860D01*
X903700Y-1789540D01*
X939980Y-1755120D01*
G37*
G36*
X840639Y-1529640D02*
G01*
X799500Y-1540100D01*
X799500Y-1590100D01*
X840639Y-1600500D01*
G37*
G36*
X919380Y-1529640D02*
G01*
X919380Y-1600500D01*
X957000Y-1590100D01*
X957000Y-1540100D01*
G37*
G36*
X278560Y-1357960D02*
G01*
X253640Y-1360120D01*
X274000Y-1368560D01*
X284040Y-1364460D01*
G37*
G36*
X247060Y-1357920D02*
G01*
X234180Y-1371860D01*
X247180Y-1373000D01*
X271960Y-1360120D01*
G37*
G36*
X274000Y-1292620D02*
G01*
X253660Y-1301060D01*
X278560Y-1303280D01*
X284040Y-1296740D01*
G37*
G36*
X447600Y-1181060D02*
G01*
X440100Y-1196060D01*
X465100Y-1196060D01*
X457600Y-1181060D01*
G37*
G36*
X440100Y-1255120D02*
G01*
X447600Y-1270120D01*
X457600Y-1270120D01*
X465100Y-1255120D01*
G37*
G36*
X447600Y-1096060D02*
G01*
X440100Y-1111060D01*
X465100Y-1111060D01*
X457600Y-1096060D01*
G37*
G36*
X436840Y-1150440D02*
G01*
X421840Y-1155600D01*
X421840Y-1165600D01*
X436840Y-1170120D01*
G37*
G36*
X440100Y-1170120D02*
G01*
X447600Y-1185120D01*
X457600Y-1185120D01*
X465100Y-1170120D01*
G37*
G36*
X623100Y-850440D02*
G01*
X632140Y-880440D01*
X652159Y-880440D01*
X662480Y-850440D01*
G37*
G36*
X662480Y-782840D02*
G01*
X662480Y-807840D01*
X667000Y-797880D01*
X663460Y-787260D01*
G37*
G36*
X721520Y-850440D02*
G01*
X731860Y-880440D01*
X751860Y-880440D01*
X760900Y-850440D01*
G37*
G36*
X721520Y-782820D02*
G01*
X717000Y-797880D01*
X720540Y-787260D01*
X721520Y-807820D01*
G37*
G36*
X1270000Y-1708200D02*
G01*
X1262500Y-1718220D01*
X1287500Y-1718220D01*
X1280000Y-1708200D01*
G37*
G36*
X1262500Y-1777280D02*
G01*
X1270000Y-1787500D01*
X1280000Y-1787500D01*
X1287500Y-1777280D01*
G37*
G36*
X1325000Y-1708200D02*
G01*
X1317500Y-1718220D01*
X1342500Y-1718220D01*
X1335000Y-1708200D01*
G37*
G36*
X1317500Y-1777280D02*
G01*
X1325000Y-1787500D01*
X1335000Y-1787500D01*
X1342500Y-1777280D01*
G37*
G36*
X1520320Y-387500D02*
G01*
X1520320Y-412500D01*
X1535320Y-405000D01*
X1535320Y-395000D01*
G37*
G36*
X1272300Y-387500D02*
G01*
X1265000Y-395000D01*
X1265000Y-405000D01*
X1272300Y-412500D01*
G37*
G36*
X1470000Y-320240D02*
G01*
X1462500Y-335240D01*
X1487500Y-335240D01*
X1480000Y-320240D01*
G37*
G36*
X1520320Y-337500D02*
G01*
X1520320Y-362500D01*
X1535320Y-355000D01*
X1535320Y-345000D01*
G37*
G36*
X1272300Y-337500D02*
G01*
X1265000Y-345000D01*
X1265000Y-355000D01*
X1272300Y-362500D01*
G37*
G36*
X1462500Y-314760D02*
G01*
X1470000Y-329760D01*
X1480000Y-329760D01*
X1487500Y-314760D01*
G37*
G36*
X1470000Y-270240D02*
G01*
X1462500Y-285240D01*
X1487500Y-285240D01*
X1480000Y-270240D01*
G37*
G36*
X1462500Y-264760D02*
G01*
X1470000Y-279760D01*
X1480000Y-279760D01*
X1487500Y-264760D01*
G37*
G36*
X1470000Y-220240D02*
G01*
X1462500Y-235240D01*
X1487500Y-235240D01*
X1480000Y-220240D01*
G37*
G36*
X1462500Y-214760D02*
G01*
X1470000Y-229760D01*
X1480000Y-229760D01*
X1487500Y-214760D01*
G37*
G36*
X1362860Y-190360D02*
G01*
X1362860Y-214760D01*
X1377860Y-224940D01*
X1377860Y-210799D01*
G37*
G36*
X937020Y-582000D02*
G01*
X929520Y-597000D01*
X954520Y-597000D01*
X947020Y-582000D01*
G37*
G36*
X887020Y-582000D02*
G01*
X879520Y-597000D01*
X904520Y-597000D01*
X897020Y-582000D01*
G37*
G36*
X837020Y-582000D02*
G01*
X829520Y-597000D01*
X854520Y-597000D01*
X847020Y-582000D01*
G37*
G36*
X787020Y-582000D02*
G01*
X779520Y-597000D01*
X804520Y-597000D01*
X797020Y-582000D01*
G37*
G36*
X737020Y-582000D02*
G01*
X729520Y-597000D01*
X754520Y-597000D01*
X747020Y-582000D01*
G37*
G36*
X687000Y-587200D02*
G01*
X679500Y-597000D01*
X704500Y-597000D01*
X697000Y-587200D01*
G37*
G36*
X983740Y-421520D02*
G01*
X968740Y-429140D01*
X968740Y-439140D01*
X983740Y-446520D01*
G37*
G36*
X983740Y-371520D02*
G01*
X968740Y-379140D01*
X968740Y-389140D01*
X983740Y-396520D01*
G37*
G36*
X983740Y-321520D02*
G01*
X968740Y-329140D01*
X968740Y-339140D01*
X983740Y-346520D01*
G37*
G36*
X983740Y-271520D02*
G01*
X968740Y-279140D01*
X968740Y-289140D01*
X983740Y-296520D01*
G37*
G36*
X983740Y-221320D02*
G01*
X968740Y-228820D01*
X968740Y-238820D01*
X983740Y-246320D01*
G37*
G36*
X983740Y-171520D02*
G01*
X968740Y-179140D01*
X968740Y-189140D01*
X983740Y-196520D01*
G37*
G36*
X983740Y-470860D02*
G01*
X968740Y-478060D01*
X968740Y-488080D01*
X983740Y-495860D01*
G37*
G36*
X983740Y-520860D02*
G01*
X968740Y-528060D01*
X968740Y-538080D01*
X983740Y-545860D01*
G37*
G36*
X546720Y-543060D02*
G01*
X509219Y-546300D01*
X509219Y-571300D01*
X546720Y-574580D01*
G37*
G36*
X546720Y-593080D02*
G01*
X509219Y-597500D01*
X509219Y-622500D01*
X546720Y-624580D01*
G37*
G36*
X625460Y-502960D02*
G01*
X625460Y-524580D01*
X640460Y-537540D01*
X640460Y-523400D01*
G37*
G36*
X546720Y-446300D02*
G01*
X531720Y-453800D01*
X531720Y-463800D01*
X546720Y-471300D01*
G37*
G36*
X546720Y-396320D02*
G01*
X531720Y-403820D01*
X531720Y-413820D01*
X546720Y-421320D01*
G37*
G36*
X546720Y-296300D02*
G01*
X541200Y-303800D01*
X541200Y-313800D01*
X546720Y-321300D01*
G37*
G36*
X546720Y-246300D02*
G01*
X531720Y-253800D01*
X531720Y-263800D01*
X546720Y-271300D01*
G37*
G36*
X546720Y-196300D02*
G01*
X531720Y-203800D01*
X531720Y-213800D01*
X546720Y-221300D01*
G37*
G36*
X546720Y-146300D02*
G01*
X531720Y-153800D01*
X531720Y-163800D01*
X546720Y-171300D01*
G37*
G36*
X1137280Y-196300D02*
G01*
X1137280Y-221300D01*
X1152280Y-213800D01*
X1152280Y-203800D01*
G37*
G36*
X1137280Y-146300D02*
G01*
X1137280Y-171300D01*
X1152280Y-163800D01*
X1152280Y-153800D01*
G37*
G36*
X1137280Y-246300D02*
G01*
X1137280Y-271300D01*
X1152280Y-263800D01*
X1152280Y-253800D01*
G37*
G36*
X1137280Y-296300D02*
G01*
X1137280Y-321300D01*
X1152280Y-313800D01*
X1152280Y-303800D01*
G37*
G36*
X1137280Y-346300D02*
G01*
X1137280Y-371300D01*
X1152280Y-363800D01*
X1152280Y-353800D01*
G37*
G36*
X1137280Y-396300D02*
G01*
X1137280Y-421300D01*
X1152280Y-413800D01*
X1152280Y-403800D01*
G37*
G36*
X1137280Y-446300D02*
G01*
X1137280Y-471300D01*
X1147300Y-463800D01*
X1147300Y-453800D01*
G37*
G36*
X1137280Y-496300D02*
G01*
X1137280Y-521300D01*
X1147300Y-513800D01*
X1147300Y-503800D01*
G37*
G36*
X1137280Y-546300D02*
G01*
X1137280Y-571300D01*
X1152280Y-563800D01*
X1152280Y-553800D01*
G37*
G36*
X1137280Y-596320D02*
G01*
X1137280Y-621320D01*
X1152280Y-613820D01*
X1152280Y-603820D01*
G37*
G36*
X654500Y-750540D02*
G01*
X662000Y-765540D01*
X672000Y-765540D01*
X679500Y-750540D01*
G37*
G36*
X704500Y-750540D02*
G01*
X712000Y-765540D01*
X722000Y-765540D01*
X729500Y-750540D01*
G37*
G36*
X851260Y-750540D02*
G01*
X852000Y-760000D01*
X882000Y-760000D01*
X882760Y-750540D01*
G37*
G36*
X951260Y-750540D02*
G01*
X952000Y-760000D01*
X982000Y-760000D01*
X982760Y-750540D01*
G37*
G36*
X1126500Y-1649319D02*
G01*
X1117400Y-1650200D01*
X1117400Y-1670200D01*
X1126500Y-1670980D01*
G37*
G36*
X1063500Y-1649319D02*
G01*
X1063500Y-1670980D01*
X1067600Y-1665200D01*
X1067600Y-1655200D01*
G37*
G36*
X1024140Y-1613360D02*
G01*
X1009140Y-1633800D01*
X1009140Y-1647940D01*
X1024140Y-1633580D01*
G37*
G36*
X1063500Y-1574520D02*
G01*
X1063500Y-1596180D01*
X1078500Y-1608380D01*
X1078500Y-1594240D01*
G37*
G36*
X1024140Y-1574520D02*
G01*
X1009140Y-1578100D01*
X1009140Y-1588100D01*
X1024140Y-1595600D01*
G37*
G36*
X783220Y-1937200D02*
G01*
X768220Y-1946780D01*
X768220Y-1971780D01*
X783220Y-1951339D01*
G37*
G36*
X677600Y-1826879D02*
G01*
X671780Y-1841879D01*
X693420Y-1841879D01*
X687600Y-1826879D01*
G37*
G36*
X746580Y-1881260D02*
G01*
X747400Y-1895400D01*
X767400Y-1895400D01*
X768220Y-1881260D01*
G37*
G36*
X292780Y-1355500D02*
G01*
X280500Y-1363000D01*
X280500Y-1373000D01*
X292780Y-1380500D01*
G37*
G36*
X442420Y-1295900D02*
G01*
X422000Y-1310900D01*
X442400Y-1310900D01*
X456580Y-1295900D01*
G37*
G36*
X292780Y-1280700D02*
G01*
X280500Y-1288200D01*
X280500Y-1298200D01*
X292780Y-1305700D01*
G37*
G36*
X315400Y-1258500D02*
G01*
X307900Y-1273500D01*
X332900Y-1273500D01*
X325400Y-1258500D01*
G37*
G36*
X777380Y-1551860D02*
G01*
X716680Y-1600660D01*
X771800Y-1640040D01*
X818640Y-1581320D01*
G37*
G36*
X622200Y-1677440D02*
G01*
X624800Y-1752440D01*
X674800Y-1752440D01*
X677320Y-1677440D01*
G37*
G36*
X616660Y-1589240D02*
G01*
X575400Y-1618700D01*
X622200Y-1677440D01*
X677320Y-1638060D01*
G37*
G36*
X751340Y-1714840D02*
G01*
X771760Y-1729840D01*
X785920Y-1729840D01*
X771800Y-1714840D01*
G37*
G36*
X55740Y-997760D02*
G01*
X55740Y-1029240D01*
X86500Y-1026000D01*
X86500Y-1001000D01*
G37*
G36*
X27500Y-893259D02*
G01*
X24260Y-930759D01*
X55740Y-930759D01*
X52500Y-893259D01*
G37*
G36*
X55740Y-430760D02*
G01*
X55740Y-462239D01*
X56500Y-459000D01*
X56500Y-434000D01*
G37*
G36*
X24260Y-529240D02*
G01*
X27500Y-566740D01*
X52500Y-566740D01*
X55740Y-529240D01*
G37*
G36*
X1001100Y-2030840D02*
G01*
X995340Y-2060840D01*
X1026840Y-2060840D01*
X1021100Y-2030840D01*
G37*
G36*
X928340Y-2060840D02*
G01*
X902600Y-2066600D01*
X902600Y-2086600D01*
X928340Y-2092340D01*
G37*
G36*
X1962000Y-530120D02*
G01*
X1947000Y-536900D01*
X1947000Y-546900D01*
X1962000Y-553740D01*
G37*
G36*
X1962000Y-865120D02*
G01*
X1947000Y-871979D01*
X1947000Y-881979D01*
X1962000Y-888740D01*
G37*
G36*
X1730420Y-856180D02*
G01*
X1700420Y-871180D01*
X1700420Y-891180D01*
X1730420Y-906180D01*
G37*
G36*
X1517820Y-850879D02*
G01*
X1517820Y-900879D01*
X1547820Y-885879D01*
X1547820Y-865879D01*
G37*
G36*
X1579720Y-935100D02*
G01*
X1572940Y-950100D01*
X1596560Y-950100D01*
X1589720Y-935100D01*
G37*
G36*
X1619120Y-935100D02*
G01*
X1612320Y-950100D01*
X1635940Y-950100D01*
X1629120Y-935100D01*
G37*
G36*
X1658520Y-935100D02*
G01*
X1651680Y-950100D01*
X1675300Y-950100D01*
X1668520Y-935100D01*
G37*
G36*
X1692820Y-920100D02*
G01*
X1691060Y-950100D01*
X1714660Y-950100D01*
X1712820Y-920100D01*
G37*
D10*
X1043808Y-1622808D02*
G01*
X1027207Y-1622808D01*
X990008Y-1660007D01*
X975008Y-1622408D02*
G01*
X975008Y-1645007D01*
X960008Y-1660007D01*
D11*
X1155008Y-1261707D02*
G01*
X1155008Y-1190007D01*
D12*
X586107Y-608807D02*
G01*
X584908Y-610007D01*
X490008Y-610007D01*
X86507Y-1013508D01*
X40008Y-1013508D01*
X586107Y-558807D02*
G01*
X168808Y-558807D01*
X56507Y-446507D01*
X40008Y-446507D01*
D10*
X1097908Y-608807D02*
G01*
X1213808Y-608807D01*
X1215008Y-610007D01*
X1007408Y-183807D02*
G01*
X965008Y-184207D01*
X1007408Y-233807D02*
G01*
X965008Y-233807D01*
X1007408Y-283807D02*
G01*
X965008Y-284207D01*
X1007408Y-333807D02*
G01*
X965008Y-334207D01*
X1007408Y-383807D02*
G01*
X965008Y-384207D01*
X1007408Y-433807D02*
G01*
X965008Y-434207D01*
X1007408Y-483807D02*
G01*
X965008Y-483007D01*
X1007408Y-533807D02*
G01*
X965008Y-533007D01*
X942008Y-620607D02*
G01*
X942008Y-579207D01*
X932008Y-569207D01*
X892008Y-620607D02*
G01*
X892008Y-569207D01*
X842008Y-620607D02*
G01*
X842008Y-569207D01*
X792008Y-620607D02*
G01*
X792008Y-579207D01*
X742008Y-620607D02*
G01*
X742008Y-579207D01*
X692008Y-620607D02*
G01*
X692008Y-587208D01*
X700008Y-579207D01*
X1097908Y-158807D02*
G01*
X1643808Y-158807D01*
X1770008Y-285007D01*
X1770008Y-410007D01*
X1901907Y-541907D01*
X1985607Y-541907D01*
D12*
X917002Y-711201D02*
G01*
X917002Y-675000D01*
D13*
X642808Y-815007D02*
G01*
X642008Y-895308D01*
X741208Y-815007D02*
G01*
X742008Y-895308D01*
D10*
X642808Y-815007D02*
G01*
X667008Y-790807D01*
X667008Y-711208D01*
X741208Y-815007D02*
G01*
X717008Y-790807D01*
X717008Y-711208D01*
D14*
X917008Y-790007D02*
G01*
X897008Y-790007D01*
X867008Y-760007D01*
X867008Y-711208D01*
X917008Y-790007D02*
G01*
X937008Y-790007D01*
X967008Y-760007D01*
X967008Y-711208D01*
D10*
X586105Y-508798D02*
G01*
X587301Y-510000D01*
X1475008Y-350007D02*
G01*
X1475008Y-200007D01*
X1475008Y-350007D02*
G01*
X1550008Y-350007D01*
X1475008Y-400007D02*
G01*
X1550008Y-400007D01*
X1400008Y-465007D02*
G01*
X1400008Y-240007D01*
X1360008Y-200007D01*
X1317608Y-200007D01*
X1097908Y-258807D02*
G01*
X1173808Y-258807D01*
X1265008Y-350007D01*
X1317608Y-350007D01*
X1097908Y-308807D02*
G01*
X1173808Y-308807D01*
X1265008Y-400007D01*
X1317608Y-400007D01*
D12*
X40008Y-590308D02*
G01*
X40008Y-513508D01*
X40008Y-946507D02*
G01*
X40008Y-869708D01*
D10*
X1942008Y-877008D02*
G01*
X1985607Y-876907D01*
D13*
X1554108Y-630907D02*
G01*
X1499508Y-630907D01*
X1494208Y-636208D01*
X1694108Y-630907D02*
G01*
X1699407Y-636208D01*
X1754007Y-636208D01*
X1702808Y-735607D02*
G01*
X1702808Y-639607D01*
X1694108Y-630907D01*
D10*
X1663507Y-735607D02*
G01*
X1663507Y-676507D01*
X1664108Y-675907D01*
X1584108Y-675907D02*
G01*
X1584707Y-676507D01*
X1584707Y-735607D01*
X1624108Y-735607D02*
G01*
X1624108Y-675907D01*
X1584108Y-675907D02*
G01*
X1599108Y-660907D01*
X1599108Y-614108D01*
X1515008Y-530007D01*
X1325008Y-530007D01*
X1203808Y-408807D01*
X1097908Y-408807D01*
X520008Y-330007D02*
G01*
X541208Y-308807D01*
X586107Y-308807D01*
X1400000Y-465000D02*
G01*
X1730000Y-465000D01*
X1877599Y-612599D01*
X1877599Y-812599D01*
X1942002Y-876999D01*
D15*
X677408Y-1782808D02*
G01*
X677408Y-1812808D01*
X682608Y-1818007D01*
D10*
X682608Y-1853807D02*
G01*
X682608Y-1818007D01*
D15*
X744208Y-1620407D02*
G01*
X799508Y-1565108D01*
X880008Y-1565108D01*
D10*
X744208Y-1695207D02*
G01*
X779508Y-1730507D01*
X880008Y-1730507D01*
X825008Y-1902507D02*
G01*
X757408Y-1970108D01*
X757408Y-1971907D01*
X825008Y-1827808D02*
G01*
X825008Y-1863107D01*
D13*
X757408Y-1853807D02*
G01*
X757408Y-1895407D01*
X755008Y-1897808D01*
X902608Y-2076608D02*
G01*
X944108Y-2076608D01*
X790008Y-1782808D02*
G01*
X732608Y-1782808D01*
X720008Y-1853807D02*
G01*
X730008Y-1843807D01*
X730008Y-1807808D01*
X732608Y-1805207D01*
X732608Y-1782808D01*
D10*
X1035908Y-1660207D02*
G01*
X1067608Y-1660207D01*
X1080008Y-1647808D01*
X1080008Y-1602808D01*
X1062608Y-1585407D01*
X1035908Y-1585407D01*
D13*
X1154108Y-1660207D02*
G01*
X1117408Y-1660207D01*
X1115008Y-1657808D01*
D10*
X1035908Y-1585407D02*
G01*
X1033708Y-1583107D01*
X975008Y-1583107D01*
D15*
X880008Y-1730507D02*
G01*
X880008Y-1932808D01*
X787408Y-2025407D01*
X736107Y-2025407D01*
X682608Y-1971907D01*
D13*
X1263907Y-1920108D02*
G01*
X1263907Y-1871608D01*
X1255008Y-1862808D01*
D10*
X1275008Y-1767507D02*
G01*
X1275008Y-1787507D01*
X1294508Y-1807008D01*
X1294508Y-1914908D01*
X1289407Y-1920108D01*
X1315008Y-1920108D02*
G01*
X1310508Y-1915507D01*
X1310508Y-1807008D01*
X1330008Y-1787507D01*
X1330008Y-1767507D01*
D15*
X1255008Y-1837808D02*
G01*
X1190008Y-1772808D01*
X922307Y-1772808D01*
X880008Y-1730507D01*
X1154108Y-1585407D02*
G01*
X1155008Y-1478307D01*
X945008Y-1190007D02*
G01*
X995008Y-1190007D01*
X1006507Y-1190007D01*
X1062608Y-1190007D02*
G01*
X1155008Y-1190007D01*
X880008Y-1565108D02*
G01*
X957008Y-1565108D01*
X975008Y-1570007D01*
X977207Y-1577808D02*
G01*
X1015008Y-1577808D01*
X677408Y-1782808D02*
G01*
X649807Y-1755108D01*
X649807Y-1657808D01*
X649807Y-1657707D02*
G01*
X496608Y-1504607D01*
X205008Y-1504607D01*
D10*
X262808Y-1310907D02*
G01*
X280508Y-1293207D01*
X320408Y-1293207D01*
X262808Y-1350308D02*
G01*
X280508Y-1368007D01*
X320408Y-1368007D01*
X262808Y-1350308D02*
G01*
X205008Y-1408107D01*
X205008Y-1504607D01*
X407608Y-1160607D02*
G01*
X452307Y-1160607D01*
X452608Y-1160308D01*
X452608Y-1160308D02*
G01*
X452608Y-1205907D01*
X452608Y-1120907D02*
G01*
X452608Y-1080607D01*
X414807Y-1330607D02*
G01*
X452608Y-1292808D01*
X452608Y-1245308D01*
D13*
X934707Y-1917808D02*
G01*
X1011107Y-1994207D01*
X1011107Y-2076608D01*
D10*
X1097908Y-558807D02*
G01*
X1210008Y-558807D01*
X1320008Y-668807D01*
X1320008Y-1510007D01*
X1245008Y-1585007D01*
X1245008Y-1660007D01*
X1190008Y-1715007D01*
X1190008Y-1772808D01*
X1097908Y-458807D02*
G01*
X1147307Y-458807D01*
X1164307Y-475807D01*
X1204307Y-475807D01*
X1224807Y-475807D01*
X1392608Y-643607D01*
X1392608Y-1031608D01*
X1392608Y-1546608D01*
X1387608Y-1551608D01*
X1310508Y-1628708D01*
X1310508Y-1648708D01*
X1310508Y-1688708D01*
X1330008Y-1708207D01*
X1330008Y-1728107D01*
X1097908Y-508807D02*
G01*
X1147307Y-508807D01*
X1164307Y-491808D01*
X1204307Y-491808D01*
X1218207Y-491808D01*
X1376608Y-650207D01*
X1376608Y-1031608D01*
X1376608Y-1540007D01*
X1371608Y-1545007D01*
X1294508Y-1622107D01*
X1294508Y-1648708D01*
X1294508Y-1688708D01*
X1275008Y-1708207D01*
X1275008Y-1728107D01*
X586107Y-508807D02*
G01*
X618808Y-508807D01*
X650008Y-540007D01*
X650008Y-640007D01*
X320408Y-969607D01*
X320408Y-1293207D01*
D13*
X1554108Y-875907D02*
G01*
X1499508Y-875907D01*
X1494208Y-881208D01*
X1694108Y-875907D02*
G01*
X1699407Y-881208D01*
X1754007Y-881208D01*
X1702808Y-980607D02*
G01*
X1702808Y-884607D01*
X1694108Y-875907D01*
D10*
X1663507Y-980607D02*
G01*
X1663507Y-921507D01*
X1664108Y-920907D01*
X1584108Y-920907D02*
G01*
X1584707Y-921507D01*
X1584707Y-980607D01*
X1624108Y-980607D02*
G01*
X1624108Y-920907D01*
X1097908Y-358807D02*
G01*
X1188808Y-358807D01*
X1335008Y-505007D01*
X1525008Y-505007D01*
X1624108Y-604108D01*
X1624108Y-675907D01*
X1584108Y-920907D02*
G01*
X1597608Y-907408D01*
X1597608Y-836608D01*
X1587608Y-826608D01*
X1587608Y-738407D01*
X1584707Y-735607D01*
X1624108Y-735607D02*
G01*
X1624108Y-920907D01*
X1097908Y-208807D02*
G01*
X1163808Y-208807D01*
X1165008Y-210007D01*
X586107Y-458807D02*
G01*
X388808Y-458807D01*
X350008Y-420007D01*
X586107Y-408807D02*
G01*
X468808Y-408807D01*
X430008Y-370007D01*
X150008Y-420007D02*
G01*
X200008Y-370007D01*
X200008Y-250007D01*
X291208Y-158807D01*
X586107Y-158807D01*
X250008Y-420007D02*
G01*
X300008Y-370007D01*
X300008Y-280007D01*
X371208Y-208807D01*
X586107Y-208807D01*
X586107Y-258807D02*
G01*
X411208Y-258807D01*
X350008Y-320007D01*
G36*
X991694Y-1172282D02*
G01*
X1023189Y-1172282D01*
X1023189Y-1207716D01*
X991694Y-1207716D01*
G37*
G36*
X1046812Y-1172282D02*
G01*
X1078308Y-1172282D01*
X1078308Y-1207716D01*
X1046812Y-1207716D01*
G37*
D20*
G01*
X732558Y-1782757D03*
G01*
X677437Y-1782757D03*
G36*
X924843Y-1902006D02*
G01*
X944528Y-1902006D01*
X944528Y-1933503D01*
X924843Y-1933503D01*
G37*
G36*
X885473Y-1902006D02*
G01*
X905158Y-1902006D01*
X905158Y-1933503D01*
X885473Y-1933503D01*
G37*
D22*
G01*
X1754037Y-636197D03*
G01*
X1494198Y-636197D03*
D23*
G01*
X1545377Y-735607D03*
G01*
X1584748Y-735607D03*
G01*
X1624118Y-735607D03*
G01*
X1663488Y-735607D03*
G01*
X1702858Y-735607D03*
D24*
G01*
X39998Y-869688D03*
G01*
X39998Y-830317D03*
G01*
X39998Y-590317D03*
G01*
X39998Y-629688D03*
G01*
X642008Y-934677D03*
G01*
X642008Y-895308D03*
G01*
X742008Y-934677D03*
G01*
X742008Y-895308D03*
G01*
X824998Y-1902437D03*
G01*
X824998Y-1863067D03*
D25*
G01*
X1154998Y-1478267D03*
G01*
X1154998Y-1261727D03*
D24*
G01*
X975008Y-1622437D03*
G01*
X975008Y-1583067D03*
D26*
G01*
X879998Y-1730437D03*
G01*
X879998Y-1565077D03*
D24*
G01*
X262808Y-1350268D03*
G01*
X262808Y-1310897D03*
G01*
X452598Y-1205907D03*
G01*
X452598Y-1245277D03*
G01*
X452598Y-1120907D03*
G01*
X452598Y-1160277D03*
G01*
X1059998Y-1783067D03*
G01*
X1059998Y-1822437D03*
D27*
G01*
X642787Y-814998D03*
G01*
X741218Y-814998D03*
D24*
G01*
X1274998Y-1728067D03*
G01*
X1274998Y-1767437D03*
G01*
X1329998Y-1728067D03*
G01*
X1329998Y-1767437D03*
D28*
G01*
X1475037Y-399998D03*
G01*
X1317577Y-399998D03*
G01*
X1475037Y-349998D03*
G01*
X1317577Y-349998D03*
G01*
X1475037Y-299998D03*
G01*
X1317577Y-299998D03*
G01*
X1475037Y-249998D03*
G01*
X1317577Y-249998D03*
G01*
X1475037Y-199998D03*
G01*
X1317577Y-199998D03*
G36*
X1246101Y-1985344D02*
G01*
X1305157Y-1985344D01*
X1305157Y-2060146D01*
X1246101Y-2060146D01*
G37*
G36*
X1358300Y-1894400D02*
G01*
X1374100Y-1894400D01*
X1374100Y-1945599D01*
X1358300Y-1945599D01*
G37*
G36*
X1332701Y-1894400D02*
G01*
X1348501Y-1894400D01*
X1348501Y-1945599D01*
X1332701Y-1945599D01*
G37*
G36*
X1307131Y-1894409D02*
G01*
X1322871Y-1894409D01*
X1322871Y-1945589D01*
X1307131Y-1945589D01*
G37*
G36*
X1281501Y-1894400D02*
G01*
X1297301Y-1894400D01*
X1297301Y-1945599D01*
X1281501Y-1945599D01*
G37*
G36*
X1256001Y-1894400D02*
G01*
X1271700Y-1894400D01*
X1271700Y-1945599D01*
X1256001Y-1945599D01*
G37*
G36*
X1324843Y-1985353D02*
G01*
X1383898Y-1985353D01*
X1383898Y-2060155D01*
X1324843Y-2060155D01*
G37*
D31*
G01*
X942018Y-620628D03*
G01*
X892018Y-620628D03*
G01*
X842018Y-620628D03*
G01*
X792018Y-620628D03*
G01*
X742018Y-620628D03*
G01*
X692018Y-620628D03*
G01*
X992008Y-620628D03*
G36*
X983736Y-418069D02*
G01*
X1030975Y-418069D01*
X1030975Y-449569D01*
X983736Y-449569D01*
G37*
G36*
X983736Y-368069D02*
G01*
X1030975Y-368069D01*
X1030975Y-399569D01*
X983736Y-399569D01*
G37*
G36*
X983736Y-318069D02*
G01*
X1030975Y-318069D01*
X1030975Y-349569D01*
X983736Y-349569D01*
G37*
G36*
X983736Y-268069D02*
G01*
X1030975Y-268069D01*
X1030975Y-299569D01*
X983736Y-299569D01*
G37*
G36*
X983736Y-218069D02*
G01*
X1030975Y-218069D01*
X1030975Y-249569D01*
X983736Y-249569D01*
G37*
G36*
X983736Y-168069D02*
G01*
X1030975Y-168069D01*
X1030975Y-199569D01*
X983736Y-199569D01*
G37*
G36*
X983736Y-468069D02*
G01*
X1030975Y-468069D01*
X1030975Y-499569D01*
X983736Y-499569D01*
G37*
G36*
X983736Y-518069D02*
G01*
X1030975Y-518069D01*
X1030975Y-549569D01*
X983736Y-549569D01*
G37*
G36*
X546716Y-543069D02*
G01*
X625455Y-543069D01*
X625455Y-574569D01*
X546716Y-574569D01*
G37*
G36*
X546726Y-593069D02*
G01*
X625466Y-593069D01*
X625466Y-624569D01*
X546726Y-624569D01*
G37*
G36*
X546726Y-493069D02*
G01*
X625466Y-493069D01*
X625466Y-524569D01*
X546726Y-524569D01*
G37*
G36*
X546726Y-443069D02*
G01*
X625466Y-443069D01*
X625466Y-474569D01*
X546726Y-474569D01*
G37*
G36*
X546726Y-393069D02*
G01*
X625466Y-393069D01*
X625466Y-424569D01*
X546726Y-424569D01*
G37*
G36*
X546726Y-343069D02*
G01*
X625466Y-343069D01*
X625466Y-374569D01*
X546726Y-374569D01*
G37*
G36*
X546726Y-293069D02*
G01*
X625466Y-293069D01*
X625466Y-324569D01*
X546726Y-324569D01*
G37*
G36*
X546726Y-243069D02*
G01*
X625466Y-243069D01*
X625466Y-274569D01*
X546726Y-274569D01*
G37*
G36*
X546726Y-193069D02*
G01*
X625466Y-193069D01*
X625466Y-224569D01*
X546726Y-224569D01*
G37*
G36*
X546726Y-143069D02*
G01*
X625466Y-143069D01*
X625466Y-174569D01*
X546726Y-174569D01*
G37*
D33*
G01*
X1097918Y-208818D03*
G01*
X1097908Y-158818D03*
G01*
X1097908Y-258818D03*
G01*
X1097908Y-308818D03*
G01*
X1097908Y-358818D03*
G01*
X1097908Y-408818D03*
G01*
X1097908Y-458818D03*
G01*
X1097908Y-508818D03*
G01*
X1097908Y-558818D03*
G01*
X1097908Y-608818D03*
D34*
G01*
X667008Y-711177D03*
G01*
X717008Y-711177D03*
G01*
X767008Y-711177D03*
G01*
X817008Y-711177D03*
G01*
X867008Y-711177D03*
G01*
X917008Y-711177D03*
G01*
X967008Y-711177D03*
G01*
X1017008Y-711177D03*
D35*
G01*
X1146178Y-1585358D03*
G01*
X1146178Y-1660158D03*
G01*
X1043817Y-1660158D03*
G01*
X1043817Y-1622757D03*
G01*
X1043817Y-1585358D03*
D36*
G01*
X757397Y-1963937D03*
G01*
X682598Y-1963937D03*
G01*
X682598Y-1861577D03*
G01*
X719998Y-1861577D03*
G01*
X757397Y-1861577D03*
G36*
X292789Y-1348303D02*
G01*
X347908Y-1348303D01*
X347908Y-1387673D01*
X292789Y-1387673D01*
G37*
G36*
X387279Y-1310904D02*
G01*
X442397Y-1310904D01*
X442397Y-1350273D01*
X387279Y-1350273D01*
G37*
G36*
X292789Y-1273503D02*
G01*
X347908Y-1273503D01*
X347908Y-1312874D01*
X292789Y-1312874D01*
G37*
D37*
G01*
X744248Y-1620358D03*
G01*
X649757Y-1657757D03*
G01*
X744248Y-1695158D03*
G36*
X24252Y-997752D02*
G01*
X55749Y-997752D01*
X55749Y-1029247D01*
X24252Y-1029247D01*
G37*
G36*
X24252Y-930751D02*
G01*
X55749Y-930751D01*
X55749Y-962247D01*
X24252Y-962247D01*
G37*
D38*
G01*
X39998Y-446498D03*
G01*
X39998Y-513497D03*
G01*
X1011097Y-2076588D03*
G01*
X944097Y-2076588D03*
G36*
X1961992Y-396259D02*
G01*
X2009236Y-396259D01*
X2009236Y-419881D01*
X1961992Y-419881D01*
G37*
G36*
X1961992Y-530117D02*
G01*
X2009236Y-530117D01*
X2009236Y-553739D01*
X1961992Y-553739D01*
G37*
D40*
G01*
X2062387Y-392327D03*
G01*
X2062387Y-557678D03*
G36*
X1961992Y-731259D02*
G01*
X2009236Y-731259D01*
X2009236Y-754881D01*
X1961992Y-754881D01*
G37*
G36*
X1961992Y-865117D02*
G01*
X2009236Y-865117D01*
X2009236Y-888739D01*
X1961992Y-888739D01*
G37*
G01*
X2062387Y-727327D03*
G01*
X2062387Y-892678D03*
D22*
G01*
X1754037Y-881197D03*
G01*
X1494198Y-881197D03*
D23*
G01*
X1545377Y-980607D03*
G01*
X1584748Y-980607D03*
G01*
X1624118Y-980607D03*
G01*
X1663488Y-980607D03*
G01*
X1702858Y-980607D03*
D41*
G01*
X150000Y-700000D03*
G01*
X250000Y-700000D03*
G01*
X149998Y-319998D03*
G01*
X249998Y-319998D03*
G01*
X349998Y-319998D03*
G01*
X349998Y-419998D03*
G01*
X249998Y-419998D03*
G01*
X149998Y-419998D03*
G01*
X1769998Y-1149998D03*
G01*
X1869998Y-1149998D03*
G01*
X1769998Y-1249998D03*
G01*
X1869998Y-1249998D03*
G01*
X1769998Y-1349998D03*
G01*
X1869998Y-1349998D03*
G01*
X1769998Y-1449998D03*
G01*
X1869998Y-1449998D03*
G01*
X1769998Y-1549998D03*
G01*
X1869998Y-1549998D03*
G01*
X1769998Y-1649998D03*
G01*
X1869998Y-1649998D03*
G01*
X1769998Y-1749998D03*
G01*
X1869998Y-1749998D03*
G01*
X1769998Y-1849998D03*
G01*
X1869998Y-1849998D03*
G01*
X1769998Y-1949998D03*
G01*
X1869998Y-1949998D03*
D42*
G01*
X204998Y-1583377D03*
G01*
X204998Y-1504638D03*
D43*
G01*
X1216597Y-1919998D03*
G01*
X1413398Y-1919998D03*
D44*
G01*
X849998Y-1249998D03*
G01*
X749998Y-1149998D03*
G01*
X649998Y-1249998D03*
D16*
G01*
X491997Y-1810997D03*
G01*
X1633997Y-314998D03*
D17*
G01*
X1934998Y-714998D03*
G01*
X1349998Y-1502997D03*
G01*
X1200000Y-525000D03*
G01*
X1934998Y-374998D03*
G01*
X452588Y-1080587D03*
G01*
X407588Y-1160587D03*
G01*
X519998Y-329998D03*
G01*
X816997Y-669998D03*
G01*
X766997Y-669998D03*
G01*
X1399998Y-464998D03*
G01*
X1215000Y-610000D03*
D18*
G01*
X40999Y-730999D03*
D19*
G01*
X1549998Y-349998D03*
G01*
X1549998Y-399998D03*
G01*
X916997Y-789998D03*
G01*
X916997Y-674998D03*
D17*
G01*
X824998Y-1827757D03*
G01*
X754998Y-1897757D03*
G01*
X902588Y-2076597D03*
D18*
G01*
X1554118Y-630907D03*
G01*
X1694118Y-630907D03*
D17*
G01*
X1664118Y-675907D03*
G01*
X1114998Y-1657757D03*
D18*
G01*
X944998Y-1189998D03*
D17*
G01*
X641997Y-974998D03*
G01*
X741997Y-974998D03*
G01*
X1229998Y-1729998D03*
G01*
X1229998Y-224998D03*
G01*
X1200000Y-445000D03*
G01*
X1334998Y-459998D03*
D18*
G01*
X1554118Y-875907D03*
G01*
X1694118Y-875907D03*
D17*
G01*
X1664118Y-920907D03*
G01*
X1164998Y-209998D03*
G01*
X429998Y-369998D03*
G01*
X2000000Y-1900000D03*
G01*
X699998Y-579178D03*
G01*
X742018Y-579178D03*
G01*
X792018Y-579178D03*
G01*
X842018Y-569178D03*
G01*
X892018Y-569178D03*
G01*
X932018Y-569178D03*
G01*
X964998Y-532997D03*
G01*
X964998Y-482997D03*
G01*
X964998Y-434178D03*
G01*
X964998Y-384178D03*
G01*
X964998Y-334178D03*
G01*
X964998Y-284178D03*
G01*
X964998Y-233818D03*
G01*
X964998Y-184178D03*
G01*
X700000Y-200000D03*
G01*
X900000Y-500000D03*
G01*
X150000Y-1950000D03*
G01*
X1500000Y-1700000D03*
G01*
X2000000Y-1500000D03*
G01*
X2000000Y-1000000D03*
G01*
X2000000Y-200000D03*
G01*
X100000Y-200000D03*
G01*
X200000Y-1100000D03*
G01*
X500000Y-700000D03*
G01*
X1680000Y-1695000D03*
G01*
X1680000Y-1595000D03*
G01*
X1680000Y-1495000D03*
G01*
X1680000Y-1395000D03*
G01*
X1680000Y-1295000D03*
G01*
X1685000Y-1200000D03*
G01*
X1350000Y-1365000D03*
G01*
X1350000Y-1265000D03*
G01*
X1425000Y-1240000D03*
G01*
X1350000Y-1065000D03*
G01*
X1350000Y-965000D03*
G01*
X1350000Y-865000D03*
G01*
X1350000Y-755000D03*
G01*
X1200000Y-715000D03*
G01*
X1130000Y-745000D03*
G01*
X1085000Y-800000D03*
G01*
X515000Y-235000D03*
G01*
X515000Y-185000D03*
G01*
X250000Y-255000D03*
G01*
X370000Y-260000D03*
G01*
X900000Y-1500000D03*
G01*
X600000Y-1500000D03*
G01*
X960000Y-1660000D03*
G01*
X990000Y-1660000D03*
G01*
X960000Y-1690000D03*
G01*
X960000Y-1720000D03*
G01*
X990000Y-1690000D03*
G01*
X990000Y-1720000D03*
G01*
X790000Y-1782799D03*
G01*
X790000Y-1755000D03*
G01*
X790000Y-1810000D03*
G01*
X817000Y-1782999D03*
G01*
X1155000Y-1190000D03*
G01*
X1127000Y-1175999D03*
G01*
X1155000Y-1161999D03*
G01*
X1182999Y-1175999D03*
G01*
X1182999Y-1204000D03*
G01*
X1127000Y-1204000D03*
G01*
X1155000Y-1217999D03*
D45*
X1452797Y-2011727D02*
G01*
X1452797Y-2039290D01*
X1177198Y-2011716D02*
G01*
X1177198Y-2039279D01*
M02*
