G04 Layer: TopSilkLayer*
G04 EasyEDA v6.4.19.5, 2021-05-22T15:42:10+02:00*
G04 f6fe8073f4d6445e90d350db08ac70cc,b771c775d4444e86a06a5321f8c966cb,10*
G04 Gerber Generator version 0.2*
G04 Scale: 100 percent, Rotated: No, Reflected: No *
G04 Dimensions in inches *
G04 leading zeros omitted , absolute positions ,3 integer and 6 decimal *
%FSLAX36Y36*%
%MOIN*%

%ADD10C,0.0100*%
%ADD46C,0.0059*%
%ADD47C,0.0050*%
%ADD48C,0.0080*%
%ADD49C,0.0060*%
%ADD50C,0.0070*%

%LPD*%
D49*
X128552Y-865198D02*
G01*
X171452Y-848798D01*
X128552Y-832498D02*
G01*
X171452Y-848798D01*
X138751Y-788298D02*
G01*
X134652Y-790299D01*
X130552Y-794398D01*
X128552Y-798499D01*
X128552Y-806698D01*
X130552Y-810798D01*
X134652Y-814899D01*
X138751Y-816898D01*
X144851Y-818998D01*
X155152Y-818998D01*
X161251Y-816898D01*
X165351Y-814899D01*
X169451Y-810798D01*
X171452Y-806698D01*
X171452Y-798499D01*
X169451Y-794398D01*
X165351Y-790299D01*
X161251Y-788298D01*
X138751Y-744099D02*
G01*
X134652Y-746199D01*
X130552Y-750299D01*
X128552Y-754299D01*
X128552Y-762498D01*
X130552Y-766599D01*
X134652Y-770698D01*
X138751Y-772799D01*
X144851Y-774798D01*
X155152Y-774798D01*
X161251Y-772799D01*
X165351Y-770698D01*
X169451Y-766599D01*
X171452Y-762498D01*
X171452Y-754299D01*
X169451Y-750299D01*
X165351Y-746199D01*
X161251Y-744099D01*
X237810Y-828297D02*
G01*
X233709Y-830398D01*
X229609Y-834497D01*
X227609Y-838597D01*
X227609Y-846698D01*
X229609Y-850797D01*
X233709Y-854897D01*
X237810Y-856997D01*
X243910Y-858998D01*
X254209Y-858998D01*
X260310Y-856997D01*
X264410Y-854897D01*
X268510Y-850797D01*
X270509Y-846698D01*
X270509Y-838597D01*
X268510Y-834497D01*
X264410Y-830398D01*
X260310Y-828297D01*
X254209Y-828297D01*
X254209Y-838597D02*
G01*
X254209Y-828297D01*
X227609Y-814798D02*
G01*
X270509Y-814798D01*
X227609Y-814798D02*
G01*
X270509Y-786197D01*
X227609Y-786197D02*
G01*
X270509Y-786197D01*
X227609Y-772698D02*
G01*
X270509Y-772698D01*
X227609Y-772698D02*
G01*
X227609Y-758397D01*
X229609Y-752197D01*
X233709Y-748098D01*
X237810Y-746097D01*
X243910Y-744097D01*
X254209Y-744097D01*
X260310Y-746097D01*
X264410Y-748098D01*
X268510Y-752197D01*
X270509Y-758397D01*
X270509Y-772698D01*
X129608Y-274991D02*
G01*
X172508Y-274991D01*
X129608Y-274991D02*
G01*
X129608Y-256592D01*
X131608Y-250491D01*
X133708Y-248391D01*
X137808Y-246392D01*
X143907Y-246392D01*
X148008Y-248391D01*
X150008Y-250491D01*
X152108Y-256592D01*
X152108Y-274991D01*
X129608Y-232892D02*
G01*
X172508Y-222591D01*
X129608Y-212391D02*
G01*
X172508Y-222591D01*
X129608Y-212391D02*
G01*
X172508Y-202192D01*
X129608Y-191992D02*
G01*
X172508Y-202192D01*
X129608Y-178492D02*
G01*
X172508Y-178492D01*
X129608Y-178492D02*
G01*
X129608Y-160091D01*
X131608Y-153892D01*
X133708Y-151891D01*
X137808Y-149791D01*
X141907Y-149791D01*
X145908Y-151891D01*
X148008Y-153892D01*
X150008Y-160091D01*
X150008Y-178492D01*
X150008Y-164092D02*
G01*
X172508Y-149791D01*
X239807Y-244292D02*
G01*
X235707Y-246392D01*
X231608Y-250491D01*
X229608Y-254591D01*
X229608Y-262691D01*
X231608Y-266792D01*
X235707Y-270891D01*
X239807Y-272991D01*
X245908Y-274991D01*
X256208Y-274991D01*
X262307Y-272991D01*
X266407Y-270891D01*
X270508Y-266792D01*
X272508Y-262691D01*
X272508Y-254591D01*
X270508Y-250491D01*
X266407Y-246392D01*
X262307Y-244292D01*
X229608Y-230792D02*
G01*
X272508Y-230792D01*
X229608Y-202192D02*
G01*
X272508Y-202192D01*
X250008Y-230792D02*
G01*
X250008Y-202192D01*
X239807Y-157991D02*
G01*
X235707Y-160091D01*
X231608Y-164092D01*
X229608Y-168191D01*
X229608Y-176392D01*
X231608Y-180491D01*
X235707Y-184591D01*
X239807Y-186592D01*
X245908Y-188692D01*
X256208Y-188692D01*
X262307Y-186592D01*
X266407Y-184591D01*
X270508Y-180491D01*
X272508Y-176392D01*
X272508Y-168191D01*
X270508Y-164092D01*
X266407Y-160091D01*
X262307Y-157991D01*
X256208Y-157991D01*
X256208Y-168191D02*
G01*
X256208Y-157991D01*
X329608Y-274991D02*
G01*
X372508Y-274991D01*
X329608Y-274991D02*
G01*
X329608Y-256592D01*
X331608Y-250491D01*
X333708Y-248391D01*
X337808Y-246392D01*
X341907Y-246392D01*
X345908Y-248391D01*
X348008Y-250491D01*
X350008Y-256592D01*
X350008Y-274991D01*
X350008Y-260691D02*
G01*
X372508Y-246392D01*
X329608Y-232892D02*
G01*
X372508Y-232892D01*
X329608Y-232892D02*
G01*
X329608Y-206291D01*
X350008Y-232892D02*
G01*
X350008Y-216491D01*
X372508Y-232892D02*
G01*
X372508Y-206291D01*
X329608Y-192791D02*
G01*
X372508Y-176392D01*
X329608Y-160091D02*
G01*
X372508Y-176392D01*
X124608Y-579991D02*
G01*
X167508Y-579991D01*
X124608Y-579991D02*
G01*
X167508Y-563591D01*
X124608Y-547291D02*
G01*
X167508Y-563591D01*
X124608Y-547291D02*
G01*
X167508Y-547291D01*
X124608Y-533791D02*
G01*
X167508Y-533791D01*
X124608Y-533791D02*
G01*
X124608Y-507192D01*
X145008Y-533791D02*
G01*
X145008Y-517391D01*
X167508Y-533791D02*
G01*
X167508Y-507192D01*
X124608Y-477291D02*
G01*
X167508Y-493692D01*
X124608Y-477291D02*
G01*
X167508Y-460992D01*
X153207Y-487591D02*
G01*
X153207Y-467091D01*
X224608Y-628294D02*
G01*
X267508Y-628294D01*
X224608Y-628294D02*
G01*
X267508Y-611894D01*
X224608Y-595594D02*
G01*
X267508Y-611894D01*
X224608Y-595594D02*
G01*
X267508Y-595594D01*
X224608Y-582094D02*
G01*
X267508Y-582094D01*
X224608Y-582094D02*
G01*
X224608Y-563694D01*
X226608Y-557494D01*
X228708Y-555495D01*
X232808Y-553395D01*
X236907Y-553395D01*
X240908Y-555495D01*
X243008Y-557494D01*
X245008Y-563694D01*
X245008Y-582094D01*
X245008Y-567795D02*
G01*
X267508Y-553395D01*
X224608Y-539895D02*
G01*
X267508Y-539895D01*
X224608Y-539895D02*
G01*
X224608Y-525594D01*
X226608Y-519495D01*
X230707Y-515394D01*
X234807Y-513395D01*
X240908Y-511295D01*
X251208Y-511295D01*
X257307Y-513395D01*
X261407Y-515394D01*
X265508Y-519495D01*
X267508Y-525594D01*
X267508Y-539895D01*
X224608Y-497795D02*
G01*
X245008Y-481394D01*
X267508Y-481394D01*
X224608Y-465095D02*
G01*
X245008Y-481394D01*
X329608Y-630394D02*
G01*
X372508Y-613994D01*
X329608Y-597694D02*
G01*
X372508Y-613994D01*
X339807Y-553494D02*
G01*
X335707Y-555495D01*
X331608Y-559594D01*
X329608Y-563694D01*
X329608Y-571894D01*
X331608Y-575994D01*
X335707Y-580095D01*
X339807Y-582094D01*
X345908Y-584194D01*
X356208Y-584194D01*
X362307Y-582094D01*
X366407Y-580095D01*
X370508Y-575994D01*
X372508Y-571894D01*
X372508Y-563694D01*
X370508Y-559594D01*
X366407Y-555495D01*
X362307Y-553494D01*
X329608Y-523595D02*
G01*
X372508Y-539994D01*
X329608Y-523595D02*
G01*
X372508Y-507294D01*
X358207Y-533894D02*
G01*
X358207Y-513395D01*
X329608Y-493795D02*
G01*
X372508Y-493795D01*
X329608Y-493795D02*
G01*
X329608Y-475394D01*
X331608Y-469194D01*
X333708Y-467195D01*
X337808Y-465095D01*
X343907Y-465095D01*
X348008Y-467195D01*
X350008Y-469194D01*
X352108Y-475394D01*
X352108Y-493795D01*
X1944608Y-1939807D02*
G01*
X1942508Y-1935707D01*
X1938408Y-1931608D01*
X1934307Y-1929607D01*
X1926208Y-1929607D01*
X1922108Y-1931608D01*
X1918008Y-1935707D01*
X1915908Y-1939807D01*
X1913907Y-1945907D01*
X1913907Y-1956208D01*
X1915908Y-1962307D01*
X1918008Y-1966408D01*
X1922108Y-1970507D01*
X1926208Y-1972507D01*
X1934307Y-1972507D01*
X1938408Y-1970507D01*
X1942508Y-1966408D01*
X1944608Y-1962307D01*
X1944608Y-1956208D01*
X1934307Y-1956208D02*
G01*
X1944608Y-1956208D01*
X1958107Y-1929607D02*
G01*
X1958107Y-1972507D01*
X1958107Y-1929607D02*
G01*
X1986708Y-1972507D01*
X1986708Y-1929607D02*
G01*
X1986708Y-1972507D01*
X2000207Y-1929607D02*
G01*
X2000207Y-1972507D01*
X2000207Y-1929607D02*
G01*
X2014508Y-1929607D01*
X2020707Y-1931608D01*
X2024807Y-1935707D01*
X2026807Y-1939807D01*
X2028808Y-1945907D01*
X2028808Y-1956208D01*
X2026807Y-1962307D01*
X2024807Y-1966408D01*
X2020707Y-1970507D01*
X2014508Y-1972507D01*
X2000207Y-1972507D01*
X1927300Y-1829600D02*
G01*
X1921100Y-1831599D01*
X1917000Y-1837799D01*
X1915000Y-1847999D01*
X1915000Y-1854099D01*
X1917000Y-1864400D01*
X1921100Y-1870499D01*
X1927300Y-1872500D01*
X1931399Y-1872500D01*
X1937500Y-1870499D01*
X1941600Y-1864400D01*
X1943600Y-1854099D01*
X1943600Y-1847999D01*
X1941600Y-1837799D01*
X1937500Y-1831599D01*
X1931399Y-1829600D01*
X1927300Y-1829600D01*
X1959199Y-1862300D02*
G01*
X1957099Y-1864400D01*
X1959199Y-1866399D01*
X1961200Y-1864400D01*
X1959199Y-1862300D01*
X1987000Y-1829600D02*
G01*
X1980899Y-1831599D01*
X1976799Y-1837799D01*
X1974699Y-1847999D01*
X1974699Y-1854099D01*
X1976799Y-1864400D01*
X1980899Y-1870499D01*
X1987000Y-1872500D01*
X1991100Y-1872500D01*
X1997199Y-1870499D01*
X2001299Y-1864400D01*
X2003399Y-1854099D01*
X2003399Y-1847999D01*
X2001299Y-1837799D01*
X1997199Y-1831599D01*
X1991100Y-1829600D01*
X1987000Y-1829600D01*
X2041399Y-1835700D02*
G01*
X2039400Y-1831599D01*
X2033200Y-1829600D01*
X2029100Y-1829600D01*
X2022999Y-1831599D01*
X2018899Y-1837799D01*
X2016900Y-1847999D01*
X2016900Y-1858200D01*
X2018899Y-1866399D01*
X2022999Y-1870499D01*
X2029100Y-1872500D01*
X2031200Y-1872500D01*
X2037300Y-1870499D01*
X2041399Y-1866399D01*
X2043499Y-1860299D01*
X2043499Y-1858200D01*
X2041399Y-1852100D01*
X2037300Y-1847999D01*
X2031200Y-1845999D01*
X2029100Y-1845999D01*
X2022999Y-1847999D01*
X2018899Y-1852100D01*
X2016900Y-1858200D01*
X1931399Y-1729600D02*
G01*
X1915000Y-1772500D01*
X1931399Y-1729600D02*
G01*
X1947699Y-1772500D01*
X1921100Y-1758200D02*
G01*
X1941600Y-1758200D01*
X1961200Y-1729600D02*
G01*
X1961200Y-1772500D01*
X1976799Y-1739800D02*
G01*
X1976799Y-1737799D01*
X1978799Y-1733699D01*
X1980899Y-1731599D01*
X1985000Y-1729600D01*
X1993099Y-1729600D01*
X1997199Y-1731599D01*
X1999299Y-1733699D01*
X2001299Y-1737799D01*
X2001299Y-1741900D01*
X1999299Y-1745999D01*
X1995199Y-1752100D01*
X1974699Y-1772500D01*
X2003399Y-1772500D01*
X1927300Y-1629600D02*
G01*
X1921100Y-1631599D01*
X1917000Y-1637799D01*
X1915000Y-1647999D01*
X1915000Y-1654099D01*
X1917000Y-1664400D01*
X1921100Y-1670499D01*
X1927300Y-1672500D01*
X1931399Y-1672500D01*
X1937500Y-1670499D01*
X1941600Y-1664400D01*
X1943600Y-1654099D01*
X1943600Y-1647999D01*
X1941600Y-1637799D01*
X1937500Y-1631599D01*
X1931399Y-1629600D01*
X1927300Y-1629600D01*
X1959199Y-1662300D02*
G01*
X1957099Y-1664400D01*
X1959199Y-1666399D01*
X1961200Y-1664400D01*
X1959199Y-1662300D01*
X1987000Y-1629600D02*
G01*
X1980899Y-1631599D01*
X1976799Y-1637799D01*
X1974699Y-1647999D01*
X1974699Y-1654099D01*
X1976799Y-1664400D01*
X1980899Y-1670499D01*
X1987000Y-1672500D01*
X1991100Y-1672500D01*
X1997199Y-1670499D01*
X2001299Y-1664400D01*
X2003399Y-1654099D01*
X2003399Y-1647999D01*
X2001299Y-1637799D01*
X1997199Y-1631599D01*
X1991100Y-1629600D01*
X1987000Y-1629600D01*
X2045499Y-1629600D02*
G01*
X2025000Y-1672500D01*
X2016900Y-1629600D02*
G01*
X2045499Y-1629600D01*
X1927300Y-1529600D02*
G01*
X1921100Y-1531599D01*
X1917000Y-1537799D01*
X1915000Y-1547999D01*
X1915000Y-1554099D01*
X1917000Y-1564400D01*
X1921100Y-1570499D01*
X1927300Y-1572500D01*
X1931399Y-1572500D01*
X1937500Y-1570499D01*
X1941600Y-1564400D01*
X1943600Y-1554099D01*
X1943600Y-1547999D01*
X1941600Y-1537799D01*
X1937500Y-1531599D01*
X1931399Y-1529600D01*
X1927300Y-1529600D01*
X1959199Y-1562300D02*
G01*
X1957099Y-1564400D01*
X1959199Y-1566399D01*
X1961200Y-1564400D01*
X1959199Y-1562300D01*
X1974699Y-1537799D02*
G01*
X1978799Y-1535700D01*
X1985000Y-1529600D01*
X1985000Y-1572500D01*
X2027099Y-1529600D02*
G01*
X2006600Y-1572500D01*
X1998499Y-1529600D02*
G01*
X2027099Y-1529600D01*
X1927300Y-1429600D02*
G01*
X1921100Y-1431599D01*
X1917000Y-1437799D01*
X1915000Y-1447999D01*
X1915000Y-1454099D01*
X1917000Y-1464400D01*
X1921100Y-1470499D01*
X1927300Y-1472500D01*
X1931399Y-1472500D01*
X1937500Y-1470499D01*
X1941600Y-1464400D01*
X1943600Y-1454099D01*
X1943600Y-1447999D01*
X1941600Y-1437799D01*
X1937500Y-1431599D01*
X1931399Y-1429600D01*
X1927300Y-1429600D01*
X1959199Y-1462300D02*
G01*
X1957099Y-1464400D01*
X1959199Y-1466399D01*
X1961200Y-1464400D01*
X1959199Y-1462300D01*
X1976799Y-1439800D02*
G01*
X1976799Y-1437799D01*
X1978799Y-1433699D01*
X1980899Y-1431599D01*
X1985000Y-1429600D01*
X1993099Y-1429600D01*
X1997199Y-1431599D01*
X1999299Y-1433699D01*
X2001299Y-1437799D01*
X2001299Y-1441900D01*
X1999299Y-1445999D01*
X1995199Y-1452100D01*
X1974699Y-1472500D01*
X2003399Y-1472500D01*
X2018899Y-1439800D02*
G01*
X2018899Y-1437799D01*
X2020999Y-1433699D01*
X2022999Y-1431599D01*
X2027099Y-1429600D01*
X2035300Y-1429600D01*
X2039400Y-1431599D01*
X2041399Y-1433699D01*
X2043499Y-1437799D01*
X2043499Y-1441900D01*
X2041399Y-1445999D01*
X2037300Y-1452100D01*
X2016900Y-1472500D01*
X2045499Y-1472500D01*
X1915000Y-1337799D02*
G01*
X1919100Y-1335700D01*
X1925199Y-1329600D01*
X1925199Y-1372500D01*
X1940800Y-1362300D02*
G01*
X1938700Y-1364400D01*
X1940800Y-1366399D01*
X1942800Y-1364400D01*
X1940800Y-1362300D01*
X1968600Y-1329600D02*
G01*
X1962500Y-1331599D01*
X1958399Y-1337799D01*
X1956299Y-1347999D01*
X1956299Y-1354099D01*
X1958399Y-1364400D01*
X1962500Y-1370499D01*
X1968600Y-1372500D01*
X1972699Y-1372500D01*
X1978799Y-1370499D01*
X1982900Y-1364400D01*
X1985000Y-1354099D01*
X1985000Y-1347999D01*
X1982900Y-1337799D01*
X1978799Y-1331599D01*
X1972699Y-1329600D01*
X1968600Y-1329600D01*
X2000499Y-1339800D02*
G01*
X2000499Y-1337799D01*
X2002500Y-1333699D01*
X2004599Y-1331599D01*
X2008700Y-1329600D01*
X2016900Y-1329600D01*
X2020999Y-1331599D01*
X2022999Y-1333699D01*
X2025000Y-1337799D01*
X2025000Y-1341900D01*
X2022999Y-1345999D01*
X2018899Y-1352100D01*
X1998499Y-1372500D01*
X2027099Y-1372500D01*
X1915000Y-1237799D02*
G01*
X1919100Y-1235700D01*
X1925199Y-1229600D01*
X1925199Y-1272500D01*
X1940800Y-1262300D02*
G01*
X1938700Y-1264400D01*
X1940800Y-1266399D01*
X1942800Y-1264400D01*
X1940800Y-1262300D01*
X1968600Y-1229600D02*
G01*
X1962500Y-1231599D01*
X1958399Y-1237799D01*
X1956299Y-1247999D01*
X1956299Y-1254099D01*
X1958399Y-1264400D01*
X1962500Y-1270499D01*
X1968600Y-1272500D01*
X1972699Y-1272500D01*
X1978799Y-1270499D01*
X1982900Y-1264400D01*
X1985000Y-1254099D01*
X1985000Y-1247999D01*
X1982900Y-1237799D01*
X1978799Y-1231599D01*
X1972699Y-1229600D01*
X1968600Y-1229600D01*
X2022999Y-1235700D02*
G01*
X2020999Y-1231599D01*
X2014800Y-1229600D01*
X2010700Y-1229600D01*
X2004599Y-1231599D01*
X2000499Y-1237799D01*
X1998499Y-1247999D01*
X1998499Y-1258200D01*
X2000499Y-1266399D01*
X2004599Y-1270499D01*
X2010700Y-1272500D01*
X2012800Y-1272500D01*
X2018899Y-1270499D01*
X2022999Y-1266399D01*
X2025000Y-1260299D01*
X2025000Y-1258200D01*
X2022999Y-1252100D01*
X2018899Y-1247999D01*
X2012800Y-1245999D01*
X2010700Y-1245999D01*
X2004599Y-1247999D01*
X2000499Y-1252100D01*
X1998499Y-1258200D01*
X1945700Y-1139800D02*
G01*
X1943600Y-1135700D01*
X1939500Y-1131599D01*
X1935499Y-1129600D01*
X1927300Y-1129600D01*
X1923200Y-1131599D01*
X1919100Y-1135700D01*
X1917000Y-1139800D01*
X1915000Y-1145999D01*
X1915000Y-1156199D01*
X1917000Y-1162300D01*
X1919100Y-1166399D01*
X1923200Y-1170499D01*
X1927300Y-1172500D01*
X1935499Y-1172500D01*
X1939500Y-1170499D01*
X1943600Y-1166399D01*
X1945700Y-1162300D01*
X1945700Y-1156199D01*
X1935499Y-1156199D02*
G01*
X1945700Y-1156199D01*
X1959199Y-1129600D02*
G01*
X1959199Y-1172500D01*
X1959199Y-1129600D02*
G01*
X1987800Y-1172500D01*
X1987800Y-1129600D02*
G01*
X1987800Y-1172500D01*
X2001299Y-1129600D02*
G01*
X2001299Y-1172500D01*
X2001299Y-1129600D02*
G01*
X2015599Y-1129600D01*
X2021799Y-1131599D01*
X2025899Y-1135700D01*
X2027900Y-1139800D01*
X2030000Y-1145999D01*
X2030000Y-1156199D01*
X2027900Y-1162300D01*
X2025899Y-1166399D01*
X2021799Y-1170499D01*
X2015599Y-1172500D01*
X2001299Y-1172500D01*
X1635700Y-1139800D02*
G01*
X1633600Y-1135700D01*
X1629500Y-1131599D01*
X1625499Y-1129600D01*
X1617300Y-1129600D01*
X1613200Y-1131599D01*
X1609100Y-1135700D01*
X1607000Y-1139800D01*
X1605000Y-1145999D01*
X1605000Y-1156199D01*
X1607000Y-1162300D01*
X1609100Y-1166399D01*
X1613200Y-1170499D01*
X1617300Y-1172500D01*
X1625499Y-1172500D01*
X1629500Y-1170499D01*
X1633600Y-1166399D01*
X1635700Y-1162300D01*
X1635700Y-1156199D01*
X1625499Y-1156199D02*
G01*
X1635700Y-1156199D01*
X1649199Y-1129600D02*
G01*
X1649199Y-1172500D01*
X1649199Y-1129600D02*
G01*
X1677800Y-1172500D01*
X1677800Y-1129600D02*
G01*
X1677800Y-1172500D01*
X1691299Y-1129600D02*
G01*
X1691299Y-1172500D01*
X1691299Y-1129600D02*
G01*
X1705599Y-1129600D01*
X1711799Y-1131599D01*
X1715899Y-1135700D01*
X1717900Y-1139800D01*
X1720000Y-1145999D01*
X1720000Y-1156199D01*
X1717900Y-1162300D01*
X1715899Y-1166399D01*
X1711799Y-1170499D01*
X1705599Y-1172500D01*
X1691299Y-1172500D01*
X1605899Y-1237799D02*
G01*
X1609999Y-1235700D01*
X1616098Y-1229600D01*
X1616098Y-1272500D01*
X1631699Y-1262300D02*
G01*
X1629599Y-1264400D01*
X1631699Y-1266399D01*
X1633699Y-1264400D01*
X1631699Y-1262300D01*
X1659499Y-1229600D02*
G01*
X1653399Y-1231599D01*
X1649298Y-1237799D01*
X1647198Y-1247999D01*
X1647198Y-1254099D01*
X1649298Y-1264400D01*
X1653399Y-1270499D01*
X1659499Y-1272500D01*
X1663598Y-1272500D01*
X1669698Y-1270499D01*
X1673799Y-1264400D01*
X1675899Y-1254099D01*
X1675899Y-1247999D01*
X1673799Y-1237799D01*
X1669698Y-1231599D01*
X1663598Y-1229600D01*
X1659499Y-1229600D01*
X1709798Y-1229600D02*
G01*
X1689398Y-1258200D01*
X1719999Y-1258200D01*
X1709798Y-1229600D02*
G01*
X1709798Y-1272500D01*
X1607900Y-1337799D02*
G01*
X1612001Y-1335700D01*
X1618101Y-1329600D01*
X1618101Y-1372500D01*
X1633700Y-1362300D02*
G01*
X1631600Y-1364400D01*
X1633700Y-1366399D01*
X1635701Y-1364400D01*
X1633700Y-1362300D01*
X1661501Y-1329600D02*
G01*
X1655400Y-1331599D01*
X1651300Y-1337799D01*
X1649200Y-1347999D01*
X1649200Y-1354099D01*
X1651300Y-1364400D01*
X1655400Y-1370499D01*
X1661501Y-1372500D01*
X1665601Y-1372500D01*
X1671700Y-1370499D01*
X1675800Y-1364400D01*
X1677900Y-1354099D01*
X1677900Y-1347999D01*
X1675800Y-1337799D01*
X1671700Y-1331599D01*
X1665601Y-1329600D01*
X1661501Y-1329600D01*
X1703601Y-1329600D02*
G01*
X1697500Y-1331599D01*
X1693400Y-1337799D01*
X1691401Y-1347999D01*
X1691401Y-1354099D01*
X1693400Y-1364400D01*
X1697500Y-1370499D01*
X1703601Y-1372500D01*
X1707701Y-1372500D01*
X1713901Y-1370499D01*
X1717900Y-1364400D01*
X1720000Y-1354099D01*
X1720000Y-1347999D01*
X1717900Y-1337799D01*
X1713901Y-1331599D01*
X1707701Y-1329600D01*
X1703601Y-1329600D01*
X1601801Y-1429600D02*
G01*
X1595601Y-1431599D01*
X1591501Y-1437799D01*
X1589501Y-1447999D01*
X1589501Y-1454099D01*
X1591501Y-1464400D01*
X1595601Y-1470499D01*
X1601801Y-1472500D01*
X1605900Y-1472500D01*
X1612001Y-1470499D01*
X1616101Y-1464400D01*
X1618101Y-1454099D01*
X1618101Y-1447999D01*
X1616101Y-1437799D01*
X1612001Y-1431599D01*
X1605900Y-1429600D01*
X1601801Y-1429600D01*
X1633700Y-1462300D02*
G01*
X1631600Y-1464400D01*
X1633700Y-1466399D01*
X1635701Y-1464400D01*
X1633700Y-1462300D01*
X1651300Y-1439800D02*
G01*
X1651300Y-1437799D01*
X1653300Y-1433699D01*
X1655400Y-1431599D01*
X1659501Y-1429600D01*
X1667600Y-1429600D01*
X1671700Y-1431599D01*
X1673800Y-1433699D01*
X1675800Y-1437799D01*
X1675800Y-1441900D01*
X1673800Y-1445999D01*
X1669701Y-1452100D01*
X1649200Y-1472500D01*
X1677900Y-1472500D01*
X1703601Y-1429600D02*
G01*
X1697500Y-1431599D01*
X1693400Y-1437799D01*
X1691401Y-1447999D01*
X1691401Y-1454099D01*
X1693400Y-1464400D01*
X1697500Y-1470499D01*
X1703601Y-1472500D01*
X1707701Y-1472500D01*
X1713901Y-1470499D01*
X1718000Y-1464400D01*
X1720000Y-1454099D01*
X1720000Y-1447999D01*
X1718000Y-1437799D01*
X1713901Y-1431599D01*
X1707701Y-1429600D01*
X1703601Y-1429600D01*
X1620201Y-1529600D02*
G01*
X1614001Y-1531599D01*
X1609901Y-1537799D01*
X1607900Y-1547999D01*
X1607900Y-1554099D01*
X1609901Y-1564400D01*
X1614001Y-1570499D01*
X1620201Y-1572500D01*
X1624301Y-1572500D01*
X1630400Y-1570499D01*
X1634501Y-1564400D01*
X1636501Y-1554099D01*
X1636501Y-1547999D01*
X1634501Y-1537799D01*
X1630400Y-1531599D01*
X1624301Y-1529600D01*
X1620201Y-1529600D01*
X1652100Y-1562300D02*
G01*
X1650000Y-1564400D01*
X1652100Y-1566399D01*
X1654100Y-1564400D01*
X1652100Y-1562300D01*
X1667600Y-1537799D02*
G01*
X1671700Y-1535700D01*
X1677900Y-1529600D01*
X1677900Y-1572500D01*
X1715900Y-1529600D02*
G01*
X1695400Y-1529600D01*
X1693400Y-1547999D01*
X1695400Y-1545999D01*
X1701600Y-1543899D01*
X1707701Y-1543899D01*
X1713901Y-1545999D01*
X1717900Y-1550000D01*
X1720000Y-1556199D01*
X1720000Y-1560299D01*
X1717900Y-1566399D01*
X1713901Y-1570499D01*
X1707701Y-1572500D01*
X1701600Y-1572500D01*
X1695400Y-1570499D01*
X1693400Y-1568499D01*
X1691401Y-1564400D01*
X1620199Y-1624600D02*
G01*
X1614000Y-1626599D01*
X1609900Y-1632799D01*
X1607900Y-1642999D01*
X1607900Y-1649099D01*
X1609900Y-1659400D01*
X1614000Y-1665499D01*
X1620199Y-1667500D01*
X1624299Y-1667500D01*
X1630400Y-1665499D01*
X1634500Y-1659400D01*
X1636500Y-1649099D01*
X1636500Y-1642999D01*
X1634500Y-1632799D01*
X1630400Y-1626599D01*
X1624299Y-1624600D01*
X1620199Y-1624600D01*
X1652099Y-1657300D02*
G01*
X1650000Y-1659400D01*
X1652099Y-1661399D01*
X1654100Y-1659400D01*
X1652099Y-1657300D01*
X1667599Y-1632799D02*
G01*
X1671699Y-1630700D01*
X1677900Y-1624600D01*
X1677900Y-1667500D01*
X1693399Y-1634800D02*
G01*
X1693399Y-1632799D01*
X1695400Y-1628699D01*
X1697500Y-1626599D01*
X1701600Y-1624600D01*
X1709800Y-1624600D01*
X1713899Y-1626599D01*
X1715899Y-1628699D01*
X1717900Y-1632799D01*
X1717900Y-1636900D01*
X1715899Y-1640999D01*
X1711799Y-1647100D01*
X1691399Y-1667500D01*
X1720000Y-1667500D01*
X1601801Y-1729600D02*
G01*
X1595601Y-1731599D01*
X1591501Y-1737799D01*
X1589501Y-1747999D01*
X1589501Y-1754099D01*
X1591501Y-1764400D01*
X1595601Y-1770499D01*
X1601801Y-1772500D01*
X1605900Y-1772500D01*
X1612001Y-1770499D01*
X1616101Y-1764400D01*
X1618101Y-1754099D01*
X1618101Y-1747999D01*
X1616101Y-1737799D01*
X1612001Y-1731599D01*
X1605900Y-1729600D01*
X1601801Y-1729600D01*
X1633700Y-1762300D02*
G01*
X1631600Y-1764400D01*
X1633700Y-1766399D01*
X1635701Y-1764400D01*
X1633700Y-1762300D01*
X1661501Y-1729600D02*
G01*
X1655400Y-1731599D01*
X1651300Y-1737799D01*
X1649200Y-1747999D01*
X1649200Y-1754099D01*
X1651300Y-1764400D01*
X1655400Y-1770499D01*
X1661501Y-1772500D01*
X1665601Y-1772500D01*
X1671700Y-1770499D01*
X1675800Y-1764400D01*
X1677900Y-1754099D01*
X1677900Y-1747999D01*
X1675800Y-1737799D01*
X1671700Y-1731599D01*
X1665601Y-1729600D01*
X1661501Y-1729600D01*
X1701600Y-1729600D02*
G01*
X1695500Y-1731599D01*
X1693400Y-1735700D01*
X1693400Y-1739800D01*
X1695500Y-1743899D01*
X1699501Y-1745999D01*
X1707701Y-1747999D01*
X1713901Y-1750000D01*
X1718000Y-1754099D01*
X1720000Y-1758200D01*
X1720000Y-1764400D01*
X1718000Y-1768499D01*
X1715900Y-1770499D01*
X1709801Y-1772500D01*
X1701600Y-1772500D01*
X1695500Y-1770499D01*
X1693400Y-1768499D01*
X1691401Y-1764400D01*
X1691401Y-1758200D01*
X1693400Y-1754099D01*
X1697500Y-1750000D01*
X1703601Y-1747999D01*
X1711801Y-1745999D01*
X1715900Y-1743899D01*
X1718000Y-1739800D01*
X1718000Y-1735700D01*
X1715900Y-1731599D01*
X1709801Y-1729600D01*
X1701600Y-1729600D01*
X1591507Y-1829607D02*
G01*
X1607908Y-1872507D01*
X1624208Y-1829607D02*
G01*
X1607908Y-1872507D01*
X1668408Y-1839807D02*
G01*
X1666407Y-1835707D01*
X1662307Y-1831608D01*
X1658207Y-1829607D01*
X1650008Y-1829607D01*
X1645908Y-1831608D01*
X1641807Y-1835707D01*
X1639807Y-1839807D01*
X1637707Y-1845907D01*
X1637707Y-1856208D01*
X1639807Y-1862307D01*
X1641807Y-1866408D01*
X1645908Y-1870507D01*
X1650008Y-1872507D01*
X1658207Y-1872507D01*
X1662307Y-1870507D01*
X1666407Y-1866408D01*
X1668408Y-1862307D01*
X1712608Y-1839807D02*
G01*
X1710508Y-1835707D01*
X1706407Y-1831608D01*
X1702408Y-1829607D01*
X1694208Y-1829607D01*
X1690108Y-1831608D01*
X1686007Y-1835707D01*
X1683907Y-1839807D01*
X1681907Y-1845907D01*
X1681907Y-1856208D01*
X1683907Y-1862307D01*
X1686007Y-1866408D01*
X1690108Y-1870507D01*
X1694208Y-1872507D01*
X1702408Y-1872507D01*
X1706407Y-1870507D01*
X1710508Y-1866408D01*
X1712608Y-1862307D01*
X1598901Y-1929600D02*
G01*
X1615301Y-1972500D01*
X1631600Y-1929600D02*
G01*
X1615301Y-1972500D01*
X1675800Y-1939800D02*
G01*
X1673800Y-1935700D01*
X1669701Y-1931599D01*
X1665601Y-1929600D01*
X1657401Y-1929600D01*
X1653300Y-1931599D01*
X1649200Y-1935700D01*
X1647201Y-1939800D01*
X1645100Y-1945999D01*
X1645100Y-1956199D01*
X1647201Y-1962300D01*
X1649200Y-1966399D01*
X1653300Y-1970499D01*
X1657401Y-1972500D01*
X1665601Y-1972500D01*
X1669701Y-1970499D01*
X1673800Y-1966399D01*
X1675800Y-1962300D01*
X1720000Y-1939800D02*
G01*
X1717900Y-1935700D01*
X1713901Y-1931599D01*
X1709801Y-1929600D01*
X1701600Y-1929600D01*
X1697500Y-1931599D01*
X1693400Y-1935700D01*
X1691401Y-1939800D01*
X1689301Y-1945999D01*
X1689301Y-1956199D01*
X1691401Y-1962300D01*
X1693400Y-1966399D01*
X1697500Y-1970499D01*
X1701600Y-1972500D01*
X1709801Y-1972500D01*
X1713901Y-1970499D01*
X1717900Y-1966399D01*
X1720000Y-1962300D01*
X171089Y-1675194D02*
G01*
X171089Y-1707894D01*
X168989Y-1714094D01*
X166990Y-1716093D01*
X162890Y-1718094D01*
X158790Y-1718094D01*
X154689Y-1716093D01*
X152590Y-1714094D01*
X150589Y-1707894D01*
X150589Y-1703793D01*
X188589Y-1675194D02*
G01*
X211089Y-1675194D01*
X198889Y-1691594D01*
X204990Y-1691594D01*
X209090Y-1693593D01*
X211089Y-1695594D01*
X213189Y-1701793D01*
X213189Y-1705893D01*
X211089Y-1711993D01*
X207090Y-1716093D01*
X200890Y-1718094D01*
X194789Y-1718094D01*
X188589Y-1716093D01*
X186590Y-1714094D01*
X184590Y-1709994D01*
X1025701Y-1114800D02*
G01*
X1023601Y-1110700D01*
X1019501Y-1106599D01*
X1015500Y-1104600D01*
X1007301Y-1104600D01*
X1003201Y-1106599D01*
X999100Y-1110700D01*
X997001Y-1114800D01*
X995000Y-1120999D01*
X995000Y-1131199D01*
X997001Y-1137300D01*
X999100Y-1141399D01*
X1003201Y-1145499D01*
X1007301Y-1147500D01*
X1015500Y-1147500D01*
X1019501Y-1145499D01*
X1023601Y-1141399D01*
X1025701Y-1137300D01*
X1041200Y-1114800D02*
G01*
X1041200Y-1112799D01*
X1043300Y-1108699D01*
X1045301Y-1106599D01*
X1049401Y-1104600D01*
X1057600Y-1104600D01*
X1061700Y-1106599D01*
X1063700Y-1108699D01*
X1065800Y-1112799D01*
X1065800Y-1116900D01*
X1063700Y-1120999D01*
X1059600Y-1127100D01*
X1039200Y-1147500D01*
X1067801Y-1147500D01*
X625201Y-1783460D02*
G01*
X629301Y-1781359D01*
X633400Y-1777260D01*
X635400Y-1773260D01*
X635400Y-1765059D01*
X633400Y-1760960D01*
X629301Y-1756860D01*
X625201Y-1754760D01*
X619001Y-1752759D01*
X608800Y-1752759D01*
X602701Y-1754760D01*
X598601Y-1756860D01*
X594501Y-1760960D01*
X592500Y-1765059D01*
X592500Y-1773260D01*
X594501Y-1777260D01*
X598601Y-1781359D01*
X602701Y-1783460D01*
X627201Y-1796959D02*
G01*
X629301Y-1801059D01*
X635400Y-1807159D01*
X592500Y-1807159D01*
X879999Y-1837357D02*
G01*
X879999Y-1880257D01*
X879999Y-1837357D02*
G01*
X898399Y-1837357D01*
X904499Y-1839357D01*
X906599Y-1841457D01*
X908598Y-1845558D01*
X908598Y-1849657D01*
X906599Y-1853757D01*
X904499Y-1855758D01*
X898399Y-1857757D01*
X879999Y-1857757D01*
X894298Y-1857757D02*
G01*
X908598Y-1880257D01*
X926199Y-1837357D02*
G01*
X948699Y-1837357D01*
X936498Y-1853757D01*
X942599Y-1853757D01*
X946699Y-1855758D01*
X948699Y-1857757D01*
X950799Y-1863957D01*
X950799Y-1868058D01*
X948699Y-1874157D01*
X944599Y-1878258D01*
X938498Y-1880257D01*
X932399Y-1880257D01*
X926199Y-1878258D01*
X924199Y-1876257D01*
X922099Y-1872157D01*
X1454511Y-676377D02*
G01*
X1421812Y-676377D01*
X1415611Y-674277D01*
X1413611Y-672278D01*
X1411612Y-668177D01*
X1411612Y-664077D01*
X1413611Y-659978D01*
X1415611Y-657878D01*
X1421812Y-655877D01*
X1425912Y-655877D01*
X1444312Y-691878D02*
G01*
X1446312Y-691878D01*
X1450412Y-693877D01*
X1452512Y-695978D01*
X1454511Y-700077D01*
X1454511Y-708278D01*
X1452512Y-712377D01*
X1450412Y-714378D01*
X1446312Y-716377D01*
X1442212Y-716377D01*
X1438111Y-714378D01*
X1432011Y-710277D01*
X1411612Y-689877D01*
X1411612Y-718478D01*
X16010Y-760610D02*
G01*
X16010Y-803510D01*
X16010Y-760610D02*
G01*
X34410Y-760610D01*
X40509Y-762609D01*
X42609Y-764710D01*
X44610Y-768809D01*
X44610Y-772910D01*
X42609Y-777010D01*
X40509Y-779009D01*
X34410Y-781010D01*
X16010Y-781010D01*
X30309Y-781010D02*
G01*
X44610Y-803510D01*
X58110Y-768809D02*
G01*
X62210Y-766709D01*
X68409Y-760610D01*
X68409Y-803510D01*
X94110Y-760610D02*
G01*
X88009Y-762609D01*
X83910Y-768809D01*
X81910Y-779009D01*
X81910Y-785109D01*
X83910Y-795410D01*
X88009Y-801509D01*
X94110Y-803510D01*
X98209Y-803510D01*
X104410Y-801509D01*
X108510Y-795410D01*
X110509Y-785109D01*
X110509Y-779009D01*
X108510Y-768809D01*
X104410Y-762609D01*
X98209Y-760610D01*
X94110Y-760610D01*
X17004Y-657599D02*
G01*
X17004Y-700499D01*
X17004Y-657599D02*
G01*
X35403Y-657599D01*
X41503Y-659600D01*
X43604Y-661700D01*
X45603Y-665799D01*
X45603Y-669899D01*
X43604Y-674000D01*
X41503Y-675999D01*
X35403Y-677999D01*
X17004Y-677999D01*
X31304Y-677999D02*
G01*
X45603Y-700499D01*
X85704Y-671900D02*
G01*
X83704Y-677999D01*
X79603Y-682100D01*
X73503Y-684200D01*
X71404Y-684200D01*
X65304Y-682100D01*
X61204Y-677999D01*
X59104Y-671900D01*
X59104Y-669899D01*
X61204Y-663699D01*
X65304Y-659600D01*
X71404Y-657599D01*
X73503Y-657599D01*
X79603Y-659600D01*
X83704Y-663699D01*
X85704Y-671900D01*
X85704Y-682100D01*
X83704Y-692399D01*
X79603Y-698499D01*
X73503Y-700499D01*
X69403Y-700499D01*
X63204Y-698499D01*
X61204Y-694400D01*
X571801Y-924294D02*
G01*
X567701Y-926394D01*
X563601Y-930495D01*
X561600Y-934495D01*
X561600Y-942694D01*
X563601Y-946794D01*
X567701Y-950895D01*
X571801Y-952995D01*
X578000Y-954994D01*
X588201Y-954994D01*
X594301Y-952995D01*
X598400Y-950895D01*
X602500Y-946794D01*
X604501Y-942694D01*
X604501Y-934495D01*
X602500Y-930495D01*
X598400Y-926394D01*
X594301Y-924294D01*
X561600Y-890394D02*
G01*
X590201Y-910794D01*
X590201Y-880095D01*
X561600Y-890394D02*
G01*
X604501Y-890394D01*
X812201Y-910695D02*
G01*
X816300Y-908595D01*
X820400Y-904495D01*
X822401Y-900495D01*
X822401Y-892294D01*
X820400Y-888195D01*
X816300Y-884094D01*
X812201Y-881995D01*
X806001Y-879994D01*
X795800Y-879994D01*
X789701Y-881995D01*
X785601Y-884094D01*
X781501Y-888195D01*
X779501Y-892294D01*
X779501Y-900495D01*
X781501Y-904495D01*
X785601Y-908595D01*
X789701Y-910695D01*
X822401Y-948694D02*
G01*
X822401Y-928294D01*
X804001Y-926194D01*
X806001Y-928294D01*
X808101Y-934394D01*
X808101Y-940495D01*
X806001Y-946694D01*
X802001Y-950794D01*
X795800Y-952795D01*
X791700Y-952795D01*
X785601Y-950794D01*
X781501Y-946694D01*
X779501Y-940495D01*
X779501Y-934394D01*
X781501Y-928294D01*
X783501Y-926194D01*
X787600Y-924194D01*
X845400Y-1932754D02*
G01*
X802500Y-1932754D01*
X845400Y-1932754D02*
G01*
X845400Y-1951154D01*
X843400Y-1957255D01*
X841300Y-1959355D01*
X837201Y-1961354D01*
X833101Y-1961354D01*
X829001Y-1959355D01*
X827001Y-1957255D01*
X825000Y-1951154D01*
X825000Y-1932754D01*
X825000Y-1947055D02*
G01*
X802500Y-1961354D01*
X845400Y-1995354D02*
G01*
X816801Y-1974854D01*
X816801Y-2005554D01*
X845400Y-1995354D02*
G01*
X802500Y-1995354D01*
X1330400Y-1334998D02*
G01*
X1287500Y-1334998D01*
X1287500Y-1334998D02*
G01*
X1287500Y-1359499D01*
X1322201Y-1372998D02*
G01*
X1324301Y-1377098D01*
X1330400Y-1383298D01*
X1287500Y-1383298D01*
X985201Y-1513460D02*
G01*
X989301Y-1511359D01*
X993400Y-1507260D01*
X995400Y-1503260D01*
X995400Y-1495059D01*
X993400Y-1490960D01*
X989301Y-1486860D01*
X985201Y-1484760D01*
X979001Y-1482759D01*
X968800Y-1482759D01*
X962701Y-1484760D01*
X958601Y-1486860D01*
X954501Y-1490960D01*
X952500Y-1495059D01*
X952500Y-1503260D01*
X954501Y-1507260D01*
X958601Y-1511359D01*
X962701Y-1513460D01*
X995400Y-1531059D02*
G01*
X995400Y-1553559D01*
X979001Y-1541259D01*
X979001Y-1547359D01*
X977001Y-1551459D01*
X975000Y-1553559D01*
X968800Y-1555560D01*
X964701Y-1555560D01*
X958601Y-1553559D01*
X954501Y-1549459D01*
X952500Y-1543260D01*
X952500Y-1537159D01*
X954501Y-1531059D01*
X956501Y-1528959D01*
X960601Y-1526959D01*
X759992Y-1545754D02*
G01*
X759992Y-1588654D01*
X759992Y-1545754D02*
G01*
X774293Y-1545754D01*
X780493Y-1547754D01*
X784492Y-1551855D01*
X786592Y-1555954D01*
X788592Y-1562154D01*
X788592Y-1572354D01*
X786592Y-1578454D01*
X784492Y-1582554D01*
X780493Y-1586655D01*
X774293Y-1588654D01*
X759992Y-1588654D01*
X802092Y-1553955D02*
G01*
X806192Y-1551855D01*
X812392Y-1545754D01*
X812392Y-1588654D01*
X227993Y-1295589D02*
G01*
X185093Y-1295589D01*
X227993Y-1295589D02*
G01*
X227993Y-1313989D01*
X225993Y-1320090D01*
X223893Y-1322190D01*
X219793Y-1324189D01*
X215692Y-1324189D01*
X211592Y-1322190D01*
X209592Y-1320090D01*
X207593Y-1313989D01*
X207593Y-1295589D01*
X207593Y-1309890D02*
G01*
X185093Y-1324189D01*
X221893Y-1362289D02*
G01*
X225993Y-1360189D01*
X227993Y-1354090D01*
X227993Y-1349989D01*
X225993Y-1343890D01*
X219793Y-1339789D01*
X209592Y-1337689D01*
X199393Y-1337689D01*
X191192Y-1339789D01*
X187092Y-1343890D01*
X185093Y-1349989D01*
X185093Y-1352089D01*
X187092Y-1358189D01*
X191192Y-1362289D01*
X197293Y-1364290D01*
X199393Y-1364290D01*
X205493Y-1362289D01*
X209592Y-1358189D01*
X211592Y-1352089D01*
X211592Y-1349989D01*
X209592Y-1343890D01*
X205493Y-1339789D01*
X199393Y-1337689D01*
X527993Y-1205594D02*
G01*
X485093Y-1205594D01*
X527993Y-1205594D02*
G01*
X527993Y-1223995D01*
X525993Y-1230095D01*
X523893Y-1232195D01*
X519793Y-1234194D01*
X515692Y-1234194D01*
X511592Y-1232195D01*
X509592Y-1230095D01*
X507593Y-1223995D01*
X507593Y-1205594D01*
X507593Y-1219895D02*
G01*
X485093Y-1234194D01*
X527993Y-1276394D02*
G01*
X485093Y-1255895D01*
X527993Y-1247694D02*
G01*
X527993Y-1276394D01*
X532993Y-1100594D02*
G01*
X490093Y-1100594D01*
X532993Y-1100594D02*
G01*
X532993Y-1118995D01*
X530993Y-1125095D01*
X528893Y-1127195D01*
X524793Y-1129194D01*
X520692Y-1129194D01*
X516592Y-1127195D01*
X514592Y-1125095D01*
X512593Y-1118995D01*
X512593Y-1100594D01*
X512593Y-1114895D02*
G01*
X490093Y-1129194D01*
X532993Y-1152995D02*
G01*
X530993Y-1146794D01*
X526893Y-1144794D01*
X522792Y-1144794D01*
X518692Y-1146794D01*
X516592Y-1150895D01*
X514592Y-1159094D01*
X512593Y-1165194D01*
X508493Y-1169294D01*
X504393Y-1171394D01*
X498192Y-1171394D01*
X494092Y-1169294D01*
X492092Y-1167294D01*
X490093Y-1161095D01*
X490093Y-1152995D01*
X492092Y-1146794D01*
X494092Y-1144794D01*
X498192Y-1142694D01*
X504393Y-1142694D01*
X508493Y-1144794D01*
X512593Y-1148894D01*
X514592Y-1154994D01*
X516592Y-1163195D01*
X518692Y-1167294D01*
X522792Y-1169294D01*
X526893Y-1169294D01*
X530993Y-1167294D01*
X532993Y-1161095D01*
X532993Y-1152995D01*
X1140398Y-1769996D02*
G01*
X1097498Y-1769996D01*
X1140398Y-1769996D02*
G01*
X1140398Y-1788397D01*
X1138398Y-1794497D01*
X1136298Y-1796597D01*
X1132198Y-1798596D01*
X1128098Y-1798596D01*
X1123997Y-1796597D01*
X1121997Y-1794497D01*
X1119998Y-1788397D01*
X1119998Y-1769996D01*
X1119998Y-1784297D02*
G01*
X1097498Y-1798596D01*
X1140398Y-1836696D02*
G01*
X1140398Y-1816196D01*
X1121997Y-1814196D01*
X1123997Y-1816196D01*
X1126097Y-1822397D01*
X1126097Y-1828496D01*
X1123997Y-1834596D01*
X1119998Y-1838696D01*
X1113798Y-1840796D01*
X1109698Y-1840796D01*
X1103597Y-1838696D01*
X1099497Y-1834596D01*
X1097498Y-1828496D01*
X1097498Y-1822397D01*
X1099497Y-1816196D01*
X1101497Y-1814196D01*
X1105598Y-1812096D01*
X771996Y-794594D02*
G01*
X800596Y-837494D01*
X800596Y-794594D02*
G01*
X771996Y-837494D01*
X814096Y-802795D02*
G01*
X818196Y-800695D01*
X824396Y-794594D01*
X824396Y-837494D01*
X1194600Y-1780000D02*
G01*
X1237500Y-1780000D01*
X1194600Y-1780000D02*
G01*
X1194600Y-1761599D01*
X1196600Y-1755499D01*
X1198700Y-1753400D01*
X1202801Y-1751399D01*
X1206901Y-1751399D01*
X1211001Y-1753400D01*
X1213000Y-1755499D01*
X1215000Y-1761599D01*
X1215000Y-1780000D01*
X1215000Y-1765700D02*
G01*
X1237500Y-1751399D01*
X1204801Y-1735799D02*
G01*
X1202801Y-1735799D01*
X1198700Y-1733800D01*
X1196600Y-1731700D01*
X1194600Y-1727599D01*
X1194600Y-1719499D01*
X1196600Y-1715399D01*
X1198700Y-1713299D01*
X1202801Y-1711300D01*
X1206901Y-1711300D01*
X1211001Y-1713299D01*
X1217100Y-1717399D01*
X1237500Y-1737899D01*
X1237500Y-1709200D01*
X1364600Y-1780000D02*
G01*
X1407500Y-1780000D01*
X1364600Y-1780000D02*
G01*
X1364600Y-1761599D01*
X1366600Y-1755499D01*
X1368700Y-1753400D01*
X1372801Y-1751399D01*
X1376901Y-1751399D01*
X1381001Y-1753400D01*
X1383000Y-1755499D01*
X1385000Y-1761599D01*
X1385000Y-1780000D01*
X1385000Y-1765700D02*
G01*
X1407500Y-1751399D01*
X1372801Y-1737899D02*
G01*
X1370701Y-1733800D01*
X1364600Y-1727599D01*
X1407500Y-1727599D01*
X1390500Y-439600D02*
G01*
X1390500Y-472300D01*
X1388400Y-478499D01*
X1386401Y-480499D01*
X1382301Y-482500D01*
X1378201Y-482500D01*
X1374100Y-480499D01*
X1372001Y-478499D01*
X1370000Y-472300D01*
X1370000Y-468200D01*
X1404001Y-447799D02*
G01*
X1408000Y-445700D01*
X1414200Y-439600D01*
X1414200Y-482500D01*
X1114995Y-669600D02*
G01*
X1114995Y-700299D01*
X1116996Y-706399D01*
X1121096Y-710499D01*
X1127296Y-712500D01*
X1131395Y-712500D01*
X1137495Y-710499D01*
X1141596Y-706399D01*
X1143596Y-700299D01*
X1143596Y-669600D01*
X1161196Y-669600D02*
G01*
X1183696Y-669600D01*
X1171496Y-685999D01*
X1177595Y-685999D01*
X1181695Y-687999D01*
X1183696Y-690000D01*
X1185796Y-696199D01*
X1185796Y-700299D01*
X1183696Y-706399D01*
X1179595Y-710499D01*
X1173496Y-712500D01*
X1167396Y-712500D01*
X1161196Y-710499D01*
X1159195Y-708499D01*
X1157095Y-704400D01*
X1061001Y-1703355D02*
G01*
X1061001Y-1734054D01*
X1063000Y-1740154D01*
X1067100Y-1744254D01*
X1073300Y-1746255D01*
X1077401Y-1746255D01*
X1083501Y-1744254D01*
X1087600Y-1740154D01*
X1089600Y-1734054D01*
X1089600Y-1703355D01*
X1105201Y-1713555D02*
G01*
X1105201Y-1711554D01*
X1107201Y-1707455D01*
X1109301Y-1705354D01*
X1113400Y-1703355D01*
X1121501Y-1703355D01*
X1125601Y-1705354D01*
X1127701Y-1707455D01*
X1129701Y-1711554D01*
X1129701Y-1715655D01*
X1127701Y-1719755D01*
X1123601Y-1725855D01*
X1103101Y-1746255D01*
X1131801Y-1746255D01*
X645404Y-1882757D02*
G01*
X614703Y-1882757D01*
X608604Y-1884756D01*
X604504Y-1888856D01*
X602504Y-1895057D01*
X602504Y-1899157D01*
X604504Y-1905257D01*
X608604Y-1909357D01*
X614703Y-1911356D01*
X645404Y-1911356D01*
X637203Y-1924856D02*
G01*
X639303Y-1928957D01*
X645404Y-1935156D01*
X602504Y-1935156D01*
X424888Y-1360190D02*
G01*
X420788Y-1362190D01*
X416689Y-1366291D01*
X414589Y-1370390D01*
X412589Y-1376590D01*
X412589Y-1386790D01*
X414589Y-1392890D01*
X416689Y-1396990D01*
X420788Y-1401091D01*
X424888Y-1403090D01*
X433089Y-1403090D01*
X437089Y-1401091D01*
X441188Y-1396990D01*
X443288Y-1392890D01*
X445288Y-1386790D01*
X445288Y-1376590D01*
X443288Y-1370390D01*
X441188Y-1366291D01*
X437089Y-1362190D01*
X433089Y-1360190D01*
X424888Y-1360190D01*
X430989Y-1394991D02*
G01*
X443288Y-1407190D01*
X460889Y-1370390D02*
G01*
X460889Y-1368391D01*
X462889Y-1364290D01*
X464989Y-1362190D01*
X469088Y-1360190D01*
X477189Y-1360190D01*
X481289Y-1362190D01*
X483389Y-1364290D01*
X485389Y-1368391D01*
X485389Y-1372491D01*
X483389Y-1376590D01*
X479289Y-1382690D01*
X458789Y-1403090D01*
X487489Y-1403090D01*
X711402Y-1543258D02*
G01*
X709402Y-1539158D01*
X705301Y-1535059D01*
X701201Y-1532959D01*
X695001Y-1530958D01*
X684802Y-1530958D01*
X678701Y-1532959D01*
X674601Y-1535059D01*
X670502Y-1539158D01*
X668502Y-1543258D01*
X668502Y-1551458D01*
X670502Y-1555459D01*
X674601Y-1559558D01*
X678701Y-1561658D01*
X684802Y-1563658D01*
X695001Y-1563658D01*
X701201Y-1561658D01*
X705301Y-1559558D01*
X709402Y-1555459D01*
X711402Y-1551458D01*
X711402Y-1543258D01*
X676601Y-1549358D02*
G01*
X664402Y-1561658D01*
X703201Y-1577159D02*
G01*
X705301Y-1581259D01*
X711402Y-1587458D01*
X668502Y-1587458D01*
X89605Y-1074004D02*
G01*
X132504Y-1074004D01*
X132504Y-1074004D02*
G01*
X132504Y-1049503D01*
X89605Y-1036003D02*
G01*
X132504Y-1036003D01*
X89605Y-1036003D02*
G01*
X89605Y-1009403D01*
X110005Y-1036003D02*
G01*
X110005Y-1019603D01*
X132504Y-1036003D02*
G01*
X132504Y-1009403D01*
X89605Y-995904D02*
G01*
X132504Y-995904D01*
X89605Y-995904D02*
G01*
X89605Y-981503D01*
X91604Y-975403D01*
X95704Y-971304D01*
X99805Y-969303D01*
X106005Y-967204D01*
X116205Y-967204D01*
X122305Y-969303D01*
X126404Y-971304D01*
X130504Y-975403D01*
X132504Y-981503D01*
X132504Y-995904D01*
X89605Y-949603D02*
G01*
X89605Y-927103D01*
X106005Y-939403D01*
X106005Y-933303D01*
X108004Y-929203D01*
X110005Y-927103D01*
X116205Y-925104D01*
X120305Y-925104D01*
X126404Y-927103D01*
X130504Y-931203D01*
X132504Y-937404D01*
X132504Y-943503D01*
X130504Y-949603D01*
X128505Y-951703D01*
X124405Y-953703D01*
X19603Y-395001D02*
G01*
X62503Y-395001D01*
X62503Y-395001D02*
G01*
X62503Y-370502D01*
X19603Y-357001D02*
G01*
X62503Y-357001D01*
X19603Y-357001D02*
G01*
X19603Y-330401D01*
X40003Y-357001D02*
G01*
X40003Y-340601D01*
X62503Y-357001D02*
G01*
X62503Y-330401D01*
X19603Y-316902D02*
G01*
X62503Y-316902D01*
X19603Y-316902D02*
G01*
X19603Y-302501D01*
X21603Y-296401D01*
X25702Y-292301D01*
X29803Y-290302D01*
X36003Y-288202D01*
X46203Y-288202D01*
X52303Y-290302D01*
X56403Y-292301D01*
X60502Y-296401D01*
X62503Y-302501D01*
X62503Y-316902D01*
X29803Y-272701D02*
G01*
X27802Y-272701D01*
X23703Y-270601D01*
X21603Y-268602D01*
X19603Y-264501D01*
X19603Y-256302D01*
X21603Y-252201D01*
X23703Y-250201D01*
X27802Y-248101D01*
X31903Y-248101D01*
X36003Y-250201D01*
X42103Y-254301D01*
X62503Y-274701D01*
X62503Y-246102D01*
X917580Y-1985592D02*
G01*
X917580Y-2028492D01*
X917580Y-2028492D02*
G01*
X942080Y-2028492D01*
X955580Y-1985592D02*
G01*
X955580Y-2028492D01*
X955580Y-1985592D02*
G01*
X982180Y-1985592D01*
X955580Y-2005992D02*
G01*
X971979Y-2005992D01*
X955580Y-2028492D02*
G01*
X982180Y-2028492D01*
X995679Y-1985592D02*
G01*
X995679Y-2028492D01*
X995679Y-1985592D02*
G01*
X1010080Y-1985592D01*
X1016179Y-1987593D01*
X1020279Y-1991693D01*
X1022279Y-1995792D01*
X1024379Y-2001992D01*
X1024379Y-2012192D01*
X1022279Y-2018292D01*
X1020279Y-2022392D01*
X1016179Y-2026493D01*
X1010080Y-2028492D01*
X995679Y-2028492D01*
X1037880Y-1993793D02*
G01*
X1041979Y-1991693D01*
X1048080Y-1985592D01*
X1048080Y-2028492D01*
X1910701Y-511399D02*
G01*
X1906600Y-515499D01*
X1904600Y-521599D01*
X1904600Y-529800D01*
X1906600Y-535900D01*
X1910701Y-540000D01*
X1914801Y-540000D01*
X1918901Y-537999D01*
X1921001Y-535900D01*
X1923000Y-531799D01*
X1927100Y-519499D01*
X1929100Y-515499D01*
X1931200Y-513400D01*
X1935301Y-511399D01*
X1941401Y-511399D01*
X1945500Y-515499D01*
X1947500Y-521599D01*
X1947500Y-529800D01*
X1945500Y-535900D01*
X1941401Y-540000D01*
X1904600Y-497899D02*
G01*
X1947500Y-487599D01*
X1904600Y-477399D02*
G01*
X1947500Y-487599D01*
X1904600Y-477399D02*
G01*
X1947500Y-467199D01*
X1904600Y-456999D02*
G01*
X1947500Y-467199D01*
X1914801Y-441399D02*
G01*
X1912801Y-441399D01*
X1908700Y-439400D01*
X1906600Y-437300D01*
X1904600Y-433200D01*
X1904600Y-425000D01*
X1906600Y-420999D01*
X1908700Y-418899D01*
X1912801Y-416900D01*
X1916901Y-416900D01*
X1921001Y-418899D01*
X1927100Y-422999D01*
X1947500Y-443499D01*
X1947500Y-414800D01*
X1910701Y-836399D02*
G01*
X1906600Y-840499D01*
X1904600Y-846599D01*
X1904600Y-854800D01*
X1906600Y-860900D01*
X1910701Y-865000D01*
X1914801Y-865000D01*
X1918901Y-862999D01*
X1921001Y-860900D01*
X1923000Y-856799D01*
X1927100Y-844499D01*
X1929100Y-840499D01*
X1931200Y-838400D01*
X1935301Y-836399D01*
X1941401Y-836399D01*
X1945500Y-840499D01*
X1947500Y-846599D01*
X1947500Y-854800D01*
X1945500Y-860900D01*
X1941401Y-865000D01*
X1904600Y-822899D02*
G01*
X1947500Y-812599D01*
X1904600Y-802399D02*
G01*
X1947500Y-812599D01*
X1904600Y-802399D02*
G01*
X1947500Y-792199D01*
X1904600Y-781999D02*
G01*
X1947500Y-792199D01*
X1912801Y-768499D02*
G01*
X1910701Y-764400D01*
X1904600Y-758200D01*
X1947500Y-758200D01*
X1454495Y-921361D02*
G01*
X1421794Y-921361D01*
X1415695Y-919261D01*
X1413595Y-917262D01*
X1411595Y-913161D01*
X1411595Y-909061D01*
X1413595Y-904962D01*
X1415695Y-902961D01*
X1421794Y-900861D01*
X1425894Y-900861D01*
X1454495Y-955261D02*
G01*
X1425894Y-934861D01*
X1425894Y-965561D01*
X1454495Y-955261D02*
G01*
X1411595Y-955261D01*
D50*
X720008Y-1362107D02*
G01*
X720008Y-1392707D01*
X722008Y-1398908D01*
X726107Y-1403007D01*
X732307Y-1405007D01*
X736407Y-1405007D01*
X742508Y-1403007D01*
X746608Y-1398908D01*
X748607Y-1392707D01*
X748607Y-1362107D01*
X782608Y-1362107D02*
G01*
X762108Y-1390707D01*
X792808Y-1390707D01*
X782608Y-1362107D02*
G01*
X782608Y-1405007D01*
D10*
X94760Y-1662109D02*
G01*
X94760Y-1425889D01*
X271930Y-1425889D01*
X271930Y-1662109D01*
X94760Y-1662109D01*
X1023636Y-1217480D02*
G01*
X992139Y-1217480D01*
X979941Y-1173786D02*
G01*
X979941Y-1205282D01*
X1023636Y-1161588D02*
G01*
X992139Y-1161588D01*
X1046308Y-1217709D02*
G01*
X1077802Y-1217709D01*
X1046308Y-1161819D02*
G01*
X1077802Y-1161819D01*
X1090000Y-1174016D02*
G01*
X1090000Y-1205513D01*
X716366Y-1755275D02*
G01*
X747863Y-1755275D01*
X760059Y-1798967D02*
G01*
X760059Y-1767471D01*
X716366Y-1811165D02*
G01*
X747863Y-1811165D01*
X693692Y-1755045D02*
G01*
X662198Y-1755045D01*
X693692Y-1810936D02*
G01*
X662198Y-1810936D01*
X650000Y-1798739D02*
G01*
X650000Y-1767242D01*
D46*
X952397Y-1894131D02*
G01*
X952397Y-1941377D01*
X922082Y-1894131D02*
G01*
X952397Y-1894131D01*
X877594Y-1894131D02*
G01*
X877594Y-1941377D01*
X907909Y-1894131D02*
G01*
X877594Y-1894131D01*
X907909Y-1941377D02*
G01*
X877594Y-1941377D01*
X922082Y-1941377D02*
G01*
X952397Y-1941377D01*
D10*
X1722545Y-763166D02*
G01*
X1773727Y-763166D01*
X1773727Y-684425D01*
X1773727Y-593876D02*
G01*
X1474513Y-593876D01*
X1525693Y-763166D02*
G01*
X1474513Y-763166D01*
X1474513Y-684425D01*
D46*
X63623Y-887397D02*
G01*
X16377Y-887397D01*
X63623Y-857082D02*
G01*
X63623Y-887397D01*
X63623Y-812593D02*
G01*
X16377Y-812593D01*
X63623Y-842907D02*
G01*
X63623Y-812593D01*
X16377Y-842907D02*
G01*
X16377Y-812593D01*
X16377Y-857082D02*
G01*
X16377Y-887397D01*
X16377Y-572602D02*
G01*
X63623Y-572602D01*
X16377Y-602917D02*
G01*
X16377Y-572602D01*
X16377Y-647406D02*
G01*
X63623Y-647406D01*
X16377Y-617091D02*
G01*
X16377Y-647406D01*
X63623Y-617091D02*
G01*
X63623Y-647406D01*
X63623Y-602917D02*
G01*
X63623Y-572602D01*
X665625Y-907914D02*
G01*
X665625Y-883503D01*
X665625Y-922089D02*
G01*
X665625Y-946495D01*
X618380Y-922089D02*
G01*
X618380Y-946495D01*
X626254Y-952404D02*
G01*
X657748Y-952404D01*
X618380Y-907914D02*
G01*
X618380Y-883503D01*
X626254Y-877599D02*
G01*
X657748Y-877599D01*
X624289Y-952404D02*
G01*
X626254Y-952404D01*
X659716Y-952404D02*
G01*
X657748Y-952404D01*
X624284Y-877599D02*
G01*
X626254Y-877599D01*
X659721Y-877599D02*
G01*
X657748Y-877599D01*
X765625Y-907914D02*
G01*
X765625Y-883503D01*
X765625Y-922089D02*
G01*
X765625Y-946495D01*
X718380Y-922089D02*
G01*
X718380Y-946495D01*
X726254Y-952404D02*
G01*
X757748Y-952404D01*
X718380Y-907914D02*
G01*
X718380Y-883503D01*
X726254Y-877599D02*
G01*
X757748Y-877599D01*
X724289Y-952404D02*
G01*
X726254Y-952404D01*
X759716Y-952404D02*
G01*
X757748Y-952404D01*
X724284Y-877599D02*
G01*
X726254Y-877599D01*
X759721Y-877599D02*
G01*
X757748Y-877599D01*
X848624Y-1920151D02*
G01*
X801377Y-1920151D01*
X848624Y-1889836D02*
G01*
X848624Y-1920151D01*
X848624Y-1845347D02*
G01*
X801377Y-1845347D01*
X848624Y-1875662D02*
G01*
X848624Y-1845347D01*
X801377Y-1875662D02*
G01*
X801377Y-1845347D01*
X801377Y-1889836D02*
G01*
X801377Y-1920151D01*
D10*
X1036891Y-1488110D02*
G01*
X1036891Y-1251891D01*
X1273111Y-1251889D02*
G01*
X1273111Y-1488110D01*
X1207408Y-1488110D01*
X1102594Y-1488110D02*
G01*
X1036891Y-1488110D01*
X1036891Y-1251891D02*
G01*
X1036891Y-1251889D01*
X1102594Y-1251889D01*
X1207408Y-1251889D02*
G01*
X1273111Y-1251889D01*
D46*
X998625Y-1595670D02*
G01*
X998625Y-1571259D01*
X998625Y-1609845D02*
G01*
X998625Y-1634250D01*
X951380Y-1609845D02*
G01*
X951380Y-1634250D01*
X959253Y-1640160D02*
G01*
X990749Y-1640160D01*
X951380Y-1595670D02*
G01*
X951380Y-1571259D01*
X959253Y-1565354D02*
G01*
X990749Y-1565354D01*
X957288Y-1640160D02*
G01*
X959253Y-1640160D01*
X992716Y-1640160D02*
G01*
X990749Y-1640160D01*
X957284Y-1565354D02*
G01*
X959253Y-1565354D01*
X992721Y-1565354D02*
G01*
X990749Y-1565354D01*
D47*
X880000Y-1672455D02*
G01*
X880000Y-1622455D01*
X880000Y-1662455D02*
G01*
X895000Y-1662455D01*
X895000Y-1662455D02*
G01*
X880000Y-1632455D01*
X880000Y-1632455D02*
G01*
X895000Y-1632455D01*
X880000Y-1662455D02*
G01*
X865000Y-1662455D01*
X865000Y-1662455D02*
G01*
X880000Y-1632455D01*
X880000Y-1632455D02*
G01*
X865000Y-1632455D01*
D10*
X824883Y-1613755D02*
G01*
X935118Y-1613755D01*
X935117Y-1557204D02*
G01*
X935118Y-1738305D01*
X824883Y-1557204D02*
G01*
X824883Y-1738305D01*
X935117Y-1557204D02*
G01*
X928471Y-1557204D01*
X831531Y-1557204D02*
G01*
X824883Y-1557204D01*
X935118Y-1738305D02*
G01*
X928471Y-1738305D01*
X831531Y-1738305D02*
G01*
X824883Y-1738305D01*
D46*
X286429Y-1367982D02*
G01*
X239182Y-1367982D01*
X286429Y-1337667D02*
G01*
X286429Y-1367982D01*
X286429Y-1293179D02*
G01*
X239182Y-1293179D01*
X286429Y-1323494D02*
G01*
X286429Y-1293179D01*
X239182Y-1323494D02*
G01*
X239182Y-1293179D01*
X239182Y-1337667D02*
G01*
X239182Y-1367982D01*
X428970Y-1188195D02*
G01*
X476215Y-1188195D01*
X428970Y-1218510D02*
G01*
X428970Y-1188195D01*
X428970Y-1262998D02*
G01*
X476215Y-1262998D01*
X428970Y-1232683D02*
G01*
X428970Y-1262998D01*
X476215Y-1232683D02*
G01*
X476215Y-1262998D01*
X476215Y-1218510D02*
G01*
X476215Y-1188195D01*
X428970Y-1103195D02*
G01*
X476215Y-1103195D01*
X428970Y-1133510D02*
G01*
X428970Y-1103195D01*
X428970Y-1177998D02*
G01*
X476215Y-1177998D01*
X428970Y-1147683D02*
G01*
X428970Y-1177998D01*
X476215Y-1147683D02*
G01*
X476215Y-1177998D01*
X476215Y-1133510D02*
G01*
X476215Y-1103195D01*
X1036377Y-1765358D02*
G01*
X1083624Y-1765358D01*
X1036377Y-1795673D02*
G01*
X1036377Y-1765358D01*
X1036377Y-1840162D02*
G01*
X1083624Y-1840162D01*
X1036377Y-1809846D02*
G01*
X1036377Y-1840162D01*
X1083624Y-1809846D02*
G01*
X1083624Y-1840162D01*
X1083624Y-1795673D02*
G01*
X1083624Y-1765358D01*
D10*
X672001Y-785000D02*
G01*
X712001Y-785000D01*
X712001Y-845000D02*
G01*
X672001Y-845000D01*
D46*
X1251377Y-1710358D02*
G01*
X1298624Y-1710358D01*
X1251377Y-1740673D02*
G01*
X1251377Y-1710358D01*
X1251377Y-1785162D02*
G01*
X1298624Y-1785162D01*
X1251377Y-1754846D02*
G01*
X1251377Y-1785162D01*
X1298624Y-1754846D02*
G01*
X1298624Y-1785162D01*
X1298624Y-1740673D02*
G01*
X1298624Y-1710358D01*
X1306377Y-1710358D02*
G01*
X1353624Y-1710358D01*
X1306377Y-1740673D02*
G01*
X1306377Y-1710358D01*
X1306377Y-1785162D02*
G01*
X1353624Y-1785162D01*
X1306377Y-1754846D02*
G01*
X1306377Y-1785162D01*
X1353624Y-1754846D02*
G01*
X1353624Y-1785162D01*
X1353624Y-1740673D02*
G01*
X1353624Y-1710358D01*
D10*
X1463620Y-425199D02*
G01*
X1328580Y-425199D01*
X1328580Y-425199D02*
G01*
X1328580Y-174800D01*
X1463620Y-174800D02*
G01*
X1328580Y-174800D01*
X1463620Y-425199D02*
G01*
X1463620Y-174800D01*
X1465010Y-1913301D02*
G01*
X1448858Y-1913301D01*
X1165791Y-1913301D02*
G01*
X1181561Y-1913301D01*
X1465010Y-1913301D02*
G01*
X1465010Y-1981370D01*
X1165791Y-1913301D02*
G01*
X1165791Y-1981059D01*
X1195000Y-2125900D02*
G01*
X1435000Y-2125900D01*
X1465000Y-2080000D02*
G01*
X1485000Y-2100000D01*
X1475000Y-2110000D01*
X1465000Y-2110000D01*
X1455000Y-2100000D01*
X1445000Y-2100000D01*
X1435000Y-2110000D01*
X1165000Y-2080000D02*
G01*
X1195000Y-2080000D01*
X1228390Y-2080000D02*
G01*
X1395000Y-2080000D01*
X1428390Y-2080000D02*
G01*
X1465000Y-2080000D01*
X1165000Y-2080000D02*
G01*
X1145000Y-2100000D01*
X1155000Y-2110000D01*
X1165000Y-2110000D01*
X1175000Y-2100000D01*
X1185000Y-2100000D01*
X1195000Y-2110000D01*
X1465010Y-2069629D02*
G01*
X1465010Y-2080000D01*
X1165791Y-2069940D02*
G01*
X1165791Y-2080000D01*
X1042015Y-110630D02*
G01*
X642015Y-110630D01*
X642015Y-25630D01*
X1042015Y-25630D01*
X1042015Y-110630D01*
X642156Y-710630D02*
G01*
X586110Y-710630D01*
X692156Y-710630D02*
G01*
X691856Y-710630D01*
X742156Y-710630D02*
G01*
X741856Y-710630D01*
X792156Y-710630D02*
G01*
X791856Y-710630D01*
X842156Y-710630D02*
G01*
X841856Y-710630D01*
X892156Y-710630D02*
G01*
X891856Y-710630D01*
X942156Y-710630D02*
G01*
X941856Y-710630D01*
X992156Y-710630D02*
G01*
X991856Y-710630D01*
X1097922Y-710630D02*
G01*
X1041856Y-710630D01*
X586110Y-133969D02*
G01*
X586110Y-1968D01*
X586110Y-183969D02*
G01*
X586110Y-183669D01*
X586110Y-233969D02*
G01*
X586110Y-233669D01*
X586110Y-283969D02*
G01*
X586110Y-283669D01*
X586110Y-333969D02*
G01*
X586110Y-333669D01*
X586110Y-383969D02*
G01*
X586110Y-383669D01*
X586110Y-433969D02*
G01*
X586110Y-433669D01*
X586110Y-483969D02*
G01*
X586110Y-483669D01*
X586110Y-533968D02*
G01*
X586110Y-533669D01*
X586110Y-583969D02*
G01*
X586110Y-583668D01*
X586110Y-710630D02*
G01*
X586110Y-633669D01*
X1097922Y-133969D02*
G01*
X1097922Y-1968D01*
X1097922Y-183968D02*
G01*
X1097922Y-183669D01*
X1097922Y-233969D02*
G01*
X1097922Y-233668D01*
X1097922Y-283969D02*
G01*
X1097922Y-283669D01*
X1097922Y-333969D02*
G01*
X1097922Y-333669D01*
X1097922Y-383969D02*
G01*
X1097922Y-383669D01*
X1097922Y-433969D02*
G01*
X1097922Y-433669D01*
X1097922Y-483969D02*
G01*
X1097922Y-483669D01*
X1097922Y-533969D02*
G01*
X1097922Y-533669D01*
X1097922Y-583969D02*
G01*
X1097922Y-583669D01*
X1097922Y-710630D02*
G01*
X1097922Y-633669D01*
X586110Y-1968D02*
G01*
X1097921Y-1968D01*
X997015Y-75630D02*
G01*
X942015Y-75630D01*
X942015Y-55630D01*
X997015Y-55630D01*
X997015Y-75630D01*
X1130436Y-1561729D02*
G01*
X1059568Y-1561729D01*
X1130436Y-1607003D02*
G01*
X1130436Y-1638501D01*
X1130436Y-1683777D02*
G01*
X1059568Y-1683777D01*
X781026Y-1948189D02*
G01*
X781026Y-1877323D01*
X735751Y-1948189D02*
G01*
X704254Y-1948189D01*
X658979Y-1948189D02*
G01*
X658979Y-1877323D01*
X395152Y-1355625D02*
G01*
X395152Y-1389641D01*
X395152Y-1389641D02*
G01*
X355781Y-1389641D01*
X340034Y-1318225D02*
G01*
X340034Y-1342948D01*
X395152Y-1271531D02*
G01*
X395152Y-1305547D01*
X395152Y-1271531D02*
G01*
X355781Y-1271531D01*
X669442Y-1632716D02*
G01*
X669442Y-1598699D01*
X669442Y-1598699D02*
G01*
X708813Y-1598699D01*
X724559Y-1670115D02*
G01*
X724559Y-1645394D01*
X669442Y-1716810D02*
G01*
X669442Y-1682793D01*
X669442Y-1716810D02*
G01*
X708813Y-1716810D01*
X6001Y-1049499D02*
G01*
X74000Y-1049499D01*
X74000Y-1049499D02*
G01*
X74000Y-991500D01*
X6001Y-1049499D02*
G01*
X6001Y-991500D01*
X74000Y-968499D02*
G01*
X74000Y-922500D01*
X6001Y-967500D02*
G01*
X6001Y-922500D01*
X6001Y-922500D02*
G01*
X20001Y-908499D01*
X60001Y-908499D01*
X74000Y-922500D01*
D48*
X24000Y-982999D02*
G01*
X55001Y-982999D01*
X39688Y-982999D02*
G01*
X39688Y-976095D01*
D10*
X74000Y-410499D02*
G01*
X6001Y-410499D01*
X6001Y-410499D02*
G01*
X6001Y-468499D01*
X74000Y-410499D02*
G01*
X74000Y-468499D01*
X6001Y-491500D02*
G01*
X6001Y-537500D01*
X74000Y-492500D02*
G01*
X74000Y-537500D01*
X74000Y-537500D02*
G01*
X60001Y-551500D01*
X20001Y-551500D01*
X6001Y-537500D01*
D48*
X56001Y-476999D02*
G01*
X25001Y-476999D01*
X40313Y-476999D02*
G01*
X40313Y-483903D01*
D10*
X1047092Y-2110592D02*
G01*
X1047092Y-2042591D01*
X1047092Y-2042591D02*
G01*
X989092Y-2042591D01*
X1047092Y-2110592D02*
G01*
X989092Y-2110592D01*
X966092Y-2042591D02*
G01*
X920093Y-2042591D01*
X965093Y-2110592D02*
G01*
X920093Y-2110592D01*
X920093Y-2110592D02*
G01*
X906092Y-2096592D01*
X906092Y-2056592D01*
X920093Y-2042591D01*
D48*
X980593Y-2092591D02*
G01*
X980593Y-2061592D01*
X980593Y-2076905D02*
G01*
X973688Y-2076905D01*
D10*
X1983646Y-428982D02*
G01*
X1983646Y-521017D01*
X1983646Y-380513D02*
G01*
X2027694Y-380513D01*
X2072229Y-524954D02*
G01*
X2072229Y-425045D01*
X2121442Y-514369D02*
G01*
X2072228Y-514369D01*
X2121442Y-435630D02*
G01*
X2072229Y-435630D01*
X2121442Y-435630D02*
G01*
X2121441Y-514369D01*
X1983646Y-569486D02*
G01*
X2027694Y-569486D01*
X1983646Y-384868D02*
G01*
X1983646Y-387159D01*
X1983646Y-562840D02*
G01*
X1983646Y-569486D01*
X1983646Y-763982D02*
G01*
X1983646Y-856017D01*
X1983646Y-715513D02*
G01*
X2027694Y-715513D01*
X2072229Y-859954D02*
G01*
X2072229Y-760045D01*
X2121442Y-849369D02*
G01*
X2072228Y-849369D01*
X2121442Y-770630D02*
G01*
X2072229Y-770630D01*
X2121442Y-770630D02*
G01*
X2121441Y-849369D01*
X1983646Y-904486D02*
G01*
X2027694Y-904486D01*
X1983646Y-719868D02*
G01*
X1983646Y-722159D01*
X1983646Y-897840D02*
G01*
X1983646Y-904486D01*
X1722545Y-1008166D02*
G01*
X1773727Y-1008166D01*
X1773727Y-929425D01*
X1773727Y-838876D02*
G01*
X1474513Y-838876D01*
X1525693Y-1008166D02*
G01*
X1474513Y-1008166D01*
X1474513Y-929425D01*
G75*
G01*
X979941Y-1173787D02*
G02*
X992139Y-1161589I12198J0D01*
G75*
G01*
X992139Y-1217481D02*
G02*
X979941Y-1205283I0J12198D01*
G75*
G01*
X1077803Y-1161818D02*
G02*
X1090001Y-1174016I0J-12198D01*
G75*
G01*
X1090001Y-1205512D02*
G02*
X1077803Y-1217710I-12198J0D01*
G75*
G01*
X760061Y-1798968D02*
G02*
X747863Y-1811166I-12198J0D01*
G75*
G01*
X747863Y-1755274D02*
G02*
X760061Y-1767472I0J-12198D01*
G75*
G01*
X662199Y-1810937D02*
G02*
X650001Y-1798739I0J12198D01*
G75*
G01*
X650001Y-1767243D02*
G02*
X662199Y-1755045I12198J0D01*
D46*
G75*
G01*
X618380Y-946496D02*
G03*
X624289Y-952405I5909J0D01*
G75*
G01*
X665626Y-946496D02*
G02*
X659717Y-952405I-5909J0D01*
G75*
G01*
X618380Y-883504D02*
G02*
X624284Y-877600I5904J0D01*
G75*
G01*
X665626Y-883504D02*
G03*
X659722Y-877600I-5904J0D01*
G75*
G01*
X718380Y-946496D02*
G03*
X724289Y-952405I5909J0D01*
G75*
G01*
X765626Y-946496D02*
G02*
X759717Y-952405I-5909J0D01*
G75*
G01*
X718380Y-883504D02*
G02*
X724284Y-877600I5904J0D01*
G75*
G01*
X765626Y-883504D02*
G03*
X759722Y-877600I-5904J0D01*
G75*
G01*
X951380Y-1634251D02*
G03*
X957289Y-1640160I5909J0D01*
G75*
G01*
X998626Y-1634251D02*
G02*
X992717Y-1640160I-5909J0D01*
G75*
G01*
X951380Y-1571259D02*
G02*
X957284Y-1565355I5904J0D01*
G75*
G01*
X998626Y-1571259D02*
G03*
X992722Y-1565355I-5904J0D01*
D10*
G75*
G01*
X750000Y-1350000D02*
G02*
X750000Y-1150000I0J100000D01*
G75*
G01*
X750000Y-1150000D02*
G02*
X750000Y-1350000I0J-100000D01*
G75*
G01
X259138Y-1454008D02*
G03X259138Y-1454008I-14140J0D01*
G75*
G01
X1756188Y-745908D02*
G03X1756188Y-745908I-7070J0D01*
G75*
G01
X1521298Y-445198D02*
G03X1521298Y-445198I-15000J0D01*
G75*
G01
X532018Y-160628D02*
G03X532018Y-160628I-5000J0D01*
G75*
G01
X1040008Y-1557758D02*
G03X1040008Y-1557758I-5000J0D01*
G75*
G01
X789998Y-1852758D02*
G03X789998Y-1852758I-5000J0D01*
G75*
G01
X1756188Y-990908D02*
G03X1756188Y-990908I-7070J0D01*
M02*
