G04 Layer: BoardOutline*
G04 EasyEDA v6.4.19.5, 2021-05-22T15:42:10+02:00*
G04 f6fe8073f4d6445e90d350db08ac70cc,b771c775d4444e86a06a5321f8c966cb,10*
G04 Gerber Generator version 0.2*
G04 Scale: 100 percent, Rotated: No, Reflected: No *
G04 Dimensions in inches *
G04 leading zeros omitted , absolute positions ,3 integer and 6 decimal *
%FSLAX36Y36*%
%MOIN*%

%ADD10C,0.0100*%
D10*
X356002Y0D02*
G01*
X1767002Y0D01*
X2126002Y-1130000D02*
G01*
X2126002Y-281001D01*
X1845000Y-2126001D02*
G01*
X281002Y-2126001D01*
X2126002Y-1845000D02*
G01*
X2126002Y-1642001D01*
X2087002Y-1622001D02*
G01*
X2106002Y-1622001D01*
X2067002Y-1602001D02*
G01*
X2067002Y-1169000D01*
X2106002Y-1150000D02*
G01*
X2087002Y-1150000D01*
X1845000Y0D02*
G01*
X1767002Y0D01*
X281002Y0D02*
G01*
X356002Y0D01*
X1Y-1130000D02*
G01*
X1Y-281001D01*
X39000Y-1149000D02*
G01*
X20001Y-1149000D01*
X59000Y-1602001D02*
G01*
X59000Y-1169000D01*
X20001Y-1622001D02*
G01*
X39000Y-1622001D01*
X1Y-1845000D02*
G01*
X1Y-1642001D01*
G75*
G01*
X1845003Y-2126002D02*
G03*
X2126003Y-1845002I0J281000D01*
G75*
G01*
X2126003Y-281002D02*
G03*
X1845003Y-2I-281000J0D01*
G75*
G01*
X3Y-1845002D02*
G03*
X281003Y-2126002I281000J0D01*
G75*
G01*
X281003Y-2D02*
G03*
X3Y-281002I0J-281000D01*
G75*
G01*
X2106003Y-1150002D02*
G03*
X2126003Y-1130002I0J20000D01*
G75*
G01*
X2067003Y-1602002D02*
G03*
X2087003Y-1622002I20000J0D01*
G75*
G01*
X2087003Y-1149002D02*
G03*
X2067003Y-1169002I0J-20000D01*
G75*
G01*
X2126003Y-1642002D02*
G03*
X2106003Y-1622002I-20000J0D01*
G75*
G01*
X39003Y-1622002D02*
G03*
X59003Y-1602002I0J20000D01*
G75*
G01*
X59003Y-1169002D02*
G03*
X39003Y-1149002I-20000J0D01*
G75*
G01*
X20003Y-1622002D02*
G03*
X3Y-1642002I0J-20000D01*
G75*
G01*
X3Y-1130002D02*
G03*
X20003Y-1150002I20000J0D01*
X501170Y-115999D02*
G01*
X1621170Y-115999D01*
X1621170Y-115999D02*
G01*
X1621170Y-135999D01*
X1621170Y-135999D02*
G01*
X501170Y-135999D01*
X501170Y-135999D02*
G01*
X501170Y-115999D01*
X-208829Y-115999D02*
G01*
X291170Y-115999D01*
X291170Y-115999D02*
G01*
X291170Y-135999D01*
X291170Y-135999D02*
G01*
X-208829Y-135999D01*
X-208829Y-135999D02*
G01*
X-208829Y-115999D01*
X1831170Y-115999D02*
G01*
X2331170Y-115999D01*
X2331170Y-115999D02*
G01*
X2331170Y-135999D01*
X2331170Y-135999D02*
G01*
X1831170Y-135999D01*
X1831170Y-135999D02*
G01*
X1831170Y-115999D01*

%LPD*%
M02*
