G04 Layer: BottomLayer*
G04 EasyEDA v6.4.19.5, 2021-05-22T15:42:10+02:00*
G04 f6fe8073f4d6445e90d350db08ac70cc,b771c775d4444e86a06a5321f8c966cb,10*
G04 Gerber Generator version 0.2*
G04 Scale: 100 percent, Rotated: No, Reflected: No *
G04 Dimensions in inches *
G04 leading zeros omitted , absolute positions ,3 integer and 6 decimal *
%FSLAX36Y36*%
%MOIN*%

%ADD10C,0.0100*%
%ADD13C,0.0200*%
%ADD16C,0.1200*%
%ADD17C,0.0240*%
%ADD18C,0.0480*%
%ADD19C,0.0360*%
%ADD41C,0.0630*%
%ADD42C,0.0630*%
%ADD43C,0.0532*%
%ADD44C,0.0591*%
%ADD45C,0.0472*%

%LPD*%
G36*
X899599Y-767380D02*
G01*
X897920Y-767240D01*
X896460Y-766420D01*
X895460Y-765060D01*
X895100Y-763420D01*
X895100Y-690200D01*
X894800Y-687060D01*
X893940Y-684220D01*
X892540Y-681620D01*
X890540Y-679180D01*
X829180Y-617820D01*
X828319Y-616540D01*
X828020Y-615000D01*
X828319Y-613460D01*
X829180Y-612180D01*
X830480Y-611300D01*
X832020Y-611000D01*
X842980Y-611000D01*
X844520Y-611300D01*
X845819Y-612180D01*
X883379Y-649740D01*
X885819Y-651740D01*
X888420Y-653139D01*
X891260Y-654000D01*
X894400Y-654300D01*
X922080Y-654300D01*
X923620Y-654599D01*
X924920Y-655480D01*
X933720Y-664280D01*
X934599Y-665580D01*
X934900Y-667120D01*
X934900Y-761120D01*
X934599Y-762640D01*
X933720Y-763940D01*
X932440Y-764800D01*
X930900Y-765120D01*
X929360Y-764800D01*
X925660Y-763280D01*
X921380Y-762240D01*
X917000Y-761900D01*
X912600Y-762240D01*
X908319Y-763280D01*
X904240Y-764960D01*
X901200Y-766840D01*
G37*

%LPD*%
G36*
X1724100Y-1250960D02*
G01*
X1722500Y-1250680D01*
X1721160Y-1249800D01*
X1146280Y-674920D01*
X1145400Y-673620D01*
X1145100Y-672080D01*
X1145100Y-656120D01*
X1145400Y-654580D01*
X1146280Y-653280D01*
X1147560Y-652420D01*
X1149100Y-652120D01*
X1150640Y-652420D01*
X1151920Y-653280D01*
X1725340Y-1226700D01*
X1726140Y-1227840D01*
X1726500Y-1229180D01*
X1727960Y-1246640D01*
X1727780Y-1248240D01*
X1726960Y-1249640D01*
X1725660Y-1250600D01*
G37*

%LPD*%
G36*
X1724100Y-1350960D02*
G01*
X1722500Y-1350680D01*
X1721160Y-1349800D01*
X1106280Y-734920D01*
X1105400Y-733620D01*
X1105100Y-732080D01*
X1105100Y-716120D01*
X1105400Y-714580D01*
X1106280Y-713280D01*
X1107560Y-712420D01*
X1109100Y-712120D01*
X1110640Y-712420D01*
X1111920Y-713280D01*
X1725340Y-1326699D01*
X1726140Y-1327840D01*
X1726500Y-1329180D01*
X1727960Y-1346639D01*
X1727780Y-1348240D01*
X1726960Y-1349640D01*
X1725660Y-1350600D01*
G37*

%LPD*%
G36*
X1724100Y-1450960D02*
G01*
X1722500Y-1450680D01*
X1721160Y-1449800D01*
X1066280Y-794920D01*
X1065400Y-793620D01*
X1065100Y-792080D01*
X1065100Y-776120D01*
X1065400Y-774580D01*
X1066280Y-773280D01*
X1067560Y-772420D01*
X1069100Y-772120D01*
X1070640Y-772420D01*
X1071920Y-773280D01*
X1725340Y-1426699D01*
X1726140Y-1427840D01*
X1726500Y-1429180D01*
X1727960Y-1446639D01*
X1727780Y-1448240D01*
X1726960Y-1449640D01*
X1725660Y-1450600D01*
G37*

%LPD*%
G36*
X1724100Y-1550960D02*
G01*
X1722500Y-1550680D01*
X1721160Y-1549800D01*
X1356279Y-1184920D01*
X1355400Y-1183620D01*
X1355100Y-1182080D01*
X1355100Y-1166120D01*
X1355400Y-1164580D01*
X1356279Y-1163280D01*
X1357560Y-1162420D01*
X1359100Y-1162120D01*
X1360640Y-1162420D01*
X1361920Y-1163280D01*
X1725340Y-1526699D01*
X1726140Y-1527840D01*
X1726500Y-1529180D01*
X1727960Y-1546639D01*
X1727780Y-1548240D01*
X1726960Y-1549640D01*
X1725660Y-1550600D01*
G37*

%LPD*%
G36*
X1724100Y-1650960D02*
G01*
X1722500Y-1650680D01*
X1721160Y-1649800D01*
X1316279Y-1244920D01*
X1315400Y-1243620D01*
X1315100Y-1242080D01*
X1315100Y-1226120D01*
X1315400Y-1224580D01*
X1316279Y-1223280D01*
X1317560Y-1222420D01*
X1319100Y-1222120D01*
X1320640Y-1222420D01*
X1321920Y-1223280D01*
X1725340Y-1626699D01*
X1726140Y-1627840D01*
X1726500Y-1629180D01*
X1727960Y-1646639D01*
X1727780Y-1648240D01*
X1726960Y-1649640D01*
X1725660Y-1650600D01*
G37*

%LPD*%
G36*
X1724100Y-1750960D02*
G01*
X1722500Y-1750680D01*
X1721160Y-1749800D01*
X1276280Y-1304920D01*
X1275400Y-1303620D01*
X1275100Y-1302080D01*
X1275100Y-1286120D01*
X1275400Y-1284580D01*
X1276280Y-1283280D01*
X1277560Y-1282420D01*
X1279100Y-1282120D01*
X1280640Y-1282420D01*
X1281920Y-1283280D01*
X1725340Y-1726699D01*
X1726140Y-1727840D01*
X1726500Y-1729180D01*
X1727960Y-1746639D01*
X1727780Y-1748240D01*
X1726960Y-1749640D01*
X1725660Y-1750600D01*
G37*

%LPD*%
G36*
X281180Y-2115900D02*
G01*
X266720Y-2115520D01*
X252580Y-2114400D01*
X238520Y-2112540D01*
X224579Y-2109940D01*
X210780Y-2106640D01*
X197180Y-2102600D01*
X183820Y-2097860D01*
X170720Y-2092420D01*
X157920Y-2086320D01*
X145460Y-2079540D01*
X133360Y-2072120D01*
X121679Y-2064100D01*
X110440Y-2055460D01*
X99660Y-2046240D01*
X89380Y-2036480D01*
X79620Y-2026180D01*
X70400Y-2015400D01*
X61780Y-2004139D01*
X53740Y-1992440D01*
X46340Y-1980360D01*
X39580Y-1967880D01*
X33480Y-1955080D01*
X28060Y-1941980D01*
X23320Y-1928600D01*
X19300Y-1915000D01*
X16000Y-1901220D01*
X13420Y-1887260D01*
X11580Y-1873200D01*
X10460Y-1859060D01*
X10100Y-1844820D01*
X10100Y-1642660D01*
X10440Y-1639700D01*
X11080Y-1637880D01*
X12060Y-1636220D01*
X13340Y-1634780D01*
X14860Y-1633620D01*
X16600Y-1632780D01*
X18460Y-1632300D01*
X20660Y-1632100D01*
X38900Y-1632100D01*
X43740Y-1631680D01*
X45960Y-1631220D01*
X49440Y-1630180D01*
X51540Y-1629300D01*
X54740Y-1627600D01*
X56620Y-1626339D01*
X59420Y-1624040D01*
X61040Y-1622420D01*
X63339Y-1619620D01*
X64600Y-1617740D01*
X66300Y-1614540D01*
X67180Y-1612440D01*
X68240Y-1608959D01*
X68680Y-1606720D01*
X69100Y-1601900D01*
X69100Y-1169100D01*
X68680Y-1164260D01*
X68240Y-1162020D01*
X67180Y-1158560D01*
X66300Y-1156460D01*
X64600Y-1153260D01*
X63339Y-1151360D01*
X61040Y-1148560D01*
X59420Y-1146960D01*
X56620Y-1144660D01*
X54740Y-1143380D01*
X51540Y-1141680D01*
X49440Y-1140820D01*
X45960Y-1139760D01*
X43740Y-1139320D01*
X40039Y-1138940D01*
X20240Y-1138900D01*
X17900Y-1139180D01*
X16460Y-1139080D01*
X15140Y-1138480D01*
X13580Y-1137400D01*
X12060Y-1135780D01*
X11080Y-1134120D01*
X10440Y-1132300D01*
X10100Y-1129320D01*
X10100Y-281180D01*
X10480Y-266720D01*
X11600Y-252580D01*
X13460Y-238520D01*
X16040Y-224560D01*
X19360Y-210780D01*
X23400Y-197180D01*
X28140Y-183820D01*
X33560Y-170720D01*
X39680Y-157920D01*
X44960Y-148180D01*
X45860Y-147080D01*
X47080Y-146340D01*
X48480Y-146100D01*
X290940Y-146100D01*
X293400Y-145820D01*
X295540Y-145060D01*
X296040Y-144760D01*
X297680Y-144180D01*
X299400Y-144340D01*
X302720Y-145420D01*
X306260Y-145900D01*
X309840Y-145740D01*
X313320Y-144940D01*
X316600Y-143540D01*
X319800Y-141440D01*
X321340Y-140820D01*
X323000Y-140900D01*
X324480Y-141640D01*
X325720Y-142620D01*
X328860Y-144320D01*
X332260Y-145420D01*
X335800Y-145900D01*
X339360Y-145740D01*
X342840Y-144940D01*
X346140Y-143540D01*
X349320Y-141440D01*
X350860Y-140820D01*
X352540Y-140900D01*
X354020Y-141640D01*
X355240Y-142620D01*
X358380Y-144320D01*
X361780Y-145420D01*
X365319Y-145900D01*
X368900Y-145740D01*
X372380Y-144940D01*
X375660Y-143540D01*
X378860Y-141440D01*
X380400Y-140820D01*
X382060Y-140900D01*
X383540Y-141640D01*
X384780Y-142620D01*
X387920Y-144320D01*
X391320Y-145420D01*
X393800Y-145760D01*
X395460Y-146380D01*
X396680Y-147640D01*
X397239Y-149300D01*
X397040Y-151060D01*
X396100Y-152540D01*
X273300Y-275340D01*
X272160Y-276140D01*
X270800Y-276500D01*
X247399Y-278460D01*
X244560Y-278760D01*
X239220Y-279820D01*
X234080Y-281560D01*
X229200Y-283980D01*
X224680Y-287000D01*
X220580Y-290580D01*
X217000Y-294680D01*
X213980Y-299200D01*
X211560Y-304080D01*
X209820Y-309220D01*
X208760Y-314560D01*
X208400Y-320000D01*
X208760Y-325420D01*
X209820Y-330760D01*
X211560Y-335900D01*
X213980Y-340780D01*
X217000Y-345319D01*
X219579Y-348260D01*
X220340Y-349560D01*
X220560Y-351060D01*
X220219Y-352540D01*
X219340Y-353780D01*
X218060Y-354600D01*
X216560Y-354900D01*
X207900Y-354900D01*
X206380Y-354580D01*
X205080Y-353720D01*
X194640Y-343280D01*
X193840Y-342140D01*
X193480Y-340800D01*
X191240Y-314620D01*
X190159Y-309220D01*
X188420Y-304080D01*
X186020Y-299200D01*
X182979Y-294680D01*
X179400Y-290580D01*
X175320Y-287000D01*
X170780Y-283980D01*
X165900Y-281560D01*
X160760Y-279820D01*
X155420Y-278760D01*
X150000Y-278400D01*
X144560Y-278760D01*
X139220Y-279820D01*
X134080Y-281560D01*
X129200Y-283980D01*
X124680Y-287000D01*
X120580Y-290580D01*
X117000Y-294680D01*
X113980Y-299200D01*
X111560Y-304080D01*
X109820Y-309220D01*
X108760Y-314560D01*
X108400Y-320000D01*
X108760Y-325420D01*
X109820Y-330760D01*
X111560Y-335900D01*
X113980Y-340780D01*
X117000Y-345319D01*
X120580Y-349400D01*
X124680Y-352980D01*
X129200Y-356019D01*
X134080Y-358420D01*
X139220Y-360160D01*
X144560Y-361220D01*
X147420Y-361520D01*
X170780Y-363480D01*
X172140Y-363840D01*
X173280Y-364640D01*
X189180Y-380540D01*
X191620Y-382540D01*
X194220Y-383920D01*
X197040Y-384780D01*
X200180Y-385100D01*
X216560Y-385100D01*
X218060Y-385379D01*
X219340Y-386200D01*
X220219Y-387440D01*
X220560Y-388920D01*
X220340Y-390420D01*
X219579Y-391719D01*
X217000Y-394680D01*
X213980Y-399200D01*
X211560Y-404080D01*
X209820Y-409219D01*
X208760Y-414560D01*
X208400Y-420000D01*
X208760Y-425420D01*
X209820Y-430760D01*
X211560Y-435900D01*
X213980Y-440780D01*
X217000Y-445319D01*
X220580Y-449400D01*
X224680Y-452980D01*
X229200Y-456019D01*
X234080Y-458420D01*
X239220Y-460160D01*
X244560Y-461220D01*
X250000Y-461580D01*
X255420Y-461220D01*
X260760Y-460160D01*
X265900Y-458420D01*
X270780Y-456019D01*
X275320Y-452980D01*
X279400Y-449400D01*
X282980Y-445319D01*
X286020Y-440780D01*
X288420Y-435900D01*
X290160Y-430760D01*
X291220Y-425420D01*
X291580Y-420000D01*
X291220Y-414560D01*
X290160Y-409219D01*
X288420Y-404080D01*
X286020Y-399200D01*
X282980Y-394680D01*
X280400Y-391719D01*
X279640Y-390420D01*
X279420Y-388920D01*
X279780Y-387440D01*
X280640Y-386200D01*
X281920Y-385379D01*
X283420Y-385100D01*
X316560Y-385100D01*
X318060Y-385379D01*
X319340Y-386200D01*
X320220Y-387440D01*
X320560Y-388920D01*
X320340Y-390420D01*
X319580Y-391719D01*
X317000Y-394680D01*
X313980Y-399200D01*
X311560Y-404080D01*
X309820Y-409219D01*
X308760Y-414560D01*
X308400Y-420000D01*
X308760Y-425420D01*
X309820Y-430760D01*
X311560Y-435900D01*
X313980Y-440780D01*
X317000Y-445319D01*
X320580Y-449400D01*
X324680Y-452980D01*
X329200Y-456019D01*
X334080Y-458420D01*
X339219Y-460160D01*
X344560Y-461220D01*
X350000Y-461580D01*
X355420Y-461220D01*
X360760Y-460160D01*
X365900Y-458420D01*
X370780Y-456019D01*
X375319Y-452980D01*
X379400Y-449400D01*
X382980Y-445319D01*
X385160Y-442060D01*
X386380Y-440880D01*
X387980Y-440300D01*
X389660Y-440439D01*
X391140Y-441260D01*
X392140Y-442620D01*
X392500Y-444280D01*
X392480Y-1141060D01*
X392100Y-1142780D01*
X389920Y-1147360D01*
X388459Y-1149540D01*
X386820Y-1153020D01*
X385840Y-1156740D01*
X385500Y-1160580D01*
X385840Y-1164420D01*
X386820Y-1168140D01*
X388459Y-1171620D01*
X390660Y-1174780D01*
X393380Y-1177500D01*
X396540Y-1179700D01*
X400020Y-1181340D01*
X403740Y-1182320D01*
X407580Y-1182660D01*
X411420Y-1182320D01*
X415140Y-1181340D01*
X418620Y-1179700D01*
X421780Y-1177500D01*
X424500Y-1174780D01*
X426700Y-1171620D01*
X428340Y-1168140D01*
X429320Y-1164420D01*
X429660Y-1160580D01*
X429320Y-1156740D01*
X428340Y-1153020D01*
X426700Y-1149540D01*
X425260Y-1147380D01*
X423080Y-1142780D01*
X422680Y-1141060D01*
X422700Y-450300D01*
X423000Y-448780D01*
X423860Y-447480D01*
X516860Y-354480D01*
X518360Y-353540D01*
X522780Y-351960D01*
X527540Y-350740D01*
X531040Y-349120D01*
X534180Y-346900D01*
X536900Y-344180D01*
X539120Y-341040D01*
X540740Y-337540D01*
X541740Y-333820D01*
X542080Y-330000D01*
X541740Y-326160D01*
X540740Y-322440D01*
X539120Y-318940D01*
X536900Y-315800D01*
X534180Y-313080D01*
X531040Y-310860D01*
X527540Y-309240D01*
X523820Y-308240D01*
X520000Y-307900D01*
X516160Y-308240D01*
X512440Y-309240D01*
X508940Y-310860D01*
X505800Y-313080D01*
X503080Y-315800D01*
X500860Y-318940D01*
X499240Y-322440D01*
X498020Y-327200D01*
X496440Y-331640D01*
X495500Y-333120D01*
X458660Y-369960D01*
X457420Y-370800D01*
X455959Y-371140D01*
X454480Y-370900D01*
X453180Y-370120D01*
X452260Y-368920D01*
X451860Y-367480D01*
X451740Y-366160D01*
X450740Y-362440D01*
X449120Y-358940D01*
X446900Y-355800D01*
X444180Y-353080D01*
X441040Y-350860D01*
X437540Y-349240D01*
X433820Y-348240D01*
X430000Y-347900D01*
X426160Y-348240D01*
X422440Y-349240D01*
X418940Y-350860D01*
X416780Y-352320D01*
X412180Y-354500D01*
X410460Y-354900D01*
X383420Y-354900D01*
X381920Y-354600D01*
X380640Y-353780D01*
X379780Y-352540D01*
X379420Y-351060D01*
X379640Y-349560D01*
X380400Y-348260D01*
X382980Y-345319D01*
X386019Y-340780D01*
X388420Y-335900D01*
X390160Y-330760D01*
X391220Y-325420D01*
X391580Y-320000D01*
X391220Y-314560D01*
X390160Y-309220D01*
X388420Y-304080D01*
X386019Y-299200D01*
X382980Y-294680D01*
X379400Y-290580D01*
X375319Y-287000D01*
X370780Y-283980D01*
X365900Y-281560D01*
X360760Y-279820D01*
X355420Y-278760D01*
X350000Y-278400D01*
X344560Y-278760D01*
X339219Y-279820D01*
X334080Y-281560D01*
X329200Y-283980D01*
X324680Y-287000D01*
X320580Y-290580D01*
X317000Y-294680D01*
X313980Y-299200D01*
X311560Y-304080D01*
X309820Y-309220D01*
X308760Y-314560D01*
X308400Y-320000D01*
X308760Y-325420D01*
X309820Y-330760D01*
X311560Y-335900D01*
X313980Y-340780D01*
X317000Y-345319D01*
X319580Y-348260D01*
X320340Y-349560D01*
X320560Y-351060D01*
X320220Y-352540D01*
X319340Y-353780D01*
X318060Y-354600D01*
X316560Y-354900D01*
X283420Y-354900D01*
X281920Y-354600D01*
X280640Y-353780D01*
X279780Y-352540D01*
X279420Y-351060D01*
X279640Y-349560D01*
X280400Y-348260D01*
X282980Y-345319D01*
X286020Y-340780D01*
X288420Y-335900D01*
X290160Y-330760D01*
X291240Y-325360D01*
X293480Y-299200D01*
X293840Y-297860D01*
X294640Y-296720D01*
X415080Y-176280D01*
X416380Y-175400D01*
X417920Y-175100D01*
X939440Y-175100D01*
X940860Y-175360D01*
X942099Y-176119D01*
X943000Y-177280D01*
X943400Y-178680D01*
X942900Y-184180D01*
X943240Y-188000D01*
X944240Y-191720D01*
X945860Y-195219D01*
X948080Y-198359D01*
X950800Y-201080D01*
X953940Y-203299D01*
X957440Y-204920D01*
X958199Y-205120D01*
X959740Y-205920D01*
X960780Y-207300D01*
X961160Y-209000D01*
X960780Y-210680D01*
X959740Y-212060D01*
X958199Y-212860D01*
X957440Y-213060D01*
X953940Y-214680D01*
X950800Y-216900D01*
X948080Y-219620D01*
X945860Y-222760D01*
X944240Y-226260D01*
X943240Y-229980D01*
X942900Y-233820D01*
X943240Y-237640D01*
X944240Y-241360D01*
X945860Y-244860D01*
X948080Y-248000D01*
X950800Y-250720D01*
X953940Y-252940D01*
X957440Y-254560D01*
X959539Y-255120D01*
X961080Y-255920D01*
X962120Y-257300D01*
X962500Y-259000D01*
X962120Y-260680D01*
X961080Y-262060D01*
X959539Y-262860D01*
X957440Y-263420D01*
X953940Y-265040D01*
X950800Y-267260D01*
X948080Y-269980D01*
X945860Y-273120D01*
X944240Y-276620D01*
X943240Y-280340D01*
X942900Y-284180D01*
X943240Y-288000D01*
X944240Y-291720D01*
X945860Y-295220D01*
X948080Y-298360D01*
X950800Y-301080D01*
X953940Y-303300D01*
X957440Y-304920D01*
X958860Y-305300D01*
X960400Y-306100D01*
X961460Y-307480D01*
X961840Y-309180D01*
X961460Y-310860D01*
X960400Y-312240D01*
X958860Y-313040D01*
X957440Y-313420D01*
X953940Y-315040D01*
X950800Y-317260D01*
X948080Y-319980D01*
X945860Y-323120D01*
X944240Y-326620D01*
X943240Y-330340D01*
X942900Y-334180D01*
X943240Y-338000D01*
X944240Y-341719D01*
X945860Y-345220D01*
X948080Y-348360D01*
X950800Y-351079D01*
X953940Y-353300D01*
X957440Y-354920D01*
X958860Y-355300D01*
X960400Y-356100D01*
X961460Y-357480D01*
X961840Y-359180D01*
X961460Y-360860D01*
X960400Y-362239D01*
X958860Y-363040D01*
X957440Y-363420D01*
X953940Y-365040D01*
X950800Y-367260D01*
X948080Y-369980D01*
X945860Y-373120D01*
X944240Y-376620D01*
X943240Y-380340D01*
X942900Y-384180D01*
X943240Y-388000D01*
X944240Y-391719D01*
X945860Y-395220D01*
X948080Y-398360D01*
X950800Y-401079D01*
X953940Y-403300D01*
X957440Y-404920D01*
X958860Y-405300D01*
X960400Y-406100D01*
X961460Y-407480D01*
X961840Y-409180D01*
X961460Y-410860D01*
X960400Y-412239D01*
X958860Y-413040D01*
X957440Y-413420D01*
X953940Y-415040D01*
X950800Y-417260D01*
X948080Y-419980D01*
X945860Y-423120D01*
X944240Y-426620D01*
X943240Y-430340D01*
X942900Y-434180D01*
X943240Y-438000D01*
X944240Y-441719D01*
X945860Y-445220D01*
X948080Y-448360D01*
X950800Y-451079D01*
X953940Y-453300D01*
X957500Y-454960D01*
X958720Y-455840D01*
X959539Y-457100D01*
X959820Y-458579D01*
X959539Y-460060D01*
X958720Y-461320D01*
X957500Y-462200D01*
X953940Y-463860D01*
X950800Y-466079D01*
X948080Y-468800D01*
X945860Y-471940D01*
X944240Y-475439D01*
X943240Y-479159D01*
X942900Y-483000D01*
X943240Y-486820D01*
X944240Y-490540D01*
X945860Y-494040D01*
X948080Y-497180D01*
X950800Y-499900D01*
X953940Y-502120D01*
X957440Y-503740D01*
X958860Y-504120D01*
X960400Y-504920D01*
X961460Y-506300D01*
X961840Y-508000D01*
X961460Y-509680D01*
X960400Y-511060D01*
X958860Y-511860D01*
X957440Y-512239D01*
X953940Y-513860D01*
X950800Y-516079D01*
X948080Y-518800D01*
X945860Y-521940D01*
X944240Y-525440D01*
X943240Y-529160D01*
X942900Y-533000D01*
X943240Y-536820D01*
X944240Y-540540D01*
X945580Y-543420D01*
X945960Y-545000D01*
X945680Y-546600D01*
X944780Y-547940D01*
X943439Y-548840D01*
X941840Y-549120D01*
X940260Y-548740D01*
X939560Y-548420D01*
X935840Y-547420D01*
X932020Y-547080D01*
X928180Y-547420D01*
X924460Y-548420D01*
X920960Y-550040D01*
X917820Y-552260D01*
X914820Y-555220D01*
X913520Y-556100D01*
X912000Y-556400D01*
X910480Y-556080D01*
X909180Y-555220D01*
X906200Y-552260D01*
X903060Y-550040D01*
X899560Y-548420D01*
X895840Y-547420D01*
X892020Y-547080D01*
X888180Y-547420D01*
X884460Y-548420D01*
X880960Y-550040D01*
X877820Y-552260D01*
X875100Y-554980D01*
X872880Y-558120D01*
X871360Y-561400D01*
X870420Y-562660D01*
X869060Y-563480D01*
X867500Y-563700D01*
X865980Y-563300D01*
X864720Y-562340D01*
X861340Y-558420D01*
X858920Y-554980D01*
X856200Y-552260D01*
X853060Y-550040D01*
X849560Y-548420D01*
X845840Y-547420D01*
X842020Y-547080D01*
X838180Y-547420D01*
X834460Y-548420D01*
X830960Y-550040D01*
X827820Y-552260D01*
X825100Y-554980D01*
X822880Y-558120D01*
X821260Y-561620D01*
X820260Y-565340D01*
X819920Y-569300D01*
X819400Y-570940D01*
X818220Y-572220D01*
X816620Y-572880D01*
X814900Y-572800D01*
X813360Y-572000D01*
X812300Y-570640D01*
X811140Y-568120D01*
X808920Y-564980D01*
X806200Y-562260D01*
X803060Y-560040D01*
X799560Y-558420D01*
X795840Y-557420D01*
X792020Y-557080D01*
X788180Y-557420D01*
X784460Y-558420D01*
X780960Y-560040D01*
X777820Y-562260D01*
X775100Y-564980D01*
X772880Y-568120D01*
X771260Y-571620D01*
X770879Y-573040D01*
X770080Y-574580D01*
X768700Y-575640D01*
X767020Y-576020D01*
X765320Y-575640D01*
X763940Y-574580D01*
X763139Y-573040D01*
X762760Y-571620D01*
X761140Y-568120D01*
X758920Y-564980D01*
X756200Y-562260D01*
X753060Y-560040D01*
X749560Y-558420D01*
X745840Y-557420D01*
X742020Y-557080D01*
X738180Y-557420D01*
X734460Y-558420D01*
X730960Y-560040D01*
X727820Y-562260D01*
X725100Y-564980D01*
X724280Y-566140D01*
X723180Y-567200D01*
X721760Y-567780D01*
X720240Y-567780D01*
X718820Y-567200D01*
X717720Y-566140D01*
X716900Y-564980D01*
X714180Y-562260D01*
X711040Y-560040D01*
X707540Y-558420D01*
X703820Y-557420D01*
X700000Y-557080D01*
X696160Y-557420D01*
X692440Y-558420D01*
X688940Y-560040D01*
X685800Y-562260D01*
X683080Y-564980D01*
X680860Y-568120D01*
X679240Y-571620D01*
X678240Y-575340D01*
X677900Y-579180D01*
X678240Y-583000D01*
X679240Y-586720D01*
X680860Y-590220D01*
X682320Y-592380D01*
X684520Y-596980D01*
X684900Y-598700D01*
X684900Y-644800D01*
X685200Y-647940D01*
X686060Y-650780D01*
X687460Y-653379D01*
X689460Y-655819D01*
X778720Y-745080D01*
X779599Y-746380D01*
X779900Y-747920D01*
X779900Y-1097080D01*
X779599Y-1098620D01*
X778720Y-1099920D01*
X771360Y-1107280D01*
X770240Y-1108080D01*
X768900Y-1108440D01*
X744780Y-1110720D01*
X739520Y-1111780D01*
X734520Y-1113520D01*
X729800Y-1115900D01*
X725440Y-1118900D01*
X721520Y-1122440D01*
X718100Y-1126500D01*
X715240Y-1130960D01*
X713020Y-1135760D01*
X711460Y-1140800D01*
X710580Y-1146020D01*
X710400Y-1151320D01*
X710920Y-1156580D01*
X712159Y-1161740D01*
X714060Y-1166660D01*
X716600Y-1171320D01*
X719740Y-1175580D01*
X723420Y-1179380D01*
X727580Y-1182660D01*
X732120Y-1185360D01*
X737000Y-1187420D01*
X742099Y-1188820D01*
X747340Y-1189520D01*
X752640Y-1189520D01*
X757880Y-1188820D01*
X762980Y-1187420D01*
X767860Y-1185360D01*
X772420Y-1182660D01*
X776560Y-1179380D01*
X780240Y-1175580D01*
X783379Y-1171320D01*
X785920Y-1166660D01*
X787840Y-1161740D01*
X789060Y-1156580D01*
X789539Y-1152540D01*
X791540Y-1131120D01*
X791900Y-1129800D01*
X792680Y-1128660D01*
X805540Y-1115820D01*
X807540Y-1113380D01*
X808940Y-1110780D01*
X809800Y-1107940D01*
X810100Y-1104800D01*
X810100Y-740200D01*
X809800Y-737060D01*
X808940Y-734220D01*
X807540Y-731620D01*
X805540Y-729180D01*
X773500Y-697159D01*
X772660Y-695879D01*
X772340Y-694400D01*
X772600Y-692880D01*
X773400Y-691600D01*
X774640Y-690699D01*
X778040Y-689120D01*
X781180Y-686900D01*
X783900Y-684180D01*
X786120Y-681040D01*
X787740Y-677540D01*
X788120Y-676120D01*
X788920Y-674580D01*
X790300Y-673520D01*
X792000Y-673139D01*
X793680Y-673520D01*
X795060Y-674580D01*
X795860Y-676120D01*
X796240Y-677540D01*
X797860Y-681040D01*
X800080Y-684180D01*
X802800Y-686900D01*
X805939Y-689120D01*
X809440Y-690740D01*
X813160Y-691740D01*
X817000Y-692080D01*
X820819Y-691740D01*
X824539Y-690740D01*
X828040Y-689120D01*
X831180Y-686900D01*
X833900Y-684180D01*
X836120Y-681040D01*
X837740Y-677540D01*
X838500Y-676080D01*
X839800Y-675040D01*
X841400Y-674620D01*
X843040Y-674880D01*
X844419Y-675780D01*
X863720Y-695080D01*
X864599Y-696380D01*
X864900Y-697920D01*
X864900Y-809800D01*
X865200Y-812940D01*
X866060Y-815780D01*
X867460Y-818379D01*
X869460Y-820819D01*
X1199980Y-1151340D01*
X1200900Y-1152760D01*
X1201160Y-1154420D01*
X1200700Y-1156040D01*
X1199620Y-1157340D01*
X1198100Y-1158060D01*
X1196420Y-1158100D01*
X1194860Y-1157440D01*
X1194040Y-1156860D01*
X1190540Y-1155240D01*
X1186820Y-1154240D01*
X1183000Y-1153900D01*
X1178620Y-1154320D01*
X1177020Y-1154140D01*
X1175600Y-1153340D01*
X1174620Y-1152040D01*
X1174120Y-1150940D01*
X1171900Y-1147800D01*
X1169180Y-1145080D01*
X1166040Y-1142860D01*
X1162540Y-1141240D01*
X1158820Y-1140240D01*
X1155000Y-1139900D01*
X1151160Y-1140240D01*
X1147440Y-1141240D01*
X1143940Y-1142860D01*
X1140800Y-1145080D01*
X1138080Y-1147800D01*
X1135860Y-1150940D01*
X1135360Y-1152040D01*
X1134380Y-1153340D01*
X1132980Y-1154140D01*
X1131360Y-1154320D01*
X1126980Y-1153900D01*
X1123160Y-1154240D01*
X1119440Y-1155240D01*
X1115940Y-1156860D01*
X1112800Y-1159080D01*
X1110080Y-1161800D01*
X1107860Y-1164940D01*
X1106240Y-1168440D01*
X1105240Y-1172160D01*
X1104900Y-1176000D01*
X1105240Y-1179820D01*
X1106240Y-1183540D01*
X1107860Y-1187040D01*
X1108340Y-1187700D01*
X1108980Y-1189180D01*
X1108980Y-1190800D01*
X1108340Y-1192280D01*
X1107860Y-1192940D01*
X1106240Y-1196440D01*
X1105240Y-1200160D01*
X1104900Y-1204000D01*
X1105240Y-1207820D01*
X1106240Y-1211540D01*
X1107860Y-1215040D01*
X1110080Y-1218180D01*
X1112800Y-1220900D01*
X1115940Y-1223120D01*
X1119440Y-1224740D01*
X1123160Y-1225740D01*
X1126980Y-1226080D01*
X1131360Y-1225660D01*
X1132980Y-1225840D01*
X1134380Y-1226640D01*
X1135360Y-1227940D01*
X1135860Y-1229040D01*
X1138080Y-1232180D01*
X1140800Y-1234900D01*
X1143940Y-1237120D01*
X1147440Y-1238740D01*
X1151160Y-1239740D01*
X1155000Y-1240080D01*
X1158820Y-1239740D01*
X1162540Y-1238740D01*
X1166040Y-1237120D01*
X1169180Y-1234900D01*
X1171900Y-1232180D01*
X1174120Y-1229040D01*
X1174620Y-1227940D01*
X1175600Y-1226640D01*
X1177020Y-1225840D01*
X1178620Y-1225660D01*
X1183000Y-1226080D01*
X1186820Y-1225740D01*
X1190540Y-1224740D01*
X1194040Y-1223120D01*
X1197180Y-1220900D01*
X1199900Y-1218180D01*
X1202120Y-1215040D01*
X1203740Y-1211540D01*
X1204740Y-1207820D01*
X1205080Y-1204000D01*
X1204740Y-1200160D01*
X1203740Y-1196440D01*
X1202120Y-1192940D01*
X1201660Y-1192280D01*
X1201020Y-1190800D01*
X1201020Y-1189180D01*
X1201660Y-1187700D01*
X1202120Y-1187040D01*
X1203740Y-1183540D01*
X1204740Y-1179820D01*
X1205080Y-1176000D01*
X1204740Y-1172160D01*
X1203740Y-1168440D01*
X1202120Y-1164940D01*
X1201540Y-1164120D01*
X1200880Y-1162560D01*
X1200920Y-1160880D01*
X1201660Y-1159360D01*
X1202940Y-1158280D01*
X1204560Y-1157840D01*
X1206220Y-1158080D01*
X1207640Y-1159000D01*
X1243720Y-1195080D01*
X1244600Y-1196380D01*
X1244900Y-1197920D01*
X1244900Y-1309800D01*
X1245200Y-1312940D01*
X1246060Y-1315780D01*
X1247460Y-1318380D01*
X1249460Y-1320820D01*
X1739180Y-1810540D01*
X1742800Y-1813520D01*
X1743520Y-1814860D01*
X1743680Y-1816380D01*
X1743260Y-1817840D01*
X1742320Y-1819060D01*
X1740580Y-1820580D01*
X1737000Y-1824680D01*
X1733980Y-1829199D01*
X1731560Y-1834079D01*
X1729820Y-1839220D01*
X1728760Y-1844560D01*
X1728400Y-1850000D01*
X1728760Y-1855420D01*
X1729820Y-1860760D01*
X1731560Y-1865900D01*
X1733980Y-1870780D01*
X1737000Y-1875320D01*
X1740580Y-1879400D01*
X1744680Y-1882980D01*
X1749199Y-1886020D01*
X1754079Y-1888420D01*
X1759220Y-1890160D01*
X1764560Y-1891220D01*
X1770000Y-1891579D01*
X1775420Y-1891220D01*
X1780760Y-1890160D01*
X1785900Y-1888420D01*
X1790780Y-1886020D01*
X1795320Y-1882980D01*
X1799400Y-1879400D01*
X1802980Y-1875320D01*
X1806020Y-1870780D01*
X1808420Y-1865900D01*
X1810160Y-1860760D01*
X1811220Y-1855420D01*
X1811579Y-1850000D01*
X1811220Y-1844560D01*
X1810160Y-1839220D01*
X1808420Y-1834079D01*
X1806020Y-1829199D01*
X1802980Y-1824680D01*
X1800420Y-1821740D01*
X1799640Y-1820420D01*
X1799420Y-1818920D01*
X1799780Y-1817440D01*
X1800660Y-1816220D01*
X1801940Y-1815380D01*
X1803420Y-1815100D01*
X1812080Y-1815100D01*
X1813620Y-1815400D01*
X1814920Y-1816279D01*
X1825340Y-1826699D01*
X1826140Y-1827840D01*
X1826500Y-1829180D01*
X1828460Y-1852580D01*
X1828760Y-1855420D01*
X1829820Y-1860760D01*
X1831560Y-1865900D01*
X1833980Y-1870780D01*
X1837000Y-1875320D01*
X1840580Y-1879400D01*
X1844680Y-1882980D01*
X1849199Y-1886020D01*
X1854079Y-1888420D01*
X1859220Y-1890160D01*
X1864560Y-1891220D01*
X1870000Y-1891579D01*
X1875420Y-1891220D01*
X1880760Y-1890160D01*
X1885900Y-1888420D01*
X1890780Y-1886020D01*
X1895320Y-1882980D01*
X1899400Y-1879400D01*
X1902980Y-1875320D01*
X1906020Y-1870780D01*
X1908420Y-1865900D01*
X1910160Y-1860760D01*
X1911220Y-1855420D01*
X1911579Y-1850000D01*
X1911220Y-1844560D01*
X1910160Y-1839220D01*
X1908420Y-1834079D01*
X1906020Y-1829199D01*
X1902980Y-1824680D01*
X1899400Y-1820580D01*
X1895320Y-1817000D01*
X1890780Y-1813980D01*
X1885900Y-1811560D01*
X1880760Y-1809820D01*
X1875420Y-1808760D01*
X1872560Y-1808460D01*
X1849180Y-1806500D01*
X1847840Y-1806140D01*
X1846699Y-1805340D01*
X1830820Y-1789460D01*
X1828380Y-1787460D01*
X1825780Y-1786060D01*
X1822940Y-1785200D01*
X1819800Y-1784900D01*
X1803400Y-1784900D01*
X1801920Y-1784620D01*
X1800640Y-1783779D01*
X1799760Y-1782560D01*
X1799420Y-1781080D01*
X1799640Y-1779580D01*
X1800400Y-1778260D01*
X1802980Y-1775320D01*
X1806020Y-1770780D01*
X1808420Y-1765900D01*
X1810160Y-1760760D01*
X1811220Y-1755420D01*
X1811579Y-1750000D01*
X1811220Y-1744560D01*
X1810160Y-1739220D01*
X1808420Y-1734079D01*
X1806020Y-1729199D01*
X1802980Y-1724680D01*
X1800420Y-1721740D01*
X1799640Y-1720420D01*
X1799420Y-1718920D01*
X1799780Y-1717440D01*
X1800660Y-1716220D01*
X1801940Y-1715380D01*
X1803420Y-1715100D01*
X1812080Y-1715100D01*
X1813620Y-1715400D01*
X1814920Y-1716279D01*
X1825340Y-1726699D01*
X1826140Y-1727840D01*
X1826500Y-1729180D01*
X1828460Y-1752580D01*
X1828760Y-1755420D01*
X1829820Y-1760760D01*
X1831560Y-1765900D01*
X1833980Y-1770780D01*
X1837000Y-1775320D01*
X1840580Y-1779400D01*
X1844680Y-1782980D01*
X1849199Y-1786020D01*
X1854079Y-1788420D01*
X1859220Y-1790160D01*
X1864560Y-1791220D01*
X1870000Y-1791579D01*
X1875420Y-1791220D01*
X1880760Y-1790160D01*
X1885900Y-1788420D01*
X1890780Y-1786020D01*
X1895320Y-1782980D01*
X1899400Y-1779400D01*
X1902980Y-1775320D01*
X1906020Y-1770780D01*
X1908420Y-1765900D01*
X1910160Y-1760760D01*
X1911220Y-1755420D01*
X1911579Y-1750000D01*
X1911220Y-1744560D01*
X1910160Y-1739220D01*
X1908420Y-1734079D01*
X1906020Y-1729199D01*
X1902980Y-1724680D01*
X1899400Y-1720580D01*
X1895320Y-1717000D01*
X1890780Y-1713980D01*
X1885900Y-1711560D01*
X1880760Y-1709820D01*
X1875420Y-1708760D01*
X1872560Y-1708460D01*
X1849180Y-1706500D01*
X1847840Y-1706140D01*
X1846699Y-1705340D01*
X1830820Y-1689460D01*
X1828380Y-1687460D01*
X1825780Y-1686060D01*
X1822940Y-1685200D01*
X1819800Y-1684900D01*
X1803400Y-1684900D01*
X1801920Y-1684620D01*
X1800640Y-1683779D01*
X1799760Y-1682560D01*
X1799420Y-1681080D01*
X1799640Y-1679580D01*
X1800400Y-1678260D01*
X1802980Y-1675320D01*
X1806020Y-1670780D01*
X1808420Y-1665900D01*
X1810160Y-1660760D01*
X1811220Y-1655420D01*
X1811579Y-1650000D01*
X1811220Y-1644560D01*
X1810160Y-1639220D01*
X1808420Y-1634079D01*
X1806020Y-1629199D01*
X1802980Y-1624680D01*
X1800420Y-1621740D01*
X1799640Y-1620420D01*
X1799420Y-1618920D01*
X1799780Y-1617440D01*
X1800660Y-1616220D01*
X1801940Y-1615380D01*
X1803420Y-1615100D01*
X1812080Y-1615100D01*
X1813620Y-1615400D01*
X1814920Y-1616279D01*
X1825340Y-1626699D01*
X1826140Y-1627840D01*
X1826500Y-1629180D01*
X1828460Y-1652580D01*
X1828760Y-1655420D01*
X1829820Y-1660760D01*
X1831560Y-1665900D01*
X1833980Y-1670780D01*
X1837000Y-1675320D01*
X1840580Y-1679400D01*
X1844680Y-1682980D01*
X1849199Y-1686020D01*
X1854079Y-1688420D01*
X1859220Y-1690160D01*
X1864560Y-1691220D01*
X1870000Y-1691579D01*
X1875420Y-1691220D01*
X1880760Y-1690160D01*
X1885900Y-1688420D01*
X1890780Y-1686020D01*
X1895320Y-1682980D01*
X1899400Y-1679400D01*
X1902980Y-1675320D01*
X1906020Y-1670780D01*
X1908420Y-1665900D01*
X1910160Y-1660760D01*
X1911220Y-1655420D01*
X1911579Y-1650000D01*
X1911220Y-1644560D01*
X1910160Y-1639220D01*
X1908420Y-1634079D01*
X1906020Y-1629199D01*
X1902980Y-1624680D01*
X1899400Y-1620580D01*
X1895320Y-1617000D01*
X1890780Y-1613980D01*
X1885900Y-1611560D01*
X1880760Y-1609820D01*
X1875420Y-1608760D01*
X1872560Y-1608460D01*
X1849180Y-1606500D01*
X1847840Y-1606140D01*
X1846699Y-1605340D01*
X1830820Y-1589460D01*
X1828380Y-1587460D01*
X1825780Y-1586060D01*
X1822940Y-1585200D01*
X1819800Y-1584900D01*
X1803400Y-1584900D01*
X1801920Y-1584620D01*
X1800640Y-1583779D01*
X1799760Y-1582560D01*
X1799420Y-1581080D01*
X1799640Y-1579580D01*
X1800400Y-1578260D01*
X1802980Y-1575320D01*
X1806020Y-1570780D01*
X1808420Y-1565900D01*
X1810160Y-1560760D01*
X1811220Y-1555420D01*
X1811579Y-1550000D01*
X1811220Y-1544560D01*
X1810160Y-1539220D01*
X1808420Y-1534079D01*
X1806020Y-1529199D01*
X1802980Y-1524680D01*
X1800420Y-1521740D01*
X1799640Y-1520420D01*
X1799420Y-1518920D01*
X1799780Y-1517440D01*
X1800660Y-1516220D01*
X1801940Y-1515380D01*
X1803420Y-1515100D01*
X1812080Y-1515100D01*
X1813620Y-1515400D01*
X1814920Y-1516279D01*
X1825340Y-1526699D01*
X1826140Y-1527840D01*
X1826500Y-1529180D01*
X1828460Y-1552580D01*
X1828760Y-1555420D01*
X1829820Y-1560760D01*
X1831560Y-1565900D01*
X1833980Y-1570780D01*
X1837000Y-1575320D01*
X1840580Y-1579400D01*
X1844680Y-1582980D01*
X1849199Y-1586020D01*
X1854079Y-1588420D01*
X1859220Y-1590160D01*
X1864560Y-1591220D01*
X1870000Y-1591579D01*
X1875420Y-1591220D01*
X1880760Y-1590160D01*
X1885900Y-1588420D01*
X1890780Y-1586020D01*
X1895320Y-1582980D01*
X1899400Y-1579400D01*
X1902980Y-1575320D01*
X1906020Y-1570780D01*
X1908420Y-1565900D01*
X1910160Y-1560760D01*
X1911220Y-1555420D01*
X1911579Y-1550000D01*
X1911220Y-1544560D01*
X1910160Y-1539220D01*
X1908420Y-1534079D01*
X1906020Y-1529199D01*
X1902980Y-1524680D01*
X1899400Y-1520580D01*
X1895320Y-1517000D01*
X1890780Y-1513980D01*
X1885900Y-1511560D01*
X1880760Y-1509820D01*
X1875420Y-1508760D01*
X1872560Y-1508460D01*
X1849180Y-1506500D01*
X1847840Y-1506140D01*
X1846699Y-1505340D01*
X1830820Y-1489460D01*
X1828380Y-1487460D01*
X1825780Y-1486060D01*
X1822940Y-1485200D01*
X1819800Y-1484900D01*
X1803400Y-1484900D01*
X1801920Y-1484620D01*
X1800640Y-1483779D01*
X1799760Y-1482560D01*
X1799420Y-1481080D01*
X1799640Y-1479580D01*
X1800400Y-1478260D01*
X1802980Y-1475320D01*
X1806020Y-1470780D01*
X1808420Y-1465900D01*
X1810160Y-1460760D01*
X1811220Y-1455420D01*
X1811579Y-1450000D01*
X1811220Y-1444560D01*
X1810160Y-1439220D01*
X1808420Y-1434079D01*
X1806020Y-1429199D01*
X1802980Y-1424680D01*
X1800420Y-1421740D01*
X1799640Y-1420420D01*
X1799420Y-1418920D01*
X1799780Y-1417440D01*
X1800660Y-1416220D01*
X1801940Y-1415380D01*
X1803420Y-1415100D01*
X1812080Y-1415100D01*
X1813620Y-1415400D01*
X1814920Y-1416279D01*
X1825340Y-1426699D01*
X1826140Y-1427840D01*
X1826500Y-1429180D01*
X1828460Y-1452580D01*
X1828760Y-1455420D01*
X1829820Y-1460760D01*
X1831560Y-1465900D01*
X1833980Y-1470780D01*
X1837000Y-1475320D01*
X1840580Y-1479400D01*
X1844680Y-1482980D01*
X1849199Y-1486020D01*
X1854079Y-1488420D01*
X1859220Y-1490160D01*
X1864560Y-1491220D01*
X1870000Y-1491579D01*
X1875420Y-1491220D01*
X1880760Y-1490160D01*
X1885900Y-1488420D01*
X1890780Y-1486020D01*
X1895320Y-1482980D01*
X1899400Y-1479400D01*
X1902980Y-1475320D01*
X1906020Y-1470780D01*
X1908420Y-1465900D01*
X1910160Y-1460760D01*
X1911220Y-1455420D01*
X1911579Y-1450000D01*
X1911220Y-1444560D01*
X1910160Y-1439220D01*
X1908420Y-1434079D01*
X1906020Y-1429199D01*
X1902980Y-1424680D01*
X1899400Y-1420580D01*
X1895320Y-1417000D01*
X1890780Y-1413980D01*
X1885900Y-1411560D01*
X1880760Y-1409820D01*
X1875420Y-1408760D01*
X1872560Y-1408460D01*
X1849180Y-1406500D01*
X1847840Y-1406140D01*
X1846699Y-1405340D01*
X1830820Y-1389460D01*
X1828380Y-1387460D01*
X1825780Y-1386060D01*
X1822940Y-1385200D01*
X1819800Y-1384900D01*
X1803400Y-1384900D01*
X1801920Y-1384620D01*
X1800640Y-1383779D01*
X1799760Y-1382560D01*
X1799420Y-1381080D01*
X1799640Y-1379580D01*
X1800400Y-1378260D01*
X1802980Y-1375320D01*
X1806020Y-1370780D01*
X1808420Y-1365900D01*
X1810160Y-1360760D01*
X1811220Y-1355420D01*
X1811579Y-1350000D01*
X1811220Y-1344560D01*
X1810160Y-1339220D01*
X1808420Y-1334079D01*
X1806020Y-1329199D01*
X1802980Y-1324680D01*
X1800420Y-1321740D01*
X1799640Y-1320420D01*
X1799420Y-1318920D01*
X1799780Y-1317440D01*
X1800660Y-1316220D01*
X1801940Y-1315380D01*
X1803420Y-1315100D01*
X1812080Y-1315100D01*
X1813620Y-1315400D01*
X1814920Y-1316279D01*
X1825340Y-1326699D01*
X1826140Y-1327840D01*
X1826500Y-1329180D01*
X1828460Y-1352580D01*
X1828760Y-1355420D01*
X1829820Y-1360760D01*
X1831560Y-1365900D01*
X1833980Y-1370780D01*
X1837000Y-1375320D01*
X1840580Y-1379400D01*
X1844680Y-1382980D01*
X1849199Y-1386020D01*
X1854079Y-1388420D01*
X1859220Y-1390160D01*
X1864560Y-1391220D01*
X1870000Y-1391579D01*
X1875420Y-1391220D01*
X1880760Y-1390160D01*
X1885900Y-1388420D01*
X1890780Y-1386020D01*
X1895320Y-1382980D01*
X1899400Y-1379400D01*
X1902980Y-1375320D01*
X1906020Y-1370780D01*
X1908420Y-1365900D01*
X1910160Y-1360760D01*
X1911220Y-1355420D01*
X1911579Y-1350000D01*
X1911220Y-1344560D01*
X1910160Y-1339220D01*
X1908420Y-1334079D01*
X1906020Y-1329199D01*
X1902980Y-1324680D01*
X1899400Y-1320580D01*
X1895320Y-1317000D01*
X1890780Y-1313980D01*
X1885900Y-1311560D01*
X1880760Y-1309820D01*
X1875420Y-1308760D01*
X1872560Y-1308460D01*
X1849180Y-1306500D01*
X1847840Y-1306140D01*
X1846699Y-1305340D01*
X1830820Y-1289460D01*
X1828380Y-1287460D01*
X1825780Y-1286060D01*
X1822940Y-1285200D01*
X1819800Y-1284900D01*
X1803400Y-1284900D01*
X1801920Y-1284620D01*
X1800640Y-1283779D01*
X1799760Y-1282560D01*
X1799420Y-1281080D01*
X1799640Y-1279580D01*
X1800400Y-1278260D01*
X1802980Y-1275320D01*
X1806020Y-1270780D01*
X1808420Y-1265900D01*
X1810160Y-1260760D01*
X1811220Y-1255420D01*
X1811579Y-1250000D01*
X1811220Y-1244560D01*
X1810160Y-1239220D01*
X1808420Y-1234080D01*
X1806020Y-1229200D01*
X1802980Y-1224680D01*
X1800420Y-1221740D01*
X1799640Y-1220420D01*
X1799420Y-1218920D01*
X1799780Y-1217440D01*
X1800660Y-1216220D01*
X1801940Y-1215380D01*
X1803420Y-1215100D01*
X1812080Y-1215100D01*
X1813620Y-1215400D01*
X1814920Y-1216280D01*
X1825340Y-1226700D01*
X1826140Y-1227840D01*
X1826500Y-1229180D01*
X1828460Y-1252580D01*
X1828760Y-1255420D01*
X1829820Y-1260760D01*
X1831560Y-1265900D01*
X1833980Y-1270780D01*
X1837000Y-1275320D01*
X1840580Y-1279400D01*
X1844680Y-1282980D01*
X1849199Y-1286020D01*
X1854079Y-1288420D01*
X1859220Y-1290160D01*
X1864560Y-1291220D01*
X1870000Y-1291579D01*
X1875420Y-1291220D01*
X1880760Y-1290160D01*
X1885900Y-1288420D01*
X1890780Y-1286020D01*
X1895320Y-1282980D01*
X1899400Y-1279400D01*
X1902980Y-1275320D01*
X1906020Y-1270780D01*
X1908420Y-1265900D01*
X1910160Y-1260760D01*
X1911220Y-1255420D01*
X1911579Y-1250000D01*
X1911220Y-1244560D01*
X1910160Y-1239220D01*
X1908420Y-1234080D01*
X1906020Y-1229200D01*
X1902980Y-1224680D01*
X1899400Y-1220580D01*
X1895320Y-1217000D01*
X1890780Y-1213980D01*
X1885900Y-1211560D01*
X1880760Y-1209820D01*
X1875420Y-1208760D01*
X1872560Y-1208460D01*
X1849180Y-1206500D01*
X1847840Y-1206140D01*
X1846699Y-1205340D01*
X1830820Y-1189460D01*
X1828380Y-1187460D01*
X1825780Y-1186060D01*
X1822940Y-1185200D01*
X1819800Y-1184900D01*
X1803400Y-1184900D01*
X1801920Y-1184620D01*
X1800640Y-1183780D01*
X1799760Y-1182560D01*
X1799420Y-1181080D01*
X1799640Y-1179580D01*
X1800400Y-1178260D01*
X1802980Y-1175320D01*
X1806020Y-1170780D01*
X1807260Y-1168240D01*
X1788240Y-1168240D01*
X1788240Y-1180900D01*
X1787940Y-1182440D01*
X1787080Y-1183720D01*
X1785780Y-1184600D01*
X1784240Y-1184900D01*
X1762920Y-1184900D01*
X1761380Y-1184600D01*
X1760080Y-1183720D01*
X1752920Y-1176560D01*
X1752040Y-1175260D01*
X1751740Y-1173740D01*
X1751740Y-1168240D01*
X1746260Y-1168240D01*
X1744720Y-1167940D01*
X1743420Y-1167080D01*
X1215020Y-638680D01*
X1214180Y-637420D01*
X1213860Y-635960D01*
X1214100Y-634480D01*
X1214860Y-633180D01*
X1216060Y-632260D01*
X1217500Y-631860D01*
X1218820Y-631740D01*
X1222540Y-630740D01*
X1226040Y-629120D01*
X1228200Y-627660D01*
X1232800Y-625480D01*
X1234520Y-625100D01*
X1254800Y-625100D01*
X1257940Y-624780D01*
X1260760Y-623920D01*
X1263380Y-622520D01*
X1265820Y-620520D01*
X1396860Y-489480D01*
X1398360Y-488540D01*
X1402780Y-486960D01*
X1407540Y-485740D01*
X1411040Y-484120D01*
X1414180Y-481900D01*
X1416900Y-479180D01*
X1419120Y-476040D01*
X1420740Y-472540D01*
X1421740Y-468820D01*
X1422080Y-465000D01*
X1421740Y-461160D01*
X1420740Y-457440D01*
X1419120Y-453940D01*
X1416900Y-450800D01*
X1414180Y-448080D01*
X1411040Y-445860D01*
X1407540Y-444240D01*
X1403820Y-443240D01*
X1400000Y-442900D01*
X1396160Y-443240D01*
X1392440Y-444240D01*
X1388940Y-445860D01*
X1385800Y-448080D01*
X1383080Y-450800D01*
X1380860Y-453940D01*
X1379240Y-457440D01*
X1378020Y-462200D01*
X1376440Y-466640D01*
X1375500Y-468120D01*
X1249920Y-593720D01*
X1248620Y-594580D01*
X1247080Y-594900D01*
X1234520Y-594900D01*
X1232800Y-594500D01*
X1228200Y-592320D01*
X1226040Y-590860D01*
X1222540Y-589240D01*
X1218820Y-588240D01*
X1215000Y-587900D01*
X1211160Y-588240D01*
X1207440Y-589240D01*
X1203940Y-590860D01*
X1200800Y-593080D01*
X1198080Y-595800D01*
X1195860Y-598940D01*
X1194240Y-602440D01*
X1193220Y-606220D01*
X1193080Y-607540D01*
X1192520Y-609180D01*
X1191320Y-610420D01*
X1189740Y-611040D01*
X1188020Y-610940D01*
X1186500Y-610140D01*
X1185460Y-608760D01*
X1185100Y-607080D01*
X1185100Y-389400D01*
X1184800Y-386260D01*
X1183940Y-383420D01*
X1182540Y-380820D01*
X1180540Y-378380D01*
X989479Y-187320D01*
X988540Y-185840D01*
X986960Y-181380D01*
X986620Y-179840D01*
X986680Y-178100D01*
X987460Y-176540D01*
X988840Y-175479D01*
X990540Y-175100D01*
X1112080Y-175100D01*
X1113620Y-175400D01*
X1114920Y-176280D01*
X1141380Y-202740D01*
X1142140Y-203800D01*
X1142520Y-205040D01*
X1142960Y-208260D01*
X1142900Y-210000D01*
X1143240Y-213820D01*
X1144240Y-217540D01*
X1145860Y-221040D01*
X1148080Y-224180D01*
X1150800Y-226900D01*
X1153940Y-229120D01*
X1157440Y-230740D01*
X1161160Y-231740D01*
X1165000Y-232079D01*
X1168820Y-231740D01*
X1172540Y-230740D01*
X1176040Y-229120D01*
X1179180Y-226900D01*
X1181900Y-224180D01*
X1184120Y-221040D01*
X1185740Y-217540D01*
X1186740Y-213820D01*
X1187080Y-210000D01*
X1186740Y-206160D01*
X1185740Y-202440D01*
X1184120Y-198939D01*
X1181900Y-195799D01*
X1179180Y-193080D01*
X1176040Y-190859D01*
X1172680Y-189259D01*
X1167260Y-185780D01*
X1166600Y-185240D01*
X1134280Y-152920D01*
X1133400Y-151620D01*
X1133100Y-150100D01*
X1133400Y-148560D01*
X1134280Y-147260D01*
X1135580Y-146400D01*
X1137100Y-146100D01*
X1620940Y-146100D01*
X1623400Y-145820D01*
X1625680Y-145020D01*
X1626699Y-144480D01*
X1628240Y-144020D01*
X1629820Y-144200D01*
X1633560Y-145420D01*
X1637100Y-145900D01*
X1640660Y-145740D01*
X1644139Y-144940D01*
X1647440Y-143540D01*
X1650620Y-141440D01*
X1652160Y-140820D01*
X1653839Y-140900D01*
X1655320Y-141640D01*
X1656540Y-142620D01*
X1659680Y-144320D01*
X1663080Y-145420D01*
X1666620Y-145900D01*
X1670200Y-145740D01*
X1673680Y-144940D01*
X1676960Y-143540D01*
X1680160Y-141440D01*
X1681699Y-140820D01*
X1683360Y-140900D01*
X1684840Y-141640D01*
X1686080Y-142620D01*
X1689220Y-144320D01*
X1692620Y-145420D01*
X1696160Y-145900D01*
X1699720Y-145740D01*
X1703200Y-144940D01*
X1706500Y-143540D01*
X1709680Y-141440D01*
X1711220Y-140820D01*
X1712900Y-140900D01*
X1714379Y-141640D01*
X1715600Y-142620D01*
X1718740Y-144320D01*
X1722140Y-145420D01*
X1725680Y-145900D01*
X1729259Y-145740D01*
X1732740Y-144940D01*
X1736020Y-143540D01*
X1739199Y-141440D01*
X1740760Y-140820D01*
X1742420Y-140900D01*
X1743899Y-141640D01*
X1745120Y-142620D01*
X1748260Y-144320D01*
X1751660Y-145420D01*
X1755200Y-145900D01*
X1758779Y-145740D01*
X1762260Y-144940D01*
X1765540Y-143540D01*
X1768740Y-141440D01*
X1770280Y-140820D01*
X1771940Y-140900D01*
X1773420Y-141640D01*
X1774660Y-142620D01*
X1777800Y-144320D01*
X1781200Y-145420D01*
X1784740Y-145900D01*
X1788300Y-145740D01*
X1791780Y-144940D01*
X1795080Y-143540D01*
X1798260Y-141440D01*
X1799800Y-140820D01*
X1801480Y-140900D01*
X1802960Y-141640D01*
X1804180Y-142620D01*
X1807320Y-144320D01*
X1810720Y-145420D01*
X1814259Y-145900D01*
X1817840Y-145740D01*
X1821320Y-144940D01*
X1822520Y-144420D01*
X1823779Y-144120D01*
X1825040Y-144220D01*
X1826800Y-145060D01*
X1828920Y-145820D01*
X1831380Y-146100D01*
X2077520Y-146100D01*
X2078920Y-146340D01*
X2080140Y-147080D01*
X2081040Y-148180D01*
X2086420Y-158100D01*
X2092520Y-170900D01*
X2097940Y-184020D01*
X2102660Y-197380D01*
X2106680Y-210980D01*
X2110000Y-224780D01*
X2112580Y-238720D01*
X2114420Y-252780D01*
X2115520Y-266920D01*
X2115900Y-281180D01*
X2115900Y-1129320D01*
X2115540Y-1132300D01*
X2114920Y-1134120D01*
X2113940Y-1135780D01*
X2112660Y-1137220D01*
X2111120Y-1138380D01*
X2109380Y-1139220D01*
X2107520Y-1139700D01*
X2105460Y-1139860D01*
X2087640Y-1138920D01*
X2085900Y-1138960D01*
X2082260Y-1139320D01*
X2080020Y-1139760D01*
X2076560Y-1140820D01*
X2074460Y-1141680D01*
X2071260Y-1143380D01*
X2069360Y-1144660D01*
X2066560Y-1146960D01*
X2064960Y-1148560D01*
X2062660Y-1151360D01*
X2061399Y-1153260D01*
X2059680Y-1156460D01*
X2058820Y-1158560D01*
X2057760Y-1162020D01*
X2057320Y-1164240D01*
X2056900Y-1169100D01*
X2056900Y-1601900D01*
X2057320Y-1606740D01*
X2057760Y-1608959D01*
X2058820Y-1612440D01*
X2059680Y-1614540D01*
X2061399Y-1617740D01*
X2062660Y-1619620D01*
X2064960Y-1622420D01*
X2066560Y-1624040D01*
X2069360Y-1626339D01*
X2071260Y-1627600D01*
X2074460Y-1629300D01*
X2076560Y-1630180D01*
X2080020Y-1631220D01*
X2082260Y-1631680D01*
X2087100Y-1632100D01*
X2105320Y-1632100D01*
X2108300Y-1632440D01*
X2110120Y-1633080D01*
X2111780Y-1634060D01*
X2113220Y-1635340D01*
X2114380Y-1636860D01*
X2115220Y-1638600D01*
X2115700Y-1640460D01*
X2115900Y-1642660D01*
X2115900Y-1844820D01*
X2115520Y-1859280D01*
X2114400Y-1873420D01*
X2112540Y-1887480D01*
X2109940Y-1901420D01*
X2106640Y-1915200D01*
X2102600Y-1928800D01*
X2097860Y-1942180D01*
X2092420Y-1955280D01*
X2086320Y-1968080D01*
X2079540Y-1980540D01*
X2072120Y-1992620D01*
X2064100Y-2004300D01*
X2055460Y-2015560D01*
X2046240Y-2026339D01*
X2036480Y-2036620D01*
X2026180Y-2046380D01*
X2015400Y-2055580D01*
X2004139Y-2064220D01*
X1992440Y-2072240D01*
X1980360Y-2079640D01*
X1967880Y-2086399D01*
X1955080Y-2092520D01*
X1941980Y-2097940D01*
X1928600Y-2102660D01*
X1915000Y-2106680D01*
X1901220Y-2110000D01*
X1887260Y-2112560D01*
X1873200Y-2114420D01*
X1859060Y-2115520D01*
X1844820Y-2115900D01*
G37*

%LPC*%
G36*
X902580Y-2098680D02*
G01*
X906420Y-2098340D01*
X910140Y-2097340D01*
X913620Y-2095720D01*
X916780Y-2093500D01*
X919500Y-2090780D01*
X921700Y-2087640D01*
X923340Y-2084139D01*
X924320Y-2080420D01*
X924659Y-2076600D01*
X924320Y-2072760D01*
X923340Y-2069040D01*
X921700Y-2065540D01*
X919500Y-2062400D01*
X916780Y-2059680D01*
X913620Y-2057460D01*
X911020Y-2056240D01*
X909880Y-2055460D01*
X776260Y-1921840D01*
X775400Y-1920540D01*
X775100Y-1919000D01*
X775100Y-1907580D01*
X775460Y-1905900D01*
X775740Y-1905300D01*
X776740Y-1901579D01*
X777080Y-1897760D01*
X776740Y-1893920D01*
X775740Y-1890200D01*
X774120Y-1886699D01*
X771900Y-1883560D01*
X769180Y-1880840D01*
X766040Y-1878620D01*
X762540Y-1877000D01*
X758820Y-1876000D01*
X755000Y-1875660D01*
X751160Y-1876000D01*
X747440Y-1877000D01*
X743940Y-1878620D01*
X740800Y-1880840D01*
X738080Y-1883560D01*
X735860Y-1886699D01*
X734240Y-1890200D01*
X733240Y-1893920D01*
X732900Y-1897760D01*
X733240Y-1901579D01*
X734240Y-1905300D01*
X734520Y-1905900D01*
X734900Y-1907600D01*
X734900Y-1928899D01*
X734980Y-1930740D01*
X735200Y-1932480D01*
X735580Y-1934199D01*
X736100Y-1935860D01*
X736780Y-1937480D01*
X737580Y-1939040D01*
X738540Y-1940520D01*
X739599Y-1941900D01*
X740840Y-1943260D01*
X881420Y-2083839D01*
X882220Y-2084980D01*
X883460Y-2087640D01*
X885660Y-2090780D01*
X888379Y-2093500D01*
X891540Y-2095720D01*
X895020Y-2097340D01*
X898740Y-2098340D01*
G37*
G36*
X1438480Y-2069780D02*
G01*
X1438480Y-2046699D01*
X1420000Y-2046699D01*
X1420440Y-2048779D01*
X1422120Y-2053280D01*
X1424420Y-2057500D01*
X1427320Y-2061360D01*
X1430720Y-2064760D01*
X1434560Y-2067640D01*
G37*
G36*
X1467100Y-2069780D02*
G01*
X1471020Y-2067640D01*
X1474860Y-2064760D01*
X1478260Y-2061360D01*
X1481140Y-2057500D01*
X1483460Y-2053280D01*
X1485140Y-2048779D01*
X1485580Y-2046699D01*
X1467100Y-2046699D01*
G37*
G36*
X1191500Y-2069760D02*
G01*
X1195420Y-2067640D01*
X1199280Y-2064740D01*
X1202680Y-2061339D01*
X1205560Y-2057500D01*
X1207860Y-2053280D01*
X1209540Y-2048779D01*
X1210000Y-2046699D01*
X1191500Y-2046699D01*
G37*
G36*
X1162880Y-2069760D02*
G01*
X1162880Y-2046699D01*
X1144400Y-2046699D01*
X1144860Y-2048779D01*
X1146540Y-2053280D01*
X1148840Y-2057500D01*
X1151720Y-2061339D01*
X1155120Y-2064740D01*
X1158980Y-2067640D01*
G37*
G36*
X1420000Y-2004300D02*
G01*
X1438480Y-2004300D01*
X1438480Y-1981220D01*
X1434560Y-1983360D01*
X1430720Y-1986240D01*
X1427320Y-1989640D01*
X1424420Y-1993500D01*
X1422120Y-1997720D01*
X1420440Y-2002220D01*
G37*
G36*
X1144400Y-2004300D02*
G01*
X1162880Y-2004300D01*
X1162880Y-1981220D01*
X1158980Y-1983360D01*
X1155120Y-1986240D01*
X1151720Y-1989640D01*
X1148840Y-1993480D01*
X1146540Y-1997700D01*
X1144860Y-2002220D01*
G37*
G36*
X1191500Y-2004300D02*
G01*
X1210000Y-2004300D01*
X1209540Y-2002220D01*
X1207860Y-1997700D01*
X1205560Y-1993480D01*
X1202680Y-1989640D01*
X1199280Y-1986240D01*
X1195420Y-1983360D01*
X1191500Y-1981220D01*
G37*
G36*
X1467100Y-2004300D02*
G01*
X1485580Y-2004300D01*
X1485140Y-2002220D01*
X1483460Y-1997720D01*
X1481140Y-1993500D01*
X1478260Y-1989640D01*
X1474860Y-1986240D01*
X1471020Y-1983360D01*
X1467100Y-1981220D01*
G37*
G36*
X1770000Y-1991579D02*
G01*
X1775420Y-1991220D01*
X1780760Y-1990160D01*
X1785900Y-1988420D01*
X1790780Y-1986020D01*
X1795320Y-1982980D01*
X1799400Y-1979400D01*
X1802980Y-1975320D01*
X1806020Y-1970780D01*
X1808420Y-1965900D01*
X1810160Y-1960760D01*
X1811220Y-1955420D01*
X1811579Y-1950000D01*
X1811220Y-1944560D01*
X1810160Y-1939220D01*
X1808420Y-1934079D01*
X1806020Y-1929199D01*
X1802980Y-1924680D01*
X1799400Y-1920580D01*
X1795320Y-1917000D01*
X1790780Y-1913980D01*
X1785900Y-1911560D01*
X1780760Y-1909820D01*
X1775420Y-1908760D01*
X1770000Y-1908400D01*
X1764560Y-1908760D01*
X1759220Y-1909820D01*
X1754079Y-1911560D01*
X1749199Y-1913980D01*
X1744680Y-1917000D01*
X1740580Y-1920580D01*
X1737000Y-1924680D01*
X1733980Y-1929199D01*
X1731560Y-1934079D01*
X1729820Y-1939220D01*
X1728760Y-1944560D01*
X1728400Y-1950000D01*
X1728760Y-1955420D01*
X1729820Y-1960760D01*
X1731560Y-1965900D01*
X1733980Y-1970780D01*
X1737000Y-1975320D01*
X1740580Y-1979400D01*
X1744680Y-1982980D01*
X1749199Y-1986020D01*
X1754079Y-1988420D01*
X1759220Y-1990160D01*
X1764560Y-1991220D01*
G37*
G36*
X1851740Y-1987260D02*
G01*
X1851740Y-1968240D01*
X1832720Y-1968240D01*
X1833980Y-1970780D01*
X1837000Y-1975320D01*
X1840580Y-1979400D01*
X1844680Y-1982980D01*
X1849199Y-1986020D01*
G37*
G36*
X1888240Y-1987260D02*
G01*
X1890780Y-1986020D01*
X1895320Y-1982980D01*
X1899400Y-1979400D01*
X1902980Y-1975320D01*
X1906020Y-1970780D01*
X1907260Y-1968240D01*
X1888240Y-1968240D01*
G37*
G36*
X1232380Y-1953060D02*
G01*
X1237100Y-1950380D01*
X1241120Y-1947240D01*
X1244680Y-1943560D01*
X1247680Y-1939420D01*
X1249620Y-1935780D01*
X1232380Y-1935780D01*
G37*
G36*
X1429180Y-1953060D02*
G01*
X1433899Y-1950380D01*
X1437920Y-1947240D01*
X1441480Y-1943560D01*
X1444480Y-1939420D01*
X1446420Y-1935780D01*
X1429180Y-1935780D01*
G37*
G36*
X1397600Y-1952980D02*
G01*
X1397600Y-1935780D01*
X1380380Y-1935780D01*
X1381020Y-1937200D01*
X1383740Y-1941540D01*
X1387020Y-1945460D01*
X1390820Y-1948880D01*
X1395060Y-1951740D01*
G37*
G36*
X1200800Y-1952980D02*
G01*
X1200800Y-1935780D01*
X1183580Y-1935780D01*
X1184220Y-1937200D01*
X1186940Y-1941540D01*
X1190220Y-1945460D01*
X1194020Y-1948880D01*
X1198260Y-1951740D01*
G37*
G36*
X1888240Y-1931740D02*
G01*
X1907260Y-1931740D01*
X1906020Y-1929199D01*
X1902980Y-1924680D01*
X1899400Y-1920580D01*
X1895320Y-1917000D01*
X1890780Y-1913980D01*
X1888240Y-1912720D01*
G37*
G36*
X1832720Y-1931740D02*
G01*
X1851740Y-1931740D01*
X1851740Y-1912720D01*
X1849199Y-1913980D01*
X1844680Y-1917000D01*
X1840580Y-1920580D01*
X1837000Y-1924680D01*
X1833980Y-1929199D01*
G37*
G36*
X1183580Y-1904199D02*
G01*
X1200800Y-1904199D01*
X1200800Y-1887000D01*
X1198260Y-1888240D01*
X1194020Y-1891100D01*
X1190220Y-1894520D01*
X1186940Y-1898440D01*
X1184220Y-1902780D01*
G37*
G36*
X1380380Y-1904199D02*
G01*
X1397600Y-1904199D01*
X1397600Y-1887000D01*
X1395060Y-1888240D01*
X1390820Y-1891100D01*
X1387020Y-1894520D01*
X1383740Y-1898440D01*
X1381020Y-1902780D01*
G37*
G36*
X1232380Y-1904199D02*
G01*
X1249620Y-1904199D01*
X1247680Y-1900560D01*
X1244680Y-1896420D01*
X1241120Y-1892740D01*
X1237100Y-1889600D01*
X1232380Y-1886920D01*
G37*
G36*
X1429180Y-1904199D02*
G01*
X1446420Y-1904199D01*
X1444480Y-1900560D01*
X1441480Y-1896420D01*
X1437920Y-1892740D01*
X1433899Y-1889600D01*
X1429180Y-1886920D01*
G37*
G36*
X493800Y-1881060D02*
G01*
X501000Y-1880500D01*
X508080Y-1879220D01*
X515020Y-1877200D01*
X521700Y-1874480D01*
X528080Y-1871080D01*
X534060Y-1867060D01*
X539600Y-1862440D01*
X544640Y-1857260D01*
X549120Y-1851600D01*
X553000Y-1845520D01*
X556220Y-1839060D01*
X558760Y-1832300D01*
X560600Y-1825320D01*
X561720Y-1818200D01*
X562080Y-1811000D01*
X561720Y-1803779D01*
X560600Y-1796660D01*
X558760Y-1789680D01*
X556220Y-1782920D01*
X553000Y-1776459D01*
X549120Y-1770380D01*
X544640Y-1764720D01*
X539600Y-1759540D01*
X534060Y-1754920D01*
X528080Y-1750900D01*
X521700Y-1747500D01*
X515020Y-1744780D01*
X508080Y-1742760D01*
X501000Y-1741480D01*
X493800Y-1740920D01*
X486580Y-1741100D01*
X479420Y-1742040D01*
X472400Y-1743680D01*
X465580Y-1746060D01*
X459040Y-1749120D01*
X452860Y-1752840D01*
X447080Y-1757160D01*
X441800Y-1762060D01*
X437020Y-1767480D01*
X432840Y-1773380D01*
X429300Y-1779660D01*
X426400Y-1786260D01*
X424200Y-1793140D01*
X422740Y-1800200D01*
X421980Y-1807380D01*
X421980Y-1814600D01*
X422740Y-1821780D01*
X424200Y-1828839D01*
X426400Y-1835720D01*
X429300Y-1842320D01*
X432840Y-1848600D01*
X437020Y-1854500D01*
X441800Y-1859920D01*
X447080Y-1864820D01*
X452860Y-1869139D01*
X459040Y-1872860D01*
X465580Y-1875920D01*
X472400Y-1878300D01*
X479420Y-1879940D01*
X486580Y-1880880D01*
G37*
G36*
X1115000Y-1679840D02*
G01*
X1118820Y-1679500D01*
X1122540Y-1678500D01*
X1126040Y-1676879D01*
X1129180Y-1674660D01*
X1131900Y-1671940D01*
X1134120Y-1668800D01*
X1135740Y-1665300D01*
X1136740Y-1661579D01*
X1137080Y-1657760D01*
X1136740Y-1653920D01*
X1135740Y-1650200D01*
X1134120Y-1646699D01*
X1131900Y-1643560D01*
X1129180Y-1640840D01*
X1126040Y-1638620D01*
X1122540Y-1637000D01*
X1118820Y-1636000D01*
X1115000Y-1635660D01*
X1111160Y-1636000D01*
X1107440Y-1637000D01*
X1103940Y-1638620D01*
X1100800Y-1640840D01*
X1098080Y-1643560D01*
X1095860Y-1646699D01*
X1094240Y-1650200D01*
X1093240Y-1653920D01*
X1092900Y-1657760D01*
X1093240Y-1661579D01*
X1094240Y-1665300D01*
X1095860Y-1668800D01*
X1098080Y-1671940D01*
X1100800Y-1674660D01*
X1103940Y-1676879D01*
X1107440Y-1678500D01*
X1111160Y-1679500D01*
G37*
G36*
X223240Y-1620640D02*
G01*
X225780Y-1619379D01*
X230300Y-1616360D01*
X234400Y-1612760D01*
X237979Y-1608680D01*
X241000Y-1604160D01*
X242260Y-1601620D01*
X223240Y-1601620D01*
G37*
G36*
X186740Y-1620640D02*
G01*
X186740Y-1601620D01*
X167719Y-1601620D01*
X168980Y-1604160D01*
X172000Y-1608680D01*
X175580Y-1612760D01*
X179680Y-1616360D01*
X184200Y-1619379D01*
G37*
G36*
X167719Y-1565120D02*
G01*
X186740Y-1565120D01*
X186740Y-1547840D01*
X187020Y-1546360D01*
X187840Y-1545080D01*
X189080Y-1544199D01*
X190539Y-1543839D01*
X192040Y-1544040D01*
X194220Y-1544800D01*
X199560Y-1545860D01*
X205000Y-1546200D01*
X210420Y-1545860D01*
X215760Y-1544800D01*
X217960Y-1544040D01*
X219460Y-1543839D01*
X220920Y-1544199D01*
X222140Y-1545080D01*
X222960Y-1546360D01*
X223240Y-1547840D01*
X223240Y-1565120D01*
X242260Y-1565120D01*
X241000Y-1562560D01*
X237979Y-1558040D01*
X234400Y-1553959D01*
X230300Y-1550360D01*
X225740Y-1547320D01*
X224640Y-1546220D01*
X224040Y-1544780D01*
X224040Y-1543220D01*
X224640Y-1541759D01*
X225740Y-1540660D01*
X230300Y-1537620D01*
X234400Y-1534019D01*
X237979Y-1529940D01*
X241000Y-1525420D01*
X243420Y-1520540D01*
X245159Y-1515380D01*
X246220Y-1510060D01*
X246580Y-1504620D01*
X246220Y-1499199D01*
X245159Y-1493860D01*
X243420Y-1488700D01*
X241000Y-1483820D01*
X237979Y-1479300D01*
X234400Y-1475220D01*
X230300Y-1471620D01*
X225780Y-1468600D01*
X220900Y-1466200D01*
X215760Y-1464460D01*
X210420Y-1463400D01*
X205000Y-1463040D01*
X199560Y-1463400D01*
X194220Y-1464460D01*
X189080Y-1466200D01*
X184200Y-1468600D01*
X179680Y-1471620D01*
X175580Y-1475220D01*
X172000Y-1479300D01*
X168980Y-1483820D01*
X166580Y-1488700D01*
X164820Y-1493860D01*
X163760Y-1499199D01*
X163400Y-1504620D01*
X163760Y-1510060D01*
X164820Y-1515380D01*
X166580Y-1520540D01*
X168980Y-1525420D01*
X172000Y-1529940D01*
X175580Y-1534019D01*
X179680Y-1537620D01*
X184240Y-1540660D01*
X185340Y-1541759D01*
X185940Y-1543220D01*
X185940Y-1544780D01*
X185340Y-1546220D01*
X184240Y-1547320D01*
X179680Y-1550360D01*
X175580Y-1553959D01*
X172000Y-1558040D01*
X168980Y-1562560D01*
G37*
G36*
X847340Y-1289520D02*
G01*
X852640Y-1289520D01*
X857880Y-1288820D01*
X862980Y-1287420D01*
X867860Y-1285360D01*
X872420Y-1282660D01*
X876560Y-1279380D01*
X880240Y-1275580D01*
X883379Y-1271320D01*
X885920Y-1266660D01*
X887840Y-1261740D01*
X889060Y-1256580D01*
X889580Y-1251320D01*
X889419Y-1246020D01*
X888540Y-1240800D01*
X886960Y-1235760D01*
X884740Y-1230960D01*
X881880Y-1226500D01*
X878480Y-1222440D01*
X874539Y-1218900D01*
X870180Y-1215900D01*
X865460Y-1213520D01*
X860460Y-1211780D01*
X855280Y-1210720D01*
X850000Y-1210380D01*
X844720Y-1210720D01*
X839520Y-1211780D01*
X834520Y-1213520D01*
X829800Y-1215900D01*
X825440Y-1218900D01*
X821520Y-1222440D01*
X818100Y-1226500D01*
X815240Y-1230960D01*
X813020Y-1235760D01*
X811460Y-1240800D01*
X810580Y-1246020D01*
X810400Y-1251320D01*
X810920Y-1256580D01*
X812159Y-1261740D01*
X814060Y-1266660D01*
X816600Y-1271320D01*
X819740Y-1275580D01*
X823420Y-1279380D01*
X827580Y-1282660D01*
X832120Y-1285360D01*
X837000Y-1287420D01*
X842099Y-1288820D01*
G37*
G36*
X667260Y-1285600D02*
G01*
X667860Y-1285360D01*
X672420Y-1282660D01*
X676560Y-1279380D01*
X680240Y-1275580D01*
X683379Y-1271320D01*
X685600Y-1267260D01*
X667260Y-1267260D01*
G37*
G36*
X632720Y-1285600D02*
G01*
X632720Y-1267260D01*
X614380Y-1267260D01*
X616600Y-1271320D01*
X619740Y-1275580D01*
X623420Y-1279380D01*
X627580Y-1282660D01*
X632120Y-1285360D01*
G37*
G36*
X667260Y-1232720D02*
G01*
X685560Y-1232720D01*
X684740Y-1230960D01*
X681880Y-1226500D01*
X678480Y-1222440D01*
X674539Y-1218900D01*
X670180Y-1215900D01*
X667260Y-1214420D01*
G37*
G36*
X614420Y-1232720D02*
G01*
X632720Y-1232720D01*
X632720Y-1214420D01*
X629800Y-1215900D01*
X625440Y-1218900D01*
X621520Y-1222440D01*
X618100Y-1226500D01*
X615240Y-1230960D01*
G37*
G36*
X1851740Y-1187260D02*
G01*
X1851740Y-1168240D01*
X1832720Y-1168240D01*
X1833980Y-1170780D01*
X1837000Y-1175320D01*
X1840580Y-1179400D01*
X1844680Y-1182980D01*
X1849199Y-1186020D01*
G37*
G36*
X1888240Y-1187260D02*
G01*
X1890780Y-1186020D01*
X1895320Y-1182980D01*
X1899400Y-1179400D01*
X1902980Y-1175320D01*
X1906020Y-1170780D01*
X1907260Y-1168240D01*
X1888240Y-1168240D01*
G37*
G36*
X1888240Y-1131740D02*
G01*
X1907260Y-1131740D01*
X1906020Y-1129200D01*
X1902980Y-1124680D01*
X1899400Y-1120580D01*
X1895320Y-1117000D01*
X1890780Y-1113980D01*
X1888240Y-1112720D01*
G37*
G36*
X1788240Y-1131740D02*
G01*
X1807260Y-1131740D01*
X1806020Y-1129200D01*
X1802980Y-1124680D01*
X1799400Y-1120580D01*
X1795320Y-1117000D01*
X1790780Y-1113980D01*
X1788240Y-1112720D01*
G37*
G36*
X1732720Y-1131740D02*
G01*
X1751740Y-1131740D01*
X1751740Y-1112720D01*
X1749199Y-1113980D01*
X1744680Y-1117000D01*
X1740580Y-1120580D01*
X1737000Y-1124680D01*
X1733980Y-1129200D01*
G37*
G36*
X1832720Y-1131740D02*
G01*
X1851740Y-1131740D01*
X1851740Y-1112720D01*
X1849199Y-1113980D01*
X1844680Y-1117000D01*
X1840580Y-1120580D01*
X1837000Y-1124680D01*
X1833980Y-1129200D01*
G37*
G36*
X1664120Y-942980D02*
G01*
X1667940Y-942640D01*
X1671660Y-941660D01*
X1675160Y-940020D01*
X1678300Y-937820D01*
X1681020Y-935100D01*
X1683240Y-931940D01*
X1684860Y-928460D01*
X1685860Y-924740D01*
X1686200Y-920900D01*
X1685860Y-917060D01*
X1684860Y-913340D01*
X1683240Y-909860D01*
X1681020Y-906700D01*
X1678300Y-903980D01*
X1675160Y-901780D01*
X1671660Y-900140D01*
X1667940Y-899160D01*
X1664120Y-898820D01*
X1660280Y-899160D01*
X1656560Y-900140D01*
X1653060Y-901780D01*
X1649920Y-903980D01*
X1647200Y-906700D01*
X1644980Y-909860D01*
X1643360Y-913340D01*
X1642360Y-917060D01*
X1642020Y-920900D01*
X1642360Y-924740D01*
X1643360Y-928460D01*
X1644980Y-931940D01*
X1647200Y-935100D01*
X1649920Y-937820D01*
X1653060Y-940020D01*
X1656560Y-941660D01*
X1660280Y-942640D01*
G37*
G36*
X2035740Y-869280D02*
G01*
X2039900Y-869100D01*
X2043980Y-868280D01*
X2047860Y-866800D01*
X2051459Y-864720D01*
X2054680Y-862099D01*
X2057440Y-858980D01*
X2059660Y-855460D01*
X2061300Y-851640D01*
X2062300Y-847600D01*
X2062620Y-843460D01*
X2062300Y-839320D01*
X2061300Y-835280D01*
X2059660Y-831460D01*
X2057440Y-827940D01*
X2054680Y-824820D01*
X2051459Y-822200D01*
X2047860Y-820120D01*
X2043980Y-818640D01*
X2039900Y-817820D01*
X2035740Y-817640D01*
X2031620Y-818139D01*
X2027620Y-819300D01*
X2023880Y-821080D01*
X2020460Y-823439D01*
X2017460Y-826320D01*
X2014960Y-829659D01*
X2013020Y-833340D01*
X2011699Y-837280D01*
X2011040Y-841380D01*
X2011040Y-845540D01*
X2011699Y-849640D01*
X2013020Y-853580D01*
X2014960Y-857260D01*
X2017460Y-860600D01*
X2020460Y-863480D01*
X2023880Y-865840D01*
X2027620Y-867620D01*
X2031620Y-868780D01*
G37*
G36*
X2035740Y-802340D02*
G01*
X2039900Y-802180D01*
X2043980Y-801340D01*
X2047860Y-799880D01*
X2051459Y-797800D01*
X2054680Y-795160D01*
X2057440Y-792060D01*
X2059660Y-788540D01*
X2061300Y-784720D01*
X2062300Y-780680D01*
X2062620Y-776540D01*
X2062300Y-772380D01*
X2061300Y-768340D01*
X2059660Y-764520D01*
X2057440Y-761000D01*
X2054680Y-757900D01*
X2051459Y-755260D01*
X2047860Y-753180D01*
X2043980Y-751720D01*
X2039900Y-750879D01*
X2035740Y-750720D01*
X2031620Y-751220D01*
X2027620Y-752380D01*
X2023880Y-754160D01*
X2020460Y-756520D01*
X2017460Y-759400D01*
X2014960Y-762720D01*
X2013020Y-766400D01*
X2011699Y-770340D01*
X2011040Y-774460D01*
X2011040Y-778600D01*
X2011699Y-782720D01*
X2013020Y-786660D01*
X2014960Y-790340D01*
X2017460Y-793660D01*
X2020460Y-796540D01*
X2023880Y-798900D01*
X2027620Y-800680D01*
X2031620Y-801840D01*
G37*
G36*
X150000Y-741580D02*
G01*
X155420Y-741220D01*
X160760Y-740160D01*
X165920Y-738420D01*
X170780Y-736020D01*
X175320Y-733000D01*
X179400Y-729400D01*
X183000Y-725320D01*
X186020Y-720780D01*
X188420Y-715920D01*
X190159Y-710759D01*
X191220Y-705420D01*
X191580Y-700000D01*
X191220Y-694560D01*
X190159Y-689220D01*
X188420Y-684080D01*
X186020Y-679200D01*
X183000Y-674680D01*
X179400Y-670580D01*
X175320Y-667000D01*
X170780Y-663980D01*
X165920Y-661560D01*
X160760Y-659820D01*
X155420Y-658760D01*
X150000Y-658400D01*
X144560Y-658760D01*
X139220Y-659820D01*
X134080Y-661560D01*
X129200Y-663980D01*
X124680Y-667000D01*
X120580Y-670580D01*
X117000Y-674680D01*
X113980Y-679200D01*
X111560Y-684080D01*
X109820Y-689220D01*
X108760Y-694560D01*
X108400Y-700000D01*
X108760Y-705420D01*
X109820Y-710759D01*
X111560Y-715920D01*
X113980Y-720780D01*
X117000Y-725320D01*
X120580Y-729400D01*
X124680Y-733000D01*
X129200Y-736020D01*
X134080Y-738420D01*
X139220Y-740160D01*
X144560Y-741220D01*
G37*
G36*
X231740Y-737260D02*
G01*
X231740Y-718240D01*
X212719Y-718240D01*
X213980Y-720780D01*
X217000Y-725320D01*
X220580Y-729400D01*
X224680Y-733000D01*
X229200Y-736020D01*
G37*
G36*
X268240Y-737260D02*
G01*
X270780Y-736020D01*
X275320Y-733000D01*
X279400Y-729400D01*
X283000Y-725320D01*
X286020Y-720780D01*
X287260Y-718240D01*
X268240Y-718240D01*
G37*
G36*
X1664120Y-697980D02*
G01*
X1667940Y-697640D01*
X1671660Y-696660D01*
X1675160Y-695020D01*
X1678300Y-692820D01*
X1681020Y-690100D01*
X1683240Y-686940D01*
X1684860Y-683460D01*
X1685860Y-679740D01*
X1686200Y-675900D01*
X1685860Y-672060D01*
X1684860Y-668340D01*
X1683240Y-664860D01*
X1681020Y-661700D01*
X1678300Y-658980D01*
X1675160Y-656780D01*
X1671660Y-655140D01*
X1667940Y-654160D01*
X1664120Y-653820D01*
X1660280Y-654160D01*
X1656560Y-655140D01*
X1653060Y-656780D01*
X1649920Y-658980D01*
X1647200Y-661700D01*
X1644980Y-664860D01*
X1643360Y-668340D01*
X1642360Y-672060D01*
X1642020Y-675900D01*
X1642360Y-679740D01*
X1643360Y-683460D01*
X1644980Y-686940D01*
X1647200Y-690100D01*
X1649920Y-692820D01*
X1653060Y-695020D01*
X1656560Y-696660D01*
X1660280Y-697640D01*
G37*
G36*
X212719Y-681740D02*
G01*
X231740Y-681740D01*
X231740Y-662720D01*
X229200Y-663980D01*
X224680Y-667000D01*
X220580Y-670580D01*
X217000Y-674680D01*
X213980Y-679200D01*
G37*
G36*
X268240Y-681740D02*
G01*
X287260Y-681740D01*
X286020Y-679200D01*
X283000Y-674680D01*
X279400Y-670580D01*
X275320Y-667000D01*
X270780Y-663980D01*
X268240Y-662720D01*
G37*
G36*
X2035740Y-534280D02*
G01*
X2039900Y-534100D01*
X2043980Y-533280D01*
X2047860Y-531800D01*
X2051459Y-529720D01*
X2054680Y-527100D01*
X2057440Y-523980D01*
X2059660Y-520460D01*
X2061300Y-516640D01*
X2062300Y-512600D01*
X2062620Y-508459D01*
X2062300Y-504320D01*
X2061300Y-500280D01*
X2059660Y-496460D01*
X2057440Y-492939D01*
X2054680Y-489820D01*
X2051459Y-487200D01*
X2047860Y-485120D01*
X2043980Y-483640D01*
X2039900Y-482819D01*
X2035740Y-482640D01*
X2031620Y-483140D01*
X2027620Y-484300D01*
X2023880Y-486079D01*
X2020460Y-488440D01*
X2017460Y-491320D01*
X2014960Y-494660D01*
X2013020Y-498340D01*
X2011699Y-502280D01*
X2011040Y-506380D01*
X2011040Y-510540D01*
X2011699Y-514640D01*
X2013020Y-518579D01*
X2014960Y-522260D01*
X2017460Y-525600D01*
X2020460Y-528480D01*
X2023880Y-530840D01*
X2027620Y-532620D01*
X2031620Y-533780D01*
G37*
G36*
X2035740Y-467340D02*
G01*
X2039900Y-467180D01*
X2043980Y-466340D01*
X2047860Y-464880D01*
X2051459Y-462800D01*
X2054680Y-460160D01*
X2057440Y-457060D01*
X2059660Y-453540D01*
X2061300Y-449720D01*
X2062300Y-445680D01*
X2062620Y-441540D01*
X2062300Y-437380D01*
X2061300Y-433340D01*
X2059660Y-429520D01*
X2057440Y-426000D01*
X2054680Y-422900D01*
X2051459Y-420260D01*
X2047860Y-418180D01*
X2043980Y-416719D01*
X2039900Y-415880D01*
X2035740Y-415720D01*
X2031620Y-416220D01*
X2027620Y-417380D01*
X2023880Y-419159D01*
X2020460Y-421520D01*
X2017460Y-424400D01*
X2014960Y-427720D01*
X2013020Y-431400D01*
X2011699Y-435340D01*
X2011040Y-439460D01*
X2011040Y-443600D01*
X2011699Y-447720D01*
X2013020Y-451659D01*
X2014960Y-455340D01*
X2017460Y-458660D01*
X2020460Y-461540D01*
X2023880Y-463900D01*
X2027620Y-465680D01*
X2031620Y-466840D01*
G37*
G36*
X150000Y-461580D02*
G01*
X155420Y-461220D01*
X160760Y-460160D01*
X165900Y-458420D01*
X170780Y-456019D01*
X175320Y-452980D01*
X179400Y-449400D01*
X182979Y-445319D01*
X186020Y-440780D01*
X188420Y-435900D01*
X190159Y-430760D01*
X191220Y-425420D01*
X191580Y-420000D01*
X191220Y-414560D01*
X190159Y-409219D01*
X188420Y-404080D01*
X186020Y-399200D01*
X182979Y-394680D01*
X179400Y-390580D01*
X175320Y-387000D01*
X170780Y-383980D01*
X165900Y-381560D01*
X160760Y-379820D01*
X155420Y-378760D01*
X150000Y-378400D01*
X144560Y-378760D01*
X139220Y-379820D01*
X134080Y-381560D01*
X129200Y-383980D01*
X124680Y-387000D01*
X120580Y-390580D01*
X117000Y-394680D01*
X113980Y-399200D01*
X111560Y-404080D01*
X109820Y-409219D01*
X108760Y-414560D01*
X108400Y-420000D01*
X108760Y-425420D01*
X109820Y-430760D01*
X111560Y-435900D01*
X113980Y-440780D01*
X117000Y-445319D01*
X120580Y-449400D01*
X124680Y-452980D01*
X129200Y-456019D01*
X134080Y-458420D01*
X139220Y-460160D01*
X144560Y-461220D01*
G37*
G36*
X1550000Y-428080D02*
G01*
X1554379Y-427740D01*
X1558660Y-426700D01*
X1562740Y-425020D01*
X1566500Y-422720D01*
X1569860Y-419860D01*
X1572720Y-416500D01*
X1575020Y-412740D01*
X1576699Y-408660D01*
X1577740Y-404380D01*
X1578080Y-400000D01*
X1577740Y-395600D01*
X1576699Y-391320D01*
X1575020Y-387239D01*
X1572720Y-383480D01*
X1569860Y-380120D01*
X1566500Y-377260D01*
X1562740Y-374960D01*
X1558660Y-373280D01*
X1554379Y-372239D01*
X1550000Y-371900D01*
X1545600Y-372239D01*
X1541320Y-373280D01*
X1537240Y-374960D01*
X1533480Y-377260D01*
X1530120Y-380120D01*
X1527260Y-383480D01*
X1524960Y-387239D01*
X1523280Y-391320D01*
X1522240Y-395600D01*
X1521900Y-400000D01*
X1522240Y-404380D01*
X1523280Y-408660D01*
X1524960Y-412740D01*
X1527260Y-416500D01*
X1530120Y-419860D01*
X1533480Y-422720D01*
X1537240Y-425020D01*
X1541320Y-426700D01*
X1545600Y-427740D01*
G37*
G36*
X1635800Y-385060D02*
G01*
X1643000Y-384500D01*
X1650080Y-383220D01*
X1657020Y-381200D01*
X1663700Y-378480D01*
X1670080Y-375080D01*
X1676060Y-371060D01*
X1681600Y-366440D01*
X1686639Y-361260D01*
X1691120Y-355600D01*
X1695000Y-349520D01*
X1698220Y-343060D01*
X1700760Y-336300D01*
X1702600Y-329320D01*
X1703720Y-322200D01*
X1704079Y-315000D01*
X1703720Y-307780D01*
X1702600Y-300660D01*
X1700760Y-293680D01*
X1698220Y-286920D01*
X1695000Y-280460D01*
X1691120Y-274380D01*
X1686639Y-268720D01*
X1681600Y-263540D01*
X1676060Y-258920D01*
X1670080Y-254899D01*
X1663700Y-251500D01*
X1657020Y-248780D01*
X1650080Y-246759D01*
X1643000Y-245479D01*
X1635800Y-244920D01*
X1628580Y-245100D01*
X1621420Y-246040D01*
X1614400Y-247680D01*
X1607580Y-250060D01*
X1601040Y-253120D01*
X1594860Y-256840D01*
X1589079Y-261160D01*
X1583800Y-266060D01*
X1579019Y-271480D01*
X1574840Y-277380D01*
X1571300Y-283660D01*
X1568400Y-290260D01*
X1566200Y-297140D01*
X1564740Y-304200D01*
X1563980Y-311380D01*
X1563980Y-318600D01*
X1564740Y-325780D01*
X1566200Y-332840D01*
X1568400Y-339720D01*
X1571300Y-346320D01*
X1574840Y-352600D01*
X1579019Y-358500D01*
X1583800Y-363920D01*
X1589079Y-368820D01*
X1594860Y-373140D01*
X1601040Y-376860D01*
X1607580Y-379920D01*
X1614400Y-382299D01*
X1621420Y-383940D01*
X1628580Y-384880D01*
G37*

%LPD*%
G36*
X1743200Y-1216140D02*
G01*
X1736140Y-1223200D01*
X1738560Y-1251960D01*
X1771960Y-1218560D01*
G37*
G36*
X1843200Y-1216140D02*
G01*
X1836140Y-1223200D01*
X1838560Y-1251960D01*
X1871960Y-1218560D01*
G37*
G36*
X1743200Y-1316140D02*
G01*
X1736140Y-1323200D01*
X1738560Y-1351960D01*
X1771960Y-1318560D01*
G37*
G36*
X1843200Y-1316140D02*
G01*
X1836140Y-1323200D01*
X1838560Y-1351960D01*
X1871960Y-1318560D01*
G37*
G36*
X1743200Y-1416140D02*
G01*
X1736140Y-1423200D01*
X1738560Y-1451960D01*
X1771960Y-1418560D01*
G37*
G36*
X1843200Y-1416140D02*
G01*
X1836140Y-1423200D01*
X1838560Y-1451960D01*
X1871960Y-1418560D01*
G37*
G36*
X1743200Y-1516140D02*
G01*
X1736140Y-1523200D01*
X1738560Y-1551960D01*
X1771960Y-1518560D01*
G37*
G36*
X1843200Y-1516140D02*
G01*
X1836140Y-1523200D01*
X1838560Y-1551960D01*
X1871960Y-1518560D01*
G37*
G36*
X1743200Y-1616140D02*
G01*
X1736140Y-1623200D01*
X1738560Y-1651960D01*
X1771960Y-1618560D01*
G37*
G36*
X1843200Y-1616140D02*
G01*
X1836140Y-1623200D01*
X1838560Y-1651960D01*
X1871960Y-1618560D01*
G37*
G36*
X1743200Y-1716140D02*
G01*
X1736140Y-1723200D01*
X1738560Y-1751960D01*
X1771960Y-1718560D01*
G37*
G36*
X1843200Y-1716140D02*
G01*
X1836140Y-1723200D01*
X1838560Y-1751960D01*
X1871960Y-1718560D01*
G37*
G36*
X1843200Y-1816140D02*
G01*
X1836140Y-1823200D01*
X1838560Y-1851960D01*
X1871960Y-1818560D01*
G37*
G36*
X181439Y-318020D02*
G01*
X148020Y-351440D01*
X176780Y-353860D01*
X183860Y-346780D01*
G37*
G36*
X276800Y-286140D02*
G01*
X248039Y-288560D01*
X281440Y-321980D01*
X283860Y-293220D01*
G37*
G36*
X774880Y-1118040D02*
G01*
X748139Y-1120520D01*
X779460Y-1151840D01*
X781960Y-1125100D01*
G37*
G36*
X402600Y-1144240D02*
G01*
X398600Y-1152640D01*
X416599Y-1152660D01*
X412600Y-1144260D01*
G37*
G36*
X508020Y-329240D02*
G01*
X504920Y-338020D01*
X511980Y-345080D01*
X520760Y-341980D01*
G37*
G36*
X1388020Y-464240D02*
G01*
X1384920Y-473020D01*
X1391980Y-480080D01*
X1400760Y-476980D01*
G37*
G36*
X1222940Y-601000D02*
G01*
X1222940Y-619000D01*
X1231340Y-615000D01*
X1231340Y-605000D01*
G37*
G36*
X746000Y-1905700D02*
G01*
X745000Y-1914100D01*
X765000Y-1914100D01*
X764000Y-1905700D01*
G37*
G36*
X898120Y-2057980D02*
G01*
X883960Y-2072100D01*
X890620Y-2077340D01*
X903340Y-2064620D01*
G37*
G36*
X1160540Y-193460D02*
G01*
X1151900Y-198980D01*
X1153140Y-208140D01*
X1168320Y-198460D01*
G37*
G36*
X422060Y-361000D02*
G01*
X413660Y-365000D01*
X413660Y-375000D01*
X422060Y-379000D01*
G37*
G36*
X709000Y-587100D02*
G01*
X691000Y-587120D01*
X695000Y-595520D01*
X705000Y-595520D01*
G37*
G36*
X733000Y-587100D02*
G01*
X737000Y-591180D01*
X747000Y-591180D01*
X751000Y-587120D01*
G37*
G36*
X804000Y-578440D02*
G01*
X791260Y-591160D01*
X800020Y-594280D01*
X807099Y-587200D01*
G37*
G36*
X853000Y-564340D02*
G01*
X845440Y-580680D01*
X854620Y-580860D01*
X859080Y-571200D01*
G37*
G36*
X903660Y-572100D02*
G01*
X887660Y-580360D01*
X894840Y-586100D01*
X904180Y-581280D01*
G37*
G36*
X943800Y-566880D02*
G01*
X932820Y-581160D01*
X941880Y-583140D01*
X948040Y-575140D01*
G37*
G36*
X976979Y-532240D02*
G01*
X964260Y-544980D01*
X973020Y-548080D01*
X980100Y-541000D01*
G37*
G36*
X976979Y-482239D02*
G01*
X964260Y-494980D01*
X973020Y-498080D01*
X980100Y-491000D01*
G37*
G36*
X976979Y-433420D02*
G01*
X964240Y-446160D01*
X973020Y-449260D01*
X980080Y-442200D01*
G37*
G36*
X976979Y-383420D02*
G01*
X964240Y-396160D01*
X973020Y-399260D01*
X980080Y-392200D01*
G37*
G36*
X976979Y-333420D02*
G01*
X964240Y-346160D01*
X973020Y-349260D01*
X980080Y-342200D01*
G37*
G36*
X976979Y-283420D02*
G01*
X964240Y-296160D01*
X973020Y-299260D01*
X980080Y-292200D01*
G37*
G36*
X976940Y-232640D02*
G01*
X964680Y-245820D01*
X973560Y-248600D01*
X980360Y-241280D01*
G37*
G36*
X976979Y-183420D02*
G01*
X964240Y-196160D01*
X973020Y-199259D01*
X980080Y-192200D01*
G37*
D10*
X965008Y-184207D02*
G01*
X1170008Y-389207D01*
X1170008Y-615007D01*
X1755008Y-1200007D01*
X1820008Y-1200007D01*
X1870008Y-1250007D01*
X742008Y-579207D02*
G01*
X742008Y-591208D01*
X762808Y-612008D01*
X802008Y-612008D01*
X880008Y-690007D01*
X880008Y-810007D01*
X1260008Y-1190007D01*
X1260008Y-1310007D01*
X1750008Y-1800007D01*
X1820008Y-1800007D01*
X1870008Y-1850007D01*
X750008Y-1150007D02*
G01*
X795008Y-1105007D01*
X795008Y-740007D01*
X700008Y-645007D01*
X700008Y-579207D01*
X792008Y-579207D02*
G01*
X808708Y-595907D01*
X850908Y-595907D01*
X894208Y-639207D01*
X930008Y-639207D01*
X950008Y-659207D01*
X950008Y-850007D01*
X1280008Y-1180007D01*
X1280008Y-1260007D01*
X1770008Y-1750007D01*
X932008Y-569207D02*
G01*
X935008Y-569207D01*
X1010008Y-644207D01*
X1010008Y-820007D01*
X1340008Y-1150007D01*
X1340008Y-1190007D01*
X1750008Y-1600007D01*
X1820008Y-1600007D01*
X1870008Y-1650007D01*
X892008Y-569207D02*
G01*
X892008Y-576208D01*
X915008Y-599207D01*
X940008Y-599207D01*
X990008Y-649207D01*
X990008Y-830007D01*
X1320008Y-1160007D01*
X1320008Y-1200007D01*
X1770008Y-1650007D01*
X842008Y-569207D02*
G01*
X850008Y-569207D01*
X900008Y-619207D01*
X935008Y-619207D01*
X970008Y-654207D01*
X970008Y-840007D01*
X1300008Y-1170007D01*
X1300008Y-1250007D01*
X1750008Y-1700007D01*
X1820008Y-1700007D01*
X1870008Y-1750007D01*
X965008Y-533007D02*
G01*
X1030008Y-598007D01*
X1030008Y-810007D01*
X1770008Y-1550007D01*
X965008Y-483007D02*
G01*
X1050008Y-568007D01*
X1050008Y-800007D01*
X1750008Y-1500007D01*
X1820008Y-1500007D01*
X1870008Y-1550007D01*
X965008Y-233007D02*
G01*
X1150008Y-418007D01*
X1150008Y-630007D01*
X1770008Y-1250007D01*
X965008Y-284207D02*
G01*
X1130008Y-449207D01*
X1130008Y-680007D01*
X1750008Y-1300007D01*
X1820008Y-1300007D01*
X1870008Y-1350007D01*
X965008Y-334207D02*
G01*
X1110008Y-479207D01*
X1110008Y-690007D01*
X1770008Y-1350007D01*
X965008Y-384207D02*
G01*
X1090008Y-509207D01*
X1090008Y-740007D01*
X1750008Y-1400007D01*
X1820008Y-1400007D01*
X1870008Y-1450007D01*
X965008Y-434207D02*
G01*
X1070008Y-539207D01*
X1070008Y-750007D01*
X1770008Y-1450007D01*
X1214998Y-609998D02*
G01*
X1255003Y-609998D01*
X1400000Y-465000D01*
D13*
X755000Y-1897799D02*
G01*
X755000Y-1928998D01*
X902599Y-2076599D01*
D10*
X520000Y-330000D02*
G01*
X407600Y-442399D01*
X407594Y-1160590D01*
X150000Y-320000D02*
G01*
X200000Y-370000D01*
X430000Y-370000D01*
X1165008Y-210007D02*
G01*
X1165008Y-205007D01*
X1120008Y-160007D01*
X410008Y-160007D01*
X250008Y-320007D01*
D41*
G01*
X150000Y-700000D03*
G01*
X250000Y-700000D03*
G01*
X149998Y-319998D03*
G01*
X249998Y-319998D03*
G01*
X349998Y-319998D03*
G01*
X349998Y-419998D03*
G01*
X249998Y-419998D03*
G01*
X149998Y-419998D03*
G01*
X1769998Y-1149998D03*
G01*
X1869998Y-1149998D03*
G01*
X1769998Y-1249998D03*
G01*
X1869998Y-1249998D03*
G01*
X1769998Y-1349998D03*
G01*
X1869998Y-1349998D03*
G01*
X1769998Y-1449998D03*
G01*
X1869998Y-1449998D03*
G01*
X1769998Y-1549998D03*
G01*
X1869998Y-1549998D03*
G01*
X1769998Y-1649998D03*
G01*
X1869998Y-1649998D03*
G01*
X1769998Y-1749998D03*
G01*
X1869998Y-1749998D03*
G01*
X1769998Y-1849998D03*
G01*
X1869998Y-1849998D03*
G01*
X1769998Y-1949998D03*
G01*
X1869998Y-1949998D03*
D42*
G01*
X204998Y-1583377D03*
G01*
X204998Y-1504638D03*
D43*
G01*
X1216597Y-1919998D03*
G01*
X1413398Y-1919998D03*
D44*
G01*
X849998Y-1249998D03*
G01*
X749998Y-1149998D03*
G01*
X649998Y-1249998D03*
D16*
G01*
X491997Y-1810997D03*
G01*
X1633997Y-314998D03*
D17*
G01*
X1934998Y-714998D03*
G01*
X1349998Y-1502997D03*
G01*
X1200000Y-525000D03*
G01*
X1934998Y-374998D03*
G01*
X452588Y-1080587D03*
G01*
X407588Y-1160587D03*
G01*
X519998Y-329998D03*
G01*
X816997Y-669998D03*
G01*
X766997Y-669998D03*
G01*
X1399998Y-464998D03*
G01*
X1215000Y-610000D03*
D18*
G01*
X40999Y-730999D03*
D19*
G01*
X1549998Y-349998D03*
G01*
X1549998Y-399998D03*
G01*
X916997Y-789998D03*
G01*
X916997Y-674998D03*
D17*
G01*
X824998Y-1827757D03*
G01*
X754998Y-1897757D03*
G01*
X902588Y-2076597D03*
D18*
G01*
X1554118Y-630907D03*
G01*
X1694118Y-630907D03*
D17*
G01*
X1664118Y-675907D03*
G01*
X1114998Y-1657757D03*
D18*
G01*
X944998Y-1189998D03*
D17*
G01*
X641997Y-974998D03*
G01*
X741997Y-974998D03*
G01*
X1229998Y-1729998D03*
G01*
X1229998Y-224998D03*
G01*
X1200000Y-445000D03*
G01*
X1334998Y-459998D03*
D18*
G01*
X1554118Y-875907D03*
G01*
X1694118Y-875907D03*
D17*
G01*
X1664118Y-920907D03*
G01*
X1164998Y-209998D03*
G01*
X429998Y-369998D03*
G01*
X2000000Y-1900000D03*
G01*
X699998Y-579178D03*
G01*
X742018Y-579178D03*
G01*
X792018Y-579178D03*
G01*
X842018Y-569178D03*
G01*
X892018Y-569178D03*
G01*
X932018Y-569178D03*
G01*
X964998Y-532997D03*
G01*
X964998Y-482997D03*
G01*
X964998Y-434178D03*
G01*
X964998Y-384178D03*
G01*
X964998Y-334178D03*
G01*
X964998Y-284178D03*
G01*
X964998Y-233818D03*
G01*
X964998Y-184178D03*
G01*
X700000Y-200000D03*
G01*
X900000Y-500000D03*
G01*
X150000Y-1950000D03*
G01*
X1500000Y-1700000D03*
G01*
X2000000Y-1500000D03*
G01*
X2000000Y-1000000D03*
G01*
X2000000Y-200000D03*
G01*
X100000Y-200000D03*
G01*
X200000Y-1100000D03*
G01*
X500000Y-700000D03*
G01*
X1680000Y-1695000D03*
G01*
X1680000Y-1595000D03*
G01*
X1680000Y-1495000D03*
G01*
X1680000Y-1395000D03*
G01*
X1680000Y-1295000D03*
G01*
X1685000Y-1200000D03*
G01*
X1350000Y-1365000D03*
G01*
X1350000Y-1265000D03*
G01*
X1425000Y-1240000D03*
G01*
X1350000Y-1065000D03*
G01*
X1350000Y-965000D03*
G01*
X1350000Y-865000D03*
G01*
X1350000Y-755000D03*
G01*
X1200000Y-715000D03*
G01*
X1130000Y-745000D03*
G01*
X1085000Y-800000D03*
G01*
X515000Y-235000D03*
G01*
X515000Y-185000D03*
G01*
X250000Y-255000D03*
G01*
X370000Y-260000D03*
G01*
X900000Y-1500000D03*
G01*
X600000Y-1500000D03*
G01*
X960000Y-1660000D03*
G01*
X990000Y-1660000D03*
G01*
X960000Y-1690000D03*
G01*
X960000Y-1720000D03*
G01*
X990000Y-1690000D03*
G01*
X990000Y-1720000D03*
G01*
X790000Y-1782799D03*
G01*
X790000Y-1755000D03*
G01*
X790000Y-1810000D03*
G01*
X817000Y-1782999D03*
G01*
X1155000Y-1190000D03*
G01*
X1127000Y-1175999D03*
G01*
X1155000Y-1161999D03*
G01*
X1182999Y-1175999D03*
G01*
X1182999Y-1204000D03*
G01*
X1127000Y-1204000D03*
G01*
X1155000Y-1217999D03*
D45*
X1452797Y-2011727D02*
G01*
X1452797Y-2039290D01*
X1177198Y-2011716D02*
G01*
X1177198Y-2039279D01*
M02*
