G04 Layer: TopSolderMaskLayer*
G04 EasyEDA v6.4.19.5, 2021-05-22T15:42:10+02:00*
G04 f6fe8073f4d6445e90d350db08ac70cc,b771c775d4444e86a06a5321f8c966cb,10*
G04 Gerber Generator version 0.2*
G04 Scale: 100 percent, Rotated: No, Reflected: No *
G04 Dimensions in inches *
G04 leading zeros omitted , absolute positions ,3 integer and 6 decimal *
%FSLAX36Y36*%
%MOIN*%

%ADD51C,0.0512*%
%ADD52C,0.0710*%
%ADD53C,0.0710*%
%ADD65C,0.0572*%
%ADD76C,0.0671*%

%LPD*%
D51*
X1452797Y-2011727D02*
G01*
X1452797Y-2039290D01*
X1177198Y-2011716D02*
G01*
X1177198Y-2039279D01*
D52*
G01*
X150000Y-700000D03*
G01*
X250000Y-700000D03*
G01*
X149998Y-319998D03*
G01*
X249998Y-319998D03*
G01*
X349998Y-319998D03*
G01*
X349998Y-419998D03*
G01*
X249998Y-419998D03*
G01*
X149998Y-419998D03*
G01*
X1769998Y-1149998D03*
G01*
X1869998Y-1149998D03*
G01*
X1769998Y-1249998D03*
G01*
X1869998Y-1249998D03*
G01*
X1769998Y-1349998D03*
G01*
X1869998Y-1349998D03*
G01*
X1769998Y-1449998D03*
G01*
X1869998Y-1449998D03*
G01*
X1769998Y-1549998D03*
G01*
X1869998Y-1549998D03*
G01*
X1769998Y-1649998D03*
G01*
X1869998Y-1649998D03*
G01*
X1769998Y-1749998D03*
G01*
X1869998Y-1749998D03*
G01*
X1769998Y-1849998D03*
G01*
X1869998Y-1849998D03*
G01*
X1769998Y-1949998D03*
G01*
X1869998Y-1949998D03*
D53*
G01*
X204998Y-1583377D03*
G01*
X204998Y-1504638D03*
G36*
X987707Y-1211707D02*
G01*
X987707Y-1168307D01*
X1027207Y-1168307D01*
X1027207Y-1211707D01*
G37*
G36*
X1042808Y-1211707D02*
G01*
X1042808Y-1168307D01*
X1082307Y-1168307D01*
X1082307Y-1211707D01*
G37*
G36*
X712808Y-1804508D02*
G01*
X712808Y-1761008D01*
X752307Y-1761008D01*
X752307Y-1804508D01*
G37*
G36*
X657707Y-1804508D02*
G01*
X657707Y-1761008D01*
X697207Y-1761008D01*
X697207Y-1804508D01*
G37*
G36*
X920808Y-1937507D02*
G01*
X920808Y-1898007D01*
X948507Y-1898007D01*
X948507Y-1937507D01*
G37*
G36*
X881507Y-1937507D02*
G01*
X881507Y-1898007D01*
X909208Y-1898007D01*
X909208Y-1937507D01*
G37*
G36*
X1726407Y-675607D02*
G01*
X1726407Y-596808D01*
X1781708Y-596808D01*
X1781708Y-675607D01*
G37*
G36*
X1466608Y-675607D02*
G01*
X1466608Y-596808D01*
X1521807Y-596808D01*
X1521807Y-675607D01*
G37*
G36*
X1529608Y-770108D02*
G01*
X1529608Y-701107D01*
X1561208Y-701107D01*
X1561208Y-770108D01*
G37*
G36*
X1568907Y-770108D02*
G01*
X1568907Y-701107D01*
X1600607Y-701107D01*
X1600607Y-770108D01*
G37*
G36*
X1608308Y-770108D02*
G01*
X1608308Y-701107D01*
X1639908Y-701107D01*
X1639908Y-770108D01*
G37*
G36*
X1647707Y-770108D02*
G01*
X1647707Y-701107D01*
X1679307Y-701107D01*
X1679307Y-770108D01*
G37*
G36*
X1687008Y-770108D02*
G01*
X1687008Y-701107D01*
X1718708Y-701107D01*
X1718708Y-770108D01*
G37*
G36*
X20208Y-883508D02*
G01*
X20208Y-855807D01*
X59708Y-855807D01*
X59708Y-883508D01*
G37*
G36*
X20208Y-844207D02*
G01*
X20208Y-816507D01*
X59708Y-816507D01*
X59708Y-844207D01*
G37*
G36*
X20208Y-604108D02*
G01*
X20208Y-576507D01*
X59708Y-576507D01*
X59708Y-604108D01*
G37*
G36*
X20208Y-643508D02*
G01*
X20208Y-615807D01*
X59708Y-615807D01*
X59708Y-643508D01*
G37*
G36*
X622207Y-948508D02*
G01*
X622207Y-920807D01*
X661708Y-920807D01*
X661708Y-948508D01*
G37*
G36*
X622207Y-909108D02*
G01*
X622207Y-881507D01*
X661708Y-881507D01*
X661708Y-909108D01*
G37*
G36*
X722207Y-948508D02*
G01*
X722207Y-920807D01*
X761708Y-920807D01*
X761708Y-948508D01*
G37*
G36*
X722207Y-909108D02*
G01*
X722207Y-881507D01*
X761708Y-881507D01*
X761708Y-909108D01*
G37*
G36*
X805207Y-1916307D02*
G01*
X805207Y-1888607D01*
X844707Y-1888607D01*
X844707Y-1916307D01*
G37*
G36*
X805207Y-1876907D02*
G01*
X805207Y-1849207D01*
X844707Y-1849207D01*
X844707Y-1876907D01*
G37*
G36*
X1107707Y-1511808D02*
G01*
X1107707Y-1444708D01*
X1202307Y-1444708D01*
X1202307Y-1511808D01*
G37*
G36*
X1107707Y-1295308D02*
G01*
X1107707Y-1228207D01*
X1202307Y-1228207D01*
X1202307Y-1295308D01*
G37*
G36*
X955207Y-1636307D02*
G01*
X955207Y-1608607D01*
X994707Y-1608607D01*
X994707Y-1636307D01*
G37*
G36*
X955207Y-1596907D02*
G01*
X955207Y-1569207D01*
X994707Y-1569207D01*
X994707Y-1596907D01*
G37*
G36*
X836608Y-1769908D02*
G01*
X836608Y-1691008D01*
X923408Y-1691008D01*
X923408Y-1769908D01*
G37*
G36*
X836608Y-1604508D02*
G01*
X836608Y-1525607D01*
X923408Y-1525607D01*
X923408Y-1604508D01*
G37*
G36*
X243107Y-1364108D02*
G01*
X243107Y-1336408D01*
X282508Y-1336408D01*
X282508Y-1364108D01*
G37*
G36*
X243107Y-1324708D02*
G01*
X243107Y-1297107D01*
X282508Y-1297107D01*
X282508Y-1324708D01*
G37*
G36*
X432808Y-1219708D02*
G01*
X432808Y-1192107D01*
X472307Y-1192107D01*
X472307Y-1219708D01*
G37*
G36*
X432808Y-1259108D02*
G01*
X432808Y-1231408D01*
X472307Y-1231408D01*
X472307Y-1259108D01*
G37*
G36*
X432808Y-1134708D02*
G01*
X432808Y-1107107D01*
X472307Y-1107107D01*
X472307Y-1134708D01*
G37*
G36*
X432808Y-1174108D02*
G01*
X432808Y-1146408D01*
X472307Y-1146408D01*
X472307Y-1174108D01*
G37*
G36*
X1040207Y-1796907D02*
G01*
X1040207Y-1769207D01*
X1079707Y-1769207D01*
X1079707Y-1796907D01*
G37*
G36*
X1040207Y-1836307D02*
G01*
X1040207Y-1808607D01*
X1079707Y-1808607D01*
X1079707Y-1836307D01*
G37*
G36*
X619108Y-854407D02*
G01*
X619108Y-775607D01*
X666507Y-775607D01*
X666507Y-854407D01*
G37*
G36*
X717508Y-854407D02*
G01*
X717508Y-775607D01*
X764908Y-775607D01*
X764908Y-854407D01*
G37*
G36*
X1255207Y-1741907D02*
G01*
X1255207Y-1714207D01*
X1294707Y-1714207D01*
X1294707Y-1741907D01*
G37*
G36*
X1255207Y-1781307D02*
G01*
X1255207Y-1753607D01*
X1294707Y-1753607D01*
X1294707Y-1781307D01*
G37*
G36*
X1310207Y-1741907D02*
G01*
X1310207Y-1714207D01*
X1349707Y-1714207D01*
X1349707Y-1741907D01*
G37*
G36*
X1310207Y-1781307D02*
G01*
X1310207Y-1753607D01*
X1349707Y-1753607D01*
X1349707Y-1781307D01*
G37*
G36*
X1425808Y-418807D02*
G01*
X1425808Y-381208D01*
X1524307Y-381208D01*
X1524307Y-418807D01*
G37*
G36*
X1268308Y-418807D02*
G01*
X1268308Y-381208D01*
X1366907Y-381208D01*
X1366907Y-418807D01*
G37*
G36*
X1425808Y-368807D02*
G01*
X1425808Y-331208D01*
X1524307Y-331208D01*
X1524307Y-368807D01*
G37*
G36*
X1268308Y-368807D02*
G01*
X1268308Y-331208D01*
X1366907Y-331208D01*
X1366907Y-368807D01*
G37*
G36*
X1425808Y-318807D02*
G01*
X1425808Y-281208D01*
X1524307Y-281208D01*
X1524307Y-318807D01*
G37*
G36*
X1268308Y-318807D02*
G01*
X1268308Y-281208D01*
X1366907Y-281208D01*
X1366907Y-318807D01*
G37*
G36*
X1425808Y-268807D02*
G01*
X1425808Y-231208D01*
X1524307Y-231208D01*
X1524307Y-268807D01*
G37*
G36*
X1268308Y-268807D02*
G01*
X1268308Y-231208D01*
X1366907Y-231208D01*
X1366907Y-268807D01*
G37*
G36*
X1425808Y-218807D02*
G01*
X1425808Y-181208D01*
X1524307Y-181208D01*
X1524307Y-218807D01*
G37*
G36*
X1268308Y-218807D02*
G01*
X1268308Y-181208D01*
X1366907Y-181208D01*
X1366907Y-218807D01*
G37*
G36*
X1244108Y-2062107D02*
G01*
X1244108Y-1983307D01*
X1307108Y-1983307D01*
X1307108Y-2062107D01*
G37*
G36*
X1356308Y-1947608D02*
G01*
X1356308Y-1892408D01*
X1376107Y-1892408D01*
X1376107Y-1947608D01*
G37*
G36*
X1330707Y-1947608D02*
G01*
X1330707Y-1892408D01*
X1350508Y-1892408D01*
X1350508Y-1947608D01*
G37*
G36*
X1305108Y-1947608D02*
G01*
X1305108Y-1892408D01*
X1324908Y-1892408D01*
X1324908Y-1947608D01*
G37*
G36*
X1279508Y-1947608D02*
G01*
X1279508Y-1892408D01*
X1299307Y-1892408D01*
X1299307Y-1947608D01*
G37*
G36*
X1254007Y-1947608D02*
G01*
X1254007Y-1892408D01*
X1273708Y-1892408D01*
X1273708Y-1947608D01*
G37*
G36*
X1322808Y-2062107D02*
G01*
X1322808Y-1983307D01*
X1385908Y-1983307D01*
X1385908Y-2062107D01*
G37*
D65*
G01*
X1216597Y-1919998D03*
G01*
X1413398Y-1919998D03*
G36*
X924307Y-646208D02*
G01*
X924307Y-595007D01*
X959807Y-595007D01*
X959807Y-646208D01*
G37*
G36*
X874307Y-646208D02*
G01*
X874307Y-595007D01*
X909807Y-595007D01*
X909807Y-646208D01*
G37*
G36*
X824307Y-646208D02*
G01*
X824307Y-595007D01*
X859807Y-595007D01*
X859807Y-646208D01*
G37*
G36*
X774307Y-646208D02*
G01*
X774307Y-595007D01*
X809807Y-595007D01*
X809807Y-646208D01*
G37*
G36*
X724307Y-646208D02*
G01*
X724307Y-595007D01*
X759807Y-595007D01*
X759807Y-646208D01*
G37*
G36*
X674307Y-646208D02*
G01*
X674307Y-595007D01*
X709807Y-595007D01*
X709807Y-646208D01*
G37*
G36*
X974208Y-646208D02*
G01*
X974208Y-595007D01*
X1009707Y-595007D01*
X1009707Y-646208D01*
G37*
G36*
X981708Y-451608D02*
G01*
X981708Y-416107D01*
X1033008Y-416107D01*
X1033008Y-451608D01*
G37*
G36*
X981708Y-401608D02*
G01*
X981708Y-366107D01*
X1033008Y-366107D01*
X1033008Y-401608D01*
G37*
G36*
X981708Y-351608D02*
G01*
X981708Y-316107D01*
X1033008Y-316107D01*
X1033008Y-351608D01*
G37*
G36*
X981708Y-301608D02*
G01*
X981708Y-266107D01*
X1033008Y-266107D01*
X1033008Y-301608D01*
G37*
G36*
X981708Y-251608D02*
G01*
X981708Y-216107D01*
X1033008Y-216107D01*
X1033008Y-251608D01*
G37*
G36*
X981708Y-201608D02*
G01*
X981708Y-166107D01*
X1033008Y-166107D01*
X1033008Y-201608D01*
G37*
G36*
X981708Y-501608D02*
G01*
X981708Y-466107D01*
X1033008Y-466107D01*
X1033008Y-501608D01*
G37*
G36*
X981708Y-551608D02*
G01*
X981708Y-516107D01*
X1033008Y-516107D01*
X1033008Y-551608D01*
G37*
G36*
X544707Y-576608D02*
G01*
X544707Y-541107D01*
X627408Y-541107D01*
X627408Y-576608D01*
G37*
G36*
X544707Y-626608D02*
G01*
X544707Y-591107D01*
X627508Y-591107D01*
X627508Y-626608D01*
G37*
G36*
X544707Y-526608D02*
G01*
X544707Y-491107D01*
X627508Y-491107D01*
X627508Y-526608D01*
G37*
G36*
X544707Y-476608D02*
G01*
X544707Y-441107D01*
X627508Y-441107D01*
X627508Y-476608D01*
G37*
G36*
X544707Y-426608D02*
G01*
X544707Y-391107D01*
X627508Y-391107D01*
X627508Y-426608D01*
G37*
G36*
X544707Y-376608D02*
G01*
X544707Y-341107D01*
X627508Y-341107D01*
X627508Y-376608D01*
G37*
G36*
X544707Y-326608D02*
G01*
X544707Y-291107D01*
X627508Y-291107D01*
X627508Y-326608D01*
G37*
G36*
X544707Y-276608D02*
G01*
X544707Y-241107D01*
X627508Y-241107D01*
X627508Y-276608D01*
G37*
G36*
X544707Y-226608D02*
G01*
X544707Y-191107D01*
X627508Y-191107D01*
X627508Y-226608D01*
G37*
G36*
X544707Y-176608D02*
G01*
X544707Y-141107D01*
X627508Y-141107D01*
X627508Y-176608D01*
G37*
G36*
X1056507Y-226608D02*
G01*
X1056507Y-191107D01*
X1139307Y-191107D01*
X1139307Y-226608D01*
G37*
G36*
X1056507Y-176608D02*
G01*
X1056507Y-141107D01*
X1139307Y-141107D01*
X1139307Y-176608D01*
G37*
G36*
X1056507Y-276608D02*
G01*
X1056507Y-241107D01*
X1139307Y-241107D01*
X1139307Y-276608D01*
G37*
G36*
X1056507Y-326608D02*
G01*
X1056507Y-291107D01*
X1139307Y-291107D01*
X1139307Y-326608D01*
G37*
G36*
X1056507Y-376608D02*
G01*
X1056507Y-341107D01*
X1139307Y-341107D01*
X1139307Y-376608D01*
G37*
G36*
X1056507Y-426608D02*
G01*
X1056507Y-391107D01*
X1139307Y-391107D01*
X1139307Y-426608D01*
G37*
G36*
X1056507Y-476608D02*
G01*
X1056507Y-441107D01*
X1139307Y-441107D01*
X1139307Y-476608D01*
G37*
G36*
X1056507Y-526608D02*
G01*
X1056507Y-491107D01*
X1139307Y-491107D01*
X1139307Y-526608D01*
G37*
G36*
X1056507Y-576608D02*
G01*
X1056507Y-541107D01*
X1139307Y-541107D01*
X1139307Y-576608D01*
G37*
G36*
X1056507Y-626608D02*
G01*
X1056507Y-591107D01*
X1139307Y-591107D01*
X1139307Y-626608D01*
G37*
G36*
X649208Y-752507D02*
G01*
X649208Y-669807D01*
X684707Y-669807D01*
X684707Y-752507D01*
G37*
G36*
X699208Y-752507D02*
G01*
X699208Y-669807D01*
X734707Y-669807D01*
X734707Y-752507D01*
G37*
G36*
X749208Y-752507D02*
G01*
X749208Y-669807D01*
X784707Y-669807D01*
X784707Y-752507D01*
G37*
G36*
X799208Y-752507D02*
G01*
X799208Y-669807D01*
X834707Y-669807D01*
X834707Y-752507D01*
G37*
G36*
X849208Y-752507D02*
G01*
X849208Y-669807D01*
X884707Y-669807D01*
X884707Y-752507D01*
G37*
G36*
X899208Y-752507D02*
G01*
X899208Y-669807D01*
X934707Y-669807D01*
X934707Y-752507D01*
G37*
G36*
X949208Y-752507D02*
G01*
X949208Y-669807D01*
X984707Y-669807D01*
X984707Y-752507D01*
G37*
G36*
X999208Y-752507D02*
G01*
X999208Y-669807D01*
X1034707Y-669807D01*
X1034707Y-752507D01*
G37*
G36*
X1124508Y-1598207D02*
G01*
X1124508Y-1572507D01*
X1167908Y-1572507D01*
X1167908Y-1598207D01*
G37*
G36*
X1124508Y-1673007D02*
G01*
X1124508Y-1647307D01*
X1167908Y-1647307D01*
X1167908Y-1673007D01*
G37*
G36*
X1022108Y-1673007D02*
G01*
X1022108Y-1647307D01*
X1065508Y-1647307D01*
X1065508Y-1673007D01*
G37*
G36*
X1022108Y-1635607D02*
G01*
X1022108Y-1609908D01*
X1065508Y-1609908D01*
X1065508Y-1635607D01*
G37*
G36*
X1022108Y-1598207D02*
G01*
X1022108Y-1572507D01*
X1065508Y-1572507D01*
X1065508Y-1598207D01*
G37*
G36*
X744608Y-1985607D02*
G01*
X744608Y-1942208D01*
X770207Y-1942208D01*
X770207Y-1985607D01*
G37*
G36*
X669807Y-1985607D02*
G01*
X669807Y-1942208D01*
X695408Y-1942208D01*
X695408Y-1985607D01*
G37*
G36*
X669807Y-1883307D02*
G01*
X669807Y-1839908D01*
X695408Y-1839908D01*
X695408Y-1883307D01*
G37*
G36*
X707207Y-1883307D02*
G01*
X707207Y-1839908D01*
X732808Y-1839908D01*
X732808Y-1883307D01*
G37*
G36*
X744608Y-1883307D02*
G01*
X744608Y-1839908D01*
X770207Y-1839908D01*
X770207Y-1883307D01*
G37*
G36*
X290808Y-1389708D02*
G01*
X290808Y-1346307D01*
X349908Y-1346307D01*
X349908Y-1389708D01*
G37*
G36*
X385308Y-1352307D02*
G01*
X385308Y-1308908D01*
X444407Y-1308908D01*
X444407Y-1352307D01*
G37*
G36*
X290808Y-1314908D02*
G01*
X290808Y-1271507D01*
X349908Y-1271507D01*
X349908Y-1314908D01*
G37*
G36*
X714707Y-1642008D02*
G01*
X714707Y-1598708D01*
X773808Y-1598708D01*
X773808Y-1642008D01*
G37*
G36*
X620207Y-1679407D02*
G01*
X620207Y-1636107D01*
X679307Y-1636107D01*
X679307Y-1679407D01*
G37*
G36*
X714707Y-1716808D02*
G01*
X714707Y-1673508D01*
X773808Y-1673508D01*
X773808Y-1716808D01*
G37*
G36*
X22208Y-1031208D02*
G01*
X22208Y-995707D01*
X57708Y-995707D01*
X57708Y-1031208D01*
G37*
G36*
X22208Y-964207D02*
G01*
X22208Y-928708D01*
X57708Y-928708D01*
X57708Y-964207D01*
G37*
G36*
X22208Y-464207D02*
G01*
X22208Y-428708D01*
X57708Y-428708D01*
X57708Y-464207D01*
G37*
G36*
X22208Y-531208D02*
G01*
X22208Y-495707D01*
X57708Y-495707D01*
X57708Y-531208D01*
G37*
G36*
X993308Y-2094308D02*
G01*
X993308Y-2058807D01*
X1028808Y-2058807D01*
X1028808Y-2094308D01*
G37*
G36*
X926308Y-2094308D02*
G01*
X926308Y-2058807D01*
X961807Y-2058807D01*
X961807Y-2094308D01*
G37*
G36*
X1960008Y-421907D02*
G01*
X1960008Y-394308D01*
X2011208Y-394308D01*
X2011208Y-421907D01*
G37*
G36*
X1960008Y-555707D02*
G01*
X1960008Y-528107D01*
X2011208Y-528107D01*
X2011208Y-555707D01*
G37*
G36*
X2034807Y-417907D02*
G01*
X2034807Y-366707D01*
X2090008Y-366707D01*
X2090008Y-417907D01*
G37*
G36*
X2034807Y-583307D02*
G01*
X2034807Y-532008D01*
X2090008Y-532008D01*
X2090008Y-583307D01*
G37*
G36*
X1960008Y-756907D02*
G01*
X1960008Y-729308D01*
X2011208Y-729308D01*
X2011208Y-756907D01*
G37*
G36*
X1960008Y-890707D02*
G01*
X1960008Y-863107D01*
X2011208Y-863107D01*
X2011208Y-890707D01*
G37*
G36*
X2034807Y-752907D02*
G01*
X2034807Y-701707D01*
X2090008Y-701707D01*
X2090008Y-752907D01*
G37*
G36*
X2034807Y-918307D02*
G01*
X2034807Y-867008D01*
X2090008Y-867008D01*
X2090008Y-918307D01*
G37*
G36*
X1726407Y-920607D02*
G01*
X1726407Y-841808D01*
X1781708Y-841808D01*
X1781708Y-920607D01*
G37*
G36*
X1466608Y-920607D02*
G01*
X1466608Y-841808D01*
X1521807Y-841808D01*
X1521807Y-920607D01*
G37*
G36*
X1529608Y-1015108D02*
G01*
X1529608Y-946107D01*
X1561208Y-946107D01*
X1561208Y-1015108D01*
G37*
G36*
X1568907Y-1015108D02*
G01*
X1568907Y-946107D01*
X1600607Y-946107D01*
X1600607Y-1015108D01*
G37*
G36*
X1608308Y-1015108D02*
G01*
X1608308Y-946107D01*
X1639908Y-946107D01*
X1639908Y-1015108D01*
G37*
G36*
X1647707Y-1015108D02*
G01*
X1647707Y-946107D01*
X1679307Y-946107D01*
X1679307Y-1015108D01*
G37*
G36*
X1687008Y-1015108D02*
G01*
X1687008Y-946107D01*
X1718708Y-946107D01*
X1718708Y-1015108D01*
G37*
D76*
G01*
X849998Y-1249998D03*
G01*
X749998Y-1149998D03*
G01*
X649998Y-1249998D03*
M02*
