G04 Layer: TopPasteMaskLayer*
G04 EasyEDA v6.4.19.5, 2021-05-22T15:42:10+02:00*
G04 f6fe8073f4d6445e90d350db08ac70cc,b771c775d4444e86a06a5321f8c966cb,10*
G04 Gerber Generator version 0.2*
G04 Scale: 100 percent, Rotated: No, Reflected: No *
G04 Dimensions in inches *
G04 leading zeros omitted , absolute positions ,3 integer and 6 decimal *
%FSLAX36Y36*%
%MOIN*%

%ADD20R,0.0315X0.0354*%
%ADD22R,0.0472X0.0709*%
%ADD23R,0.0236X0.0610*%
%ADD24R,0.0315X0.0197*%
%ADD25R,0.0866X0.0591*%
%ADD26R,0.0787X0.0709*%
%ADD27R,0.0394X0.0709*%
%ADD28R,0.0906X0.0295*%
%ADD31R,0.0315X0.0472*%
%ADD33R,0.0787X0.0315*%
%ADD34R,0.0315X0.0787*%
%ADD35R,0.0394X0.0217*%
%ADD36R,0.0217X0.0394*%
%ADD37R,0.0551X0.0394*%
%ADD38R,0.0315X0.0315*%
%ADD40R,0.0512X0.0472*%

%LPD*%
G36*
X991694Y-1172282D02*
G01*
X1023189Y-1172282D01*
X1023189Y-1207716D01*
X991694Y-1207716D01*
G37*
G36*
X1046812Y-1172282D02*
G01*
X1078308Y-1172282D01*
X1078308Y-1207716D01*
X1046812Y-1207716D01*
G37*
D20*
G01*
X732558Y-1782757D03*
G01*
X677437Y-1782757D03*
G36*
X924843Y-1902006D02*
G01*
X944528Y-1902006D01*
X944528Y-1933503D01*
X924843Y-1933503D01*
G37*
G36*
X885473Y-1902006D02*
G01*
X905158Y-1902006D01*
X905158Y-1933503D01*
X885473Y-1933503D01*
G37*
D22*
G01*
X1754037Y-636197D03*
G01*
X1494198Y-636197D03*
D23*
G01*
X1545377Y-735607D03*
G01*
X1584748Y-735607D03*
G01*
X1624118Y-735607D03*
G01*
X1663488Y-735607D03*
G01*
X1702858Y-735607D03*
D24*
G01*
X39998Y-869688D03*
G01*
X39998Y-830317D03*
G01*
X39998Y-590317D03*
G01*
X39998Y-629688D03*
G01*
X642008Y-934677D03*
G01*
X642008Y-895308D03*
G01*
X742008Y-934677D03*
G01*
X742008Y-895308D03*
G01*
X824998Y-1902437D03*
G01*
X824998Y-1863067D03*
D25*
G01*
X1154998Y-1478267D03*
G01*
X1154998Y-1261727D03*
D24*
G01*
X975008Y-1622437D03*
G01*
X975008Y-1583067D03*
D26*
G01*
X879998Y-1730437D03*
G01*
X879998Y-1565077D03*
D24*
G01*
X262808Y-1350268D03*
G01*
X262808Y-1310897D03*
G01*
X452598Y-1205907D03*
G01*
X452598Y-1245277D03*
G01*
X452598Y-1120907D03*
G01*
X452598Y-1160277D03*
G01*
X1059998Y-1783067D03*
G01*
X1059998Y-1822437D03*
D27*
G01*
X642787Y-814998D03*
G01*
X741218Y-814998D03*
D24*
G01*
X1274998Y-1728067D03*
G01*
X1274998Y-1767437D03*
G01*
X1329998Y-1728067D03*
G01*
X1329998Y-1767437D03*
D28*
G01*
X1475037Y-399998D03*
G01*
X1317577Y-399998D03*
G01*
X1475037Y-349998D03*
G01*
X1317577Y-349998D03*
G01*
X1475037Y-299998D03*
G01*
X1317577Y-299998D03*
G01*
X1475037Y-249998D03*
G01*
X1317577Y-249998D03*
G01*
X1475037Y-199998D03*
G01*
X1317577Y-199998D03*
G36*
X1246101Y-1985344D02*
G01*
X1305157Y-1985344D01*
X1305157Y-2060146D01*
X1246101Y-2060146D01*
G37*
G36*
X1358300Y-1894399D02*
G01*
X1374100Y-1894399D01*
X1374100Y-1945599D01*
X1358300Y-1945599D01*
G37*
G36*
X1332701Y-1894399D02*
G01*
X1348501Y-1894399D01*
X1348501Y-1945599D01*
X1332701Y-1945599D01*
G37*
G36*
X1307131Y-1894409D02*
G01*
X1322871Y-1894409D01*
X1322871Y-1945590D01*
X1307131Y-1945590D01*
G37*
G36*
X1281501Y-1894399D02*
G01*
X1297301Y-1894399D01*
X1297301Y-1945599D01*
X1281501Y-1945599D01*
G37*
G36*
X1256001Y-1894399D02*
G01*
X1271700Y-1894399D01*
X1271700Y-1945599D01*
X1256001Y-1945599D01*
G37*
G36*
X1324843Y-1985353D02*
G01*
X1383898Y-1985353D01*
X1383898Y-2060155D01*
X1324843Y-2060155D01*
G37*
D31*
G01*
X942018Y-620628D03*
G01*
X892018Y-620628D03*
G01*
X842018Y-620628D03*
G01*
X792018Y-620628D03*
G01*
X742018Y-620628D03*
G01*
X692018Y-620628D03*
G01*
X992008Y-620628D03*
G36*
X983736Y-418069D02*
G01*
X1030975Y-418069D01*
X1030975Y-449569D01*
X983736Y-449569D01*
G37*
G36*
X983736Y-368069D02*
G01*
X1030975Y-368069D01*
X1030975Y-399569D01*
X983736Y-399569D01*
G37*
G36*
X983736Y-318069D02*
G01*
X1030975Y-318069D01*
X1030975Y-349569D01*
X983736Y-349569D01*
G37*
G36*
X983736Y-268069D02*
G01*
X1030975Y-268069D01*
X1030975Y-299569D01*
X983736Y-299569D01*
G37*
G36*
X983736Y-218069D02*
G01*
X1030975Y-218069D01*
X1030975Y-249569D01*
X983736Y-249569D01*
G37*
G36*
X983736Y-168068D02*
G01*
X1030975Y-168068D01*
X1030975Y-199569D01*
X983736Y-199569D01*
G37*
G36*
X983736Y-468069D02*
G01*
X1030975Y-468069D01*
X1030975Y-499569D01*
X983736Y-499569D01*
G37*
G36*
X983736Y-518069D02*
G01*
X1030975Y-518069D01*
X1030975Y-549569D01*
X983736Y-549569D01*
G37*
G36*
X546716Y-543068D02*
G01*
X625455Y-543068D01*
X625455Y-574569D01*
X546716Y-574569D01*
G37*
G36*
X546726Y-593069D02*
G01*
X625466Y-593069D01*
X625466Y-624569D01*
X546726Y-624569D01*
G37*
G36*
X546726Y-493069D02*
G01*
X625466Y-493069D01*
X625466Y-524569D01*
X546726Y-524569D01*
G37*
G36*
X546726Y-443069D02*
G01*
X625466Y-443069D01*
X625466Y-474569D01*
X546726Y-474569D01*
G37*
G36*
X546726Y-393069D02*
G01*
X625466Y-393069D01*
X625466Y-424569D01*
X546726Y-424569D01*
G37*
G36*
X546726Y-343069D02*
G01*
X625466Y-343069D01*
X625466Y-374569D01*
X546726Y-374569D01*
G37*
G36*
X546726Y-293069D02*
G01*
X625466Y-293069D01*
X625466Y-324569D01*
X546726Y-324569D01*
G37*
G36*
X546726Y-243069D02*
G01*
X625466Y-243069D01*
X625466Y-274569D01*
X546726Y-274569D01*
G37*
G36*
X546726Y-193069D02*
G01*
X625466Y-193069D01*
X625466Y-224569D01*
X546726Y-224569D01*
G37*
G36*
X546726Y-143069D02*
G01*
X625466Y-143069D01*
X625466Y-174569D01*
X546726Y-174569D01*
G37*
D33*
G01*
X1097918Y-208818D03*
G01*
X1097908Y-158818D03*
G01*
X1097908Y-258818D03*
G01*
X1097908Y-308818D03*
G01*
X1097908Y-358818D03*
G01*
X1097908Y-408818D03*
G01*
X1097908Y-458818D03*
G01*
X1097908Y-508818D03*
G01*
X1097908Y-558818D03*
G01*
X1097908Y-608818D03*
D34*
G01*
X667008Y-711177D03*
G01*
X717008Y-711177D03*
G01*
X767008Y-711177D03*
G01*
X817008Y-711177D03*
G01*
X867008Y-711177D03*
G01*
X917008Y-711177D03*
G01*
X967008Y-711177D03*
G01*
X1017008Y-711177D03*
D35*
G01*
X1146178Y-1585358D03*
G01*
X1146178Y-1660158D03*
G01*
X1043817Y-1660158D03*
G01*
X1043817Y-1622757D03*
G01*
X1043817Y-1585358D03*
D36*
G01*
X757397Y-1963937D03*
G01*
X682598Y-1963937D03*
G01*
X682598Y-1861577D03*
G01*
X719998Y-1861577D03*
G01*
X757397Y-1861577D03*
G36*
X292789Y-1348303D02*
G01*
X347908Y-1348303D01*
X347908Y-1387673D01*
X292789Y-1387673D01*
G37*
G36*
X387279Y-1310904D02*
G01*
X442397Y-1310904D01*
X442397Y-1350273D01*
X387279Y-1350273D01*
G37*
G36*
X292789Y-1273503D02*
G01*
X347908Y-1273503D01*
X347908Y-1312874D01*
X292789Y-1312874D01*
G37*
D37*
G01*
X744248Y-1620358D03*
G01*
X649757Y-1657757D03*
G01*
X744248Y-1695158D03*
G36*
X24253Y-997752D02*
G01*
X55749Y-997752D01*
X55749Y-1029247D01*
X24253Y-1029247D01*
G37*
G36*
X24253Y-930751D02*
G01*
X55749Y-930751D01*
X55749Y-962247D01*
X24253Y-962247D01*
G37*
D38*
G01*
X39998Y-446498D03*
G01*
X39998Y-513497D03*
G01*
X1011097Y-2076588D03*
G01*
X944097Y-2076588D03*
G36*
X1961992Y-396259D02*
G01*
X2009236Y-396259D01*
X2009236Y-419881D01*
X1961992Y-419881D01*
G37*
G36*
X1961992Y-530117D02*
G01*
X2009236Y-530117D01*
X2009236Y-553739D01*
X1961992Y-553739D01*
G37*
D40*
G01*
X2062387Y-392327D03*
G01*
X2062387Y-557678D03*
G36*
X1961992Y-731259D02*
G01*
X2009236Y-731259D01*
X2009236Y-754881D01*
X1961992Y-754881D01*
G37*
G36*
X1961992Y-865117D02*
G01*
X2009236Y-865117D01*
X2009236Y-888739D01*
X1961992Y-888739D01*
G37*
G01*
X2062387Y-727327D03*
G01*
X2062387Y-892678D03*
D22*
G01*
X1754037Y-881197D03*
G01*
X1494198Y-881197D03*
D23*
G01*
X1545377Y-980607D03*
G01*
X1584748Y-980607D03*
G01*
X1624118Y-980607D03*
G01*
X1663488Y-980607D03*
G01*
X1702858Y-980607D03*
M02*
