G04 Layer: BottomSolderMaskLayer*
G04 EasyEDA v6.4.19.5, 2021-05-22T15:38:53+02:00*
G04 3629cfa7d52e4947b918c6b19203bcd8,b771c775d4444e86a06a5321f8c966cb,10*
G04 Gerber Generator version 0.2*
G04 Scale: 100 percent, Rotated: No, Reflected: No *
G04 Dimensions in inches *
G04 leading zeros omitted , absolute positions ,3 integer and 6 decimal *
%FSLAX36Y36*%
%MOIN*%

%ADD59C,0.0512*%
%ADD61C,0.0710*%
%ADD71C,0.0572*%
%ADD82C,0.0946*%
%ADD84C,0.0710*%
%ADD89C,0.0671*%

%LPD*%
D59*
X2327799Y-1941729D02*
G01*
X2327799Y-1969292D01*
X2052200Y-1941718D02*
G01*
X2052200Y-1969281D01*
D61*
G01*
X2950000Y-1000000D03*
G01*
X2950000Y-1100000D03*
G01*
X2950000Y-1200000D03*
G01*
X2950000Y-1300000D03*
G01*
X2950000Y-1400000D03*
G01*
X2950000Y-1500000D03*
G01*
X2950000Y-1600000D03*
G01*
X2850000Y-1600000D03*
G01*
X2850000Y-1500000D03*
G01*
X2850000Y-1400000D03*
G01*
X2850000Y-1300000D03*
G01*
X2850000Y-1200000D03*
G01*
X2850000Y-1100000D03*
G01*
X2850000Y-1000000D03*
G01*
X2850000Y-900000D03*
G01*
X2950000Y-900000D03*
G01*
X2850000Y-1700000D03*
D71*
G01*
X2091599Y-1850000D03*
G01*
X2288400Y-1850000D03*
G36*
X541300Y-709000D02*
G01*
X537800Y-708499D01*
X534499Y-707699D01*
X531199Y-706399D01*
X528200Y-704699D01*
X525399Y-702699D01*
X522899Y-700300D01*
X520599Y-697600D01*
X518800Y-694699D01*
X517300Y-691599D01*
X516199Y-688299D01*
X515599Y-684899D01*
X515399Y-681500D01*
X515399Y-649800D01*
X515599Y-646399D01*
X516199Y-643000D01*
X517300Y-639699D01*
X518800Y-636599D01*
X520599Y-633699D01*
X522899Y-630999D01*
X525399Y-628600D01*
X528200Y-626599D01*
X531199Y-624899D01*
X534499Y-623600D01*
X537800Y-622800D01*
X541300Y-622300D01*
X544699Y-622300D01*
X548200Y-622800D01*
X551500Y-623600D01*
X554800Y-624899D01*
X557800Y-626599D01*
X560599Y-628600D01*
X563099Y-630999D01*
X565399Y-633699D01*
X567199Y-636599D01*
X568699Y-639699D01*
X569800Y-643000D01*
X570399Y-646399D01*
X570599Y-649800D01*
X570599Y-681500D01*
X570399Y-684899D01*
X569800Y-688299D01*
X568699Y-691599D01*
X567199Y-694699D01*
X565399Y-697600D01*
X563099Y-700300D01*
X560599Y-702699D01*
X557800Y-704699D01*
X554800Y-706399D01*
X551500Y-707699D01*
X548200Y-708499D01*
X544699Y-709000D01*
G37*
G36*
X541300Y-1878699D02*
G01*
X537800Y-1878200D01*
X534499Y-1877399D01*
X531199Y-1876100D01*
X528200Y-1874400D01*
X525399Y-1872399D01*
X522899Y-1870000D01*
X520599Y-1867300D01*
X518800Y-1864400D01*
X517300Y-1861300D01*
X516199Y-1858000D01*
X515599Y-1854600D01*
X515399Y-1851199D01*
X515399Y-1819499D01*
X515599Y-1816100D01*
X516199Y-1812699D01*
X517300Y-1809400D01*
X518800Y-1806300D01*
X520599Y-1803400D01*
X522899Y-1800700D01*
X525399Y-1798299D01*
X528200Y-1796300D01*
X531199Y-1794600D01*
X534499Y-1793299D01*
X537800Y-1792500D01*
X541300Y-1791999D01*
X544699Y-1791999D01*
X548200Y-1792500D01*
X551500Y-1793299D01*
X554800Y-1794600D01*
X557800Y-1796300D01*
X560599Y-1798299D01*
X563099Y-1800700D01*
X565399Y-1803400D01*
X567199Y-1806300D01*
X568699Y-1809400D01*
X569800Y-1812699D01*
X570399Y-1816100D01*
X570599Y-1819499D01*
X570599Y-1851199D01*
X570399Y-1854600D01*
X569800Y-1858000D01*
X568699Y-1861300D01*
X567199Y-1864400D01*
X565399Y-1867300D01*
X563099Y-1870000D01*
X560599Y-1872399D01*
X557800Y-1874400D01*
X554800Y-1876100D01*
X551500Y-1877399D01*
X548200Y-1878200D01*
X544699Y-1878699D01*
G37*
G36*
X641300Y-709000D02*
G01*
X637800Y-708499D01*
X634499Y-707699D01*
X631199Y-706399D01*
X628200Y-704699D01*
X625399Y-702699D01*
X622899Y-700300D01*
X620599Y-697600D01*
X618800Y-694699D01*
X617300Y-691599D01*
X616199Y-688299D01*
X615599Y-684899D01*
X615399Y-681500D01*
X615399Y-649800D01*
X615599Y-646399D01*
X616199Y-643000D01*
X617300Y-639699D01*
X618800Y-636599D01*
X620599Y-633699D01*
X622899Y-630999D01*
X625399Y-628600D01*
X628200Y-626599D01*
X631199Y-624899D01*
X634499Y-623600D01*
X637800Y-622800D01*
X641300Y-622300D01*
X644699Y-622300D01*
X648200Y-622800D01*
X651500Y-623600D01*
X654800Y-624899D01*
X657800Y-626599D01*
X660599Y-628600D01*
X663099Y-630999D01*
X665399Y-633699D01*
X667199Y-636599D01*
X668699Y-639699D01*
X669800Y-643000D01*
X670399Y-646399D01*
X670599Y-649800D01*
X670599Y-681500D01*
X670399Y-684899D01*
X669800Y-688299D01*
X668699Y-691599D01*
X667199Y-694699D01*
X665399Y-697600D01*
X663099Y-700300D01*
X660599Y-702699D01*
X657800Y-704699D01*
X654800Y-706399D01*
X651500Y-707699D01*
X648200Y-708499D01*
X644699Y-709000D01*
G37*
G36*
X641300Y-1878699D02*
G01*
X637800Y-1878200D01*
X634499Y-1877399D01*
X631199Y-1876100D01*
X628200Y-1874400D01*
X625399Y-1872399D01*
X622899Y-1870000D01*
X620599Y-1867300D01*
X618800Y-1864400D01*
X617300Y-1861300D01*
X616199Y-1858000D01*
X615599Y-1854600D01*
X615399Y-1851199D01*
X615399Y-1819499D01*
X615599Y-1816100D01*
X616199Y-1812699D01*
X617300Y-1809400D01*
X618800Y-1806300D01*
X620599Y-1803400D01*
X622899Y-1800700D01*
X625399Y-1798299D01*
X628200Y-1796300D01*
X631199Y-1794600D01*
X634499Y-1793299D01*
X637800Y-1792500D01*
X641300Y-1791999D01*
X644699Y-1791999D01*
X648200Y-1792500D01*
X651500Y-1793299D01*
X654800Y-1794600D01*
X657800Y-1796300D01*
X660599Y-1798299D01*
X663099Y-1800700D01*
X665399Y-1803400D01*
X667199Y-1806300D01*
X668699Y-1809400D01*
X669800Y-1812699D01*
X670399Y-1816100D01*
X670599Y-1819499D01*
X670599Y-1851199D01*
X670399Y-1854600D01*
X669800Y-1858000D01*
X668699Y-1861300D01*
X667199Y-1864400D01*
X665399Y-1867300D01*
X663099Y-1870000D01*
X660599Y-1872399D01*
X657800Y-1874400D01*
X654800Y-1876100D01*
X651500Y-1877399D01*
X648200Y-1878200D01*
X644699Y-1878699D01*
G37*
G36*
X741300Y-709000D02*
G01*
X737800Y-708499D01*
X734499Y-707699D01*
X731199Y-706399D01*
X728200Y-704699D01*
X725399Y-702699D01*
X722899Y-700300D01*
X720599Y-697600D01*
X718800Y-694699D01*
X717300Y-691599D01*
X716199Y-688299D01*
X715599Y-684899D01*
X715399Y-681500D01*
X715399Y-649800D01*
X715599Y-646399D01*
X716199Y-643000D01*
X717300Y-639699D01*
X718800Y-636599D01*
X720599Y-633699D01*
X722899Y-630999D01*
X725399Y-628600D01*
X728200Y-626599D01*
X731199Y-624899D01*
X734499Y-623600D01*
X737800Y-622800D01*
X741300Y-622300D01*
X744699Y-622300D01*
X748200Y-622800D01*
X751500Y-623600D01*
X754800Y-624899D01*
X757800Y-626599D01*
X760600Y-628600D01*
X763100Y-630999D01*
X765399Y-633699D01*
X767200Y-636599D01*
X768699Y-639699D01*
X769799Y-643000D01*
X770399Y-646399D01*
X770600Y-649800D01*
X770600Y-681500D01*
X770399Y-684899D01*
X769799Y-688299D01*
X768699Y-691599D01*
X767200Y-694699D01*
X765399Y-697600D01*
X763100Y-700300D01*
X760600Y-702699D01*
X757800Y-704699D01*
X754800Y-706399D01*
X751500Y-707699D01*
X748200Y-708499D01*
X744699Y-709000D01*
G37*
G36*
X741300Y-1878699D02*
G01*
X737800Y-1878200D01*
X734499Y-1877399D01*
X731199Y-1876100D01*
X728200Y-1874400D01*
X725399Y-1872399D01*
X722899Y-1870000D01*
X720599Y-1867300D01*
X718800Y-1864400D01*
X717300Y-1861300D01*
X716199Y-1858000D01*
X715599Y-1854600D01*
X715399Y-1851199D01*
X715399Y-1819499D01*
X715599Y-1816100D01*
X716199Y-1812699D01*
X717300Y-1809400D01*
X718800Y-1806300D01*
X720599Y-1803400D01*
X722899Y-1800700D01*
X725399Y-1798299D01*
X728200Y-1796300D01*
X731199Y-1794600D01*
X734499Y-1793299D01*
X737800Y-1792500D01*
X741300Y-1791999D01*
X744699Y-1791999D01*
X748200Y-1792500D01*
X751500Y-1793299D01*
X754800Y-1794600D01*
X757800Y-1796300D01*
X760600Y-1798299D01*
X763100Y-1800700D01*
X765399Y-1803400D01*
X767200Y-1806300D01*
X768699Y-1809400D01*
X769799Y-1812699D01*
X770399Y-1816100D01*
X770600Y-1819499D01*
X770600Y-1851199D01*
X770399Y-1854600D01*
X769799Y-1858000D01*
X768699Y-1861300D01*
X767200Y-1864400D01*
X765399Y-1867300D01*
X763100Y-1870000D01*
X760600Y-1872399D01*
X757800Y-1874400D01*
X754800Y-1876100D01*
X751500Y-1877399D01*
X748200Y-1878200D01*
X744699Y-1878699D01*
G37*
G36*
X841300Y-709000D02*
G01*
X837799Y-708499D01*
X834499Y-707699D01*
X831199Y-706399D01*
X828199Y-704699D01*
X825399Y-702699D01*
X822899Y-700300D01*
X820600Y-697600D01*
X818800Y-694699D01*
X817299Y-691599D01*
X816199Y-688299D01*
X815600Y-684899D01*
X815399Y-681500D01*
X815399Y-649800D01*
X815600Y-646399D01*
X816199Y-643000D01*
X817299Y-639699D01*
X818800Y-636599D01*
X820600Y-633699D01*
X822899Y-630999D01*
X825399Y-628600D01*
X828199Y-626599D01*
X831199Y-624899D01*
X834499Y-623600D01*
X837799Y-622800D01*
X841300Y-622300D01*
X844700Y-622300D01*
X848199Y-622800D01*
X851499Y-623600D01*
X854799Y-624899D01*
X857799Y-626599D01*
X860600Y-628600D01*
X863100Y-630999D01*
X865399Y-633699D01*
X867200Y-636599D01*
X868699Y-639699D01*
X869799Y-643000D01*
X870399Y-646399D01*
X870600Y-649800D01*
X870600Y-681500D01*
X870399Y-684899D01*
X869799Y-688299D01*
X868699Y-691599D01*
X867200Y-694699D01*
X865399Y-697600D01*
X863100Y-700300D01*
X860600Y-702699D01*
X857799Y-704699D01*
X854799Y-706399D01*
X851499Y-707699D01*
X848199Y-708499D01*
X844700Y-709000D01*
G37*
G36*
X841300Y-1878699D02*
G01*
X837799Y-1878200D01*
X834499Y-1877399D01*
X831199Y-1876100D01*
X828199Y-1874400D01*
X825399Y-1872399D01*
X822899Y-1870000D01*
X820600Y-1867300D01*
X818800Y-1864400D01*
X817299Y-1861300D01*
X816199Y-1858000D01*
X815600Y-1854600D01*
X815399Y-1851199D01*
X815399Y-1819499D01*
X815600Y-1816100D01*
X816199Y-1812699D01*
X817299Y-1809400D01*
X818800Y-1806300D01*
X820600Y-1803400D01*
X822899Y-1800700D01*
X825399Y-1798299D01*
X828199Y-1796300D01*
X831199Y-1794600D01*
X834499Y-1793299D01*
X837799Y-1792500D01*
X841300Y-1791999D01*
X844700Y-1791999D01*
X848199Y-1792500D01*
X851499Y-1793299D01*
X854799Y-1794600D01*
X857799Y-1796300D01*
X860600Y-1798299D01*
X863100Y-1800700D01*
X865399Y-1803400D01*
X867200Y-1806300D01*
X868699Y-1809400D01*
X869799Y-1812699D01*
X870399Y-1816100D01*
X870600Y-1819499D01*
X870600Y-1851199D01*
X870399Y-1854600D01*
X869799Y-1858000D01*
X868699Y-1861300D01*
X867200Y-1864400D01*
X865399Y-1867300D01*
X863100Y-1870000D01*
X860600Y-1872399D01*
X857799Y-1874400D01*
X854799Y-1876100D01*
X851499Y-1877399D01*
X848199Y-1878200D01*
X844700Y-1878699D01*
G37*
G36*
X941300Y-709000D02*
G01*
X937799Y-708499D01*
X934499Y-707699D01*
X931199Y-706399D01*
X928199Y-704699D01*
X925399Y-702699D01*
X922899Y-700300D01*
X920600Y-697600D01*
X918800Y-694699D01*
X917299Y-691599D01*
X916199Y-688299D01*
X915600Y-684899D01*
X915399Y-681500D01*
X915399Y-649800D01*
X915600Y-646399D01*
X916199Y-643000D01*
X917299Y-639699D01*
X918800Y-636599D01*
X920600Y-633699D01*
X922899Y-630999D01*
X925399Y-628600D01*
X928199Y-626599D01*
X931199Y-624899D01*
X934499Y-623600D01*
X937799Y-622800D01*
X941300Y-622300D01*
X944700Y-622300D01*
X948199Y-622800D01*
X951499Y-623600D01*
X954799Y-624899D01*
X957799Y-626599D01*
X960600Y-628600D01*
X963100Y-630999D01*
X965399Y-633699D01*
X967200Y-636599D01*
X968699Y-639699D01*
X969799Y-643000D01*
X970399Y-646399D01*
X970600Y-649800D01*
X970600Y-681500D01*
X970399Y-684899D01*
X969799Y-688299D01*
X968699Y-691599D01*
X967200Y-694699D01*
X965399Y-697600D01*
X963100Y-700300D01*
X960600Y-702699D01*
X957799Y-704699D01*
X954799Y-706399D01*
X951499Y-707699D01*
X948199Y-708499D01*
X944700Y-709000D01*
G37*
D82*
G01*
X190000Y-1202829D03*
G36*
X142699Y-1604499D02*
G01*
X142699Y-1509899D01*
X237300Y-1509899D01*
X237300Y-1604499D01*
G37*
D84*
G01*
X1360000Y-1502130D03*
G01*
X1360000Y-1423389D03*
D89*
G01*
X2550000Y-1400000D03*
G01*
X2450000Y-1300000D03*
G01*
X2350000Y-1400000D03*
M02*
