M48
INCH,LZ
;FILE_FORMAT=2:4
;TYPE=PLATED
;Layer: Drill PTH
;EasyEDA v6.4.19.5, 2021-05-22T15:38:53+02:00
;3629cfa7d52e4947b918c6b19203bcd8,b771c775d4444e86a06a5321f8c966cb,10
;Gerber Generator version 0.2
;Holesize 1 = 0.0120 inch
T01C0.0120
;Holesize 2 = 0.0180 inch
T02C0.0180
;Holesize 3 = 0.0240 inch
T03C0.0240
;Holesize 4 = 0.0260 inch
T04C0.0260
;Holesize 5 = 0.0280 inch
T05C0.0280
;Holesize 6 = 0.0320 inch
T06C0.0320
;Holesize 7 = 0.0350 inch
T07C0.0350
;Holesize 8 = 0.0390 inch
T08C0.0390
;Holesize 9 = 0.1400 inch
T09C0.1400
%
G05
G90
T01
X030120Y-007670
X021430Y-015800
X019400Y-005500
X010900Y-010650
X011800Y-006650
X011400Y-006650
X012550Y-005000
X010600Y-006650
X011000Y-006650
X013850Y-002800
X014770Y-009950
X013770Y-009950
X008374Y-012150
X007474Y-013800
X007724Y-011050
X008224Y-011150
X008924Y-012150
X010124Y-013100
X007024Y-010000
X005274Y-010700
X005874Y-008500
X007824Y-007800
X008374Y-009650
X019900Y-015878
X025700Y-003400
X017400Y-019578
X016300Y-018278
X017000Y-017578
X019000Y-002300
X019500Y-006300
X021700Y-005100
X015020Y-006900
X015520Y-006900
X012550Y-004500
X010024Y-012150
X009300Y-010300
X005400Y-013100
X012550Y-002500
X013850Y-003300
X016600Y-011900
X017050Y-011100
X012550Y-002000
X004900Y-017250
X004100Y-009200
X004100Y-007950
X004500Y-014500
X005850Y-011600
X013850Y-003750
X007000Y-011600
X030650Y-003350
X029500Y-003350
X028050Y-002000
X030500Y-016000
X027500Y-019500
X030500Y-012500
X024500Y-019500
X024000Y-016000
X008000Y-004500
X001000Y-007000
X001000Y-004000
X001000Y-010000
X013500Y-019500
X010500Y-019500
X004000Y-019500
X007500Y-019500
X003500Y-004000
X005000Y-002000
X028000Y-005000
X010500Y-016000
X025700Y-007350
X016670Y-005900
X015770Y-005900
X016270Y-005900
X017000Y-005538
X017000Y-005038
X015270Y-006000
X014770Y-006000
X014350Y-006000
X017000Y-004550
X017000Y-004050
X017000Y-003550
X017000Y-003050
X017000Y-002538
X017000Y-002050
X024000Y-008000
X017400Y-008350
X018350Y-009300
X019400Y-010300
X016000Y-005050
X014550Y-002750
X027850Y-014700
X027850Y-013700
X027850Y-012700
X027850Y-011700
X027850Y-010700
X026900Y-010750
X026300Y-011150
X025700Y-011550
X025200Y-012060
X022150Y-008900
X022100Y-012450
X024300Y-012300
X024000Y-002050
X020250Y-011200
X020250Y-011480
X020530Y-011340
X020530Y-011060
X020250Y-010920
X018350Y-015900
X018650Y-015900
X018650Y-016200
X018350Y-016200
X018350Y-016500
X018650Y-016500
X019980Y-011060
X019980Y-011340
X016650Y-016850
X016650Y-017128
X016650Y-017400
X016920Y-017130
T02
X016520Y-006950
X016520Y-008100
X023200Y-004450
X023200Y-003950
T03
X010174Y-013800
X008074Y-013500
X018150Y-011200
X025250Y-003100
X025250Y-004500
X009100Y-002100
X025250Y-008450
X025250Y-007050
T04
X025500Y-014000
X024500Y-013000
X023500Y-014000
T05
X023278Y-019693G85X023278Y-019417
X020522Y-019693G85X020522Y-019417
T06
X005429Y-006657G85X005431Y-006657
X005429Y-018353G85X005431Y-018353
X006429Y-006657G85X006431Y-006657
X006429Y-018353G85X006431Y-018353
X007429Y-006657G85X007431Y-006657
X007429Y-018353G85X007431Y-018353
X008429Y-006657G85X008431Y-006657
X008429Y-018353G85X008431Y-018353
X009429Y-006657G85X009431Y-006657
T07
X020916Y-018500
X022884Y-018500
T08
X029500Y-010000
X029500Y-011000
X029500Y-012000
X029500Y-013000
X029500Y-014000
X029500Y-015000
X029500Y-016000
X028500Y-016000
X028500Y-015000
X028500Y-014000
X028500Y-013000
X028500Y-012000
X028500Y-011000
X028500Y-010000
X028500Y-009000
X029500Y-009000
X028500Y-017000
X001900Y-012028G85X001900Y-012028
X001900Y-015572G85X001900Y-015572
X013600Y-015021
X013600Y-014234
T09
X025650Y-016050
X005850Y-004050
M30
