G04 Layer: TopSolderMaskLayer*
G04 EasyEDA v6.4.19.5, 2021-05-22T15:38:53+02:00*
G04 3629cfa7d52e4947b918c6b19203bcd8,b771c775d4444e86a06a5321f8c966cb,10*
G04 Gerber Generator version 0.2*
G04 Scale: 100 percent, Rotated: No, Reflected: No *
G04 Dimensions in inches *
G04 leading zeros omitted , absolute positions ,3 integer and 6 decimal *
%FSLAX36Y36*%
%MOIN*%

%ADD59C,0.0512*%
%ADD61C,0.0710*%
%ADD71C,0.0572*%
%ADD82C,0.0946*%
%ADD84C,0.0710*%
%ADD89C,0.0671*%

%LPD*%
D59*
X2327799Y-1941729D02*
G01*
X2327799Y-1969292D01*
X2052200Y-1941718D02*
G01*
X2052200Y-1969281D01*
G36*
X2595200Y-751399D02*
G01*
X2595200Y-719800D01*
X2664200Y-719800D01*
X2664200Y-751399D01*
G37*
D61*
G01*
X2950000Y-1000000D03*
G01*
X2950000Y-1100000D03*
G01*
X2950000Y-1200000D03*
G01*
X2950000Y-1300000D03*
G01*
X2950000Y-1400000D03*
G01*
X2950000Y-1500000D03*
G01*
X2950000Y-1600000D03*
G01*
X2850000Y-1600000D03*
G01*
X2850000Y-1500000D03*
G01*
X2850000Y-1400000D03*
G01*
X2850000Y-1300000D03*
G01*
X2850000Y-1200000D03*
G01*
X2850000Y-1100000D03*
G01*
X2850000Y-1000000D03*
G01*
X2850000Y-900000D03*
G01*
X2950000Y-900000D03*
G01*
X2850000Y-1700000D03*
G36*
X3030000Y-646900D02*
G01*
X3030000Y-619299D01*
X3081199Y-619299D01*
X3081199Y-646900D01*
G37*
G36*
X3030000Y-780700D02*
G01*
X3030000Y-753099D01*
X3081199Y-753099D01*
X3081199Y-780700D01*
G37*
G36*
X3104799Y-642899D02*
G01*
X3104799Y-591700D01*
X3160000Y-591700D01*
X3160000Y-642899D01*
G37*
G36*
X3104799Y-808299D02*
G01*
X3104799Y-757100D01*
X3160000Y-757100D01*
X3160000Y-808299D01*
G37*
G36*
X3030000Y-401900D02*
G01*
X3030000Y-374299D01*
X3081199Y-374299D01*
X3081199Y-401900D01*
G37*
G36*
X3030000Y-535700D02*
G01*
X3030000Y-508099D01*
X3081199Y-508099D01*
X3081199Y-535700D01*
G37*
G36*
X3104799Y-397899D02*
G01*
X3104799Y-346700D01*
X3160000Y-346700D01*
X3160000Y-397899D01*
G37*
G36*
X3104799Y-563299D02*
G01*
X3104799Y-512100D01*
X3160000Y-512100D01*
X3160000Y-563299D01*
G37*
G36*
X1830799Y-1975500D02*
G01*
X1830799Y-1940000D01*
X1866199Y-1940000D01*
X1866199Y-1975500D01*
G37*
G36*
X1763800Y-1975500D02*
G01*
X1763800Y-1940000D01*
X1799200Y-1940000D01*
X1799200Y-1975500D01*
G37*
G36*
X1135799Y-227699D02*
G01*
X1135799Y-192300D01*
X1171199Y-192300D01*
X1171199Y-227699D01*
G37*
G36*
X1068800Y-227699D02*
G01*
X1068800Y-192300D01*
X1104200Y-192300D01*
X1104200Y-227699D01*
G37*
G36*
X648800Y-227699D02*
G01*
X648800Y-192300D01*
X684200Y-192300D01*
X684200Y-227699D01*
G37*
G36*
X715799Y-227699D02*
G01*
X715799Y-192300D01*
X751199Y-192300D01*
X751199Y-227699D01*
G37*
G36*
X1589700Y-1571999D02*
G01*
X1589700Y-1528699D01*
X1648800Y-1528699D01*
X1648800Y-1571999D01*
G37*
G36*
X1495200Y-1609400D02*
G01*
X1495200Y-1566100D01*
X1554300Y-1566100D01*
X1554300Y-1609400D01*
G37*
G36*
X1589700Y-1646799D02*
G01*
X1589700Y-1603499D01*
X1648800Y-1603499D01*
X1648800Y-1646799D01*
G37*
G36*
X1533199Y-1461799D02*
G01*
X1533199Y-1418499D01*
X1592299Y-1418499D01*
X1592299Y-1461799D01*
G37*
G36*
X1627700Y-1424400D02*
G01*
X1627700Y-1381100D01*
X1686800Y-1381100D01*
X1686800Y-1424400D01*
G37*
G36*
X1533199Y-1386999D02*
G01*
X1533199Y-1343699D01*
X1592299Y-1343699D01*
X1592299Y-1386999D01*
G37*
G36*
X740000Y-839299D02*
G01*
X740000Y-795900D01*
X799200Y-795900D01*
X799200Y-839299D01*
G37*
G36*
X645599Y-876700D02*
G01*
X645599Y-833299D01*
X704699Y-833299D01*
X704699Y-876700D01*
G37*
G36*
X740000Y-914099D02*
G01*
X740000Y-870700D01*
X799200Y-870700D01*
X799200Y-914099D01*
G37*
G36*
X505700Y-1526799D02*
G01*
X505700Y-1467699D01*
X549099Y-1467699D01*
X549099Y-1526799D01*
G37*
G36*
X468299Y-1432300D02*
G01*
X468299Y-1373200D01*
X511700Y-1373200D01*
X511700Y-1432300D01*
G37*
G36*
X430900Y-1526799D02*
G01*
X430900Y-1467699D01*
X474299Y-1467699D01*
X474299Y-1526799D01*
G37*
G36*
X552699Y-1294299D02*
G01*
X552699Y-1250900D01*
X611799Y-1250900D01*
X611799Y-1294299D01*
G37*
G36*
X458200Y-1331700D02*
G01*
X458200Y-1288299D01*
X517300Y-1288299D01*
X517300Y-1331700D01*
G37*
G36*
X552699Y-1369099D02*
G01*
X552699Y-1325700D01*
X611799Y-1325700D01*
X611799Y-1369099D01*
G37*
G36*
X1619600Y-1915599D02*
G01*
X1619600Y-1872300D01*
X1645200Y-1872300D01*
X1645200Y-1915599D01*
G37*
G36*
X1544799Y-1915599D02*
G01*
X1544799Y-1872300D01*
X1570399Y-1872300D01*
X1570399Y-1915599D01*
G37*
G36*
X1544799Y-1813299D02*
G01*
X1544799Y-1769899D01*
X1570399Y-1769899D01*
X1570399Y-1813299D01*
G37*
G36*
X1582200Y-1813299D02*
G01*
X1582200Y-1769899D01*
X1607799Y-1769899D01*
X1607799Y-1813299D01*
G37*
G36*
X1619600Y-1813299D02*
G01*
X1619600Y-1769899D01*
X1645200Y-1769899D01*
X1645200Y-1813299D01*
G37*
G36*
X1999499Y-1528200D02*
G01*
X1999499Y-1502500D01*
X2042899Y-1502500D01*
X2042899Y-1528200D01*
G37*
G36*
X1999499Y-1603000D02*
G01*
X1999499Y-1577300D01*
X2042899Y-1577300D01*
X2042899Y-1603000D01*
G37*
G36*
X1897100Y-1603000D02*
G01*
X1897100Y-1577300D01*
X1940500Y-1577300D01*
X1940500Y-1603000D01*
G37*
G36*
X1897100Y-1565599D02*
G01*
X1897100Y-1539899D01*
X1940500Y-1539899D01*
X1940500Y-1565599D01*
G37*
G36*
X1897100Y-1528200D02*
G01*
X1897100Y-1502500D01*
X1940500Y-1502500D01*
X1940500Y-1528200D01*
G37*
G36*
X2119099Y-1992100D02*
G01*
X2119099Y-1913299D01*
X2182200Y-1913299D01*
X2182200Y-1992100D01*
G37*
G36*
X2231300Y-1877600D02*
G01*
X2231300Y-1822399D01*
X2251099Y-1822399D01*
X2251099Y-1877600D01*
G37*
G36*
X2205699Y-1877600D02*
G01*
X2205699Y-1822399D01*
X2225500Y-1822399D01*
X2225500Y-1877600D01*
G37*
G36*
X2180100Y-1877600D02*
G01*
X2180100Y-1822399D01*
X2199899Y-1822399D01*
X2199899Y-1877600D01*
G37*
G36*
X2154499Y-1877600D02*
G01*
X2154499Y-1822399D01*
X2174300Y-1822399D01*
X2174300Y-1877600D01*
G37*
G36*
X2128999Y-1877600D02*
G01*
X2128999Y-1822399D01*
X2148699Y-1822399D01*
X2148699Y-1877600D01*
G37*
G36*
X2197799Y-1992199D02*
G01*
X2197799Y-1913400D01*
X2260900Y-1913400D01*
X2260900Y-1992199D01*
G37*
D71*
G01*
X2091599Y-1850000D03*
G01*
X2288400Y-1850000D03*
G36*
X2195799Y-463800D02*
G01*
X2195799Y-426199D01*
X2294300Y-426199D01*
X2294300Y-463800D01*
G37*
G36*
X2038299Y-463800D02*
G01*
X2038299Y-426199D01*
X2136899Y-426199D01*
X2136899Y-463800D01*
G37*
G36*
X2195799Y-413800D02*
G01*
X2195799Y-376199D01*
X2294300Y-376199D01*
X2294300Y-413800D01*
G37*
G36*
X2038299Y-413800D02*
G01*
X2038299Y-376199D01*
X2136899Y-376199D01*
X2136899Y-413800D01*
G37*
G36*
X2195799Y-363800D02*
G01*
X2195799Y-326199D01*
X2294300Y-326199D01*
X2294300Y-363800D01*
G37*
G36*
X2038299Y-363800D02*
G01*
X2038299Y-326199D01*
X2136899Y-326199D01*
X2136899Y-363800D01*
G37*
G36*
X2195799Y-313800D02*
G01*
X2195799Y-276199D01*
X2294300Y-276199D01*
X2294300Y-313800D01*
G37*
G36*
X2038299Y-313800D02*
G01*
X2038299Y-276199D01*
X2136899Y-276199D01*
X2136899Y-313800D01*
G37*
G36*
X2195799Y-263800D02*
G01*
X2195799Y-226199D01*
X2294300Y-226199D01*
X2294300Y-263800D01*
G37*
G36*
X2038299Y-263800D02*
G01*
X2038299Y-226199D01*
X2136899Y-226199D01*
X2136899Y-263800D01*
G37*
G36*
X2185299Y-1671900D02*
G01*
X2185299Y-1644200D01*
X2224700Y-1644200D01*
X2224700Y-1671900D01*
G37*
G36*
X2185299Y-1711300D02*
G01*
X2185299Y-1683600D01*
X2224700Y-1683600D01*
X2224700Y-1711300D01*
G37*
G36*
X2130299Y-1671900D02*
G01*
X2130299Y-1644200D01*
X2169700Y-1644200D01*
X2169700Y-1671900D01*
G37*
G36*
X2130299Y-1711300D02*
G01*
X2130299Y-1683600D01*
X2169700Y-1683600D01*
X2169700Y-1711300D01*
G37*
G36*
X1354099Y-874400D02*
G01*
X1354099Y-795599D01*
X1401499Y-795599D01*
X1401499Y-874400D01*
G37*
G36*
X1452500Y-874400D02*
G01*
X1452500Y-795599D01*
X1499899Y-795599D01*
X1499899Y-874400D01*
G37*
G36*
X1915299Y-1726900D02*
G01*
X1915299Y-1699200D01*
X1954700Y-1699200D01*
X1954700Y-1726900D01*
G37*
G36*
X1915299Y-1766300D02*
G01*
X1915299Y-1738600D01*
X1954700Y-1738600D01*
X1954700Y-1766300D01*
G37*
G36*
X1685299Y-1164200D02*
G01*
X1685299Y-1136500D01*
X1724700Y-1136500D01*
X1724700Y-1164200D01*
G37*
G36*
X1685299Y-1203499D02*
G01*
X1685299Y-1175799D01*
X1724700Y-1175799D01*
X1724700Y-1203499D01*
G37*
G36*
X1685299Y-1249200D02*
G01*
X1685299Y-1221500D01*
X1724700Y-1221500D01*
X1724700Y-1249200D01*
G37*
G36*
X1685299Y-1288499D02*
G01*
X1685299Y-1260799D01*
X1724700Y-1260799D01*
X1724700Y-1288499D01*
G37*
G36*
X1485500Y-1436300D02*
G01*
X1485500Y-1408600D01*
X1525000Y-1408600D01*
X1525000Y-1436300D01*
G37*
G36*
X1485500Y-1396900D02*
G01*
X1485500Y-1369200D01*
X1525000Y-1369200D01*
X1525000Y-1396900D01*
G37*
G36*
X1711599Y-1699899D02*
G01*
X1711599Y-1620999D01*
X1798400Y-1620999D01*
X1798400Y-1699899D01*
G37*
G36*
X1711599Y-1534499D02*
G01*
X1711599Y-1455599D01*
X1798400Y-1455599D01*
X1798400Y-1534499D01*
G37*
G36*
X1830299Y-1566300D02*
G01*
X1830299Y-1538600D01*
X1869799Y-1538600D01*
X1869799Y-1566300D01*
G37*
G36*
X1830299Y-1526900D02*
G01*
X1830299Y-1499200D01*
X1869799Y-1499200D01*
X1869799Y-1526900D01*
G37*
G36*
X1977700Y-1441799D02*
G01*
X1977700Y-1374699D01*
X2072299Y-1374699D01*
X2072299Y-1441799D01*
G37*
G36*
X1977700Y-1225300D02*
G01*
X1977700Y-1158200D01*
X2072299Y-1158200D01*
X2072299Y-1225300D01*
G37*
G36*
X1680299Y-1846300D02*
G01*
X1680299Y-1818600D01*
X1719700Y-1818600D01*
X1719700Y-1846300D01*
G37*
G36*
X1680299Y-1806900D02*
G01*
X1680299Y-1779200D01*
X1719700Y-1779200D01*
X1719700Y-1806900D01*
G37*
G36*
X1457299Y-968499D02*
G01*
X1457299Y-940799D01*
X1496800Y-940799D01*
X1496800Y-968499D01*
G37*
G36*
X1457299Y-929200D02*
G01*
X1457299Y-901500D01*
X1496800Y-901500D01*
X1496800Y-929200D01*
G37*
G36*
X1357299Y-968499D02*
G01*
X1357299Y-940799D01*
X1396800Y-940799D01*
X1396800Y-968499D01*
G37*
G36*
X1357299Y-929200D02*
G01*
X1357299Y-901500D01*
X1396800Y-901500D01*
X1396800Y-929200D01*
G37*
G36*
X541300Y-709000D02*
G01*
X537800Y-708499D01*
X534499Y-707699D01*
X531199Y-706399D01*
X528200Y-704699D01*
X525399Y-702699D01*
X522899Y-700300D01*
X520599Y-697600D01*
X518800Y-694699D01*
X517300Y-691599D01*
X516199Y-688299D01*
X515599Y-684899D01*
X515399Y-681500D01*
X515399Y-649800D01*
X515599Y-646399D01*
X516199Y-643000D01*
X517300Y-639699D01*
X518800Y-636599D01*
X520599Y-633699D01*
X522899Y-630999D01*
X525399Y-628600D01*
X528200Y-626599D01*
X531199Y-624899D01*
X534499Y-623600D01*
X537800Y-622800D01*
X541300Y-622300D01*
X544699Y-622300D01*
X548200Y-622800D01*
X551500Y-623600D01*
X554800Y-624899D01*
X557800Y-626599D01*
X560599Y-628600D01*
X563099Y-630999D01*
X565399Y-633699D01*
X567199Y-636599D01*
X568699Y-639699D01*
X569800Y-643000D01*
X570399Y-646399D01*
X570599Y-649800D01*
X570599Y-681500D01*
X570399Y-684899D01*
X569800Y-688299D01*
X568699Y-691599D01*
X567199Y-694699D01*
X565399Y-697600D01*
X563099Y-700300D01*
X560599Y-702699D01*
X557800Y-704699D01*
X554800Y-706399D01*
X551500Y-707699D01*
X548200Y-708499D01*
X544699Y-709000D01*
G37*
G36*
X541300Y-1878699D02*
G01*
X537800Y-1878200D01*
X534499Y-1877399D01*
X531199Y-1876100D01*
X528200Y-1874400D01*
X525399Y-1872399D01*
X522899Y-1870000D01*
X520599Y-1867300D01*
X518800Y-1864400D01*
X517300Y-1861300D01*
X516199Y-1858000D01*
X515599Y-1854600D01*
X515399Y-1851199D01*
X515399Y-1819499D01*
X515599Y-1816100D01*
X516199Y-1812699D01*
X517300Y-1809400D01*
X518800Y-1806300D01*
X520599Y-1803400D01*
X522899Y-1800700D01*
X525399Y-1798299D01*
X528200Y-1796300D01*
X531199Y-1794600D01*
X534499Y-1793299D01*
X537800Y-1792500D01*
X541300Y-1791999D01*
X544699Y-1791999D01*
X548200Y-1792500D01*
X551500Y-1793299D01*
X554800Y-1794600D01*
X557800Y-1796300D01*
X560599Y-1798299D01*
X563099Y-1800700D01*
X565399Y-1803400D01*
X567199Y-1806300D01*
X568699Y-1809400D01*
X569800Y-1812699D01*
X570399Y-1816100D01*
X570599Y-1819499D01*
X570599Y-1851199D01*
X570399Y-1854600D01*
X569800Y-1858000D01*
X568699Y-1861300D01*
X567199Y-1864400D01*
X565399Y-1867300D01*
X563099Y-1870000D01*
X560599Y-1872399D01*
X557800Y-1874400D01*
X554800Y-1876100D01*
X551500Y-1877399D01*
X548200Y-1878200D01*
X544699Y-1878699D01*
G37*
G36*
X641300Y-709000D02*
G01*
X637800Y-708499D01*
X634499Y-707699D01*
X631199Y-706399D01*
X628200Y-704699D01*
X625399Y-702699D01*
X622899Y-700300D01*
X620599Y-697600D01*
X618800Y-694699D01*
X617300Y-691599D01*
X616199Y-688299D01*
X615599Y-684899D01*
X615399Y-681500D01*
X615399Y-649800D01*
X615599Y-646399D01*
X616199Y-643000D01*
X617300Y-639699D01*
X618800Y-636599D01*
X620599Y-633699D01*
X622899Y-630999D01*
X625399Y-628600D01*
X628200Y-626599D01*
X631199Y-624899D01*
X634499Y-623600D01*
X637800Y-622800D01*
X641300Y-622300D01*
X644699Y-622300D01*
X648200Y-622800D01*
X651500Y-623600D01*
X654800Y-624899D01*
X657800Y-626599D01*
X660599Y-628600D01*
X663099Y-630999D01*
X665399Y-633699D01*
X667199Y-636599D01*
X668699Y-639699D01*
X669800Y-643000D01*
X670399Y-646399D01*
X670599Y-649800D01*
X670599Y-681500D01*
X670399Y-684899D01*
X669800Y-688299D01*
X668699Y-691599D01*
X667199Y-694699D01*
X665399Y-697600D01*
X663099Y-700300D01*
X660599Y-702699D01*
X657800Y-704699D01*
X654800Y-706399D01*
X651500Y-707699D01*
X648200Y-708499D01*
X644699Y-709000D01*
G37*
G36*
X641300Y-1878699D02*
G01*
X637800Y-1878200D01*
X634499Y-1877399D01*
X631199Y-1876100D01*
X628200Y-1874400D01*
X625399Y-1872399D01*
X622899Y-1870000D01*
X620599Y-1867300D01*
X618800Y-1864400D01*
X617300Y-1861300D01*
X616199Y-1858000D01*
X615599Y-1854600D01*
X615399Y-1851199D01*
X615399Y-1819499D01*
X615599Y-1816100D01*
X616199Y-1812699D01*
X617300Y-1809400D01*
X618800Y-1806300D01*
X620599Y-1803400D01*
X622899Y-1800700D01*
X625399Y-1798299D01*
X628200Y-1796300D01*
X631199Y-1794600D01*
X634499Y-1793299D01*
X637800Y-1792500D01*
X641300Y-1791999D01*
X644699Y-1791999D01*
X648200Y-1792500D01*
X651500Y-1793299D01*
X654800Y-1794600D01*
X657800Y-1796300D01*
X660599Y-1798299D01*
X663099Y-1800700D01*
X665399Y-1803400D01*
X667199Y-1806300D01*
X668699Y-1809400D01*
X669800Y-1812699D01*
X670399Y-1816100D01*
X670599Y-1819499D01*
X670599Y-1851199D01*
X670399Y-1854600D01*
X669800Y-1858000D01*
X668699Y-1861300D01*
X667199Y-1864400D01*
X665399Y-1867300D01*
X663099Y-1870000D01*
X660599Y-1872399D01*
X657800Y-1874400D01*
X654800Y-1876100D01*
X651500Y-1877399D01*
X648200Y-1878200D01*
X644699Y-1878699D01*
G37*
G36*
X741300Y-709000D02*
G01*
X737800Y-708499D01*
X734499Y-707699D01*
X731199Y-706399D01*
X728200Y-704699D01*
X725399Y-702699D01*
X722899Y-700300D01*
X720599Y-697600D01*
X718800Y-694699D01*
X717300Y-691599D01*
X716199Y-688299D01*
X715599Y-684899D01*
X715399Y-681500D01*
X715399Y-649800D01*
X715599Y-646399D01*
X716199Y-643000D01*
X717300Y-639699D01*
X718800Y-636599D01*
X720599Y-633699D01*
X722899Y-630999D01*
X725399Y-628600D01*
X728200Y-626599D01*
X731199Y-624899D01*
X734499Y-623600D01*
X737800Y-622800D01*
X741300Y-622300D01*
X744699Y-622300D01*
X748200Y-622800D01*
X751500Y-623600D01*
X754800Y-624899D01*
X757800Y-626599D01*
X760600Y-628600D01*
X763100Y-630999D01*
X765399Y-633699D01*
X767200Y-636599D01*
X768699Y-639699D01*
X769799Y-643000D01*
X770399Y-646399D01*
X770600Y-649800D01*
X770600Y-681500D01*
X770399Y-684899D01*
X769799Y-688299D01*
X768699Y-691599D01*
X767200Y-694699D01*
X765399Y-697600D01*
X763100Y-700300D01*
X760600Y-702699D01*
X757800Y-704699D01*
X754800Y-706399D01*
X751500Y-707699D01*
X748200Y-708499D01*
X744699Y-709000D01*
G37*
G36*
X741300Y-1878699D02*
G01*
X737800Y-1878200D01*
X734499Y-1877399D01*
X731199Y-1876100D01*
X728200Y-1874400D01*
X725399Y-1872399D01*
X722899Y-1870000D01*
X720599Y-1867300D01*
X718800Y-1864400D01*
X717300Y-1861300D01*
X716199Y-1858000D01*
X715599Y-1854600D01*
X715399Y-1851199D01*
X715399Y-1819499D01*
X715599Y-1816100D01*
X716199Y-1812699D01*
X717300Y-1809400D01*
X718800Y-1806300D01*
X720599Y-1803400D01*
X722899Y-1800700D01*
X725399Y-1798299D01*
X728200Y-1796300D01*
X731199Y-1794600D01*
X734499Y-1793299D01*
X737800Y-1792500D01*
X741300Y-1791999D01*
X744699Y-1791999D01*
X748200Y-1792500D01*
X751500Y-1793299D01*
X754800Y-1794600D01*
X757800Y-1796300D01*
X760600Y-1798299D01*
X763100Y-1800700D01*
X765399Y-1803400D01*
X767200Y-1806300D01*
X768699Y-1809400D01*
X769799Y-1812699D01*
X770399Y-1816100D01*
X770600Y-1819499D01*
X770600Y-1851199D01*
X770399Y-1854600D01*
X769799Y-1858000D01*
X768699Y-1861300D01*
X767200Y-1864400D01*
X765399Y-1867300D01*
X763100Y-1870000D01*
X760600Y-1872399D01*
X757800Y-1874400D01*
X754800Y-1876100D01*
X751500Y-1877399D01*
X748200Y-1878200D01*
X744699Y-1878699D01*
G37*
G36*
X841300Y-709000D02*
G01*
X837799Y-708499D01*
X834499Y-707699D01*
X831199Y-706399D01*
X828199Y-704699D01*
X825399Y-702699D01*
X822899Y-700300D01*
X820600Y-697600D01*
X818800Y-694699D01*
X817299Y-691599D01*
X816199Y-688299D01*
X815600Y-684899D01*
X815399Y-681500D01*
X815399Y-649800D01*
X815600Y-646399D01*
X816199Y-643000D01*
X817299Y-639699D01*
X818800Y-636599D01*
X820600Y-633699D01*
X822899Y-630999D01*
X825399Y-628600D01*
X828199Y-626599D01*
X831199Y-624899D01*
X834499Y-623600D01*
X837799Y-622800D01*
X841300Y-622300D01*
X844700Y-622300D01*
X848199Y-622800D01*
X851499Y-623600D01*
X854799Y-624899D01*
X857799Y-626599D01*
X860600Y-628600D01*
X863100Y-630999D01*
X865399Y-633699D01*
X867200Y-636599D01*
X868699Y-639699D01*
X869799Y-643000D01*
X870399Y-646399D01*
X870600Y-649800D01*
X870600Y-681500D01*
X870399Y-684899D01*
X869799Y-688299D01*
X868699Y-691599D01*
X867200Y-694699D01*
X865399Y-697600D01*
X863100Y-700300D01*
X860600Y-702699D01*
X857799Y-704699D01*
X854799Y-706399D01*
X851499Y-707699D01*
X848199Y-708499D01*
X844700Y-709000D01*
G37*
G36*
X841300Y-1878699D02*
G01*
X837799Y-1878200D01*
X834499Y-1877399D01*
X831199Y-1876100D01*
X828199Y-1874400D01*
X825399Y-1872399D01*
X822899Y-1870000D01*
X820600Y-1867300D01*
X818800Y-1864400D01*
X817299Y-1861300D01*
X816199Y-1858000D01*
X815600Y-1854600D01*
X815399Y-1851199D01*
X815399Y-1819499D01*
X815600Y-1816100D01*
X816199Y-1812699D01*
X817299Y-1809400D01*
X818800Y-1806300D01*
X820600Y-1803400D01*
X822899Y-1800700D01*
X825399Y-1798299D01*
X828199Y-1796300D01*
X831199Y-1794600D01*
X834499Y-1793299D01*
X837799Y-1792500D01*
X841300Y-1791999D01*
X844700Y-1791999D01*
X848199Y-1792500D01*
X851499Y-1793299D01*
X854799Y-1794600D01*
X857799Y-1796300D01*
X860600Y-1798299D01*
X863100Y-1800700D01*
X865399Y-1803400D01*
X867200Y-1806300D01*
X868699Y-1809400D01*
X869799Y-1812699D01*
X870399Y-1816100D01*
X870600Y-1819499D01*
X870600Y-1851199D01*
X870399Y-1854600D01*
X869799Y-1858000D01*
X868699Y-1861300D01*
X867200Y-1864400D01*
X865399Y-1867300D01*
X863100Y-1870000D01*
X860600Y-1872399D01*
X857799Y-1874400D01*
X854799Y-1876100D01*
X851499Y-1877399D01*
X848199Y-1878200D01*
X844700Y-1878699D01*
G37*
G36*
X941300Y-709000D02*
G01*
X937799Y-708499D01*
X934499Y-707699D01*
X931199Y-706399D01*
X928199Y-704699D01*
X925399Y-702699D01*
X922899Y-700300D01*
X920600Y-697600D01*
X918800Y-694699D01*
X917299Y-691599D01*
X916199Y-688299D01*
X915600Y-684899D01*
X915399Y-681500D01*
X915399Y-649800D01*
X915600Y-646399D01*
X916199Y-643000D01*
X917299Y-639699D01*
X918800Y-636599D01*
X920600Y-633699D01*
X922899Y-630999D01*
X925399Y-628600D01*
X928199Y-626599D01*
X931199Y-624899D01*
X934499Y-623600D01*
X937799Y-622800D01*
X941300Y-622300D01*
X944700Y-622300D01*
X948199Y-622800D01*
X951499Y-623600D01*
X954799Y-624899D01*
X957799Y-626599D01*
X960600Y-628600D01*
X963100Y-630999D01*
X965399Y-633699D01*
X967200Y-636599D01*
X968699Y-639699D01*
X969799Y-643000D01*
X970399Y-646399D01*
X970600Y-649800D01*
X970600Y-681500D01*
X970399Y-684899D01*
X969799Y-688299D01*
X968699Y-691599D01*
X967200Y-694699D01*
X965399Y-697600D01*
X963100Y-700300D01*
X960600Y-702699D01*
X957799Y-704699D01*
X954799Y-706399D01*
X951499Y-707699D01*
X948199Y-708499D01*
X944700Y-709000D01*
G37*
G36*
X723800Y-1143499D02*
G01*
X723800Y-1083499D01*
X753800Y-1083499D01*
X753800Y-1143499D01*
G37*
G36*
X686399Y-1143499D02*
G01*
X686399Y-1083499D01*
X716399Y-1083499D01*
X716399Y-1143499D01*
G37*
G36*
X649000Y-1143499D02*
G01*
X649000Y-1083499D01*
X679000Y-1083499D01*
X679000Y-1143499D01*
G37*
G36*
X649000Y-1245500D02*
G01*
X649000Y-1185500D01*
X679000Y-1185500D01*
X679000Y-1245500D01*
G37*
G36*
X723800Y-1245500D02*
G01*
X723800Y-1185500D01*
X753800Y-1185500D01*
X753800Y-1245500D01*
G37*
G36*
X567600Y-943499D02*
G01*
X567600Y-915799D01*
X607100Y-915799D01*
X607100Y-943499D01*
G37*
G36*
X567600Y-904200D02*
G01*
X567600Y-876500D01*
X607100Y-876500D01*
X607100Y-904200D01*
G37*
G36*
X567600Y-1038499D02*
G01*
X567600Y-1010799D01*
X607100Y-1010799D01*
X607100Y-1038499D01*
G37*
G36*
X567600Y-999200D02*
G01*
X567600Y-971500D01*
X607100Y-971500D01*
X607100Y-999200D01*
G37*
G36*
X567600Y-1128499D02*
G01*
X567600Y-1100799D01*
X607100Y-1100799D01*
X607100Y-1128499D01*
G37*
G36*
X567600Y-1089200D02*
G01*
X567600Y-1061500D01*
X607100Y-1061500D01*
X607100Y-1089200D01*
G37*
G36*
X477399Y-1115399D02*
G01*
X477399Y-1085399D01*
X536399Y-1085399D01*
X536399Y-1115399D01*
G37*
G36*
X477399Y-1040599D02*
G01*
X477399Y-1010599D01*
X536399Y-1010599D01*
X536399Y-1040599D01*
G37*
G36*
X396399Y-1078000D02*
G01*
X396399Y-1048000D01*
X455399Y-1048000D01*
X455399Y-1078000D01*
G37*
G36*
X703800Y-1304699D02*
G01*
X703800Y-1265300D01*
X731500Y-1265300D01*
X731500Y-1304699D01*
G37*
G36*
X743200Y-1304699D02*
G01*
X743200Y-1265300D01*
X770900Y-1265300D01*
X770900Y-1304699D01*
G37*
G36*
X943199Y-1429699D02*
G01*
X943199Y-1390199D01*
X970900Y-1390199D01*
X970900Y-1429699D01*
G37*
G36*
X903800Y-1429699D02*
G01*
X903800Y-1390199D01*
X931499Y-1390199D01*
X931499Y-1429699D01*
G37*
G36*
X390300Y-849200D02*
G01*
X390300Y-821500D01*
X429699Y-821500D01*
X429699Y-849200D01*
G37*
G36*
X390300Y-888499D02*
G01*
X390300Y-860799D01*
X429699Y-860799D01*
X429699Y-888499D01*
G37*
G36*
X495799Y-1579699D02*
G01*
X495799Y-1540300D01*
X523499Y-1540300D01*
X523499Y-1579699D01*
G37*
G36*
X456500Y-1579699D02*
G01*
X456500Y-1540300D01*
X484200Y-1540300D01*
X484200Y-1579699D01*
G37*
G36*
X817600Y-904200D02*
G01*
X817600Y-876500D01*
X857100Y-876500D01*
X857100Y-904200D01*
G37*
G36*
X817600Y-943499D02*
G01*
X817600Y-915799D01*
X857100Y-915799D01*
X857100Y-943499D01*
G37*
G36*
X642600Y-1343499D02*
G01*
X642600Y-1315799D01*
X682100Y-1315799D01*
X682100Y-1343499D01*
G37*
G36*
X642600Y-1304200D02*
G01*
X642600Y-1276500D01*
X682100Y-1276500D01*
X682100Y-1304200D01*
G37*
G36*
X913800Y-1234699D02*
G01*
X913800Y-1195300D01*
X941499Y-1195300D01*
X941499Y-1234699D01*
G37*
G36*
X953199Y-1234699D02*
G01*
X953199Y-1195300D01*
X980900Y-1195300D01*
X980900Y-1234699D01*
G37*
G36*
X787600Y-1164200D02*
G01*
X787600Y-1136500D01*
X827100Y-1136500D01*
X827100Y-1164200D01*
G37*
G36*
X787600Y-1203499D02*
G01*
X787600Y-1175799D01*
X827100Y-1175799D01*
X827100Y-1203499D01*
G37*
G36*
X995799Y-229699D02*
G01*
X995799Y-190300D01*
X1023500Y-190300D01*
X1023500Y-229699D01*
G37*
G36*
X956499Y-229699D02*
G01*
X956499Y-190300D01*
X984200Y-190300D01*
X984200Y-229699D01*
G37*
G36*
X796499Y-229699D02*
G01*
X796499Y-190300D01*
X824200Y-190300D01*
X824200Y-229699D01*
G37*
G36*
X835799Y-229699D02*
G01*
X835799Y-190300D01*
X863500Y-190300D01*
X863500Y-229699D01*
G37*
G36*
X937600Y-1013499D02*
G01*
X937600Y-985799D01*
X977100Y-985799D01*
X977100Y-1013499D01*
G37*
G36*
X937600Y-974200D02*
G01*
X937600Y-946500D01*
X977100Y-946500D01*
X977100Y-974200D01*
G37*
G36*
X703800Y-1354699D02*
G01*
X703800Y-1315300D01*
X731500Y-1315300D01*
X731500Y-1354699D01*
G37*
G36*
X743200Y-1354699D02*
G01*
X743200Y-1315300D01*
X770900Y-1315300D01*
X770900Y-1354699D01*
G37*
G36*
X893800Y-909699D02*
G01*
X893800Y-870300D01*
X921499Y-870300D01*
X921499Y-909699D01*
G37*
G36*
X933199Y-909699D02*
G01*
X933199Y-870300D01*
X960900Y-870300D01*
X960900Y-909699D01*
G37*
G36*
X2490900Y-277699D02*
G01*
X2490900Y-222500D01*
X2569799Y-222500D01*
X2569799Y-277699D01*
G37*
G36*
X2490900Y-537500D02*
G01*
X2490900Y-482300D01*
X2569799Y-482300D01*
X2569799Y-537500D01*
G37*
G36*
X2595200Y-474499D02*
G01*
X2595200Y-442899D01*
X2664200Y-442899D01*
X2664200Y-474499D01*
G37*
G36*
X2595200Y-435199D02*
G01*
X2595200Y-403600D01*
X2664200Y-403600D01*
X2664200Y-435199D01*
G37*
G36*
X2595200Y-395799D02*
G01*
X2595200Y-364200D01*
X2664200Y-364200D01*
X2664200Y-395799D01*
G37*
G36*
X2595200Y-356399D02*
G01*
X2595200Y-324800D01*
X2664200Y-324800D01*
X2664200Y-356399D01*
G37*
G36*
X2595200Y-317100D02*
G01*
X2595200Y-285399D01*
X2664200Y-285399D01*
X2664200Y-317100D01*
G37*
G36*
X648800Y-1064800D02*
G01*
X648800Y-1025300D01*
X676500Y-1025300D01*
X676500Y-1064800D01*
G37*
G36*
X688200Y-1064800D02*
G01*
X688200Y-1025300D01*
X715900Y-1025300D01*
X715900Y-1064800D01*
G37*
G36*
X941800Y-1362800D02*
G01*
X941800Y-1331199D01*
X993100Y-1331199D01*
X993100Y-1362800D01*
G37*
G36*
X941800Y-1325799D02*
G01*
X941800Y-1294200D01*
X993100Y-1294200D01*
X993100Y-1325799D01*
G37*
G36*
X941800Y-1288800D02*
G01*
X941800Y-1257199D01*
X993100Y-1257199D01*
X993100Y-1288800D01*
G37*
G36*
X831599Y-1288800D02*
G01*
X831599Y-1257199D01*
X882899Y-1257199D01*
X882899Y-1288800D01*
G37*
G36*
X831599Y-1325799D02*
G01*
X831599Y-1294200D01*
X882899Y-1294200D01*
X882899Y-1325799D01*
G37*
G36*
X831599Y-1362800D02*
G01*
X831599Y-1331199D01*
X882899Y-1331199D01*
X882899Y-1362800D01*
G37*
G36*
X464200Y-1633800D02*
G01*
X464200Y-1602199D01*
X515500Y-1602199D01*
X515500Y-1633800D01*
G37*
G36*
X464200Y-1670799D02*
G01*
X464200Y-1639200D01*
X515500Y-1639200D01*
X515500Y-1670799D01*
G37*
G36*
X464200Y-1707800D02*
G01*
X464200Y-1676199D01*
X515500Y-1676199D01*
X515500Y-1707800D01*
G37*
G36*
X574499Y-1707800D02*
G01*
X574499Y-1676199D01*
X625799Y-1676199D01*
X625799Y-1707800D01*
G37*
G36*
X574499Y-1670799D02*
G01*
X574499Y-1639200D01*
X625799Y-1639200D01*
X625799Y-1670799D01*
G37*
G36*
X574499Y-1633800D02*
G01*
X574499Y-1602199D01*
X625799Y-1602199D01*
X625799Y-1633800D01*
G37*
G36*
X1795799Y-1867500D02*
G01*
X1795799Y-1828000D01*
X1823500Y-1828000D01*
X1823500Y-1867500D01*
G37*
G36*
X1756499Y-1867500D02*
G01*
X1756499Y-1828000D01*
X1784200Y-1828000D01*
X1784200Y-1867500D01*
G37*
G36*
X1587799Y-1734499D02*
G01*
X1587799Y-1690999D01*
X1627299Y-1690999D01*
X1627299Y-1734499D01*
G37*
G36*
X1532700Y-1734499D02*
G01*
X1532700Y-1690999D01*
X1572200Y-1690999D01*
X1572200Y-1734499D01*
G37*
G36*
X1857700Y-1141700D02*
G01*
X1857700Y-1098299D01*
X1897200Y-1098299D01*
X1897200Y-1141700D01*
G37*
G36*
X1912799Y-1141700D02*
G01*
X1912799Y-1098299D01*
X1952299Y-1098299D01*
X1952299Y-1141700D01*
G37*
D82*
G01*
X190000Y-1202829D03*
G36*
X142699Y-1604499D02*
G01*
X142699Y-1509899D01*
X237300Y-1509899D01*
X237300Y-1604499D01*
G37*
D84*
G01*
X1360000Y-1502130D03*
G01*
X1360000Y-1423389D03*
G36*
X1659300Y-666300D02*
G01*
X1659300Y-615000D01*
X1694799Y-615000D01*
X1694799Y-666300D01*
G37*
G36*
X1609300Y-666300D02*
G01*
X1609300Y-615000D01*
X1644799Y-615000D01*
X1644799Y-666300D01*
G37*
G36*
X1559300Y-666300D02*
G01*
X1559300Y-615000D01*
X1594799Y-615000D01*
X1594799Y-666300D01*
G37*
G36*
X1509300Y-666300D02*
G01*
X1509300Y-615000D01*
X1544799Y-615000D01*
X1544799Y-666300D01*
G37*
G36*
X1459300Y-666300D02*
G01*
X1459300Y-615000D01*
X1494799Y-615000D01*
X1494799Y-666300D01*
G37*
G36*
X1409300Y-666300D02*
G01*
X1409300Y-615000D01*
X1444799Y-615000D01*
X1444799Y-666300D01*
G37*
G36*
X1709300Y-666300D02*
G01*
X1709300Y-615000D01*
X1744799Y-615000D01*
X1744799Y-666300D01*
G37*
G36*
X1716700Y-471599D02*
G01*
X1716700Y-436100D01*
X1768000Y-436100D01*
X1768000Y-471599D01*
G37*
G36*
X1716700Y-421599D02*
G01*
X1716700Y-386100D01*
X1768000Y-386100D01*
X1768000Y-421599D01*
G37*
G36*
X1716700Y-371599D02*
G01*
X1716700Y-336100D01*
X1768000Y-336100D01*
X1768000Y-371599D01*
G37*
G36*
X1716700Y-321599D02*
G01*
X1716700Y-286100D01*
X1768000Y-286100D01*
X1768000Y-321599D01*
G37*
G36*
X1716700Y-271599D02*
G01*
X1716700Y-236100D01*
X1768000Y-236100D01*
X1768000Y-271599D01*
G37*
G36*
X1716700Y-221599D02*
G01*
X1716700Y-186100D01*
X1768000Y-186100D01*
X1768000Y-221599D01*
G37*
G36*
X1716700Y-521599D02*
G01*
X1716700Y-486100D01*
X1768000Y-486100D01*
X1768000Y-521599D01*
G37*
G36*
X1716700Y-571599D02*
G01*
X1716700Y-536100D01*
X1768000Y-536100D01*
X1768000Y-571599D01*
G37*
G36*
X1279700Y-596599D02*
G01*
X1279700Y-561100D01*
X1362500Y-561100D01*
X1362500Y-596599D01*
G37*
G36*
X1279700Y-646599D02*
G01*
X1279700Y-611100D01*
X1362500Y-611100D01*
X1362500Y-646599D01*
G37*
G36*
X1279700Y-546599D02*
G01*
X1279700Y-511100D01*
X1362500Y-511100D01*
X1362500Y-546599D01*
G37*
G36*
X1279700Y-496599D02*
G01*
X1279700Y-461100D01*
X1362500Y-461100D01*
X1362500Y-496599D01*
G37*
G36*
X1279700Y-446599D02*
G01*
X1279700Y-411100D01*
X1362500Y-411100D01*
X1362500Y-446599D01*
G37*
G36*
X1279700Y-396599D02*
G01*
X1279700Y-361100D01*
X1362500Y-361100D01*
X1362500Y-396599D01*
G37*
G36*
X1279700Y-346599D02*
G01*
X1279700Y-311100D01*
X1362500Y-311100D01*
X1362500Y-346599D01*
G37*
G36*
X1279700Y-296599D02*
G01*
X1279700Y-261100D01*
X1362500Y-261100D01*
X1362500Y-296599D01*
G37*
G36*
X1279700Y-246599D02*
G01*
X1279700Y-211100D01*
X1362500Y-211100D01*
X1362500Y-246599D01*
G37*
G36*
X1279700Y-196599D02*
G01*
X1279700Y-161100D01*
X1362500Y-161100D01*
X1362500Y-196599D01*
G37*
G36*
X1791499Y-246599D02*
G01*
X1791499Y-211100D01*
X1874300Y-211100D01*
X1874300Y-246599D01*
G37*
G36*
X1791499Y-196599D02*
G01*
X1791499Y-161100D01*
X1874300Y-161100D01*
X1874300Y-196599D01*
G37*
G36*
X1791499Y-296599D02*
G01*
X1791499Y-261100D01*
X1874300Y-261100D01*
X1874300Y-296599D01*
G37*
G36*
X1791499Y-346599D02*
G01*
X1791499Y-311100D01*
X1874300Y-311100D01*
X1874300Y-346599D01*
G37*
G36*
X1791499Y-396599D02*
G01*
X1791499Y-361100D01*
X1874300Y-361100D01*
X1874300Y-396599D01*
G37*
G36*
X1791499Y-446599D02*
G01*
X1791499Y-411100D01*
X1874300Y-411100D01*
X1874300Y-446599D01*
G37*
G36*
X1791499Y-496599D02*
G01*
X1791499Y-461100D01*
X1874300Y-461100D01*
X1874300Y-496599D01*
G37*
G36*
X1791499Y-546599D02*
G01*
X1791499Y-511100D01*
X1874300Y-511100D01*
X1874300Y-546599D01*
G37*
G36*
X1791499Y-596599D02*
G01*
X1791499Y-561100D01*
X1874300Y-561100D01*
X1874300Y-596599D01*
G37*
G36*
X1791499Y-646599D02*
G01*
X1791499Y-611100D01*
X1874300Y-611100D01*
X1874300Y-646599D01*
G37*
G36*
X1384300Y-772600D02*
G01*
X1384300Y-689800D01*
X1419799Y-689800D01*
X1419799Y-772600D01*
G37*
G36*
X1434300Y-772600D02*
G01*
X1434300Y-689800D01*
X1469799Y-689800D01*
X1469799Y-772600D01*
G37*
G36*
X1484300Y-772600D02*
G01*
X1484300Y-689800D01*
X1519799Y-689800D01*
X1519799Y-772600D01*
G37*
G36*
X1534300Y-772600D02*
G01*
X1534300Y-689800D01*
X1569799Y-689800D01*
X1569799Y-772600D01*
G37*
G36*
X1584300Y-772600D02*
G01*
X1584300Y-689800D01*
X1619799Y-689800D01*
X1619799Y-772600D01*
G37*
G36*
X1634300Y-772600D02*
G01*
X1634300Y-689800D01*
X1669799Y-689800D01*
X1669799Y-772600D01*
G37*
G36*
X1684300Y-772600D02*
G01*
X1684300Y-689800D01*
X1719799Y-689800D01*
X1719799Y-772600D01*
G37*
G36*
X1734300Y-772600D02*
G01*
X1734300Y-689800D01*
X1769799Y-689800D01*
X1769799Y-772600D01*
G37*
G36*
X2490900Y-672699D02*
G01*
X2490900Y-617500D01*
X2569799Y-617500D01*
X2569799Y-672699D01*
G37*
G36*
X2490900Y-932500D02*
G01*
X2490900Y-877300D01*
X2569799Y-877300D01*
X2569799Y-932500D01*
G37*
G36*
X2595200Y-869499D02*
G01*
X2595200Y-837899D01*
X2664200Y-837899D01*
X2664200Y-869499D01*
G37*
G36*
X2595200Y-830199D02*
G01*
X2595200Y-798600D01*
X2664200Y-798600D01*
X2664200Y-830199D01*
G37*
G36*
X2595200Y-790799D02*
G01*
X2595200Y-759200D01*
X2664200Y-759200D01*
X2664200Y-790799D01*
G37*
G36*
X2595200Y-751399D02*
G01*
X2595200Y-719800D01*
X2664200Y-719800D01*
X2664200Y-751399D01*
G37*
G36*
X2595200Y-712100D02*
G01*
X2595200Y-680399D01*
X2664200Y-680399D01*
X2664200Y-712100D01*
G37*
D89*
G01*
X2550000Y-1400000D03*
G01*
X2450000Y-1300000D03*
G01*
X2350000Y-1400000D03*
M02*
