G04 Layer: BoardOutline*
G04 EasyEDA v6.4.19.5, 2021-05-22T15:38:53+02:00*
G04 3629cfa7d52e4947b918c6b19203bcd8,b771c775d4444e86a06a5321f8c966cb,10*
G04 Gerber Generator version 0.2*
G04 Scale: 100 percent, Rotated: No, Reflected: No *
G04 Dimensions in inches *
G04 leading zeros omitted , absolute positions ,3 integer and 6 decimal *
%FSLAX36Y36*%
%MOIN*%

%ADD10C,0.0100*%
D10*
X305000Y0D02*
G01*
X2845000Y0D01*
X2845000Y-145000D02*
G01*
X2845000Y0D01*
X305000Y0D02*
G01*
X305000Y-145000D01*
X305000Y-2010000D02*
G01*
X2845000Y-2010000D01*
X3150000Y-305000D02*
G01*
X3150000Y-1705000D01*
X305000Y-2010000D02*
G01*
X305000Y-1865000D01*
X145000Y-1705000D02*
G01*
X0Y-1705000D01*
X0Y-305000D02*
G01*
X145000Y-305000D01*
X3150000Y-305000D02*
G01*
X3005000Y-305000D01*
X2845000Y-2010000D02*
G01*
X2845000Y-1865000D01*
X3005000Y-1705000D02*
G01*
X3150000Y-1705000D01*
X0Y-305000D02*
G01*
X0Y-1705000D01*
G75*
G01*
X145000Y-305000D02*
G03*
X305000Y-145000I0J160000D01*
G75*
G01*
X305000Y-1865000D02*
G03*
X145000Y-1705000I-160000J0D01*
G75*
G01*
X2845000Y-145000D02*
G03*
X3005000Y-305000I160000J0D01*
G75*
G01*
X3005000Y-1705000D02*
G03*
X2845000Y-1865000I0J-160000D01*
X2345000Y-135000D02*
G01*
X2845000Y-135000D01*
X2845000Y-135000D02*
G01*
X2845000Y-155000D01*
X2845000Y-155000D02*
G01*
X2345000Y-155000D01*
X2345000Y-155000D02*
G01*
X2345000Y-135000D01*
X305000Y-135000D02*
G01*
X805000Y-135000D01*
X805000Y-135000D02*
G01*
X805000Y-155000D01*
X805000Y-155000D02*
G01*
X305000Y-155000D01*
X305000Y-155000D02*
G01*
X305000Y-135000D01*
X1015000Y-135000D02*
G01*
X2135000Y-135000D01*
X2135000Y-135000D02*
G01*
X2135000Y-155000D01*
X2135000Y-155000D02*
G01*
X1015000Y-155000D01*
X1015000Y-155000D02*
G01*
X1015000Y-135000D01*

%LPD*%
M02*
