G04 Layer: BottomLayer*
G04 EasyEDA v6.4.19.5, 2021-05-22T15:38:53+02:00*
G04 3629cfa7d52e4947b918c6b19203bcd8,b771c775d4444e86a06a5321f8c966cb,10*
G04 Gerber Generator version 0.2*
G04 Scale: 100 percent, Rotated: No, Reflected: No *
G04 Dimensions in inches *
G04 leading zeros omitted , absolute positions ,3 integer and 6 decimal *
%FSLAX36Y36*%
%MOIN*%

%ADD10C,0.0100*%
%ADD11C,0.0200*%
%ADD17C,0.0240*%
%ADD18C,0.1800*%
%ADD19C,0.0480*%
%ADD20C,0.0360*%
%ADD45C,0.0630*%
%ADD46C,0.0532*%
%ADD47C,0.0866*%
%ADD48R,0.0866X0.0866*%
%ADD49C,0.0630*%
%ADD50C,0.0591*%
%ADD51C,0.0472*%

%LPD*%
G36*
X1502020Y-596840D02*
G01*
X1500320Y-596460D01*
X1498959Y-595420D01*
X1498160Y-593880D01*
X1497780Y-592440D01*
X1496140Y-588960D01*
X1493940Y-585800D01*
X1491220Y-583080D01*
X1488060Y-580880D01*
X1484580Y-579240D01*
X1480860Y-578260D01*
X1477020Y-577920D01*
X1473180Y-578260D01*
X1469460Y-579240D01*
X1465980Y-580880D01*
X1462820Y-583080D01*
X1460100Y-585800D01*
X1459280Y-586960D01*
X1458180Y-588020D01*
X1456780Y-588600D01*
X1455240Y-588600D01*
X1453839Y-588020D01*
X1452740Y-586960D01*
X1451920Y-585800D01*
X1449199Y-583080D01*
X1446040Y-580880D01*
X1442560Y-579240D01*
X1438839Y-578260D01*
X1435000Y-577920D01*
X1431160Y-578260D01*
X1430140Y-578520D01*
X1428680Y-578640D01*
X1427280Y-578220D01*
X1426120Y-577340D01*
X1425360Y-576100D01*
X1425100Y-574660D01*
X1425100Y-355200D01*
X1424800Y-352060D01*
X1423940Y-349219D01*
X1422540Y-346620D01*
X1420540Y-344180D01*
X1409480Y-333120D01*
X1408540Y-331640D01*
X1406960Y-327200D01*
X1405760Y-322440D01*
X1404120Y-318960D01*
X1401920Y-315800D01*
X1399199Y-313080D01*
X1396040Y-310880D01*
X1392560Y-309240D01*
X1391120Y-308860D01*
X1389580Y-308060D01*
X1388540Y-306700D01*
X1388160Y-305000D01*
X1388540Y-303300D01*
X1389580Y-301940D01*
X1391120Y-301140D01*
X1392560Y-300760D01*
X1396040Y-299120D01*
X1399199Y-296920D01*
X1401920Y-294200D01*
X1404120Y-291040D01*
X1405760Y-287560D01*
X1406740Y-283840D01*
X1407080Y-280000D01*
X1406740Y-276160D01*
X1405760Y-272440D01*
X1404120Y-268960D01*
X1401920Y-265800D01*
X1399199Y-263080D01*
X1396040Y-260880D01*
X1392560Y-259240D01*
X1388839Y-258260D01*
X1387520Y-258140D01*
X1386060Y-257719D01*
X1384880Y-256800D01*
X1384100Y-255520D01*
X1383860Y-254040D01*
X1384180Y-252560D01*
X1385040Y-251320D01*
X1440080Y-196280D01*
X1441380Y-195400D01*
X1442920Y-195100D01*
X1674660Y-195100D01*
X1676100Y-195360D01*
X1677340Y-196119D01*
X1678220Y-197280D01*
X1678640Y-198680D01*
X1678520Y-200140D01*
X1678260Y-201160D01*
X1677920Y-205000D01*
X1678260Y-208840D01*
X1679240Y-212560D01*
X1680880Y-216040D01*
X1683080Y-219200D01*
X1685800Y-221920D01*
X1688959Y-224120D01*
X1692520Y-225780D01*
X1693740Y-226660D01*
X1694540Y-227940D01*
X1694820Y-229420D01*
X1694540Y-230880D01*
X1693740Y-232160D01*
X1692520Y-233039D01*
X1688959Y-234700D01*
X1685800Y-236900D01*
X1683080Y-239620D01*
X1680880Y-242780D01*
X1679240Y-246260D01*
X1678260Y-249980D01*
X1677920Y-253820D01*
X1678260Y-257659D01*
X1679240Y-261380D01*
X1680880Y-264860D01*
X1683080Y-268020D01*
X1685800Y-270740D01*
X1688959Y-272940D01*
X1692440Y-274580D01*
X1696080Y-275540D01*
X1697620Y-276340D01*
X1698660Y-277720D01*
X1699040Y-279420D01*
X1698660Y-281100D01*
X1697620Y-282480D01*
X1696080Y-283280D01*
X1692440Y-284240D01*
X1688959Y-285880D01*
X1685800Y-288080D01*
X1683080Y-290800D01*
X1680880Y-293960D01*
X1679240Y-297440D01*
X1678260Y-301160D01*
X1677920Y-305000D01*
X1678260Y-308840D01*
X1679240Y-312560D01*
X1680880Y-316040D01*
X1683080Y-319200D01*
X1685800Y-321920D01*
X1688959Y-324120D01*
X1692440Y-325760D01*
X1693880Y-326140D01*
X1695420Y-326940D01*
X1696459Y-328300D01*
X1696840Y-330000D01*
X1696459Y-331700D01*
X1695420Y-333060D01*
X1693880Y-333860D01*
X1692440Y-334240D01*
X1688959Y-335880D01*
X1685800Y-338080D01*
X1683080Y-340800D01*
X1680880Y-343960D01*
X1679240Y-347440D01*
X1678260Y-351160D01*
X1677920Y-355000D01*
X1678260Y-358840D01*
X1679240Y-362560D01*
X1680880Y-366040D01*
X1683080Y-369200D01*
X1685800Y-371920D01*
X1688959Y-374120D01*
X1692440Y-375760D01*
X1693880Y-376140D01*
X1695420Y-376940D01*
X1696459Y-378300D01*
X1696840Y-380000D01*
X1696459Y-381700D01*
X1695420Y-383060D01*
X1693880Y-383860D01*
X1692440Y-384240D01*
X1688959Y-385880D01*
X1685800Y-388080D01*
X1683080Y-390800D01*
X1680880Y-393960D01*
X1679240Y-397440D01*
X1678260Y-401160D01*
X1677920Y-405000D01*
X1678260Y-408840D01*
X1679240Y-412560D01*
X1680880Y-416040D01*
X1683080Y-419200D01*
X1685800Y-421920D01*
X1688959Y-424120D01*
X1692440Y-425760D01*
X1693880Y-426140D01*
X1695420Y-426940D01*
X1696459Y-428300D01*
X1696840Y-430000D01*
X1696459Y-431700D01*
X1695420Y-433060D01*
X1693880Y-433860D01*
X1692440Y-434240D01*
X1688959Y-435880D01*
X1685800Y-438080D01*
X1683080Y-440800D01*
X1680880Y-443960D01*
X1679240Y-447440D01*
X1678260Y-451160D01*
X1677920Y-455000D01*
X1678260Y-458840D01*
X1679240Y-462560D01*
X1680880Y-466040D01*
X1683080Y-469200D01*
X1685800Y-471920D01*
X1688959Y-474120D01*
X1692520Y-475780D01*
X1693740Y-476659D01*
X1694540Y-477939D01*
X1694820Y-479420D01*
X1694540Y-480880D01*
X1693740Y-482160D01*
X1692520Y-483040D01*
X1688959Y-484700D01*
X1685800Y-486900D01*
X1683080Y-489620D01*
X1680880Y-492780D01*
X1679240Y-496260D01*
X1678260Y-499980D01*
X1677920Y-503820D01*
X1678260Y-507660D01*
X1679240Y-511380D01*
X1680880Y-514860D01*
X1683080Y-518020D01*
X1685800Y-520740D01*
X1688959Y-522939D01*
X1692440Y-524580D01*
X1693880Y-524960D01*
X1695420Y-525760D01*
X1696459Y-527120D01*
X1696840Y-528820D01*
X1696459Y-530520D01*
X1695420Y-531880D01*
X1693880Y-532680D01*
X1692440Y-533060D01*
X1688959Y-534700D01*
X1685800Y-536900D01*
X1683080Y-539620D01*
X1680880Y-542780D01*
X1679240Y-546260D01*
X1678260Y-549980D01*
X1677920Y-553820D01*
X1678260Y-557660D01*
X1679240Y-561380D01*
X1680600Y-564260D01*
X1680960Y-565840D01*
X1680680Y-567420D01*
X1679800Y-568780D01*
X1678440Y-569660D01*
X1676860Y-569940D01*
X1675280Y-569580D01*
X1674580Y-569240D01*
X1670860Y-568260D01*
X1667020Y-567920D01*
X1663180Y-568260D01*
X1659460Y-569240D01*
X1655980Y-570880D01*
X1652820Y-573080D01*
X1649840Y-576060D01*
X1648540Y-576920D01*
X1647000Y-577220D01*
X1645480Y-576920D01*
X1644180Y-576060D01*
X1641220Y-573080D01*
X1638060Y-570880D01*
X1634580Y-569240D01*
X1630860Y-568260D01*
X1627020Y-567920D01*
X1623180Y-568260D01*
X1619460Y-569240D01*
X1615980Y-570880D01*
X1612820Y-573080D01*
X1610100Y-575800D01*
X1607900Y-578960D01*
X1606380Y-582220D01*
X1605440Y-583500D01*
X1604079Y-584300D01*
X1602520Y-584520D01*
X1600980Y-584120D01*
X1599740Y-583160D01*
X1596339Y-579240D01*
X1593940Y-575800D01*
X1591220Y-573080D01*
X1588060Y-570880D01*
X1584580Y-569240D01*
X1580860Y-568260D01*
X1577020Y-567920D01*
X1573180Y-568260D01*
X1569460Y-569240D01*
X1565980Y-570880D01*
X1562820Y-573080D01*
X1560100Y-575800D01*
X1557900Y-578960D01*
X1556260Y-582440D01*
X1555280Y-586160D01*
X1554920Y-590120D01*
X1554400Y-591780D01*
X1553240Y-593060D01*
X1551639Y-593720D01*
X1549900Y-593640D01*
X1548360Y-592840D01*
X1547320Y-591460D01*
X1546140Y-588960D01*
X1543940Y-585800D01*
X1541220Y-583080D01*
X1538060Y-580880D01*
X1534580Y-579240D01*
X1530860Y-578260D01*
X1527020Y-577920D01*
X1523180Y-578260D01*
X1519460Y-579240D01*
X1515980Y-580880D01*
X1512820Y-583080D01*
X1510100Y-585800D01*
X1507900Y-588960D01*
X1506260Y-592440D01*
X1505880Y-593880D01*
X1505080Y-595420D01*
X1503720Y-596460D01*
G37*

%LPD*%
G36*
X1634600Y-787400D02*
G01*
X1632920Y-787260D01*
X1631459Y-786440D01*
X1630460Y-785080D01*
X1630100Y-783439D01*
X1630100Y-679100D01*
X1630400Y-677560D01*
X1631279Y-676280D01*
X1632560Y-675400D01*
X1634100Y-675100D01*
X1657080Y-675100D01*
X1658620Y-675400D01*
X1659920Y-676280D01*
X1668720Y-685080D01*
X1669600Y-686380D01*
X1669900Y-687920D01*
X1669900Y-781120D01*
X1669600Y-782660D01*
X1668720Y-783940D01*
X1667440Y-784820D01*
X1665900Y-785120D01*
X1664360Y-784820D01*
X1660680Y-783280D01*
X1656399Y-782260D01*
X1652000Y-781919D01*
X1647600Y-782260D01*
X1643320Y-783280D01*
X1639240Y-784980D01*
X1636180Y-786840D01*
G37*

%LPD*%
G36*
X2804100Y-1100980D02*
G01*
X2802520Y-1100700D01*
X2801160Y-1099800D01*
X2733279Y-1031919D01*
X2732420Y-1030639D01*
X2732120Y-1029100D01*
X2732420Y-1027560D01*
X2733279Y-1026280D01*
X2734580Y-1025400D01*
X2736120Y-1025100D01*
X2752080Y-1025100D01*
X2753620Y-1025400D01*
X2754920Y-1026280D01*
X2805360Y-1076700D01*
X2806160Y-1077840D01*
X2806500Y-1079200D01*
X2807980Y-1096640D01*
X2807780Y-1098240D01*
X2806980Y-1099640D01*
X2805680Y-1100600D01*
G37*

%LPD*%
G36*
X1974560Y-1126620D02*
G01*
X1973060Y-1126300D01*
X1971800Y-1125440D01*
X1701279Y-854920D01*
X1700400Y-853620D01*
X1700100Y-852080D01*
X1700100Y-751120D01*
X1700400Y-749580D01*
X1701279Y-748280D01*
X1702560Y-747420D01*
X1704100Y-747120D01*
X1705640Y-747420D01*
X1706920Y-748280D01*
X2022360Y-1063720D01*
X2023260Y-1065120D01*
X2023520Y-1066760D01*
X2023100Y-1068360D01*
X2022060Y-1069660D01*
X2020580Y-1070420D01*
X2017440Y-1071240D01*
X2013959Y-1072880D01*
X2010800Y-1075080D01*
X2008080Y-1077800D01*
X2005880Y-1080960D01*
X2005420Y-1081920D01*
X2004460Y-1083220D01*
X2003060Y-1084020D01*
X2001459Y-1084220D01*
X1998000Y-1083920D01*
X1994160Y-1084260D01*
X1990440Y-1085240D01*
X1986960Y-1086880D01*
X1983800Y-1089080D01*
X1981080Y-1091800D01*
X1978880Y-1094960D01*
X1977240Y-1098440D01*
X1976260Y-1102160D01*
X1975920Y-1106000D01*
X1976260Y-1109840D01*
X1977240Y-1113560D01*
X1978880Y-1117040D01*
X1979340Y-1117700D01*
X1979980Y-1119200D01*
X1979980Y-1120800D01*
X1979340Y-1122300D01*
X1978880Y-1122960D01*
X1978240Y-1124300D01*
X1977360Y-1125540D01*
X1976060Y-1126340D01*
G37*

%LPD*%
G36*
X2804100Y-1200980D02*
G01*
X2802520Y-1200700D01*
X2801160Y-1199800D01*
X2673279Y-1071920D01*
X2672420Y-1070640D01*
X2672120Y-1069100D01*
X2672420Y-1067560D01*
X2673279Y-1066280D01*
X2674580Y-1065400D01*
X2676120Y-1065100D01*
X2692080Y-1065100D01*
X2693620Y-1065400D01*
X2694920Y-1066280D01*
X2805360Y-1176700D01*
X2806160Y-1177840D01*
X2806500Y-1179200D01*
X2807980Y-1196640D01*
X2807780Y-1198240D01*
X2806980Y-1199640D01*
X2805680Y-1200600D01*
G37*

%LPD*%
G36*
X2804100Y-1300980D02*
G01*
X2802520Y-1300700D01*
X2801160Y-1299800D01*
X2613279Y-1111920D01*
X2612420Y-1110640D01*
X2612120Y-1109100D01*
X2612420Y-1107560D01*
X2613279Y-1106280D01*
X2614580Y-1105400D01*
X2616120Y-1105100D01*
X2632080Y-1105100D01*
X2633620Y-1105400D01*
X2634920Y-1106280D01*
X2805360Y-1276700D01*
X2806160Y-1277840D01*
X2806500Y-1279200D01*
X2807980Y-1296639D01*
X2807780Y-1298240D01*
X2806980Y-1299640D01*
X2805680Y-1300600D01*
G37*

%LPD*%
G36*
X2804100Y-1400980D02*
G01*
X2802520Y-1400700D01*
X2801160Y-1399800D01*
X2553280Y-1151920D01*
X2552420Y-1150640D01*
X2552120Y-1149100D01*
X2552420Y-1147560D01*
X2553280Y-1146280D01*
X2554580Y-1145400D01*
X2556120Y-1145100D01*
X2572080Y-1145100D01*
X2573620Y-1145400D01*
X2574920Y-1146280D01*
X2805360Y-1376699D01*
X2806160Y-1377840D01*
X2806500Y-1379199D01*
X2807980Y-1396639D01*
X2807780Y-1398240D01*
X2806980Y-1399640D01*
X2805680Y-1400600D01*
G37*

%LPD*%
G36*
X2804100Y-1500980D02*
G01*
X2802520Y-1500700D01*
X2801160Y-1499800D01*
X2503280Y-1201920D01*
X2502420Y-1200640D01*
X2502120Y-1199100D01*
X2502420Y-1197560D01*
X2503280Y-1196280D01*
X2504580Y-1195400D01*
X2506120Y-1195100D01*
X2522080Y-1195100D01*
X2523620Y-1195400D01*
X2524920Y-1196280D01*
X2805360Y-1476699D01*
X2806160Y-1477840D01*
X2806500Y-1479199D01*
X2807980Y-1496639D01*
X2807780Y-1498240D01*
X2806980Y-1499640D01*
X2805680Y-1500600D01*
G37*

%LPD*%
G36*
X319100Y-1999900D02*
G01*
X317560Y-1999600D01*
X316280Y-1998720D01*
X315400Y-1997440D01*
X315100Y-1995900D01*
X315100Y-1865060D01*
X314660Y-1853000D01*
X313460Y-1841440D01*
X311460Y-1830000D01*
X308680Y-1818720D01*
X305140Y-1807660D01*
X300860Y-1796879D01*
X295840Y-1786399D01*
X290120Y-1776279D01*
X283740Y-1766579D01*
X276700Y-1757340D01*
X269040Y-1748620D01*
X260799Y-1740420D01*
X252040Y-1732800D01*
X242760Y-1725820D01*
X233039Y-1719460D01*
X222900Y-1713800D01*
X212399Y-1708839D01*
X201580Y-1704600D01*
X190500Y-1701100D01*
X179220Y-1698380D01*
X167760Y-1696440D01*
X156220Y-1695280D01*
X144940Y-1694900D01*
X14100Y-1694900D01*
X12560Y-1694600D01*
X11279Y-1693720D01*
X10400Y-1692440D01*
X10100Y-1690900D01*
X10100Y-319100D01*
X10400Y-317560D01*
X11279Y-316280D01*
X12560Y-315400D01*
X14100Y-315100D01*
X144940Y-315100D01*
X157000Y-314660D01*
X168560Y-313460D01*
X180000Y-311460D01*
X191280Y-308680D01*
X202340Y-305140D01*
X213120Y-300860D01*
X223600Y-295840D01*
X233720Y-290120D01*
X243420Y-283740D01*
X252659Y-276700D01*
X261380Y-269040D01*
X269580Y-260799D01*
X277200Y-252040D01*
X284180Y-242760D01*
X290540Y-233039D01*
X296200Y-222900D01*
X301160Y-212399D01*
X305400Y-201580D01*
X308900Y-190500D01*
X311620Y-179220D01*
X313480Y-168420D01*
X313940Y-167120D01*
X314840Y-166040D01*
X316040Y-165340D01*
X317420Y-165100D01*
X804780Y-165100D01*
X807240Y-164820D01*
X809380Y-164080D01*
X809880Y-163760D01*
X811500Y-163180D01*
X813240Y-163340D01*
X816560Y-164420D01*
X820100Y-164899D01*
X823680Y-164740D01*
X827159Y-163960D01*
X830440Y-162540D01*
X833640Y-160440D01*
X835180Y-159840D01*
X836840Y-159920D01*
X838319Y-160660D01*
X839560Y-161640D01*
X842700Y-163320D01*
X846100Y-164420D01*
X849640Y-164899D01*
X853199Y-164740D01*
X856680Y-163960D01*
X859980Y-162540D01*
X863160Y-160440D01*
X864700Y-159840D01*
X866380Y-159920D01*
X867860Y-160660D01*
X869080Y-161640D01*
X872220Y-163320D01*
X875620Y-164420D01*
X879160Y-164899D01*
X882740Y-164740D01*
X886220Y-163960D01*
X889500Y-162540D01*
X892700Y-160440D01*
X894240Y-159840D01*
X895900Y-159920D01*
X897380Y-160660D01*
X898620Y-161640D01*
X901760Y-163320D01*
X905160Y-164420D01*
X908700Y-164899D01*
X912260Y-164740D01*
X915740Y-163960D01*
X919040Y-162540D01*
X922220Y-160440D01*
X923760Y-159840D01*
X925420Y-159920D01*
X926919Y-160660D01*
X928139Y-161640D01*
X931280Y-163320D01*
X934680Y-164420D01*
X938220Y-164899D01*
X941780Y-164740D01*
X945260Y-163960D01*
X948560Y-162540D01*
X951740Y-160440D01*
X953280Y-159840D01*
X954960Y-159920D01*
X956440Y-160660D01*
X957660Y-161640D01*
X960800Y-163320D01*
X964200Y-164420D01*
X967740Y-164899D01*
X971320Y-164740D01*
X974800Y-163960D01*
X978080Y-162540D01*
X981280Y-160440D01*
X982820Y-159840D01*
X984479Y-159920D01*
X985960Y-160660D01*
X987200Y-161640D01*
X990340Y-163320D01*
X993740Y-164420D01*
X997280Y-164899D01*
X1000840Y-164740D01*
X1004320Y-163960D01*
X1006040Y-163220D01*
X1007280Y-162920D01*
X1008560Y-163020D01*
X1009740Y-163520D01*
X1010620Y-164080D01*
X1012760Y-164820D01*
X1015220Y-165100D01*
X1418880Y-165100D01*
X1420420Y-165400D01*
X1421720Y-166280D01*
X1422580Y-167560D01*
X1422880Y-169100D01*
X1422580Y-170640D01*
X1421720Y-171920D01*
X1049460Y-544180D01*
X1047460Y-546620D01*
X1046060Y-549220D01*
X1045200Y-552060D01*
X1044900Y-555200D01*
X1044900Y-645480D01*
X1044520Y-647200D01*
X1042320Y-651800D01*
X1040879Y-653960D01*
X1039240Y-657440D01*
X1038259Y-661160D01*
X1037920Y-665000D01*
X1038259Y-668840D01*
X1039240Y-672560D01*
X1040879Y-676040D01*
X1043080Y-679200D01*
X1045800Y-681919D01*
X1048960Y-684120D01*
X1052440Y-685759D01*
X1056160Y-686740D01*
X1060000Y-687080D01*
X1063840Y-686740D01*
X1067560Y-685759D01*
X1071040Y-684120D01*
X1074200Y-681919D01*
X1077180Y-678940D01*
X1078480Y-678080D01*
X1080020Y-677780D01*
X1081540Y-678080D01*
X1082840Y-678940D01*
X1085800Y-681919D01*
X1088960Y-684120D01*
X1092440Y-685759D01*
X1096160Y-686740D01*
X1100000Y-687080D01*
X1103840Y-686740D01*
X1107560Y-685759D01*
X1111040Y-684120D01*
X1114200Y-681919D01*
X1117180Y-678940D01*
X1118480Y-678080D01*
X1120020Y-677780D01*
X1121540Y-678080D01*
X1122840Y-678940D01*
X1125800Y-681919D01*
X1128960Y-684120D01*
X1132440Y-685759D01*
X1136160Y-686740D01*
X1140000Y-687080D01*
X1143840Y-686740D01*
X1147560Y-685759D01*
X1151040Y-684120D01*
X1154200Y-681919D01*
X1157180Y-678940D01*
X1158480Y-678080D01*
X1160020Y-677780D01*
X1161540Y-678080D01*
X1162840Y-678940D01*
X1165800Y-681919D01*
X1168960Y-684120D01*
X1172440Y-685759D01*
X1176160Y-686740D01*
X1180000Y-687080D01*
X1183840Y-686740D01*
X1187560Y-685759D01*
X1191040Y-684120D01*
X1194200Y-681919D01*
X1196920Y-679200D01*
X1199120Y-676040D01*
X1200760Y-672560D01*
X1201740Y-668840D01*
X1202080Y-665000D01*
X1201740Y-661160D01*
X1200760Y-657440D01*
X1199120Y-653960D01*
X1197680Y-651800D01*
X1195480Y-647200D01*
X1195100Y-645480D01*
X1195100Y-582920D01*
X1195400Y-581380D01*
X1196280Y-580080D01*
X1251880Y-524480D01*
X1253360Y-523540D01*
X1257800Y-521960D01*
X1262560Y-520760D01*
X1266040Y-519120D01*
X1269200Y-516920D01*
X1271920Y-514200D01*
X1274120Y-511040D01*
X1275760Y-507560D01*
X1276740Y-503840D01*
X1277080Y-500000D01*
X1276740Y-496160D01*
X1275760Y-492440D01*
X1274120Y-488960D01*
X1271920Y-485800D01*
X1269200Y-483080D01*
X1266040Y-480880D01*
X1262560Y-479240D01*
X1261120Y-478860D01*
X1259580Y-478060D01*
X1258540Y-476700D01*
X1258160Y-475000D01*
X1258540Y-473300D01*
X1259580Y-471940D01*
X1261120Y-471140D01*
X1262560Y-470760D01*
X1266040Y-469120D01*
X1269200Y-466920D01*
X1271920Y-464200D01*
X1274120Y-461040D01*
X1275760Y-457560D01*
X1276740Y-453840D01*
X1277080Y-450000D01*
X1276740Y-446160D01*
X1275760Y-442440D01*
X1274120Y-438960D01*
X1271920Y-435800D01*
X1269200Y-433080D01*
X1266040Y-430880D01*
X1264020Y-429920D01*
X1262780Y-429040D01*
X1261980Y-427740D01*
X1261700Y-426240D01*
X1262020Y-424739D01*
X1262880Y-423480D01*
X1356320Y-330040D01*
X1357560Y-329180D01*
X1359040Y-328860D01*
X1360520Y-329099D01*
X1361800Y-329880D01*
X1362720Y-331060D01*
X1363140Y-332520D01*
X1363260Y-333840D01*
X1364240Y-337560D01*
X1365880Y-341040D01*
X1368080Y-344200D01*
X1370800Y-346920D01*
X1373959Y-349120D01*
X1377440Y-350760D01*
X1382200Y-351960D01*
X1386639Y-353540D01*
X1388120Y-354480D01*
X1393720Y-360080D01*
X1394600Y-361380D01*
X1394900Y-362920D01*
X1394900Y-618800D01*
X1395200Y-621940D01*
X1396060Y-624780D01*
X1397460Y-627380D01*
X1399460Y-629820D01*
X1445180Y-675540D01*
X1447620Y-677540D01*
X1450220Y-678940D01*
X1453060Y-679800D01*
X1456200Y-680100D01*
X1476660Y-680100D01*
X1478060Y-680360D01*
X1479300Y-681080D01*
X1480180Y-682200D01*
X1480620Y-683560D01*
X1480560Y-684980D01*
X1480040Y-687220D01*
X1478460Y-691640D01*
X1477520Y-693120D01*
X1456920Y-713720D01*
X1455620Y-714599D01*
X1454079Y-714900D01*
X966480Y-714900D01*
X964900Y-714580D01*
X963580Y-713640D01*
X962720Y-712260D01*
X962500Y-710639D01*
X962920Y-709080D01*
X963940Y-707820D01*
X965060Y-706880D01*
X968100Y-703920D01*
X969820Y-701820D01*
X970699Y-700600D01*
X972159Y-698319D01*
X972900Y-696960D01*
X974060Y-694500D01*
X974599Y-693120D01*
X975440Y-690540D01*
X975819Y-689060D01*
X976340Y-686400D01*
X976520Y-684860D01*
X976720Y-681300D01*
X976720Y-650020D01*
X976520Y-646460D01*
X976340Y-644920D01*
X975819Y-642260D01*
X975440Y-640800D01*
X974599Y-638200D01*
X974040Y-636800D01*
X972900Y-634340D01*
X972159Y-633000D01*
X970699Y-630720D01*
X969820Y-629500D01*
X968100Y-627400D01*
X965060Y-624440D01*
X963880Y-623460D01*
X961020Y-621460D01*
X959780Y-620260D01*
X959160Y-618660D01*
X958100Y-611380D01*
X958100Y-569920D01*
X958400Y-568380D01*
X959280Y-567080D01*
X1251880Y-274480D01*
X1253360Y-273540D01*
X1257800Y-271960D01*
X1262560Y-270760D01*
X1266040Y-269120D01*
X1269200Y-266920D01*
X1271920Y-264200D01*
X1274120Y-261040D01*
X1275760Y-257560D01*
X1276740Y-253840D01*
X1277080Y-250000D01*
X1276740Y-246160D01*
X1275760Y-242440D01*
X1274120Y-238960D01*
X1271920Y-235799D01*
X1269200Y-233080D01*
X1266040Y-230880D01*
X1262560Y-229240D01*
X1261120Y-228860D01*
X1259580Y-228060D01*
X1258540Y-226700D01*
X1258160Y-225000D01*
X1258540Y-223299D01*
X1259580Y-221940D01*
X1261120Y-221140D01*
X1262560Y-220760D01*
X1266040Y-219120D01*
X1269200Y-216920D01*
X1271920Y-214200D01*
X1274120Y-211040D01*
X1275760Y-207560D01*
X1276740Y-203840D01*
X1277080Y-200000D01*
X1276740Y-196160D01*
X1275760Y-192440D01*
X1274120Y-188960D01*
X1271920Y-185799D01*
X1269200Y-183080D01*
X1266040Y-180880D01*
X1262560Y-179240D01*
X1258840Y-178260D01*
X1255000Y-177920D01*
X1251160Y-178260D01*
X1247440Y-179240D01*
X1243960Y-180880D01*
X1240800Y-183080D01*
X1238080Y-185799D01*
X1235880Y-188960D01*
X1234240Y-192440D01*
X1233040Y-197200D01*
X1231460Y-201640D01*
X1230520Y-203120D01*
X879920Y-553720D01*
X878620Y-554600D01*
X877080Y-554900D01*
X738900Y-554900D01*
X735759Y-555200D01*
X732920Y-556060D01*
X730320Y-557460D01*
X727880Y-559460D01*
X668500Y-618840D01*
X665340Y-621200D01*
X663980Y-621840D01*
X662460Y-621920D01*
X661020Y-621440D01*
X658020Y-619740D01*
X654160Y-618100D01*
X652660Y-617620D01*
X650040Y-616960D01*
X648560Y-616680D01*
X645860Y-616340D01*
X644360Y-616240D01*
X641640Y-616240D01*
X640140Y-616340D01*
X635980Y-616940D01*
X633340Y-617620D01*
X631840Y-618100D01*
X627960Y-619740D01*
X625580Y-621060D01*
X624320Y-621860D01*
X622120Y-623460D01*
X620940Y-624440D01*
X617900Y-627400D01*
X616180Y-629500D01*
X615300Y-630720D01*
X613840Y-633000D01*
X613100Y-634340D01*
X611960Y-636800D01*
X611400Y-638200D01*
X610560Y-640800D01*
X610180Y-642280D01*
X609660Y-644960D01*
X609480Y-646420D01*
X609280Y-650020D01*
X609280Y-675860D01*
X609000Y-677320D01*
X608200Y-678580D01*
X600380Y-686960D01*
X399460Y-887880D01*
X397460Y-890320D01*
X396060Y-892920D01*
X395200Y-895759D01*
X394900Y-898900D01*
X394900Y-900480D01*
X394520Y-902200D01*
X392320Y-906800D01*
X390880Y-908960D01*
X389240Y-912440D01*
X388260Y-916160D01*
X387920Y-920000D01*
X388260Y-923840D01*
X389240Y-927560D01*
X390880Y-931040D01*
X392320Y-933199D01*
X394520Y-937800D01*
X394900Y-939520D01*
X394900Y-1644800D01*
X395200Y-1647940D01*
X396060Y-1650780D01*
X397460Y-1653380D01*
X399460Y-1655820D01*
X465520Y-1721879D01*
X466460Y-1723360D01*
X468040Y-1727800D01*
X469240Y-1732560D01*
X470880Y-1736040D01*
X473080Y-1739199D01*
X475800Y-1741920D01*
X478960Y-1744120D01*
X482440Y-1745760D01*
X486160Y-1746740D01*
X490000Y-1747080D01*
X493840Y-1746740D01*
X497560Y-1745760D01*
X501040Y-1744120D01*
X504200Y-1741920D01*
X506920Y-1739199D01*
X509120Y-1736040D01*
X510760Y-1732560D01*
X511740Y-1728839D01*
X512080Y-1725000D01*
X511740Y-1721160D01*
X510760Y-1717440D01*
X509120Y-1713959D01*
X506920Y-1710800D01*
X504200Y-1708080D01*
X501040Y-1705880D01*
X497560Y-1704240D01*
X492800Y-1703040D01*
X488360Y-1701459D01*
X486880Y-1700520D01*
X426280Y-1639920D01*
X425400Y-1638620D01*
X425100Y-1637080D01*
X425100Y-1465480D01*
X425460Y-1463839D01*
X426440Y-1462500D01*
X427900Y-1461660D01*
X429560Y-1461500D01*
X431160Y-1462040D01*
X432380Y-1463180D01*
X433080Y-1464199D01*
X435800Y-1466920D01*
X438960Y-1469120D01*
X442440Y-1470760D01*
X446160Y-1471740D01*
X450000Y-1472080D01*
X453840Y-1471740D01*
X457560Y-1470760D01*
X461040Y-1469120D01*
X464200Y-1466920D01*
X466920Y-1464199D01*
X469120Y-1461040D01*
X470760Y-1457560D01*
X471740Y-1453839D01*
X472080Y-1450000D01*
X471740Y-1446160D01*
X470760Y-1442440D01*
X469120Y-1438959D01*
X467680Y-1436800D01*
X465480Y-1432200D01*
X465100Y-1430480D01*
X465100Y-1207920D01*
X465400Y-1206380D01*
X466280Y-1205080D01*
X518080Y-1153280D01*
X519360Y-1152420D01*
X520900Y-1152120D01*
X522440Y-1152420D01*
X523720Y-1153280D01*
X524600Y-1154580D01*
X524900Y-1156120D01*
X524900Y-1290480D01*
X524520Y-1292200D01*
X522320Y-1296800D01*
X520880Y-1298959D01*
X519240Y-1302440D01*
X518260Y-1306160D01*
X517920Y-1310000D01*
X518260Y-1313839D01*
X519240Y-1317560D01*
X520880Y-1321040D01*
X523080Y-1324199D01*
X525800Y-1326920D01*
X528960Y-1329120D01*
X532440Y-1330760D01*
X536160Y-1331740D01*
X540000Y-1332080D01*
X543840Y-1331740D01*
X547560Y-1330760D01*
X551040Y-1329120D01*
X554200Y-1326920D01*
X556920Y-1324199D01*
X559120Y-1321040D01*
X560760Y-1317560D01*
X561740Y-1313839D01*
X562080Y-1310000D01*
X561740Y-1306160D01*
X560760Y-1302440D01*
X559120Y-1298959D01*
X557680Y-1296800D01*
X555480Y-1292200D01*
X555100Y-1290480D01*
X555100Y-1162920D01*
X555400Y-1161380D01*
X556280Y-1160080D01*
X635080Y-1081280D01*
X636380Y-1080400D01*
X637920Y-1080100D01*
X756880Y-1080100D01*
X758520Y-1080460D01*
X759860Y-1081440D01*
X760699Y-1082900D01*
X760860Y-1084560D01*
X760320Y-1086160D01*
X759180Y-1087380D01*
X758160Y-1088080D01*
X755440Y-1090800D01*
X753240Y-1093960D01*
X751600Y-1097440D01*
X750400Y-1102200D01*
X748820Y-1106640D01*
X747880Y-1108120D01*
X736820Y-1119180D01*
X734820Y-1121620D01*
X733420Y-1124220D01*
X732560Y-1127060D01*
X732260Y-1130200D01*
X732260Y-1360480D01*
X731860Y-1362200D01*
X729680Y-1366780D01*
X728240Y-1368959D01*
X726600Y-1372440D01*
X725620Y-1376160D01*
X725280Y-1380000D01*
X725620Y-1383839D01*
X726600Y-1387560D01*
X728240Y-1391040D01*
X730440Y-1394199D01*
X733160Y-1396920D01*
X736320Y-1399120D01*
X739800Y-1400760D01*
X743520Y-1401740D01*
X747360Y-1402080D01*
X751200Y-1401740D01*
X754920Y-1400760D01*
X758400Y-1399120D01*
X761560Y-1396920D01*
X764280Y-1394199D01*
X766480Y-1391040D01*
X768120Y-1387560D01*
X769100Y-1383839D01*
X769440Y-1380000D01*
X769100Y-1376160D01*
X768120Y-1372440D01*
X766480Y-1368959D01*
X765040Y-1366800D01*
X762840Y-1362200D01*
X762460Y-1360480D01*
X762460Y-1137920D01*
X762760Y-1136380D01*
X763620Y-1135080D01*
X769240Y-1129480D01*
X770720Y-1128540D01*
X775160Y-1126960D01*
X779920Y-1125760D01*
X783400Y-1124120D01*
X786560Y-1121920D01*
X789280Y-1119200D01*
X791480Y-1116040D01*
X793120Y-1112560D01*
X794100Y-1108840D01*
X794440Y-1105000D01*
X794100Y-1101160D01*
X793120Y-1097440D01*
X791480Y-1093960D01*
X789280Y-1090800D01*
X786560Y-1088080D01*
X785540Y-1087380D01*
X784400Y-1086160D01*
X783860Y-1084560D01*
X784020Y-1082900D01*
X784860Y-1081440D01*
X786200Y-1080460D01*
X787840Y-1080100D01*
X1070480Y-1080100D01*
X1072200Y-1080480D01*
X1076800Y-1082680D01*
X1078960Y-1084120D01*
X1082440Y-1085760D01*
X1086160Y-1086740D01*
X1090000Y-1087080D01*
X1093840Y-1086740D01*
X1097560Y-1085760D01*
X1101040Y-1084120D01*
X1104200Y-1081920D01*
X1106920Y-1079200D01*
X1109120Y-1076040D01*
X1110760Y-1072560D01*
X1111740Y-1068840D01*
X1112080Y-1065000D01*
X1111740Y-1061160D01*
X1110760Y-1057440D01*
X1109120Y-1053960D01*
X1106920Y-1050800D01*
X1104200Y-1048080D01*
X1101040Y-1045879D01*
X1097560Y-1044240D01*
X1093840Y-1043259D01*
X1090000Y-1042920D01*
X1086160Y-1043259D01*
X1082440Y-1044240D01*
X1078960Y-1045879D01*
X1076800Y-1047320D01*
X1072200Y-1049520D01*
X1070480Y-1049900D01*
X950600Y-1049900D01*
X948920Y-1049520D01*
X947540Y-1048480D01*
X946740Y-1046940D01*
X946660Y-1045200D01*
X947340Y-1043600D01*
X949120Y-1041040D01*
X950759Y-1037560D01*
X951740Y-1033840D01*
X952080Y-1030000D01*
X951740Y-1026160D01*
X950759Y-1022440D01*
X949120Y-1018960D01*
X946919Y-1015800D01*
X944200Y-1013080D01*
X941040Y-1010879D01*
X937560Y-1009240D01*
X933840Y-1008259D01*
X930000Y-1007920D01*
X926160Y-1008259D01*
X922440Y-1009240D01*
X918960Y-1010879D01*
X916800Y-1012320D01*
X912200Y-1014520D01*
X910480Y-1014900D01*
X725960Y-1014900D01*
X724400Y-1014580D01*
X723080Y-1013680D01*
X722240Y-1012340D01*
X721960Y-1010759D01*
X722340Y-1009200D01*
X723120Y-1007560D01*
X724100Y-1003840D01*
X724440Y-1000000D01*
X724100Y-996160D01*
X723120Y-992440D01*
X721480Y-988960D01*
X719280Y-985800D01*
X716560Y-983080D01*
X713400Y-980879D01*
X709920Y-979240D01*
X706200Y-978259D01*
X702360Y-977920D01*
X698520Y-978259D01*
X694800Y-979240D01*
X691320Y-980879D01*
X688160Y-983080D01*
X685440Y-985800D01*
X683240Y-988960D01*
X681600Y-992440D01*
X680620Y-996160D01*
X680280Y-1000000D01*
X680620Y-1003840D01*
X681600Y-1007560D01*
X682380Y-1009200D01*
X682760Y-1010759D01*
X682480Y-1012340D01*
X681640Y-1013680D01*
X680320Y-1014580D01*
X678760Y-1014900D01*
X620200Y-1014900D01*
X617060Y-1015200D01*
X614220Y-1016060D01*
X611620Y-1017460D01*
X609180Y-1019460D01*
X556260Y-1072400D01*
X555000Y-1073240D01*
X553540Y-1073560D01*
X552060Y-1073320D01*
X550760Y-1072560D01*
X549840Y-1071360D01*
X549440Y-1069920D01*
X549100Y-1066160D01*
X548120Y-1062440D01*
X546480Y-1058960D01*
X544280Y-1055800D01*
X541560Y-1053080D01*
X538400Y-1050880D01*
X534920Y-1049240D01*
X531200Y-1048259D01*
X527360Y-1047920D01*
X523519Y-1048259D01*
X519799Y-1049240D01*
X516320Y-1050880D01*
X513160Y-1053080D01*
X510439Y-1055800D01*
X508240Y-1058960D01*
X506599Y-1062440D01*
X505620Y-1066160D01*
X505280Y-1070000D01*
X505620Y-1073840D01*
X506599Y-1077560D01*
X508240Y-1081040D01*
X510439Y-1084200D01*
X513160Y-1086920D01*
X516320Y-1089120D01*
X519799Y-1090760D01*
X523519Y-1091740D01*
X527280Y-1092080D01*
X528720Y-1092480D01*
X529920Y-1093400D01*
X530680Y-1094700D01*
X530920Y-1096180D01*
X530600Y-1097640D01*
X529760Y-1098900D01*
X439460Y-1189180D01*
X437460Y-1191620D01*
X436060Y-1194220D01*
X435200Y-1197060D01*
X434900Y-1200200D01*
X434900Y-1430480D01*
X434520Y-1432200D01*
X432720Y-1435980D01*
X431800Y-1437200D01*
X430500Y-1438000D01*
X428980Y-1438260D01*
X427480Y-1437920D01*
X426240Y-1437040D01*
X425400Y-1435760D01*
X425100Y-1434259D01*
X425100Y-939520D01*
X425480Y-937800D01*
X427680Y-933199D01*
X429120Y-931040D01*
X430760Y-927560D01*
X431740Y-923840D01*
X432080Y-920000D01*
X431740Y-916160D01*
X430760Y-912440D01*
X429099Y-908900D01*
X427740Y-906840D01*
X427200Y-905580D01*
X427100Y-904220D01*
X427460Y-902920D01*
X428260Y-901800D01*
X617520Y-712540D01*
X620680Y-710160D01*
X622060Y-709520D01*
X623560Y-709419D01*
X625000Y-709900D01*
X627980Y-711580D01*
X629340Y-712220D01*
X631880Y-713220D01*
X633300Y-713680D01*
X635940Y-714360D01*
X637440Y-714640D01*
X640140Y-714980D01*
X641640Y-715080D01*
X644360Y-715080D01*
X645860Y-714980D01*
X648560Y-714640D01*
X650080Y-714360D01*
X652700Y-713680D01*
X654120Y-713220D01*
X656660Y-712220D01*
X658040Y-711560D01*
X660420Y-710260D01*
X661680Y-709460D01*
X663880Y-707860D01*
X665060Y-706880D01*
X668100Y-703920D01*
X669820Y-701820D01*
X670699Y-700600D01*
X672159Y-698319D01*
X672900Y-696960D01*
X674060Y-694500D01*
X674599Y-693120D01*
X675440Y-690540D01*
X675819Y-689060D01*
X676340Y-686400D01*
X676520Y-684860D01*
X676720Y-681300D01*
X676720Y-655500D01*
X677000Y-654020D01*
X677800Y-652760D01*
X685660Y-644400D01*
X743780Y-586280D01*
X745080Y-585400D01*
X746620Y-585100D01*
X884800Y-585100D01*
X887940Y-584800D01*
X890780Y-583940D01*
X893379Y-582540D01*
X895819Y-580540D01*
X921660Y-554680D01*
X923139Y-553740D01*
X924880Y-553540D01*
X926560Y-554080D01*
X927820Y-555300D01*
X928460Y-556920D01*
X927900Y-562200D01*
X927860Y-611960D01*
X926820Y-618660D01*
X926200Y-620260D01*
X924980Y-621460D01*
X922120Y-623460D01*
X920939Y-624440D01*
X917900Y-627400D01*
X916180Y-629500D01*
X915300Y-630720D01*
X913840Y-633000D01*
X913100Y-634340D01*
X911960Y-636800D01*
X911400Y-638200D01*
X910560Y-640800D01*
X910180Y-642280D01*
X909659Y-644960D01*
X909479Y-646420D01*
X909280Y-650020D01*
X909280Y-681300D01*
X909479Y-684900D01*
X909659Y-686360D01*
X910180Y-689020D01*
X910560Y-690540D01*
X911400Y-693120D01*
X911940Y-694500D01*
X913100Y-696960D01*
X913840Y-698319D01*
X915300Y-700600D01*
X916180Y-701820D01*
X917900Y-703920D01*
X920939Y-706880D01*
X922060Y-707820D01*
X923080Y-709080D01*
X923500Y-710639D01*
X923280Y-712260D01*
X922420Y-713640D01*
X921100Y-714580D01*
X919520Y-714900D01*
X915220Y-714900D01*
X913680Y-714599D01*
X912380Y-713720D01*
X885520Y-686860D01*
X877800Y-678580D01*
X877000Y-677320D01*
X876720Y-675860D01*
X876720Y-650020D01*
X876520Y-646460D01*
X876340Y-644920D01*
X875819Y-642260D01*
X875440Y-640800D01*
X874599Y-638200D01*
X874040Y-636800D01*
X872900Y-634340D01*
X872159Y-633000D01*
X870699Y-630720D01*
X869820Y-629500D01*
X868100Y-627400D01*
X865060Y-624440D01*
X863880Y-623460D01*
X861680Y-621860D01*
X860420Y-621060D01*
X858040Y-619740D01*
X854160Y-618100D01*
X852660Y-617620D01*
X850040Y-616960D01*
X848560Y-616680D01*
X845860Y-616340D01*
X844360Y-616240D01*
X841640Y-616240D01*
X840140Y-616340D01*
X837440Y-616680D01*
X835960Y-616960D01*
X833340Y-617620D01*
X831840Y-618100D01*
X827960Y-619740D01*
X825580Y-621060D01*
X824320Y-621860D01*
X822120Y-623460D01*
X820939Y-624440D01*
X817900Y-627400D01*
X816180Y-629500D01*
X815300Y-630720D01*
X813840Y-633000D01*
X813100Y-634340D01*
X811960Y-636800D01*
X811400Y-638200D01*
X810560Y-640800D01*
X810180Y-642280D01*
X809659Y-644960D01*
X809479Y-646420D01*
X809280Y-650020D01*
X809280Y-681300D01*
X809479Y-684900D01*
X809659Y-686360D01*
X810180Y-689020D01*
X810560Y-690540D01*
X811400Y-693120D01*
X811940Y-694500D01*
X813100Y-696960D01*
X813840Y-698319D01*
X815300Y-700600D01*
X816180Y-701820D01*
X817900Y-703920D01*
X820939Y-706880D01*
X822120Y-707860D01*
X824320Y-709460D01*
X825580Y-710260D01*
X827960Y-711560D01*
X829340Y-712220D01*
X831880Y-713220D01*
X833300Y-713680D01*
X835920Y-714360D01*
X837440Y-714640D01*
X840140Y-714980D01*
X841640Y-715080D01*
X844360Y-715080D01*
X845860Y-714980D01*
X848560Y-714640D01*
X850080Y-714360D01*
X852700Y-713680D01*
X854120Y-713220D01*
X856660Y-712220D01*
X858020Y-711580D01*
X861000Y-709900D01*
X862440Y-709419D01*
X863940Y-709520D01*
X865320Y-710160D01*
X868480Y-712540D01*
X884020Y-728080D01*
X884880Y-729360D01*
X885180Y-730900D01*
X884880Y-732440D01*
X884020Y-733720D01*
X882720Y-734599D01*
X881180Y-734900D01*
X835220Y-734900D01*
X833680Y-734599D01*
X832380Y-733720D01*
X785540Y-686880D01*
X777800Y-678580D01*
X777000Y-677320D01*
X776720Y-675860D01*
X776720Y-650020D01*
X776520Y-646460D01*
X776340Y-644920D01*
X775819Y-642260D01*
X775440Y-640800D01*
X774599Y-638200D01*
X774040Y-636800D01*
X772900Y-634340D01*
X772159Y-633000D01*
X770699Y-630720D01*
X769820Y-629500D01*
X768100Y-627400D01*
X765060Y-624440D01*
X763880Y-623460D01*
X761680Y-621860D01*
X760420Y-621060D01*
X758040Y-619740D01*
X754160Y-618100D01*
X752660Y-617620D01*
X750040Y-616960D01*
X748560Y-616680D01*
X745860Y-616340D01*
X744360Y-616240D01*
X741640Y-616240D01*
X740140Y-616340D01*
X735980Y-616940D01*
X733340Y-617620D01*
X731840Y-618100D01*
X727960Y-619740D01*
X725580Y-621060D01*
X724320Y-621860D01*
X722120Y-623460D01*
X720939Y-624440D01*
X717900Y-627400D01*
X716180Y-629500D01*
X715300Y-630720D01*
X713840Y-633000D01*
X713100Y-634340D01*
X711960Y-636800D01*
X711400Y-638200D01*
X710560Y-640800D01*
X710180Y-642280D01*
X709659Y-644960D01*
X709479Y-646420D01*
X709280Y-650020D01*
X709280Y-681300D01*
X709479Y-684900D01*
X709659Y-686360D01*
X710180Y-689020D01*
X710560Y-690540D01*
X711400Y-693120D01*
X711940Y-694500D01*
X713100Y-696960D01*
X713840Y-698319D01*
X715300Y-700600D01*
X716180Y-701820D01*
X717900Y-703920D01*
X720939Y-706880D01*
X722120Y-707860D01*
X724320Y-709460D01*
X725580Y-710260D01*
X727960Y-711560D01*
X729340Y-712220D01*
X731880Y-713220D01*
X733300Y-713680D01*
X735939Y-714360D01*
X737440Y-714640D01*
X740140Y-714980D01*
X741640Y-715080D01*
X744360Y-715080D01*
X745860Y-714980D01*
X748560Y-714640D01*
X750080Y-714360D01*
X752700Y-713680D01*
X754120Y-713220D01*
X756660Y-712220D01*
X758020Y-711580D01*
X761000Y-709900D01*
X762440Y-709419D01*
X763940Y-709520D01*
X765320Y-710160D01*
X768480Y-712520D01*
X816480Y-760540D01*
X818920Y-762540D01*
X821520Y-763940D01*
X824360Y-764800D01*
X827500Y-765100D01*
X1491800Y-765100D01*
X1494940Y-764800D01*
X1497780Y-763940D01*
X1500380Y-762540D01*
X1502820Y-760540D01*
X1548880Y-714479D01*
X1550360Y-713540D01*
X1554560Y-712060D01*
X1556060Y-711820D01*
X1557540Y-712180D01*
X1558779Y-713060D01*
X1559620Y-714320D01*
X1559900Y-715819D01*
X1559900Y-1104800D01*
X1560200Y-1107940D01*
X1561060Y-1110780D01*
X1562460Y-1113380D01*
X1564460Y-1115820D01*
X1635520Y-1186880D01*
X1636459Y-1188360D01*
X1638040Y-1192800D01*
X1639240Y-1197560D01*
X1640880Y-1201040D01*
X1643080Y-1204200D01*
X1645800Y-1206920D01*
X1648959Y-1209120D01*
X1652440Y-1210760D01*
X1656160Y-1211740D01*
X1660000Y-1212080D01*
X1663839Y-1211740D01*
X1667560Y-1210760D01*
X1671040Y-1209120D01*
X1674199Y-1206920D01*
X1676920Y-1204200D01*
X1679120Y-1201040D01*
X1680760Y-1197560D01*
X1681740Y-1193840D01*
X1682080Y-1190000D01*
X1681740Y-1186160D01*
X1680760Y-1182440D01*
X1679120Y-1178960D01*
X1676920Y-1175800D01*
X1674199Y-1173080D01*
X1671040Y-1170880D01*
X1667560Y-1169240D01*
X1662800Y-1168040D01*
X1658360Y-1166460D01*
X1656879Y-1165520D01*
X1591279Y-1099920D01*
X1590400Y-1098620D01*
X1590100Y-1097080D01*
X1590100Y-856120D01*
X1590400Y-854580D01*
X1591279Y-853280D01*
X1592560Y-852420D01*
X1594100Y-852120D01*
X1595640Y-852420D01*
X1596920Y-853280D01*
X1974180Y-1230540D01*
X1976620Y-1232540D01*
X1979220Y-1233940D01*
X1982060Y-1234800D01*
X1985200Y-1235100D01*
X2362080Y-1235100D01*
X2363620Y-1235400D01*
X2364920Y-1236280D01*
X2407300Y-1278660D01*
X2408100Y-1279780D01*
X2408460Y-1281120D01*
X2410460Y-1302560D01*
X2410620Y-1303460D01*
X2410940Y-1306579D01*
X2412160Y-1311740D01*
X2414060Y-1316680D01*
X2416600Y-1321320D01*
X2419740Y-1325580D01*
X2423420Y-1329379D01*
X2427580Y-1332660D01*
X2432140Y-1335360D01*
X2437000Y-1337420D01*
X2442100Y-1338820D01*
X2447360Y-1339540D01*
X2452640Y-1339540D01*
X2457900Y-1338820D01*
X2463000Y-1337420D01*
X2467860Y-1335360D01*
X2472420Y-1332660D01*
X2476580Y-1329379D01*
X2480260Y-1325580D01*
X2483400Y-1321320D01*
X2485940Y-1316680D01*
X2487840Y-1311740D01*
X2489060Y-1306579D01*
X2489600Y-1301320D01*
X2489420Y-1296040D01*
X2488540Y-1290820D01*
X2486980Y-1285760D01*
X2484740Y-1280960D01*
X2481900Y-1276500D01*
X2478480Y-1272460D01*
X2474560Y-1268900D01*
X2470200Y-1265920D01*
X2465460Y-1263520D01*
X2460460Y-1261780D01*
X2455220Y-1260720D01*
X2431120Y-1258460D01*
X2429780Y-1258100D01*
X2428660Y-1257300D01*
X2393280Y-1221920D01*
X2392420Y-1220640D01*
X2392120Y-1219100D01*
X2392420Y-1217560D01*
X2393280Y-1216280D01*
X2394580Y-1215400D01*
X2396120Y-1215100D01*
X2472080Y-1215100D01*
X2473620Y-1215400D01*
X2474920Y-1216280D01*
X2819180Y-1560540D01*
X2822799Y-1563520D01*
X2823519Y-1564860D01*
X2823680Y-1566380D01*
X2823279Y-1567840D01*
X2822340Y-1569060D01*
X2820600Y-1570600D01*
X2817000Y-1574680D01*
X2813980Y-1579199D01*
X2811580Y-1584079D01*
X2809820Y-1589240D01*
X2808759Y-1594580D01*
X2808399Y-1600000D01*
X2808759Y-1605420D01*
X2809820Y-1610760D01*
X2811580Y-1615920D01*
X2813980Y-1620800D01*
X2817000Y-1625320D01*
X2820600Y-1629400D01*
X2824680Y-1633000D01*
X2829200Y-1636020D01*
X2834080Y-1638420D01*
X2839240Y-1640180D01*
X2844580Y-1641240D01*
X2850000Y-1641600D01*
X2855419Y-1641240D01*
X2860760Y-1640180D01*
X2865920Y-1638420D01*
X2870800Y-1636020D01*
X2875320Y-1633000D01*
X2879400Y-1629400D01*
X2883000Y-1625320D01*
X2886019Y-1620800D01*
X2888420Y-1615920D01*
X2890179Y-1610760D01*
X2891240Y-1605420D01*
X2891600Y-1600000D01*
X2891240Y-1594580D01*
X2890179Y-1589240D01*
X2888420Y-1584079D01*
X2886019Y-1579199D01*
X2883000Y-1574680D01*
X2880419Y-1571740D01*
X2879640Y-1570420D01*
X2879420Y-1568920D01*
X2879780Y-1567440D01*
X2880659Y-1566220D01*
X2881940Y-1565380D01*
X2883420Y-1565100D01*
X2892080Y-1565100D01*
X2893620Y-1565400D01*
X2894920Y-1566279D01*
X2905360Y-1576699D01*
X2906160Y-1577840D01*
X2906500Y-1579199D01*
X2908759Y-1605360D01*
X2909820Y-1610760D01*
X2911580Y-1615920D01*
X2913980Y-1620800D01*
X2917000Y-1625320D01*
X2920600Y-1629400D01*
X2924680Y-1633000D01*
X2929200Y-1636020D01*
X2934080Y-1638420D01*
X2939240Y-1640180D01*
X2944580Y-1641240D01*
X2950000Y-1641600D01*
X2955419Y-1641240D01*
X2960760Y-1640180D01*
X2965920Y-1638420D01*
X2970800Y-1636020D01*
X2975320Y-1633000D01*
X2979400Y-1629400D01*
X2983000Y-1625320D01*
X2986019Y-1620800D01*
X2988420Y-1615920D01*
X2990179Y-1610760D01*
X2991240Y-1605420D01*
X2991600Y-1600000D01*
X2991240Y-1594580D01*
X2990179Y-1589240D01*
X2988420Y-1584079D01*
X2986019Y-1579199D01*
X2983000Y-1574680D01*
X2979400Y-1570600D01*
X2975320Y-1567000D01*
X2970800Y-1563980D01*
X2965920Y-1561579D01*
X2960760Y-1559820D01*
X2955419Y-1558760D01*
X2929200Y-1556500D01*
X2927840Y-1556160D01*
X2926700Y-1555360D01*
X2910820Y-1539460D01*
X2908380Y-1537460D01*
X2905779Y-1536060D01*
X2902940Y-1535200D01*
X2899800Y-1534900D01*
X2883420Y-1534900D01*
X2881940Y-1534620D01*
X2880659Y-1533779D01*
X2879780Y-1532560D01*
X2879420Y-1531080D01*
X2879640Y-1529580D01*
X2880419Y-1528260D01*
X2883000Y-1525320D01*
X2886019Y-1520800D01*
X2888420Y-1515920D01*
X2890179Y-1510760D01*
X2891240Y-1505420D01*
X2891600Y-1500000D01*
X2891240Y-1494580D01*
X2890179Y-1489240D01*
X2888420Y-1484079D01*
X2886019Y-1479199D01*
X2883000Y-1474680D01*
X2880419Y-1471740D01*
X2879640Y-1470420D01*
X2879420Y-1468920D01*
X2879780Y-1467440D01*
X2880659Y-1466220D01*
X2881940Y-1465380D01*
X2883420Y-1465100D01*
X2892080Y-1465100D01*
X2893620Y-1465400D01*
X2894920Y-1466279D01*
X2905360Y-1476699D01*
X2906160Y-1477840D01*
X2906500Y-1479199D01*
X2908759Y-1505360D01*
X2909820Y-1510760D01*
X2911580Y-1515920D01*
X2913980Y-1520800D01*
X2917000Y-1525320D01*
X2920600Y-1529400D01*
X2924680Y-1533000D01*
X2929200Y-1536020D01*
X2934080Y-1538420D01*
X2939240Y-1540180D01*
X2944580Y-1541240D01*
X2950000Y-1541600D01*
X2955419Y-1541240D01*
X2960760Y-1540180D01*
X2965920Y-1538420D01*
X2970800Y-1536020D01*
X2975320Y-1533000D01*
X2979400Y-1529400D01*
X2983000Y-1525320D01*
X2986019Y-1520800D01*
X2988420Y-1515920D01*
X2990179Y-1510760D01*
X2991240Y-1505420D01*
X2991600Y-1500000D01*
X2991240Y-1494580D01*
X2990179Y-1489240D01*
X2988420Y-1484079D01*
X2986019Y-1479199D01*
X2983000Y-1474680D01*
X2979400Y-1470600D01*
X2975320Y-1467000D01*
X2970800Y-1463980D01*
X2965920Y-1461579D01*
X2960760Y-1459820D01*
X2955419Y-1458760D01*
X2929200Y-1456500D01*
X2927840Y-1456160D01*
X2926700Y-1455360D01*
X2910820Y-1439460D01*
X2908380Y-1437460D01*
X2905779Y-1436060D01*
X2902940Y-1435200D01*
X2899800Y-1434900D01*
X2883420Y-1434900D01*
X2881940Y-1434620D01*
X2880659Y-1433779D01*
X2879780Y-1432560D01*
X2879420Y-1431080D01*
X2879640Y-1429580D01*
X2880419Y-1428260D01*
X2883000Y-1425320D01*
X2886019Y-1420800D01*
X2888420Y-1415920D01*
X2890179Y-1410760D01*
X2891240Y-1405420D01*
X2891600Y-1400000D01*
X2891240Y-1394580D01*
X2890179Y-1389240D01*
X2888420Y-1384079D01*
X2886019Y-1379199D01*
X2883000Y-1374680D01*
X2880419Y-1371740D01*
X2879640Y-1370420D01*
X2879420Y-1368920D01*
X2879780Y-1367440D01*
X2880659Y-1366220D01*
X2881940Y-1365380D01*
X2883420Y-1365100D01*
X2892080Y-1365100D01*
X2893620Y-1365400D01*
X2894920Y-1366279D01*
X2905360Y-1376699D01*
X2906160Y-1377840D01*
X2906500Y-1379199D01*
X2908759Y-1405360D01*
X2909820Y-1410760D01*
X2911580Y-1415920D01*
X2913980Y-1420800D01*
X2917000Y-1425320D01*
X2920600Y-1429400D01*
X2924680Y-1433000D01*
X2929200Y-1436020D01*
X2934080Y-1438420D01*
X2939240Y-1440180D01*
X2944580Y-1441240D01*
X2950000Y-1441600D01*
X2955419Y-1441240D01*
X2960760Y-1440180D01*
X2965920Y-1438420D01*
X2970800Y-1436020D01*
X2975320Y-1433000D01*
X2979400Y-1429400D01*
X2983000Y-1425320D01*
X2986019Y-1420800D01*
X2988420Y-1415920D01*
X2990179Y-1410760D01*
X2991240Y-1405420D01*
X2991600Y-1400000D01*
X2991240Y-1394580D01*
X2990179Y-1389240D01*
X2988420Y-1384079D01*
X2986019Y-1379199D01*
X2983000Y-1374680D01*
X2979400Y-1370600D01*
X2975320Y-1367000D01*
X2970800Y-1363980D01*
X2965920Y-1361579D01*
X2960760Y-1359820D01*
X2955419Y-1358760D01*
X2929200Y-1356500D01*
X2927840Y-1356160D01*
X2926700Y-1355360D01*
X2910820Y-1339460D01*
X2908380Y-1337460D01*
X2905779Y-1336060D01*
X2902940Y-1335200D01*
X2899800Y-1334900D01*
X2883420Y-1334900D01*
X2881940Y-1334620D01*
X2880659Y-1333779D01*
X2879780Y-1332560D01*
X2879420Y-1331080D01*
X2879640Y-1329580D01*
X2880419Y-1328260D01*
X2883000Y-1325320D01*
X2886019Y-1320800D01*
X2888420Y-1315920D01*
X2890179Y-1310760D01*
X2891240Y-1305420D01*
X2891600Y-1300000D01*
X2891240Y-1294580D01*
X2890179Y-1289240D01*
X2888420Y-1284079D01*
X2886019Y-1279200D01*
X2883000Y-1274680D01*
X2880419Y-1271740D01*
X2879640Y-1270420D01*
X2879420Y-1268920D01*
X2879780Y-1267440D01*
X2880659Y-1266220D01*
X2881940Y-1265380D01*
X2883420Y-1265100D01*
X2892080Y-1265100D01*
X2893620Y-1265400D01*
X2894920Y-1266280D01*
X2905360Y-1276700D01*
X2906160Y-1277840D01*
X2906500Y-1279200D01*
X2908759Y-1305360D01*
X2909820Y-1310760D01*
X2911580Y-1315920D01*
X2913980Y-1320800D01*
X2917000Y-1325320D01*
X2920600Y-1329400D01*
X2924680Y-1333000D01*
X2929200Y-1336020D01*
X2934080Y-1338420D01*
X2939240Y-1340180D01*
X2944580Y-1341240D01*
X2950000Y-1341600D01*
X2955419Y-1341240D01*
X2960760Y-1340180D01*
X2965920Y-1338420D01*
X2970800Y-1336020D01*
X2975320Y-1333000D01*
X2979400Y-1329400D01*
X2983000Y-1325320D01*
X2986019Y-1320800D01*
X2988420Y-1315920D01*
X2990179Y-1310760D01*
X2991240Y-1305420D01*
X2991600Y-1300000D01*
X2991240Y-1294580D01*
X2990179Y-1289240D01*
X2988420Y-1284079D01*
X2986019Y-1279200D01*
X2983000Y-1274680D01*
X2979400Y-1270600D01*
X2975320Y-1267000D01*
X2970800Y-1263980D01*
X2965920Y-1261580D01*
X2960760Y-1259820D01*
X2955419Y-1258760D01*
X2929200Y-1256500D01*
X2927840Y-1256160D01*
X2926700Y-1255360D01*
X2910820Y-1239460D01*
X2908380Y-1237460D01*
X2905779Y-1236060D01*
X2902940Y-1235200D01*
X2899800Y-1234900D01*
X2883420Y-1234900D01*
X2881940Y-1234620D01*
X2880659Y-1233780D01*
X2879780Y-1232560D01*
X2879420Y-1231080D01*
X2879640Y-1229580D01*
X2880419Y-1228260D01*
X2883000Y-1225320D01*
X2886019Y-1220800D01*
X2888420Y-1215920D01*
X2890179Y-1210760D01*
X2891240Y-1205420D01*
X2891600Y-1200000D01*
X2891240Y-1194580D01*
X2890179Y-1189240D01*
X2888420Y-1184080D01*
X2886019Y-1179200D01*
X2883000Y-1174680D01*
X2880419Y-1171740D01*
X2879640Y-1170420D01*
X2879420Y-1168920D01*
X2879780Y-1167440D01*
X2880659Y-1166220D01*
X2881940Y-1165380D01*
X2883420Y-1165100D01*
X2892080Y-1165100D01*
X2893620Y-1165400D01*
X2894920Y-1166280D01*
X2905360Y-1176700D01*
X2906160Y-1177840D01*
X2906500Y-1179200D01*
X2908759Y-1205360D01*
X2909820Y-1210760D01*
X2911580Y-1215920D01*
X2913980Y-1220800D01*
X2917000Y-1225320D01*
X2920600Y-1229400D01*
X2924680Y-1233000D01*
X2929200Y-1236020D01*
X2934080Y-1238420D01*
X2939240Y-1240180D01*
X2944580Y-1241240D01*
X2950000Y-1241600D01*
X2955419Y-1241240D01*
X2960760Y-1240180D01*
X2965920Y-1238420D01*
X2970800Y-1236020D01*
X2975320Y-1233000D01*
X2979400Y-1229400D01*
X2983000Y-1225320D01*
X2986019Y-1220800D01*
X2988420Y-1215920D01*
X2990179Y-1210760D01*
X2991240Y-1205420D01*
X2991600Y-1200000D01*
X2991240Y-1194580D01*
X2990179Y-1189240D01*
X2988420Y-1184080D01*
X2986019Y-1179200D01*
X2983000Y-1174680D01*
X2979400Y-1170600D01*
X2975320Y-1167000D01*
X2970800Y-1163980D01*
X2965920Y-1161580D01*
X2960760Y-1159820D01*
X2955419Y-1158760D01*
X2929200Y-1156500D01*
X2927840Y-1156160D01*
X2926700Y-1155360D01*
X2910820Y-1139460D01*
X2908380Y-1137460D01*
X2905779Y-1136060D01*
X2902940Y-1135200D01*
X2899800Y-1134900D01*
X2883420Y-1134900D01*
X2881940Y-1134620D01*
X2880659Y-1133780D01*
X2879780Y-1132560D01*
X2879420Y-1131080D01*
X2879640Y-1129580D01*
X2880419Y-1128260D01*
X2883000Y-1125320D01*
X2886019Y-1120800D01*
X2888420Y-1115920D01*
X2890179Y-1110760D01*
X2891240Y-1105420D01*
X2891600Y-1100000D01*
X2891240Y-1094580D01*
X2890179Y-1089240D01*
X2888420Y-1084080D01*
X2886019Y-1079200D01*
X2883000Y-1074680D01*
X2880419Y-1071740D01*
X2879640Y-1070420D01*
X2879420Y-1068920D01*
X2879780Y-1067440D01*
X2880659Y-1066220D01*
X2881940Y-1065380D01*
X2883420Y-1065100D01*
X2892080Y-1065100D01*
X2893620Y-1065400D01*
X2894920Y-1066280D01*
X2905360Y-1076700D01*
X2906160Y-1077840D01*
X2906500Y-1079200D01*
X2908759Y-1105360D01*
X2909820Y-1110760D01*
X2911580Y-1115920D01*
X2913980Y-1120800D01*
X2917000Y-1125320D01*
X2920600Y-1129400D01*
X2924680Y-1133000D01*
X2929200Y-1136020D01*
X2934080Y-1138420D01*
X2939240Y-1140180D01*
X2944580Y-1141240D01*
X2950000Y-1141600D01*
X2955419Y-1141240D01*
X2960760Y-1140180D01*
X2965920Y-1138420D01*
X2970800Y-1136020D01*
X2975320Y-1133000D01*
X2979400Y-1129400D01*
X2983000Y-1125320D01*
X2986019Y-1120800D01*
X2988420Y-1115920D01*
X2990179Y-1110760D01*
X2991240Y-1105420D01*
X2991600Y-1100000D01*
X2991240Y-1094580D01*
X2990179Y-1089240D01*
X2988420Y-1084080D01*
X2986019Y-1079200D01*
X2983000Y-1074680D01*
X2979400Y-1070600D01*
X2975320Y-1067000D01*
X2970800Y-1063980D01*
X2965920Y-1061580D01*
X2960760Y-1059820D01*
X2955419Y-1058760D01*
X2929200Y-1056500D01*
X2927840Y-1056160D01*
X2926700Y-1055360D01*
X2910820Y-1039460D01*
X2908380Y-1037460D01*
X2905779Y-1036060D01*
X2902940Y-1035200D01*
X2899800Y-1034900D01*
X2883420Y-1034900D01*
X2881940Y-1034620D01*
X2880659Y-1033780D01*
X2879780Y-1032560D01*
X2879420Y-1031080D01*
X2879640Y-1029580D01*
X2880419Y-1028259D01*
X2883000Y-1025320D01*
X2886019Y-1020800D01*
X2888420Y-1015920D01*
X2890179Y-1010759D01*
X2891240Y-1005420D01*
X2891600Y-1000000D01*
X2891240Y-994580D01*
X2890179Y-989240D01*
X2888420Y-984080D01*
X2886019Y-979200D01*
X2883000Y-974680D01*
X2880419Y-971740D01*
X2879640Y-970420D01*
X2879420Y-968920D01*
X2879780Y-967440D01*
X2880659Y-966220D01*
X2881940Y-965380D01*
X2883420Y-965100D01*
X2892080Y-965100D01*
X2893620Y-965400D01*
X2894920Y-966280D01*
X2905360Y-976700D01*
X2906160Y-977840D01*
X2906500Y-979200D01*
X2908759Y-1005360D01*
X2909820Y-1010759D01*
X2911580Y-1015920D01*
X2913980Y-1020800D01*
X2917000Y-1025320D01*
X2920600Y-1029400D01*
X2924680Y-1033000D01*
X2929200Y-1036020D01*
X2934080Y-1038420D01*
X2939240Y-1040180D01*
X2944580Y-1041240D01*
X2950000Y-1041600D01*
X2955419Y-1041240D01*
X2960760Y-1040180D01*
X2965920Y-1038420D01*
X2970800Y-1036020D01*
X2975320Y-1033000D01*
X2979400Y-1029400D01*
X2983000Y-1025320D01*
X2986019Y-1020800D01*
X2988420Y-1015920D01*
X2990179Y-1010759D01*
X2991240Y-1005420D01*
X2991600Y-1000000D01*
X2991240Y-994580D01*
X2990179Y-989240D01*
X2988420Y-984080D01*
X2986019Y-979200D01*
X2983000Y-974680D01*
X2979400Y-970600D01*
X2975320Y-967000D01*
X2970800Y-963980D01*
X2965920Y-961580D01*
X2960760Y-959820D01*
X2955419Y-958760D01*
X2929200Y-956500D01*
X2927840Y-956160D01*
X2926700Y-955360D01*
X2910820Y-939460D01*
X2908380Y-937460D01*
X2905779Y-936060D01*
X2902940Y-935200D01*
X2899800Y-934900D01*
X2883420Y-934900D01*
X2881940Y-934620D01*
X2880659Y-933780D01*
X2879780Y-932560D01*
X2879420Y-931080D01*
X2879640Y-929580D01*
X2880419Y-928259D01*
X2883000Y-925320D01*
X2886019Y-920800D01*
X2887280Y-918259D01*
X2868260Y-918259D01*
X2868260Y-930900D01*
X2867940Y-932440D01*
X2867080Y-933720D01*
X2865779Y-934599D01*
X2864260Y-934900D01*
X2835760Y-934900D01*
X2834220Y-934599D01*
X2832919Y-933720D01*
X2832060Y-932440D01*
X2831760Y-930900D01*
X2831760Y-918259D01*
X2812720Y-918259D01*
X2813980Y-920800D01*
X2817000Y-925320D01*
X2819580Y-928259D01*
X2820360Y-929580D01*
X2820580Y-931080D01*
X2820220Y-932560D01*
X2819340Y-933780D01*
X2818060Y-934620D01*
X2816580Y-934900D01*
X2242920Y-934900D01*
X2241380Y-934599D01*
X2240080Y-933720D01*
X1961140Y-654780D01*
X1960220Y-653319D01*
X1959980Y-651620D01*
X1960500Y-649960D01*
X1961680Y-648680D01*
X1963200Y-647680D01*
X1967800Y-645480D01*
X1969520Y-645100D01*
X2049800Y-645100D01*
X2052940Y-644800D01*
X2055780Y-643940D01*
X2058380Y-642540D01*
X2060820Y-640540D01*
X2166880Y-534480D01*
X2168180Y-533620D01*
X2170300Y-533320D01*
X2171840Y-533620D01*
X2173120Y-534480D01*
X2289180Y-650540D01*
X2291620Y-652540D01*
X2294220Y-653940D01*
X2297060Y-654800D01*
X2300200Y-655100D01*
X2877080Y-655100D01*
X2878620Y-655400D01*
X2879920Y-656280D01*
X2987520Y-763880D01*
X2988460Y-765360D01*
X2990040Y-769780D01*
X2991240Y-774560D01*
X2992880Y-778040D01*
X2995080Y-781200D01*
X2997799Y-783920D01*
X3000960Y-786120D01*
X3004440Y-787760D01*
X3008159Y-788740D01*
X3012000Y-789080D01*
X3015840Y-788740D01*
X3019560Y-787760D01*
X3023039Y-786120D01*
X3026200Y-783920D01*
X3028920Y-781200D01*
X3031120Y-778040D01*
X3032760Y-774560D01*
X3033740Y-770840D01*
X3034080Y-767000D01*
X3033740Y-763160D01*
X3032760Y-759440D01*
X3031120Y-755960D01*
X3028920Y-752800D01*
X3026200Y-750080D01*
X3023039Y-747880D01*
X3019560Y-746240D01*
X3014800Y-745040D01*
X3010360Y-743460D01*
X3008880Y-742520D01*
X2895820Y-629460D01*
X2893380Y-627460D01*
X2890779Y-626060D01*
X2887940Y-625200D01*
X2884800Y-624900D01*
X2307920Y-624900D01*
X2306380Y-624600D01*
X2305080Y-623720D01*
X2194480Y-513120D01*
X2193540Y-511640D01*
X2191960Y-507200D01*
X2190760Y-502440D01*
X2189120Y-498960D01*
X2186920Y-495800D01*
X2184200Y-493080D01*
X2181040Y-490880D01*
X2177560Y-489240D01*
X2173840Y-488260D01*
X2170000Y-487920D01*
X2166160Y-488260D01*
X2162440Y-489240D01*
X2158960Y-490880D01*
X2155800Y-493080D01*
X2153080Y-495800D01*
X2150880Y-498960D01*
X2149240Y-502440D01*
X2148040Y-507200D01*
X2146460Y-511640D01*
X2145520Y-513120D01*
X2044920Y-613720D01*
X2043620Y-614600D01*
X2042080Y-614900D01*
X1969520Y-614900D01*
X1967800Y-614520D01*
X1963200Y-612320D01*
X1961040Y-610880D01*
X1957560Y-609240D01*
X1953839Y-608260D01*
X1950000Y-607920D01*
X1946160Y-608260D01*
X1942440Y-609240D01*
X1938959Y-610880D01*
X1935800Y-613080D01*
X1933080Y-615800D01*
X1931320Y-618320D01*
X1930040Y-619500D01*
X1928380Y-620020D01*
X1926680Y-619780D01*
X1925220Y-618860D01*
X1921279Y-614920D01*
X1920400Y-613620D01*
X1920100Y-612080D01*
X1920100Y-585200D01*
X1919800Y-582060D01*
X1918940Y-579220D01*
X1917540Y-576620D01*
X1915540Y-574180D01*
X1866279Y-524920D01*
X1865400Y-523620D01*
X1865100Y-522080D01*
X1865100Y-355200D01*
X1864800Y-352060D01*
X1863940Y-349219D01*
X1862540Y-346620D01*
X1860540Y-344180D01*
X1724480Y-208120D01*
X1723540Y-206640D01*
X1721840Y-201759D01*
X1721440Y-199980D01*
X1721380Y-198560D01*
X1721819Y-197200D01*
X1722700Y-196080D01*
X1723940Y-195360D01*
X1725340Y-195100D01*
X1842080Y-195100D01*
X1843620Y-195400D01*
X1844920Y-196280D01*
X1875520Y-226880D01*
X1876459Y-228359D01*
X1878040Y-232800D01*
X1879240Y-237560D01*
X1880880Y-241040D01*
X1883080Y-244200D01*
X1885800Y-246920D01*
X1888959Y-249120D01*
X1892440Y-250760D01*
X1896160Y-251740D01*
X1900000Y-252079D01*
X1903839Y-251740D01*
X1907560Y-250760D01*
X1911040Y-249120D01*
X1914199Y-246920D01*
X1916920Y-244200D01*
X1919120Y-241040D01*
X1920760Y-237560D01*
X1921740Y-233840D01*
X1922080Y-230000D01*
X1921740Y-226160D01*
X1920760Y-222440D01*
X1919120Y-218960D01*
X1916920Y-215799D01*
X1914199Y-213080D01*
X1911040Y-210880D01*
X1907560Y-209240D01*
X1902800Y-208039D01*
X1898360Y-206460D01*
X1896879Y-205520D01*
X1863280Y-171920D01*
X1862420Y-170640D01*
X1862120Y-169100D01*
X1862420Y-167560D01*
X1863280Y-166280D01*
X1864580Y-165400D01*
X1866120Y-165100D01*
X2134780Y-165100D01*
X2137240Y-164820D01*
X2139520Y-164020D01*
X2140560Y-163480D01*
X2142080Y-163039D01*
X2143660Y-163220D01*
X2147400Y-164420D01*
X2150940Y-164899D01*
X2154500Y-164740D01*
X2157980Y-163960D01*
X2161280Y-162540D01*
X2164460Y-160440D01*
X2166000Y-159840D01*
X2167680Y-159920D01*
X2169160Y-160660D01*
X2170380Y-161640D01*
X2173520Y-163320D01*
X2176920Y-164420D01*
X2180460Y-164899D01*
X2184040Y-164740D01*
X2187520Y-163960D01*
X2190800Y-162540D01*
X2194000Y-160440D01*
X2195540Y-159840D01*
X2197200Y-159920D01*
X2198680Y-160660D01*
X2199920Y-161640D01*
X2203060Y-163320D01*
X2206460Y-164420D01*
X2210000Y-164899D01*
X2213560Y-164740D01*
X2217040Y-163960D01*
X2220340Y-162540D01*
X2223520Y-160440D01*
X2225060Y-159840D01*
X2226740Y-159920D01*
X2228220Y-160660D01*
X2229440Y-161640D01*
X2232580Y-163320D01*
X2235980Y-164420D01*
X2239520Y-164899D01*
X2243100Y-164740D01*
X2246580Y-163960D01*
X2249860Y-162540D01*
X2253040Y-160440D01*
X2254600Y-159840D01*
X2256260Y-159920D01*
X2257740Y-160660D01*
X2258960Y-161640D01*
X2262100Y-163320D01*
X2265500Y-164420D01*
X2269040Y-164899D01*
X2272620Y-164740D01*
X2276100Y-163960D01*
X2279380Y-162540D01*
X2282580Y-160440D01*
X2284120Y-159840D01*
X2285780Y-159920D01*
X2287260Y-160660D01*
X2288500Y-161640D01*
X2291640Y-163320D01*
X2295040Y-164420D01*
X2298580Y-164899D01*
X2302140Y-164740D01*
X2305620Y-163960D01*
X2308920Y-162540D01*
X2312100Y-160440D01*
X2313640Y-159840D01*
X2315320Y-159920D01*
X2316800Y-160660D01*
X2318020Y-161640D01*
X2321160Y-163320D01*
X2324560Y-164420D01*
X2328100Y-164899D01*
X2331680Y-164740D01*
X2335160Y-163960D01*
X2336360Y-163440D01*
X2337620Y-163120D01*
X2338880Y-163220D01*
X2340620Y-164080D01*
X2342760Y-164820D01*
X2345220Y-165100D01*
X2832580Y-165100D01*
X2833960Y-165340D01*
X2835160Y-166040D01*
X2836060Y-167120D01*
X2836520Y-168420D01*
X2838540Y-180000D01*
X2841320Y-191280D01*
X2844860Y-202340D01*
X2849140Y-213120D01*
X2854160Y-223600D01*
X2859880Y-233720D01*
X2866259Y-243420D01*
X2873300Y-252659D01*
X2880960Y-261380D01*
X2889200Y-269580D01*
X2897960Y-277200D01*
X2907240Y-284180D01*
X2916960Y-290540D01*
X2927100Y-296200D01*
X2937600Y-301160D01*
X2948420Y-305400D01*
X2959500Y-308900D01*
X2970779Y-311620D01*
X2982240Y-313560D01*
X2993780Y-314720D01*
X3005059Y-315100D01*
X3135899Y-315100D01*
X3137440Y-315400D01*
X3138720Y-316280D01*
X3139600Y-317560D01*
X3139900Y-319100D01*
X3139900Y-415280D01*
X3139560Y-416900D01*
X3138600Y-418240D01*
X3137180Y-419080D01*
X3135560Y-419280D01*
X3133980Y-418800D01*
X3132740Y-417720D01*
X3132020Y-416240D01*
X3131300Y-413360D01*
X3129680Y-409540D01*
X3127460Y-406019D01*
X3124700Y-402900D01*
X3121480Y-400280D01*
X3117880Y-398200D01*
X3113980Y-396719D01*
X3109920Y-395900D01*
X3105760Y-395720D01*
X3101640Y-396220D01*
X3097640Y-397380D01*
X3093880Y-399159D01*
X3090460Y-401520D01*
X3087460Y-404400D01*
X3084960Y-407740D01*
X3083039Y-411420D01*
X3081720Y-415360D01*
X3081040Y-419460D01*
X3081040Y-423620D01*
X3081720Y-427720D01*
X3083039Y-431659D01*
X3084960Y-435340D01*
X3087460Y-438680D01*
X3090460Y-441560D01*
X3093880Y-443920D01*
X3097640Y-445700D01*
X3101640Y-446860D01*
X3105760Y-447360D01*
X3109920Y-447180D01*
X3113980Y-446360D01*
X3117880Y-444880D01*
X3121480Y-442800D01*
X3124700Y-440180D01*
X3127460Y-437060D01*
X3129680Y-433540D01*
X3131300Y-429720D01*
X3132020Y-426840D01*
X3132740Y-425360D01*
X3133980Y-424280D01*
X3135560Y-423800D01*
X3137180Y-424000D01*
X3138600Y-424840D01*
X3139560Y-426180D01*
X3139900Y-427800D01*
X3139900Y-482220D01*
X3139560Y-483820D01*
X3138600Y-485160D01*
X3137180Y-486000D01*
X3135560Y-486200D01*
X3133980Y-485720D01*
X3132740Y-484660D01*
X3132020Y-483180D01*
X3131300Y-480280D01*
X3129680Y-476460D01*
X3127460Y-472939D01*
X3124700Y-469840D01*
X3121480Y-467200D01*
X3117880Y-465120D01*
X3113980Y-463660D01*
X3109920Y-462819D01*
X3105760Y-462660D01*
X3101640Y-463160D01*
X3097640Y-464320D01*
X3093880Y-466100D01*
X3090460Y-468459D01*
X3087460Y-471340D01*
X3084960Y-474660D01*
X3083039Y-478340D01*
X3081720Y-482280D01*
X3081040Y-486400D01*
X3081040Y-490540D01*
X3081720Y-494660D01*
X3083039Y-498600D01*
X3084960Y-502280D01*
X3087460Y-505600D01*
X3090460Y-508480D01*
X3093880Y-510840D01*
X3097640Y-512620D01*
X3101640Y-513780D01*
X3105760Y-514280D01*
X3109920Y-514120D01*
X3113980Y-513280D01*
X3117880Y-511820D01*
X3121480Y-509739D01*
X3124700Y-507100D01*
X3127460Y-504000D01*
X3129680Y-500480D01*
X3131300Y-496659D01*
X3132020Y-493760D01*
X3132740Y-492280D01*
X3133980Y-491220D01*
X3135560Y-490740D01*
X3137180Y-490940D01*
X3138600Y-491780D01*
X3139560Y-493120D01*
X3139900Y-494720D01*
X3139900Y-660280D01*
X3139560Y-661900D01*
X3138600Y-663240D01*
X3137180Y-664080D01*
X3135560Y-664280D01*
X3133980Y-663800D01*
X3132740Y-662720D01*
X3132020Y-661240D01*
X3131300Y-658360D01*
X3129680Y-654539D01*
X3127460Y-651020D01*
X3124700Y-647900D01*
X3121480Y-645280D01*
X3117880Y-643199D01*
X3113980Y-641720D01*
X3109920Y-640900D01*
X3105760Y-640720D01*
X3101640Y-641220D01*
X3097640Y-642380D01*
X3093880Y-644160D01*
X3090460Y-646520D01*
X3087460Y-649400D01*
X3084960Y-652740D01*
X3083039Y-656420D01*
X3081720Y-660360D01*
X3081040Y-664460D01*
X3081040Y-668620D01*
X3081720Y-672720D01*
X3083039Y-676660D01*
X3084960Y-680340D01*
X3087460Y-683680D01*
X3090460Y-686560D01*
X3093880Y-688920D01*
X3097640Y-690699D01*
X3101640Y-691860D01*
X3105760Y-692360D01*
X3109920Y-692180D01*
X3113980Y-691360D01*
X3117880Y-689880D01*
X3121480Y-687800D01*
X3124700Y-685180D01*
X3127460Y-682060D01*
X3129680Y-678540D01*
X3131300Y-674720D01*
X3132020Y-671840D01*
X3132740Y-670360D01*
X3133980Y-669280D01*
X3135560Y-668800D01*
X3137180Y-669000D01*
X3138600Y-669840D01*
X3139560Y-671180D01*
X3139900Y-672800D01*
X3139900Y-727220D01*
X3139560Y-728820D01*
X3138600Y-730160D01*
X3137180Y-731000D01*
X3135560Y-731200D01*
X3133980Y-730720D01*
X3132740Y-729659D01*
X3132020Y-728180D01*
X3131300Y-725280D01*
X3129680Y-721460D01*
X3127460Y-717940D01*
X3124700Y-714840D01*
X3121480Y-712200D01*
X3117880Y-710120D01*
X3113980Y-708660D01*
X3109920Y-707820D01*
X3105760Y-707660D01*
X3101640Y-708160D01*
X3097640Y-709320D01*
X3093880Y-711100D01*
X3090460Y-713460D01*
X3087460Y-716340D01*
X3084960Y-719659D01*
X3083039Y-723340D01*
X3081720Y-727280D01*
X3081040Y-731400D01*
X3081040Y-735540D01*
X3081720Y-739659D01*
X3083039Y-743600D01*
X3084960Y-747280D01*
X3087460Y-750600D01*
X3090460Y-753480D01*
X3093880Y-755840D01*
X3097640Y-757620D01*
X3101640Y-758780D01*
X3105760Y-759280D01*
X3109920Y-759120D01*
X3113980Y-758280D01*
X3117880Y-756820D01*
X3121480Y-754740D01*
X3124700Y-752099D01*
X3127460Y-749000D01*
X3129680Y-745480D01*
X3131300Y-741660D01*
X3132020Y-738760D01*
X3132740Y-737280D01*
X3133980Y-736220D01*
X3135560Y-735740D01*
X3137180Y-735939D01*
X3138600Y-736780D01*
X3139560Y-738120D01*
X3139900Y-739720D01*
X3139900Y-1690900D01*
X3139600Y-1692440D01*
X3138720Y-1693720D01*
X3137440Y-1694600D01*
X3135899Y-1694900D01*
X3005059Y-1694900D01*
X2993000Y-1695340D01*
X2981440Y-1696540D01*
X2970000Y-1698540D01*
X2958720Y-1701320D01*
X2947660Y-1704860D01*
X2936880Y-1709139D01*
X2926400Y-1714160D01*
X2916280Y-1719880D01*
X2906580Y-1726260D01*
X2897340Y-1733300D01*
X2888620Y-1740960D01*
X2880419Y-1749199D01*
X2872799Y-1757960D01*
X2865820Y-1767240D01*
X2859460Y-1776960D01*
X2853800Y-1787100D01*
X2848840Y-1797600D01*
X2844600Y-1808420D01*
X2841100Y-1819500D01*
X2838380Y-1830780D01*
X2836440Y-1842240D01*
X2835280Y-1853779D01*
X2834900Y-1865060D01*
X2834900Y-1995900D01*
X2834600Y-1997440D01*
X2833720Y-1998720D01*
X2832440Y-1999600D01*
X2830899Y-1999900D01*
X2354400Y-1999900D01*
X2352860Y-1999600D01*
X2351560Y-1998720D01*
X2350700Y-1997440D01*
X2350400Y-1995900D01*
X2350700Y-1994360D01*
X2351560Y-1993080D01*
X2353280Y-1991360D01*
X2356160Y-1987520D01*
X2358460Y-1983300D01*
X2360140Y-1978779D01*
X2360600Y-1976699D01*
X2342100Y-1976699D01*
X2342100Y-1995900D01*
X2341800Y-1997440D01*
X2340940Y-1998720D01*
X2339640Y-1999600D01*
X2338100Y-1999900D01*
X2317480Y-1999900D01*
X2315960Y-1999600D01*
X2314660Y-1998720D01*
X2313780Y-1997440D01*
X2313480Y-1995900D01*
X2313480Y-1976699D01*
X2295000Y-1976699D01*
X2295460Y-1978779D01*
X2297140Y-1983300D01*
X2299440Y-1987520D01*
X2302320Y-1991360D01*
X2304020Y-1993080D01*
X2304900Y-1994360D01*
X2305200Y-1995900D01*
X2304900Y-1997440D01*
X2304020Y-1998720D01*
X2302740Y-1999600D01*
X2301200Y-1999900D01*
X2078800Y-1999900D01*
X2077260Y-1999600D01*
X2075960Y-1998720D01*
X2075100Y-1997440D01*
X2074800Y-1995900D01*
X2075100Y-1994360D01*
X2075960Y-1993080D01*
X2077680Y-1991360D01*
X2080560Y-1987500D01*
X2082860Y-1983280D01*
X2084540Y-1978779D01*
X2085000Y-1976699D01*
X2066519Y-1976699D01*
X2066519Y-1995900D01*
X2066220Y-1997440D01*
X2065340Y-1998720D01*
X2064040Y-1999600D01*
X2062520Y-1999900D01*
X2041900Y-1999900D01*
X2040360Y-1999600D01*
X2039060Y-1998720D01*
X2038200Y-1997440D01*
X2037900Y-1995900D01*
X2037900Y-1976699D01*
X2019400Y-1976699D01*
X2019860Y-1978779D01*
X2021540Y-1983280D01*
X2023839Y-1987500D01*
X2026720Y-1991360D01*
X2028440Y-1993080D01*
X2029319Y-1994360D01*
X2029620Y-1995900D01*
X2029319Y-1997440D01*
X2028440Y-1998720D01*
X2027140Y-1999600D01*
X2025620Y-1999900D01*
G37*

%LPC*%
G36*
X1740000Y-1979840D02*
G01*
X1743839Y-1979500D01*
X1747560Y-1978520D01*
X1751040Y-1976879D01*
X1754199Y-1974680D01*
X1756920Y-1971960D01*
X1759120Y-1968800D01*
X1760760Y-1965320D01*
X1761740Y-1961600D01*
X1762080Y-1957760D01*
X1761740Y-1953920D01*
X1760760Y-1950200D01*
X1759120Y-1946720D01*
X1756920Y-1943560D01*
X1754199Y-1940840D01*
X1751040Y-1938640D01*
X1748420Y-1937420D01*
X1747280Y-1936620D01*
X1651279Y-1840600D01*
X1650420Y-1839319D01*
X1650100Y-1837820D01*
X1650380Y-1836320D01*
X1650720Y-1835440D01*
X1651740Y-1831600D01*
X1652080Y-1827760D01*
X1651740Y-1823920D01*
X1650760Y-1820200D01*
X1649120Y-1816720D01*
X1646920Y-1813560D01*
X1644199Y-1810840D01*
X1641040Y-1808640D01*
X1637560Y-1807000D01*
X1633839Y-1806020D01*
X1630000Y-1805680D01*
X1626160Y-1806020D01*
X1622440Y-1807000D01*
X1618959Y-1808640D01*
X1615800Y-1810840D01*
X1613080Y-1813560D01*
X1610880Y-1816720D01*
X1609240Y-1820200D01*
X1608260Y-1823920D01*
X1607920Y-1827760D01*
X1608260Y-1831600D01*
X1609240Y-1835320D01*
X1609520Y-1835900D01*
X1609900Y-1837600D01*
X1609900Y-1847660D01*
X1609980Y-1849500D01*
X1610200Y-1851240D01*
X1610580Y-1852960D01*
X1611120Y-1854620D01*
X1611780Y-1856240D01*
X1612600Y-1857800D01*
X1613540Y-1859280D01*
X1614600Y-1860680D01*
X1615840Y-1862020D01*
X1718839Y-1965020D01*
X1719640Y-1966160D01*
X1720880Y-1968800D01*
X1723080Y-1971960D01*
X1725800Y-1974680D01*
X1728959Y-1976879D01*
X1732440Y-1978520D01*
X1736160Y-1979500D01*
G37*
G36*
X2066519Y-1934300D02*
G01*
X2085000Y-1934300D01*
X2084540Y-1932220D01*
X2082860Y-1927720D01*
X2080560Y-1923500D01*
X2077680Y-1919640D01*
X2074280Y-1916240D01*
X2070420Y-1913360D01*
X2066519Y-1911220D01*
G37*
G36*
X2019400Y-1934300D02*
G01*
X2037900Y-1934300D01*
X2037900Y-1911220D01*
X2033980Y-1913360D01*
X2030120Y-1916240D01*
X2026720Y-1919640D01*
X2023839Y-1923500D01*
X2021540Y-1927720D01*
X2019860Y-1932220D01*
G37*
G36*
X2295000Y-1934300D02*
G01*
X2313480Y-1934300D01*
X2313480Y-1911220D01*
X2309580Y-1913360D01*
X2305720Y-1916240D01*
X2302320Y-1919640D01*
X2299440Y-1923500D01*
X2297140Y-1927720D01*
X2295460Y-1932220D01*
G37*
G36*
X2342100Y-1934300D02*
G01*
X2360600Y-1934300D01*
X2360140Y-1932220D01*
X2358460Y-1927720D01*
X2356160Y-1923500D01*
X2353280Y-1919640D01*
X2349880Y-1916240D01*
X2346020Y-1913360D01*
X2342100Y-1911220D01*
G37*
G36*
X541640Y-1884760D02*
G01*
X544360Y-1884760D01*
X545880Y-1884660D01*
X548560Y-1884319D01*
X550040Y-1884040D01*
X552660Y-1883380D01*
X554160Y-1882900D01*
X558040Y-1881260D01*
X560420Y-1879940D01*
X561680Y-1879139D01*
X563880Y-1877540D01*
X565060Y-1876560D01*
X568100Y-1873600D01*
X569820Y-1871500D01*
X570700Y-1870280D01*
X572160Y-1868000D01*
X572880Y-1866680D01*
X574040Y-1864240D01*
X574620Y-1862760D01*
X575460Y-1860160D01*
X575820Y-1858740D01*
X576340Y-1856080D01*
X576520Y-1854540D01*
X576720Y-1850980D01*
X576720Y-1819700D01*
X576520Y-1816140D01*
X576340Y-1814600D01*
X575460Y-1810500D01*
X574620Y-1807920D01*
X574040Y-1806480D01*
X572880Y-1804019D01*
X572160Y-1802680D01*
X570700Y-1800400D01*
X569820Y-1799180D01*
X568100Y-1797080D01*
X565060Y-1794120D01*
X563880Y-1793140D01*
X561680Y-1791540D01*
X560420Y-1790740D01*
X558040Y-1789440D01*
X556660Y-1788779D01*
X554120Y-1787780D01*
X552700Y-1787320D01*
X550080Y-1786639D01*
X548560Y-1786360D01*
X545880Y-1786020D01*
X544360Y-1785920D01*
X541640Y-1785920D01*
X540140Y-1786020D01*
X537440Y-1786360D01*
X535940Y-1786639D01*
X533300Y-1787320D01*
X531880Y-1787780D01*
X529340Y-1788779D01*
X527960Y-1789440D01*
X525580Y-1790740D01*
X524320Y-1791540D01*
X522120Y-1793140D01*
X520940Y-1794120D01*
X517900Y-1797080D01*
X516180Y-1799180D01*
X515300Y-1800400D01*
X513840Y-1802680D01*
X513100Y-1804040D01*
X511940Y-1806500D01*
X511400Y-1807880D01*
X510560Y-1810460D01*
X510180Y-1811980D01*
X509660Y-1814640D01*
X509480Y-1816100D01*
X509280Y-1819700D01*
X509280Y-1850980D01*
X509480Y-1854580D01*
X509660Y-1856040D01*
X510180Y-1858720D01*
X510560Y-1860200D01*
X511400Y-1862800D01*
X511960Y-1864199D01*
X513100Y-1866660D01*
X513840Y-1868000D01*
X515300Y-1870280D01*
X516180Y-1871500D01*
X517900Y-1873600D01*
X520940Y-1876560D01*
X522120Y-1877540D01*
X524320Y-1879139D01*
X525580Y-1879940D01*
X527960Y-1881260D01*
X531840Y-1882900D01*
X533340Y-1883380D01*
X535980Y-1884060D01*
X540140Y-1884660D01*
G37*
G36*
X741640Y-1884760D02*
G01*
X744360Y-1884760D01*
X745860Y-1884660D01*
X748560Y-1884319D01*
X750040Y-1884040D01*
X752660Y-1883380D01*
X754160Y-1882900D01*
X758040Y-1881260D01*
X760420Y-1879940D01*
X761680Y-1879139D01*
X763880Y-1877540D01*
X765060Y-1876560D01*
X768100Y-1873600D01*
X769820Y-1871500D01*
X770699Y-1870280D01*
X772159Y-1868000D01*
X772900Y-1866660D01*
X774040Y-1864199D01*
X774599Y-1862800D01*
X775440Y-1860200D01*
X775819Y-1858740D01*
X776340Y-1856080D01*
X776520Y-1854540D01*
X776720Y-1850980D01*
X776720Y-1819700D01*
X776520Y-1816140D01*
X776340Y-1814600D01*
X775819Y-1811940D01*
X775440Y-1810460D01*
X774599Y-1807880D01*
X774060Y-1806500D01*
X772900Y-1804040D01*
X772159Y-1802680D01*
X770699Y-1800400D01*
X769820Y-1799180D01*
X768100Y-1797080D01*
X765060Y-1794120D01*
X763880Y-1793140D01*
X761680Y-1791540D01*
X760420Y-1790740D01*
X758040Y-1789440D01*
X756660Y-1788779D01*
X754120Y-1787780D01*
X752700Y-1787320D01*
X750080Y-1786639D01*
X748560Y-1786360D01*
X745860Y-1786020D01*
X744360Y-1785920D01*
X741640Y-1785920D01*
X740140Y-1786020D01*
X737440Y-1786360D01*
X735939Y-1786639D01*
X733300Y-1787320D01*
X731880Y-1787780D01*
X729340Y-1788779D01*
X727960Y-1789440D01*
X725580Y-1790740D01*
X724320Y-1791540D01*
X722120Y-1793140D01*
X720939Y-1794120D01*
X717900Y-1797080D01*
X716180Y-1799180D01*
X715300Y-1800400D01*
X713840Y-1802680D01*
X713100Y-1804040D01*
X711940Y-1806500D01*
X711400Y-1807880D01*
X710560Y-1810460D01*
X710180Y-1811980D01*
X709659Y-1814640D01*
X709479Y-1816100D01*
X709280Y-1819700D01*
X709280Y-1850980D01*
X709479Y-1854580D01*
X709659Y-1856040D01*
X710180Y-1858720D01*
X710560Y-1860200D01*
X711400Y-1862800D01*
X711960Y-1864199D01*
X713100Y-1866660D01*
X713840Y-1868000D01*
X715300Y-1870280D01*
X716180Y-1871500D01*
X717900Y-1873600D01*
X720939Y-1876560D01*
X722120Y-1877540D01*
X724320Y-1879139D01*
X725580Y-1879940D01*
X727960Y-1881260D01*
X731840Y-1882900D01*
X733340Y-1883380D01*
X735980Y-1884060D01*
X740140Y-1884660D01*
G37*
G36*
X841640Y-1884760D02*
G01*
X844360Y-1884760D01*
X845860Y-1884660D01*
X848560Y-1884319D01*
X850040Y-1884040D01*
X852660Y-1883380D01*
X854160Y-1882900D01*
X858040Y-1881260D01*
X860420Y-1879940D01*
X861680Y-1879139D01*
X863880Y-1877540D01*
X865060Y-1876560D01*
X868100Y-1873600D01*
X869820Y-1871500D01*
X870699Y-1870280D01*
X872159Y-1868000D01*
X872900Y-1866660D01*
X874040Y-1864199D01*
X874599Y-1862800D01*
X875440Y-1860200D01*
X875819Y-1858740D01*
X876340Y-1856080D01*
X876520Y-1854540D01*
X876720Y-1850980D01*
X876720Y-1819700D01*
X876520Y-1816140D01*
X876340Y-1814600D01*
X875819Y-1811940D01*
X875440Y-1810460D01*
X874599Y-1807880D01*
X874060Y-1806500D01*
X872900Y-1804040D01*
X872159Y-1802680D01*
X870699Y-1800400D01*
X869820Y-1799180D01*
X868100Y-1797080D01*
X865060Y-1794120D01*
X863880Y-1793140D01*
X861680Y-1791540D01*
X860420Y-1790740D01*
X858040Y-1789440D01*
X856660Y-1788779D01*
X854120Y-1787780D01*
X852700Y-1787320D01*
X850080Y-1786639D01*
X848560Y-1786360D01*
X845860Y-1786020D01*
X844360Y-1785920D01*
X841640Y-1785920D01*
X840140Y-1786020D01*
X837440Y-1786360D01*
X835920Y-1786639D01*
X833300Y-1787320D01*
X831880Y-1787780D01*
X829340Y-1788779D01*
X827960Y-1789440D01*
X825580Y-1790740D01*
X824320Y-1791540D01*
X822120Y-1793140D01*
X820939Y-1794120D01*
X817900Y-1797080D01*
X816180Y-1799180D01*
X815300Y-1800400D01*
X813840Y-1802680D01*
X813100Y-1804040D01*
X811940Y-1806500D01*
X811400Y-1807880D01*
X810560Y-1810460D01*
X810180Y-1811980D01*
X809659Y-1814640D01*
X809479Y-1816100D01*
X809280Y-1819700D01*
X809280Y-1850980D01*
X809479Y-1854580D01*
X809659Y-1856040D01*
X810180Y-1858720D01*
X810560Y-1860200D01*
X811400Y-1862800D01*
X811960Y-1864199D01*
X813100Y-1866660D01*
X813840Y-1868000D01*
X815300Y-1870280D01*
X816180Y-1871500D01*
X817900Y-1873600D01*
X820939Y-1876560D01*
X822120Y-1877540D01*
X824320Y-1879139D01*
X825580Y-1879940D01*
X827960Y-1881260D01*
X831840Y-1882900D01*
X833340Y-1883380D01*
X835960Y-1884040D01*
X837440Y-1884319D01*
X840140Y-1884660D01*
G37*
G36*
X2107380Y-1883060D02*
G01*
X2107680Y-1882960D01*
X2112100Y-1880400D01*
X2116140Y-1877240D01*
X2119680Y-1873560D01*
X2122700Y-1869420D01*
X2124640Y-1865780D01*
X2107380Y-1865780D01*
G37*
G36*
X2304180Y-1883060D02*
G01*
X2304480Y-1882960D01*
X2308900Y-1880400D01*
X2312940Y-1877240D01*
X2316480Y-1873560D01*
X2319500Y-1869420D01*
X2321440Y-1865780D01*
X2304180Y-1865780D01*
G37*
G36*
X2075820Y-1883000D02*
G01*
X2075820Y-1865780D01*
X2058600Y-1865780D01*
X2059220Y-1867220D01*
X2061940Y-1871560D01*
X2065220Y-1875460D01*
X2069019Y-1878899D01*
X2073260Y-1881759D01*
G37*
G36*
X2272620Y-1883000D02*
G01*
X2272620Y-1865780D01*
X2255400Y-1865780D01*
X2256020Y-1867220D01*
X2258740Y-1871560D01*
X2262020Y-1875460D01*
X2265820Y-1878899D01*
X2270060Y-1881759D01*
G37*
G36*
X628680Y-1881600D02*
G01*
X628680Y-1857500D01*
X609940Y-1857500D01*
X610560Y-1860200D01*
X611400Y-1862800D01*
X611960Y-1864199D01*
X613100Y-1866660D01*
X613840Y-1868000D01*
X615300Y-1870280D01*
X616180Y-1871500D01*
X617900Y-1873600D01*
X620940Y-1876560D01*
X622120Y-1877540D01*
X624320Y-1879139D01*
X625580Y-1879940D01*
G37*
G36*
X657320Y-1881600D02*
G01*
X660420Y-1879940D01*
X661680Y-1879139D01*
X663880Y-1877540D01*
X665060Y-1876560D01*
X668100Y-1873600D01*
X669820Y-1871500D01*
X670699Y-1870280D01*
X672159Y-1868000D01*
X672900Y-1866660D01*
X674040Y-1864199D01*
X674599Y-1862800D01*
X675440Y-1860200D01*
X676060Y-1857500D01*
X657320Y-1857500D01*
G37*
G36*
X2058600Y-1834220D02*
G01*
X2075820Y-1834220D01*
X2075820Y-1817000D01*
X2073260Y-1818240D01*
X2069019Y-1821100D01*
X2065220Y-1824540D01*
X2061940Y-1828440D01*
X2059220Y-1832780D01*
G37*
G36*
X2255400Y-1834220D02*
G01*
X2272620Y-1834220D01*
X2272620Y-1817000D01*
X2270060Y-1818240D01*
X2265820Y-1821100D01*
X2262020Y-1824540D01*
X2258740Y-1828440D01*
X2256020Y-1832780D01*
G37*
G36*
X2107380Y-1834220D02*
G01*
X2124640Y-1834220D01*
X2122700Y-1830580D01*
X2119680Y-1826440D01*
X2116140Y-1822760D01*
X2112100Y-1819600D01*
X2107680Y-1817040D01*
X2107380Y-1816940D01*
G37*
G36*
X2304180Y-1834220D02*
G01*
X2321440Y-1834220D01*
X2319500Y-1830580D01*
X2316480Y-1826440D01*
X2312940Y-1822760D01*
X2308900Y-1819600D01*
X2304480Y-1817040D01*
X2304180Y-1816940D01*
G37*
G36*
X609940Y-1813180D02*
G01*
X628680Y-1813180D01*
X628680Y-1789079D01*
X625580Y-1790740D01*
X624320Y-1791540D01*
X622120Y-1793140D01*
X620940Y-1794120D01*
X617900Y-1797080D01*
X616180Y-1799180D01*
X615300Y-1800400D01*
X613840Y-1802680D01*
X613100Y-1804040D01*
X611940Y-1806500D01*
X611400Y-1807880D01*
X610560Y-1810460D01*
G37*
G36*
X657320Y-1813180D02*
G01*
X676060Y-1813180D01*
X675440Y-1810460D01*
X674599Y-1807880D01*
X674060Y-1806500D01*
X672900Y-1804040D01*
X672159Y-1802680D01*
X670699Y-1800400D01*
X669820Y-1799180D01*
X668100Y-1797080D01*
X665060Y-1794120D01*
X663880Y-1793140D01*
X661680Y-1791540D01*
X660420Y-1790740D01*
X657320Y-1789079D01*
G37*
G36*
X2850000Y-1741600D02*
G01*
X2855419Y-1741240D01*
X2860760Y-1740180D01*
X2865920Y-1738420D01*
X2870800Y-1736020D01*
X2875320Y-1733000D01*
X2879400Y-1729400D01*
X2883000Y-1725320D01*
X2886019Y-1720800D01*
X2888420Y-1715920D01*
X2890179Y-1710760D01*
X2891240Y-1705420D01*
X2891600Y-1700000D01*
X2891240Y-1694580D01*
X2890179Y-1689240D01*
X2888420Y-1684079D01*
X2886019Y-1679199D01*
X2883000Y-1674680D01*
X2879400Y-1670600D01*
X2875320Y-1667000D01*
X2870800Y-1663980D01*
X2865920Y-1661579D01*
X2860760Y-1659820D01*
X2855419Y-1658760D01*
X2850000Y-1658400D01*
X2844580Y-1658760D01*
X2839240Y-1659820D01*
X2834080Y-1661579D01*
X2829200Y-1663980D01*
X2824680Y-1667000D01*
X2820600Y-1670600D01*
X2817000Y-1674680D01*
X2813980Y-1679199D01*
X2811580Y-1684079D01*
X2809820Y-1689240D01*
X2808759Y-1694580D01*
X2808399Y-1700000D01*
X2808759Y-1705420D01*
X2809820Y-1710760D01*
X2811580Y-1715920D01*
X2813980Y-1720800D01*
X2817000Y-1725320D01*
X2820600Y-1729400D01*
X2824680Y-1733000D01*
X2829200Y-1736020D01*
X2834080Y-1738420D01*
X2839240Y-1740180D01*
X2844580Y-1741240D01*
G37*
G36*
X2565000Y-1705100D02*
G01*
X2573720Y-1704720D01*
X2582380Y-1703580D01*
X2590899Y-1701680D01*
X2599240Y-1699060D01*
X2607300Y-1695720D01*
X2615040Y-1691680D01*
X2622420Y-1687000D01*
X2629340Y-1681680D01*
X2635779Y-1675780D01*
X2641680Y-1669340D01*
X2647000Y-1662420D01*
X2651680Y-1655040D01*
X2655720Y-1647300D01*
X2659060Y-1639240D01*
X2661680Y-1630900D01*
X2663580Y-1622380D01*
X2664720Y-1613720D01*
X2665100Y-1605000D01*
X2664720Y-1596279D01*
X2663580Y-1587620D01*
X2661680Y-1579100D01*
X2659060Y-1570760D01*
X2655720Y-1562700D01*
X2651680Y-1554960D01*
X2647000Y-1547580D01*
X2641680Y-1540660D01*
X2635779Y-1534220D01*
X2629340Y-1528320D01*
X2622420Y-1523000D01*
X2615040Y-1518320D01*
X2607300Y-1514280D01*
X2599240Y-1510940D01*
X2590899Y-1508320D01*
X2582380Y-1506420D01*
X2573720Y-1505280D01*
X2565000Y-1504900D01*
X2556280Y-1505280D01*
X2547620Y-1506420D01*
X2539100Y-1508320D01*
X2530760Y-1510940D01*
X2522700Y-1514280D01*
X2514960Y-1518320D01*
X2507580Y-1523000D01*
X2500660Y-1528320D01*
X2494220Y-1534220D01*
X2488320Y-1540660D01*
X2483000Y-1547580D01*
X2478320Y-1554960D01*
X2474280Y-1562700D01*
X2470940Y-1570760D01*
X2468320Y-1579100D01*
X2466420Y-1587620D01*
X2465280Y-1596279D01*
X2464900Y-1605000D01*
X2465280Y-1613720D01*
X2466420Y-1622380D01*
X2468320Y-1630900D01*
X2470940Y-1639240D01*
X2474280Y-1647300D01*
X2478320Y-1655040D01*
X2483000Y-1662420D01*
X2488320Y-1669340D01*
X2494220Y-1675780D01*
X2500660Y-1681680D01*
X2507580Y-1687000D01*
X2514960Y-1691680D01*
X2522700Y-1695720D01*
X2530760Y-1699060D01*
X2539100Y-1701680D01*
X2547620Y-1703580D01*
X2556280Y-1704720D01*
G37*
G36*
X1050000Y-1622080D02*
G01*
X1053840Y-1621740D01*
X1057560Y-1620760D01*
X1061040Y-1619120D01*
X1064200Y-1616920D01*
X1066920Y-1614199D01*
X1069120Y-1611040D01*
X1070760Y-1607560D01*
X1071740Y-1603839D01*
X1072080Y-1600000D01*
X1071740Y-1596160D01*
X1070760Y-1592440D01*
X1069120Y-1588959D01*
X1066920Y-1585800D01*
X1064200Y-1583080D01*
X1061040Y-1580880D01*
X1057560Y-1579240D01*
X1053840Y-1578260D01*
X1050000Y-1577920D01*
X1046160Y-1578260D01*
X1042440Y-1579240D01*
X1038960Y-1580880D01*
X1035800Y-1583080D01*
X1033080Y-1585800D01*
X1030879Y-1588959D01*
X1029240Y-1592440D01*
X1028259Y-1596160D01*
X1027920Y-1600000D01*
X1028259Y-1603839D01*
X1029240Y-1607560D01*
X1030879Y-1611040D01*
X1033080Y-1614199D01*
X1035800Y-1616920D01*
X1038960Y-1619120D01*
X1042440Y-1620760D01*
X1046160Y-1621740D01*
G37*
G36*
X146920Y-1610580D02*
G01*
X233080Y-1610580D01*
X235539Y-1610300D01*
X237680Y-1609540D01*
X239579Y-1608340D01*
X241180Y-1606759D01*
X242380Y-1604840D01*
X243120Y-1602720D01*
X243400Y-1600240D01*
X243400Y-1514079D01*
X243120Y-1511620D01*
X242380Y-1509480D01*
X241180Y-1507580D01*
X239579Y-1505980D01*
X237680Y-1504780D01*
X235539Y-1504040D01*
X233080Y-1503760D01*
X146920Y-1503760D01*
X144460Y-1504040D01*
X142320Y-1504780D01*
X140420Y-1505980D01*
X138820Y-1507580D01*
X137620Y-1509480D01*
X136880Y-1511620D01*
X136600Y-1514079D01*
X136600Y-1600240D01*
X136880Y-1602720D01*
X137620Y-1604840D01*
X138820Y-1606759D01*
X140420Y-1608340D01*
X142320Y-1609540D01*
X144460Y-1610300D01*
G37*
G36*
X1990000Y-1609840D02*
G01*
X1993839Y-1609500D01*
X1997560Y-1608520D01*
X2001040Y-1606879D01*
X2004199Y-1604680D01*
X2006920Y-1601960D01*
X2009120Y-1598800D01*
X2010760Y-1595320D01*
X2011740Y-1591600D01*
X2012080Y-1587760D01*
X2011740Y-1583920D01*
X2010760Y-1580200D01*
X2009120Y-1576720D01*
X2006920Y-1573560D01*
X2004199Y-1570840D01*
X2001040Y-1568640D01*
X1997560Y-1567000D01*
X1993839Y-1566020D01*
X1990000Y-1565680D01*
X1986160Y-1566020D01*
X1982440Y-1567000D01*
X1978959Y-1568640D01*
X1975800Y-1570840D01*
X1973080Y-1573560D01*
X1970880Y-1576720D01*
X1969240Y-1580200D01*
X1968260Y-1583920D01*
X1967920Y-1587760D01*
X1968260Y-1591600D01*
X1969240Y-1595320D01*
X1970880Y-1598800D01*
X1973080Y-1601960D01*
X1975800Y-1604680D01*
X1978959Y-1606879D01*
X1982440Y-1608520D01*
X1986160Y-1609500D01*
G37*
G36*
X1378240Y-1539400D02*
G01*
X1380800Y-1538140D01*
X1385320Y-1535120D01*
X1389400Y-1531540D01*
X1393000Y-1527440D01*
X1396020Y-1522920D01*
X1397280Y-1520380D01*
X1378240Y-1520380D01*
G37*
G36*
X1341759Y-1539400D02*
G01*
X1341759Y-1520380D01*
X1322720Y-1520380D01*
X1323980Y-1522920D01*
X1327000Y-1527440D01*
X1330600Y-1531540D01*
X1334680Y-1535120D01*
X1339199Y-1538140D01*
G37*
G36*
X1322720Y-1483880D02*
G01*
X1341759Y-1483880D01*
X1341759Y-1466600D01*
X1342040Y-1465120D01*
X1342860Y-1463839D01*
X1344079Y-1462960D01*
X1345540Y-1462600D01*
X1347040Y-1462800D01*
X1349240Y-1463560D01*
X1354580Y-1464620D01*
X1360000Y-1464980D01*
X1365420Y-1464620D01*
X1370760Y-1463560D01*
X1372960Y-1462800D01*
X1374460Y-1462600D01*
X1375920Y-1462960D01*
X1377140Y-1463839D01*
X1377960Y-1465120D01*
X1378240Y-1466600D01*
X1378240Y-1483880D01*
X1397280Y-1483880D01*
X1396020Y-1481339D01*
X1393000Y-1476800D01*
X1389400Y-1472720D01*
X1385320Y-1469139D01*
X1380760Y-1466080D01*
X1379640Y-1464980D01*
X1379060Y-1463540D01*
X1379060Y-1461980D01*
X1379640Y-1460540D01*
X1380760Y-1459420D01*
X1385320Y-1456380D01*
X1389400Y-1452800D01*
X1393000Y-1448700D01*
X1396020Y-1444180D01*
X1398420Y-1439300D01*
X1400180Y-1434139D01*
X1401240Y-1428820D01*
X1401579Y-1423380D01*
X1401240Y-1417960D01*
X1400180Y-1412620D01*
X1398420Y-1407480D01*
X1396020Y-1402600D01*
X1393000Y-1398060D01*
X1389400Y-1393980D01*
X1385320Y-1390400D01*
X1380800Y-1387360D01*
X1375920Y-1384960D01*
X1370760Y-1383220D01*
X1365420Y-1382160D01*
X1360000Y-1381800D01*
X1354580Y-1382160D01*
X1349240Y-1383220D01*
X1344079Y-1384960D01*
X1339199Y-1387360D01*
X1334680Y-1390400D01*
X1330600Y-1393980D01*
X1327000Y-1398060D01*
X1323980Y-1402600D01*
X1321579Y-1407480D01*
X1319820Y-1412620D01*
X1318760Y-1417960D01*
X1318420Y-1423380D01*
X1318760Y-1428820D01*
X1319820Y-1434139D01*
X1321579Y-1439300D01*
X1323980Y-1444180D01*
X1327000Y-1448700D01*
X1330600Y-1452800D01*
X1334680Y-1456380D01*
X1339240Y-1459420D01*
X1340360Y-1460540D01*
X1340940Y-1461980D01*
X1340940Y-1463540D01*
X1340360Y-1464980D01*
X1339240Y-1466080D01*
X1334680Y-1469139D01*
X1330600Y-1472720D01*
X1327000Y-1476800D01*
X1323980Y-1481339D01*
G37*
G36*
X2547360Y-1439540D02*
G01*
X2552640Y-1439540D01*
X2557900Y-1438820D01*
X2563000Y-1437420D01*
X2567860Y-1435360D01*
X2572420Y-1432660D01*
X2576580Y-1429379D01*
X2580260Y-1425580D01*
X2583399Y-1421320D01*
X2585940Y-1416680D01*
X2587840Y-1411740D01*
X2589060Y-1406579D01*
X2589600Y-1401320D01*
X2589420Y-1396040D01*
X2588540Y-1390820D01*
X2586980Y-1385760D01*
X2584740Y-1380960D01*
X2581900Y-1376500D01*
X2578480Y-1372460D01*
X2574560Y-1368899D01*
X2570200Y-1365920D01*
X2565460Y-1363520D01*
X2560460Y-1361780D01*
X2555280Y-1360740D01*
X2550000Y-1360380D01*
X2544720Y-1360740D01*
X2539540Y-1361780D01*
X2534540Y-1363520D01*
X2529800Y-1365920D01*
X2525440Y-1368899D01*
X2521520Y-1372460D01*
X2518100Y-1376500D01*
X2515260Y-1380960D01*
X2513020Y-1385760D01*
X2511460Y-1390820D01*
X2510580Y-1396040D01*
X2510400Y-1401320D01*
X2510940Y-1406579D01*
X2512160Y-1411740D01*
X2514060Y-1416680D01*
X2516600Y-1421320D01*
X2519740Y-1425580D01*
X2523420Y-1429379D01*
X2527580Y-1432660D01*
X2532140Y-1435360D01*
X2537000Y-1437420D01*
X2542100Y-1438820D01*
G37*
G36*
X2332740Y-1435620D02*
G01*
X2332740Y-1417260D01*
X2314380Y-1417260D01*
X2316600Y-1421320D01*
X2319740Y-1425580D01*
X2323420Y-1429379D01*
X2327580Y-1432660D01*
X2332140Y-1435360D01*
G37*
G36*
X2367260Y-1435620D02*
G01*
X2367860Y-1435360D01*
X2372420Y-1432660D01*
X2376580Y-1429379D01*
X2380260Y-1425580D01*
X2383400Y-1421320D01*
X2385620Y-1417260D01*
X2367260Y-1417260D01*
G37*
G36*
X1017360Y-1414079D02*
G01*
X1022220Y-1413740D01*
X1026960Y-1412700D01*
X1031520Y-1411000D01*
X1035800Y-1408680D01*
X1039680Y-1405760D01*
X1043120Y-1402320D01*
X1046040Y-1398440D01*
X1048360Y-1394160D01*
X1050060Y-1389600D01*
X1051100Y-1384860D01*
X1051440Y-1380000D01*
X1051100Y-1375140D01*
X1050060Y-1370400D01*
X1048360Y-1365840D01*
X1046040Y-1361560D01*
X1043120Y-1357680D01*
X1039680Y-1354240D01*
X1035800Y-1351320D01*
X1031520Y-1349000D01*
X1026960Y-1347300D01*
X1022220Y-1346260D01*
X1017360Y-1345920D01*
X1012500Y-1346260D01*
X1007760Y-1347300D01*
X1003199Y-1349000D01*
X998920Y-1351320D01*
X995040Y-1354240D01*
X991600Y-1357680D01*
X988680Y-1361560D01*
X986360Y-1365840D01*
X984659Y-1370400D01*
X983620Y-1375140D01*
X983280Y-1380000D01*
X983620Y-1384860D01*
X984659Y-1389600D01*
X986360Y-1394160D01*
X988680Y-1398440D01*
X991600Y-1402320D01*
X995040Y-1405760D01*
X998920Y-1408680D01*
X1003199Y-1411000D01*
X1007760Y-1412700D01*
X1012500Y-1413740D01*
G37*
G36*
X807360Y-1384079D02*
G01*
X812220Y-1383740D01*
X816960Y-1382700D01*
X821520Y-1381000D01*
X825800Y-1378680D01*
X829680Y-1375760D01*
X833120Y-1372320D01*
X836040Y-1368440D01*
X838360Y-1364160D01*
X840060Y-1359600D01*
X841100Y-1354860D01*
X841440Y-1350000D01*
X841100Y-1345140D01*
X840060Y-1340400D01*
X838360Y-1335840D01*
X836040Y-1331560D01*
X833120Y-1327680D01*
X829680Y-1324240D01*
X825800Y-1321320D01*
X821520Y-1319000D01*
X816960Y-1317300D01*
X812220Y-1316260D01*
X807360Y-1315920D01*
X802500Y-1316260D01*
X797760Y-1317300D01*
X793199Y-1319000D01*
X788920Y-1321320D01*
X785040Y-1324240D01*
X781600Y-1327680D01*
X778680Y-1331560D01*
X776360Y-1335840D01*
X774659Y-1340400D01*
X773620Y-1345140D01*
X773280Y-1350000D01*
X773620Y-1354860D01*
X774659Y-1359600D01*
X776360Y-1364160D01*
X778680Y-1368440D01*
X781600Y-1372320D01*
X785040Y-1375760D01*
X788920Y-1378680D01*
X793199Y-1381000D01*
X797760Y-1382700D01*
X802500Y-1383740D01*
G37*
G36*
X2367260Y-1382740D02*
G01*
X2385560Y-1382740D01*
X2384740Y-1380960D01*
X2381900Y-1376500D01*
X2378480Y-1372460D01*
X2374560Y-1368899D01*
X2370200Y-1365920D01*
X2367260Y-1364440D01*
G37*
G36*
X2314440Y-1382740D02*
G01*
X2332740Y-1382740D01*
X2332740Y-1364440D01*
X2329800Y-1365920D01*
X2325440Y-1368899D01*
X2321520Y-1372460D01*
X2318100Y-1376500D01*
X2315260Y-1380960D01*
G37*
G36*
X165840Y-1250440D02*
G01*
X165840Y-1226980D01*
X142480Y-1226980D01*
X143760Y-1229540D01*
X147160Y-1234720D01*
X151160Y-1239480D01*
X155680Y-1243740D01*
X160660Y-1247440D01*
G37*
G36*
X214160Y-1250440D02*
G01*
X219340Y-1247440D01*
X224320Y-1243740D01*
X228840Y-1239480D01*
X232840Y-1234720D01*
X236240Y-1229540D01*
X237520Y-1226980D01*
X214160Y-1226980D01*
G37*
G36*
X837360Y-1237080D02*
G01*
X841200Y-1236740D01*
X844920Y-1235760D01*
X848400Y-1234120D01*
X851560Y-1231920D01*
X854280Y-1229200D01*
X856480Y-1226040D01*
X858120Y-1222560D01*
X859100Y-1218840D01*
X859440Y-1215000D01*
X859100Y-1211160D01*
X858120Y-1207440D01*
X856480Y-1203960D01*
X854280Y-1200800D01*
X851560Y-1198080D01*
X848400Y-1195880D01*
X844920Y-1194240D01*
X841200Y-1193260D01*
X837360Y-1192920D01*
X833520Y-1193260D01*
X829800Y-1194240D01*
X826320Y-1195880D01*
X823160Y-1198080D01*
X820440Y-1200800D01*
X818240Y-1203960D01*
X816600Y-1207440D01*
X815620Y-1211160D01*
X815280Y-1215000D01*
X815620Y-1218840D01*
X816600Y-1222560D01*
X818240Y-1226040D01*
X820440Y-1229200D01*
X823160Y-1231920D01*
X826320Y-1234120D01*
X829800Y-1235760D01*
X833520Y-1236740D01*
G37*
G36*
X1002360Y-1237080D02*
G01*
X1006200Y-1236740D01*
X1009920Y-1235760D01*
X1013400Y-1234120D01*
X1016560Y-1231920D01*
X1019280Y-1229200D01*
X1021480Y-1226040D01*
X1023120Y-1222560D01*
X1024100Y-1218840D01*
X1024440Y-1215000D01*
X1024100Y-1211160D01*
X1023120Y-1207440D01*
X1021480Y-1203960D01*
X1019280Y-1200800D01*
X1016560Y-1198080D01*
X1013400Y-1195880D01*
X1009920Y-1194240D01*
X1006200Y-1193260D01*
X1002360Y-1192920D01*
X998520Y-1193260D01*
X994800Y-1194240D01*
X991320Y-1195880D01*
X988160Y-1198080D01*
X985440Y-1200800D01*
X983240Y-1203960D01*
X981600Y-1207440D01*
X980620Y-1211160D01*
X980280Y-1215000D01*
X980620Y-1218840D01*
X981600Y-1222560D01*
X983240Y-1226040D01*
X985440Y-1229200D01*
X988160Y-1231920D01*
X991320Y-1234120D01*
X994800Y-1235760D01*
X998520Y-1236740D01*
G37*
G36*
X214160Y-1178680D02*
G01*
X237520Y-1178680D01*
X236240Y-1176140D01*
X232840Y-1170940D01*
X228840Y-1166200D01*
X224320Y-1161920D01*
X219340Y-1158220D01*
X214160Y-1155220D01*
G37*
G36*
X142480Y-1178680D02*
G01*
X165840Y-1178680D01*
X165840Y-1155220D01*
X160660Y-1158220D01*
X155680Y-1161920D01*
X151160Y-1166200D01*
X147160Y-1170940D01*
X143760Y-1176140D01*
G37*
G36*
X2968260Y-937280D02*
G01*
X2970800Y-936020D01*
X2975320Y-933000D01*
X2979400Y-929400D01*
X2983000Y-925320D01*
X2986019Y-920800D01*
X2987280Y-918259D01*
X2968260Y-918259D01*
G37*
G36*
X2931760Y-937280D02*
G01*
X2931760Y-918259D01*
X2912720Y-918259D01*
X2913980Y-920800D01*
X2917000Y-925320D01*
X2920600Y-929400D01*
X2924680Y-933000D01*
X2929200Y-936020D01*
G37*
G36*
X2868260Y-881760D02*
G01*
X2887280Y-881760D01*
X2886019Y-879200D01*
X2883000Y-874680D01*
X2879400Y-870600D01*
X2875320Y-867000D01*
X2870800Y-863980D01*
X2868260Y-862720D01*
G37*
G36*
X2968260Y-881760D02*
G01*
X2987280Y-881760D01*
X2986019Y-879200D01*
X2983000Y-874680D01*
X2979400Y-870600D01*
X2975320Y-867000D01*
X2970800Y-863980D01*
X2968260Y-862720D01*
G37*
G36*
X2912720Y-881760D02*
G01*
X2931760Y-881760D01*
X2931760Y-862720D01*
X2929200Y-863980D01*
X2924680Y-867000D01*
X2920600Y-870600D01*
X2917000Y-874680D01*
X2913980Y-879200D01*
G37*
G36*
X2812720Y-881760D02*
G01*
X2831760Y-881760D01*
X2831760Y-862720D01*
X2829200Y-863980D01*
X2824680Y-867000D01*
X2820600Y-870600D01*
X2817000Y-874680D01*
X2813980Y-879200D01*
G37*
G36*
X587360Y-872080D02*
G01*
X591200Y-871740D01*
X594920Y-870759D01*
X598400Y-869120D01*
X601560Y-866919D01*
X604280Y-864200D01*
X606480Y-861040D01*
X608120Y-857560D01*
X609100Y-853840D01*
X609440Y-850000D01*
X609100Y-846160D01*
X608120Y-842440D01*
X606480Y-838960D01*
X604280Y-835800D01*
X601560Y-833080D01*
X598400Y-830879D01*
X594920Y-829240D01*
X591200Y-828259D01*
X587360Y-827920D01*
X583520Y-828259D01*
X579800Y-829240D01*
X576320Y-830879D01*
X573160Y-833080D01*
X570440Y-835800D01*
X568240Y-838960D01*
X566600Y-842440D01*
X565620Y-846160D01*
X565280Y-850000D01*
X565620Y-853840D01*
X566600Y-857560D01*
X568240Y-861040D01*
X570440Y-864200D01*
X573160Y-866919D01*
X576320Y-869120D01*
X579800Y-870759D01*
X583520Y-871740D01*
G37*
G36*
X782360Y-802080D02*
G01*
X786200Y-801740D01*
X789920Y-800759D01*
X793400Y-799120D01*
X796560Y-796919D01*
X799280Y-794200D01*
X801480Y-791040D01*
X803120Y-787560D01*
X804100Y-783840D01*
X804440Y-780000D01*
X804100Y-776160D01*
X803120Y-772440D01*
X801480Y-768960D01*
X799280Y-765800D01*
X796560Y-763080D01*
X793400Y-760879D01*
X789920Y-759240D01*
X786200Y-758259D01*
X782360Y-757920D01*
X778520Y-758259D01*
X774800Y-759240D01*
X771320Y-760879D01*
X768160Y-763080D01*
X765440Y-765800D01*
X763240Y-768960D01*
X761600Y-772440D01*
X760620Y-776160D01*
X760280Y-780000D01*
X760620Y-783840D01*
X761600Y-787560D01*
X763240Y-791040D01*
X765440Y-794200D01*
X768160Y-796919D01*
X771320Y-799120D01*
X774800Y-800759D01*
X778520Y-801740D01*
G37*
G36*
X2570040Y-757080D02*
G01*
X2573860Y-756740D01*
X2577580Y-755759D01*
X2581080Y-754120D01*
X2584220Y-751919D01*
X2586940Y-749200D01*
X2589160Y-746040D01*
X2590779Y-742560D01*
X2591780Y-738840D01*
X2592120Y-735000D01*
X2591780Y-731160D01*
X2590779Y-727440D01*
X2589160Y-723960D01*
X2586940Y-720800D01*
X2584220Y-718080D01*
X2581080Y-715879D01*
X2577580Y-714240D01*
X2573860Y-713259D01*
X2570040Y-712920D01*
X2566200Y-713259D01*
X2562480Y-714240D01*
X2558980Y-715879D01*
X2555840Y-718080D01*
X2553120Y-720800D01*
X2550900Y-723960D01*
X2549280Y-727440D01*
X2548280Y-731160D01*
X2547940Y-735000D01*
X2548280Y-738840D01*
X2549280Y-742560D01*
X2550900Y-746040D01*
X2553120Y-749200D01*
X2555840Y-751919D01*
X2558980Y-754120D01*
X2562480Y-755759D01*
X2566200Y-756740D01*
G37*
G36*
X541640Y-715080D02*
G01*
X544360Y-715080D01*
X545880Y-714980D01*
X548560Y-714640D01*
X550080Y-714360D01*
X552700Y-713680D01*
X554120Y-713220D01*
X556660Y-712220D01*
X558040Y-711560D01*
X560420Y-710260D01*
X561680Y-709460D01*
X563880Y-707860D01*
X565060Y-706880D01*
X568100Y-703920D01*
X569820Y-701820D01*
X570700Y-700600D01*
X572160Y-698319D01*
X572880Y-696979D01*
X574040Y-694520D01*
X574620Y-693080D01*
X575460Y-690500D01*
X576340Y-686400D01*
X576520Y-684860D01*
X576720Y-681300D01*
X576720Y-650020D01*
X576520Y-646460D01*
X576340Y-644920D01*
X575820Y-642260D01*
X575460Y-640840D01*
X574620Y-638240D01*
X574040Y-636760D01*
X572880Y-634320D01*
X572160Y-633000D01*
X570700Y-630720D01*
X569820Y-629500D01*
X568100Y-627400D01*
X565060Y-624440D01*
X563880Y-623460D01*
X561680Y-621860D01*
X560420Y-621060D01*
X558040Y-619740D01*
X554160Y-618100D01*
X552660Y-617620D01*
X550040Y-616960D01*
X548560Y-616680D01*
X545880Y-616340D01*
X544360Y-616240D01*
X541640Y-616240D01*
X540140Y-616340D01*
X535980Y-616940D01*
X533340Y-617620D01*
X531840Y-618100D01*
X527960Y-619740D01*
X525580Y-621060D01*
X524320Y-621860D01*
X522120Y-623460D01*
X520940Y-624440D01*
X517900Y-627400D01*
X516180Y-629500D01*
X515300Y-630720D01*
X513840Y-633000D01*
X513100Y-634340D01*
X511960Y-636800D01*
X511400Y-638200D01*
X510560Y-640800D01*
X510180Y-642280D01*
X509660Y-644960D01*
X509480Y-646420D01*
X509280Y-650020D01*
X509280Y-681300D01*
X509480Y-684900D01*
X509660Y-686360D01*
X510180Y-689020D01*
X510560Y-690540D01*
X511400Y-693120D01*
X511940Y-694500D01*
X513100Y-696960D01*
X513840Y-698319D01*
X515300Y-700600D01*
X516180Y-701820D01*
X517900Y-703920D01*
X520940Y-706880D01*
X522120Y-707860D01*
X524320Y-709460D01*
X525580Y-710260D01*
X527960Y-711560D01*
X529340Y-712220D01*
X531880Y-713220D01*
X533300Y-713680D01*
X535940Y-714360D01*
X537440Y-714640D01*
X540140Y-714980D01*
G37*
G36*
X585000Y-505100D02*
G01*
X593720Y-504720D01*
X602380Y-503579D01*
X610900Y-501680D01*
X619240Y-499060D01*
X627300Y-495720D01*
X635040Y-491680D01*
X642420Y-487000D01*
X649340Y-481680D01*
X655780Y-475780D01*
X661680Y-469340D01*
X667000Y-462420D01*
X671680Y-455040D01*
X675720Y-447299D01*
X679060Y-439240D01*
X681680Y-430900D01*
X683580Y-422380D01*
X684720Y-413720D01*
X685100Y-405000D01*
X684720Y-396280D01*
X683580Y-387620D01*
X681680Y-379099D01*
X679060Y-370760D01*
X675720Y-362700D01*
X671680Y-354960D01*
X667000Y-347580D01*
X661680Y-340660D01*
X655780Y-334219D01*
X649340Y-328320D01*
X642420Y-323000D01*
X635040Y-318320D01*
X627300Y-314280D01*
X619240Y-310940D01*
X610900Y-308320D01*
X602380Y-306420D01*
X593720Y-305280D01*
X585000Y-304900D01*
X576280Y-305280D01*
X567620Y-306420D01*
X559100Y-308320D01*
X550760Y-310940D01*
X542700Y-314280D01*
X534960Y-318320D01*
X527580Y-323000D01*
X520660Y-328320D01*
X514219Y-334219D01*
X508320Y-340660D01*
X503000Y-347580D01*
X498320Y-354960D01*
X494280Y-362700D01*
X490940Y-370760D01*
X488320Y-379099D01*
X486420Y-387620D01*
X485280Y-396280D01*
X484900Y-405000D01*
X485280Y-413720D01*
X486420Y-422380D01*
X488320Y-430900D01*
X490940Y-439240D01*
X494280Y-447299D01*
X498320Y-455040D01*
X503000Y-462420D01*
X508320Y-469340D01*
X514219Y-475780D01*
X520660Y-481680D01*
X527580Y-487000D01*
X534960Y-491680D01*
X542700Y-495720D01*
X550760Y-499060D01*
X559100Y-501680D01*
X567620Y-503579D01*
X576280Y-504720D01*
G37*
G36*
X2320000Y-473080D02*
G01*
X2324400Y-472740D01*
X2328680Y-471719D01*
X2332760Y-470020D01*
X2336500Y-467720D01*
X2339860Y-464860D01*
X2342720Y-461500D01*
X2345020Y-457760D01*
X2346720Y-453680D01*
X2347740Y-449400D01*
X2348080Y-445000D01*
X2347740Y-440600D01*
X2346720Y-436320D01*
X2345020Y-432239D01*
X2342720Y-428500D01*
X2339860Y-425140D01*
X2336500Y-422280D01*
X2332760Y-419980D01*
X2328680Y-418280D01*
X2324400Y-417260D01*
X2320000Y-416920D01*
X2315600Y-417260D01*
X2311320Y-418280D01*
X2307240Y-419980D01*
X2303500Y-422280D01*
X2300140Y-425140D01*
X2297280Y-428500D01*
X2294980Y-432239D01*
X2293280Y-436320D01*
X2292260Y-440600D01*
X2291920Y-445000D01*
X2292260Y-449400D01*
X2293280Y-453680D01*
X2294980Y-457760D01*
X2297280Y-461500D01*
X2300140Y-464860D01*
X2303500Y-467720D01*
X2307240Y-470020D01*
X2311320Y-471719D01*
X2315600Y-472740D01*
G37*
G36*
X2570040Y-362080D02*
G01*
X2573860Y-361740D01*
X2577580Y-360760D01*
X2581080Y-359120D01*
X2584220Y-356920D01*
X2586940Y-354200D01*
X2589160Y-351040D01*
X2590779Y-347560D01*
X2591780Y-343840D01*
X2592120Y-340000D01*
X2591780Y-336160D01*
X2590779Y-332440D01*
X2589160Y-328960D01*
X2586940Y-325800D01*
X2584220Y-323080D01*
X2581080Y-320880D01*
X2577580Y-319240D01*
X2573860Y-318260D01*
X2570040Y-317920D01*
X2566200Y-318260D01*
X2562480Y-319240D01*
X2558980Y-320880D01*
X2555840Y-323080D01*
X2553120Y-325800D01*
X2550900Y-328960D01*
X2549280Y-332440D01*
X2548280Y-336160D01*
X2547940Y-340000D01*
X2548280Y-343840D01*
X2549280Y-347560D01*
X2550900Y-351040D01*
X2553120Y-354200D01*
X2555840Y-356920D01*
X2558980Y-359120D01*
X2562480Y-360760D01*
X2566200Y-361740D01*
G37*

%LPD*%
G36*
X2425100Y-1268040D02*
G01*
X2418040Y-1275100D01*
X2420540Y-1301840D01*
X2451840Y-1270540D01*
G37*
G36*
X2923220Y-966140D02*
G01*
X2916139Y-973220D01*
X2918560Y-1001979D01*
X2951980Y-968560D01*
G37*
G36*
X2923220Y-1066140D02*
G01*
X2916139Y-1073220D01*
X2918560Y-1101980D01*
X2951980Y-1068560D01*
G37*
G36*
X2923220Y-1166140D02*
G01*
X2916139Y-1173220D01*
X2918560Y-1201980D01*
X2951980Y-1168560D01*
G37*
G36*
X2923220Y-1266140D02*
G01*
X2916139Y-1273220D01*
X2918560Y-1301980D01*
X2951980Y-1268560D01*
G37*
G36*
X2923220Y-1366140D02*
G01*
X2916139Y-1373220D01*
X2918560Y-1401980D01*
X2951980Y-1368560D01*
G37*
G36*
X2923220Y-1466140D02*
G01*
X2916139Y-1473220D01*
X2918560Y-1501980D01*
X2951980Y-1468560D01*
G37*
G36*
X2923220Y-1566140D02*
G01*
X2916139Y-1573220D01*
X2918560Y-1601980D01*
X2951980Y-1568560D01*
G37*
G36*
X2823220Y-1466140D02*
G01*
X2816139Y-1473220D01*
X2818560Y-1501980D01*
X2851980Y-1468560D01*
G37*
G36*
X2823220Y-1366140D02*
G01*
X2816139Y-1373220D01*
X2818560Y-1401980D01*
X2851980Y-1368560D01*
G37*
G36*
X2823220Y-1266140D02*
G01*
X2816139Y-1273220D01*
X2818560Y-1301980D01*
X2851980Y-1268560D01*
G37*
G36*
X2823220Y-1166140D02*
G01*
X2816139Y-1173220D01*
X2818560Y-1201980D01*
X2851980Y-1168560D01*
G37*
G36*
X2823220Y-1066140D02*
G01*
X2816139Y-1073220D01*
X2818560Y-1101980D01*
X2851980Y-1068560D01*
G37*
G36*
X2841500Y-969659D02*
G01*
X2813680Y-976600D01*
X2809080Y-986140D01*
X2820980Y-1012220D01*
G37*
G36*
X3003980Y-751919D02*
G01*
X2996920Y-758980D01*
X3000020Y-767760D01*
X3012760Y-755020D01*
G37*
G36*
X1082060Y-1056000D02*
G01*
X1073660Y-1060000D01*
X1073660Y-1070000D01*
X1082060Y-1074000D01*
G37*
G36*
X1175000Y-648660D02*
G01*
X1171000Y-657060D01*
X1189000Y-657060D01*
X1185000Y-648660D01*
G37*
G36*
X1135000Y-648660D02*
G01*
X1131000Y-657060D01*
X1149000Y-657060D01*
X1145000Y-648660D01*
G37*
G36*
X1243020Y-499240D02*
G01*
X1239920Y-508020D01*
X1246980Y-515080D01*
X1255760Y-511980D01*
G37*
G36*
X1055000Y-648660D02*
G01*
X1051000Y-657060D01*
X1069000Y-657060D01*
X1065000Y-648660D01*
G37*
G36*
X1095000Y-648660D02*
G01*
X1091000Y-657060D01*
X1109000Y-657060D01*
X1105000Y-648660D01*
G37*
G36*
X1373020Y-279240D02*
G01*
X1369920Y-288020D01*
X1376980Y-295080D01*
X1385760Y-291980D01*
G37*
G36*
X742360Y-1363660D02*
G01*
X738360Y-1372060D01*
X756360Y-1372060D01*
X752360Y-1363660D01*
G37*
G36*
X760380Y-1104240D02*
G01*
X757280Y-1113020D01*
X764340Y-1120080D01*
X773100Y-1116980D01*
G37*
G36*
X1735520Y-1939139D02*
G01*
X1721380Y-1953280D01*
X1728020Y-1958500D01*
X1740760Y-1945780D01*
G37*
G36*
X1621000Y-1835700D02*
G01*
X1620000Y-1844100D01*
X1640000Y-1844100D01*
X1639000Y-1835700D01*
G37*
G36*
X1891980Y-214920D02*
G01*
X1884920Y-221980D01*
X1888020Y-230760D01*
X1900760Y-218020D01*
G37*
G36*
X1957940Y-621000D02*
G01*
X1957940Y-639000D01*
X1966339Y-635000D01*
X1966339Y-625000D01*
G37*
G36*
X2158020Y-509240D02*
G01*
X2154920Y-518020D01*
X2161980Y-525080D01*
X2170760Y-521980D01*
G37*
G36*
X2181980Y-509240D02*
G01*
X2169240Y-521980D01*
X2178020Y-525080D01*
X2185080Y-518020D01*
G37*
G36*
X1490020Y-689240D02*
G01*
X1486920Y-698020D01*
X1493980Y-705080D01*
X1502760Y-701979D01*
G37*
G36*
X1540020Y-689240D02*
G01*
X1536920Y-698020D01*
X1543980Y-705080D01*
X1552760Y-701979D01*
G37*
G36*
X1243020Y-449240D02*
G01*
X1239920Y-458020D01*
X1246980Y-465080D01*
X1255760Y-461980D01*
G37*
G36*
X922060Y-1021000D02*
G01*
X913660Y-1025000D01*
X913660Y-1035000D01*
X922060Y-1039000D01*
G37*
G36*
X535000Y-1293660D02*
G01*
X531000Y-1302060D01*
X549000Y-1302060D01*
X545000Y-1293660D01*
G37*
G36*
X1243020Y-249240D02*
G01*
X1239920Y-258020D01*
X1246980Y-265080D01*
X1255760Y-261980D01*
G37*
G36*
X1396980Y-329240D02*
G01*
X1384240Y-341980D01*
X1393020Y-345080D01*
X1400080Y-338020D01*
G37*
G36*
X1651980Y-1174920D02*
G01*
X1644920Y-1181980D01*
X1648020Y-1190760D01*
X1660760Y-1178020D01*
G37*
G36*
X1243020Y-199240D02*
G01*
X1239920Y-208020D01*
X1246980Y-215080D01*
X1255760Y-211980D01*
G37*
G36*
X481980Y-1709920D02*
G01*
X474920Y-1716980D01*
X478020Y-1725760D01*
X490760Y-1713020D01*
G37*
G36*
X401000Y-927940D02*
G01*
X405000Y-936340D01*
X415000Y-936340D01*
X419000Y-927940D01*
G37*
G36*
X405000Y-903660D02*
G01*
X401000Y-912060D01*
X419000Y-912060D01*
X415000Y-903660D01*
G37*
G36*
X445000Y-1433660D02*
G01*
X441000Y-1442060D01*
X459000Y-1442060D01*
X455000Y-1433660D01*
G37*
G36*
X1678800Y-587720D02*
G01*
X1667820Y-601980D01*
X1676900Y-603960D01*
X1683040Y-595980D01*
G37*
G36*
X1588000Y-585160D02*
G01*
X1580460Y-601500D01*
X1589620Y-601680D01*
X1594079Y-592020D01*
G37*
G36*
X1638660Y-592920D02*
G01*
X1622660Y-601180D01*
X1629860Y-606920D01*
X1639180Y-602100D01*
G37*
G36*
X1691000Y-561760D02*
G01*
X1695000Y-570160D01*
X1705000Y-570160D01*
X1709000Y-561760D01*
G37*
G36*
X1711980Y-503060D02*
G01*
X1699259Y-515800D01*
X1708040Y-518900D01*
X1715100Y-511820D01*
G37*
G36*
X1539000Y-599260D02*
G01*
X1526260Y-611980D01*
X1535020Y-615100D01*
X1542100Y-608020D01*
G37*
G36*
X1487640Y-605580D02*
G01*
X1470140Y-609840D01*
X1475180Y-617260D01*
X1486560Y-614500D01*
G37*
G36*
X1426000Y-607940D02*
G01*
X1430000Y-616340D01*
X1440000Y-616340D01*
X1444000Y-607940D01*
G37*
G36*
X1711980Y-454240D02*
G01*
X1699240Y-466980D01*
X1708020Y-470080D01*
X1715080Y-463020D01*
G37*
G36*
X1711980Y-404240D02*
G01*
X1699240Y-416980D01*
X1708020Y-420080D01*
X1715080Y-413020D01*
G37*
G36*
X1711980Y-354240D02*
G01*
X1699240Y-366980D01*
X1708020Y-370080D01*
X1715080Y-363020D01*
G37*
G36*
X1711980Y-304240D02*
G01*
X1699240Y-316980D01*
X1708020Y-320080D01*
X1715080Y-313020D01*
G37*
G36*
X1711980Y-253060D02*
G01*
X1699259Y-265800D01*
X1708040Y-268900D01*
X1715100Y-261820D01*
G37*
G36*
X1711980Y-204240D02*
G01*
X1699240Y-216980D01*
X1708020Y-220080D01*
X1715080Y-213020D01*
G37*
G36*
X674860Y-626760D02*
G01*
X662099Y-636040D01*
X666620Y-649900D01*
X678340Y-637440D01*
G37*
G36*
X619380Y-681420D02*
G01*
X607680Y-693940D01*
X611140Y-704620D01*
X623880Y-695300D01*
G37*
G36*
X766620Y-681420D02*
G01*
X762099Y-695300D01*
X774840Y-704620D01*
X778319Y-693940D01*
G37*
G36*
X866620Y-681420D02*
G01*
X862099Y-695300D01*
X874840Y-704620D01*
X878319Y-693940D01*
G37*
G36*
X938000Y-612440D02*
G01*
X935699Y-627440D01*
X950300Y-627440D01*
X948000Y-612440D01*
G37*
D10*
X2950000Y-1500000D02*
G01*
X2900000Y-1450000D01*
X2830000Y-1450000D01*
X2530000Y-1150000D01*
X2130000Y-1150000D01*
X1705000Y-725000D01*
X1705000Y-675000D01*
X1670000Y-640000D01*
X1635000Y-640000D01*
X1585000Y-590000D01*
X1576999Y-590000D01*
X2850000Y-1400000D02*
G01*
X2580000Y-1130000D01*
X2140000Y-1130000D01*
X1725000Y-715000D01*
X1725000Y-670000D01*
X1675000Y-620000D01*
X1650000Y-620000D01*
X1626999Y-596999D01*
X1626999Y-590000D01*
X2950000Y-1400000D02*
G01*
X2900000Y-1350000D01*
X2830000Y-1350000D01*
X2590000Y-1110000D01*
X2150000Y-1110000D01*
X1745000Y-705000D01*
X1745000Y-665000D01*
X1670000Y-590000D01*
X1666999Y-590000D01*
X1060000Y-665000D02*
G01*
X1060000Y-555000D01*
X1435000Y-180000D01*
X1850000Y-180000D01*
X1900000Y-230000D01*
X2170000Y-510000D02*
G01*
X2300000Y-640000D01*
X2885000Y-640000D01*
X3011999Y-766999D01*
X1950000Y-630000D02*
G01*
X2050000Y-630000D01*
X2170000Y-510000D01*
X450000Y-1450000D02*
G01*
X450000Y-1200000D01*
X620000Y-1030000D01*
X925000Y-1030000D01*
X930000Y-1035000D01*
X410000Y-920000D02*
G01*
X410000Y-898699D01*
X643000Y-665700D01*
X747357Y-1380000D02*
G01*
X747357Y-1130000D01*
X772358Y-1105000D01*
X490000Y-1725000D02*
G01*
X410000Y-1645000D01*
X410000Y-920000D01*
X1255000Y-200000D02*
G01*
X885000Y-570000D01*
X738699Y-570000D01*
X643000Y-665700D01*
X1255000Y-250000D02*
G01*
X943000Y-561999D01*
X943000Y-665700D01*
X1501999Y-690000D02*
G01*
X1461999Y-730000D01*
X907299Y-730000D01*
X843000Y-665700D01*
X1551999Y-690000D02*
G01*
X1491999Y-750000D01*
X827299Y-750000D01*
X743000Y-665700D01*
X1385000Y-280000D02*
G01*
X1100000Y-565000D01*
X1100000Y-665000D01*
D11*
X1630000Y-1827755D02*
G01*
X1630000Y-1847755D01*
X1740000Y-1957755D01*
D10*
X1255000Y-450000D02*
G01*
X1140000Y-565000D01*
X1140000Y-665000D01*
X1255000Y-500000D02*
G01*
X1180000Y-575000D01*
X1180000Y-665000D01*
X540000Y-1310000D02*
G01*
X540000Y-1155000D01*
X630000Y-1065000D01*
X1090000Y-1065000D01*
X1385000Y-330000D02*
G01*
X1410000Y-355000D01*
X1410000Y-619000D01*
X1456000Y-665000D01*
X1560000Y-665000D01*
X1575000Y-680000D01*
X1575000Y-1105000D01*
X1660000Y-1190000D01*
X2850000Y-1300000D02*
G01*
X2640000Y-1090000D01*
X2160000Y-1090000D01*
X1765000Y-695000D01*
X1765000Y-655000D01*
X1700000Y-590000D01*
X1700000Y-553800D01*
X2950000Y-1300000D02*
G01*
X2900000Y-1250000D01*
X2830000Y-1250000D01*
X2650000Y-1070000D01*
X2170000Y-1070000D01*
X1785000Y-685000D01*
X1785000Y-645000D01*
X1730000Y-590000D01*
X1730000Y-533800D01*
X1700000Y-503800D01*
X2850000Y-1200000D02*
G01*
X2700000Y-1050000D01*
X2180000Y-1050000D01*
X1805000Y-675000D01*
X1805000Y-635000D01*
X1750000Y-580000D01*
X1750000Y-505000D01*
X1700000Y-455000D01*
X2950000Y-1200000D02*
G01*
X2900000Y-1150000D01*
X2830000Y-1150000D01*
X2710000Y-1030000D01*
X2190000Y-1030000D01*
X1825000Y-665000D01*
X1825000Y-625000D01*
X1770000Y-570000D01*
X1770000Y-475000D01*
X1700000Y-405000D01*
X2850000Y-1100000D02*
G01*
X2760000Y-1010000D01*
X2200000Y-1010000D01*
X1845000Y-655000D01*
X1845000Y-615000D01*
X1790000Y-560000D01*
X1790000Y-445000D01*
X1700000Y-355000D01*
X1700000Y-205000D02*
G01*
X1850000Y-355000D01*
X1850000Y-530000D01*
X1905000Y-585000D01*
X1905000Y-620000D01*
X2235000Y-950000D01*
X2900000Y-950000D01*
X2950000Y-1000000D01*
X2850000Y-1000000D02*
G01*
X2830000Y-1000000D01*
X2800000Y-970000D01*
X2222200Y-970000D01*
X1885000Y-632800D01*
X1885000Y-595000D01*
X1830000Y-540000D01*
X1830000Y-383800D01*
X1700000Y-253800D01*
X1700000Y-305000D02*
G01*
X1810000Y-415000D01*
X1810000Y-550000D01*
X1865000Y-605000D01*
X1865000Y-645000D01*
X2210000Y-990000D01*
X2770000Y-990000D01*
X2830000Y-1050000D01*
X2900000Y-1050000D01*
X2950000Y-1100000D01*
X1435000Y-600000D02*
G01*
X1435000Y-620000D01*
X1463900Y-648899D01*
X1568900Y-648899D01*
X1595000Y-675000D01*
X1595000Y-830000D01*
X1985000Y-1220000D01*
X2370000Y-1220000D01*
X2450000Y-1300000D01*
X2950000Y-1600000D02*
G01*
X2900000Y-1550000D01*
X2830000Y-1550000D01*
X2480000Y-1200000D01*
X1995000Y-1200000D01*
X1615000Y-820000D01*
X1615000Y-670000D01*
X1577799Y-632800D01*
X1497799Y-632800D01*
X1476999Y-611999D01*
X1476999Y-600000D01*
X2850000Y-1500000D02*
G01*
X2530000Y-1180000D01*
X2005000Y-1180000D01*
X1685000Y-860000D01*
X1685000Y-680000D01*
X1665000Y-660000D01*
X1630000Y-660000D01*
X1586700Y-616700D01*
X1543699Y-616700D01*
X1526999Y-600000D01*
D45*
G01*
X2950000Y-1000000D03*
G01*
X2950000Y-1100000D03*
G01*
X2950000Y-1200000D03*
G01*
X2950000Y-1300000D03*
G01*
X2950000Y-1400000D03*
G01*
X2950000Y-1500000D03*
G01*
X2950000Y-1600000D03*
G01*
X2850000Y-1600000D03*
G01*
X2850000Y-1500000D03*
G01*
X2850000Y-1400000D03*
G01*
X2850000Y-1300000D03*
G01*
X2850000Y-1200000D03*
G01*
X2850000Y-1100000D03*
G01*
X2850000Y-1000000D03*
G01*
X2850000Y-900000D03*
G01*
X2950000Y-900000D03*
G01*
X2850000Y-1700000D03*
D46*
G01*
X2091599Y-1850000D03*
G01*
X2288400Y-1850000D03*
G36*
X566619Y-681410D02*
G01*
X566439Y-684369D01*
X565880Y-687280D01*
X564969Y-690100D01*
X563699Y-692790D01*
X562109Y-695290D01*
X560219Y-697579D01*
X558060Y-699609D01*
X555659Y-701350D01*
X553060Y-702779D01*
X550300Y-703870D01*
X547429Y-704609D01*
X544490Y-704980D01*
X541520Y-704980D01*
X538580Y-704609D01*
X535700Y-703870D01*
X532939Y-702779D01*
X530340Y-701350D01*
X527939Y-699609D01*
X525779Y-697579D01*
X523890Y-695290D01*
X522300Y-692790D01*
X521039Y-690100D01*
X520120Y-687280D01*
X519569Y-684369D01*
X519380Y-681410D01*
X519380Y-649909D01*
X519569Y-646950D01*
X520120Y-644040D01*
X521039Y-641210D01*
X522300Y-638530D01*
X523890Y-636030D01*
X525779Y-633739D01*
X527939Y-631709D01*
X530340Y-629969D01*
X532939Y-628539D01*
X535700Y-627440D01*
X538580Y-626709D01*
X541520Y-626340D01*
X544490Y-626340D01*
X547429Y-626709D01*
X550300Y-627440D01*
X553060Y-628539D01*
X555659Y-629969D01*
X558060Y-631709D01*
X560219Y-633739D01*
X562109Y-636030D01*
X563699Y-638530D01*
X564969Y-641210D01*
X565880Y-644040D01*
X566439Y-646950D01*
X566619Y-649909D01*
G37*
G36*
X566619Y-1851089D02*
G01*
X566439Y-1854050D01*
X565880Y-1856959D01*
X564969Y-1859789D01*
X563699Y-1862469D01*
X562109Y-1864969D01*
X560219Y-1867260D01*
X558060Y-1869290D01*
X555659Y-1871030D01*
X553060Y-1872460D01*
X550300Y-1873560D01*
X547429Y-1874290D01*
X544490Y-1874659D01*
X541520Y-1874659D01*
X538580Y-1874290D01*
X535700Y-1873560D01*
X532939Y-1872460D01*
X530340Y-1871030D01*
X527939Y-1869290D01*
X525779Y-1867260D01*
X523890Y-1864969D01*
X522300Y-1862469D01*
X521039Y-1859789D01*
X520120Y-1856959D01*
X519569Y-1854050D01*
X519380Y-1851089D01*
X519380Y-1819589D01*
X519569Y-1816630D01*
X520120Y-1813719D01*
X521039Y-1810900D01*
X522300Y-1808209D01*
X523890Y-1805709D01*
X525779Y-1803420D01*
X527939Y-1801390D01*
X530340Y-1799650D01*
X532939Y-1798220D01*
X535700Y-1797130D01*
X538580Y-1796390D01*
X541520Y-1796019D01*
X544490Y-1796019D01*
X547429Y-1796390D01*
X550300Y-1797130D01*
X553060Y-1798220D01*
X555659Y-1799650D01*
X558060Y-1801390D01*
X560219Y-1803420D01*
X562109Y-1805709D01*
X563699Y-1808209D01*
X564969Y-1810900D01*
X565880Y-1813719D01*
X566439Y-1816630D01*
X566619Y-1819589D01*
G37*
G36*
X666619Y-681410D02*
G01*
X666439Y-684369D01*
X665880Y-687280D01*
X664960Y-690100D01*
X663699Y-692790D01*
X662109Y-695290D01*
X660219Y-697579D01*
X658060Y-699609D01*
X655659Y-701350D01*
X653060Y-702779D01*
X650300Y-703870D01*
X647429Y-704609D01*
X644479Y-704980D01*
X641520Y-704980D01*
X638580Y-704609D01*
X635700Y-703870D01*
X632939Y-702779D01*
X630340Y-701350D01*
X627939Y-699609D01*
X625779Y-697579D01*
X623890Y-695290D01*
X622300Y-692790D01*
X621039Y-690100D01*
X620120Y-687280D01*
X619569Y-684369D01*
X619380Y-681410D01*
X619380Y-649909D01*
X619569Y-646950D01*
X620120Y-644040D01*
X621039Y-641210D01*
X622300Y-638530D01*
X623890Y-636030D01*
X625779Y-633739D01*
X627939Y-631709D01*
X630340Y-629969D01*
X632939Y-628539D01*
X635700Y-627440D01*
X638580Y-626709D01*
X641520Y-626340D01*
X644479Y-626340D01*
X647429Y-626709D01*
X650300Y-627440D01*
X653060Y-628539D01*
X655659Y-629969D01*
X658060Y-631709D01*
X660219Y-633739D01*
X662109Y-636030D01*
X663699Y-638530D01*
X664960Y-641210D01*
X665880Y-644040D01*
X666439Y-646950D01*
X666619Y-649909D01*
G37*
G36*
X666619Y-1851089D02*
G01*
X666439Y-1854050D01*
X665880Y-1856959D01*
X664960Y-1859789D01*
X663699Y-1862469D01*
X662109Y-1864969D01*
X660219Y-1867260D01*
X658060Y-1869290D01*
X655659Y-1871030D01*
X653060Y-1872460D01*
X650300Y-1873560D01*
X647429Y-1874290D01*
X644479Y-1874659D01*
X641520Y-1874659D01*
X638580Y-1874290D01*
X635700Y-1873560D01*
X632939Y-1872460D01*
X630340Y-1871030D01*
X627939Y-1869290D01*
X625779Y-1867260D01*
X623890Y-1864969D01*
X622300Y-1862469D01*
X621039Y-1859789D01*
X620120Y-1856959D01*
X619569Y-1854050D01*
X619380Y-1851089D01*
X619380Y-1819589D01*
X619569Y-1816630D01*
X620120Y-1813719D01*
X621039Y-1810900D01*
X622300Y-1808209D01*
X623890Y-1805709D01*
X625779Y-1803420D01*
X627939Y-1801390D01*
X630340Y-1799650D01*
X632939Y-1798220D01*
X635700Y-1797130D01*
X638580Y-1796390D01*
X641520Y-1796019D01*
X644479Y-1796019D01*
X647429Y-1796390D01*
X650300Y-1797130D01*
X653060Y-1798220D01*
X655659Y-1799650D01*
X658060Y-1801390D01*
X660219Y-1803420D01*
X662109Y-1805709D01*
X663699Y-1808209D01*
X664960Y-1810900D01*
X665880Y-1813719D01*
X666439Y-1816630D01*
X666619Y-1819589D01*
G37*
G36*
X766620Y-681410D02*
G01*
X766440Y-684369D01*
X765879Y-687280D01*
X764960Y-690100D01*
X763699Y-692790D01*
X762110Y-695290D01*
X760219Y-697579D01*
X758060Y-699609D01*
X755659Y-701350D01*
X753060Y-702779D01*
X750300Y-703870D01*
X747429Y-704609D01*
X744479Y-704980D01*
X741520Y-704980D01*
X738580Y-704609D01*
X735700Y-703870D01*
X732939Y-702779D01*
X730340Y-701350D01*
X727939Y-699609D01*
X725779Y-697579D01*
X723890Y-695290D01*
X722300Y-692790D01*
X721039Y-690100D01*
X720120Y-687280D01*
X719569Y-684369D01*
X719380Y-681410D01*
X719380Y-649909D01*
X719569Y-646950D01*
X720120Y-644040D01*
X721039Y-641210D01*
X722300Y-638530D01*
X723890Y-636030D01*
X725779Y-633739D01*
X727939Y-631709D01*
X730340Y-629969D01*
X732939Y-628539D01*
X735700Y-627440D01*
X738580Y-626709D01*
X741520Y-626340D01*
X744479Y-626340D01*
X747429Y-626709D01*
X750300Y-627440D01*
X753060Y-628539D01*
X755659Y-629969D01*
X758060Y-631709D01*
X760219Y-633739D01*
X762110Y-636030D01*
X763699Y-638530D01*
X764960Y-641210D01*
X765879Y-644040D01*
X766440Y-646950D01*
X766620Y-649909D01*
G37*
G36*
X766620Y-1851089D02*
G01*
X766440Y-1854050D01*
X765879Y-1856959D01*
X764960Y-1859789D01*
X763699Y-1862469D01*
X762110Y-1864969D01*
X760219Y-1867260D01*
X758060Y-1869290D01*
X755659Y-1871030D01*
X753060Y-1872460D01*
X750300Y-1873560D01*
X747429Y-1874290D01*
X744479Y-1874659D01*
X741520Y-1874659D01*
X738580Y-1874290D01*
X735700Y-1873560D01*
X732939Y-1872460D01*
X730340Y-1871030D01*
X727939Y-1869290D01*
X725779Y-1867260D01*
X723890Y-1864969D01*
X722300Y-1862469D01*
X721039Y-1859789D01*
X720120Y-1856959D01*
X719569Y-1854050D01*
X719380Y-1851089D01*
X719380Y-1819589D01*
X719569Y-1816630D01*
X720120Y-1813719D01*
X721039Y-1810900D01*
X722300Y-1808209D01*
X723890Y-1805709D01*
X725779Y-1803420D01*
X727939Y-1801390D01*
X730340Y-1799650D01*
X732939Y-1798220D01*
X735700Y-1797130D01*
X738580Y-1796390D01*
X741520Y-1796019D01*
X744479Y-1796019D01*
X747429Y-1796390D01*
X750300Y-1797130D01*
X753060Y-1798220D01*
X755659Y-1799650D01*
X758060Y-1801390D01*
X760219Y-1803420D01*
X762110Y-1805709D01*
X763699Y-1808209D01*
X764960Y-1810900D01*
X765879Y-1813719D01*
X766440Y-1816630D01*
X766620Y-1819589D01*
G37*
G36*
X866620Y-681410D02*
G01*
X866440Y-684369D01*
X865879Y-687280D01*
X864960Y-690100D01*
X863699Y-692790D01*
X862110Y-695290D01*
X860219Y-697579D01*
X858059Y-699609D01*
X855659Y-701350D01*
X853059Y-702779D01*
X850299Y-703870D01*
X847430Y-704609D01*
X844480Y-704980D01*
X841520Y-704980D01*
X838569Y-704609D01*
X835699Y-703870D01*
X832939Y-702779D01*
X830339Y-701350D01*
X827939Y-699609D01*
X825780Y-697579D01*
X823890Y-695290D01*
X822299Y-692790D01*
X821040Y-690100D01*
X820119Y-687280D01*
X819570Y-684369D01*
X819380Y-681410D01*
X819380Y-649909D01*
X819570Y-646950D01*
X820119Y-644040D01*
X821040Y-641210D01*
X822299Y-638530D01*
X823890Y-636030D01*
X825780Y-633739D01*
X827939Y-631709D01*
X830339Y-629969D01*
X832939Y-628539D01*
X835699Y-627440D01*
X838569Y-626709D01*
X841520Y-626340D01*
X844480Y-626340D01*
X847430Y-626709D01*
X850299Y-627440D01*
X853059Y-628539D01*
X855659Y-629969D01*
X858059Y-631709D01*
X860219Y-633739D01*
X862110Y-636030D01*
X863699Y-638530D01*
X864960Y-641210D01*
X865879Y-644040D01*
X866440Y-646950D01*
X866620Y-649909D01*
G37*
G36*
X866620Y-1851089D02*
G01*
X866440Y-1854050D01*
X865879Y-1856959D01*
X864960Y-1859789D01*
X863699Y-1862469D01*
X862110Y-1864969D01*
X860219Y-1867260D01*
X858059Y-1869290D01*
X855659Y-1871030D01*
X853059Y-1872460D01*
X850299Y-1873560D01*
X847430Y-1874290D01*
X844480Y-1874659D01*
X841520Y-1874659D01*
X838569Y-1874290D01*
X835699Y-1873560D01*
X832939Y-1872460D01*
X830339Y-1871030D01*
X827939Y-1869290D01*
X825780Y-1867260D01*
X823890Y-1864969D01*
X822299Y-1862469D01*
X821040Y-1859789D01*
X820119Y-1856959D01*
X819570Y-1854050D01*
X819380Y-1851089D01*
X819380Y-1819589D01*
X819570Y-1816630D01*
X820119Y-1813719D01*
X821040Y-1810900D01*
X822299Y-1808209D01*
X823890Y-1805709D01*
X825780Y-1803420D01*
X827939Y-1801390D01*
X830339Y-1799650D01*
X832939Y-1798220D01*
X835699Y-1797130D01*
X838569Y-1796390D01*
X841520Y-1796019D01*
X844480Y-1796019D01*
X847430Y-1796390D01*
X850299Y-1797130D01*
X853059Y-1798220D01*
X855659Y-1799650D01*
X858059Y-1801390D01*
X860219Y-1803420D01*
X862110Y-1805709D01*
X863699Y-1808209D01*
X864960Y-1810900D01*
X865879Y-1813719D01*
X866440Y-1816630D01*
X866620Y-1819589D01*
G37*
G36*
X966620Y-681410D02*
G01*
X966440Y-684369D01*
X965879Y-687280D01*
X964960Y-690100D01*
X963699Y-692790D01*
X962110Y-695290D01*
X960219Y-697579D01*
X958059Y-699609D01*
X955659Y-701350D01*
X953059Y-702779D01*
X950299Y-703870D01*
X947430Y-704609D01*
X944480Y-704980D01*
X941520Y-704980D01*
X938569Y-704609D01*
X935699Y-703870D01*
X932939Y-702779D01*
X930339Y-701350D01*
X927939Y-699609D01*
X925780Y-697579D01*
X923890Y-695290D01*
X922299Y-692790D01*
X921040Y-690100D01*
X920119Y-687280D01*
X919570Y-684369D01*
X919380Y-681410D01*
X919380Y-649909D01*
X919570Y-646950D01*
X920119Y-644040D01*
X921040Y-641210D01*
X922299Y-638530D01*
X923890Y-636030D01*
X925780Y-633739D01*
X927939Y-631709D01*
X930339Y-629969D01*
X932939Y-628539D01*
X935699Y-627440D01*
X938569Y-626709D01*
X941520Y-626340D01*
X944480Y-626340D01*
X947430Y-626709D01*
X950299Y-627440D01*
X953059Y-628539D01*
X955659Y-629969D01*
X958059Y-631709D01*
X960219Y-633739D01*
X962110Y-636030D01*
X963699Y-638530D01*
X964960Y-641210D01*
X965879Y-644040D01*
X966440Y-646950D01*
X966620Y-649909D01*
G37*
D47*
G01*
X190000Y-1202829D03*
D48*
G01*
X190000Y-1557170D03*
D49*
G01*
X1360000Y-1502130D03*
G01*
X1360000Y-1423389D03*
D50*
G01*
X2550000Y-1400000D03*
G01*
X2450000Y-1300000D03*
G01*
X2350000Y-1400000D03*
D17*
G01*
X3011999Y-766999D03*
G01*
X2143000Y-1580000D03*
G01*
X1940000Y-550000D03*
G01*
X1090000Y-1065000D03*
G01*
X1180000Y-665000D03*
G01*
X1140000Y-665000D03*
G01*
X1255000Y-500000D03*
G01*
X1060000Y-665000D03*
G01*
X1100000Y-665000D03*
G01*
X1385000Y-280000D03*
D18*
G01*
X2565000Y-1605000D03*
G01*
X585000Y-405000D03*
D17*
G01*
X1476999Y-995000D03*
G01*
X1376999Y-995000D03*
G01*
X837359Y-1215000D03*
G01*
X747359Y-1380000D03*
G01*
X772359Y-1105000D03*
G01*
X822359Y-1115000D03*
G01*
X892359Y-1215000D03*
G01*
X1012359Y-1310000D03*
D19*
G01*
X1017359Y-1380000D03*
D17*
G01*
X702359Y-1000000D03*
G01*
X527359Y-1070000D03*
G01*
X587359Y-850000D03*
G01*
X782359Y-780000D03*
D19*
G01*
X807359Y-1350000D03*
D17*
G01*
X837359Y-965000D03*
D19*
G01*
X1815000Y-1120000D03*
D17*
G01*
X1990000Y-1587759D03*
G01*
X2570029Y-340000D03*
D19*
G01*
X2525029Y-310000D03*
G01*
X2525029Y-450000D03*
D17*
G01*
X1740000Y-1957759D03*
G01*
X1630000Y-1827759D03*
G01*
X1700000Y-1757759D03*
D20*
G01*
X1651999Y-695000D03*
G01*
X1651999Y-810000D03*
G01*
X2320000Y-445000D03*
G01*
X2320000Y-395000D03*
D19*
G01*
X910000Y-210000D03*
D17*
G01*
X1900000Y-230000D03*
G01*
X1950000Y-630000D03*
G01*
X2170000Y-510000D03*
G01*
X1501999Y-690000D03*
G01*
X1551999Y-690000D03*
G01*
X1255000Y-450000D03*
G01*
X1002359Y-1215000D03*
G01*
X930000Y-1030000D03*
G01*
X540000Y-1310000D03*
G01*
X1255000Y-250000D03*
G01*
X1385000Y-330000D03*
G01*
X1660000Y-1190000D03*
G01*
X1705000Y-1110000D03*
G01*
X1255000Y-200000D03*
G01*
X490000Y-1725000D03*
G01*
X410000Y-920000D03*
G01*
X410000Y-795000D03*
G01*
X450000Y-1450000D03*
G01*
X585000Y-1160000D03*
G01*
X1385000Y-375000D03*
G01*
X700000Y-1160000D03*
G01*
X3065000Y-335000D03*
G01*
X2950000Y-335000D03*
G01*
X2805000Y-200000D03*
G01*
X3050000Y-1600000D03*
G01*
X2750000Y-1950000D03*
G01*
X3050000Y-1250000D03*
G01*
X2450000Y-1950000D03*
G01*
X2400000Y-1600000D03*
G01*
X800000Y-450000D03*
G01*
X100000Y-700000D03*
G01*
X100000Y-400000D03*
G01*
X100000Y-1000000D03*
G01*
X1350000Y-1950000D03*
G01*
X1050000Y-1950000D03*
G01*
X400000Y-1950000D03*
G01*
X750000Y-1950000D03*
G01*
X350000Y-400000D03*
G01*
X500000Y-200000D03*
G01*
X2800000Y-500000D03*
G01*
X1050000Y-1600000D03*
D19*
G01*
X2525029Y-845000D03*
G01*
X2525029Y-705000D03*
D17*
G01*
X2570029Y-735000D03*
G01*
X1667020Y-590000D03*
G01*
X1577020Y-590000D03*
G01*
X1627020Y-590000D03*
G01*
X1700000Y-553820D03*
G01*
X1700000Y-503820D03*
G01*
X1527020Y-600000D03*
G01*
X1477020Y-600000D03*
G01*
X1435000Y-600000D03*
G01*
X1700000Y-455000D03*
G01*
X1700000Y-405000D03*
G01*
X1700000Y-355000D03*
G01*
X1700000Y-305000D03*
G01*
X1700000Y-253820D03*
G01*
X1700000Y-205000D03*
G01*
X2400000Y-800000D03*
G01*
X1740000Y-835000D03*
G01*
X1835000Y-930000D03*
G01*
X1940000Y-1030000D03*
G01*
X1600000Y-505000D03*
G01*
X1455000Y-275000D03*
G01*
X2785000Y-1470000D03*
G01*
X2785000Y-1370000D03*
G01*
X2785000Y-1270000D03*
G01*
X2785000Y-1170000D03*
G01*
X2785000Y-1070000D03*
G01*
X2690000Y-1075000D03*
G01*
X2630000Y-1115000D03*
G01*
X2570000Y-1155000D03*
G01*
X2520000Y-1205999D03*
G01*
X2215000Y-890000D03*
G01*
X2210000Y-1245000D03*
G01*
X2430000Y-1230000D03*
G01*
X2400000Y-205000D03*
G01*
X2025000Y-1120000D03*
G01*
X2025000Y-1148000D03*
G01*
X2053000Y-1134000D03*
G01*
X2053000Y-1105999D03*
G01*
X2025000Y-1091999D03*
G01*
X1835000Y-1590000D03*
G01*
X1865000Y-1590000D03*
G01*
X1865000Y-1620000D03*
G01*
X1835000Y-1620000D03*
G01*
X1835000Y-1650000D03*
G01*
X1865000Y-1650000D03*
G01*
X1998000Y-1105999D03*
G01*
X1998000Y-1134000D03*
G01*
X1665000Y-1685000D03*
G01*
X1665000Y-1712800D03*
G01*
X1665000Y-1740000D03*
G01*
X1691999Y-1713000D03*
D51*
X2327799Y-1941729D02*
G01*
X2327799Y-1969292D01*
X2052200Y-1941718D02*
G01*
X2052200Y-1969281D01*
M02*
