G04 Layer: TopPasteMaskLayer*
G04 EasyEDA v6.4.19.5, 2021-05-22T15:38:53+02:00*
G04 3629cfa7d52e4947b918c6b19203bcd8,b771c775d4444e86a06a5321f8c966cb,10*
G04 Gerber Generator version 0.2*
G04 Scale: 100 percent, Rotated: No, Reflected: No *
G04 Dimensions in inches *
G04 leading zeros omitted , absolute positions ,3 integer and 6 decimal *
%FSLAX36Y36*%
%MOIN*%

%ADD21R,0.0610X0.0236*%
%ADD23R,0.0512X0.0472*%
%ADD24R,0.0315X0.0315*%
%ADD25R,0.0551X0.0394*%
%ADD26R,0.0394X0.0551*%
%ADD27R,0.0217X0.0394*%
%ADD28R,0.0394X0.0217*%
%ADD31R,0.0906X0.0295*%
%ADD32R,0.0315X0.0197*%
%ADD33R,0.0394X0.0709*%
%ADD34R,0.0787X0.0709*%
%ADD35R,0.0866X0.0591*%
%ADD36R,0.0220X0.0520*%
%ADD37R,0.0197X0.0315*%
%ADD38R,0.0709X0.0472*%
%ADD39R,0.0433X0.0236*%
%ADD40R,0.0315X0.0354*%
%ADD41R,0.0315X0.0472*%
%ADD43R,0.0787X0.0315*%
%ADD44R,0.0315X0.0787*%

%LPD*%
D21*
G01*
X2629729Y-735630D03*
G36*
X3031992Y-621260D02*
G01*
X3079236Y-621260D01*
X3079236Y-644881D01*
X3031992Y-644881D01*
G37*
G36*
X3031992Y-755118D02*
G01*
X3079236Y-755118D01*
X3079236Y-778739D01*
X3031992Y-778739D01*
G37*
D23*
G01*
X3132380Y-617319D03*
G01*
X3132380Y-782680D03*
G36*
X3031992Y-376260D02*
G01*
X3079236Y-376260D01*
X3079236Y-399881D01*
X3031992Y-399881D01*
G37*
G36*
X3031992Y-510118D02*
G01*
X3079236Y-510118D01*
X3079236Y-533739D01*
X3031992Y-533739D01*
G37*
G01*
X3132380Y-372319D03*
G01*
X3132380Y-537680D03*
D24*
G01*
X1848500Y-1957750D03*
G01*
X1781499Y-1957750D03*
G01*
X1153500Y-210000D03*
G01*
X1086499Y-210000D03*
G01*
X666500Y-210000D03*
G01*
X733499Y-210000D03*
D25*
G01*
X1619239Y-1550349D03*
G01*
X1524750Y-1587750D03*
G01*
X1619239Y-1625149D03*
G36*
X1535196Y-1420471D02*
G01*
X1590315Y-1420471D01*
X1590315Y-1459841D01*
X1535196Y-1459841D01*
G37*
G36*
X1629687Y-1383072D02*
G01*
X1684804Y-1383072D01*
X1684804Y-1422441D01*
X1629687Y-1422441D01*
G37*
G36*
X1535196Y-1345671D02*
G01*
X1590315Y-1345671D01*
X1590315Y-1385041D01*
X1535196Y-1385041D01*
G37*
G01*
X769600Y-817600D03*
G01*
X675109Y-855000D03*
G01*
X769600Y-892399D03*
D26*
G01*
X527399Y-1497240D03*
G01*
X490000Y-1402750D03*
G01*
X452600Y-1497240D03*
D25*
G01*
X582240Y-1272600D03*
G01*
X487750Y-1310000D03*
G01*
X582240Y-1347399D03*
D27*
G01*
X1632399Y-1893939D03*
G01*
X1557600Y-1893939D03*
G01*
X1557600Y-1791570D03*
G01*
X1595000Y-1791570D03*
G01*
X1632399Y-1791570D03*
D28*
G01*
X2021180Y-1515360D03*
G01*
X2021180Y-1590160D03*
G01*
X1918819Y-1590160D03*
G01*
X1918819Y-1552750D03*
G01*
X1918819Y-1515360D03*
G36*
X2121100Y-1915344D02*
G01*
X2180156Y-1915344D01*
X2180156Y-1990147D01*
X2121100Y-1990147D01*
G37*
G36*
X2233299Y-1824400D02*
G01*
X2249099Y-1824400D01*
X2249099Y-1875599D01*
X2233299Y-1875599D01*
G37*
G36*
X2207700Y-1824400D02*
G01*
X2223500Y-1824400D01*
X2223500Y-1875599D01*
X2207700Y-1875599D01*
G37*
G36*
X2182129Y-1824409D02*
G01*
X2197870Y-1824409D01*
X2197870Y-1875590D01*
X2182129Y-1875590D01*
G37*
G36*
X2156499Y-1824400D02*
G01*
X2172299Y-1824400D01*
X2172299Y-1875599D01*
X2156499Y-1875599D01*
G37*
G36*
X2131000Y-1824400D02*
G01*
X2146700Y-1824400D01*
X2146700Y-1875599D01*
X2131000Y-1875599D01*
G37*
G36*
X2199843Y-1915353D02*
G01*
X2258897Y-1915353D01*
X2258897Y-1990156D01*
X2199843Y-1990156D01*
G37*
D31*
G01*
X2245039Y-445000D03*
G01*
X2087579Y-445000D03*
G01*
X2245039Y-395000D03*
G01*
X2087579Y-395000D03*
G01*
X2245039Y-345000D03*
G01*
X2087579Y-345000D03*
G01*
X2245039Y-295000D03*
G01*
X2087579Y-295000D03*
G01*
X2245039Y-245000D03*
G01*
X2087579Y-245000D03*
D32*
G01*
X2205000Y-1658069D03*
G01*
X2205000Y-1697440D03*
G01*
X2150000Y-1658069D03*
G01*
X2150000Y-1697440D03*
D33*
G01*
X1377790Y-835000D03*
G01*
X1476210Y-835000D03*
D32*
G01*
X1935000Y-1713069D03*
G01*
X1935000Y-1752440D03*
G01*
X1705000Y-1150309D03*
G01*
X1705000Y-1189679D03*
G01*
X1705000Y-1235309D03*
G01*
X1705000Y-1274679D03*
G01*
X1505209Y-1422440D03*
G01*
X1505209Y-1383069D03*
D34*
G01*
X1755000Y-1660439D03*
G01*
X1755000Y-1495070D03*
D32*
G01*
X1850000Y-1552440D03*
G01*
X1850000Y-1513069D03*
D35*
G01*
X2025000Y-1408270D03*
G01*
X2025000Y-1191729D03*
D32*
G01*
X1700000Y-1832440D03*
G01*
X1700000Y-1793069D03*
G01*
X1476999Y-954679D03*
G01*
X1476999Y-915309D03*
G01*
X1376999Y-954679D03*
G01*
X1376999Y-915309D03*
D36*
G01*
X738760Y-1113499D03*
G01*
X701359Y-1113499D03*
G01*
X663960Y-1113499D03*
G01*
X663960Y-1215500D03*
G01*
X738760Y-1215500D03*
D32*
G01*
X587359Y-929690D03*
G01*
X587359Y-890320D03*
G01*
X587359Y-1024690D03*
G01*
X587359Y-985320D03*
G01*
X587359Y-1114690D03*
G01*
X587359Y-1075320D03*
G36*
X481359Y-1111399D02*
G01*
X481359Y-1089400D01*
X532359Y-1089400D01*
X532359Y-1111399D01*
G37*
G36*
X481359Y-1036599D02*
G01*
X481359Y-1014600D01*
X532359Y-1014600D01*
X532359Y-1036599D01*
G37*
G36*
X400359Y-1074000D02*
G01*
X400359Y-1051999D01*
X451359Y-1051999D01*
X451359Y-1074000D01*
G37*
D37*
G01*
X717669Y-1285000D03*
G01*
X757040Y-1285000D03*
G01*
X957039Y-1410000D03*
G01*
X917669Y-1410000D03*
D32*
G01*
X410000Y-835309D03*
G01*
X410000Y-874679D03*
G36*
X499843Y-1544252D02*
G01*
X519528Y-1544252D01*
X519528Y-1575747D01*
X499843Y-1575747D01*
G37*
G36*
X460473Y-1544252D02*
G01*
X480158Y-1544252D01*
X480158Y-1575747D01*
X460473Y-1575747D01*
G37*
G01*
X837359Y-890309D03*
G01*
X837359Y-929679D03*
G01*
X662359Y-1329690D03*
G01*
X662359Y-1290320D03*
D37*
G01*
X927669Y-1215000D03*
G01*
X967039Y-1215000D03*
D32*
G01*
X807359Y-1150320D03*
G01*
X807359Y-1189690D03*
G36*
X999843Y-194252D02*
G01*
X1019528Y-194252D01*
X1019528Y-225747D01*
X999843Y-225747D01*
G37*
G36*
X960473Y-194252D02*
G01*
X980158Y-194252D01*
X980158Y-225747D01*
X960473Y-225747D01*
G37*
D37*
G01*
X810309Y-210000D03*
G01*
X849679Y-210000D03*
D32*
G01*
X957359Y-999690D03*
G01*
X957359Y-960320D03*
D37*
G01*
X717669Y-1335000D03*
G01*
X757040Y-1335000D03*
G01*
X907669Y-890000D03*
G01*
X947039Y-890000D03*
D38*
G01*
X2530320Y-250079D03*
G01*
X2530320Y-509920D03*
D21*
G01*
X2629729Y-458739D03*
G01*
X2629729Y-419369D03*
G01*
X2629729Y-380000D03*
G01*
X2629729Y-340630D03*
G01*
X2629729Y-301260D03*
G36*
X652836Y-1029254D02*
G01*
X672521Y-1029254D01*
X672521Y-1060751D01*
X652836Y-1060751D01*
G37*
G36*
X692206Y-1029254D02*
G01*
X711891Y-1029254D01*
X711891Y-1060751D01*
X692206Y-1060751D01*
G37*
D39*
G01*
X967479Y-1346999D03*
G01*
X967479Y-1310000D03*
G01*
X967479Y-1273000D03*
G01*
X857240Y-1273000D03*
G01*
X857240Y-1310000D03*
G01*
X857240Y-1346999D03*
G36*
X468227Y-1606188D02*
G01*
X511534Y-1606188D01*
X511534Y-1629810D01*
X468227Y-1629810D01*
G37*
G36*
X468227Y-1643189D02*
G01*
X511534Y-1643189D01*
X511534Y-1666810D01*
X468227Y-1666810D01*
G37*
G36*
X468227Y-1680189D02*
G01*
X511534Y-1680189D01*
X511534Y-1703811D01*
X468227Y-1703811D01*
G37*
G36*
X578465Y-1680189D02*
G01*
X621772Y-1680189D01*
X621772Y-1703811D01*
X578465Y-1703811D01*
G37*
G36*
X578465Y-1643189D02*
G01*
X621772Y-1643189D01*
X621772Y-1666810D01*
X578465Y-1666810D01*
G37*
G36*
X578465Y-1606188D02*
G01*
X621772Y-1606188D01*
X621772Y-1629810D01*
X578465Y-1629810D01*
G37*
G36*
X1799843Y-1832006D02*
G01*
X1819528Y-1832006D01*
X1819528Y-1863503D01*
X1799843Y-1863503D01*
G37*
G36*
X1760473Y-1832006D02*
G01*
X1780158Y-1832006D01*
X1780158Y-1863503D01*
X1760473Y-1863503D01*
G37*
D40*
G01*
X1607560Y-1712750D03*
G01*
X1552439Y-1712750D03*
G36*
X1861692Y-1102283D02*
G01*
X1893189Y-1102283D01*
X1893189Y-1137716D01*
X1861692Y-1137716D01*
G37*
G36*
X1916810Y-1102283D02*
G01*
X1948307Y-1102283D01*
X1948307Y-1137716D01*
X1916810Y-1137716D01*
G37*
D41*
G01*
X1677020Y-640630D03*
G01*
X1627020Y-640630D03*
G01*
X1577020Y-640630D03*
G01*
X1527020Y-640630D03*
G01*
X1477020Y-640630D03*
G01*
X1427020Y-640630D03*
G01*
X1727010Y-640630D03*
G36*
X1718734Y-438069D02*
G01*
X1765974Y-438069D01*
X1765974Y-469570D01*
X1718734Y-469570D01*
G37*
G36*
X1718734Y-388069D02*
G01*
X1765974Y-388069D01*
X1765974Y-419570D01*
X1718734Y-419570D01*
G37*
G36*
X1718734Y-338069D02*
G01*
X1765974Y-338069D01*
X1765974Y-369570D01*
X1718734Y-369570D01*
G37*
G36*
X1718734Y-288069D02*
G01*
X1765974Y-288069D01*
X1765974Y-319570D01*
X1718734Y-319570D01*
G37*
G36*
X1718734Y-238069D02*
G01*
X1765974Y-238069D01*
X1765974Y-269570D01*
X1718734Y-269570D01*
G37*
G36*
X1718734Y-188069D02*
G01*
X1765974Y-188069D01*
X1765974Y-219569D01*
X1718734Y-219569D01*
G37*
G36*
X1718734Y-488069D02*
G01*
X1765974Y-488069D01*
X1765974Y-519570D01*
X1718734Y-519570D01*
G37*
G36*
X1718734Y-538069D02*
G01*
X1765974Y-538069D01*
X1765974Y-569570D01*
X1718734Y-569570D01*
G37*
G36*
X1281715Y-563069D02*
G01*
X1360455Y-563069D01*
X1360455Y-594569D01*
X1281715Y-594569D01*
G37*
G36*
X1281724Y-613069D02*
G01*
X1360465Y-613069D01*
X1360465Y-644570D01*
X1281724Y-644570D01*
G37*
G36*
X1281724Y-513069D02*
G01*
X1360465Y-513069D01*
X1360465Y-544570D01*
X1281724Y-544570D01*
G37*
G36*
X1281724Y-463069D02*
G01*
X1360465Y-463069D01*
X1360465Y-494570D01*
X1281724Y-494570D01*
G37*
G36*
X1281724Y-413069D02*
G01*
X1360465Y-413069D01*
X1360465Y-444570D01*
X1281724Y-444570D01*
G37*
G36*
X1281724Y-363069D02*
G01*
X1360465Y-363069D01*
X1360465Y-394570D01*
X1281724Y-394570D01*
G37*
G36*
X1281724Y-313069D02*
G01*
X1360465Y-313069D01*
X1360465Y-344570D01*
X1281724Y-344570D01*
G37*
G36*
X1281724Y-263069D02*
G01*
X1360465Y-263069D01*
X1360465Y-294570D01*
X1281724Y-294570D01*
G37*
G36*
X1281724Y-213069D02*
G01*
X1360465Y-213069D01*
X1360465Y-244570D01*
X1281724Y-244570D01*
G37*
G36*
X1281724Y-163069D02*
G01*
X1360465Y-163069D01*
X1360465Y-194570D01*
X1281724Y-194570D01*
G37*
D43*
G01*
X1832920Y-228820D03*
G01*
X1832910Y-178820D03*
G01*
X1832910Y-278820D03*
G01*
X1832910Y-328820D03*
G01*
X1832910Y-378820D03*
G01*
X1832910Y-428820D03*
G01*
X1832910Y-478820D03*
G01*
X1832910Y-528820D03*
G01*
X1832910Y-578820D03*
G01*
X1832910Y-628820D03*
D44*
G01*
X1402010Y-731179D03*
G01*
X1452010Y-731179D03*
G01*
X1502010Y-731179D03*
G01*
X1552010Y-731179D03*
G01*
X1602010Y-731179D03*
G01*
X1652010Y-731179D03*
G01*
X1702010Y-731179D03*
G01*
X1752010Y-731179D03*
D38*
G01*
X2530320Y-645079D03*
G01*
X2530320Y-904920D03*
D21*
G01*
X2629729Y-853739D03*
G01*
X2629729Y-814369D03*
G01*
X2629729Y-775000D03*
G01*
X2629729Y-735630D03*
G01*
X2629729Y-696260D03*
M02*
