G04 Layer: TopSilkLayer*
G04 EasyEDA v6.4.19.5, 2021-05-22T15:38:53+02:00*
G04 3629cfa7d52e4947b918c6b19203bcd8,b771c775d4444e86a06a5321f8c966cb,10*
G04 Gerber Generator version 0.2*
G04 Scale: 100 percent, Rotated: No, Reflected: No *
G04 Dimensions in inches *
G04 leading zeros omitted , absolute positions ,3 integer and 6 decimal *
%FSLAX36Y36*%
%MOIN*%

%ADD10C,0.0100*%
%ADD52C,0.0080*%
%ADD53C,0.0059*%
%ADD54C,0.0050*%
%ADD55C,0.0059*%
%ADD56C,0.0060*%
%ADD57C,0.0197*%
%ADD58C,0.0070*%

%LPD*%
D56*
X3007299Y-1179600D02*
G01*
X3001099Y-1181599D01*
X2996999Y-1187800D01*
X2995000Y-1198000D01*
X2995000Y-1204099D01*
X2996999Y-1214400D01*
X3001099Y-1220500D01*
X3007299Y-1222500D01*
X3011400Y-1222500D01*
X3017500Y-1220500D01*
X3021599Y-1214400D01*
X3023599Y-1204099D01*
X3023599Y-1198000D01*
X3021599Y-1187800D01*
X3017500Y-1181599D01*
X3011400Y-1179600D01*
X3007299Y-1179600D01*
X3039200Y-1212300D02*
G01*
X3037100Y-1214400D01*
X3039200Y-1216399D01*
X3041199Y-1214400D01*
X3039200Y-1212300D01*
X3056800Y-1189800D02*
G01*
X3056800Y-1187800D01*
X3058800Y-1183699D01*
X3060900Y-1181599D01*
X3065000Y-1179600D01*
X3073100Y-1179600D01*
X3077200Y-1181599D01*
X3079300Y-1183699D01*
X3081300Y-1187800D01*
X3081300Y-1191900D01*
X3079300Y-1195999D01*
X3075200Y-1202100D01*
X3054700Y-1222500D01*
X3083400Y-1222500D01*
X3098900Y-1189800D02*
G01*
X3098900Y-1187800D01*
X3101000Y-1183699D01*
X3103000Y-1181599D01*
X3107100Y-1179600D01*
X3115299Y-1179600D01*
X3119399Y-1181599D01*
X3121400Y-1183699D01*
X3123500Y-1187800D01*
X3123500Y-1191900D01*
X3121400Y-1195999D01*
X3117299Y-1202100D01*
X3096899Y-1222500D01*
X3125500Y-1222500D01*
X2995000Y-1087800D02*
G01*
X2999099Y-1085700D01*
X3005200Y-1079600D01*
X3005200Y-1122500D01*
X3020799Y-1112300D02*
G01*
X3018699Y-1114400D01*
X3020799Y-1116399D01*
X3022799Y-1114400D01*
X3020799Y-1112300D01*
X3048599Y-1079600D02*
G01*
X3042500Y-1081599D01*
X3038400Y-1087800D01*
X3036300Y-1098000D01*
X3036300Y-1104099D01*
X3038400Y-1114400D01*
X3042500Y-1120500D01*
X3048599Y-1122500D01*
X3052700Y-1122500D01*
X3058800Y-1120500D01*
X3062899Y-1114400D01*
X3065000Y-1104099D01*
X3065000Y-1098000D01*
X3062899Y-1087800D01*
X3058800Y-1081599D01*
X3052700Y-1079600D01*
X3048599Y-1079600D01*
X3080500Y-1089800D02*
G01*
X3080500Y-1087800D01*
X3082500Y-1083699D01*
X3084600Y-1081599D01*
X3088699Y-1079600D01*
X3096899Y-1079600D01*
X3101000Y-1081599D01*
X3103000Y-1083699D01*
X3105000Y-1087800D01*
X3105000Y-1091900D01*
X3103000Y-1095999D01*
X3098900Y-1102100D01*
X3078500Y-1122500D01*
X3107100Y-1122500D01*
X3007299Y-1279600D02*
G01*
X3001099Y-1281599D01*
X2996999Y-1287800D01*
X2995000Y-1298000D01*
X2995000Y-1304099D01*
X2996999Y-1314400D01*
X3001099Y-1320500D01*
X3007299Y-1322500D01*
X3011400Y-1322500D01*
X3017500Y-1320500D01*
X3021599Y-1314400D01*
X3023599Y-1304099D01*
X3023599Y-1298000D01*
X3021599Y-1287800D01*
X3017500Y-1281599D01*
X3011400Y-1279600D01*
X3007299Y-1279600D01*
X3039200Y-1312300D02*
G01*
X3037100Y-1314400D01*
X3039200Y-1316399D01*
X3041199Y-1314400D01*
X3039200Y-1312300D01*
X3054700Y-1287800D02*
G01*
X3058800Y-1285700D01*
X3065000Y-1279600D01*
X3065000Y-1322500D01*
X3107100Y-1279600D02*
G01*
X3086599Y-1322500D01*
X3078500Y-1279600D02*
G01*
X3107100Y-1279600D01*
X3007299Y-1379600D02*
G01*
X3001099Y-1381599D01*
X2996999Y-1387800D01*
X2995000Y-1398000D01*
X2995000Y-1404099D01*
X2996999Y-1414400D01*
X3001099Y-1420500D01*
X3007299Y-1422500D01*
X3011400Y-1422500D01*
X3017500Y-1420500D01*
X3021599Y-1414400D01*
X3023599Y-1404099D01*
X3023599Y-1398000D01*
X3021599Y-1387800D01*
X3017500Y-1381599D01*
X3011400Y-1379600D01*
X3007299Y-1379600D01*
X3039200Y-1412300D02*
G01*
X3037100Y-1414400D01*
X3039200Y-1416399D01*
X3041199Y-1414400D01*
X3039200Y-1412300D01*
X3066999Y-1379600D02*
G01*
X3060900Y-1381599D01*
X3056800Y-1387800D01*
X3054700Y-1398000D01*
X3054700Y-1404099D01*
X3056800Y-1414400D01*
X3060900Y-1420500D01*
X3066999Y-1422500D01*
X3071099Y-1422500D01*
X3077200Y-1420500D01*
X3081300Y-1414400D01*
X3083400Y-1404099D01*
X3083400Y-1398000D01*
X3081300Y-1387800D01*
X3077200Y-1381599D01*
X3071099Y-1379600D01*
X3066999Y-1379600D01*
X3125500Y-1379600D02*
G01*
X3105000Y-1422500D01*
X3096899Y-1379600D02*
G01*
X3125500Y-1379600D01*
X3011400Y-1479600D02*
G01*
X2995000Y-1522500D01*
X3011400Y-1479600D02*
G01*
X3027700Y-1522500D01*
X3001099Y-1508200D02*
G01*
X3021599Y-1508200D01*
X3041199Y-1479600D02*
G01*
X3041199Y-1522500D01*
X3056800Y-1489800D02*
G01*
X3056800Y-1487800D01*
X3058800Y-1483699D01*
X3060900Y-1481599D01*
X3065000Y-1479600D01*
X3073100Y-1479600D01*
X3077200Y-1481599D01*
X3079300Y-1483699D01*
X3081300Y-1487800D01*
X3081300Y-1491900D01*
X3079300Y-1495999D01*
X3075200Y-1502100D01*
X3054700Y-1522500D01*
X3083400Y-1522500D01*
X3007299Y-1579600D02*
G01*
X3001099Y-1581599D01*
X2996999Y-1587800D01*
X2995000Y-1598000D01*
X2995000Y-1604099D01*
X2996999Y-1614400D01*
X3001099Y-1620500D01*
X3007299Y-1622500D01*
X3011400Y-1622500D01*
X3017500Y-1620500D01*
X3021599Y-1614400D01*
X3023599Y-1604099D01*
X3023599Y-1598000D01*
X3021599Y-1587800D01*
X3017500Y-1581599D01*
X3011400Y-1579600D01*
X3007299Y-1579600D01*
X3039200Y-1612300D02*
G01*
X3037100Y-1614400D01*
X3039200Y-1616399D01*
X3041199Y-1614400D01*
X3039200Y-1612300D01*
X3066999Y-1579600D02*
G01*
X3060900Y-1581599D01*
X3056800Y-1587800D01*
X3054700Y-1598000D01*
X3054700Y-1604099D01*
X3056800Y-1614400D01*
X3060900Y-1620500D01*
X3066999Y-1622500D01*
X3071099Y-1622500D01*
X3077200Y-1620500D01*
X3081300Y-1614400D01*
X3083400Y-1604099D01*
X3083400Y-1598000D01*
X3081300Y-1587800D01*
X3077200Y-1581599D01*
X3071099Y-1579600D01*
X3066999Y-1579600D01*
X3121400Y-1585700D02*
G01*
X3119399Y-1581599D01*
X3113199Y-1579600D01*
X3109099Y-1579600D01*
X3103000Y-1581599D01*
X3098900Y-1587800D01*
X3096899Y-1598000D01*
X3096899Y-1608200D01*
X3098900Y-1616399D01*
X3103000Y-1620500D01*
X3109099Y-1622500D01*
X3111199Y-1622500D01*
X3117299Y-1620500D01*
X3121400Y-1616399D01*
X3123500Y-1610300D01*
X3123500Y-1608200D01*
X3121400Y-1602100D01*
X3117299Y-1598000D01*
X3111199Y-1595999D01*
X3109099Y-1595999D01*
X3103000Y-1598000D01*
X3098900Y-1602100D01*
X3096899Y-1608200D01*
X2995000Y-987800D02*
G01*
X2999099Y-985700D01*
X3005200Y-979600D01*
X3005200Y-1022500D01*
X3020799Y-1012300D02*
G01*
X3018699Y-1014400D01*
X3020799Y-1016399D01*
X3022799Y-1014400D01*
X3020799Y-1012300D01*
X3048599Y-979600D02*
G01*
X3042500Y-981599D01*
X3038400Y-987800D01*
X3036300Y-998000D01*
X3036300Y-1004099D01*
X3038400Y-1014400D01*
X3042500Y-1020500D01*
X3048599Y-1022500D01*
X3052700Y-1022500D01*
X3058800Y-1020500D01*
X3062899Y-1014400D01*
X3065000Y-1004099D01*
X3065000Y-998000D01*
X3062899Y-987800D01*
X3058800Y-981599D01*
X3052700Y-979600D01*
X3048599Y-979600D01*
X3103000Y-985700D02*
G01*
X3101000Y-981599D01*
X3094799Y-979600D01*
X3090699Y-979600D01*
X3084600Y-981599D01*
X3080500Y-987800D01*
X3078500Y-998000D01*
X3078500Y-1008200D01*
X3080500Y-1016399D01*
X3084600Y-1020500D01*
X3090699Y-1022500D01*
X3092799Y-1022500D01*
X3098900Y-1020500D01*
X3103000Y-1016399D01*
X3105000Y-1010300D01*
X3105000Y-1008200D01*
X3103000Y-1002100D01*
X3098900Y-998000D01*
X3092799Y-995999D01*
X3090699Y-995999D01*
X3084600Y-998000D01*
X3080500Y-1002100D01*
X3078500Y-1008200D01*
X2681800Y-1179600D02*
G01*
X2675600Y-1181599D01*
X2671500Y-1187800D01*
X2669501Y-1198000D01*
X2669501Y-1204099D01*
X2671500Y-1214400D01*
X2675600Y-1220500D01*
X2681800Y-1222500D01*
X2685901Y-1222500D01*
X2692001Y-1220500D01*
X2696100Y-1214400D01*
X2698100Y-1204099D01*
X2698100Y-1198000D01*
X2696100Y-1187800D01*
X2692001Y-1181599D01*
X2685901Y-1179600D01*
X2681800Y-1179600D01*
X2713701Y-1212300D02*
G01*
X2711601Y-1214400D01*
X2713701Y-1216399D01*
X2715700Y-1214400D01*
X2713701Y-1212300D01*
X2731301Y-1189800D02*
G01*
X2731301Y-1187800D01*
X2733301Y-1183699D01*
X2735401Y-1181599D01*
X2739501Y-1179600D01*
X2747601Y-1179600D01*
X2751701Y-1181599D01*
X2753801Y-1183699D01*
X2755801Y-1187800D01*
X2755801Y-1191900D01*
X2753801Y-1195999D01*
X2749700Y-1202100D01*
X2729201Y-1222500D01*
X2757901Y-1222500D01*
X2783600Y-1179600D02*
G01*
X2777501Y-1181599D01*
X2773401Y-1187800D01*
X2771400Y-1198000D01*
X2771400Y-1204099D01*
X2773401Y-1214400D01*
X2777501Y-1220500D01*
X2783600Y-1222500D01*
X2787700Y-1222500D01*
X2793900Y-1220500D01*
X2798001Y-1214400D01*
X2800001Y-1204099D01*
X2800001Y-1198000D01*
X2798001Y-1187800D01*
X2793900Y-1181599D01*
X2787700Y-1179600D01*
X2783600Y-1179600D01*
X2687901Y-1087800D02*
G01*
X2692001Y-1085700D01*
X2698100Y-1079600D01*
X2698100Y-1122500D01*
X2713701Y-1112300D02*
G01*
X2711601Y-1114400D01*
X2713701Y-1116399D01*
X2715700Y-1114400D01*
X2713701Y-1112300D01*
X2741500Y-1079600D02*
G01*
X2735401Y-1081599D01*
X2731301Y-1087800D01*
X2729201Y-1098000D01*
X2729201Y-1104099D01*
X2731301Y-1114400D01*
X2735401Y-1120500D01*
X2741500Y-1122500D01*
X2745600Y-1122500D01*
X2751701Y-1120500D01*
X2755801Y-1114400D01*
X2757901Y-1104099D01*
X2757901Y-1098000D01*
X2755801Y-1087800D01*
X2751701Y-1081599D01*
X2745600Y-1079600D01*
X2741500Y-1079600D01*
X2783600Y-1079600D02*
G01*
X2777501Y-1081599D01*
X2773401Y-1087800D01*
X2771400Y-1098000D01*
X2771400Y-1104099D01*
X2773401Y-1114400D01*
X2777501Y-1120500D01*
X2783600Y-1122500D01*
X2787700Y-1122500D01*
X2793900Y-1120500D01*
X2797901Y-1114400D01*
X2800001Y-1104099D01*
X2800001Y-1098000D01*
X2797901Y-1087800D01*
X2793900Y-1081599D01*
X2787700Y-1079600D01*
X2783600Y-1079600D01*
X2700200Y-1279600D02*
G01*
X2694000Y-1281599D01*
X2689901Y-1287800D01*
X2687901Y-1298000D01*
X2687901Y-1304099D01*
X2689901Y-1314400D01*
X2694000Y-1320500D01*
X2700200Y-1322500D01*
X2704300Y-1322500D01*
X2710401Y-1320500D01*
X2714501Y-1314400D01*
X2716500Y-1304099D01*
X2716500Y-1298000D01*
X2714501Y-1287800D01*
X2710401Y-1281599D01*
X2704300Y-1279600D01*
X2700200Y-1279600D01*
X2732101Y-1312300D02*
G01*
X2730001Y-1314400D01*
X2732101Y-1316399D01*
X2734101Y-1314400D01*
X2732101Y-1312300D01*
X2747601Y-1287800D02*
G01*
X2751701Y-1285700D01*
X2757901Y-1279600D01*
X2757901Y-1322500D01*
X2795901Y-1279600D02*
G01*
X2775401Y-1279600D01*
X2773401Y-1298000D01*
X2775401Y-1295999D01*
X2781601Y-1293899D01*
X2787700Y-1293899D01*
X2793900Y-1295999D01*
X2797901Y-1300000D01*
X2800001Y-1306199D01*
X2800001Y-1310300D01*
X2797901Y-1316399D01*
X2793900Y-1320500D01*
X2787700Y-1322500D01*
X2781601Y-1322500D01*
X2775401Y-1320500D01*
X2773401Y-1318499D01*
X2771400Y-1314400D01*
X2700200Y-1374600D02*
G01*
X2693999Y-1376599D01*
X2689899Y-1382800D01*
X2687899Y-1393000D01*
X2687899Y-1399099D01*
X2689899Y-1409400D01*
X2693999Y-1415500D01*
X2700200Y-1417500D01*
X2704300Y-1417500D01*
X2710399Y-1415500D01*
X2714499Y-1409400D01*
X2716499Y-1399099D01*
X2716499Y-1393000D01*
X2714499Y-1382800D01*
X2710399Y-1376599D01*
X2704300Y-1374600D01*
X2700200Y-1374600D01*
X2732100Y-1407300D02*
G01*
X2730000Y-1409400D01*
X2732100Y-1411399D01*
X2734099Y-1409400D01*
X2732100Y-1407300D01*
X2747600Y-1382800D02*
G01*
X2751700Y-1380700D01*
X2757899Y-1374600D01*
X2757899Y-1417500D01*
X2773400Y-1384800D02*
G01*
X2773400Y-1382800D01*
X2775399Y-1378699D01*
X2777500Y-1376599D01*
X2781599Y-1374600D01*
X2789799Y-1374600D01*
X2793900Y-1376599D01*
X2795900Y-1378699D01*
X2797899Y-1382800D01*
X2797899Y-1386900D01*
X2795900Y-1390999D01*
X2791800Y-1397100D01*
X2771400Y-1417500D01*
X2800000Y-1417500D01*
X2681800Y-1479600D02*
G01*
X2675600Y-1481599D01*
X2671500Y-1487800D01*
X2669501Y-1498000D01*
X2669501Y-1504099D01*
X2671500Y-1514400D01*
X2675600Y-1520500D01*
X2681800Y-1522500D01*
X2685901Y-1522500D01*
X2692001Y-1520500D01*
X2696100Y-1514400D01*
X2698100Y-1504099D01*
X2698100Y-1498000D01*
X2696100Y-1487800D01*
X2692001Y-1481599D01*
X2685901Y-1479600D01*
X2681800Y-1479600D01*
X2713701Y-1512300D02*
G01*
X2711601Y-1514400D01*
X2713701Y-1516399D01*
X2715700Y-1514400D01*
X2713701Y-1512300D01*
X2741500Y-1479600D02*
G01*
X2735401Y-1481599D01*
X2731301Y-1487800D01*
X2729201Y-1498000D01*
X2729201Y-1504099D01*
X2731301Y-1514400D01*
X2735401Y-1520500D01*
X2741500Y-1522500D01*
X2745600Y-1522500D01*
X2751701Y-1520500D01*
X2755801Y-1514400D01*
X2757901Y-1504099D01*
X2757901Y-1498000D01*
X2755801Y-1487800D01*
X2751701Y-1481599D01*
X2745600Y-1479600D01*
X2741500Y-1479600D01*
X2781601Y-1479600D02*
G01*
X2775501Y-1481599D01*
X2773401Y-1485700D01*
X2773401Y-1489800D01*
X2775501Y-1493899D01*
X2779501Y-1495999D01*
X2787700Y-1498000D01*
X2793900Y-1500000D01*
X2798001Y-1504099D01*
X2800001Y-1508200D01*
X2800001Y-1514400D01*
X2798001Y-1518499D01*
X2795901Y-1520500D01*
X2789800Y-1522500D01*
X2781601Y-1522500D01*
X2775501Y-1520500D01*
X2773401Y-1518499D01*
X2771400Y-1514400D01*
X2771400Y-1508200D01*
X2773401Y-1504099D01*
X2777501Y-1500000D01*
X2783600Y-1498000D01*
X2791800Y-1495999D01*
X2795901Y-1493899D01*
X2798001Y-1489800D01*
X2798001Y-1485700D01*
X2795901Y-1481599D01*
X2789800Y-1479600D01*
X2781601Y-1479600D01*
X2671499Y-1579600D02*
G01*
X2687899Y-1622500D01*
X2704200Y-1579600D02*
G01*
X2687899Y-1622500D01*
X2748400Y-1589800D02*
G01*
X2746400Y-1585700D01*
X2742299Y-1581599D01*
X2738199Y-1579600D01*
X2730000Y-1579600D01*
X2725900Y-1581599D01*
X2721800Y-1585700D01*
X2719799Y-1589800D01*
X2717700Y-1595999D01*
X2717700Y-1606199D01*
X2719799Y-1612300D01*
X2721800Y-1616399D01*
X2725900Y-1620500D01*
X2730000Y-1622500D01*
X2738199Y-1622500D01*
X2742299Y-1620500D01*
X2746400Y-1616399D01*
X2748400Y-1612300D01*
X2792600Y-1589800D02*
G01*
X2790500Y-1585700D01*
X2786499Y-1581599D01*
X2782399Y-1579600D01*
X2774200Y-1579600D01*
X2770100Y-1581599D01*
X2766000Y-1585700D01*
X2763999Y-1589800D01*
X2761899Y-1595999D01*
X2761899Y-1606199D01*
X2763999Y-1612300D01*
X2766000Y-1616399D01*
X2770100Y-1620500D01*
X2774200Y-1622500D01*
X2782399Y-1622500D01*
X2786499Y-1620500D01*
X2790500Y-1616399D01*
X2792600Y-1612300D01*
X2685898Y-987800D02*
G01*
X2689998Y-985700D01*
X2696099Y-979600D01*
X2696099Y-1022500D01*
X2711698Y-1012300D02*
G01*
X2709598Y-1014400D01*
X2711698Y-1016399D01*
X2713698Y-1014400D01*
X2711698Y-1012300D01*
X2739498Y-979600D02*
G01*
X2733398Y-981599D01*
X2729299Y-987800D01*
X2727199Y-998000D01*
X2727199Y-1004099D01*
X2729299Y-1014400D01*
X2733398Y-1020500D01*
X2739498Y-1022500D01*
X2743599Y-1022500D01*
X2749699Y-1020500D01*
X2753798Y-1014400D01*
X2755898Y-1004099D01*
X2755898Y-998000D01*
X2753798Y-987800D01*
X2749699Y-981599D01*
X2743599Y-979600D01*
X2739498Y-979600D01*
X2789799Y-979600D02*
G01*
X2769399Y-1008200D01*
X2799998Y-1008200D01*
X2789799Y-979600D02*
G01*
X2789799Y-1022500D01*
X3025699Y-889800D02*
G01*
X3023599Y-885700D01*
X3019499Y-881599D01*
X3015500Y-879600D01*
X3007299Y-879600D01*
X3003199Y-881599D01*
X2999099Y-885700D01*
X2996999Y-889800D01*
X2995000Y-895999D01*
X2995000Y-906199D01*
X2996999Y-912300D01*
X2999099Y-916399D01*
X3003199Y-920500D01*
X3007299Y-922500D01*
X3015500Y-922500D01*
X3019499Y-920500D01*
X3023599Y-916399D01*
X3025699Y-912300D01*
X3025699Y-906199D01*
X3015500Y-906199D02*
G01*
X3025699Y-906199D01*
X3039200Y-879600D02*
G01*
X3039200Y-922500D01*
X3039200Y-879600D02*
G01*
X3067799Y-922500D01*
X3067799Y-879600D02*
G01*
X3067799Y-922500D01*
X3081300Y-879600D02*
G01*
X3081300Y-922500D01*
X3081300Y-879600D02*
G01*
X3095600Y-879600D01*
X3101800Y-881599D01*
X3105900Y-885700D01*
X3107899Y-889800D01*
X3110000Y-895999D01*
X3110000Y-906199D01*
X3107899Y-912300D01*
X3105900Y-916399D01*
X3101800Y-920500D01*
X3095600Y-922500D01*
X3081300Y-922500D01*
X2715699Y-889800D02*
G01*
X2713599Y-885700D01*
X2709499Y-881599D01*
X2705500Y-879600D01*
X2697299Y-879600D01*
X2693199Y-881599D01*
X2689099Y-885700D01*
X2686999Y-889800D01*
X2685000Y-895999D01*
X2685000Y-906199D01*
X2686999Y-912300D01*
X2689099Y-916399D01*
X2693199Y-920500D01*
X2697299Y-922500D01*
X2705500Y-922500D01*
X2709499Y-920500D01*
X2713599Y-916399D01*
X2715699Y-912300D01*
X2715699Y-906199D01*
X2705500Y-906199D02*
G01*
X2715699Y-906199D01*
X2729200Y-879600D02*
G01*
X2729200Y-922500D01*
X2729200Y-879600D02*
G01*
X2757799Y-922500D01*
X2757799Y-879600D02*
G01*
X2757799Y-922500D01*
X2771300Y-879600D02*
G01*
X2771300Y-922500D01*
X2771300Y-879600D02*
G01*
X2785600Y-879600D01*
X2791800Y-881599D01*
X2795900Y-885700D01*
X2797899Y-889800D01*
X2800000Y-895999D01*
X2800000Y-906199D01*
X2797899Y-912300D01*
X2795900Y-916399D01*
X2791800Y-920500D01*
X2785600Y-922500D01*
X2771300Y-922500D01*
X2678900Y-1679600D02*
G01*
X2695300Y-1722500D01*
X2711601Y-1679600D02*
G01*
X2695300Y-1722500D01*
X2755801Y-1689800D02*
G01*
X2753801Y-1685700D01*
X2749700Y-1681599D01*
X2745600Y-1679600D01*
X2737401Y-1679600D01*
X2733301Y-1681599D01*
X2729201Y-1685700D01*
X2727200Y-1689800D01*
X2725101Y-1695999D01*
X2725101Y-1706199D01*
X2727200Y-1712300D01*
X2729201Y-1716399D01*
X2733301Y-1720500D01*
X2737401Y-1722500D01*
X2745600Y-1722500D01*
X2749700Y-1720500D01*
X2753801Y-1716399D01*
X2755801Y-1712300D01*
X2800001Y-1689800D02*
G01*
X2797901Y-1685700D01*
X2793900Y-1681599D01*
X2789800Y-1679600D01*
X2781601Y-1679600D01*
X2777501Y-1681599D01*
X2773401Y-1685700D01*
X2771400Y-1689800D01*
X2769300Y-1695999D01*
X2769300Y-1706199D01*
X2771400Y-1712300D01*
X2773401Y-1716399D01*
X2777501Y-1720500D01*
X2781601Y-1722500D01*
X2789800Y-1722500D01*
X2793900Y-1720500D01*
X2797901Y-1716399D01*
X2800001Y-1712300D01*
X2980699Y-726399D02*
G01*
X2976599Y-730500D01*
X2974600Y-736599D01*
X2974600Y-744800D01*
X2976599Y-750900D01*
X2980699Y-755000D01*
X2984799Y-755000D01*
X2988900Y-753000D01*
X2991000Y-750900D01*
X2993000Y-746799D01*
X2997100Y-734499D01*
X2999099Y-730500D01*
X3001199Y-728400D01*
X3005299Y-726399D01*
X3011400Y-726399D01*
X3015500Y-730500D01*
X3017500Y-736599D01*
X3017500Y-744800D01*
X3015500Y-750900D01*
X3011400Y-755000D01*
X2974600Y-712899D02*
G01*
X3017500Y-702600D01*
X2974600Y-692399D02*
G01*
X3017500Y-702600D01*
X2974600Y-692399D02*
G01*
X3017500Y-682199D01*
X2974600Y-671999D02*
G01*
X3017500Y-682199D01*
X2982799Y-658499D02*
G01*
X2980699Y-654400D01*
X2974600Y-648200D01*
X3017500Y-648200D01*
X2980699Y-491399D02*
G01*
X2976599Y-495500D01*
X2974600Y-501599D01*
X2974600Y-509800D01*
X2976599Y-515900D01*
X2980699Y-520000D01*
X2984799Y-520000D01*
X2988900Y-518000D01*
X2991000Y-515900D01*
X2993000Y-511799D01*
X2997100Y-499499D01*
X2999099Y-495500D01*
X3001199Y-493400D01*
X3005299Y-491399D01*
X3011400Y-491399D01*
X3015500Y-495500D01*
X3017500Y-501599D01*
X3017500Y-509800D01*
X3015500Y-515900D01*
X3011400Y-520000D01*
X2974600Y-477899D02*
G01*
X3017500Y-467600D01*
X2974600Y-457399D02*
G01*
X3017500Y-467600D01*
X2974600Y-457399D02*
G01*
X3017500Y-447199D01*
X2974600Y-436999D02*
G01*
X3017500Y-447199D01*
X2984799Y-421399D02*
G01*
X2982799Y-421399D01*
X2978699Y-419400D01*
X2976599Y-417300D01*
X2974600Y-413200D01*
X2974600Y-405000D01*
X2976599Y-400999D01*
X2978699Y-398899D01*
X2982799Y-396900D01*
X2986899Y-396900D01*
X2991000Y-398899D01*
X2997100Y-403000D01*
X3017500Y-423499D01*
X3017500Y-394800D01*
X1942807Y-1858362D02*
G01*
X1899907Y-1858362D01*
X1899907Y-1858362D02*
G01*
X1899907Y-1882863D01*
X1942807Y-1896363D02*
G01*
X1899907Y-1896363D01*
X1942807Y-1896363D02*
G01*
X1942807Y-1922962D01*
X1922407Y-1896363D02*
G01*
X1922407Y-1912763D01*
X1899907Y-1896363D02*
G01*
X1899907Y-1922962D01*
X1942807Y-1936462D02*
G01*
X1899907Y-1936462D01*
X1942807Y-1936462D02*
G01*
X1942807Y-1950862D01*
X1940807Y-1956963D01*
X1936706Y-1961062D01*
X1932606Y-1963063D01*
X1926406Y-1965162D01*
X1916207Y-1965162D01*
X1910106Y-1963063D01*
X1906006Y-1961062D01*
X1901907Y-1956963D01*
X1899907Y-1950862D01*
X1899907Y-1936462D01*
X1934606Y-1978663D02*
G01*
X1936706Y-1982763D01*
X1942807Y-1988863D01*
X1899907Y-1988863D01*
X1065000Y-259600D02*
G01*
X1065000Y-302500D01*
X1065000Y-302500D02*
G01*
X1089499Y-302500D01*
X1103000Y-259600D02*
G01*
X1103000Y-302500D01*
X1103000Y-259600D02*
G01*
X1129600Y-259600D01*
X1103000Y-280000D02*
G01*
X1119399Y-280000D01*
X1103000Y-302500D02*
G01*
X1129600Y-302500D01*
X1143100Y-259600D02*
G01*
X1143100Y-302500D01*
X1143100Y-259600D02*
G01*
X1157500Y-259600D01*
X1163599Y-261599D01*
X1167700Y-265700D01*
X1169700Y-269800D01*
X1171800Y-275999D01*
X1171800Y-286199D01*
X1169700Y-292300D01*
X1167700Y-296399D01*
X1163599Y-300500D01*
X1157500Y-302500D01*
X1143100Y-302500D01*
X1187299Y-269800D02*
G01*
X1187299Y-267800D01*
X1189399Y-263699D01*
X1191400Y-261599D01*
X1195500Y-259600D01*
X1203699Y-259600D01*
X1207799Y-261599D01*
X1209799Y-263699D01*
X1211899Y-267800D01*
X1211899Y-271900D01*
X1209799Y-275999D01*
X1205699Y-282100D01*
X1185299Y-302500D01*
X1213900Y-302500D01*
X605000Y-259600D02*
G01*
X605000Y-302500D01*
X605000Y-302500D02*
G01*
X629499Y-302500D01*
X643000Y-259600D02*
G01*
X643000Y-302500D01*
X643000Y-259600D02*
G01*
X669600Y-259600D01*
X643000Y-280000D02*
G01*
X659400Y-280000D01*
X643000Y-302500D02*
G01*
X669600Y-302500D01*
X683099Y-259600D02*
G01*
X683099Y-302500D01*
X683099Y-259600D02*
G01*
X697500Y-259600D01*
X703600Y-261599D01*
X707699Y-265700D01*
X709699Y-269800D01*
X711799Y-275999D01*
X711799Y-286199D01*
X709699Y-292300D01*
X707699Y-296399D01*
X703600Y-300500D01*
X697500Y-302500D01*
X683099Y-302500D01*
X729400Y-259600D02*
G01*
X751900Y-259600D01*
X739600Y-275999D01*
X745700Y-275999D01*
X749800Y-278000D01*
X751900Y-280000D01*
X753899Y-286199D01*
X753899Y-290300D01*
X751900Y-296399D01*
X747800Y-300500D01*
X741599Y-302500D01*
X735500Y-302500D01*
X729400Y-300500D01*
X727300Y-298499D01*
X725300Y-294400D01*
X1525402Y-1505059D02*
G01*
X1523401Y-1500958D01*
X1519301Y-1496858D01*
X1515201Y-1494758D01*
X1509002Y-1492759D01*
X1498801Y-1492759D01*
X1492701Y-1494758D01*
X1488602Y-1496858D01*
X1484502Y-1500958D01*
X1482502Y-1505059D01*
X1482502Y-1513258D01*
X1484502Y-1517258D01*
X1488602Y-1521359D01*
X1492701Y-1523458D01*
X1498801Y-1525459D01*
X1509002Y-1525459D01*
X1515201Y-1523458D01*
X1519301Y-1521359D01*
X1523401Y-1517258D01*
X1525402Y-1513258D01*
X1525402Y-1505059D01*
X1490601Y-1511158D02*
G01*
X1478401Y-1523458D01*
X1517201Y-1538958D02*
G01*
X1519301Y-1543058D01*
X1525402Y-1549259D01*
X1482502Y-1549259D01*
X1637808Y-1265664D02*
G01*
X1635807Y-1261563D01*
X1631707Y-1257464D01*
X1627608Y-1255363D01*
X1621408Y-1253364D01*
X1611207Y-1253364D01*
X1605108Y-1255363D01*
X1601008Y-1257464D01*
X1596908Y-1261563D01*
X1594907Y-1265664D01*
X1594907Y-1273863D01*
X1596908Y-1277863D01*
X1601008Y-1281963D01*
X1605108Y-1284063D01*
X1611207Y-1286064D01*
X1621408Y-1286064D01*
X1627608Y-1284063D01*
X1631707Y-1281963D01*
X1635807Y-1277863D01*
X1637808Y-1273863D01*
X1637808Y-1265664D01*
X1603007Y-1271763D02*
G01*
X1590807Y-1284063D01*
X1627608Y-1301664D02*
G01*
X1629607Y-1301664D01*
X1633707Y-1303663D01*
X1635807Y-1305763D01*
X1637808Y-1309863D01*
X1637808Y-1317964D01*
X1635807Y-1322064D01*
X1633707Y-1324164D01*
X1629607Y-1326163D01*
X1625507Y-1326163D01*
X1621408Y-1324164D01*
X1615308Y-1320064D01*
X1594907Y-1299564D01*
X1594907Y-1328263D01*
X689663Y-739598D02*
G01*
X685563Y-741597D01*
X681464Y-745698D01*
X679364Y-749798D01*
X677363Y-755997D01*
X677363Y-766197D01*
X679364Y-772298D01*
X681464Y-776397D01*
X685563Y-780497D01*
X689663Y-782498D01*
X697863Y-782498D01*
X701864Y-780497D01*
X705963Y-776397D01*
X708063Y-772298D01*
X710064Y-766197D01*
X710064Y-755997D01*
X708063Y-749798D01*
X705963Y-745698D01*
X701864Y-741597D01*
X697863Y-739598D01*
X689663Y-739598D01*
X695763Y-774398D02*
G01*
X708063Y-786597D01*
X727663Y-739598D02*
G01*
X750163Y-739598D01*
X737863Y-755997D01*
X744063Y-755997D01*
X748164Y-757997D01*
X750163Y-759998D01*
X752264Y-766197D01*
X752264Y-770297D01*
X750163Y-776397D01*
X746064Y-780497D01*
X739964Y-782498D01*
X733863Y-782498D01*
X727663Y-780497D01*
X725664Y-778497D01*
X723564Y-774398D01*
X605399Y-1422300D02*
G01*
X603400Y-1418200D01*
X599299Y-1414099D01*
X595199Y-1411999D01*
X589000Y-1410000D01*
X578800Y-1410000D01*
X572699Y-1411999D01*
X568600Y-1414099D01*
X564499Y-1418200D01*
X562500Y-1422300D01*
X562500Y-1430500D01*
X564499Y-1434499D01*
X568600Y-1438600D01*
X572699Y-1440700D01*
X578800Y-1442699D01*
X589000Y-1442699D01*
X595199Y-1440700D01*
X599299Y-1438600D01*
X603400Y-1434499D01*
X605399Y-1430500D01*
X605399Y-1422300D01*
X570599Y-1428400D02*
G01*
X558400Y-1440700D01*
X605399Y-1476700D02*
G01*
X576799Y-1456199D01*
X576799Y-1486900D01*
X605399Y-1476700D02*
G01*
X562500Y-1476700D01*
X432346Y-1230207D02*
G01*
X428247Y-1232208D01*
X424146Y-1236307D01*
X422046Y-1240408D01*
X420046Y-1246608D01*
X420046Y-1256808D01*
X422046Y-1262908D01*
X424146Y-1267008D01*
X428247Y-1271107D01*
X432346Y-1273108D01*
X440547Y-1273108D01*
X444546Y-1271107D01*
X448647Y-1267008D01*
X450747Y-1262908D01*
X452746Y-1256808D01*
X452746Y-1246608D01*
X450747Y-1240408D01*
X448647Y-1236307D01*
X444546Y-1232208D01*
X440547Y-1230207D01*
X432346Y-1230207D01*
X438447Y-1265007D02*
G01*
X450747Y-1277208D01*
X490846Y-1230207D02*
G01*
X470347Y-1230207D01*
X468346Y-1248607D01*
X470347Y-1246608D01*
X476547Y-1244508D01*
X482647Y-1244508D01*
X488746Y-1246608D01*
X492847Y-1250608D01*
X494947Y-1256808D01*
X494947Y-1260907D01*
X492847Y-1267008D01*
X488746Y-1271107D01*
X482647Y-1273108D01*
X476547Y-1273108D01*
X470347Y-1271107D01*
X468346Y-1269108D01*
X466246Y-1265007D01*
X1520402Y-1812757D02*
G01*
X1489702Y-1812757D01*
X1483603Y-1814756D01*
X1479503Y-1818856D01*
X1477502Y-1825057D01*
X1477502Y-1829157D01*
X1479503Y-1835257D01*
X1483603Y-1839357D01*
X1489702Y-1841356D01*
X1520402Y-1841356D01*
X1512202Y-1854857D02*
G01*
X1514303Y-1858957D01*
X1520402Y-1865156D01*
X1477502Y-1865156D01*
X1936000Y-1633355D02*
G01*
X1936000Y-1664054D01*
X1938000Y-1670154D01*
X1942100Y-1674254D01*
X1948299Y-1676255D01*
X1952399Y-1676255D01*
X1958500Y-1674254D01*
X1962600Y-1670154D01*
X1964600Y-1664054D01*
X1964600Y-1633355D01*
X1980200Y-1643555D02*
G01*
X1980200Y-1641554D01*
X1982200Y-1637455D01*
X1984300Y-1635354D01*
X1988400Y-1633355D01*
X1996499Y-1633355D01*
X2000600Y-1635354D01*
X2002700Y-1637455D01*
X2004700Y-1641554D01*
X2004700Y-1645655D01*
X2002700Y-1649755D01*
X1998599Y-1655855D01*
X1978100Y-1676255D01*
X2006800Y-1676255D01*
X2160500Y-484600D02*
G01*
X2160500Y-517300D01*
X2158400Y-523499D01*
X2156400Y-525500D01*
X2152299Y-527500D01*
X2148199Y-527500D01*
X2144099Y-525500D01*
X2141999Y-523499D01*
X2140000Y-517300D01*
X2140000Y-513200D01*
X2173999Y-492800D02*
G01*
X2178000Y-490700D01*
X2184200Y-484600D01*
X2184200Y-527500D01*
X2239600Y-1705000D02*
G01*
X2282500Y-1705000D01*
X2239600Y-1705000D02*
G01*
X2239600Y-1686599D01*
X2241599Y-1680500D01*
X2243699Y-1678400D01*
X2247799Y-1676399D01*
X2251899Y-1676399D01*
X2256000Y-1678400D01*
X2258000Y-1680500D01*
X2260000Y-1686599D01*
X2260000Y-1705000D01*
X2260000Y-1690700D02*
G01*
X2282500Y-1676399D01*
X2247799Y-1662899D02*
G01*
X2245699Y-1658800D01*
X2239600Y-1652600D01*
X2282500Y-1652600D01*
X2074600Y-1715000D02*
G01*
X2117500Y-1715000D01*
X2074600Y-1715000D02*
G01*
X2074600Y-1696599D01*
X2076599Y-1690500D01*
X2078699Y-1688400D01*
X2082799Y-1686399D01*
X2086899Y-1686399D01*
X2091000Y-1688400D01*
X2093000Y-1690500D01*
X2095000Y-1696599D01*
X2095000Y-1715000D01*
X2095000Y-1700700D02*
G01*
X2117500Y-1686399D01*
X2084799Y-1670799D02*
G01*
X2082799Y-1670799D01*
X2078699Y-1668800D01*
X2076599Y-1666700D01*
X2074600Y-1662600D01*
X2074600Y-1654499D01*
X2076599Y-1650399D01*
X2078699Y-1648299D01*
X2082799Y-1646300D01*
X2086899Y-1646300D01*
X2091000Y-1648299D01*
X2097100Y-1652399D01*
X2117500Y-1672899D01*
X2117500Y-1644200D01*
X1506994Y-814594D02*
G01*
X1535595Y-857494D01*
X1535595Y-814594D02*
G01*
X1506994Y-857494D01*
X1549094Y-822795D02*
G01*
X1553194Y-820695D01*
X1559395Y-814594D01*
X1559395Y-857494D01*
X2015397Y-1699996D02*
G01*
X1972497Y-1699996D01*
X2015397Y-1699996D02*
G01*
X2015397Y-1718397D01*
X2013397Y-1724497D01*
X2011297Y-1726597D01*
X2007196Y-1728596D01*
X2003096Y-1728596D01*
X1998996Y-1726597D01*
X1996997Y-1724497D01*
X1994997Y-1718397D01*
X1994997Y-1699996D01*
X1994997Y-1714297D02*
G01*
X1972497Y-1728596D01*
X2015397Y-1766696D02*
G01*
X2015397Y-1746197D01*
X1996997Y-1744196D01*
X1998996Y-1746197D01*
X2001096Y-1752397D01*
X2001096Y-1758497D01*
X1998996Y-1764596D01*
X1994997Y-1768697D01*
X1988797Y-1770796D01*
X1984696Y-1770796D01*
X1978596Y-1768697D01*
X1974497Y-1764596D01*
X1972497Y-1758497D01*
X1972497Y-1752397D01*
X1974497Y-1746197D01*
X1976496Y-1744196D01*
X1980596Y-1742096D01*
X1670399Y-1095003D02*
G01*
X1627500Y-1095003D01*
X1670399Y-1095003D02*
G01*
X1670399Y-1113402D01*
X1668400Y-1119502D01*
X1666300Y-1121603D01*
X1662200Y-1123602D01*
X1658100Y-1123602D01*
X1653999Y-1121603D01*
X1651999Y-1119502D01*
X1650000Y-1113402D01*
X1650000Y-1095003D01*
X1650000Y-1109303D02*
G01*
X1627500Y-1123602D01*
X1670399Y-1147402D02*
G01*
X1668400Y-1141203D01*
X1664300Y-1139203D01*
X1660200Y-1139203D01*
X1656099Y-1141203D01*
X1653999Y-1145302D01*
X1651999Y-1153503D01*
X1650000Y-1159603D01*
X1645900Y-1163703D01*
X1641800Y-1165803D01*
X1635600Y-1165803D01*
X1631499Y-1163703D01*
X1629499Y-1161703D01*
X1627500Y-1155502D01*
X1627500Y-1147402D01*
X1629499Y-1141203D01*
X1631499Y-1139203D01*
X1635600Y-1137103D01*
X1641800Y-1137103D01*
X1645900Y-1139203D01*
X1650000Y-1143303D01*
X1651999Y-1149403D01*
X1653999Y-1157602D01*
X1656099Y-1161703D01*
X1660200Y-1163703D01*
X1664300Y-1163703D01*
X1668400Y-1161703D01*
X1670399Y-1155502D01*
X1670399Y-1147402D01*
X1780399Y-1210003D02*
G01*
X1737500Y-1210003D01*
X1780399Y-1210003D02*
G01*
X1780399Y-1228402D01*
X1778400Y-1234502D01*
X1776300Y-1236603D01*
X1772200Y-1238602D01*
X1768100Y-1238602D01*
X1763999Y-1236603D01*
X1761999Y-1234502D01*
X1760000Y-1228402D01*
X1760000Y-1210003D01*
X1760000Y-1224303D02*
G01*
X1737500Y-1238602D01*
X1780399Y-1280803D02*
G01*
X1737500Y-1260302D01*
X1780399Y-1252103D02*
G01*
X1780399Y-1280803D01*
X1522807Y-1283366D02*
G01*
X1479907Y-1283366D01*
X1522807Y-1283366D02*
G01*
X1522807Y-1301765D01*
X1520807Y-1307865D01*
X1518707Y-1309965D01*
X1514606Y-1311966D01*
X1510506Y-1311966D01*
X1506406Y-1309965D01*
X1504407Y-1307865D01*
X1502407Y-1301765D01*
X1502407Y-1283366D01*
X1502407Y-1297665D02*
G01*
X1479907Y-1311966D01*
X1516706Y-1350066D02*
G01*
X1520807Y-1347966D01*
X1522807Y-1341866D01*
X1522807Y-1337766D01*
X1520807Y-1331666D01*
X1514606Y-1327566D01*
X1504407Y-1325466D01*
X1494206Y-1325466D01*
X1486006Y-1327566D01*
X1481907Y-1331666D01*
X1479907Y-1337766D01*
X1479907Y-1339866D01*
X1481907Y-1345965D01*
X1486006Y-1350066D01*
X1492106Y-1352065D01*
X1494206Y-1352065D01*
X1500307Y-1350066D01*
X1504407Y-1345965D01*
X1506406Y-1339866D01*
X1506406Y-1337766D01*
X1504407Y-1331666D01*
X1500307Y-1327566D01*
X1494206Y-1325466D01*
X1690399Y-1557755D02*
G01*
X1647500Y-1557755D01*
X1690399Y-1557755D02*
G01*
X1690399Y-1572055D01*
X1688400Y-1578254D01*
X1684300Y-1582255D01*
X1680200Y-1584355D01*
X1673999Y-1586354D01*
X1663800Y-1586354D01*
X1657700Y-1584355D01*
X1653599Y-1582255D01*
X1649499Y-1578254D01*
X1647500Y-1572055D01*
X1647500Y-1557755D01*
X1682200Y-1599854D02*
G01*
X1684300Y-1603955D01*
X1690399Y-1610154D01*
X1647500Y-1610154D01*
X1860200Y-1443460D02*
G01*
X1864300Y-1441359D01*
X1868400Y-1437260D01*
X1870399Y-1433260D01*
X1870399Y-1425059D01*
X1868400Y-1420960D01*
X1864300Y-1416860D01*
X1860200Y-1414760D01*
X1853999Y-1412759D01*
X1843800Y-1412759D01*
X1837700Y-1414760D01*
X1833599Y-1416860D01*
X1829499Y-1420960D01*
X1827500Y-1425059D01*
X1827500Y-1433260D01*
X1829499Y-1437260D01*
X1833599Y-1441359D01*
X1837700Y-1443460D01*
X1870399Y-1461060D02*
G01*
X1870399Y-1483560D01*
X1853999Y-1471260D01*
X1853999Y-1477359D01*
X1851999Y-1481460D01*
X1850000Y-1483560D01*
X1843800Y-1485560D01*
X1839700Y-1485560D01*
X1833599Y-1483560D01*
X1829499Y-1479459D01*
X1827500Y-1473260D01*
X1827500Y-1467159D01*
X1829499Y-1461060D01*
X1831499Y-1458960D01*
X1835600Y-1456959D01*
X2200399Y-1264998D02*
G01*
X2157500Y-1264998D01*
X2157500Y-1264998D02*
G01*
X2157500Y-1289499D01*
X2192200Y-1302998D02*
G01*
X2194300Y-1307098D01*
X2200399Y-1313299D01*
X2157500Y-1313299D01*
X1720399Y-1862755D02*
G01*
X1677500Y-1862755D01*
X1720399Y-1862755D02*
G01*
X1720399Y-1881154D01*
X1718400Y-1887255D01*
X1716300Y-1889355D01*
X1712200Y-1891354D01*
X1708100Y-1891354D01*
X1703999Y-1889355D01*
X1701999Y-1887255D01*
X1700000Y-1881154D01*
X1700000Y-1862755D01*
X1700000Y-1877055D02*
G01*
X1677500Y-1891354D01*
X1720399Y-1925354D02*
G01*
X1691800Y-1904854D01*
X1691800Y-1935554D01*
X1720399Y-1925354D02*
G01*
X1677500Y-1925354D01*
X1547200Y-930695D02*
G01*
X1551300Y-928595D01*
X1555399Y-924495D01*
X1557399Y-920495D01*
X1557399Y-912294D01*
X1555399Y-908195D01*
X1551300Y-904095D01*
X1547200Y-901995D01*
X1541000Y-899994D01*
X1530799Y-899994D01*
X1524700Y-901995D01*
X1520600Y-904095D01*
X1516499Y-908195D01*
X1514499Y-912294D01*
X1514499Y-920495D01*
X1516499Y-924495D01*
X1520600Y-928595D01*
X1524700Y-930695D01*
X1557399Y-968694D02*
G01*
X1557399Y-948294D01*
X1538999Y-946194D01*
X1541000Y-948294D01*
X1543100Y-954394D01*
X1543100Y-960495D01*
X1541000Y-966694D01*
X1536999Y-970794D01*
X1530799Y-972795D01*
X1526700Y-972795D01*
X1520600Y-970794D01*
X1516499Y-966694D01*
X1514499Y-960495D01*
X1514499Y-954394D01*
X1516499Y-948294D01*
X1518500Y-946194D01*
X1522600Y-944194D01*
X1306800Y-944295D02*
G01*
X1302700Y-946395D01*
X1298599Y-950495D01*
X1296599Y-954495D01*
X1296599Y-962694D01*
X1298599Y-966795D01*
X1302700Y-970895D01*
X1306800Y-972995D01*
X1313000Y-974994D01*
X1323199Y-974994D01*
X1329300Y-972995D01*
X1333400Y-970895D01*
X1337500Y-966795D01*
X1339499Y-962694D01*
X1339499Y-954495D01*
X1337500Y-950495D01*
X1333400Y-946395D01*
X1329300Y-944295D01*
X1296599Y-910394D02*
G01*
X1325200Y-930794D01*
X1325200Y-900095D01*
X1296599Y-910394D02*
G01*
X1339499Y-910394D01*
X988806Y-1800207D02*
G01*
X972407Y-1843108D01*
X988806Y-1800207D02*
G01*
X1005106Y-1843108D01*
X978506Y-1828807D02*
G01*
X999007Y-1828807D01*
X1018607Y-1808407D02*
G01*
X1022707Y-1806307D01*
X1028906Y-1800207D01*
X1028906Y-1843108D01*
X765000Y-1064600D02*
G01*
X765000Y-1095300D01*
X766999Y-1101399D01*
X771099Y-1105500D01*
X777299Y-1107500D01*
X781400Y-1107500D01*
X787500Y-1105500D01*
X791599Y-1101399D01*
X793599Y-1095300D01*
X793599Y-1064600D01*
X831700Y-1070700D02*
G01*
X829600Y-1066599D01*
X823500Y-1064600D01*
X819399Y-1064600D01*
X813299Y-1066599D01*
X809200Y-1072800D01*
X807100Y-1083000D01*
X807100Y-1093200D01*
X809200Y-1101399D01*
X813299Y-1105500D01*
X819399Y-1107500D01*
X821499Y-1107500D01*
X827600Y-1105500D01*
X831700Y-1101399D01*
X833699Y-1095300D01*
X833699Y-1093200D01*
X831700Y-1087100D01*
X827600Y-1083000D01*
X821499Y-1080999D01*
X819399Y-1080999D01*
X813299Y-1083000D01*
X809200Y-1087100D01*
X807100Y-1093200D01*
X537359Y-819600D02*
G01*
X537359Y-862500D01*
X537359Y-819600D02*
G01*
X555760Y-819600D01*
X561860Y-821599D01*
X563960Y-823699D01*
X565960Y-827800D01*
X565960Y-831900D01*
X563960Y-835999D01*
X561860Y-838000D01*
X555760Y-840000D01*
X537359Y-840000D01*
X551660Y-840000D02*
G01*
X565960Y-862500D01*
X579459Y-827800D02*
G01*
X583560Y-825700D01*
X589760Y-819600D01*
X589760Y-862500D01*
X629859Y-833899D02*
G01*
X627759Y-840000D01*
X623659Y-844099D01*
X617559Y-846199D01*
X615459Y-846199D01*
X609360Y-844099D01*
X605259Y-840000D01*
X603260Y-833899D01*
X603260Y-831900D01*
X605259Y-825700D01*
X609360Y-821599D01*
X615459Y-819600D01*
X617559Y-819600D01*
X623659Y-821599D01*
X627759Y-825700D01*
X629859Y-833899D01*
X629859Y-844099D01*
X627759Y-854400D01*
X623659Y-860500D01*
X617559Y-862500D01*
X613460Y-862500D01*
X607359Y-860500D01*
X605259Y-856399D01*
X511959Y-1000000D02*
G01*
X554859Y-1000000D01*
X511959Y-1000000D02*
G01*
X511959Y-981599D01*
X513960Y-975500D01*
X516060Y-973400D01*
X520160Y-971399D01*
X524259Y-971399D01*
X528359Y-973400D01*
X530360Y-975500D01*
X532359Y-981599D01*
X532359Y-1000000D01*
X532359Y-985700D02*
G01*
X554859Y-971399D01*
X522159Y-955799D02*
G01*
X520160Y-955799D01*
X516060Y-953800D01*
X513960Y-951700D01*
X511959Y-947600D01*
X511959Y-939499D01*
X513960Y-935399D01*
X516060Y-933299D01*
X520160Y-931300D01*
X524259Y-931300D01*
X528359Y-933299D01*
X534459Y-937399D01*
X554859Y-957899D01*
X554859Y-929200D01*
X511959Y-903499D02*
G01*
X513960Y-909600D01*
X520160Y-913699D01*
X530360Y-915700D01*
X536460Y-915700D01*
X546759Y-913699D01*
X552860Y-909600D01*
X554859Y-903499D01*
X554859Y-899400D01*
X552860Y-893200D01*
X546759Y-889099D01*
X536460Y-887100D01*
X530360Y-887100D01*
X520160Y-889099D01*
X513960Y-893200D01*
X511959Y-899400D01*
X511959Y-903499D01*
X512359Y-1144600D02*
G01*
X512359Y-1187500D01*
X512359Y-1144600D02*
G01*
X530760Y-1144600D01*
X536860Y-1146599D01*
X538960Y-1148699D01*
X540960Y-1152800D01*
X540960Y-1156900D01*
X538960Y-1160999D01*
X536860Y-1163000D01*
X530760Y-1165000D01*
X512359Y-1165000D01*
X526660Y-1165000D02*
G01*
X540960Y-1187500D01*
X556559Y-1154800D02*
G01*
X556559Y-1152800D01*
X558560Y-1148699D01*
X560659Y-1146599D01*
X564760Y-1144600D01*
X572860Y-1144600D01*
X576959Y-1146599D01*
X579059Y-1148699D01*
X581060Y-1152800D01*
X581060Y-1156900D01*
X579059Y-1160999D01*
X574960Y-1167100D01*
X554459Y-1187500D01*
X583159Y-1187500D01*
X596660Y-1152800D02*
G01*
X600760Y-1150700D01*
X606860Y-1144600D01*
X606860Y-1187500D01*
X399767Y-1140207D02*
G01*
X399767Y-1170907D01*
X401766Y-1177008D01*
X405866Y-1181107D01*
X412067Y-1183108D01*
X416167Y-1183108D01*
X422267Y-1181107D01*
X426367Y-1177008D01*
X428366Y-1170907D01*
X428366Y-1140207D01*
X470567Y-1140207D02*
G01*
X450066Y-1183108D01*
X441867Y-1140207D02*
G01*
X470567Y-1140207D01*
X827759Y-1225000D02*
G01*
X784859Y-1225000D01*
X827759Y-1225000D02*
G01*
X827759Y-1243400D01*
X825760Y-1249499D01*
X823659Y-1251599D01*
X819560Y-1253600D01*
X815460Y-1253600D01*
X811360Y-1251599D01*
X809359Y-1249499D01*
X807359Y-1243400D01*
X807359Y-1225000D01*
X807359Y-1239299D02*
G01*
X784859Y-1253600D01*
X819560Y-1267100D02*
G01*
X821660Y-1271199D01*
X827759Y-1277399D01*
X784859Y-1277399D01*
X827759Y-1319499D02*
G01*
X784859Y-1299000D01*
X827759Y-1290900D02*
G01*
X827759Y-1319499D01*
X935699Y-1454800D02*
G01*
X933599Y-1450700D01*
X929499Y-1446599D01*
X925500Y-1444600D01*
X917299Y-1444600D01*
X913199Y-1446599D01*
X909099Y-1450700D01*
X906999Y-1454800D01*
X905000Y-1460999D01*
X905000Y-1471199D01*
X906999Y-1477300D01*
X909099Y-1481399D01*
X913199Y-1485500D01*
X917299Y-1487500D01*
X925500Y-1487500D01*
X929499Y-1485500D01*
X933599Y-1481399D01*
X935699Y-1477300D01*
X973699Y-1450700D02*
G01*
X971700Y-1446599D01*
X965500Y-1444600D01*
X961499Y-1444600D01*
X955299Y-1446599D01*
X951199Y-1452800D01*
X949200Y-1463000D01*
X949200Y-1473200D01*
X951199Y-1481399D01*
X955299Y-1485500D01*
X961499Y-1487500D01*
X963500Y-1487500D01*
X969600Y-1485500D01*
X973699Y-1481399D01*
X975799Y-1475300D01*
X975799Y-1473200D01*
X973699Y-1467100D01*
X969600Y-1463000D01*
X963500Y-1460999D01*
X961499Y-1460999D01*
X955299Y-1463000D01*
X951199Y-1467100D01*
X949200Y-1473200D01*
X444600Y-905000D02*
G01*
X487500Y-905000D01*
X444600Y-905000D02*
G01*
X444600Y-886599D01*
X446599Y-880500D01*
X448699Y-878400D01*
X452800Y-876399D01*
X456900Y-876399D01*
X460999Y-878400D01*
X463000Y-880500D01*
X465000Y-886599D01*
X465000Y-905000D01*
X465000Y-890700D02*
G01*
X487500Y-876399D01*
X452800Y-862899D02*
G01*
X450700Y-858800D01*
X444600Y-852600D01*
X487500Y-852600D01*
X444600Y-835000D02*
G01*
X444600Y-812500D01*
X460999Y-824800D01*
X460999Y-818699D01*
X463000Y-814600D01*
X465000Y-812500D01*
X471199Y-810500D01*
X475300Y-810500D01*
X481399Y-812500D01*
X485500Y-816599D01*
X487500Y-822800D01*
X487500Y-828899D01*
X485500Y-835000D01*
X483499Y-837100D01*
X479400Y-839099D01*
X545000Y-1539600D02*
G01*
X545000Y-1582500D01*
X545000Y-1539600D02*
G01*
X563400Y-1539600D01*
X569499Y-1541599D01*
X571599Y-1543699D01*
X573600Y-1547800D01*
X573600Y-1551900D01*
X571599Y-1555999D01*
X569499Y-1558000D01*
X563400Y-1560000D01*
X545000Y-1560000D01*
X559299Y-1560000D02*
G01*
X573600Y-1582500D01*
X587100Y-1547800D02*
G01*
X591199Y-1545700D01*
X597399Y-1539600D01*
X597399Y-1582500D01*
X635399Y-1545700D02*
G01*
X633400Y-1541599D01*
X627199Y-1539600D01*
X623099Y-1539600D01*
X616999Y-1541599D01*
X612899Y-1547800D01*
X610900Y-1558000D01*
X610900Y-1568200D01*
X612899Y-1576399D01*
X616999Y-1580500D01*
X623099Y-1582500D01*
X625199Y-1582500D01*
X631300Y-1580500D01*
X635399Y-1576399D01*
X637500Y-1570300D01*
X637500Y-1568200D01*
X635399Y-1562100D01*
X631300Y-1558000D01*
X625199Y-1555999D01*
X623099Y-1555999D01*
X616999Y-1558000D01*
X612899Y-1562100D01*
X610900Y-1568200D01*
X857759Y-760000D02*
G01*
X814859Y-760000D01*
X857759Y-760000D02*
G01*
X857759Y-778400D01*
X855760Y-784499D01*
X853659Y-786599D01*
X849560Y-788600D01*
X845460Y-788600D01*
X841360Y-786599D01*
X839359Y-784499D01*
X837359Y-778400D01*
X837359Y-760000D01*
X837359Y-774299D02*
G01*
X814859Y-788600D01*
X849560Y-802100D02*
G01*
X851660Y-806199D01*
X857759Y-812399D01*
X814859Y-812399D01*
X847560Y-827899D02*
G01*
X849560Y-827899D01*
X853659Y-830000D01*
X855760Y-831999D01*
X857759Y-836100D01*
X857759Y-844299D01*
X855760Y-848400D01*
X853659Y-850399D01*
X849560Y-852500D01*
X845460Y-852500D01*
X841360Y-850399D01*
X835259Y-846300D01*
X814859Y-825900D01*
X814859Y-854499D01*
X685399Y-1360000D02*
G01*
X642500Y-1360000D01*
X685399Y-1360000D02*
G01*
X685399Y-1378400D01*
X683400Y-1384499D01*
X681300Y-1386599D01*
X677199Y-1388600D01*
X673099Y-1388600D01*
X669000Y-1386599D01*
X666999Y-1384499D01*
X665000Y-1378400D01*
X665000Y-1360000D01*
X665000Y-1374299D02*
G01*
X642500Y-1388600D01*
X675199Y-1404200D02*
G01*
X677199Y-1404200D01*
X681300Y-1406199D01*
X683400Y-1408299D01*
X685399Y-1412399D01*
X685399Y-1420500D01*
X683400Y-1424600D01*
X681300Y-1426700D01*
X677199Y-1428699D01*
X673099Y-1428699D01*
X669000Y-1426700D01*
X662899Y-1422600D01*
X642500Y-1402100D01*
X642500Y-1430799D01*
X675199Y-1446300D02*
G01*
X677199Y-1446300D01*
X681300Y-1448400D01*
X683400Y-1450399D01*
X685399Y-1454499D01*
X685399Y-1462699D01*
X683400Y-1466799D01*
X681300Y-1468800D01*
X677199Y-1470900D01*
X673099Y-1470900D01*
X669000Y-1468800D01*
X662899Y-1464699D01*
X642500Y-1444299D01*
X642500Y-1472899D01*
X912359Y-1139600D02*
G01*
X912359Y-1182500D01*
X912359Y-1139600D02*
G01*
X930760Y-1139600D01*
X936859Y-1141599D01*
X938959Y-1143699D01*
X940959Y-1147800D01*
X940959Y-1151900D01*
X938959Y-1155999D01*
X936859Y-1158000D01*
X930760Y-1160000D01*
X912359Y-1160000D01*
X926660Y-1160000D02*
G01*
X940959Y-1182500D01*
X954459Y-1147800D02*
G01*
X958559Y-1145700D01*
X964759Y-1139600D01*
X964759Y-1182500D01*
X998659Y-1139600D02*
G01*
X978260Y-1168200D01*
X1008860Y-1168200D01*
X998659Y-1139600D02*
G01*
X998659Y-1182500D01*
X872560Y-1175700D02*
G01*
X876660Y-1173600D01*
X880760Y-1169499D01*
X882759Y-1165500D01*
X882759Y-1157300D01*
X880760Y-1153200D01*
X876660Y-1149099D01*
X872560Y-1146999D01*
X866360Y-1145000D01*
X856159Y-1145000D01*
X850060Y-1146999D01*
X845959Y-1149099D01*
X841859Y-1153200D01*
X839859Y-1157300D01*
X839859Y-1165500D01*
X841859Y-1169499D01*
X845959Y-1173600D01*
X850060Y-1175700D01*
X882759Y-1199400D02*
G01*
X880760Y-1193299D01*
X876660Y-1191199D01*
X872560Y-1191199D01*
X868459Y-1193299D01*
X866360Y-1197399D01*
X864359Y-1205500D01*
X862359Y-1211700D01*
X858260Y-1215799D01*
X854160Y-1217800D01*
X847960Y-1217800D01*
X843860Y-1215799D01*
X841859Y-1213699D01*
X839859Y-1207600D01*
X839859Y-1199400D01*
X841859Y-1193299D01*
X843860Y-1191199D01*
X847960Y-1189200D01*
X854160Y-1189200D01*
X858260Y-1191199D01*
X862359Y-1195300D01*
X864359Y-1201500D01*
X866360Y-1209600D01*
X868459Y-1213699D01*
X872560Y-1215799D01*
X876660Y-1215799D01*
X880760Y-1213699D01*
X882759Y-1207600D01*
X882759Y-1199400D01*
X957407Y-245358D02*
G01*
X957407Y-288258D01*
X957407Y-245358D02*
G01*
X975807Y-245358D01*
X981907Y-247359D01*
X984007Y-249459D01*
X986006Y-253559D01*
X986006Y-257658D01*
X984007Y-261759D01*
X981907Y-263759D01*
X975807Y-265758D01*
X957407Y-265758D01*
X971706Y-265758D02*
G01*
X986006Y-288258D01*
X1026107Y-259659D02*
G01*
X1024107Y-265758D01*
X1020006Y-269859D01*
X1013906Y-271959D01*
X1011806Y-271959D01*
X1005707Y-269859D01*
X1001607Y-265758D01*
X999507Y-259659D01*
X999507Y-257658D01*
X1001607Y-251458D01*
X1005707Y-247359D01*
X1011806Y-245358D01*
X1013906Y-245358D01*
X1020006Y-247359D01*
X1024107Y-251458D01*
X1026107Y-259659D01*
X1026107Y-269859D01*
X1024107Y-280158D01*
X1020006Y-286259D01*
X1013906Y-288258D01*
X1009807Y-288258D01*
X1003607Y-286259D01*
X1001607Y-282159D01*
X787407Y-245207D02*
G01*
X787407Y-288108D01*
X787407Y-245207D02*
G01*
X805807Y-245207D01*
X811907Y-247208D01*
X814007Y-249308D01*
X816006Y-253407D01*
X816006Y-257507D01*
X814007Y-261608D01*
X811907Y-263607D01*
X805807Y-265608D01*
X787407Y-265608D01*
X801706Y-265608D02*
G01*
X816006Y-288108D01*
X829507Y-253407D02*
G01*
X833607Y-251307D01*
X839807Y-245207D01*
X839807Y-288108D01*
X865506Y-245207D02*
G01*
X859407Y-247208D01*
X855307Y-253407D01*
X853307Y-263607D01*
X853307Y-269708D01*
X855307Y-280007D01*
X859407Y-286107D01*
X865506Y-288108D01*
X869606Y-288108D01*
X875807Y-286107D01*
X879907Y-280007D01*
X881907Y-269708D01*
X881907Y-263607D01*
X879907Y-253407D01*
X875807Y-247208D01*
X869606Y-245207D01*
X865506Y-245207D01*
X922759Y-940000D02*
G01*
X879859Y-940000D01*
X922759Y-940000D02*
G01*
X922759Y-958400D01*
X920760Y-964499D01*
X918659Y-966599D01*
X914560Y-968600D01*
X910460Y-968600D01*
X906360Y-966599D01*
X904359Y-964499D01*
X902359Y-958400D01*
X902359Y-940000D01*
X902359Y-954299D02*
G01*
X879859Y-968600D01*
X914560Y-982100D02*
G01*
X916660Y-986199D01*
X922759Y-992399D01*
X879859Y-992399D01*
X922759Y-1030399D02*
G01*
X922759Y-1010000D01*
X904359Y-1007899D01*
X906360Y-1010000D01*
X908459Y-1016100D01*
X908459Y-1022199D01*
X906360Y-1028400D01*
X902359Y-1032500D01*
X896159Y-1034499D01*
X892060Y-1034499D01*
X885959Y-1032500D01*
X881859Y-1028400D01*
X879859Y-1022199D01*
X879859Y-1016100D01*
X881859Y-1010000D01*
X883860Y-1007899D01*
X887960Y-1005900D01*
X707359Y-1369600D02*
G01*
X707359Y-1412500D01*
X707359Y-1369600D02*
G01*
X725760Y-1369600D01*
X731860Y-1371599D01*
X733960Y-1373699D01*
X735960Y-1377800D01*
X735960Y-1381900D01*
X733960Y-1385999D01*
X731860Y-1388000D01*
X725760Y-1390000D01*
X707359Y-1390000D01*
X721660Y-1390000D02*
G01*
X735960Y-1412500D01*
X749459Y-1377800D02*
G01*
X753560Y-1375700D01*
X759760Y-1369600D01*
X759760Y-1412500D01*
X783459Y-1369600D02*
G01*
X777359Y-1371599D01*
X775259Y-1375700D01*
X775259Y-1379800D01*
X777359Y-1383899D01*
X781360Y-1385999D01*
X789560Y-1388000D01*
X795760Y-1390000D01*
X799859Y-1394099D01*
X801859Y-1398200D01*
X801859Y-1404400D01*
X799859Y-1408499D01*
X797759Y-1410500D01*
X791660Y-1412500D01*
X783459Y-1412500D01*
X777359Y-1410500D01*
X775259Y-1408499D01*
X773260Y-1404400D01*
X773260Y-1398200D01*
X775259Y-1394099D01*
X779359Y-1390000D01*
X785460Y-1388000D01*
X793659Y-1385999D01*
X797759Y-1383899D01*
X799859Y-1379800D01*
X799859Y-1375700D01*
X797759Y-1371599D01*
X791660Y-1369600D01*
X783459Y-1369600D01*
X900000Y-814600D02*
G01*
X900000Y-857500D01*
X900000Y-814600D02*
G01*
X918400Y-814600D01*
X924499Y-816599D01*
X926599Y-818699D01*
X928599Y-822800D01*
X928599Y-826900D01*
X926599Y-830999D01*
X924499Y-833000D01*
X918400Y-835000D01*
X900000Y-835000D01*
X914300Y-835000D02*
G01*
X928599Y-857500D01*
X942100Y-822800D02*
G01*
X946199Y-820700D01*
X952399Y-814600D01*
X952399Y-857500D01*
X965900Y-822800D02*
G01*
X970000Y-820700D01*
X976099Y-814600D01*
X976099Y-857500D01*
X2570500Y-549605D02*
G01*
X2570500Y-582305D01*
X2568400Y-588505D01*
X2566400Y-590504D01*
X2562299Y-592505D01*
X2558199Y-592505D01*
X2554099Y-590504D01*
X2551999Y-588505D01*
X2550000Y-582305D01*
X2550000Y-578204D01*
X2586000Y-559805D02*
G01*
X2586000Y-557804D01*
X2588000Y-553704D01*
X2590100Y-551604D01*
X2594200Y-549605D01*
X2602399Y-549605D01*
X2606499Y-551604D01*
X2608500Y-553704D01*
X2610500Y-557804D01*
X2610500Y-561905D01*
X2608500Y-566005D01*
X2604399Y-572105D01*
X2583999Y-592505D01*
X2612600Y-592505D01*
X678054Y-974800D02*
G01*
X675954Y-970700D01*
X671855Y-966599D01*
X667854Y-964600D01*
X659654Y-964600D01*
X655554Y-966599D01*
X651455Y-970700D01*
X649355Y-974800D01*
X647354Y-980999D01*
X647354Y-991199D01*
X649355Y-997300D01*
X651455Y-1001399D01*
X655554Y-1005500D01*
X659654Y-1007500D01*
X667854Y-1007500D01*
X671855Y-1005500D01*
X675954Y-1001399D01*
X678054Y-997300D01*
X718155Y-978899D02*
G01*
X716055Y-985000D01*
X711954Y-989099D01*
X705855Y-991199D01*
X703854Y-991199D01*
X697654Y-989099D01*
X693555Y-985000D01*
X691554Y-978899D01*
X691554Y-976900D01*
X693555Y-970700D01*
X697654Y-966599D01*
X703854Y-964600D01*
X705855Y-964600D01*
X711954Y-966599D01*
X716055Y-970700D01*
X718155Y-978899D01*
X718155Y-989099D01*
X716055Y-999400D01*
X711954Y-1005500D01*
X705855Y-1007500D01*
X701754Y-1007500D01*
X695655Y-1005500D01*
X693555Y-1001399D01*
X1009767Y-1245207D02*
G01*
X1009767Y-1275907D01*
X1011766Y-1282008D01*
X1015866Y-1286107D01*
X1022066Y-1288108D01*
X1026166Y-1288108D01*
X1032267Y-1286107D01*
X1036367Y-1282008D01*
X1038366Y-1275907D01*
X1038366Y-1245207D01*
X1072367Y-1245207D02*
G01*
X1051867Y-1273807D01*
X1082566Y-1273807D01*
X1072367Y-1245207D02*
G01*
X1072367Y-1288108D01*
X642406Y-1655207D02*
G01*
X642406Y-1685907D01*
X644407Y-1692008D01*
X648506Y-1696107D01*
X654706Y-1698108D01*
X658807Y-1698108D01*
X664906Y-1696107D01*
X669007Y-1692008D01*
X671006Y-1685907D01*
X671006Y-1655207D01*
X709106Y-1655207D02*
G01*
X688607Y-1655207D01*
X686606Y-1673607D01*
X688607Y-1671608D01*
X694807Y-1669508D01*
X700907Y-1669508D01*
X707006Y-1671608D01*
X711107Y-1675608D01*
X713207Y-1681808D01*
X713207Y-1685907D01*
X711107Y-1692008D01*
X707006Y-1696107D01*
X700907Y-1698108D01*
X694807Y-1698108D01*
X688607Y-1696107D01*
X686606Y-1694108D01*
X684506Y-1690007D01*
X1754997Y-1767357D02*
G01*
X1754997Y-1810257D01*
X1754997Y-1767357D02*
G01*
X1773397Y-1767357D01*
X1779498Y-1769358D01*
X1781598Y-1771457D01*
X1783598Y-1775558D01*
X1783598Y-1779657D01*
X1781598Y-1783757D01*
X1779498Y-1785758D01*
X1773397Y-1787757D01*
X1754997Y-1787757D01*
X1769297Y-1787757D02*
G01*
X1783598Y-1810257D01*
X1801198Y-1767357D02*
G01*
X1823698Y-1767357D01*
X1811498Y-1783757D01*
X1817597Y-1783757D01*
X1821697Y-1785758D01*
X1823698Y-1787757D01*
X1825798Y-1793957D01*
X1825798Y-1798058D01*
X1823698Y-1804158D01*
X1819597Y-1808258D01*
X1813497Y-1810257D01*
X1807398Y-1810257D01*
X1801198Y-1808258D01*
X1799197Y-1806257D01*
X1797097Y-1802157D01*
X1500200Y-1713460D02*
G01*
X1504300Y-1711359D01*
X1508400Y-1707260D01*
X1510399Y-1703260D01*
X1510399Y-1695059D01*
X1508400Y-1690960D01*
X1504300Y-1686860D01*
X1500200Y-1684760D01*
X1493999Y-1682759D01*
X1483800Y-1682759D01*
X1477700Y-1684760D01*
X1473599Y-1686860D01*
X1469499Y-1690960D01*
X1467500Y-1695059D01*
X1467500Y-1703260D01*
X1469499Y-1707260D01*
X1473599Y-1711359D01*
X1477700Y-1713460D01*
X1502200Y-1726959D02*
G01*
X1504300Y-1731060D01*
X1510399Y-1737159D01*
X1467500Y-1737159D01*
X1895699Y-1044800D02*
G01*
X1893599Y-1040700D01*
X1889499Y-1036599D01*
X1885500Y-1034600D01*
X1877299Y-1034600D01*
X1873199Y-1036599D01*
X1869099Y-1040700D01*
X1866999Y-1044800D01*
X1865000Y-1050999D01*
X1865000Y-1061199D01*
X1866999Y-1067300D01*
X1869099Y-1071399D01*
X1873199Y-1075500D01*
X1877299Y-1077500D01*
X1885500Y-1077500D01*
X1889499Y-1075500D01*
X1893599Y-1071399D01*
X1895699Y-1067300D01*
X1911199Y-1044800D02*
G01*
X1911199Y-1042800D01*
X1913299Y-1038699D01*
X1915299Y-1036599D01*
X1919399Y-1034600D01*
X1927600Y-1034600D01*
X1931700Y-1036599D01*
X1933699Y-1038699D01*
X1935799Y-1042800D01*
X1935799Y-1046900D01*
X1933699Y-1050999D01*
X1929600Y-1057100D01*
X1909200Y-1077500D01*
X1937799Y-1077500D01*
X119800Y-1094299D02*
G01*
X115700Y-1096399D01*
X111599Y-1100500D01*
X109600Y-1104499D01*
X109600Y-1112699D01*
X111599Y-1116799D01*
X115700Y-1120900D01*
X119800Y-1123000D01*
X125999Y-1125000D01*
X136199Y-1125000D01*
X142300Y-1123000D01*
X146399Y-1120900D01*
X150500Y-1116799D01*
X152500Y-1112699D01*
X152500Y-1104499D01*
X150500Y-1100500D01*
X146399Y-1096399D01*
X142300Y-1094299D01*
X109600Y-1052199D02*
G01*
X152500Y-1072600D01*
X109600Y-1080799D02*
G01*
X109600Y-1052199D01*
X1327902Y-1592968D02*
G01*
X1327902Y-1625668D01*
X1325802Y-1631867D01*
X1323801Y-1633868D01*
X1319701Y-1635868D01*
X1315601Y-1635868D01*
X1311502Y-1633868D01*
X1309402Y-1631867D01*
X1307402Y-1625668D01*
X1307402Y-1621568D01*
X1345402Y-1592968D02*
G01*
X1367902Y-1592968D01*
X1355702Y-1609367D01*
X1361801Y-1609367D01*
X1365901Y-1611368D01*
X1367902Y-1613368D01*
X1370002Y-1619567D01*
X1370002Y-1623667D01*
X1367902Y-1629767D01*
X1363901Y-1633868D01*
X1357701Y-1635868D01*
X1351602Y-1635868D01*
X1345402Y-1633868D01*
X1343401Y-1631867D01*
X1341401Y-1627768D01*
X1849994Y-689600D02*
G01*
X1849994Y-720300D01*
X1851994Y-726399D01*
X1856094Y-730500D01*
X1862295Y-732500D01*
X1866395Y-732500D01*
X1872494Y-730500D01*
X1876594Y-726399D01*
X1878594Y-720300D01*
X1878594Y-689600D01*
X1896194Y-689600D02*
G01*
X1918694Y-689600D01*
X1906495Y-705999D01*
X1912595Y-705999D01*
X1916694Y-708000D01*
X1918694Y-710000D01*
X1920794Y-716199D01*
X1920794Y-720300D01*
X1918694Y-726399D01*
X1914594Y-730500D01*
X1908495Y-732500D01*
X1902394Y-732500D01*
X1896194Y-730500D01*
X1894194Y-728499D01*
X1892094Y-724400D01*
X2570500Y-944600D02*
G01*
X2570500Y-977300D01*
X2568400Y-983499D01*
X2566400Y-985500D01*
X2562299Y-987500D01*
X2558199Y-987500D01*
X2554099Y-985500D01*
X2551999Y-983499D01*
X2550000Y-977300D01*
X2550000Y-973200D01*
X2604399Y-944600D02*
G01*
X2583999Y-973200D01*
X2614600Y-973200D01*
X2604399Y-944600D02*
G01*
X2604399Y-987500D01*
D58*
X2417220Y-1512923D02*
G01*
X2417220Y-1543524D01*
X2419220Y-1549724D01*
X2423320Y-1553823D01*
X2429521Y-1555823D01*
X2433621Y-1555823D01*
X2439720Y-1553823D01*
X2443820Y-1549724D01*
X2445820Y-1543524D01*
X2445820Y-1512923D01*
X2469620Y-1512923D02*
G01*
X2463420Y-1514924D01*
X2461421Y-1519023D01*
X2461421Y-1523123D01*
X2463420Y-1527224D01*
X2467520Y-1529223D01*
X2475721Y-1531323D01*
X2481821Y-1533323D01*
X2485920Y-1537424D01*
X2488020Y-1541523D01*
X2488020Y-1547624D01*
X2485920Y-1551723D01*
X2483921Y-1553823D01*
X2477721Y-1555823D01*
X2469620Y-1555823D01*
X2463420Y-1553823D01*
X2461421Y-1551723D01*
X2459321Y-1547624D01*
X2459321Y-1541523D01*
X2461421Y-1537424D01*
X2465520Y-1533323D01*
X2471620Y-1531323D01*
X2479821Y-1529223D01*
X2483921Y-1527224D01*
X2485920Y-1523123D01*
X2485920Y-1519023D01*
X2483921Y-1514924D01*
X2477721Y-1512923D01*
X2469620Y-1512923D01*
D10*
X3053645Y-653982D02*
G01*
X3053645Y-746017D01*
X3053644Y-605513D02*
G01*
X3097694Y-605513D01*
X3142227Y-749954D02*
G01*
X3142227Y-650045D01*
X3191441Y-739369D02*
G01*
X3142227Y-739369D01*
X3191441Y-660630D02*
G01*
X3142227Y-660630D01*
X3191441Y-660630D02*
G01*
X3191440Y-739369D01*
X3053645Y-794486D02*
G01*
X3097694Y-794486D01*
X3053645Y-609868D02*
G01*
X3053645Y-612159D01*
X3053645Y-787840D02*
G01*
X3053645Y-794486D01*
X3053645Y-408982D02*
G01*
X3053645Y-501017D01*
X3053644Y-360513D02*
G01*
X3097694Y-360513D01*
X3142227Y-504954D02*
G01*
X3142227Y-405045D01*
X3191441Y-494369D02*
G01*
X3142227Y-494369D01*
X3191441Y-415630D02*
G01*
X3142227Y-415630D01*
X3191441Y-415630D02*
G01*
X3191440Y-494369D01*
X3053645Y-549486D02*
G01*
X3097694Y-549486D01*
X3053645Y-364868D02*
G01*
X3053645Y-367159D01*
X3053645Y-542840D02*
G01*
X3053645Y-549486D01*
X1884499Y-1991754D02*
G01*
X1884499Y-1923755D01*
X1884499Y-1923755D02*
G01*
X1826499Y-1923755D01*
X1884499Y-1991754D02*
G01*
X1826499Y-1991754D01*
X1803500Y-1923755D02*
G01*
X1757500Y-1923755D01*
X1802500Y-1991754D02*
G01*
X1757500Y-1991754D01*
X1757500Y-1991754D02*
G01*
X1743500Y-1977755D01*
X1743500Y-1937755D01*
X1757500Y-1923755D01*
D52*
X1818000Y-1973755D02*
G01*
X1818000Y-1942755D01*
X1818000Y-1958067D02*
G01*
X1811095Y-1958067D01*
D10*
X1189499Y-244000D02*
G01*
X1189499Y-175999D01*
X1189499Y-175999D02*
G01*
X1131499Y-175999D01*
X1189499Y-244000D02*
G01*
X1131499Y-244000D01*
X1108500Y-175999D02*
G01*
X1062500Y-175999D01*
X1107500Y-244000D02*
G01*
X1062500Y-244000D01*
X1062500Y-244000D02*
G01*
X1048500Y-230000D01*
X1048500Y-190000D01*
X1062500Y-175999D01*
D52*
X1123000Y-225999D02*
G01*
X1123000Y-195000D01*
X1123000Y-210313D02*
G01*
X1116095Y-210313D01*
D10*
X630500Y-175999D02*
G01*
X630500Y-244000D01*
X630500Y-244000D02*
G01*
X688499Y-244000D01*
X630500Y-175999D02*
G01*
X688499Y-175999D01*
X711500Y-244000D02*
G01*
X757500Y-244000D01*
X712500Y-175999D02*
G01*
X757500Y-175999D01*
X757500Y-175999D02*
G01*
X771499Y-190000D01*
X771499Y-230000D01*
X757500Y-244000D01*
D52*
X696999Y-194000D02*
G01*
X696999Y-225000D01*
X696999Y-209686D02*
G01*
X703904Y-209686D01*
D10*
X1544440Y-1562716D02*
G01*
X1544440Y-1528699D01*
X1544440Y-1528699D02*
G01*
X1583811Y-1528699D01*
X1599558Y-1600115D02*
G01*
X1599558Y-1575394D01*
X1544440Y-1646810D02*
G01*
X1544440Y-1612793D01*
X1544440Y-1646810D02*
G01*
X1583811Y-1646810D01*
X1637559Y-1427793D02*
G01*
X1637559Y-1461810D01*
X1637559Y-1461810D02*
G01*
X1598188Y-1461810D01*
X1582440Y-1390394D02*
G01*
X1582440Y-1415115D01*
X1637559Y-1343699D02*
G01*
X1637559Y-1377716D01*
X1637559Y-1343699D02*
G01*
X1598188Y-1343699D01*
X694801Y-829960D02*
G01*
X694801Y-795945D01*
X694801Y-795945D02*
G01*
X734171Y-795945D01*
X749918Y-867361D02*
G01*
X749918Y-842638D01*
X694801Y-914054D02*
G01*
X694801Y-880039D01*
X694801Y-914054D02*
G01*
X734171Y-914054D01*
X515039Y-1422440D02*
G01*
X549054Y-1422440D01*
X549054Y-1422440D02*
G01*
X549054Y-1461812D01*
X477638Y-1477559D02*
G01*
X502361Y-1477559D01*
X430945Y-1422440D02*
G01*
X464960Y-1422440D01*
X430945Y-1422440D02*
G01*
X430945Y-1461812D01*
X507440Y-1284960D02*
G01*
X507440Y-1250945D01*
X507440Y-1250945D02*
G01*
X546811Y-1250945D01*
X562559Y-1322361D02*
G01*
X562559Y-1297638D01*
X507440Y-1369054D02*
G01*
X507440Y-1335039D01*
X507440Y-1369054D02*
G01*
X546811Y-1369054D01*
X1656026Y-1878189D02*
G01*
X1656026Y-1807323D01*
X1610751Y-1878189D02*
G01*
X1579254Y-1878189D01*
X1533977Y-1878189D02*
G01*
X1533977Y-1807323D01*
X2005434Y-1491729D02*
G01*
X1934567Y-1491729D01*
X2005434Y-1537004D02*
G01*
X2005434Y-1568501D01*
X2005434Y-1613777D02*
G01*
X1934567Y-1613777D01*
X2340010Y-1843301D02*
G01*
X2323858Y-1843301D01*
X2040789Y-1843301D02*
G01*
X2056561Y-1843301D01*
X2340010Y-1843301D02*
G01*
X2340010Y-1911370D01*
X2040789Y-1843301D02*
G01*
X2040789Y-1911059D01*
X2070000Y-2055900D02*
G01*
X2310000Y-2055900D01*
X2340000Y-2010000D02*
G01*
X2360000Y-2030000D01*
X2350000Y-2040000D01*
X2340000Y-2040000D01*
X2330000Y-2030000D01*
X2320000Y-2030000D01*
X2310000Y-2040000D01*
X2040000Y-2010000D02*
G01*
X2070000Y-2010000D01*
X2103389Y-2010000D02*
G01*
X2270000Y-2010000D01*
X2303389Y-2010000D02*
G01*
X2340000Y-2010000D01*
X2040000Y-2010000D02*
G01*
X2020000Y-2030000D01*
X2030000Y-2040000D01*
X2040000Y-2040000D01*
X2050000Y-2030000D01*
X2060000Y-2030000D01*
X2070000Y-2040000D01*
X2340010Y-1999630D02*
G01*
X2340010Y-2010000D01*
X2040789Y-1999940D02*
G01*
X2040789Y-2010000D01*
X2233620Y-470199D02*
G01*
X2098580Y-470199D01*
X2098580Y-470199D02*
G01*
X2098580Y-219800D01*
X2233620Y-219800D02*
G01*
X2098580Y-219800D01*
X2233620Y-470199D02*
G01*
X2233620Y-219800D01*
D53*
X2181377Y-1640358D02*
G01*
X2228622Y-1640358D01*
X2181377Y-1670673D02*
G01*
X2181377Y-1640358D01*
X2181377Y-1715162D02*
G01*
X2228622Y-1715162D01*
X2181377Y-1684846D02*
G01*
X2181377Y-1715162D01*
X2228622Y-1684846D02*
G01*
X2228622Y-1715162D01*
X2228622Y-1670673D02*
G01*
X2228622Y-1640358D01*
X2126377Y-1640358D02*
G01*
X2173622Y-1640358D01*
X2126377Y-1670673D02*
G01*
X2126377Y-1640358D01*
X2126377Y-1715162D02*
G01*
X2173622Y-1715162D01*
X2126377Y-1684846D02*
G01*
X2126377Y-1715162D01*
X2173622Y-1684846D02*
G01*
X2173622Y-1715162D01*
X2173622Y-1670673D02*
G01*
X2173622Y-1640358D01*
D10*
X1406999Y-805000D02*
G01*
X1446999Y-805000D01*
X1446999Y-865000D02*
G01*
X1406999Y-865000D01*
D53*
X1911377Y-1695358D02*
G01*
X1958622Y-1695358D01*
X1911377Y-1725673D02*
G01*
X1911377Y-1695358D01*
X1911377Y-1770162D02*
G01*
X1958622Y-1770162D01*
X1911377Y-1739846D02*
G01*
X1911377Y-1770162D01*
X1958622Y-1739846D02*
G01*
X1958622Y-1770162D01*
X1958622Y-1725673D02*
G01*
X1958622Y-1695358D01*
X1681377Y-1132602D02*
G01*
X1728622Y-1132602D01*
X1681377Y-1162917D02*
G01*
X1681377Y-1132602D01*
X1681377Y-1207406D02*
G01*
X1728622Y-1207406D01*
X1681377Y-1177091D02*
G01*
X1681377Y-1207406D01*
X1728622Y-1177091D02*
G01*
X1728622Y-1207406D01*
X1728622Y-1162917D02*
G01*
X1728622Y-1132602D01*
X1681377Y-1217602D02*
G01*
X1728622Y-1217602D01*
X1681377Y-1247917D02*
G01*
X1681377Y-1217602D01*
X1681377Y-1292406D02*
G01*
X1728622Y-1292406D01*
X1681377Y-1262091D02*
G01*
X1681377Y-1292406D01*
X1728622Y-1262091D02*
G01*
X1728622Y-1292406D01*
X1728622Y-1247917D02*
G01*
X1728622Y-1217602D01*
X1528836Y-1440151D02*
G01*
X1481589Y-1440151D01*
X1528836Y-1409836D02*
G01*
X1528836Y-1440151D01*
X1528836Y-1365347D02*
G01*
X1481589Y-1365347D01*
X1528836Y-1395662D02*
G01*
X1528836Y-1365347D01*
X1481589Y-1395662D02*
G01*
X1481589Y-1365347D01*
X1481589Y-1409836D02*
G01*
X1481589Y-1440151D01*
D54*
X1755000Y-1602455D02*
G01*
X1755000Y-1552455D01*
X1755000Y-1592455D02*
G01*
X1770000Y-1592455D01*
X1770000Y-1592455D02*
G01*
X1755000Y-1562455D01*
X1755000Y-1562455D02*
G01*
X1770000Y-1562455D01*
X1755000Y-1592455D02*
G01*
X1740000Y-1592455D01*
X1740000Y-1592455D02*
G01*
X1755000Y-1562455D01*
X1755000Y-1562455D02*
G01*
X1740000Y-1562455D01*
D10*
X1699882Y-1543755D02*
G01*
X1810118Y-1543755D01*
X1810117Y-1487204D02*
G01*
X1810118Y-1668305D01*
X1699882Y-1487204D02*
G01*
X1699881Y-1668305D01*
X1810117Y-1487204D02*
G01*
X1803469Y-1487204D01*
X1706530Y-1487204D02*
G01*
X1699882Y-1487204D01*
X1810118Y-1668305D02*
G01*
X1803469Y-1668305D01*
X1706530Y-1668305D02*
G01*
X1699881Y-1668305D01*
D53*
X1873625Y-1525670D02*
G01*
X1873625Y-1501259D01*
X1873625Y-1539845D02*
G01*
X1873625Y-1564250D01*
X1826378Y-1539845D02*
G01*
X1826378Y-1564250D01*
X1834252Y-1570160D02*
G01*
X1865748Y-1570160D01*
X1826378Y-1525670D02*
G01*
X1826378Y-1501259D01*
X1834252Y-1495354D02*
G01*
X1865748Y-1495354D01*
X1832287Y-1570160D02*
G01*
X1834252Y-1570160D01*
X1867716Y-1570160D02*
G01*
X1865748Y-1570160D01*
X1832282Y-1495354D02*
G01*
X1834252Y-1495354D01*
X1867721Y-1495354D02*
G01*
X1865748Y-1495354D01*
D10*
X1906890Y-1418110D02*
G01*
X1906890Y-1181891D01*
X2143109Y-1181889D02*
G01*
X2143109Y-1418110D01*
X2077407Y-1418110D01*
X1972592Y-1418110D02*
G01*
X1906890Y-1418110D01*
X1906890Y-1181891D02*
G01*
X1906890Y-1181889D01*
X1972592Y-1181889D01*
X2077407Y-1181889D02*
G01*
X2143109Y-1181889D01*
D53*
X1723622Y-1850151D02*
G01*
X1676377Y-1850151D01*
X1723622Y-1819837D02*
G01*
X1723622Y-1850151D01*
X1723622Y-1775347D02*
G01*
X1676377Y-1775347D01*
X1723622Y-1805662D02*
G01*
X1723622Y-1775347D01*
X1676377Y-1805662D02*
G01*
X1676377Y-1775347D01*
X1676377Y-1819837D02*
G01*
X1676377Y-1850151D01*
X1500625Y-927914D02*
G01*
X1500625Y-903503D01*
X1500625Y-942089D02*
G01*
X1500625Y-966496D01*
X1453379Y-942089D02*
G01*
X1453379Y-966496D01*
X1461252Y-972404D02*
G01*
X1492748Y-972404D01*
X1453379Y-927914D02*
G01*
X1453379Y-903503D01*
X1461252Y-897600D02*
G01*
X1492748Y-897600D01*
X1459287Y-972404D02*
G01*
X1461252Y-972404D01*
X1494715Y-972404D02*
G01*
X1492748Y-972404D01*
X1459282Y-897600D02*
G01*
X1461252Y-897600D01*
X1494720Y-897600D02*
G01*
X1492748Y-897600D01*
X1400625Y-927914D02*
G01*
X1400625Y-903503D01*
X1400625Y-942089D02*
G01*
X1400625Y-966496D01*
X1353379Y-942089D02*
G01*
X1353379Y-966496D01*
X1361252Y-972404D02*
G01*
X1392748Y-972404D01*
X1353379Y-927914D02*
G01*
X1353379Y-903503D01*
X1361252Y-897600D02*
G01*
X1392748Y-897600D01*
X1359287Y-972404D02*
G01*
X1361252Y-972404D01*
X1394715Y-972404D02*
G01*
X1392748Y-972404D01*
X1359282Y-897600D02*
G01*
X1361252Y-897600D01*
X1394720Y-897600D02*
G01*
X1392748Y-897600D01*
D55*
X355210Y-1770380D02*
G01*
X355210Y-730619D01*
X487100Y-730619D01*
X487100Y-616449D01*
X998909Y-616449D01*
X998909Y-730619D01*
X1130799Y-730619D01*
X1130799Y-1770380D01*
X902839Y-1770380D01*
X902839Y-1884549D01*
X487100Y-1884549D01*
X487100Y-1770380D01*
X355210Y-1770380D01*
D56*
X767359Y-1205000D02*
G01*
X767359Y-1124000D01*
X688060Y-1205000D02*
G01*
X714659Y-1205000D01*
X635360Y-1124000D02*
G01*
X635360Y-1205000D01*
D53*
X610983Y-947397D02*
G01*
X563737Y-947397D01*
X610983Y-917082D02*
G01*
X610983Y-947397D01*
X610983Y-872593D02*
G01*
X563737Y-872593D01*
X610983Y-902908D02*
G01*
X610983Y-872593D01*
X563737Y-902908D02*
G01*
X563737Y-872593D01*
X563737Y-917082D02*
G01*
X563737Y-947397D01*
X610983Y-1042397D02*
G01*
X563737Y-1042397D01*
X610983Y-1012082D02*
G01*
X610983Y-1042397D01*
X610983Y-967593D02*
G01*
X563737Y-967593D01*
X610983Y-997908D02*
G01*
X610983Y-967593D01*
X563737Y-997908D02*
G01*
X563737Y-967593D01*
X563737Y-1012082D02*
G01*
X563737Y-1042397D01*
X610983Y-1132397D02*
G01*
X563737Y-1132397D01*
X610983Y-1102082D02*
G01*
X610983Y-1132397D01*
X610983Y-1057593D02*
G01*
X563737Y-1057593D01*
X610983Y-1087908D02*
G01*
X610983Y-1057593D01*
X563737Y-1087908D02*
G01*
X563737Y-1057593D01*
X563737Y-1102082D02*
G01*
X563737Y-1132397D01*
D56*
X434360Y-1086999D02*
G01*
X434360Y-1128000D01*
X498359Y-1128000D01*
X498359Y-998000D02*
G01*
X434360Y-998000D01*
X434360Y-1039000D01*
D53*
X699962Y-1308622D02*
G01*
X699962Y-1261377D01*
X730277Y-1308622D02*
G01*
X699962Y-1308622D01*
X774767Y-1308622D02*
G01*
X774767Y-1261377D01*
X744452Y-1308622D02*
G01*
X774767Y-1308622D01*
X744452Y-1261377D02*
G01*
X774767Y-1261377D01*
X730277Y-1261377D02*
G01*
X699962Y-1261377D01*
X930275Y-1386374D02*
G01*
X905864Y-1386374D01*
X944449Y-1386374D02*
G01*
X968855Y-1386374D01*
X944449Y-1433620D02*
G01*
X968855Y-1433620D01*
X974764Y-1425747D02*
G01*
X974764Y-1394252D01*
X930275Y-1433620D02*
G01*
X905864Y-1433620D01*
X899960Y-1425747D02*
G01*
X899960Y-1394252D01*
X974764Y-1427712D02*
G01*
X974764Y-1425747D01*
X974764Y-1392283D02*
G01*
X974764Y-1394252D01*
X899960Y-1427716D02*
G01*
X899960Y-1425747D01*
X899960Y-1392278D02*
G01*
X899960Y-1394252D01*
X386377Y-817602D02*
G01*
X433622Y-817602D01*
X386377Y-847917D02*
G01*
X386377Y-817602D01*
X386377Y-892406D02*
G01*
X433622Y-892406D01*
X386377Y-862091D02*
G01*
X386377Y-892406D01*
X433622Y-862091D02*
G01*
X433622Y-892406D01*
X433622Y-847917D02*
G01*
X433622Y-817602D01*
X527397Y-1536377D02*
G01*
X527397Y-1583622D01*
X497082Y-1536377D02*
G01*
X527397Y-1536377D01*
X452593Y-1536377D02*
G01*
X452593Y-1583622D01*
X482908Y-1536377D02*
G01*
X452593Y-1536377D01*
X482908Y-1583622D02*
G01*
X452593Y-1583622D01*
X497082Y-1583622D02*
G01*
X527397Y-1583622D01*
X813737Y-872602D02*
G01*
X860982Y-872602D01*
X813737Y-902917D02*
G01*
X813737Y-872602D01*
X813737Y-947406D02*
G01*
X860982Y-947406D01*
X813737Y-917091D02*
G01*
X813737Y-947406D01*
X860982Y-917091D02*
G01*
X860982Y-947406D01*
X860982Y-902917D02*
G01*
X860982Y-872602D01*
X685983Y-1347397D02*
G01*
X638737Y-1347397D01*
X685983Y-1317082D02*
G01*
X685983Y-1347397D01*
X685983Y-1272593D02*
G01*
X638737Y-1272593D01*
X685983Y-1302908D02*
G01*
X685983Y-1272593D01*
X638737Y-1302908D02*
G01*
X638737Y-1272593D01*
X638737Y-1317082D02*
G01*
X638737Y-1347397D01*
X909962Y-1238622D02*
G01*
X909962Y-1191377D01*
X940277Y-1238622D02*
G01*
X909962Y-1238622D01*
X984767Y-1238622D02*
G01*
X984767Y-1191377D01*
X954452Y-1238622D02*
G01*
X984767Y-1238622D01*
X954452Y-1191377D02*
G01*
X984767Y-1191377D01*
X940277Y-1191377D02*
G01*
X909962Y-1191377D01*
X783734Y-1177085D02*
G01*
X783734Y-1201496D01*
X783734Y-1162910D02*
G01*
X783734Y-1138503D01*
X830981Y-1162910D02*
G01*
X830981Y-1138503D01*
X823107Y-1132595D02*
G01*
X791611Y-1132595D01*
X830981Y-1177085D02*
G01*
X830981Y-1201496D01*
X823107Y-1207399D02*
G01*
X791611Y-1207399D01*
X825072Y-1132595D02*
G01*
X823107Y-1132595D01*
X789643Y-1132595D02*
G01*
X791611Y-1132595D01*
X825077Y-1207399D02*
G01*
X823107Y-1207399D01*
X789638Y-1207399D02*
G01*
X791611Y-1207399D01*
X1027397Y-186377D02*
G01*
X1027397Y-233622D01*
X997082Y-186377D02*
G01*
X1027397Y-186377D01*
X952592Y-186377D02*
G01*
X952592Y-233622D01*
X982907Y-186377D02*
G01*
X952592Y-186377D01*
X982907Y-233622D02*
G01*
X952592Y-233622D01*
X997082Y-233622D02*
G01*
X1027397Y-233622D01*
X792602Y-233622D02*
G01*
X792602Y-186377D01*
X822917Y-233622D02*
G01*
X792602Y-233622D01*
X867407Y-233622D02*
G01*
X867407Y-186377D01*
X837092Y-233622D02*
G01*
X867407Y-233622D01*
X837092Y-186377D02*
G01*
X867407Y-186377D01*
X822917Y-186377D02*
G01*
X792602Y-186377D01*
X980982Y-1017397D02*
G01*
X933737Y-1017397D01*
X980982Y-987082D02*
G01*
X980982Y-1017397D01*
X980982Y-942593D02*
G01*
X933737Y-942593D01*
X980982Y-972908D02*
G01*
X980982Y-942593D01*
X933737Y-972908D02*
G01*
X933737Y-942593D01*
X933737Y-987082D02*
G01*
X933737Y-1017397D01*
X699962Y-1358622D02*
G01*
X699962Y-1311377D01*
X730277Y-1358622D02*
G01*
X699962Y-1358622D01*
X774767Y-1358622D02*
G01*
X774767Y-1311377D01*
X744452Y-1358622D02*
G01*
X774767Y-1358622D01*
X744452Y-1311377D02*
G01*
X774767Y-1311377D01*
X730277Y-1311377D02*
G01*
X699962Y-1311377D01*
X889962Y-913622D02*
G01*
X889962Y-866377D01*
X920277Y-913622D02*
G01*
X889962Y-913622D01*
X964767Y-913622D02*
G01*
X964767Y-866377D01*
X934452Y-913622D02*
G01*
X964767Y-913622D01*
X934452Y-866377D02*
G01*
X964767Y-866377D01*
X920277Y-866377D02*
G01*
X889962Y-866377D01*
D10*
X2657289Y-281572D02*
G01*
X2657289Y-230390D01*
X2578548Y-230390D01*
X2487999Y-230390D02*
G01*
X2487999Y-529603D01*
X2657289Y-478422D02*
G01*
X2657289Y-529603D01*
X2578548Y-529603D01*
D53*
X689445Y-1068625D02*
G01*
X713856Y-1068625D01*
X675270Y-1068625D02*
G01*
X650864Y-1068625D01*
X675270Y-1021379D02*
G01*
X650864Y-1021379D01*
X644954Y-1029252D02*
G01*
X644954Y-1060747D01*
X689445Y-1021379D02*
G01*
X713856Y-1021379D01*
X719760Y-1029252D02*
G01*
X719760Y-1060747D01*
X644954Y-1027287D02*
G01*
X644954Y-1029252D01*
X644954Y-1062716D02*
G01*
X644954Y-1060747D01*
X719760Y-1027283D02*
G01*
X719760Y-1029252D01*
X719760Y-1062721D02*
G01*
X719760Y-1060747D01*
X1827397Y-1824131D02*
G01*
X1827397Y-1871377D01*
X1797082Y-1824131D02*
G01*
X1827397Y-1824131D01*
X1752592Y-1824131D02*
G01*
X1752592Y-1871377D01*
X1782907Y-1824131D02*
G01*
X1752592Y-1824131D01*
X1782907Y-1871377D02*
G01*
X1752592Y-1871377D01*
X1797082Y-1871377D02*
G01*
X1827397Y-1871377D01*
D10*
X1591364Y-1685275D02*
G01*
X1622861Y-1685275D01*
X1635059Y-1728967D02*
G01*
X1635059Y-1697471D01*
X1591364Y-1741165D02*
G01*
X1622861Y-1741165D01*
X1568692Y-1685045D02*
G01*
X1537197Y-1685045D01*
X1568692Y-1740936D02*
G01*
X1537197Y-1740936D01*
X1525000Y-1728739D02*
G01*
X1525000Y-1697242D01*
X1893635Y-1147480D02*
G01*
X1862138Y-1147480D01*
X1849940Y-1103787D02*
G01*
X1849940Y-1135282D01*
X1893635Y-1091588D02*
G01*
X1862138Y-1091588D01*
X1916307Y-1147710D02*
G01*
X1947802Y-1147710D01*
X1916307Y-1091819D02*
G01*
X1947802Y-1091819D01*
X1960000Y-1104016D02*
G01*
X1960000Y-1135513D01*
X1249759Y-1580864D02*
G01*
X1249759Y-1344645D01*
X1426930Y-1344645D01*
X1426930Y-1580864D01*
X1249759Y-1580864D01*
X1777015Y-130630D02*
G01*
X1377015Y-130630D01*
X1377015Y-45630D01*
X1777015Y-45630D01*
X1777015Y-130630D01*
X1377155Y-730630D02*
G01*
X1321108Y-730630D01*
X1427155Y-730630D02*
G01*
X1426854Y-730630D01*
X1477155Y-730630D02*
G01*
X1476854Y-730630D01*
X1527155Y-730630D02*
G01*
X1526854Y-730630D01*
X1577155Y-730630D02*
G01*
X1576854Y-730630D01*
X1627155Y-730630D02*
G01*
X1626854Y-730630D01*
X1677155Y-730630D02*
G01*
X1676854Y-730630D01*
X1727155Y-730630D02*
G01*
X1726854Y-730630D01*
X1832920Y-730630D02*
G01*
X1776854Y-730630D01*
X1321108Y-153969D02*
G01*
X1321108Y-21968D01*
X1321108Y-203969D02*
G01*
X1321108Y-203670D01*
X1321108Y-253969D02*
G01*
X1321108Y-253670D01*
X1321108Y-303969D02*
G01*
X1321108Y-303670D01*
X1321108Y-353969D02*
G01*
X1321108Y-353670D01*
X1321108Y-403969D02*
G01*
X1321108Y-403670D01*
X1321108Y-453969D02*
G01*
X1321108Y-453670D01*
X1321108Y-503969D02*
G01*
X1321108Y-503670D01*
X1321108Y-553969D02*
G01*
X1321108Y-553670D01*
X1321108Y-603969D02*
G01*
X1321108Y-603668D01*
X1321108Y-730630D02*
G01*
X1321108Y-653670D01*
X1832920Y-153969D02*
G01*
X1832920Y-21968D01*
X1832920Y-203969D02*
G01*
X1832920Y-203670D01*
X1832920Y-253969D02*
G01*
X1832920Y-253668D01*
X1832920Y-303969D02*
G01*
X1832920Y-303670D01*
X1832920Y-353969D02*
G01*
X1832920Y-353670D01*
X1832920Y-403969D02*
G01*
X1832920Y-403670D01*
X1832920Y-453969D02*
G01*
X1832920Y-453670D01*
X1832920Y-503969D02*
G01*
X1832920Y-503670D01*
X1832920Y-553969D02*
G01*
X1832920Y-553670D01*
X1832920Y-603969D02*
G01*
X1832920Y-603670D01*
X1832920Y-730630D02*
G01*
X1832920Y-653670D01*
X1321108Y-21968D02*
G01*
X1832920Y-21968D01*
X1732015Y-95630D02*
G01*
X1677015Y-95630D01*
X1677015Y-75630D01*
X1732015Y-75630D01*
X1732015Y-95630D01*
X2657289Y-676572D02*
G01*
X2657289Y-625390D01*
X2578548Y-625390D01*
X2487999Y-625390D02*
G01*
X2487999Y-924603D01*
X2657289Y-873422D02*
G01*
X2657289Y-924603D01*
X2578548Y-924603D01*
D53*
G75*
G01*
X1826379Y-1564251D02*
G03*
X1832288Y-1570160I5909J0D01*
G75*
G01*
X1873625Y-1564251D02*
G02*
X1867716Y-1570160I-5909J0D01*
G75*
G01*
X1826379Y-1501259D02*
G02*
X1832283Y-1495355I5904J0D01*
G75*
G01*
X1873625Y-1501259D02*
G03*
X1867721Y-1495355I-5904J0D01*
G75*
G01*
X1453379Y-966496D02*
G03*
X1459288Y-972405I5909J0D01*
G75*
G01*
X1500625Y-966496D02*
G02*
X1494716Y-972405I-5909J0D01*
G75*
G01*
X1453379Y-903504D02*
G02*
X1459283Y-897600I5904J0D01*
G75*
G01*
X1500625Y-903504D02*
G03*
X1494721Y-897600I-5904J0D01*
G75*
G01*
X1353379Y-966496D02*
G03*
X1359288Y-972405I5909J0D01*
G75*
G01*
X1400625Y-966496D02*
G02*
X1394716Y-972405I-5909J0D01*
G75*
G01*
X1353379Y-903504D02*
G02*
X1359283Y-897600I5904J0D01*
G75*
G01*
X1400625Y-903504D02*
G03*
X1394721Y-897600I-5904J0D01*
D56*
G75*
G01*
X498670Y-1148470D02*
G03*
X498670Y-1138470I0J5000D01*
G75*
G01*
X498670Y-1138470D02*
G03*
X498670Y-1148470I0J-5000D01*
D53*
G75*
G01*
X968856Y-1433621D02*
G03*
X974765Y-1427712I0J5909D01*
G75*
G01*
X968856Y-1386375D02*
G02*
X974765Y-1392284I0J-5909D01*
G75*
G01*
X905864Y-1433621D02*
G02*
X899960Y-1427717I0J5904D01*
G75*
G01*
X905864Y-1386375D02*
G03*
X899960Y-1392279I0J-5904D01*
G75*
G01*
X830981Y-1138504D02*
G03*
X825072Y-1132595I-5909J0D01*
G75*
G01*
X783735Y-1138504D02*
G02*
X789644Y-1132595I5909J0D01*
G75*
G01*
X830981Y-1201496D02*
G02*
X825077Y-1207400I-5904J0D01*
G75*
G01*
X783735Y-1201496D02*
G03*
X789639Y-1207400I5904J0D01*
G75*
G01*
X650864Y-1021379D02*
G03*
X644955Y-1027288I0J-5909D01*
G75*
G01*
X650864Y-1068625D02*
G02*
X644955Y-1062716I0J5909D01*
G75*
G01*
X713856Y-1021379D02*
G02*
X719760Y-1027283I0J-5904D01*
G75*
G01*
X713856Y-1068625D02*
G03*
X719760Y-1062721I0J5904D01*
D10*
G75*
G01*
X1635060Y-1728968D02*
G02*
X1622862Y-1741166I-12198J0D01*
G75*
G01*
X1622862Y-1685274D02*
G02*
X1635060Y-1697472I0J-12198D01*
G75*
G01*
X1537198Y-1740937D02*
G02*
X1525000Y-1728739I0J12198D01*
G75*
G01*
X1525000Y-1697243D02*
G02*
X1537198Y-1685045I12198J0D01*
G75*
G01*
X1849940Y-1103787D02*
G02*
X1862138Y-1091589I12198J0D01*
G75*
G01*
X1862138Y-1147481D02*
G02*
X1849940Y-1135283I0J12198D01*
G75*
G01*
X1947802Y-1091818D02*
G02*
X1960000Y-1104016I0J-12198D01*
G75*
G01*
X1960000Y-1135512D02*
G02*
X1947802Y-1147710I-12198J0D01*
D57*
G75*
G01*
X258900Y-1153625D02*
G03*
X117380Y-1156235I-68896J-102364D01*
D10*
G75*
G01*
X2450000Y-1500000D02*
G02*
X2450000Y-1300000I0J100000D01*
G75*
G01*
X2450000Y-1300000D02*
G02*
X2450000Y-1500000I0J-100000D01*
G75*
G01
X1665000Y-1782760D02*
G03X1665000Y-1782760I-5000J0D01*
G75*
G01
X1915010Y-1487760D02*
G03X1915010Y-1487760I-5000J0D01*
G75*
G01
X2291300Y-490200D02*
G03X2291300Y-490200I-15000J0D01*
G75*
G01
X2647100Y-255000D02*
G03X2647100Y-255000I-7070J0D01*
G75*
G01
X1414140Y-1372760D02*
G03X1414140Y-1372760I-14140J0D01*
G75*
G01
X1267020Y-180630D02*
G03X1267020Y-180630I-5000J0D01*
G75*
G01
X2647090Y-650000D02*
G03X2647090Y-650000I-7070J0D01*
M02*
